<?xml version="1.0" ?>
<svg id="svg_2023_06_05_00_18_56_393180" sodipodi:docname="@0_0.svg" width="1050.0mm" height="1050.0mm" viewBox="0 0 1050.0 1050.0" xmlns:dc="http://purl.org/dc/elements/1.1/" xmlns:cc="http://creativecommons.org/ns#" xmlns:rdf="http://www.w3.org/1999/02/22-rdf-syntax-ns#" xmlns:svg="http://www.w3.org/2000/svg" xmlns="http://www.w3.org/2000/svg" xmlns:xlink="http://www.w3.org/1999/xlink" xmlns:sodipodi="http://sodipodi.sourceforge.net/DTD/sodipodi-0.dtd" xmlns:inkscape="http://www.inkscape.org/namespaces/inkscape" inkscape:version="0.92.2 (unknown)">
	<metadata id="metadata_2023_06_05_00_18_56_393251">
		<rdf:RDF>
			<cc:Work rdf:about="">
				<dc:format>image/svg+xml</dc:format>
				<dc:type rdf:resource="http://purl.org/dc/dcmitype/StillImage"/>
				<dc:title/>
			</cc:Work>
		</rdf:RDF>
	</metadata>
	<defs id="defs_2023_06_05_00_18_56_393275">
		<marker id="marker_trapezium" viewBox="0 0 5 5" refX="0" refy="0" markerUnits="strokeWidth" markerWidth="5" markerHeight="5" orient="auto">
			<path d="M 0.0,-0.5 L 0.0,0.5 L -5.0,2.5 L -5.0,-2.5 z" fill="context-stroke"/>
		</marker>
	</defs>
	<sodipodi:namedview id="namedview_2023_06_05_00_18_56_393308" inkscape:document-units="mm" inkscape:current-layer="svg_2023_06_05_00_18_56_393180" inkscape:window-x="0" inkscape:window-y="0" inkscape:window-width="1050.0" inkscape:window-height="1050.0" inkscape:zoom="0.22" inkscape:cx="2676.1794808597856" inkscape:cy="1984.2519685039372" inkscape:window-maximized="1" inkscape:pageopacity="0" inkscape:pageshadow="2" pagecolor="#ffffff" bordercolor="#666666" borderopacity="1" objecttolerance="10" gridtolerance="10" guidetolerance="10" showgrid="false"/>
	<g id="layer_2023_06_05_00_18_56_393377" inkscape:label="images_m" inkscape:groupmode="layer" style="display:inline">
		<image id="image_2023_06_05_00_18_56_393377" inkscape:label="image_m994_994.png" x="994.0" y="-14.0" width="70.0" height="70.0" xlink:href="file:///home/lume/carmen_lcad/data/mapper_teste2/m994_994.png" sodipodi:absref="/home/lume/carmen_lcad/data/mapper_teste2/m994_994.png" preserveAspectRatio="none"/>
		<image id="image_2023_06_05_00_18_56_393425" inkscape:label="image_m994_980.png" x="994.0" y="0.0" width="70.0" height="70.0" xlink:href="file:///home/lume/carmen_lcad/data/mapper_teste2/m994_980.png" sodipodi:absref="/home/lume/carmen_lcad/data/mapper_teste2/m994_980.png" preserveAspectRatio="none"/>
		<image id="image_2023_06_05_00_18_56_393461" inkscape:label="image_m994_1008.png" x="994.0" y="-28.0" width="70.0" height="70.0" xlink:href="file:///home/lume/carmen_lcad/data/mapper_teste2/m994_1008.png" sodipodi:absref="/home/lume/carmen_lcad/data/mapper_teste2/m994_1008.png" preserveAspectRatio="none"/>
		<image id="image_2023_06_05_00_18_56_393496" inkscape:label="image_m980_994.png" x="980.0" y="-14.0" width="70.0" height="70.0" xlink:href="file:///home/lume/carmen_lcad/data/mapper_teste2/m980_994.png" sodipodi:absref="/home/lume/carmen_lcad/data/mapper_teste2/m980_994.png" preserveAspectRatio="none"/>
		<image id="image_2023_06_05_00_18_56_393528" inkscape:label="image_m980_980.png" x="980.0" y="0.0" width="70.0" height="70.0" xlink:href="file:///home/lume/carmen_lcad/data/mapper_teste2/m980_980.png" sodipodi:absref="/home/lume/carmen_lcad/data/mapper_teste2/m980_980.png" preserveAspectRatio="none"/>
		<image id="image_2023_06_05_00_18_56_393561" inkscape:label="image_m980_1008.png" x="980.0" y="-28.0" width="70.0" height="70.0" xlink:href="file:///home/lume/carmen_lcad/data/mapper_teste2/m980_1008.png" sodipodi:absref="/home/lume/carmen_lcad/data/mapper_teste2/m980_1008.png" preserveAspectRatio="none"/>
		<image id="image_2023_06_05_00_18_56_393594" inkscape:label="image_m1036_994.png" x="1036.0" y="-14.0" width="70.0" height="70.0" xlink:href="file:///home/lume/carmen_lcad/data/mapper_teste2/m1036_994.png" sodipodi:absref="/home/lume/carmen_lcad/data/mapper_teste2/m1036_994.png" preserveAspectRatio="none"/>
		<image id="image_2023_06_05_00_18_56_393625" inkscape:label="image_m1036_980.png" x="1036.0" y="0.0" width="70.0" height="70.0" xlink:href="file:///home/lume/carmen_lcad/data/mapper_teste2/m1036_980.png" sodipodi:absref="/home/lume/carmen_lcad/data/mapper_teste2/m1036_980.png" preserveAspectRatio="none"/>
		<image id="image_2023_06_05_00_18_56_393684" inkscape:label="image_m1036_1008.png" x="1036.0" y="-28.0" width="70.0" height="70.0" xlink:href="file:///home/lume/carmen_lcad/data/mapper_teste2/m1036_1008.png" sodipodi:absref="/home/lume/carmen_lcad/data/mapper_teste2/m1036_1008.png" preserveAspectRatio="none"/>
		<image id="image_2023_06_05_00_18_56_393717" inkscape:label="image_m1022_994.png" x="1022.0" y="-14.0" width="70.0" height="70.0" xlink:href="file:///home/lume/carmen_lcad/data/mapper_teste2/m1022_994.png" sodipodi:absref="/home/lume/carmen_lcad/data/mapper_teste2/m1022_994.png" preserveAspectRatio="none"/>
		<image id="image_2023_06_05_00_18_56_393749" inkscape:label="image_m1022_980.png" x="1022.0" y="0.0" width="70.0" height="70.0" xlink:href="file:///home/lume/carmen_lcad/data/mapper_teste2/m1022_980.png" sodipodi:absref="/home/lume/carmen_lcad/data/mapper_teste2/m1022_980.png" preserveAspectRatio="none"/>
		<image id="image_2023_06_05_00_18_56_393781" inkscape:label="image_m1022_1008.png" x="1022.0" y="-28.0" width="70.0" height="70.0" xlink:href="file:///home/lume/carmen_lcad/data/mapper_teste2/m1022_1008.png" sodipodi:absref="/home/lume/carmen_lcad/data/mapper_teste2/m1022_1008.png" preserveAspectRatio="none"/>
		<image id="image_2023_06_05_00_18_56_393815" inkscape:label="image_m1008_994.png" x="1008.0" y="-14.0" width="70.0" height="70.0" xlink:href="file:///home/lume/carmen_lcad/data/mapper_teste2/m1008_994.png" sodipodi:absref="/home/lume/carmen_lcad/data/mapper_teste2/m1008_994.png" preserveAspectRatio="none"/>
		<image id="image_2023_06_05_00_18_56_393847" inkscape:label="image_m1008_980.png" x="1008.0" y="0.0" width="70.0" height="70.0" xlink:href="file:///home/lume/carmen_lcad/data/mapper_teste2/m1008_980.png" sodipodi:absref="/home/lume/carmen_lcad/data/mapper_teste2/m1008_980.png" preserveAspectRatio="none"/>
		<image id="image_2023_06_05_00_18_56_393879" inkscape:label="image_m1008_1008.png" x="1008.0" y="-28.0" width="70.0" height="70.0" xlink:href="file:///home/lume/carmen_lcad/data/mapper_teste2/m1008_1008.png" sodipodi:absref="/home/lume/carmen_lcad/data/mapper_teste2/m1008_1008.png" preserveAspectRatio="none"/>
	</g>
	<g id="layer_2023_06_05_00_18_56_393914" inkscape:label="paths" inkscape:groupmode="layer" style="display:inline" marker-end="url(#marker_trapezium)">
		<path id="path_2023_06_05_00_18_56_393914" inkscape:label="path1_rddf-log_ct13-20220531.txt" style="fill:none;stroke:#ff00ff;stroke-width:0.4px;stroke-linecap:butt;stroke-linejoin:miter;stroke-miterlimit:4;stroke-opacity:1;stroke-dashoffset:4;stroke-dasharray:none" sodipodi:nodetypes="caaaaaaaaaaaaaaaaaaaaaaaaaaaaaaaaaaaaaaaaaaaaaaaaaaaaaaaaaaaaaaaaaaaaaaaaaaaaaaaaaaaaaaaaaaaaaaaaaaaaaaaaaaaaaaaaaaaaaaaaaaaaaaaaaaaaaaaaaaaaaaaaaaaaaaaaaaaaaaaaaaaaaaaaaaaaaaaaaaaaaaaaaaaaaaaaaaaaaaaaaaaaaaaaaaaaaaaaaaaaaaaaaaaaaaaaaaaaaaaaaaaaaac" inkscape:connector-curvature="0" d="M 1000.00865,50.00045399999999 C 
1000.0537864411024,50.00045160776858 1000.0987279234414,49.99351597742941 1000.143863,49.993164999999976 
1000.1847152480002,49.99284732651665 1000.2255187644126,49.99803557985513 1000.266361,49.99707699999999 
1000.3217424490845,49.995777180323785 1000.3771018161451,49.993637652979146 1000.432482,49.99228500000004 
1000.4764837213717,49.99121026432101 1000.5202889126772,50.00128538849856 1000.56429,50.00018499999999 
1000.6079896036595,49.99909215106868 1000.6517223645167,50.00227101793746 1000.695425,50.001307 
1000.7292572219608,50.000560709336355 1000.7626027374192,49.9910967700589 1000.796443,49.991210000000024 
1000.8330826799828,49.99133259682674 1000.8695160969163,49.98345679283386 1000.906146,49.984312000000045 
1000.9490966329971,49.98531477876929 1000.9913237242359,49.996493574415695 1001.034231,49.99866799999995 
1001.0784987795504,50.00091137226491 1001.1230240989289,49.99463954128237 1001.167204,49.99821799999995 
1001.2051043468364,50.001287830924184 1001.2420961992392,50.012025874045776 1001.279963,50.01548500000001 
1001.3211842504463,50.01925055437539 1001.3624521022995,50.02258959758751 1001.40359,50.02717700000005 
1001.4405784491154,50.03130168575683 1001.4783169553536,50.02693724927178 1001.515116,50.03250400000002 
1001.5630430451797,50.03975413152432 1001.6119053255455,50.040699249158706 1001.659476,50.050005000000056 
1001.7018967888969,50.05830333288043 1001.7434957591092,50.07035776139128 1001.785483,50.08062700000005 
1001.8350868403966,50.09275910637655 1001.8855648459144,50.101386182691044 1001.934737,50.11516400000005 
1001.9708854033544,50.12529262069381 1002.0075718353644,50.133516847483634 1002.043479,50.144469999999956 
1002.084920685193,50.1571114074477 1002.125340708562,50.1728955568268 1002.16607,50.18767200000002 
1002.2004119434249,50.20013113585924 1002.2382820585713,50.20156444642862 1002.272115,50.215345999999954 
1002.3073081968288,50.22968164174324 1002.3415548936288,50.246243077474446 1002.376099,50.26207899999997 
1002.4085247368721,50.276943806500526 1002.4429337483709,50.28743199629889 1002.474715,50.303629 
1002.5067151694108,50.31993757300495 1002.5328537774001,50.34609367183714 1002.564126,50.36375799999996 
1002.595028473389,50.381213472799914 1002.6309757776814,50.38889394350622 1002.661205,50.40749100000005 
1002.6974526144754,50.42979057909815 1002.7282109507115,50.46007953952392 1002.763363,50.48406899999998 
1002.7950530322139,50.505695812395516 1002.8296514180148,50.52305213384693 1002.860276,50.54616299999998 
1002.8962356582717,50.57329998589023 1002.9327853559357,50.59975614034806 1002.96717,50.628863000000024 
1002.9947277629243,50.652190853452794 1003.0211459295252,50.67683965342178 1003.047651,50.70135700000003 
1003.0748864055016,50.72654991078741 1003.1025949066751,50.75126607402342 1003.128871,50.777458000000024 
1003.1600306137858,50.8085178035883 1003.1969901750471,50.833624157509576 1003.226625,50.86614199999997 
1003.2517164517191,50.8936744681738 1003.2717377147884,50.92545627640277 1003.295438,50.95419500000003 
1003.3176580096346,50.98113875656304 1003.3378624341378,51.00968327020621 1003.3591,51.03740800000003 
1003.3878552519595,51.074946746008095 1003.4210449895236,51.10917553948184 1003.447398,51.148438000000056 
1003.4739997882035,51.18807110605405 1003.4960707353182,51.23056709039474 1003.519894,51.27193 
1003.5365608305156,51.30086762098631 1003.5480041603033,51.33254878170192 1003.563631,51.36206100000004 
1003.5833233319348,51.39925114273785 1003.6205770737316,51.42570685798535 1003.638237,51.46390399999996 
1003.6550066178626,51.500175469387386 1003.6763139158884,51.534373694407805 1003.69113,51.57148600000005 
1003.7063912335889,51.609713345390105 1003.7077222023311,51.65233272626676 1003.720904,51.691326000000004 
1003.7336255487456,51.72895780447823 1003.7459012497851,51.76673896839793 1003.758295,51.80448000000001 
1003.7702668711872,51.84093633976647 1003.7872404076637,51.87558469294788 1003.800059,51.91175199999998 
1003.8139758062194,51.95101788743261 1003.8247947272625,51.99139917388902 1003.840158,52.030122000000006 
1003.8554635124133,52.06869924235275 1003.8925035977012,52.096314320735814 1003.906862,52.13525400000003 
1003.9232872197063,52.17979884377121 1003.9372572167892,52.22521599959953 1003.953233,52.269923999999946 
1003.9692797227915,52.314830523800765 1003.9889780347889,52.35838936561379 1004.00463,52.403434999999945 
1004.0210112405335,52.45057945514725 1004.0413752217659,52.49624722731835 1004.059153,52.54288299999996 
1004.0731611979638,52.57963017545194 1004.0883201452754,52.61593602868322 1004.103753,52.652108 
1004.1214217508408,52.69352052930981 1004.1352121274991,52.73655452353762 1004.153722,52.77759800000001 
1004.167833789712,52.80888924249007 1004.1826708377547,52.8398491521923 1004.197397,52.870856 
1004.2130929259413,52.90390474540675 1004.2348308339981,52.93377742013092 1004.251673,52.96625700000004 
1004.2744954761038,53.0102694171286 1004.2986303649706,53.05359583311338 1004.32295,53.09679900000003 
1004.3460553220119,53.13784497300253 1004.3884759050901,53.16550011847028 1004.412917,53.20576500000004 
1004.4331736498518,53.23913632028996 1004.4393556238975,53.279938789579205 1004.460386,53.31282799999997 
1004.4807800039508,53.34472199390632 1004.5069695953354,53.37271309323785 1004.526752,53.40499 
1004.5526097661785,53.44717944674164 1004.5708268194028,53.49373583895101 1004.596559,53.53600200000005 
1004.6189336499697,53.57275327941329 1004.6372666503984,53.61185927375675 1004.659502,53.648694999999975 
1004.6783177735124,53.6798657571311 1004.6937786257819,53.71300670824007 1004.713061,53.74389099999996 
1004.7310984225426,53.77278127119246 1004.7451131286697,53.8041230960805 1004.764014,53.83245599999998 
1004.7873362087586,53.867416605169865 1004.8159528832994,53.89857640476873 1004.840383,53.932772 
1004.8610506722844,53.961701184599065 1004.8751211036689,53.99507374838663 1004.896535,54.02345500000001 
1004.9238819220002,54.05969968252498 1004.9569510193412,54.091289053630135 1004.985613,54.12650299999996 
1005.0067249587323,54.15244103238558 1005.0143338964062,54.18789765495899 1005.036392,54.21303599999999 
1005.0640698013066,54.24457878953615 1005.0978308539924,54.27033442462425 1005.126238,54.30122200000005 
1005.1518541610392,54.3290748897175 1005.1826878306111,54.3517348063732 1005.208966,54.378963999999996 
1005.2391532130093,54.41024370810749 1005.2655954938444,54.445148004184375 1005.2972,54.474995000000035 
1005.3246218456286,54.50089193089036 1005.3483141628664,54.53066071445005 1005.376593,54.55561899999998 
1005.4021971932943,54.57821670316923 1005.4249762016249,54.60398961886301 1005.451428,54.62558899999999 
1005.4790579419488,54.64815040162887 1005.5141645717947,54.660114265750394 1005.5425,54.681782999999996 
1005.5698790428886,54.70272036505639 1005.5966621474264,54.7244670461788 1005.624709,54.744501000000014 
1005.6557472552919,54.766671722064984 1005.691885380512,54.7808835918878 1005.723599,54.802077000000054 
1005.7662250349434,54.830562898782546 1005.7960440043689,54.87615976500706 1005.839877,54.90275099999997 
1005.880850253209,54.92760737563253 1005.9249622889173,54.946889926549375 1005.967064,54.96978300000001 
1006.00932398615,54.99276213652615 1006.0545280196351,55.0098730051252 1006.097824,55.030835000000025 
1006.1330186662426,55.04787469761595 1006.1670390641472,55.067407340346335 1006.20292,55.08294999999998 
1006.2353242154677,55.09698663757342 1006.2609810770058,55.124545049231074 1006.294007,55.13704900000005 
1006.3294979330309,55.15048622867164 1006.3621393555262,55.17105708536246 1006.398131,55.183088999999995 
1006.4329967827426,55.1947445419421 1006.4688226885595,55.203309450338 1006.504038,55.21386199999995 
1006.5527246016957,55.228451329506015 1006.6028644970821,55.237659732137104 1006.652222,55.24978699999997 
1006.6881042009227,55.25860335083564 1006.7227794501679,55.27234566473874 1006.759067,55.279308000000015 
1006.7977243972888,55.286725027644366 1006.8353827588834,55.29932675845453 1006.87435,55.304891 
1006.9100325817922,55.30998621583683 1006.9464163569627,55.30811917262463 1006.982247,55.312040000000025 
1007.0279055000188,55.3170362568801 1007.0741858280782,55.308401373701486 1007.120037,55.31110899999999 
1007.1607219846575,55.31351155002858 1007.2015229949565,55.30812303196569 1007.242277,55.30851199999995 
1007.2781882428426,55.308854747308374 1007.314110838211,55.308933204431696 1007.350015,55.308141999999975 
1007.3921602300854,55.30721326385469 1007.434427642994,55.315194286506994 1007.476433,55.31164000000001 
1007.5206150679176,55.3079015309321 1007.5622042147696,55.288154425600965 1007.606125,55.28207199999997 
1007.6482145481971,55.276243175580134 1007.6910569769724,55.27691836217173 1007.73309,55.270695000000046 
1007.780661878707,55.26365156107852 1007.8277810719665,55.253783477222555 1007.875304,55.24641699999995 
1007.9218848237015,55.239196557341984 1007.967608022564,55.22715487414962 1008.014052,55.21910100000002 
1008.0534652175527,55.21226633355832 1008.0926780123291,55.204317997741214 1008.132047,55.19723299999998 
1008.1804690127985,55.18851878427836 1008.2289366133691,55.18001625063005 1008.277181,55.170367000000056 
1008.3154038990663,55.162722124426864 1008.3522601260672,55.149079890750954 1008.390475,55.14139499999999 
1008.4235598811476,55.134741734635895 1008.4563184151048,55.126539896380564 1008.489371,55.11972800000001 
1008.5320965926678,55.11092256735469 1008.5728656168404,55.09402468897156 1008.615531,55.08493199999998 
1008.6569993487203,55.07609441858949 1008.6993407927962,55.07165238811183 1008.740717,55.06239300000004 
1008.7789097156593,55.0538460305886 1008.8175745627162,55.04748747953158 1008.855723,55.03874499999995 
1008.8899795475122,55.03089442506757 1008.9244940954395,55.024195524427 1008.958735,55.016276999999945 
1009.0073864229494,55.00502591052134 1009.0568634750771,54.99752077367498 1009.105437,54.98593800000003 
1009.1424868702293,54.97710314063511 1009.1768611244597,54.95861063583959 1009.214091,54.950567999999976 
1009.2481470031116,54.94321100438276 1009.2814655332712,54.9325946002607 1009.315635,54.92578400000002 
1009.3580249334631,54.917334910226714 1009.4019173131654,54.91862998854424 1009.444458,54.910976000000005 
1009.4855590389263,54.903581035214415 1009.5258429317694,54.891602196288204 1009.567227,54.88600399999996 
1009.6082377452335,54.88045630467752 1009.6479141434387,54.86658853740232 1009.689051,54.86207000000002 
1009.7296616654693,54.857609260259665 1009.7706969694606,54.85780266334609 1009.811299,54.85326399999997 
1009.8617349978927,54.847626055002706 1009.910380747324,54.830256864875764 1009.960797,54.82444499999997 
1010.0024573392772,54.819642495852804 1010.0448557124295,54.82517551443016 1010.086549,54.820667999999955 
1010.126394737552,54.816360226555844 1010.1646675738523,54.801730886349105 1010.204512,54.79741100000001 
1010.2412013482724,54.79343318352517 1010.2780706193292,54.791232706699475 1010.314749,54.787154999999984 
1010.357657288055,54.78238468543145 1010.4012233367813,54.786130218109975 1010.444141,54.78144499999996 
1010.4939399977683,54.77600856314143 1010.5421799789392,54.75988151353613 1010.591977,54.754426999999964 
1010.6325371546636,54.74998424603746 1010.6734339205698,54.74910477536241 1010.713998,54.74469799999997 
1010.7576652190946,54.73995410767077 1010.8011543918561,54.73365202128252 1010.844827,54.728958000000034 
1010.8844889812372,54.72469504910373 1010.9246915234211,54.7272984326255 1010.96435,54.72300299999995 
1010.9982241296681,54.719334073346886 1011.0303091694267,54.704675744957285 1011.064194,54.70110699999998 
1011.1000941025286,54.697326006921344 1011.1363249298181,54.697389069863334 1011.17224,54.693753000000015 
1011.2087645776122,54.69005522312659 1011.2452091331112,54.685592094399226 1011.281736,54.681917 
1011.3156297229726,54.67850683531651 1011.3493525140009,54.673519572404075 1011.383247,54.670117000000005 
1011.4275394644807,54.665670603693684 1011.4708844948632,54.653848021302906 1011.515179,54.64942199999996 
1011.559293975164,54.64501391779538 1011.6032709065702,54.63927807268135 1011.647398,54.63499300000001 
1011.6810267944942,54.631727391110076 1011.7147185877855,54.62914675805075 1011.748379,54.62622499999998 
1011.7875564040903,54.622824361437324 1011.8260930671756,54.612300632288 1011.865405,54.61129800000003 
1011.9088453649332,54.610190074000116 1011.9521875120865,54.6055400962033 1011.995642,54.605556999999976 
1012.0497685206428,54.60557805521762 1012.1033384211898,54.618384438096314 1012.157461,54.619038000000046 
1012.2101733872555,54.61967453301315 1012.2627903869417,54.61222586724887 1012.315499,54.613121999999976 
1012.3530070687223,54.61375969860103 1012.3903741571082,54.61827332566929 1012.427877,54.61916699999995 
1012.4688170612924,54.62014258155716 1012.5088995581547,54.63286081288936 1012.549836,54.633977999999956 
1012.5994381030329,54.63533167969638 1012.6490651062521,54.63585221828066 1012.698651,54.63770699999998 
1012.7400981005437,54.639257346652926 1012.7814607419762,54.62932541851535 1012.822901,54.63104899999996 
1012.8686797367344,54.632953027310236 1012.9139411596592,54.64297229580609 1012.959749,54.64395200000001 
1012.9935343796589,54.64467457670082 1013.0270707912867,54.63709419616873 1013.06086,54.63658099999998 
1013.096591864311,54.63603829845226 1013.132218280476,54.63246071589401 1013.16793,54.63114399999995 
1013.2057197278939,54.62975066649449 1013.2435568080305,54.62914202620084 1013.281283,54.62654599999996 
1013.3227134547095,54.623695074944294 1013.3643441031477,54.62488840195476 1013.405801,54.62245199999995 
1013.445186198925,54.62013735073924 1013.4846317443335,54.61891206453811 1013.524009,54.616465999999946 
1013.5650381556022,54.613917321559825 1013.6057023774378,54.60675935646657 1013.646744,54.604420000000005 
1013.6925865083301,54.60180699491866 1013.7379386177894,54.59291002696352 1013.783795,54.590553 
1013.8398155971556,54.58767353041162 1013.8959336420334,54.58696111928805 1013.951954,54.58407699999998 
1013.98632969585,54.582307221815086 1014.0207996778477,54.58865700639956 1014.055178,54.58693900000003 
1014.1045069923728,54.584473855709234 1014.1537615888453,54.58061891679597 1014.203098,54.578306999999995 
1014.2430682462564,54.57643398407731 1014.2831033418638,54.57615545364388 1014.323071,54.57422799999995 
1014.368779629876,54.57202368607909 1014.4142597638792,54.566083629619925 1014.459973,54.56397700000002 
1014.4940822411187,54.562405124023826 1014.5282648748649,54.56799519941319 1014.562378,54.566509999999994 
1014.6008667207302,54.564834298192636 1014.638853930342,54.55621140471408 1014.67735,54.55471399999999 
1014.7165143286923,54.55319060161344 1014.7556524771597,54.55102990353123 1014.794819,54.54956400000003 
1014.8404322702314,54.54785681107808 1014.8857853345954,54.54131177555655 1014.931405,54.53978500000005 
1014.9707142200836,54.53846941918994 1015.0096724531165,54.550778399400656 1015.048987,54.54963299999997 
1015.0851591245167,54.548579152683146 1015.1205888965674,54.537627570759014 1015.156761,54.536572999999976 
1015.1907498006069,54.53558208181016 1015.2245572400165,54.53071024774522 1015.25855,54.52986599999997 
1015.2927340505313,54.529017001342595 1015.3269136109334,54.52799225660078 1015.361098,54.52715699999999 
1015.3987240511972,54.52623765030603 1015.4363525791928,54.52542162727582 1015.473981,54.52460499999995 
1015.5101194694552,54.52382070825365 1015.5461480086301,54.530703712247714 1015.582288,54.52999299999999 
1015.6211388765527,54.52922897674614 1015.6597833725896,54.52329161931448 1015.698638,54.52275099999997 
1015.7469500765084,54.52207879070545 1015.7952732656939,54.52389507341593 1015.843587,54.52335500000004 
1015.8860161501723,54.52288070720533 1015.9283951419974,54.51984889072173 1015.970826,54.519566000000054 
1016.010289645786,54.51930289197526 1016.0496776873615,54.51540981197388 1016.089142,54.51528099999996 
1016.1298718256569,54.515148057376905 1016.1706009966147,54.51481253328109 1016.211331,54.514756000000034 
1016.2529427410008,54.514698242866416 1016.2945493099719,54.51582394821742 1016.336161,54.51591099999996 
1016.3906770871546,54.516025047820676 1016.4450848515139,54.521558366230806 1016.4996,54.521897999999965 
1016.5374090228986,54.52213355326012 1016.5752072903615,54.51988162238831 1016.613016,54.520163000000025 
1016.6664692362029,54.52056080632781 1016.7199183839947,54.5179761301456 1016.773371,54.51845000000003 
1016.8115069410618,54.51878808397407 1016.8495433457318,54.513081082126064 1016.887678,54.51354200000003 
1016.9316397305366,54.51407334734711 1016.975158981585,54.5237643478946 1017.019118,54.524486000000024 
1017.0636394193949,54.52521688474678 1017.1078059395556,54.53359216282297 1017.152324,54.53450499999997 
1017.2028850425479,54.53554174775775 1017.253481426248,54.533251012667165 1017.304039,54.534445000000005 
1017.3484181449597,54.53549307515459 1017.392611872864,54.541092170400134 1017.436991,54.542141000000015 
1017.4748550981602,54.54303585732339 1017.5127512655421,54.541284883518074 1017.550615,54.54219499999999 
1017.5897267430465,54.54313511439943 1017.6286026662198,54.53322497902957 1017.667713,54.534222 
1017.7031064086573,54.535124267181914 1017.7384480281521,54.537525218144424 1017.773834,54.53868299999999 
1017.8117189309702,54.53992254446882 1017.8495903672014,54.541544971312874 1017.887469,54.542963999999984 
1017.9215126722329,54.54423936143576 1017.9556288787635,54.54201488921194 1017.989671,54.54333099999997 
1018.049777592398,54.54565479569237 1018.1100282274966,54.54181842557159 1018.170122,54.544452999999976 
1018.2125200624088,54.54631177581621 1018.2545806069736,54.553648036562095 1018.296996,54.55505700000003 
1018.342158620707,54.55655722142433 1018.3869618582229,54.56478087079449 1018.43214,54.56570199999999 
1018.4722633851195,54.566520068658974 1018.5123894667469,54.56248116641109 1018.552512,54.56334000000004 
1018.5901189635208,54.564144987144005 1018.6273443661757,54.57198426851039 1018.664947,54.57297100000005 
1018.7110653286276,54.5741811920127 1018.7572326529704,54.572583907416515 1018.803346,54.57397100000003 
1018.8430134599427,54.57516419986598 1018.8818649218873,54.58706322650244 1018.921529,54.588363999999956 
1018.9668448737988,54.58985012272001 1019.0122226306243,54.588734380025244 1019.057536,54.59029499999997 
1019.0961292301005,54.59162417429468 1019.1347610308949,54.58616472421306 1019.173352,54.587557999999945 
1019.2110455877329,54.58891887702191 1019.2467980675908,54.60748589262971 1019.284493,54.60880899999995 
1019.3389659619961,54.610721022993175 1019.3934553528845,54.61224895408725 1019.447905,54.61473799999999 
1019.4897465564476,54.616650694766236 1019.5316831726389,54.6159245145717 1019.57352,54.61793799999998 
1019.6295245117027,54.620633335075354 1019.6857342308969,54.615042019956604 1019.741728,54.617951999999946 
1019.7854509676806,54.62022427002967 1019.8293357978824,54.61267275523744 1019.873045,54.61519599999997 
1019.9154302581338,54.61764281612591 1019.9579955945374,54.615856925057074 1020.00037,54.618484999999964 
1020.0526136531897,54.62172516902115 1020.1037770016806,54.63590961010857 1020.156006,54.639377999999965 
1020.2032418210781,54.64251480617304 1020.2502174211861,54.648874297667135 1020.297419,54.65248999999994 
1020.338592121098,54.655643914630446 1020.3797493663392,54.65900209869153 1020.42091,54.662315000000035 
1020.470510067314,54.66630716710961 1020.5191864776349,54.67895788392411 1020.568821,54.682496000000015 
1020.6085720238697,54.685329586985176 1020.6485518491614,54.68060935146195 1020.688376,54.682096 
1020.7243337765384,54.68343831552454 1020.760099268032,54.6890618765575 1020.796081,54.68934200000001 
1020.8410605396203,54.68969217279016 1020.8859403431051,54.695668241693625 1020.930913,54.69480699999997 
1020.9741826341501,54.69397837177178 1021.0173185967983,54.6886933161029 1021.060596,54.68857400000002 
1021.0971307415308,54.688473273462364 1021.1334216837192,54.68145802328536 1021.169956,54.681254999999965 
1021.2096094070669,54.68103464374872 1021.2484221845195,54.66752706458067 1021.288074,54.66710899999998 
1021.3309398692755,54.66665704839454 1021.3738165503369,54.66985685861175 1021.416669,54.66869299999996 
1021.463416889384,54.667423342510915 1021.5101243904854,54.66489093726989 1021.556871,54.66357500000004 
1021.5992306711718,54.66238255694134 1021.6415934343213,54.66115756434044 1021.683967,54.660663 
1021.7229532980894,54.660207970254646 1021.7619430617004,54.659991844735146 1021.800926,54.65930700000001 
1021.8413757083944,54.65859638733093 1021.8804807878364,54.64144731199622 1021.920936,54.64120300000002 
1021.9645408530199,54.6409396670914 1022.0079484227582,54.63437997391918 1022.051552,54.633955000000014 
1022.0862742904818,54.63361658584222 1022.120966224748,54.631729264474984 1022.155684,54.63107500000001 
1022.1961163048661,54.63031304389756 1022.2366303944555,54.63374807592595 1022.277002,54.63140599999997 
1022.3107454507018,54.62944844288825 1022.3445001510588,54.6275146321542 1022.378172,54.624571999999944 
1022.4249047936468,54.620487952774624 1022.4718319711155,54.6188569443334 1022.518557,54.61468500000001 
1022.5607686780533,54.61091603986745 1022.6019974045931,54.59886300354458 1022.644247,54.59554600000001 
1022.6869530138582,54.59219316317456 1022.7300279607811,54.595491944283594 1022.772704,54.59177699999998 
1022.8215329105404,54.58752644897868 1022.8697875691056,54.57771410655698 1022.91865,54.57386799999995 
1022.964299554872,54.570274788423944 1023.0097609031237,54.56450292545708 1023.055414,54.560955000000035 
1023.10528383313,54.55707937134389 1023.1549925908852,54.55127487885409 1023.20487,54.54749800000002 
1023.2463107499724,54.54435997228268 1023.2879168335477,54.543827863679894 1023.329375,54.540929000000006 
1023.3722741228191,54.53792938087349 1023.4147696847659,54.530312412393755 1023.457674,54.52738799999997 
1023.4999680404364,54.524505184708346 1023.5423419005426,54.52288115164947 1023.584634,54.519969999999944 
1023.6268160965527,54.517066420335254 1023.6688414715549,54.512106578300745 1023.71103,54.509297999999944 
1023.7446321219717,54.507061036680625 1023.7784310593195,54.513909637725305 1023.812032,54.51165500000002 
1023.8646899497231,54.50812162868442 1023.916340016919,54.494296944022835 1023.969018,54.49107600000002 
1024.0071375414554,54.488745217725864 1024.04545819409,54.494603024991534 1024.083583,54.49235999999996 
1024.133350433956,54.48943199563473 1024.181566403027,54.471868754049524 1024.231353,54.46928700000001 
1024.2739917010642,54.467075910151834 1024.3167217151033,54.46698786094032 1024.359364,54.46484699999996 
1024.3940046396463,54.46310786260278 1024.4280571222962,54.454360299613654 1024.462699,54.45264599999996 
1024.505017331072,54.450551820832516 1024.5469852484741,54.46602327526125 1024.589305,54.46395800000005 
1024.6239860535006,54.46226550608776 1024.6574173187462,54.44865533121572 1024.692107,54.447149999999965 
1024.7430101775385,54.44494109696711 1024.7939002245914,54.44242324860522 1024.844811,54.44039699999996 
1024.8885433502178,54.43865645268113 1024.9320583049214,54.43286800323585 1024.975798,54.43132300000002 
1025.0214329222665,54.429711052261496 1025.067011348051,54.42665762328454 1025.112652,54.425216999999975 
1025.1479924148655,54.42410149830653 1025.1832707954734,54.42140014567178 1025.218611,54.42027800000005 
1025.2627002514075,54.41887804877456 1025.3067832272125,54.425976187667175 1025.350874,54.42462499999999 
1025.402588472029,54.4230401795852 1025.453626635476,54.4107456795623 1025.50535,54.40948400000002 
1025.53951235118,54.40865068336109 1025.5719068624467,54.429296951224046 1025.606072,54.42858699999999 
1025.648131908689,54.42771299550907 1025.6901142687248,54.42427138652795 1025.732176,54.423490000000015 
1025.7765675169135,54.422665332725956 1025.8200128653086,54.40814207026028 1025.864407,54.40747299999998 
1025.9092457723373,54.40679722854304 1025.9540225831481,54.40356556010602 1025.998862,54.40293399999996 
1026.0326138364148,54.40245860770267 1026.0663284827046,54.40653453339803 1026.10008,54.40603699999997 
1026.1465477782222,54.405352015339986 1026.1927356188926,54.39748775636565 1026.239206,54.39701100000002 
1026.294139190317,54.39644742062876 1026.3490753704343,54.39826776519885 1026.404011,54.398045000000025 
1026.4476565774605,54.39786801621335 1026.4909012191617,54.40841149086566 1026.534547,54.40829499999995 
1026.5752759594861,54.408186294149004 1026.6156201977699,54.39844207114845 1026.656349,54.39859899999999 
1026.6916052646804,54.39873484306008 1026.7267249043325,54.393031727699736 1026.761981,54.393205999999964 
1026.8092477840307,54.39343964161628 1026.8564674263748,54.38996138881146 1026.903731,54.389363 
1026.955546504985,54.388706980658526 1027.007471216753,54.39316073986561 1027.059189,54.38991299999998 
1027.1102225457291,54.38670822843903 1027.1611694169032,54.38213105237787 1027.212054,54.37708599999996 
1027.2545916093095,54.372868524805426 1027.297924442286,54.3818350834772 1027.340289,54.376135999999974 
1027.383497395101,54.37032339947052 1027.421538577953,54.342571957944074 1027.464506,54.33518600000002 
1027.5142271785003,54.32663909362691 1027.5664296600505,54.341104821638964 1027.61579,54.330674000000045 
1027.650576006129,54.32332302498992 1027.6793784572073,54.29726511118088 1027.713938,54.28891399999998 
1027.7628389264853,54.277097377414066 1027.8115883602022,54.264549644267845 1027.85987,54.25041399999998 
1027.9035178923452,54.237634999911734 1027.948666207074,54.229962244599164 1027.991702,54.21525299999996 
1028.0401561051885,54.19869182529874 1028.087890384081,54.18007442360522 1028.136329,54.163467999999966 
1028.1751110672838,54.15017217340824 1028.2089688244953,54.12473397078247 1028.247681,54.11123599999996 
1028.2831569143368,54.09886643283005 1028.3183297479914,54.08564385587647 1028.353692,54.072952999999984 "/>
	</g>
	<g id="layer_2023_06_05_00_18_56_394760" inkscape:label="bad_phis" inkscape:groupmode="layer" style="display:inline">
		<rect id="rect_2023_06_05_00_18_56_394760" inkscape:label="bad_phi_1000.80_49.99_p1_n6" x="995.796443" y="44.991210000000024" width="10" height="10" style="fill:none;stroke:rgb(0,0,255);stroke-width:1;stroke-miterlimit:4;stroke-dasharray:none"/>
		<rect id="rect_2023_06_05_00_18_56_394800" inkscape:label="bad_phi_1001.17_50.00_p1_n9" x="996.167204" y="44.99821799999995" width="10" height="10" style="fill:none;stroke:rgb(0,0,255);stroke-width:1;stroke-miterlimit:4;stroke-dasharray:none"/>
		<rect id="rect_2023_06_05_00_18_56_394827" inkscape:label="bad_phi_1001.52_50.03_p1_n12" x="996.515116" y="45.03250400000002" width="10" height="10" style="fill:none;stroke:rgb(0,0,255);stroke-width:1;stroke-miterlimit:4;stroke-dasharray:none"/>
		<rect id="rect_2023_06_05_00_18_56_394852" inkscape:label="bad_phi_1001.66_50.05_p1_n13" x="996.659476" y="45.050005000000056" width="10" height="10" style="fill:none;stroke:rgb(0,0,255);stroke-width:1;stroke-miterlimit:4;stroke-dasharray:none"/>
		<rect id="rect_2023_06_05_00_18_56_394876" inkscape:label="bad_phi_1001.79_50.08_p1_n14" x="996.785483" y="45.08062700000005" width="10" height="10" style="fill:none;stroke:rgb(0,0,255);stroke-width:1;stroke-miterlimit:4;stroke-dasharray:none"/>
		<rect id="rect_2023_06_05_00_18_56_394899" inkscape:label="bad_phi_1002.17_50.19_p1_n17" x="997.16607" y="45.18767200000002" width="10" height="10" style="fill:none;stroke:rgb(0,0,255);stroke-width:1;stroke-miterlimit:4;stroke-dasharray:none"/>
		<rect id="rect_2023_06_05_00_18_56_394923" inkscape:label="bad_phi_1002.27_50.22_p1_n18" x="997.272115" y="45.215345999999954" width="10" height="10" style="fill:none;stroke:rgb(0,0,255);stroke-width:1;stroke-miterlimit:4;stroke-dasharray:none"/>
		<rect id="rect_2023_06_05_00_18_56_394947" inkscape:label="bad_phi_1002.38_50.26_p1_n19" x="997.376099" y="45.26207899999997" width="10" height="10" style="fill:none;stroke:rgb(0,0,255);stroke-width:1;stroke-miterlimit:4;stroke-dasharray:none"/>
		<rect id="rect_2023_06_05_00_18_56_394970" inkscape:label="bad_phi_1002.47_50.30_p1_n20" x="997.474715" y="45.303629" width="10" height="10" style="fill:none;stroke:rgb(0,0,255);stroke-width:1;stroke-miterlimit:4;stroke-dasharray:none"/>
		<rect id="rect_2023_06_05_00_18_56_394994" inkscape:label="bad_phi_1002.56_50.36_p1_n21" x="997.564126" y="45.36375799999996" width="10" height="10" style="fill:none;stroke:rgb(0,0,255);stroke-width:1;stroke-miterlimit:4;stroke-dasharray:none"/>
		<rect id="rect_2023_06_05_00_18_56_395041" inkscape:label="bad_phi_1002.66_50.41_p1_n22" x="997.661205" y="45.40749100000005" width="10" height="10" style="fill:none;stroke:rgb(0,0,255);stroke-width:1;stroke-miterlimit:4;stroke-dasharray:none"/>
		<rect id="rect_2023_06_05_00_18_56_395082" inkscape:label="bad_phi_1002.76_50.48_p1_n23" x="997.763363" y="45.48406899999998" width="10" height="10" style="fill:none;stroke:rgb(0,0,255);stroke-width:1;stroke-miterlimit:4;stroke-dasharray:none"/>
		<rect id="rect_2023_06_05_00_18_56_395105" inkscape:label="bad_phi_1002.86_50.55_p1_n24" x="997.860276" y="45.54616299999998" width="10" height="10" style="fill:none;stroke:rgb(0,0,255);stroke-width:1;stroke-miterlimit:4;stroke-dasharray:none"/>
		<rect id="rect_2023_06_05_00_18_56_395129" inkscape:label="bad_phi_1002.97_50.63_p1_n25" x="997.96717" y="45.628863000000024" width="10" height="10" style="fill:none;stroke:rgb(0,0,255);stroke-width:1;stroke-miterlimit:4;stroke-dasharray:none"/>
		<rect id="rect_2023_06_05_00_18_56_395164" inkscape:label="bad_phi_1003.05_50.70_p1_n26" x="998.047651" y="45.70135700000003" width="10" height="10" style="fill:none;stroke:rgb(0,0,255);stroke-width:1;stroke-miterlimit:4;stroke-dasharray:none"/>
		<rect id="rect_2023_06_05_00_18_56_395188" inkscape:label="bad_phi_1003.13_50.78_p1_n27" x="998.128871" y="45.777458000000024" width="10" height="10" style="fill:none;stroke:rgb(0,0,255);stroke-width:1;stroke-miterlimit:4;stroke-dasharray:none"/>
		<rect id="rect_2023_06_05_00_18_56_395212" inkscape:label="bad_phi_1003.23_50.87_p1_n28" x="998.226625" y="45.86614199999997" width="10" height="10" style="fill:none;stroke:rgb(0,0,255);stroke-width:1;stroke-miterlimit:4;stroke-dasharray:none"/>
		<rect id="rect_2023_06_05_00_18_56_395239" inkscape:label="bad_phi_1003.30_50.95_p1_n29" x="998.295438" y="45.95419500000003" width="10" height="10" style="fill:none;stroke:rgb(0,0,255);stroke-width:1;stroke-miterlimit:4;stroke-dasharray:none"/>
		<rect id="rect_2023_06_05_00_18_56_395265" inkscape:label="bad_phi_1003.36_51.04_p1_n30" x="998.3591" y="46.03740800000003" width="10" height="10" style="fill:none;stroke:rgb(0,0,255);stroke-width:1;stroke-miterlimit:4;stroke-dasharray:none"/>
		<rect id="rect_2023_06_05_00_18_56_395292" inkscape:label="bad_phi_1003.45_51.15_p1_n31" x="998.447398" y="46.148438000000056" width="10" height="10" style="fill:none;stroke:rgb(0,0,255);stroke-width:1;stroke-miterlimit:4;stroke-dasharray:none"/>
		<rect id="rect_2023_06_05_00_18_56_395322" inkscape:label="bad_phi_1003.52_51.27_p1_n32" x="998.519894" y="46.27193" width="10" height="10" style="fill:none;stroke:rgb(0,0,255);stroke-width:1;stroke-miterlimit:4;stroke-dasharray:none"/>
		<rect id="rect_2023_06_05_00_18_56_395345" inkscape:label="bad_phi_1003.56_51.36_p1_n33" x="998.563631" y="46.36206100000004" width="10" height="10" style="fill:none;stroke:rgb(0,0,255);stroke-width:1;stroke-miterlimit:4;stroke-dasharray:none"/>
		<rect id="rect_2023_06_05_00_18_56_395368" inkscape:label="bad_phi_1003.64_51.46_p1_n34" x="998.638237" y="46.46390399999996" width="10" height="10" style="fill:none;stroke:rgb(0,0,255);stroke-width:1;stroke-miterlimit:4;stroke-dasharray:none"/>
		<rect id="rect_2023_06_05_00_18_56_395391" inkscape:label="bad_phi_1003.69_51.57_p1_n35" x="998.69113" y="46.57148600000005" width="10" height="10" style="fill:none;stroke:rgb(0,0,255);stroke-width:1;stroke-miterlimit:4;stroke-dasharray:none"/>
		<rect id="rect_2023_06_05_00_18_56_395417" inkscape:label="bad_phi_1003.72_51.69_p1_n36" x="998.720904" y="46.691326000000004" width="10" height="10" style="fill:none;stroke:rgb(0,0,255);stroke-width:1;stroke-miterlimit:4;stroke-dasharray:none"/>
		<rect id="rect_2023_06_05_00_18_56_395440" inkscape:label="bad_phi_1003.84_52.03_p1_n39" x="998.840158" y="47.030122000000006" width="10" height="10" style="fill:none;stroke:rgb(0,0,255);stroke-width:1;stroke-miterlimit:4;stroke-dasharray:none"/>
		<rect id="rect_2023_06_05_00_18_56_395470" inkscape:label="bad_phi_1004.10_52.65_p1_n44" x="999.103753" y="47.652108" width="10" height="10" style="fill:none;stroke:rgb(0,0,255);stroke-width:1;stroke-miterlimit:4;stroke-dasharray:none"/>
		<rect id="rect_2023_06_05_00_18_56_395493" inkscape:label="bad_phi_1004.25_52.97_p1_n47" x="999.251673" y="47.96625700000004" width="10" height="10" style="fill:none;stroke:rgb(0,0,255);stroke-width:1;stroke-miterlimit:4;stroke-dasharray:none"/>
		<rect id="rect_2023_06_05_00_18_56_395516" inkscape:label="bad_phi_1004.32_53.10_p1_n48" x="999.32295" y="48.09679900000003" width="10" height="10" style="fill:none;stroke:rgb(0,0,255);stroke-width:1;stroke-miterlimit:4;stroke-dasharray:none"/>
		<rect id="rect_2023_06_05_00_18_56_395544" inkscape:label="bad_phi_1004.41_53.21_p1_n49" x="999.412917" y="48.20576500000004" width="10" height="10" style="fill:none;stroke:rgb(0,0,255);stroke-width:1;stroke-miterlimit:4;stroke-dasharray:none"/>
		<rect id="rect_2023_06_05_00_18_56_395566" inkscape:label="bad_phi_1004.76_53.83_p1_n55" x="999.764014" y="48.83245599999998" width="10" height="10" style="fill:none;stroke:rgb(0,0,255);stroke-width:1;stroke-miterlimit:4;stroke-dasharray:none"/>
		<rect id="rect_2023_06_05_00_18_56_395611" inkscape:label="bad_phi_1004.84_53.93_p1_n56" x="999.840383" y="48.932772" width="10" height="10" style="fill:none;stroke:rgb(0,0,255);stroke-width:1;stroke-miterlimit:4;stroke-dasharray:none"/>
		<rect id="rect_2023_06_05_00_18_56_395634" inkscape:label="bad_phi_1004.90_54.02_p1_n57" x="999.896535" y="49.02345500000001" width="10" height="10" style="fill:none;stroke:rgb(0,0,255);stroke-width:1;stroke-miterlimit:4;stroke-dasharray:none"/>
		<rect id="rect_2023_06_05_00_18_56_395657" inkscape:label="bad_phi_1004.99_54.13_p1_n58" x="999.985613" y="49.12650299999996" width="10" height="10" style="fill:none;stroke:rgb(0,0,255);stroke-width:1;stroke-miterlimit:4;stroke-dasharray:none"/>
		<rect id="rect_2023_06_05_00_18_56_395680" inkscape:label="bad_phi_1005.04_54.21_p1_n59" x="1000.036392" y="49.21303599999999" width="10" height="10" style="fill:none;stroke:rgb(0,0,255);stroke-width:1;stroke-miterlimit:4;stroke-dasharray:none"/>
		<rect id="rect_2023_06_05_00_18_56_395704" inkscape:label="bad_phi_1005.30_54.47_p1_n62" x="1000.2972" y="49.474995000000035" width="10" height="10" style="fill:none;stroke:rgb(0,0,255);stroke-width:1;stroke-miterlimit:4;stroke-dasharray:none"/>
		<rect id="rect_2023_06_05_00_18_56_395727" inkscape:label="bad_phi_1005.38_54.56_p1_n63" x="1000.376593" y="49.55561899999998" width="10" height="10" style="fill:none;stroke:rgb(0,0,255);stroke-width:1;stroke-miterlimit:4;stroke-dasharray:none"/>
		<rect id="rect_2023_06_05_00_18_56_395750" inkscape:label="bad_phi_1005.45_54.63_p1_n64" x="1000.451428" y="49.62558899999999" width="10" height="10" style="fill:none;stroke:rgb(0,0,255);stroke-width:1;stroke-miterlimit:4;stroke-dasharray:none"/>
		<rect id="rect_2023_06_05_00_18_56_395773" inkscape:label="bad_phi_1005.54_54.68_p1_n65" x="1000.5425" y="49.681782999999996" width="10" height="10" style="fill:none;stroke:rgb(0,0,255);stroke-width:1;stroke-miterlimit:4;stroke-dasharray:none"/>
		<rect id="rect_2023_06_05_00_18_56_395796" inkscape:label="bad_phi_1005.62_54.74_p1_n66" x="1000.624709" y="49.744501000000014" width="10" height="10" style="fill:none;stroke:rgb(0,0,255);stroke-width:1;stroke-miterlimit:4;stroke-dasharray:none"/>
		<rect id="rect_2023_06_05_00_18_56_395821" inkscape:label="bad_phi_1005.72_54.80_p1_n67" x="1000.723599" y="49.802077000000054" width="10" height="10" style="fill:none;stroke:rgb(0,0,255);stroke-width:1;stroke-miterlimit:4;stroke-dasharray:none"/>
		<rect id="rect_2023_06_05_00_18_56_395844" inkscape:label="bad_phi_1005.84_54.90_p1_n68" x="1000.839877" y="49.90275099999997" width="10" height="10" style="fill:none;stroke:rgb(0,0,255);stroke-width:1;stroke-miterlimit:4;stroke-dasharray:none"/>
		<rect id="rect_2023_06_05_00_18_56_395867" inkscape:label="bad_phi_1005.97_54.97_p1_n69" x="1000.967064" y="49.96978300000001" width="10" height="10" style="fill:none;stroke:rgb(0,0,255);stroke-width:1;stroke-miterlimit:4;stroke-dasharray:none"/>
		<rect id="rect_2023_06_05_00_18_56_395888" inkscape:label="bad_phi_1006.10_55.03_p1_n70" x="1001.097824" y="50.030835000000025" width="10" height="10" style="fill:none;stroke:rgb(0,0,255);stroke-width:1;stroke-miterlimit:4;stroke-dasharray:none"/>
		<rect id="rect_2023_06_05_00_18_56_395911" inkscape:label="bad_phi_1006.20_55.08_p1_n71" x="1001.20292" y="50.08294999999998" width="10" height="10" style="fill:none;stroke:rgb(0,0,255);stroke-width:1;stroke-miterlimit:4;stroke-dasharray:none"/>
		<rect id="rect_2023_06_05_00_18_56_395937" inkscape:label="bad_phi_1006.29_55.14_p1_n72" x="1001.294007" y="50.13704900000005" width="10" height="10" style="fill:none;stroke:rgb(0,0,255);stroke-width:1;stroke-miterlimit:4;stroke-dasharray:none"/>
		<rect id="rect_2023_06_05_00_18_56_395961" inkscape:label="bad_phi_1006.40_55.18_p1_n73" x="1001.398131" y="50.183088999999995" width="10" height="10" style="fill:none;stroke:rgb(0,0,255);stroke-width:1;stroke-miterlimit:4;stroke-dasharray:none"/>
		<rect id="rect_2023_06_05_00_18_56_395984" inkscape:label="bad_phi_1006.50_55.21_p1_n74" x="1001.504038" y="50.21386199999995" width="10" height="10" style="fill:none;stroke:rgb(0,0,255);stroke-width:1;stroke-miterlimit:4;stroke-dasharray:none"/>
		<rect id="rect_2023_06_05_00_18_56_396007" inkscape:label="bad_phi_1006.65_55.25_p1_n75" x="1001.652222" y="50.24978699999997" width="10" height="10" style="fill:none;stroke:rgb(0,0,255);stroke-width:1;stroke-miterlimit:4;stroke-dasharray:none"/>
		<rect id="rect_2023_06_05_00_18_56_396028" inkscape:label="bad_phi_1006.76_55.28_p1_n76" x="1001.759067" y="50.279308000000015" width="10" height="10" style="fill:none;stroke:rgb(0,0,255);stroke-width:1;stroke-miterlimit:4;stroke-dasharray:none"/>
		<rect id="rect_2023_06_05_00_18_56_396052" inkscape:label="bad_phi_1006.87_55.30_p1_n77" x="1001.87435" y="50.304891" width="10" height="10" style="fill:none;stroke:rgb(0,0,255);stroke-width:1;stroke-miterlimit:4;stroke-dasharray:none"/>
		<rect id="rect_2023_06_05_00_18_56_396073" inkscape:label="bad_phi_1006.98_55.31_p1_n78" x="1001.982247" y="50.312040000000025" width="10" height="10" style="fill:none;stroke:rgb(0,0,255);stroke-width:1;stroke-miterlimit:4;stroke-dasharray:none"/>
		<rect id="rect_2023_06_05_00_18_56_396096" inkscape:label="bad_phi_1007.12_55.31_p1_n79" x="1002.120037" y="50.31110899999999" width="10" height="10" style="fill:none;stroke:rgb(0,0,255);stroke-width:1;stroke-miterlimit:4;stroke-dasharray:none"/>
		<rect id="rect_2023_06_05_00_18_56_396140" inkscape:label="bad_phi_1007.24_55.31_p1_n80" x="1002.242277" y="50.30851199999995" width="10" height="10" style="fill:none;stroke:rgb(0,0,255);stroke-width:1;stroke-miterlimit:4;stroke-dasharray:none"/>
		<rect id="rect_2023_06_05_00_18_56_396165" inkscape:label="bad_phi_1007.35_55.31_p1_n81" x="1002.350015" y="50.308141999999975" width="10" height="10" style="fill:none;stroke:rgb(0,0,255);stroke-width:1;stroke-miterlimit:4;stroke-dasharray:none"/>
		<rect id="rect_2023_06_05_00_18_56_396187" inkscape:label="bad_phi_1007.48_55.31_p1_n82" x="1002.476433" y="50.31164000000001" width="10" height="10" style="fill:none;stroke:rgb(0,0,255);stroke-width:1;stroke-miterlimit:4;stroke-dasharray:none"/>
		<rect id="rect_2023_06_05_00_18_56_396210" inkscape:label="bad_phi_1007.61_55.28_p1_n83" x="1002.606125" y="50.28207199999997" width="10" height="10" style="fill:none;stroke:rgb(0,0,255);stroke-width:1;stroke-miterlimit:4;stroke-dasharray:none"/>
		<rect id="rect_2023_06_05_00_18_56_396231" inkscape:label="bad_phi_1009.57_54.89_p1_n99" x="1004.567227" y="49.88600399999996" width="10" height="10" style="fill:none;stroke:rgb(0,0,255);stroke-width:1;stroke-miterlimit:4;stroke-dasharray:none"/>
		<rect id="rect_2023_06_05_00_18_56_396253" inkscape:label="bad_phi_1011.87_54.61_p1_n118" x="1006.865405" y="49.61129800000003" width="10" height="10" style="fill:none;stroke:rgb(0,0,255);stroke-width:1;stroke-miterlimit:4;stroke-dasharray:none"/>
		<rect id="rect_2023_06_05_00_18_56_396278" inkscape:label="bad_phi_1013.06_54.64_p1_n127" x="1008.06086" y="49.63658099999998" width="10" height="10" style="fill:none;stroke:rgb(0,0,255);stroke-width:1;stroke-miterlimit:4;stroke-dasharray:none"/>
		<rect id="rect_2023_06_05_00_18_56_396301" inkscape:label="bad_phi_1013.28_54.63_p1_n129" x="1008.281283" y="49.62654599999996" width="10" height="10" style="fill:none;stroke:rgb(0,0,255);stroke-width:1;stroke-miterlimit:4;stroke-dasharray:none"/>
		<rect id="rect_2023_06_05_00_18_56_396322" inkscape:label="bad_phi_1020.69_54.68_p1_n187" x="1015.688376" y="49.682096" width="10" height="10" style="fill:none;stroke:rgb(0,0,255);stroke-width:1;stroke-miterlimit:4;stroke-dasharray:none"/>
		<rect id="rect_2023_06_05_00_18_56_396345" inkscape:label="bad_phi_1020.80_54.69_p1_n188" x="1015.796081" y="49.68934200000001" width="10" height="10" style="fill:none;stroke:rgb(0,0,255);stroke-width:1;stroke-miterlimit:4;stroke-dasharray:none"/>
		<rect id="rect_2023_06_05_00_18_56_396366" inkscape:label="bad_phi_1022.28_54.63_p1_n200" x="1017.277002" y="49.63140599999997" width="10" height="10" style="fill:none;stroke:rgb(0,0,255);stroke-width:1;stroke-miterlimit:4;stroke-dasharray:none"/>
		<rect id="rect_2023_06_05_00_18_56_396387" inkscape:label="bad_phi_1022.38_54.62_p1_n201" x="1017.378172" y="49.624571999999944" width="10" height="10" style="fill:none;stroke:rgb(0,0,255);stroke-width:1;stroke-miterlimit:4;stroke-dasharray:none"/>
		<rect id="rect_2023_06_05_00_18_56_396412" inkscape:label="bad_phi_1027.06_54.39_p1_n237" x="1022.0591890000001" y="49.38991299999998" width="10" height="10" style="fill:none;stroke:rgb(0,0,255);stroke-width:1;stroke-miterlimit:4;stroke-dasharray:none"/>
		<rect id="rect_2023_06_05_00_18_56_396434" inkscape:label="bad_phi_1027.21_54.38_p1_n238" x="1022.2120540000001" y="49.37708599999996" width="10" height="10" style="fill:none;stroke:rgb(0,0,255);stroke-width:1;stroke-miterlimit:4;stroke-dasharray:none"/>
		<rect id="rect_2023_06_05_00_18_56_396456" inkscape:label="bad_phi_1027.34_54.38_p1_n239" x="1022.340289" y="49.376135999999974" width="10" height="10" style="fill:none;stroke:rgb(0,0,255);stroke-width:1;stroke-miterlimit:4;stroke-dasharray:none"/>
		<rect id="rect_2023_06_05_00_18_56_396478" inkscape:label="bad_phi_1027.46_54.34_p1_n240" x="1022.464506" y="49.33518600000002" width="10" height="10" style="fill:none;stroke:rgb(0,0,255);stroke-width:1;stroke-miterlimit:4;stroke-dasharray:none"/>
		<rect id="rect_2023_06_05_00_18_56_396500" inkscape:label="bad_phi_1027.62_54.33_p1_n241" x="1022.6157900000001" y="49.330674000000045" width="10" height="10" style="fill:none;stroke:rgb(0,0,255);stroke-width:1;stroke-miterlimit:4;stroke-dasharray:none"/>
		<rect id="rect_2023_06_05_00_18_56_396523" inkscape:label="bad_phi_1027.71_54.29_p1_n242" x="1022.7139380000001" y="49.28891399999998" width="10" height="10" style="fill:none;stroke:rgb(0,0,255);stroke-width:1;stroke-miterlimit:4;stroke-dasharray:none"/>
		<rect id="rect_2023_06_05_00_18_56_396547" inkscape:label="bad_phi_1027.86_54.25_p1_n243" x="1022.85987" y="49.25041399999998" width="10" height="10" style="fill:none;stroke:rgb(0,0,255);stroke-width:1;stroke-miterlimit:4;stroke-dasharray:none"/>
		<rect id="rect_2023_06_05_00_18_56_396570" inkscape:label="bad_phi_1027.99_54.22_p1_n244" x="1022.991702" y="49.21525299999996" width="10" height="10" style="fill:none;stroke:rgb(0,0,255);stroke-width:1;stroke-miterlimit:4;stroke-dasharray:none"/>
	</g>
</svg>
