<?xml version="1.0" ?>
<svg id="svg_2023_06_05_00_19_50_207330" sodipodi:docname="@490_490.svg" width="1120.0mm" height="1120.0mm" viewBox="0 0 1120.0 1120.0" xmlns:dc="http://purl.org/dc/elements/1.1/" xmlns:cc="http://creativecommons.org/ns#" xmlns:rdf="http://www.w3.org/1999/02/22-rdf-syntax-ns#" xmlns:svg="http://www.w3.org/2000/svg" xmlns="http://www.w3.org/2000/svg" xmlns:xlink="http://www.w3.org/1999/xlink" xmlns:sodipodi="http://sodipodi.sourceforge.net/DTD/sodipodi-0.dtd" xmlns:inkscape="http://www.inkscape.org/namespaces/inkscape" inkscape:version="0.92.2 (unknown)">
	<metadata id="metadata_2023_06_05_00_19_50_207399">
		<rdf:RDF>
			<cc:Work rdf:about="">
				<dc:format>image/svg+xml</dc:format>
				<dc:type rdf:resource="http://purl.org/dc/dcmitype/StillImage"/>
				<dc:title/>
			</cc:Work>
		</rdf:RDF>
	</metadata>
	<defs id="defs_2023_06_05_00_19_50_207422">
		<marker id="marker_trapezium" viewBox="0 0 5 5" refX="0" refy="0" markerUnits="strokeWidth" markerWidth="5" markerHeight="5" orient="auto">
			<path d="M 0.0,-0.5 L 0.0,0.5 L -5.0,2.5 L -5.0,-2.5 z" fill="context-stroke"/>
		</marker>
	</defs>
	<sodipodi:namedview id="namedview_2023_06_05_00_19_50_207455" inkscape:document-units="mm" inkscape:current-layer="svg_2023_06_05_00_19_50_207330" inkscape:window-x="0" inkscape:window-y="0" inkscape:window-width="1120.0" inkscape:window-height="1120.0" inkscape:zoom="0.20" inkscape:cx="2856.8681421157053" inkscape:cy="2116.5354330708665" inkscape:window-maximized="1" inkscape:pageopacity="0" inkscape:pageshadow="2" pagecolor="#ffffff" bordercolor="#666666" borderopacity="1" objecttolerance="10" gridtolerance="10" guidetolerance="10" showgrid="false"/>
	<g id="layer_2023_06_05_00_19_50_207529" inkscape:label="images_m" inkscape:groupmode="layer" style="display:inline">
		<image id="image_2023_06_05_00_19_50_207529" inkscape:label="image_m994_994.png" x="504.0" y="546.0" width="70.0" height="70.0" xlink:href="file:///home/lume/carmen_lcad/data/mapper_teste2/m994_994.png" sodipodi:absref="/home/lume/carmen_lcad/data/mapper_teste2/m994_994.png" preserveAspectRatio="none"/>
		<image id="image_2023_06_05_00_19_50_207577" inkscape:label="image_m994_980.png" x="504.0" y="560.0" width="70.0" height="70.0" xlink:href="file:///home/lume/carmen_lcad/data/mapper_teste2/m994_980.png" sodipodi:absref="/home/lume/carmen_lcad/data/mapper_teste2/m994_980.png" preserveAspectRatio="none"/>
		<image id="image_2023_06_05_00_19_50_207611" inkscape:label="image_m994_1008.png" x="504.0" y="532.0" width="70.0" height="70.0" xlink:href="file:///home/lume/carmen_lcad/data/mapper_teste2/m994_1008.png" sodipodi:absref="/home/lume/carmen_lcad/data/mapper_teste2/m994_1008.png" preserveAspectRatio="none"/>
		<image id="image_2023_06_05_00_19_50_207645" inkscape:label="image_m980_994.png" x="490.0" y="546.0" width="70.0" height="70.0" xlink:href="file:///home/lume/carmen_lcad/data/mapper_teste2/m980_994.png" sodipodi:absref="/home/lume/carmen_lcad/data/mapper_teste2/m980_994.png" preserveAspectRatio="none"/>
		<image id="image_2023_06_05_00_19_50_207677" inkscape:label="image_m980_980.png" x="490.0" y="560.0" width="70.0" height="70.0" xlink:href="file:///home/lume/carmen_lcad/data/mapper_teste2/m980_980.png" sodipodi:absref="/home/lume/carmen_lcad/data/mapper_teste2/m980_980.png" preserveAspectRatio="none"/>
		<image id="image_2023_06_05_00_19_50_207709" inkscape:label="image_m980_1008.png" x="490.0" y="532.0" width="70.0" height="70.0" xlink:href="file:///home/lume/carmen_lcad/data/mapper_teste2/m980_1008.png" sodipodi:absref="/home/lume/carmen_lcad/data/mapper_teste2/m980_1008.png" preserveAspectRatio="none"/>
		<image id="image_2023_06_05_00_19_50_207742" inkscape:label="image_m1036_994.png" x="546.0" y="546.0" width="70.0" height="70.0" xlink:href="file:///home/lume/carmen_lcad/data/mapper_teste2/m1036_994.png" sodipodi:absref="/home/lume/carmen_lcad/data/mapper_teste2/m1036_994.png" preserveAspectRatio="none"/>
		<image id="image_2023_06_05_00_19_50_207798" inkscape:label="image_m1036_980.png" x="546.0" y="560.0" width="70.0" height="70.0" xlink:href="file:///home/lume/carmen_lcad/data/mapper_teste2/m1036_980.png" sodipodi:absref="/home/lume/carmen_lcad/data/mapper_teste2/m1036_980.png" preserveAspectRatio="none"/>
		<image id="image_2023_06_05_00_19_50_207831" inkscape:label="image_m1036_1008.png" x="546.0" y="532.0" width="70.0" height="70.0" xlink:href="file:///home/lume/carmen_lcad/data/mapper_teste2/m1036_1008.png" sodipodi:absref="/home/lume/carmen_lcad/data/mapper_teste2/m1036_1008.png" preserveAspectRatio="none"/>
		<image id="image_2023_06_05_00_19_50_207863" inkscape:label="image_m1022_994.png" x="532.0" y="546.0" width="70.0" height="70.0" xlink:href="file:///home/lume/carmen_lcad/data/mapper_teste2/m1022_994.png" sodipodi:absref="/home/lume/carmen_lcad/data/mapper_teste2/m1022_994.png" preserveAspectRatio="none"/>
		<image id="image_2023_06_05_00_19_50_207895" inkscape:label="image_m1022_980.png" x="532.0" y="560.0" width="70.0" height="70.0" xlink:href="file:///home/lume/carmen_lcad/data/mapper_teste2/m1022_980.png" sodipodi:absref="/home/lume/carmen_lcad/data/mapper_teste2/m1022_980.png" preserveAspectRatio="none"/>
		<image id="image_2023_06_05_00_19_50_207925" inkscape:label="image_m1022_1008.png" x="532.0" y="532.0" width="70.0" height="70.0" xlink:href="file:///home/lume/carmen_lcad/data/mapper_teste2/m1022_1008.png" sodipodi:absref="/home/lume/carmen_lcad/data/mapper_teste2/m1022_1008.png" preserveAspectRatio="none"/>
		<image id="image_2023_06_05_00_19_50_207961" inkscape:label="image_m1008_994.png" x="518.0" y="546.0" width="70.0" height="70.0" xlink:href="file:///home/lume/carmen_lcad/data/mapper_teste2/m1008_994.png" sodipodi:absref="/home/lume/carmen_lcad/data/mapper_teste2/m1008_994.png" preserveAspectRatio="none"/>
		<image id="image_2023_06_05_00_19_50_207992" inkscape:label="image_m1008_980.png" x="518.0" y="560.0" width="70.0" height="70.0" xlink:href="file:///home/lume/carmen_lcad/data/mapper_teste2/m1008_980.png" sodipodi:absref="/home/lume/carmen_lcad/data/mapper_teste2/m1008_980.png" preserveAspectRatio="none"/>
		<image id="image_2023_06_05_00_19_50_208024" inkscape:label="image_m1008_1008.png" x="518.0" y="532.0" width="70.0" height="70.0" xlink:href="file:///home/lume/carmen_lcad/data/mapper_teste2/m1008_1008.png" sodipodi:absref="/home/lume/carmen_lcad/data/mapper_teste2/m1008_1008.png" preserveAspectRatio="none"/>
	</g>
	<g id="layer_2023_06_05_00_19_50_208058" inkscape:label="paths" inkscape:groupmode="layer" style="display:inline" marker-end="url(#marker_trapezium)">
		<path id="path_2023_06_05_00_19_50_208058" inkscape:label="path1_rddf-log_ct13-20220531.txt" style="fill:none;stroke:#ff00ff;stroke-width:0.4px;stroke-linecap:butt;stroke-linejoin:miter;stroke-miterlimit:4;stroke-opacity:1;stroke-dashoffset:4;stroke-dasharray:none" sodipodi:nodetypes="caaaaaaaaaaaaaaaaaaaaaaaaaaaaaaaaaaaaaaaaaaaaaaaaaaaaaaaaaaaaaaaaaaaaaaaaaaaaaaaaaaaaaaaaaaaaaaaaaaaaaaaaaaaaaaaaaaaaaaaaaaaaaaaaaaaaaaaaaaaaaaaaaaaaaaaaaaaaaaaaaaaaaaaaaaaaaaaaaaaaaaaaaaaaaaaaaaaaaaaaaaaaaaaaaaaaaaaaaaaaaaaaaaaaaaaaaaaaaaaaaaaaaac" inkscape:connector-curvature="0" d="M 510.00865,610.000454 C 
510.0537864411024,610.0004516077686 510.0987279234414,609.9935159774294 510.143863,609.993165 
510.1847152480002,609.9928473265167 510.22551876441264,609.9980355798551 510.26636099999996,609.997077 
510.32174244908447,609.9957771803238 510.3771018161451,609.9936376529791 510.43248200000005,609.992285 
510.47648372137166,609.991210264321 510.5202889126772,610.0012853884986 510.56429,610.000185 
510.60798960365946,609.9990921510687 510.6517223645167,610.0022710179375 510.695425,610.001307 
510.7292572219608,610.0005607093364 510.76260273741923,609.9910967700589 510.79644299999995,609.99121 
510.8330826799828,609.9913325968267 510.8695160969163,609.9834567928339 510.90614600000004,609.984312 
510.9490966329971,609.9853147787693 510.99132372423594,609.9964935744157 511.034231,609.998668 
511.0784987795504,610.0009113722649 511.1230240989289,609.9946395412824 511.16720399999997,609.998218 
511.2051043468364,610.0012878309242 511.2420961992392,610.0120258740458 511.27996299999995,610.015485 
511.3211842504463,610.0192505543754 511.36245210229947,610.0225895975875 511.40359,610.027177 
511.4405784491154,610.0313016857568 511.47831695535365,610.0269372492718 511.51511600000003,610.032504 
511.5630430451797,610.0397541315243 511.61190532554554,610.0406992491587 511.65947600000004,610.050005 
511.7018967888969,610.0583033328804 511.74349575910924,610.0703577613913 511.785483,610.080627 
511.83508684039657,610.0927591063765 511.88556484591436,610.101386182691 511.93473700000004,610.115164 
511.9708854033544,610.1252926206938 512.0075718353644,610.1335168474836 512.043479,610.14447 
512.084920685193,610.1571114074477 512.125340708562,610.1728955568268 512.16607,610.187672 
512.2004119434249,610.2001311358592 512.2382820585713,610.2015644464286 512.272115,610.215346 
512.3073081968288,610.2296816417432 512.3415548936288,610.2462430774744 512.376099,610.262079 
512.4085247368721,610.2769438065005 512.4429337483709,610.2874319962989 512.474715,610.303629 
512.5067151694108,610.319937573005 512.5328537774001,610.3460936718371 512.564126,610.363758 
512.595028473389,610.3812134727999 512.6309757776814,610.3888939435062 512.661205,610.407491 
512.6974526144754,610.4297905790982 512.7282109507115,610.4600795395239 512.763363,610.484069 
512.7950530322139,610.5056958123955 512.8296514180148,610.5230521338469 512.860276,610.546163 
512.8962356582717,610.5732999858902 512.9327853559357,610.5997561403481 512.96717,610.628863 
512.9947277629243,610.6521908534528 513.0211459295252,610.6768396534218 513.047651,610.701357 
513.0748864055016,610.7265499107874 513.1025949066751,610.7512660740234 513.128871,610.777458 
513.1600306137858,610.8085178035883 513.1969901750471,610.8336241575096 513.226625,610.866142 
513.2517164517191,610.8936744681738 513.2717377147884,610.9254562764028 513.295438,610.954195 
513.3176580096346,610.981138756563 513.3378624341378,611.0096832702062 513.3591,611.037408 
513.3878552519595,611.0749467460081 513.4210449895236,611.1091755394818 513.447398,611.148438 
513.4739997882035,611.188071106054 513.4960707353182,611.2305670903947 513.519894,611.27193 
513.5365608305156,611.3008676209863 513.5480041603033,611.3325487817019 513.563631,611.362061 
513.5833233319348,611.3992511427379 513.6205770737316,611.4257068579853 513.638237,611.463904 
513.6550066178626,611.5001754693874 513.6763139158884,611.5343736944078 513.69113,611.571486 
513.7063912335889,611.6097133453901 513.7077222023311,611.6523327262668 513.720904,611.691326 
513.7336255487456,611.7289578044782 513.7459012497851,611.7667389683979 513.758295,611.80448 
513.7702668711872,611.8409363397665 513.7872404076637,611.8755846929479 513.800059,611.911752 
513.8139758062194,611.9510178874326 513.8247947272625,611.991399173889 513.840158,612.030122 
513.8554635124133,612.0686992423527 513.8925035977012,612.0963143207358 513.906862,612.135254 
513.9232872197063,612.1797988437712 513.9372572167892,612.2252159995995 513.953233,612.269924 
513.9692797227915,612.3148305238008 513.9889780347889,612.3583893656138 514.00463,612.403435 
514.0210112405335,612.4505794551472 514.0413752217659,612.4962472273183 514.059153,612.542883 
514.0731611979638,612.5796301754519 514.0883201452754,612.6159360286832 514.103753,612.652108 
514.1214217508408,612.6935205293098 514.1352121274991,612.7365545235376 514.153722,612.777598 
514.167833789712,612.8088892424901 514.1826708377547,612.8398491521923 514.197397,612.870856 
514.2130929259413,612.9039047454067 514.2348308339981,612.9337774201309 514.251673,612.966257 
514.2744954761038,613.0102694171286 514.2986303649706,613.0535958331134 514.32295,613.096799 
514.3460553220119,613.1378449730025 514.3884759050901,613.1655001184703 514.412917,613.205765 
514.4331736498518,613.23913632029 514.4393556238975,613.2799387895792 514.460386,613.312828 
514.4807800039508,613.3447219939063 514.5069695953354,613.3727130932378 514.526752,613.40499 
514.5526097661785,613.4471794467416 514.5708268194028,613.493735838951 514.596559,613.536002 
514.6189336499697,613.5727532794133 514.6372666503984,613.6118592737567 514.659502,613.648695 
514.6783177735124,613.6798657571311 514.6937786257819,613.7130067082401 514.713061,613.743891 
514.7310984225426,613.7727812711925 514.7451131286697,613.8041230960805 514.764014,613.832456 
514.7873362087586,613.8674166051699 514.8159528832994,613.8985764047687 514.840383,613.932772 
514.8610506722844,613.9617011845991 514.8751211036689,613.9950737483866 514.896535,614.023455 
514.9238819220002,614.059699682525 514.9569510193412,614.0912890536301 514.985613,614.126503 
515.0067249587323,614.1524410323856 515.0143338964062,614.187897654959 515.036392,614.213036 
515.0640698013066,614.2445787895361 515.0978308539924,614.2703344246243 515.126238,614.301222 
515.1518541610392,614.3290748897175 515.1826878306111,614.3517348063732 515.208966,614.378964 
515.2391532130093,614.4102437081075 515.2655954938444,614.4451480041844 515.2972,614.474995 
515.3246218456286,614.5008919308904 515.3483141628664,614.53066071445 515.376593,614.555619 
515.4021971932943,614.5782167031692 515.4249762016249,614.603989618863 515.451428,614.625589 
515.4790579419488,614.6481504016289 515.5141645717947,614.6601142657504 515.5425,614.681783 
515.5698790428886,614.7027203650564 515.5966621474264,614.7244670461788 515.624709,614.744501 
515.6557472552919,614.766671722065 515.691885380512,614.7808835918878 515.723599,614.802077 
515.7662250349434,614.8305628987825 515.7960440043689,614.8761597650071 515.839877,614.902751 
515.880850253209,614.9276073756325 515.9249622889173,614.9468899265494 515.967064,614.969783 
516.00932398615,614.9927621365262 516.0545280196351,615.0098730051252 516.097824,615.030835 
516.1330186662426,615.047874697616 516.1670390641472,615.0674073403463 516.20292,615.08295 
516.2353242154677,615.0969866375734 516.2609810770058,615.1245450492311 516.294007,615.137049 
516.3294979330309,615.1504862286716 516.3621393555262,615.1710570853625 516.398131,615.183089 
516.4329967827426,615.1947445419421 516.4688226885595,615.203309450338 516.504038,615.213862 
516.5527246016957,615.228451329506 516.6028644970821,615.2376597321371 516.652222,615.249787 
516.6881042009227,615.2586033508356 516.7227794501679,615.2723456647387 516.759067,615.279308 
516.7977243972888,615.2867250276444 516.8353827588834,615.2993267584545 516.87435,615.304891 
516.9100325817922,615.3099862158368 516.9464163569627,615.3081191726246 516.982247,615.31204 
517.0279055000188,615.3170362568801 517.0741858280782,615.3084013737015 517.120037,615.311109 
517.1607219846575,615.3135115500286 517.2015229949565,615.3081230319657 517.242277,615.308512 
517.2781882428426,615.3088547473084 517.314110838211,615.3089332044317 517.350015,615.308142 
517.3921602300854,615.3072132638547 517.434427642994,615.315194286507 517.476433,615.31164 
517.5206150679176,615.3079015309321 517.5622042147696,615.288154425601 517.606125,615.282072 
517.6482145481971,615.2762431755801 517.6910569769724,615.2769183621717 517.73309,615.270695 
517.780661878707,615.2636515610785 517.8277810719665,615.2537834772226 517.875304,615.246417 
517.9218848237015,615.239196557342 517.967608022564,615.2271548741496 518.014052,615.219101 
518.0534652175527,615.2122663335583 518.0926780123291,615.2043179977412 518.132047,615.197233 
518.1804690127985,615.1885187842784 518.2289366133691,615.18001625063 518.277181,615.170367 
518.3154038990663,615.1627221244269 518.3522601260672,615.149079890751 518.390475,615.141395 
518.4235598811476,615.1347417346359 518.4563184151048,615.1265398963806 518.489371,615.119728 
518.5320965926678,615.1109225673547 518.5728656168404,615.0940246889716 518.615531,615.084932 
518.6569993487203,615.0760944185895 518.6993407927962,615.0716523881118 518.740717,615.062393 
518.7789097156593,615.0538460305886 518.8175745627162,615.0474874795316 518.855723,615.038745 
518.8899795475122,615.0308944250676 518.9244940954395,615.024195524427 518.958735,615.016277 
519.0073864229494,615.0050259105213 519.0568634750771,614.997520773675 519.105437,614.985938 
519.1424868702293,614.9771031406351 519.1768611244597,614.9586106358396 519.214091,614.950568 
519.2481470031116,614.9432110043828 519.2814655332712,614.9325946002607 519.315635,614.925784 
519.3580249334631,614.9173349102267 519.4019173131654,614.9186299885442 519.444458,614.910976 
519.4855590389263,614.9035810352144 519.5258429317694,614.8916021962882 519.567227,614.886004 
519.6082377452335,614.8804563046775 519.6479141434387,614.8665885374023 519.689051,614.86207 
519.7296616654693,614.8576092602597 519.7706969694606,614.8578026633461 519.811299,614.853264 
519.8617349978927,614.8476260550027 519.910380747324,614.8302568648758 519.960797,614.824445 
520.0024573392772,614.8196424958528 520.0448557124295,614.8251755144302 520.086549,614.820668 
520.126394737552,614.8163602265558 520.1646675738523,614.8017308863491 520.204512,614.797411 
520.2412013482724,614.7934331835252 520.2780706193292,614.7912327066995 520.314749,614.787155 
520.357657288055,614.7823846854315 520.4012233367813,614.78613021811 520.444141,614.781445 
520.4939399977683,614.7760085631414 520.5421799789392,614.7598815135361 520.591977,614.754427 
520.6325371546636,614.7499842460375 520.6734339205698,614.7491047753624 520.713998,614.744698 
520.7576652190946,614.7399541076708 520.8011543918561,614.7336520212825 520.844827,614.728958 
520.8844889812372,614.7246950491037 520.9246915234211,614.7272984326255 520.96435,614.723003 
520.9982241296681,614.7193340733469 521.0303091694267,614.7046757449573 521.064194,614.701107 
521.1000941025286,614.6973260069213 521.1363249298181,614.6973890698633 521.17224,614.693753 
521.2087645776122,614.6900552231266 521.2452091331112,614.6855920943992 521.281736,614.681917 
521.3156297229726,614.6785068353165 521.3493525140009,614.6735195724041 521.383247,614.670117 
521.4275394644807,614.6656706036937 521.4708844948632,614.6538480213029 521.515179,614.649422 
521.559293975164,614.6450139177954 521.6032709065702,614.6392780726813 521.647398,614.634993 
521.6810267944942,614.6317273911101 521.7147185877855,614.6291467580508 521.748379,614.626225 
521.7875564040903,614.6228243614373 521.8260930671756,614.612300632288 521.865405,614.611298 
521.9088453649332,614.6101900740001 521.9521875120865,614.6055400962033 521.995642,614.605557 
522.0497685206428,614.6055780552176 522.1033384211898,614.6183844380963 522.157461,614.619038 
522.2101733872555,614.6196745330132 522.2627903869417,614.6122258672489 522.315499,614.613122 
522.3530070687223,614.613759698601 522.3903741571082,614.6182733256693 522.427877,614.619167 
522.4688170612924,614.6201425815572 522.5088995581547,614.6328608128894 522.549836,614.633978 
522.5994381030329,614.6353316796964 522.6490651062521,614.6358522182807 522.698651,614.637707 
522.7400981005437,614.6392573466529 522.7814607419762,614.6293254185154 522.822901,614.631049 
522.8686797367344,614.6329530273102 522.9139411596592,614.6429722958061 522.959749,614.643952 
522.9935343796589,614.6446745767008 523.0270707912867,614.6370941961687 523.06086,614.636581 
523.096591864311,614.6360382984523 523.132218280476,614.632460715894 523.16793,614.631144 
523.2057197278939,614.6297506664945 523.2435568080305,614.6291420262008 523.281283,614.626546 
523.3227134547095,614.6236950749443 523.3643441031477,614.6248884019548 523.405801,614.622452 
523.445186198925,614.6201373507392 523.4846317443335,614.6189120645381 523.524009,614.616466 
523.5650381556022,614.6139173215598 523.6057023774378,614.6067593564666 523.646744,614.60442 
523.6925865083301,614.6018069949187 523.7379386177894,614.5929100269635 523.783795,614.590553 
523.8398155971556,614.5876735304116 523.8959336420334,614.586961119288 523.951954,614.584077 
523.98632969585,614.5823072218151 524.0207996778477,614.5886570063996 524.055178,614.586939 
524.1045069923728,614.5844738557092 524.1537615888453,614.580618916796 524.203098,614.578307 
524.2430682462564,614.5764339840773 524.2831033418638,614.5761554536439 524.323071,614.574228 
524.368779629876,614.5720236860791 524.4142597638792,614.5660836296199 524.459973,614.563977 
524.4940822411187,614.5624051240238 524.5282648748649,614.5679951994132 524.562378,614.56651 
524.6008667207302,614.5648342981926 524.638853930342,614.5562114047141 524.67735,614.554714 
524.7165143286923,614.5531906016134 524.7556524771597,614.5510299035312 524.794819,614.549564 
524.8404322702314,614.5478568110781 524.8857853345954,614.5413117755566 524.931405,614.539785 
524.9707142200836,614.5384694191899 525.0096724531165,614.5507783994007 525.048987,614.549633 
525.0851591245167,614.5485791526831 525.1205888965674,614.537627570759 525.156761,614.536573 
525.1907498006069,614.5355820818102 525.2245572400165,614.5307102477452 525.25855,614.529866 
525.2927340505313,614.5290170013426 525.3269136109334,614.5279922566008 525.361098,614.527157 
525.3987240511972,614.526237650306 525.4363525791928,614.5254216272758 525.473981,614.524605 
525.5101194694552,614.5238207082537 525.5461480086301,614.5307037122477 525.582288,614.529993 
525.6211388765527,614.5292289767461 525.6597833725896,614.5232916193145 525.698638,614.522751 
525.7469500765084,614.5220787907055 525.7952732656939,614.5238950734159 525.843587,614.523355 
525.8860161501723,614.5228807072053 525.9283951419974,614.5198488907217 525.970826,614.519566 
526.010289645786,614.5193028919753 526.0496776873615,614.5154098119739 526.089142,614.515281 
526.1298718256569,614.5151480573769 526.1706009966147,614.5148125332811 526.211331,614.514756 
526.2529427410008,614.5146982428664 526.2945493099719,614.5158239482174 526.336161,614.515911 
526.3906770871546,614.5160250478207 526.4450848515139,614.5215583662308 526.4996,614.521898 
526.5374090228986,614.5221335532601 526.5752072903615,614.5198816223883 526.613016,614.520163 
526.6664692362029,614.5205608063278 526.7199183839947,614.5179761301456 526.773371,614.51845 
526.8115069410618,614.5187880839741 526.8495433457318,614.5130810821261 526.887678,614.513542 
526.9316397305366,614.5140733473471 526.975158981585,614.5237643478946 527.019118,614.524486 
527.0636394193949,614.5252168847468 527.1078059395556,614.533592162823 527.152324,614.534505 
527.2028850425479,614.5355417477577 527.253481426248,614.5332510126672 527.304039,614.534445 
527.3484181449597,614.5354930751546 527.392611872864,614.5410921704001 527.436991,614.542141 
527.4748550981602,614.5430358573234 527.5127512655421,614.5412848835181 527.550615,614.542195 
527.5897267430465,614.5431351143994 527.6286026662198,614.5332249790296 527.667713,614.534222 
527.7031064086573,614.5351242671819 527.7384480281521,614.5375252181444 527.773834,614.538683 
527.8117189309702,614.5399225444688 527.8495903672014,614.5415449713129 527.887469,614.542964 
527.9215126722329,614.5442393614358 527.9556288787635,614.5420148892119 527.989671,614.543331 
528.049777592398,614.5456547956924 528.1100282274966,614.5418184255716 528.170122,614.544453 
528.2125200624088,614.5463117758162 528.2545806069736,614.5536480365621 528.296996,614.555057 
528.342158620707,614.5565572214243 528.3869618582229,614.5647808707945 528.43214,614.565702 
528.4722633851195,614.566520068659 528.5123894667469,614.5624811664111 528.552512,614.56334 
528.5901189635208,614.564144987144 528.6273443661757,614.5719842685104 528.664947,614.572971 
528.7110653286276,614.5741811920127 528.7572326529704,614.5725839074165 528.803346,614.573971 
528.8430134599427,614.575164199866 528.8818649218873,614.5870632265024 528.921529,614.588364 
528.9668448737988,614.58985012272 529.0122226306243,614.5887343800252 529.057536,614.590295 
529.0961292301005,614.5916241742947 529.1347610308949,614.5861647242131 529.173352,614.587558 
529.2110455877329,614.5889188770219 529.2467980675908,614.6074858926297 529.284493,614.608809 
529.3389659619961,614.6107210229932 529.3934553528845,614.6122489540872 529.447905,614.614738 
529.4897465564476,614.6166506947662 529.5316831726389,614.6159245145717 529.57352,614.617938 
529.6295245117027,614.6206333350754 529.6857342308969,614.6150420199566 529.741728,614.617952 
529.7854509676806,614.6202242700297 529.8293357978824,614.6126727552374 529.873045,614.615196 
529.9154302581338,614.6176428161259 529.9579955945374,614.6158569250571 530.00037,614.618485 
530.0526136531897,614.6217251690211 530.1037770016806,614.6359096101086 530.156006,614.639378 
530.2032418210781,614.642514806173 530.2502174211861,614.6488742976671 530.297419,614.65249 
530.338592121098,614.6556439146304 530.3797493663392,614.6590020986915 530.42091,614.662315 
530.470510067314,614.6663071671096 530.5191864776349,614.6789578839241 530.568821,614.682496 
530.6085720238697,614.6853295869852 530.6485518491614,614.680609351462 530.688376,614.682096 
530.7243337765384,614.6834383155245 530.760099268032,614.6890618765575 530.796081,614.689342 
530.8410605396203,614.6896921727902 530.8859403431051,614.6956682416936 530.930913,614.694807 
530.9741826341501,614.6939783717718 531.0173185967983,614.6886933161029 531.060596,614.688574 
531.0971307415308,614.6884732734624 531.1334216837192,614.6814580232854 531.169956,614.681255 
531.2096094070669,614.6810346437487 531.2484221845195,614.6675270645807 531.288074,614.667109 
531.3309398692755,614.6666570483945 531.3738165503369,614.6698568586118 531.416669,614.668693 
531.463416889384,614.6674233425109 531.5101243904854,614.6648909372699 531.556871,614.663575 
531.5992306711718,614.6623825569413 531.6415934343213,614.6611575643404 531.683967,614.660663 
531.7229532980894,614.6602079702546 531.7619430617004,614.6599918447351 531.800926,614.659307 
531.8413757083944,614.6585963873309 531.8804807878364,614.6414473119962 531.920936,614.641203 
531.9645408530199,614.6409396670914 532.0079484227582,614.6343799739192 532.051552,614.633955 
532.0862742904818,614.6336165858422 532.120966224748,614.631729264475 532.155684,614.631075 
532.1961163048661,614.6303130438976 532.2366303944555,614.633748075926 532.277002,614.631406 
532.3107454507018,614.6294484428882 532.3445001510588,614.6275146321542 532.378172,614.624572 
532.4249047936468,614.6204879527746 532.4718319711155,614.6188569443334 532.518557,614.614685 
532.5607686780533,614.6109160398674 532.6019974045931,614.5988630035446 532.644247,614.595546 
532.6869530138582,614.5921931631746 532.7300279607811,614.5954919442836 532.772704,614.591777 
532.8215329105404,614.5875264489787 532.8697875691056,614.577714106557 532.91865,614.573868 
532.964299554872,614.570274788424 533.0097609031237,614.5645029254571 533.055414,614.560955 
533.10528383313,614.5570793713439 533.1549925908852,614.5512748788541 533.20487,614.547498 
533.2463107499724,614.5443599722827 533.2879168335477,614.5438278636799 533.329375,614.540929 
533.3722741228191,614.5379293808735 533.4147696847659,614.5303124123938 533.457674,614.527388 
533.4999680404364,614.5245051847083 533.5423419005426,614.5228811516495 533.584634,614.51997 
533.6268160965527,614.5170664203353 533.6688414715549,614.5121065783007 533.71103,614.509298 
533.7446321219717,614.5070610366806 533.7784310593195,614.5139096377253 533.812032,614.511655 
533.8646899497231,614.5081216286844 533.916340016919,614.4942969440228 533.969018,614.491076 
534.0071375414554,614.4887452177259 534.0454581940901,614.4946030249915 534.0835830000001,614.49236 
534.1333504339559,614.4894319956347 534.1815664030271,614.4718687540495 534.2313529999999,614.469287 
534.2739917010642,614.4670759101518 534.3167217151033,614.4669878609403 534.3593639999999,614.464847 
534.3940046396463,614.4631078626028 534.4280571222962,614.4543602996137 534.4626989999999,614.452646 
534.5050173310719,614.4505518208325 534.5469852484741,614.4660232752613 534.589305,614.463958 
534.6239860535006,614.4622655060878 534.6574173187462,614.4486553312157 534.6921070000001,614.44715 
534.7430101775385,614.4449410969671 534.7939002245914,614.4424232486052 534.8448109999999,614.440397 
534.8885433502178,614.4386564526811 534.9320583049214,614.4328680032359 534.9757979999999,614.431323 
535.0214329222665,614.4297110522615 535.067011348051,614.4266576232845 535.112652,614.425217 
535.1479924148655,614.4241014983065 535.1832707954734,614.4214001456718 535.218611,614.420278 
535.2627002514075,614.4188780487746 535.3067832272125,614.4259761876672 535.350874,614.424625 
535.402588472029,614.4230401795852 535.453626635476,614.4107456795623 535.5053499999999,614.409484 
535.5395123511801,614.4086506833611 535.5719068624467,614.429296951224 535.606072,614.428587 
535.648131908689,614.4277129955091 535.6901142687248,614.424271386528 535.732176,614.42349 
535.7765675169135,614.422665332726 535.8200128653086,614.4081420702603 535.864407,614.407473 
535.9092457723373,614.406797228543 535.9540225831481,614.403565560106 535.9988619999999,614.402934 
536.0326138364148,614.4024586077027 536.0663284827046,614.406534533398 536.1000799999999,614.406037 
536.1465477782222,614.40535201534 536.1927356188926,614.3974877563656 536.239206,614.397011 
536.2941391903171,614.3964474206288 536.3490753704343,614.3982677651989 536.4040110000001,614.398045 
536.4476565774605,614.3978680162134 536.4909012191617,614.4084114908657 536.534547,614.408295 
536.5752759594861,614.408186294149 536.6156201977699,614.3984420711485 536.6563490000001,614.398599 
536.6916052646804,614.3987348430601 536.7267249043325,614.3930317276997 536.7619810000001,614.393206 
536.8092477840307,614.3934396416163 536.8564674263748,614.3899613888115 536.9037310000001,614.389363 
536.955546504985,614.3887069806585 537.007471216753,614.3931607398656 537.0591890000001,614.389913 
537.1102225457291,614.386708228439 537.1611694169032,614.3821310523779 537.2120540000001,614.377086 
537.2545916093095,614.3728685248054 537.2979244422861,614.3818350834772 537.340289,614.376136 
537.3834973951009,614.3703233994705 537.421538577953,614.3425719579441 537.464506,614.335186 
537.5142271785003,614.3266390936269 537.5664296600505,614.341104821639 537.6157900000001,614.330674 
537.6505760061291,614.3233230249899 537.6793784572073,614.2972651111809 537.7139380000001,614.288914 
537.7628389264853,614.2770973774141 537.8115883602022,614.2645496442678 537.85987,614.250414 
537.9035178923452,614.2376349999117 537.948666207074,614.2299622445992 537.991702,614.215253 
538.0401561051885,614.1986918252987 538.087890384081,614.1800744236052 538.1363289999999,614.163468 
538.1751110672838,614.1501721734082 538.2089688244953,614.1247339707825 538.2476810000001,614.111236 
538.2831569143368,614.09886643283 538.3183297479914,614.0856438558765 538.3536919999999,614.072953 "/>
	</g>
	<g id="layer_2023_06_05_00_19_50_208880" inkscape:label="bad_phis" inkscape:groupmode="layer" style="display:inline">
		<rect id="rect_2023_06_05_00_19_50_208880" inkscape:label="bad_phi_510.80_609.99_p1_n6" x="505.79644299999995" y="604.99121" width="10" height="10" style="fill:none;stroke:rgb(0,0,255);stroke-width:1;stroke-miterlimit:4;stroke-dasharray:none"/>
		<rect id="rect_2023_06_05_00_19_50_208921" inkscape:label="bad_phi_511.17_610.00_p1_n9" x="506.16720399999997" y="604.998218" width="10" height="10" style="fill:none;stroke:rgb(0,0,255);stroke-width:1;stroke-miterlimit:4;stroke-dasharray:none"/>
		<rect id="rect_2023_06_05_00_19_50_208947" inkscape:label="bad_phi_511.52_610.03_p1_n12" x="506.51511600000003" y="605.032504" width="10" height="10" style="fill:none;stroke:rgb(0,0,255);stroke-width:1;stroke-miterlimit:4;stroke-dasharray:none"/>
		<rect id="rect_2023_06_05_00_19_50_208971" inkscape:label="bad_phi_511.66_610.05_p1_n13" x="506.65947600000004" y="605.050005" width="10" height="10" style="fill:none;stroke:rgb(0,0,255);stroke-width:1;stroke-miterlimit:4;stroke-dasharray:none"/>
		<rect id="rect_2023_06_05_00_19_50_208995" inkscape:label="bad_phi_511.79_610.08_p1_n14" x="506.785483" y="605.080627" width="10" height="10" style="fill:none;stroke:rgb(0,0,255);stroke-width:1;stroke-miterlimit:4;stroke-dasharray:none"/>
		<rect id="rect_2023_06_05_00_19_50_209019" inkscape:label="bad_phi_512.17_610.19_p1_n17" x="507.16607" y="605.187672" width="10" height="10" style="fill:none;stroke:rgb(0,0,255);stroke-width:1;stroke-miterlimit:4;stroke-dasharray:none"/>
		<rect id="rect_2023_06_05_00_19_50_209041" inkscape:label="bad_phi_512.27_610.22_p1_n18" x="507.272115" y="605.215346" width="10" height="10" style="fill:none;stroke:rgb(0,0,255);stroke-width:1;stroke-miterlimit:4;stroke-dasharray:none"/>
		<rect id="rect_2023_06_05_00_19_50_209064" inkscape:label="bad_phi_512.38_610.26_p1_n19" x="507.37609899999995" y="605.262079" width="10" height="10" style="fill:none;stroke:rgb(0,0,255);stroke-width:1;stroke-miterlimit:4;stroke-dasharray:none"/>
		<rect id="rect_2023_06_05_00_19_50_209088" inkscape:label="bad_phi_512.47_610.30_p1_n20" x="507.47471499999995" y="605.303629" width="10" height="10" style="fill:none;stroke:rgb(0,0,255);stroke-width:1;stroke-miterlimit:4;stroke-dasharray:none"/>
		<rect id="rect_2023_06_05_00_19_50_209135" inkscape:label="bad_phi_512.56_610.36_p1_n21" x="507.564126" y="605.363758" width="10" height="10" style="fill:none;stroke:rgb(0,0,255);stroke-width:1;stroke-miterlimit:4;stroke-dasharray:none"/>
		<rect id="rect_2023_06_05_00_19_50_209158" inkscape:label="bad_phi_512.66_610.41_p1_n22" x="507.661205" y="605.407491" width="10" height="10" style="fill:none;stroke:rgb(0,0,255);stroke-width:1;stroke-miterlimit:4;stroke-dasharray:none"/>
		<rect id="rect_2023_06_05_00_19_50_209183" inkscape:label="bad_phi_512.76_610.48_p1_n23" x="507.763363" y="605.484069" width="10" height="10" style="fill:none;stroke:rgb(0,0,255);stroke-width:1;stroke-miterlimit:4;stroke-dasharray:none"/>
		<rect id="rect_2023_06_05_00_19_50_209205" inkscape:label="bad_phi_512.86_610.55_p1_n24" x="507.860276" y="605.546163" width="10" height="10" style="fill:none;stroke:rgb(0,0,255);stroke-width:1;stroke-miterlimit:4;stroke-dasharray:none"/>
		<rect id="rect_2023_06_05_00_19_50_209228" inkscape:label="bad_phi_512.97_610.63_p1_n25" x="507.96717" y="605.628863" width="10" height="10" style="fill:none;stroke:rgb(0,0,255);stroke-width:1;stroke-miterlimit:4;stroke-dasharray:none"/>
		<rect id="rect_2023_06_05_00_19_50_209251" inkscape:label="bad_phi_513.05_610.70_p1_n26" x="508.047651" y="605.701357" width="10" height="10" style="fill:none;stroke:rgb(0,0,255);stroke-width:1;stroke-miterlimit:4;stroke-dasharray:none"/>
		<rect id="rect_2023_06_05_00_19_50_209273" inkscape:label="bad_phi_513.13_610.78_p1_n27" x="508.128871" y="605.777458" width="10" height="10" style="fill:none;stroke:rgb(0,0,255);stroke-width:1;stroke-miterlimit:4;stroke-dasharray:none"/>
		<rect id="rect_2023_06_05_00_19_50_209296" inkscape:label="bad_phi_513.23_610.87_p1_n28" x="508.226625" y="605.866142" width="10" height="10" style="fill:none;stroke:rgb(0,0,255);stroke-width:1;stroke-miterlimit:4;stroke-dasharray:none"/>
		<rect id="rect_2023_06_05_00_19_50_209321" inkscape:label="bad_phi_513.30_610.95_p1_n29" x="508.295438" y="605.954195" width="10" height="10" style="fill:none;stroke:rgb(0,0,255);stroke-width:1;stroke-miterlimit:4;stroke-dasharray:none"/>
		<rect id="rect_2023_06_05_00_19_50_209343" inkscape:label="bad_phi_513.36_611.04_p1_n30" x="508.3591" y="606.037408" width="10" height="10" style="fill:none;stroke:rgb(0,0,255);stroke-width:1;stroke-miterlimit:4;stroke-dasharray:none"/>
		<rect id="rect_2023_06_05_00_19_50_209365" inkscape:label="bad_phi_513.45_611.15_p1_n31" x="508.447398" y="606.148438" width="10" height="10" style="fill:none;stroke:rgb(0,0,255);stroke-width:1;stroke-miterlimit:4;stroke-dasharray:none"/>
		<rect id="rect_2023_06_05_00_19_50_209389" inkscape:label="bad_phi_513.52_611.27_p1_n32" x="508.519894" y="606.27193" width="10" height="10" style="fill:none;stroke:rgb(0,0,255);stroke-width:1;stroke-miterlimit:4;stroke-dasharray:none"/>
		<rect id="rect_2023_06_05_00_19_50_209410" inkscape:label="bad_phi_513.56_611.36_p1_n33" x="508.563631" y="606.362061" width="10" height="10" style="fill:none;stroke:rgb(0,0,255);stroke-width:1;stroke-miterlimit:4;stroke-dasharray:none"/>
		<rect id="rect_2023_06_05_00_19_50_209432" inkscape:label="bad_phi_513.64_611.46_p1_n34" x="508.638237" y="606.463904" width="10" height="10" style="fill:none;stroke:rgb(0,0,255);stroke-width:1;stroke-miterlimit:4;stroke-dasharray:none"/>
		<rect id="rect_2023_06_05_00_19_50_209457" inkscape:label="bad_phi_513.69_611.57_p1_n35" x="508.69113000000004" y="606.571486" width="10" height="10" style="fill:none;stroke:rgb(0,0,255);stroke-width:1;stroke-miterlimit:4;stroke-dasharray:none"/>
		<rect id="rect_2023_06_05_00_19_50_209482" inkscape:label="bad_phi_513.72_611.69_p1_n36" x="508.720904" y="606.691326" width="10" height="10" style="fill:none;stroke:rgb(0,0,255);stroke-width:1;stroke-miterlimit:4;stroke-dasharray:none"/>
		<rect id="rect_2023_06_05_00_19_50_209505" inkscape:label="bad_phi_513.84_612.03_p1_n39" x="508.840158" y="607.030122" width="10" height="10" style="fill:none;stroke:rgb(0,0,255);stroke-width:1;stroke-miterlimit:4;stroke-dasharray:none"/>
		<rect id="rect_2023_06_05_00_19_50_209528" inkscape:label="bad_phi_514.10_612.65_p1_n44" x="509.103753" y="607.652108" width="10" height="10" style="fill:none;stroke:rgb(0,0,255);stroke-width:1;stroke-miterlimit:4;stroke-dasharray:none"/>
		<rect id="rect_2023_06_05_00_19_50_209549" inkscape:label="bad_phi_514.25_612.97_p1_n47" x="509.251673" y="607.966257" width="10" height="10" style="fill:none;stroke:rgb(0,0,255);stroke-width:1;stroke-miterlimit:4;stroke-dasharray:none"/>
		<rect id="rect_2023_06_05_00_19_50_209572" inkscape:label="bad_phi_514.32_613.10_p1_n48" x="509.32295" y="608.096799" width="10" height="10" style="fill:none;stroke:rgb(0,0,255);stroke-width:1;stroke-miterlimit:4;stroke-dasharray:none"/>
		<rect id="rect_2023_06_05_00_19_50_209595" inkscape:label="bad_phi_514.41_613.21_p1_n49" x="509.412917" y="608.205765" width="10" height="10" style="fill:none;stroke:rgb(0,0,255);stroke-width:1;stroke-miterlimit:4;stroke-dasharray:none"/>
		<rect id="rect_2023_06_05_00_19_50_209616" inkscape:label="bad_phi_514.76_613.83_p1_n55" x="509.764014" y="608.832456" width="10" height="10" style="fill:none;stroke:rgb(0,0,255);stroke-width:1;stroke-miterlimit:4;stroke-dasharray:none"/>
		<rect id="rect_2023_06_05_00_19_50_209660" inkscape:label="bad_phi_514.84_613.93_p1_n56" x="509.840383" y="608.932772" width="10" height="10" style="fill:none;stroke:rgb(0,0,255);stroke-width:1;stroke-miterlimit:4;stroke-dasharray:none"/>
		<rect id="rect_2023_06_05_00_19_50_209682" inkscape:label="bad_phi_514.90_614.02_p1_n57" x="509.896535" y="609.023455" width="10" height="10" style="fill:none;stroke:rgb(0,0,255);stroke-width:1;stroke-miterlimit:4;stroke-dasharray:none"/>
		<rect id="rect_2023_06_05_00_19_50_209705" inkscape:label="bad_phi_514.99_614.13_p1_n58" x="509.98561299999994" y="609.126503" width="10" height="10" style="fill:none;stroke:rgb(0,0,255);stroke-width:1;stroke-miterlimit:4;stroke-dasharray:none"/>
		<rect id="rect_2023_06_05_00_19_50_209729" inkscape:label="bad_phi_515.04_614.21_p1_n59" x="510.036392" y="609.213036" width="10" height="10" style="fill:none;stroke:rgb(0,0,255);stroke-width:1;stroke-miterlimit:4;stroke-dasharray:none"/>
		<rect id="rect_2023_06_05_00_19_50_209752" inkscape:label="bad_phi_515.30_614.47_p1_n62" x="510.2972" y="609.474995" width="10" height="10" style="fill:none;stroke:rgb(0,0,255);stroke-width:1;stroke-miterlimit:4;stroke-dasharray:none"/>
		<rect id="rect_2023_06_05_00_19_50_209773" inkscape:label="bad_phi_515.38_614.56_p1_n63" x="510.37659299999996" y="609.555619" width="10" height="10" style="fill:none;stroke:rgb(0,0,255);stroke-width:1;stroke-miterlimit:4;stroke-dasharray:none"/>
		<rect id="rect_2023_06_05_00_19_50_209796" inkscape:label="bad_phi_515.45_614.63_p1_n64" x="510.45142799999996" y="609.625589" width="10" height="10" style="fill:none;stroke:rgb(0,0,255);stroke-width:1;stroke-miterlimit:4;stroke-dasharray:none"/>
		<rect id="rect_2023_06_05_00_19_50_209818" inkscape:label="bad_phi_515.54_614.68_p1_n65" x="510.5425" y="609.681783" width="10" height="10" style="fill:none;stroke:rgb(0,0,255);stroke-width:1;stroke-miterlimit:4;stroke-dasharray:none"/>
		<rect id="rect_2023_06_05_00_19_50_209841" inkscape:label="bad_phi_515.62_614.74_p1_n66" x="510.62470900000005" y="609.744501" width="10" height="10" style="fill:none;stroke:rgb(0,0,255);stroke-width:1;stroke-miterlimit:4;stroke-dasharray:none"/>
		<rect id="rect_2023_06_05_00_19_50_209866" inkscape:label="bad_phi_515.72_614.80_p1_n67" x="510.72359900000004" y="609.802077" width="10" height="10" style="fill:none;stroke:rgb(0,0,255);stroke-width:1;stroke-miterlimit:4;stroke-dasharray:none"/>
		<rect id="rect_2023_06_05_00_19_50_209889" inkscape:label="bad_phi_515.84_614.90_p1_n68" x="510.839877" y="609.902751" width="10" height="10" style="fill:none;stroke:rgb(0,0,255);stroke-width:1;stroke-miterlimit:4;stroke-dasharray:none"/>
		<rect id="rect_2023_06_05_00_19_50_209911" inkscape:label="bad_phi_515.97_614.97_p1_n69" x="510.96706400000005" y="609.969783" width="10" height="10" style="fill:none;stroke:rgb(0,0,255);stroke-width:1;stroke-miterlimit:4;stroke-dasharray:none"/>
		<rect id="rect_2023_06_05_00_19_50_209933" inkscape:label="bad_phi_516.10_615.03_p1_n70" x="511.09782399999995" y="610.030835" width="10" height="10" style="fill:none;stroke:rgb(0,0,255);stroke-width:1;stroke-miterlimit:4;stroke-dasharray:none"/>
		<rect id="rect_2023_06_05_00_19_50_209956" inkscape:label="bad_phi_516.20_615.08_p1_n71" x="511.20291999999995" y="610.08295" width="10" height="10" style="fill:none;stroke:rgb(0,0,255);stroke-width:1;stroke-miterlimit:4;stroke-dasharray:none"/>
		<rect id="rect_2023_06_05_00_19_50_209982" inkscape:label="bad_phi_516.29_615.14_p1_n72" x="511.29400699999997" y="610.137049" width="10" height="10" style="fill:none;stroke:rgb(0,0,255);stroke-width:1;stroke-miterlimit:4;stroke-dasharray:none"/>
		<rect id="rect_2023_06_05_00_19_50_210007" inkscape:label="bad_phi_516.40_615.18_p1_n73" x="511.39813100000003" y="610.183089" width="10" height="10" style="fill:none;stroke:rgb(0,0,255);stroke-width:1;stroke-miterlimit:4;stroke-dasharray:none"/>
		<rect id="rect_2023_06_05_00_19_50_210030" inkscape:label="bad_phi_516.50_615.21_p1_n74" x="511.50403800000004" y="610.213862" width="10" height="10" style="fill:none;stroke:rgb(0,0,255);stroke-width:1;stroke-miterlimit:4;stroke-dasharray:none"/>
		<rect id="rect_2023_06_05_00_19_50_210052" inkscape:label="bad_phi_516.65_615.25_p1_n75" x="511.65222200000005" y="610.249787" width="10" height="10" style="fill:none;stroke:rgb(0,0,255);stroke-width:1;stroke-miterlimit:4;stroke-dasharray:none"/>
		<rect id="rect_2023_06_05_00_19_50_210074" inkscape:label="bad_phi_516.76_615.28_p1_n76" x="511.75906699999996" y="610.279308" width="10" height="10" style="fill:none;stroke:rgb(0,0,255);stroke-width:1;stroke-miterlimit:4;stroke-dasharray:none"/>
		<rect id="rect_2023_06_05_00_19_50_210097" inkscape:label="bad_phi_516.87_615.30_p1_n77" x="511.87435000000005" y="610.304891" width="10" height="10" style="fill:none;stroke:rgb(0,0,255);stroke-width:1;stroke-miterlimit:4;stroke-dasharray:none"/>
		<rect id="rect_2023_06_05_00_19_50_210118" inkscape:label="bad_phi_516.98_615.31_p1_n78" x="511.98224700000003" y="610.31204" width="10" height="10" style="fill:none;stroke:rgb(0,0,255);stroke-width:1;stroke-miterlimit:4;stroke-dasharray:none"/>
		<rect id="rect_2023_06_05_00_19_50_210143" inkscape:label="bad_phi_517.12_615.31_p1_n79" x="512.120037" y="610.311109" width="10" height="10" style="fill:none;stroke:rgb(0,0,255);stroke-width:1;stroke-miterlimit:4;stroke-dasharray:none"/>
		<rect id="rect_2023_06_05_00_19_50_210185" inkscape:label="bad_phi_517.24_615.31_p1_n80" x="512.242277" y="610.308512" width="10" height="10" style="fill:none;stroke:rgb(0,0,255);stroke-width:1;stroke-miterlimit:4;stroke-dasharray:none"/>
		<rect id="rect_2023_06_05_00_19_50_210207" inkscape:label="bad_phi_517.35_615.31_p1_n81" x="512.350015" y="610.308142" width="10" height="10" style="fill:none;stroke:rgb(0,0,255);stroke-width:1;stroke-miterlimit:4;stroke-dasharray:none"/>
		<rect id="rect_2023_06_05_00_19_50_210237" inkscape:label="bad_phi_517.48_615.31_p1_n82" x="512.476433" y="610.31164" width="10" height="10" style="fill:none;stroke:rgb(0,0,255);stroke-width:1;stroke-miterlimit:4;stroke-dasharray:none"/>
		<rect id="rect_2023_06_05_00_19_50_210258" inkscape:label="bad_phi_517.61_615.28_p1_n83" x="512.606125" y="610.282072" width="10" height="10" style="fill:none;stroke:rgb(0,0,255);stroke-width:1;stroke-miterlimit:4;stroke-dasharray:none"/>
		<rect id="rect_2023_06_05_00_19_50_210279" inkscape:label="bad_phi_519.57_614.89_p1_n99" x="514.567227" y="609.886004" width="10" height="10" style="fill:none;stroke:rgb(0,0,255);stroke-width:1;stroke-miterlimit:4;stroke-dasharray:none"/>
		<rect id="rect_2023_06_05_00_19_50_210302" inkscape:label="bad_phi_521.87_614.61_p1_n118" x="516.865405" y="609.611298" width="10" height="10" style="fill:none;stroke:rgb(0,0,255);stroke-width:1;stroke-miterlimit:4;stroke-dasharray:none"/>
		<rect id="rect_2023_06_05_00_19_50_210325" inkscape:label="bad_phi_523.06_614.64_p1_n127" x="518.06086" y="609.636581" width="10" height="10" style="fill:none;stroke:rgb(0,0,255);stroke-width:1;stroke-miterlimit:4;stroke-dasharray:none"/>
		<rect id="rect_2023_06_05_00_19_50_210350" inkscape:label="bad_phi_523.28_614.63_p1_n129" x="518.281283" y="609.626546" width="10" height="10" style="fill:none;stroke:rgb(0,0,255);stroke-width:1;stroke-miterlimit:4;stroke-dasharray:none"/>
		<rect id="rect_2023_06_05_00_19_50_210372" inkscape:label="bad_phi_530.69_614.68_p1_n187" x="525.688376" y="609.682096" width="10" height="10" style="fill:none;stroke:rgb(0,0,255);stroke-width:1;stroke-miterlimit:4;stroke-dasharray:none"/>
		<rect id="rect_2023_06_05_00_19_50_210393" inkscape:label="bad_phi_530.80_614.69_p1_n188" x="525.796081" y="609.689342" width="10" height="10" style="fill:none;stroke:rgb(0,0,255);stroke-width:1;stroke-miterlimit:4;stroke-dasharray:none"/>
		<rect id="rect_2023_06_05_00_19_50_210416" inkscape:label="bad_phi_532.28_614.63_p1_n200" x="527.277002" y="609.631406" width="10" height="10" style="fill:none;stroke:rgb(0,0,255);stroke-width:1;stroke-miterlimit:4;stroke-dasharray:none"/>
		<rect id="rect_2023_06_05_00_19_50_210437" inkscape:label="bad_phi_532.38_614.62_p1_n201" x="527.378172" y="609.624572" width="10" height="10" style="fill:none;stroke:rgb(0,0,255);stroke-width:1;stroke-miterlimit:4;stroke-dasharray:none"/>
		<rect id="rect_2023_06_05_00_19_50_210463" inkscape:label="bad_phi_537.06_614.39_p1_n237" x="532.0591890000001" y="609.389913" width="10" height="10" style="fill:none;stroke:rgb(0,0,255);stroke-width:1;stroke-miterlimit:4;stroke-dasharray:none"/>
		<rect id="rect_2023_06_05_00_19_50_210486" inkscape:label="bad_phi_537.21_614.38_p1_n238" x="532.2120540000001" y="609.377086" width="10" height="10" style="fill:none;stroke:rgb(0,0,255);stroke-width:1;stroke-miterlimit:4;stroke-dasharray:none"/>
		<rect id="rect_2023_06_05_00_19_50_210507" inkscape:label="bad_phi_537.34_614.38_p1_n239" x="532.340289" y="609.376136" width="10" height="10" style="fill:none;stroke:rgb(0,0,255);stroke-width:1;stroke-miterlimit:4;stroke-dasharray:none"/>
		<rect id="rect_2023_06_05_00_19_50_210528" inkscape:label="bad_phi_537.46_614.34_p1_n240" x="532.464506" y="609.335186" width="10" height="10" style="fill:none;stroke:rgb(0,0,255);stroke-width:1;stroke-miterlimit:4;stroke-dasharray:none"/>
		<rect id="rect_2023_06_05_00_19_50_210550" inkscape:label="bad_phi_537.62_614.33_p1_n241" x="532.6157900000001" y="609.330674" width="10" height="10" style="fill:none;stroke:rgb(0,0,255);stroke-width:1;stroke-miterlimit:4;stroke-dasharray:none"/>
		<rect id="rect_2023_06_05_00_19_50_210573" inkscape:label="bad_phi_537.71_614.29_p1_n242" x="532.7139380000001" y="609.288914" width="10" height="10" style="fill:none;stroke:rgb(0,0,255);stroke-width:1;stroke-miterlimit:4;stroke-dasharray:none"/>
		<rect id="rect_2023_06_05_00_19_50_210595" inkscape:label="bad_phi_537.86_614.25_p1_n243" x="532.85987" y="609.250414" width="10" height="10" style="fill:none;stroke:rgb(0,0,255);stroke-width:1;stroke-miterlimit:4;stroke-dasharray:none"/>
		<rect id="rect_2023_06_05_00_19_50_210619" inkscape:label="bad_phi_537.99_614.22_p1_n244" x="532.991702" y="609.215253" width="10" height="10" style="fill:none;stroke:rgb(0,0,255);stroke-width:1;stroke-miterlimit:4;stroke-dasharray:none"/>
	</g>
</svg>
