<?xml version="1.0" ?>
<svg id="svg_2023_06_05_01_19_23_777775" sodipodi:docname="@980_980.svg" width="70.0mm" height="70.0mm" viewBox="0 0 70.0 70.0" xmlns:dc="http://purl.org/dc/elements/1.1/" xmlns:cc="http://creativecommons.org/ns#" xmlns:rdf="http://www.w3.org/1999/02/22-rdf-syntax-ns#" xmlns:svg="http://www.w3.org/2000/svg" xmlns="http://www.w3.org/2000/svg" xmlns:xlink="http://www.w3.org/1999/xlink" xmlns:sodipodi="http://sodipodi.sourceforge.net/DTD/sodipodi-0.dtd" xmlns:inkscape="http://www.inkscape.org/namespaces/inkscape" inkscape:version="0.92.2 (unknown)">
	<metadata id="metadata_2023_06_05_01_19_23_777854">
		<rdf:RDF>
			<cc:Work rdf:about="">
				<dc:format>image/svg+xml</dc:format>
				<dc:type rdf:resource="http://purl.org/dc/dcmitype/StillImage"/>
				<dc:title/>
			</cc:Work>
		</rdf:RDF>
	</metadata>
	<defs id="defs_2023_06_05_01_19_23_777879">
		<marker id="marker_trapezium" viewBox="0 0 5 5" refX="0" refy="0" markerUnits="strokeWidth" markerWidth="5" markerHeight="5" orient="auto">
			<path d="M 0.0,-0.5 L 0.0,0.5 L -5.0,2.5 L -5.0,-2.5 z" fill="context-stroke"/>
		</marker>
	</defs>
	<sodipodi:namedview id="namedview_2023_06_05_01_19_23_777912" inkscape:document-units="mm" inkscape:current-layer="svg_2023_06_05_01_19_23_777775" inkscape:window-x="0" inkscape:window-y="0" inkscape:window-width="70.0" inkscape:window-height="70.0" inkscape:zoom="3.39" inkscape:cx="176.50795651175383" inkscape:cy="132.28346456692915" inkscape:window-maximized="1" inkscape:pageopacity="0" inkscape:pageshadow="2" pagecolor="#ffffff" bordercolor="#666666" borderopacity="1" objecttolerance="10" gridtolerance="10" guidetolerance="10" showgrid="false"/>
	<g id="layer_2023_06_05_01_19_23_777977" inkscape:label="images_m" inkscape:groupmode="layer" style="display:inline">
		<image id="image_2023_06_05_01_19_23_777977" inkscape:label="image_m994_994.png" x="14.0" y="42.0" width="14.0" height="14.0" xlink:href="file:///home/lume/carmen_lcad/data/mapper_teste2/m994_994.png" sodipodi:absref="/home/lume/carmen_lcad/data/mapper_teste2/m994_994.png" preserveAspectRatio="none"/>
		<image id="image_2023_06_05_01_19_23_778045" inkscape:label="image_m994_980.png" x="14.0" y="56.0" width="14.0" height="14.0" xlink:href="file:///home/lume/carmen_lcad/data/mapper_teste2/m994_980.png" sodipodi:absref="/home/lume/carmen_lcad/data/mapper_teste2/m994_980.png" preserveAspectRatio="none"/>
		<image id="image_2023_06_05_01_19_23_778080" inkscape:label="image_m994_1008.png" x="14.0" y="28.0" width="14.0" height="14.0" xlink:href="file:///home/lume/carmen_lcad/data/mapper_teste2/m994_1008.png" sodipodi:absref="/home/lume/carmen_lcad/data/mapper_teste2/m994_1008.png" preserveAspectRatio="none"/>
		<image id="image_2023_06_05_01_19_23_778113" inkscape:label="image_m980_994.png" x="0.0" y="42.0" width="14.0" height="14.0" xlink:href="file:///home/lume/carmen_lcad/data/mapper_teste2/m980_994.png" sodipodi:absref="/home/lume/carmen_lcad/data/mapper_teste2/m980_994.png" preserveAspectRatio="none"/>
		<image id="image_2023_06_05_01_19_23_778145" inkscape:label="image_m980_980.png" x="0.0" y="56.0" width="14.0" height="14.0" xlink:href="file:///home/lume/carmen_lcad/data/mapper_teste2/m980_980.png" sodipodi:absref="/home/lume/carmen_lcad/data/mapper_teste2/m980_980.png" preserveAspectRatio="none"/>
		<image id="image_2023_06_05_01_19_23_778177" inkscape:label="image_m980_1008.png" x="0.0" y="28.0" width="14.0" height="14.0" xlink:href="file:///home/lume/carmen_lcad/data/mapper_teste2/m980_1008.png" sodipodi:absref="/home/lume/carmen_lcad/data/mapper_teste2/m980_1008.png" preserveAspectRatio="none"/>
		<image id="image_2023_06_05_01_19_23_778209" inkscape:label="image_m1036_994.png" x="56.0" y="42.0" width="14.0" height="14.0" xlink:href="file:///home/lume/carmen_lcad/data/mapper_teste2/m1036_994.png" sodipodi:absref="/home/lume/carmen_lcad/data/mapper_teste2/m1036_994.png" preserveAspectRatio="none"/>
		<image id="image_2023_06_05_01_19_23_778241" inkscape:label="image_m1036_980.png" x="56.0" y="56.0" width="14.0" height="14.0" xlink:href="file:///home/lume/carmen_lcad/data/mapper_teste2/m1036_980.png" sodipodi:absref="/home/lume/carmen_lcad/data/mapper_teste2/m1036_980.png" preserveAspectRatio="none"/>
		<image id="image_2023_06_05_01_19_23_778272" inkscape:label="image_m1036_1008.png" x="56.0" y="28.0" width="14.0" height="14.0" xlink:href="file:///home/lume/carmen_lcad/data/mapper_teste2/m1036_1008.png" sodipodi:absref="/home/lume/carmen_lcad/data/mapper_teste2/m1036_1008.png" preserveAspectRatio="none"/>
		<image id="image_2023_06_05_01_19_23_778305" inkscape:label="image_m1022_994.png" x="42.0" y="42.0" width="14.0" height="14.0" xlink:href="file:///home/lume/carmen_lcad/data/mapper_teste2/m1022_994.png" sodipodi:absref="/home/lume/carmen_lcad/data/mapper_teste2/m1022_994.png" preserveAspectRatio="none"/>
		<image id="image_2023_06_05_01_19_23_778337" inkscape:label="image_m1022_980.png" x="42.0" y="56.0" width="14.0" height="14.0" xlink:href="file:///home/lume/carmen_lcad/data/mapper_teste2/m1022_980.png" sodipodi:absref="/home/lume/carmen_lcad/data/mapper_teste2/m1022_980.png" preserveAspectRatio="none"/>
		<image id="image_2023_06_05_01_19_23_778367" inkscape:label="image_m1022_1008.png" x="42.0" y="28.0" width="14.0" height="14.0" xlink:href="file:///home/lume/carmen_lcad/data/mapper_teste2/m1022_1008.png" sodipodi:absref="/home/lume/carmen_lcad/data/mapper_teste2/m1022_1008.png" preserveAspectRatio="none"/>
		<image id="image_2023_06_05_01_19_23_778400" inkscape:label="image_m1008_994.png" x="28.0" y="42.0" width="14.0" height="14.0" xlink:href="file:///home/lume/carmen_lcad/data/mapper_teste2/m1008_994.png" sodipodi:absref="/home/lume/carmen_lcad/data/mapper_teste2/m1008_994.png" preserveAspectRatio="none"/>
		<image id="image_2023_06_05_01_19_23_778431" inkscape:label="image_m1008_980.png" x="28.0" y="56.0" width="14.0" height="14.0" xlink:href="file:///home/lume/carmen_lcad/data/mapper_teste2/m1008_980.png" sodipodi:absref="/home/lume/carmen_lcad/data/mapper_teste2/m1008_980.png" preserveAspectRatio="none"/>
		<image id="image_2023_06_05_01_19_23_778461" inkscape:label="image_m1008_1008.png" x="28.0" y="28.0" width="14.0" height="14.0" xlink:href="file:///home/lume/carmen_lcad/data/mapper_teste2/m1008_1008.png" sodipodi:absref="/home/lume/carmen_lcad/data/mapper_teste2/m1008_1008.png" preserveAspectRatio="none"/>
	</g>
	<g id="layer_2023_06_05_01_19_23_778496" inkscape:label="paths" inkscape:groupmode="layer" style="display:inline" marker-end="url(#marker_trapezium)">
		<path id="path_2023_06_05_01_19_23_778496" inkscape:label="path1_rddf-log_ct13-20220531.txt" style="fill:none;stroke:#ff00ff;stroke-width:0.4px;stroke-linecap:butt;stroke-linejoin:miter;stroke-miterlimit:4;stroke-opacity:1;stroke-dashoffset:4;stroke-dasharray:none" sodipodi:nodetypes="caaaaaaaaaaaaaaaaaaaaaaaaaaaaaaaaaaaaaaaaaaaaaaaaaaaaaaaaaaaaaaaaaaaaaaaaaaaaaaaaaaaaaaaaaaaaaaaaaaaaaaaaaaaaaaaaaaaaaaaaaaaaaaaaaaaaaaaaaaaaaaaaaaaaaaaaaaaaaaaaaaaaaaaaaaaaaaaaaaaaaaaaaaaaaaaaaaaaaaaaaaaaaaaaaaaaaaaaaaaaaaaaaaaaaaaaaaaaaaaaaaaaaaaaaaaaaaaaaaaaaaaaaaaaaaaaaaaaaaaaaac" inkscape:connector-curvature="0" d="M 20.009000000000015,50.0 C 
20.05406045317693,49.99999801734009 20.098941214655156,49.99338769535609 20.144000000000005,49.99300000000005 
20.184687012666927,49.992649920304416 20.225323230278377,49.997977732362756 20.265999999999963,49.99699999999996 
20.29713017944539,49.99625173547179 20.328252550295815,49.99520234137617 20.359375,49.99418200000002 
20.383581251723967,49.99338840436633 20.407788386238735,49.992608420604256 20.432000000000016,49.99199999999996 
20.476066822526036,49.99089263214512 20.519933123265787,50.00110520857913 20.563999999999965,50.0 
20.607654211400927,49.99890514117328 20.65134329557702,50.00199047857711 20.69500000000005,50.000999999999976 
20.728822576922084,50.00023263704145 20.762168900372558,49.990889304246934 20.79600000000005,49.990999999999985 
20.832740637406687,49.99112021579458 20.86926964825284,49.9831224184245 20.90599999999995,49.98400000000004 
20.948946380134885,49.985026098312574 20.99109499701069,49.99685403566241 21.033999999999992,49.999000000000024 
21.078279235141167,50.00121469882049 21.122812121958646,49.994396253371974 21.16700000000003,49.99800000000005 
21.204964489322606,50.001096197564834 21.242069034892666,50.01151707380018 21.279999999999973,50.014999999999986 
21.321352466573558,50.01879709793434 21.362728964771804,50.02240151159242 21.403999999999996,50.027000000000044 
21.440809730733918,50.03110140233048 21.47837459013556,50.026490269512806 21.514999999999986,50.03200000000004 
21.56283530424821,50.03919608695605 21.61152715612843,50.04070865484732 21.658999999999992,50.049999999999955 
21.701447138809954,50.05830771837668 21.742986485368192,50.07072175277278 21.784999999999968,50.08100000000002 
21.8115683209503,50.087499712617046 21.838418078372342,50.09279357082005 21.865182000000004,50.098434 
21.888586702869134,50.10336648227394 21.911968383452745,50.10854599837319 21.934999999999945,50.11500000000001 
21.97089264271142,50.12505796418918 22.0073479674071,50.13311987975999 22.043000000000006,50.144000000000005 
22.084648138322677,50.156709983688756 22.125065110049718,50.173152579487805 22.166000000000054,50.18799999999999 
22.200276528646896,50.200432378226424 22.238233064502992,50.20124360106786 22.272000000000048,50.21500000000003 
22.30723093447955,50.22935282125309 22.3414177565744,50.246147849929 22.375999999999976,50.261999999999944 
22.408586454913006,50.27693730083388 22.443062624347704,50.287721055426005 22.475000000000023,50.303999999999974 
22.50687656356115,50.32024794776714 22.532850397723564,50.346398483328585 22.563999999999965,50.36400000000003 
22.594792010042738,50.3813994541988 22.63087377220279,50.38847166257858 22.660999999999945,50.40700000000004 
22.69728666994729,50.429317153983334 22.72781478904767,50.459983782395625 22.763000000000034,50.48400000000004 
22.79469452716478,50.50563359663488 22.829370603829034,50.522883000935394 22.860000000000014,50.54600000000005 
22.896029424104995,50.57319257535096 22.932549772879952,50.59983259684293 22.966999999999985,50.62900000000002 
22.994570371353575,50.65234254963423 23.021480207664013,50.67647041348778 23.048000000000002,50.70100000000002 
23.07517993356089,50.72614018674176 23.10277912326808,50.75086107498032 23.12900000000002,50.777000000000044 
23.160251541195294,50.80815386645577 23.19727649271772,50.8333850442732 23.226999999999975,50.865999999999985 
23.25197012856836,50.893399177022275 23.2714116434978,50.925402593478566 23.29499999999996,50.95399999999995 
23.317230435728902,50.980951127673166 23.33775236281906,51.009267465500216 23.359000000000037,51.037000000000035 
23.387716413166913,51.07448082255337 23.42068177957674,51.108798013848855 23.447000000000003,51.148000000000025 
23.47373465323085,51.18782227859106 23.496059224362966,51.23043806047053 23.519999999999982,51.27200000000005 
23.536667901509077,51.300936001285436 23.548370379796324,51.33249023748988 23.563999999999965,51.361999999999966 
23.583660445183796,51.39912022817305 23.620373637445937,51.42587185045727 23.638000000000034,51.464000000000055 
23.65470193368401,51.50012848783774 23.676249183310574,51.534031964763926 23.69100000000003,51.571000000000026 
23.70628032094669,51.60929506223749 23.707799583986798,51.65193916261683 23.721000000000004,51.69100000000003 
23.733689248180326,51.728548260539014 23.745638274359976,51.766342641780284 23.758000000000038,51.803999999999974 
23.77004732920784,51.84069961660509 23.787100735088757,51.875591086740314 23.799999999999955,51.912000000000035 
23.81386950982869,51.9511474850533 23.82468158719803,51.99139643645833 23.840000000000032,52.02999999999997 
23.855313478223138,52.068591128028174 23.892642271007844,52.09604318550032 23.90700000000004,52.13499999999999 
23.923440310210708,52.17960748044095 23.936999908667417,52.225232733069106 23.952999999999975,52.26999999999998 
23.96902052970063,52.314824452221956 23.989371932830636,52.35803721088007 24.004999999999995,52.40300000000002 
24.013757171420025,52.42819485279779 24.023473648264257,52.45305171790619 24.033322999999996,52.477840000000015 
24.04194352946206,52.499535652854775 24.050684197253645,52.52118573160328 24.05899999999997,52.543000000000006 
24.073001670615326,52.579729611093626 24.09228262257284,52.61447915009842 24.104000000000042,52.652000000000044 
24.115067365744494,52.687439412230674 24.12497358660937,52.7232533809447 24.133966999999984,52.759275 
24.14214573918491,52.7920335772468 24.149572879421612,52.82498428795634 24.156453000000056,52.85803999999996 
24.16403252976795,52.894456041052536 24.170946101175105,52.93101236160385 24.177476999999953,52.96763099999998 
24.183421274501143,53.00096044581153 24.189045053611608,53.03434699575064 24.19456100000002,53.067750000000046 
24.20007739846949,53.10115574192389 24.205482621281817,53.134579769866264 24.210990000000038,53.16798700000004 
24.216490587854082,53.20135303740392 24.222089536208387,53.2347041243313 24.227999999999952,53.26800000000003 
24.23390343446738,53.301256276830145 24.241048044308968,53.33430929948861 24.249228000000016,53.36707999999999 
24.257421716578847,53.39990582965288 24.266664479873498,53.432481757868686 24.27675499999998,53.46477500000003 
24.286864460670472,53.497128858587644 24.297835039013762,53.52922145736238 24.309477000000015,53.56105600000001 
24.321124085072938,53.592904554276856 24.33345230021166,53.6245086293643 24.34628799999996,53.65589699999998 
24.357816177006043,53.68408795947926 24.369758508398263,53.71211138323952 24.381999999999948,53.74000000000001 
24.395655648656998,53.77111035520852 24.40997587862148,53.80193778835769 24.42495699999995,53.83243200000004 
24.43996023846637,53.862971231180154 24.455633333600417,53.89319089831429 24.47197200000005,53.92303700000002 
24.48668112860946,53.94990639909588 24.501936082383168,53.97648457655043 24.517735000000016,54.00272800000005 
24.535276861554166,54.0318666101266 24.55349755023599,54.06060803797516 24.57239400000003,54.088887 
24.589377051942506,54.114302519155444 24.606913885781523,54.13935724975374 24.625,54.16399999999999 
24.646819703054575,54.193729851659896 24.669450400670144,54.22288019491987 24.69282099999998,54.25140699999997 
24.714102484362797,54.27738377310993 24.73601052331628,54.302859114421835 24.758496000000036,54.32780100000002 
24.77874432558258,54.35026133859685 24.799470431987174,54.37229974760976 24.820641000000023,54.39389300000005 
24.844151851641072,54.417873261327486 24.86822268139929,54.44131682970669 24.89281100000005,54.46419100000003 
24.91735872229117,54.48702740411193 24.942435210622307,54.50930821430768 24.96799999999996,54.53099999999995 
24.99343890321711,54.552584970980206 25.019386994155298,54.573582403855085 25.04577900000004,54.59399099999996 
25.07220352685306,54.61442474421915 25.099086624810866,54.63427755904445 25.126368999999954,54.65355099999999 
25.15366731339293,54.67283570038683 25.181377873653105,54.69154853171813 25.209446999999955,54.709693000000016 
25.237508223371037,54.72783235963368 25.265939018681706,54.745411405177265 25.294692000000055,54.76243299999999 
25.32053676146836,54.77773294587803 25.346650178312643,54.79258726478906 25.373000000000047,54.807000000000016 
25.402855142688168,54.82333006368515 25.433023148807933,54.83909963562007 25.463460000000055,54.854318000000035 
25.493920963604182,54.86954842053751 25.524661183966487,54.884231598450356 25.55564000000004,54.89837899999998 
25.583531185983475,54.911116343072536 25.611623367140396,54.92342172759072 25.63988900000004,54.93530499999997 
25.671289303844333,54.94850613249071 25.702912205474377,54.961188846682376 25.73472400000003,54.973364999999944 
25.763331090740735,54.984314533907764 25.792097180008454,54.9948567791123 25.821000000000026,55.004999999999995 
25.85253207269568,55.01606593676638 25.884216136501436,55.02670780898916 25.916033999999968,55.036923 
25.947868412440016,55.04714350408278 25.979842341354015,55.05693911789183 26.011937999999986,55.06630700000005 
26.04403907097378,55.07567646182497 26.07626764015015,55.084619538491665 26.10860600000001,55.093133999999964 
26.140937890305054,55.10164675812291 26.173385328500785,55.10973210299062 26.205930999999964,55.11738700000001 
26.23520758618406,55.12427299256683 26.264568075315765,55.13081152671418 26.293999999999983,55.136999999999944 
26.330037829015055,55.14457745694597 26.366424152784703,55.15058905876572 26.40293399999996,55.15540299999998 
26.439486915048633,55.16022261986711 26.47620547625843,55.16384511864794 26.512966000000006,55.166675000000055 
26.54646359153844,55.16925369583976 26.58001358981005,55.17116985330847 26.61357399999997,55.172731 
26.650525819952236,55.17444990662659 26.68749726054625,55.175731577850456 26.724468,55.17697899999996 
26.75798638682477,55.178109937026306 26.791490428757015,55.17963255384211 26.825000000000045,55.18100000000004 
26.86193839792793,55.182507368445954 26.898902537907475,55.18330885191813 26.93585900000005,55.18427699999995 
26.969425195828194,55.18515633330901 27.00299756467905,55.18582193462373 27.03657199999998,55.18629099999998 
27.07350616439544,55.18680700384493 27.11044428307582,55.18708512926628 27.147381999999993,55.18714699999998 
27.18096182222871,55.18720324625485 27.214542332908536,55.1870811494631 27.24812099999997,55.186796999999956 
27.281751463931414,55.18651241222142 27.315373548998537,55.18559235756936 27.349000000000046,55.184999999999945 
27.38624059416145,55.18434397632859 27.423487811268615,55.18397889729306 27.460721000000035,55.18298800000002 
27.494621803532254,55.18208578840881 27.52851935841977,55.181054967684986 27.562412999999992,55.17991500000005 
27.596307288017556,55.17877501057296 27.63019803584973,55.17752614804658 27.664085,55.17618600000003 
27.697972461272798,55.1748458322935 27.73185636189021,55.173413811457294 27.765736999999945,55.17191100000002 
27.79949781000869,55.17041350364457 27.833244953696067,55.16862223204191 27.866999999999962,55.16700000000003 
27.903994944512874,55.16522206185607 27.941023444577695,55.16420105892064 27.97804599999995,55.16314399999999 
28.011614511016433,55.1621855601079 28.04518728235746,55.16138220286689 28.078756999999996,55.16046700000004 
28.115669261840594,55.159460670181716 28.152580631807496,55.15832526756196 28.189471000000026,55.15670399999999 
28.222974848022886,55.15523156411325 28.256467505917044,55.15336265069993 28.28990799999997,55.15083100000004 
28.323336885991125,55.14830022810395 28.35672825336917,55.145109270145895 28.389999999999986,55.14099999999996 
28.423479874252394,55.13686502478265 28.455961931525508,55.126818066549504 28.489000000000033,55.120000000000005 
28.532005307740178,55.11112499417504 28.573048250347597,55.09413068584627 28.615999999999985,55.085000000000036 
28.65744012935238,55.07619065449944 28.69964964728149,55.071221562717255 28.740999999999985,55.06200000000001 
28.77915519602948,55.053490990764544 28.81790378368919,55.047769294442446 28.855999999999995,55.03899999999999 
28.89028237812647,55.03110860560196 28.92472655310462,55.02393009416528 28.958999999999946,55.01599999999996 
29.007404652919035,55.00480026695709 29.056672404754863,54.99752770498708 29.105000000000018,54.98599999999999 
29.142219499178623,54.977121937598554 29.176603990595027,54.958102443563234 29.214000000000055,54.950000000000045 
29.248136434475555,54.94260379548018 29.281743579908834,54.93281892092193 29.31600000000003,54.926000000000045 
29.358132045864977,54.91761339426989 29.40171881163633,54.91859904961166 29.44399999999996,54.910999999999945 
29.48517853229191,54.903599126894505 29.525534366568763,54.8915718658086 29.567000000000007,54.88599999999997 
29.60807689693206,54.88048036992075 29.647805160019175,54.866556636558926 29.688999999999965,54.861999999999966 
29.72952998434573,54.85751690433824 29.770470975964827,54.85749176897559 29.811000000000035,54.85299999999995 
29.837995757717863,54.85000810197437 29.864527184249027,54.843582346733 29.890979000000016,54.83741599999996 
29.91412333971607,54.83202067950708 29.937390997152875,54.82671752252497 29.961000000000013,54.823999999999955 
30.002745520445842,54.81919486727736 30.04522225943242,54.824516433421195 30.08699999999999,54.82000000000005 
30.126841407429538,54.81569289622621 30.16516235917004,54.801341804001595 30.20500000000004,54.797000000000025 
30.241601132698975,54.79301093485708 30.27841141745671,54.79110258248238 30.315000000000055,54.787000000000035 
30.357778409562002,54.782203368332716 30.40120735105461,54.78566788991259 30.44399999999996,54.78099999999995 
30.470589961700625,54.778099524870186 30.49677624196795,54.77212959381393 30.522907000000032,54.766418000000044 
30.54576730541885,54.76142125329818 30.56873733498503,54.75653169070927 30.591999999999985,54.75400000000002 
30.6325378118172,54.74958824401733 30.673458553523574,54.74937822970742 30.714000000000055,54.745000000000005 
30.757736855429698,54.74027668555527 30.80126504213581,54.73374085254352 30.845000000000027,54.72900000000004 
30.88448574419874,54.72471976057693 30.924516727769287,54.72730298250042 30.964000000000055,54.722999999999956 
30.997929569803432,54.719302273422045 31.030059008167655,54.704591373320795 31.063999999999965,54.70100000000002 
31.099898227188078,54.69720152716741 31.136087634456885,54.69666239159653 31.172000000000025,54.692999999999984 
31.20865940453757,54.68926142435669 31.2453363794898,54.68569700148362 31.28200000000004,54.682000000000016 
31.315732398675436,54.678598570293616 31.34926484373659,54.67337397041001 31.383000000000038,54.66999999999996 
31.427332169897454,54.66556618536811 31.470666979627367,54.653425302773485 31.514999999999986,54.649 
31.559027980170754,54.64460514620646 31.602963606837193,54.639309739550185 31.647000000000048,54.63499999999999 
31.680639349437,54.6317077949783 31.714329908039872,54.628961309142255 31.748000000000047,54.625999999999976 
31.78716800957409,54.62255514499418 31.825693376741583,54.611994669803494 31.86500000000001,54.61099999999999 
31.908698454995147,54.609894193139894 31.95228762756335,54.60492079309449 31.99599999999998,54.60500000000002 
32.02630116679495,54.605054905774296 32.056478947296114,54.60929921569311 32.086545,54.613067 
32.10993021317654,54.6159975622553 32.1334335909911,54.61871582246738 32.15700000000004,54.61900000000003 
32.185109964164894,54.619338966376176 32.21321011299926,54.61733944027151 32.241265999999996,54.61556399999995 
32.265809760017305,54.61401081510337 32.29041072452003,54.612580392469454 32.315000000000055,54.613000000000056 
32.352714235799795,54.61364358046535 32.390290441545744,54.61812422665059 32.428,54.61900000000003 
32.46896184561899,54.6199513050326 32.50904317529307,54.63285270417464 32.549999999999955,54.634000000000015 
32.59965725379914,54.63539101506012 32.64935774284186,54.635149572474575 32.698999999999955,54.636999999999944 
32.74035297328817,54.6385414424002 32.781653530116046,54.62929299309326 32.82299999999998,54.63099999999997 
32.868832757999144,54.6328922252535 32.91413867676113,54.643019564894075 32.960000000000036,54.644000000000005 
32.993764397311,54.6447218239274 33.02723163419057,54.636503017009204 33.061000000000035,54.63599999999997 
33.096701625476385,54.6354681849582 33.13231855910408,54.632312884031535 33.168000000000006,54.63099999999997 
33.20567802537357,54.629613652458715 33.24338702437342,54.628611440228724 33.28099999999995,54.625999999999976 
33.32258787954186,54.62311258522209 33.36438213884651,54.62441713092369 33.40599999999995,54.62199999999996 
33.445317890432875,54.61971644947175 33.48469169259113,54.61844296536276 33.524,54.615999999999985 
33.56511533285561,54.61344473011775 33.60587053127006,54.60631663592085 33.64700000000005,54.60400000000004 
33.69283184572885,54.6014185005688 33.7381568829054,54.59237293853107 33.78399999999999,54.59000000000003 
33.81198029738118,54.588551679511056 33.83999300886194,54.58778460876215 33.86800000000005,54.58700799999997 
33.896007181419805,54.58623138596147 33.924020075117596,54.585459158668755 33.952,54.583999999999946 
33.9863012813978,54.582211181326784 34.02069514250752,54.58871887469036 34.05499999999995,54.58699999999999 
34.10436253947137,54.58452664707124 34.1536301626719,54.58032313150147 34.202999999999975,54.577999999999975 
34.24297798015573,54.5761188087688 34.283023447715095,54.57591129411401 34.32299999999998,54.573999999999955 
34.36873591707456,54.57181334847269 34.414261276798925,54.56612714726532 34.460000000000036,54.563999999999965 
34.493969819295785,54.56242018309297 34.52802656943743,54.56750015341015 34.56200000000001,54.56600000000003 
34.600503944534125,54.56429979419988 34.63848693508044,54.555479281902535 34.67700000000002,54.553999999999974 
34.71633961969735,54.55248897023398 34.75565943616084,54.550486245507386 34.79499999999996,54.54899999999998 
34.84042331350997,54.54728395454856 34.88556899225682,54.5404985852183 34.93100000000004,54.53899999999999 
34.9704528656124,54.53769860951445 35.00954388292803,54.55019876929566 35.04899999999998,54.54899999999998 
35.08524314063459,54.54789884845752 35.120755404785655,54.53705218606933 35.15700000000004,54.535999999999945 
35.19106561993749,54.53501106991166 35.22492969983898,54.5298118444332 35.259000000000015,54.528999999999996 
35.29299688501078,54.52818990494029 35.32700303011666,54.52780652538229 35.36099999999999,54.527000000000044 
35.39866933996518,54.52610635333326 35.436330331964086,54.52487970895015 35.474000000000046,54.524 
35.5100287363673,54.52315861212753 35.54596826814645,54.52970148229758 35.581999999999994,54.528999999999996 
35.621062336198634,54.528239516505664 35.65993361001949,54.52251148640096 35.698999999999955,54.52200000000005 
35.7473303405277,54.52136722302873 35.795668197933765,54.52350904936134 35.84400000000005,54.523000000000025 
35.88635197649069,54.522553932490496 35.92864670388815,54.519295291965136 35.971000000000004,54.519000000000005 
36.010354969197124,54.51872561270886 36.04964421997738,54.515107087341676 36.089000000000055,54.514999999999986 
36.12966788221422,54.51488934241934 36.17033200692015,54.514056813223306 36.21100000000001,54.51400000000001 
36.25266795931884,54.51394178982298 36.294332105681065,54.514906163743376 36.33600000000001,54.514999999999986 
36.36677028240604,54.51506929479308 36.397517947526694,54.51684513199916 36.428247000000056,54.518438999999944 
36.45214776736441,54.51967869550731 36.476067699129885,54.52083117874952 36.5,54.52099999999996 
36.53766720440501,54.52126570886696 36.57533301165199,54.51970524980027 36.613000000000056,54.51999999999998 
36.639668051737544,54.520208681764075 36.66633809186817,54.51958125062538 36.692999999999984,54.51897199999996 
36.71966167487767,54.51836275470464 36.74633250231818,54.51775371865756 36.773000000000025,54.51800000000003 
36.81136791194467,54.51835433774011 36.84963360146753,54.51250838443207 36.888000000000034,54.513000000000034 
36.931816743271156,54.51356145465718 36.97518556405123,54.52328067760277 37.019000000000005,54.524 
37.06345247969705,54.524729797464374 37.10755041338825,54.53311128992277 37.152000000000044,54.53399999999999 
37.17901762668896,54.53454018133641 37.20604741609293,54.53416619693985 37.233069,54.53388700000005 
37.256711434696285,54.533642717672365 37.28036261239822,54.53345383190447 37.303999999999974,54.53399999999999 
37.34840161016439,54.53502594852159 37.39259985771014,54.540912378651456 37.43700000000001,54.54200000000003 
37.474988604197165,54.54293056496658 37.51301096719726,54.541087099834385 37.551000000000045,54.54200000000003 
37.59007977969122,54.54293911149409 37.62892169390125,54.53300144927016 37.668000000000006,54.53399999999999 
37.703346943901465,54.5349032048764 37.73866064121546,54.536837269197235 37.774,54.53800000000001 
37.81168313069884,54.53923984526932 37.84932299245793,54.541586260903046 37.886999999999944,54.543000000000006 
37.921309189100725,54.54428736980935 37.95569159080469,54.541692010601764 37.99000000000001,54.543000000000006 
38.0199801363118,54.54414297635401 38.05000523396757,54.54372617435911 38.08000500000003,54.54336699999999 
38.11000192554218,54.54300785964881 38.14003000920218,54.542679327688234 38.16999999999996,54.54399999999998 
38.2124506327707,54.54587065040141 38.2545314458315,54.55359377726222 38.297000000000025,54.55499999999995 
38.34209857139638,54.55649330811411 38.38688603211892,54.56408293231743 38.432000000000016,54.565000000000055 
38.472330510784445,54.56581983052706 38.512669433560404,54.56218291194966 38.553,54.56299999999999 
38.590474157457265,54.56375921785775 38.62753119763158,54.572011193666526 38.664999999999964,54.57299999999998 
38.710985197566515,54.5742135550571 38.7570196350282,54.57261538879925 38.803,54.573999999999955 
38.84292213655908,54.57520217917954 38.88208144520138,54.58668424736038 38.922000000000025,54.587999999999965 
38.96731362683181,54.58949357922438 39.012687671338085,54.58846754223839 39.05799999999999,54.59000000000003 
39.09632446339049,54.59129612895913 39.13467966240148,54.58558714091873 39.173,54.58699999999999 
39.21063077230224,54.588387435020536 39.24636659243265,54.60668598521022 39.28399999999999,54.60799999999995 
39.311335411362506,54.608954448112286 39.33867347905675,54.609831695466255 39.36600899999996,54.61078299999997 
39.3933438145292,54.611734279949815 39.4206769175463,54.61275654347901 39.44799999999998,54.61400000000003 
39.48996846503519,54.61590995879101 39.532036701275956,54.614979712842 39.573999999999955,54.61699999999996 
39.601968953070354,54.61834654134509 39.63001117008025,54.617603639216895 39.658004000000005,54.616912999999954 
39.68599416406573,54.61622242655494 39.71403953015829,54.61553770647947 39.74199999999996,54.61699999999996 
39.785612153398006,54.619280854709814 39.82939914525457,54.61251249368058 39.87300000000005,54.61500000000001 
39.915276395769865,54.617411943578986 39.95773456624124,54.61540303633183 40.0,54.61800000000005 
40.027930850101825,54.61971618735424 40.05559700590595,54.62462047219253 40.08318699999995,54.62929699999995 
40.10732821462125,54.63338895671063 40.13156737256497,54.63739094135212 40.15599999999995,54.63900000000001 
40.20309731754355,54.64210168631212 40.24993979087537,54.64837860594184 40.297000000000025,54.652000000000044 
40.33834528831812,54.655181617426706 40.3796652901716,54.658683779417515 40.42100000000005,54.662000000000035 
40.47062230238623,54.66598112146448 40.51934262963994,54.67848321295071 40.56899999999996,54.682000000000016 
40.60856756282942,54.68480221629784 40.64836038531166,54.68053528439441 40.68799999999999,54.682000000000016 
40.724050935143055,54.683332111013556 40.7599251338097,54.688779832358136 40.79600000000005,54.688999999999965 
40.84103001499966,54.689274821593585 40.88597653631905,54.69481577934664 40.93100000000004,54.69399999999996 
40.97437234369443,54.693214137267205 41.01762066397748,54.68810480467971 41.061000000000035,54.68799999999999 
41.097408073530914,54.687912037923184 41.1335923704828,54.68120017116405 41.16999999999996,54.68100000000004 
41.209608603421316,54.680782229704164 41.248393014761746,54.66741905753986 41.28800000000001,54.66700000000003 
41.33099888528784,54.666545054818585 41.3740128441915,54.66910251829961 41.41700000000003,54.668000000000006 
41.46368106819648,54.66680274163389 41.51032200518512,54.66431162327558 41.557000000000016,54.66300000000001 
41.599328435252346,54.66181059670373 41.64165779334519,54.660498644875474 41.68399999999997,54.65999999999997 
41.722998720261444,54.65954072984039 41.76200499224524,54.65970744703975 41.801000000000045,54.65899999999999 
41.841440842196334,54.65826632264623 41.88055322178661,54.641241106100665 41.92100000000005,54.64099999999996 
41.964747238569885,54.64073921962199 42.00825387644818,54.633406894428504 42.05200000000002,54.63300000000004 
42.08667157658169,54.632677510366875 42.12133374548739,54.631687764706385 42.15599999999995,54.63099999999997 
42.196325397877786,54.63019996013918 42.23673784650805,54.63339515635573 42.277000000000044,54.63099999999997 
42.310687870780725,54.62899594132921 42.344378994698786,54.62691837136492 42.37800000000004,54.624000000000024 
42.42494154422036,54.619925378874086 42.472071650398675,54.618223874383034 42.519000000000005,54.61400000000003 
42.56097556740406,54.61022191009545 42.601986147834054,54.59832542454501 42.644000000000005,54.59500000000003 
42.68688653820891,54.59160550177012 42.730144872871506,54.594770392098894 42.773000000000025,54.59100000000001 
42.82184645191296,54.58670249142415 42.87011728167147,54.57686319728418 42.91899999999998,54.57299999999998 
42.964398417826146,54.56941216670327 43.009596230381476,54.563519459236545 43.05499999999995,54.559999999999945 
43.08168672494173,54.55793138672436 43.1083396327208,54.55544364018124 43.134995,54.55300399999999 
43.15831818123638,54.55086933910775 43.181645820136055,54.54876347469292 43.20500000000004,54.547000000000025 
43.24628161942189,54.54388282390755 43.28770163816512,54.5428869012178 43.32899999999995,54.539999999999964 
43.37211258815296,54.53698627796075 43.41488281594525,54.52994723887173 43.45799999999997,54.527000000000044 
43.50031849273239,54.52410735500234 43.542682685169325,54.52190982606692 43.585000000000036,54.519000000000005 
43.627032814437825,54.516109736768385 43.668959507304976,54.511776343830775 43.71100000000001,54.509000000000015 
43.74460007723701,54.50678105913687 43.77839979633791,54.51321702565508 43.81200000000001,54.51099999999997 
43.840079929015815,54.50914721590232 43.867917281654854,54.504466316983894 43.895711000000006,54.500058999999965 
43.92002281930047,54.49620381614932 43.944429255112254,54.492485091202866 43.96900000000005,54.490999999999985 
44.007264952155765,54.48868721119027 44.04572960069686,54.4942208315407 44.08400000000006,54.49199999999996 
44.13351285006115,54.489126768962706 44.18146984955865,54.47155772849203 44.230999999999995,54.46900000000005 
44.27364238756695,54.466797954404 44.31635196644629,54.46608984598231 44.358999999999924,54.464000000000055 
44.39385485101957,54.46229203683515 44.428146164473446,54.45372856208246 44.462999999999965,54.452 
44.50513825590292,54.44991016999211 44.546860297721196,54.46606045913836 44.58899999999994,54.464000000000055 
44.62375630573524,54.462300558763104 44.65723472994523,54.44850495412129 44.69200000000001,54.447 
44.719203048623285,54.44582240695752 44.746399261324996,54.444491446113375 44.77359700000011,54.443197000000055 
44.79739490714746,54.4420643650858 44.8211943668407,54.44095659621985 44.84500000000003,54.440000000000055 
44.88873430364902,54.438242597906765 44.93225842785773,54.432566092047864 44.97600000000011,54.43100000000004 
45.0216811718999,54.42936446390593 45.06731132995037,54.42641062877385 45.113000000000056,54.424999999999955 
45.148355772174455,54.423908397432 45.18364487579993,54.421112391572024 45.21900000000005,54.41999999999996 
45.26299842478261,54.418615661010335 45.30700152679265,54.42538279904386 45.35100000000011,54.42399999999998 
45.37849895547288,54.42313575343496 45.405838698985235,54.419262802143635 45.43311799999992,54.415688000000046 
45.4569781542325,54.41256125820962 45.480943011519685,54.40958717925082 45.50500000000011,54.40899999999999 
45.53924699745107,54.40816410458763 45.57175017753252,54.428710785831754 45.605999999999995,54.428 
45.64802400717076,54.42712787667972 45.68997446244089,54.42379496581657 45.73199999999997,54.423 
45.776314126066836,54.42216174265798 45.81968299712935,54.407669104627075 45.86400000000003,54.40700000000004 
45.90902572201503,54.40632019502709 45.95397326070338,54.402608708540015 45.999000000000024,54.402000000000044 
46.032689980536134,54.401544551100415 46.06631063552345,54.40649894227272 46.09999999999991,54.40599999999995 
46.14642526291027,54.40531243801854 46.19257227360595,54.39749396321827 46.23900000000003,54.39700000000005 
46.26993606988481,54.39667085873418 46.30087676776452,54.39712079951232 46.3318119999999,54.39752099999998 
46.355873183050335,54.39783227282692 46.379937116795645,54.398122769895394 46.403999999999996,54.398000000000025 
46.447793138342604,54.397776565469485 46.49120645475,54.40811951288174 46.53500000000008,54.408000000000015 
46.575470689280564,54.40788955521475 46.61552955445018,54.39782132182199 46.65599999999995,54.398000000000025 
46.69137227492365,54.398156169608455 46.72662791300877,54.392805876037755 46.761999999999944,54.39300000000003 
46.80935139587518,54.393259867069446 46.85665169468825,54.3896001719105 46.903999999999996,54.38900000000001 
46.9315683488137,54.38865055246504 46.959138183125106,54.38959749227956 46.98670500000003,54.39005199999997 
47.01080260946583,54.39044930918487 47.0349458475705,54.390500129147085 47.05899999999997,54.38900000000001 
47.08623222672804,54.38730167131541 47.1134549011183,54.385429792634 47.140656000000035,54.38328999999999 
47.164456052880496,54.38141775292411 47.18824154914773,54.37934175987721 47.21199999999999,54.37699999999995 
47.25446220442427,54.372814698220964 47.297713363735056,54.38169174392931 47.33999999999992,54.375999999999976 
47.38314507636164,54.370192710791 47.42109451748752,54.34237168858522 47.46399999999994,54.335000000000036 
47.490697078912945,54.3304131141208 47.51818438778446,54.33234366989859 47.545249999999896,54.33345099999997 
47.568841635528315,54.334416199972225 47.59290325151187,54.33490276321811 47.615999999999985,54.33000000000004 
47.65076565395793,54.32262026992407 47.67945402769669,54.29634786851466 47.71399999999994,54.28800000000001 
47.74007354422929,54.28169945309321 47.766132933440076,54.275332197824014 47.79210200000011,54.26861399999996 
47.814821796861224,54.262736388285134 47.83747762975895,54.25659380979516 47.8599999999999,54.25 
47.903686684056765,54.237209974697635 47.94892657766695,54.22972383780234 47.99199999999996,54.21500000000003 
48.01775501989209,54.206196131745514 48.04326775694449,54.19669509830328 48.06879200000003,54.18724299999997 
48.0911254118414,54.1789725253883 48.113471688185655,54.17072380745333 48.13599999999997,54.16300000000001 
48.17493611377972,54.149650795306115 48.209133923048284,54.12455176315507 48.24800000000005,54.11099999999999 
48.28344246272877,54.09864197731781 48.318671283693675,54.08567953836041 48.35400000000004,54.07299999999998 "/>
	</g>
	<g id="layer_2023_06_05_01_19_23_779521" inkscape:label="bad_phis" inkscape:groupmode="layer" style="display:inline">
		<rect id="rect_2023_06_05_01_19_23_779521" inkscape:label="bad_phi_20.80_49.99_p1_n7" x="15.79600000000005" y="44.990999999999985" width="10" height="10" style="fill:none;stroke:rgb(0,0,255);stroke-width:1;stroke-miterlimit:4;stroke-dasharray:none"/>
		<rect id="rect_2023_06_05_01_19_23_779562" inkscape:label="bad_phi_21.17_50.00_p1_n10" x="16.16700000000003" y="44.99800000000005" width="10" height="10" style="fill:none;stroke:rgb(0,0,255);stroke-width:1;stroke-miterlimit:4;stroke-dasharray:none"/>
		<rect id="rect_2023_06_05_01_19_23_779610" inkscape:label="bad_phi_21.51_50.03_p1_n13" x="16.514999999999986" y="45.03200000000004" width="10" height="10" style="fill:none;stroke:rgb(0,0,255);stroke-width:1;stroke-miterlimit:4;stroke-dasharray:none"/>
		<rect id="rect_2023_06_05_01_19_23_779635" inkscape:label="bad_phi_21.66_50.05_p1_n14" x="16.658999999999992" y="45.049999999999955" width="10" height="10" style="fill:none;stroke:rgb(0,0,255);stroke-width:1;stroke-miterlimit:4;stroke-dasharray:none"/>
		<rect id="rect_2023_06_05_01_19_23_779661" inkscape:label="bad_phi_21.78_50.08_p1_n15" x="16.784999999999968" y="45.08100000000002" width="10" height="10" style="fill:none;stroke:rgb(0,0,255);stroke-width:1;stroke-miterlimit:4;stroke-dasharray:none"/>
		<rect id="rect_2023_06_05_01_19_23_779682" inkscape:label="bad_phi_21.87_50.10_p1_n16" x="16.865182000000004" y="45.098434" width="10" height="10" style="fill:none;stroke:rgb(0,0,255);stroke-width:1;stroke-miterlimit:4;stroke-dasharray:none"/>
		<rect id="rect_2023_06_05_01_19_23_779706" inkscape:label="bad_phi_21.93_50.12_p1_n17" x="16.934999999999945" y="45.11500000000001" width="10" height="10" style="fill:none;stroke:rgb(0,0,255);stroke-width:1;stroke-miterlimit:4;stroke-dasharray:none"/>
		<rect id="rect_2023_06_05_01_19_23_779729" inkscape:label="bad_phi_22.17_50.19_p1_n19" x="17.166000000000054" y="45.18799999999999" width="10" height="10" style="fill:none;stroke:rgb(0,0,255);stroke-width:1;stroke-miterlimit:4;stroke-dasharray:none"/>
		<rect id="rect_2023_06_05_01_19_23_779752" inkscape:label="bad_phi_22.27_50.22_p1_n20" x="17.272000000000048" y="45.21500000000003" width="10" height="10" style="fill:none;stroke:rgb(0,0,255);stroke-width:1;stroke-miterlimit:4;stroke-dasharray:none"/>
		<rect id="rect_2023_06_05_01_19_23_779774" inkscape:label="bad_phi_22.38_50.26_p1_n21" x="17.375999999999976" y="45.261999999999944" width="10" height="10" style="fill:none;stroke:rgb(0,0,255);stroke-width:1;stroke-miterlimit:4;stroke-dasharray:none"/>
		<rect id="rect_2023_06_05_01_19_23_779799" inkscape:label="bad_phi_22.48_50.30_p1_n22" x="17.475000000000023" y="45.303999999999974" width="10" height="10" style="fill:none;stroke:rgb(0,0,255);stroke-width:1;stroke-miterlimit:4;stroke-dasharray:none"/>
		<rect id="rect_2023_06_05_01_19_23_779822" inkscape:label="bad_phi_22.56_50.36_p1_n23" x="17.563999999999965" y="45.36400000000003" width="10" height="10" style="fill:none;stroke:rgb(0,0,255);stroke-width:1;stroke-miterlimit:4;stroke-dasharray:none"/>
		<rect id="rect_2023_06_05_01_19_23_779844" inkscape:label="bad_phi_22.66_50.41_p1_n24" x="17.660999999999945" y="45.40700000000004" width="10" height="10" style="fill:none;stroke:rgb(0,0,255);stroke-width:1;stroke-miterlimit:4;stroke-dasharray:none"/>
		<rect id="rect_2023_06_05_01_19_23_779867" inkscape:label="bad_phi_22.76_50.48_p1_n25" x="17.763000000000034" y="45.48400000000004" width="10" height="10" style="fill:none;stroke:rgb(0,0,255);stroke-width:1;stroke-miterlimit:4;stroke-dasharray:none"/>
		<rect id="rect_2023_06_05_01_19_23_779890" inkscape:label="bad_phi_22.86_50.55_p1_n26" x="17.860000000000014" y="45.54600000000005" width="10" height="10" style="fill:none;stroke:rgb(0,0,255);stroke-width:1;stroke-miterlimit:4;stroke-dasharray:none"/>
		<rect id="rect_2023_06_05_01_19_23_779913" inkscape:label="bad_phi_22.97_50.63_p1_n27" x="17.966999999999985" y="45.62900000000002" width="10" height="10" style="fill:none;stroke:rgb(0,0,255);stroke-width:1;stroke-miterlimit:4;stroke-dasharray:none"/>
		<rect id="rect_2023_06_05_01_19_23_779936" inkscape:label="bad_phi_23.05_50.70_p1_n28" x="18.048000000000002" y="45.70100000000002" width="10" height="10" style="fill:none;stroke:rgb(0,0,255);stroke-width:1;stroke-miterlimit:4;stroke-dasharray:none"/>
		<rect id="rect_2023_06_05_01_19_23_779958" inkscape:label="bad_phi_23.13_50.78_p1_n29" x="18.12900000000002" y="45.777000000000044" width="10" height="10" style="fill:none;stroke:rgb(0,0,255);stroke-width:1;stroke-miterlimit:4;stroke-dasharray:none"/>
		<rect id="rect_2023_06_05_01_19_23_779980" inkscape:label="bad_phi_23.23_50.87_p1_n30" x="18.226999999999975" y="45.865999999999985" width="10" height="10" style="fill:none;stroke:rgb(0,0,255);stroke-width:1;stroke-miterlimit:4;stroke-dasharray:none"/>
		<rect id="rect_2023_06_05_01_19_23_780003" inkscape:label="bad_phi_23.29_50.95_p1_n31" x="18.29499999999996" y="45.95399999999995" width="10" height="10" style="fill:none;stroke:rgb(0,0,255);stroke-width:1;stroke-miterlimit:4;stroke-dasharray:none"/>
		<rect id="rect_2023_06_05_01_19_23_780026" inkscape:label="bad_phi_23.36_51.04_p1_n32" x="18.359000000000037" y="46.037000000000035" width="10" height="10" style="fill:none;stroke:rgb(0,0,255);stroke-width:1;stroke-miterlimit:4;stroke-dasharray:none"/>
		<rect id="rect_2023_06_05_01_19_23_780048" inkscape:label="bad_phi_23.45_51.15_p1_n33" x="18.447000000000003" y="46.148000000000025" width="10" height="10" style="fill:none;stroke:rgb(0,0,255);stroke-width:1;stroke-miterlimit:4;stroke-dasharray:none"/>
		<rect id="rect_2023_06_05_01_19_23_780069" inkscape:label="bad_phi_23.52_51.27_p1_n34" x="18.519999999999982" y="46.27200000000005" width="10" height="10" style="fill:none;stroke:rgb(0,0,255);stroke-width:1;stroke-miterlimit:4;stroke-dasharray:none"/>
		<rect id="rect_2023_06_05_01_19_23_780091" inkscape:label="bad_phi_23.56_51.36_p1_n35" x="18.563999999999965" y="46.361999999999966" width="10" height="10" style="fill:none;stroke:rgb(0,0,255);stroke-width:1;stroke-miterlimit:4;stroke-dasharray:none"/>
		<rect id="rect_2023_06_05_01_19_23_780136" inkscape:label="bad_phi_23.64_51.46_p1_n36" x="18.638000000000034" y="46.464000000000055" width="10" height="10" style="fill:none;stroke:rgb(0,0,255);stroke-width:1;stroke-miterlimit:4;stroke-dasharray:none"/>
		<rect id="rect_2023_06_05_01_19_23_780158" inkscape:label="bad_phi_23.69_51.57_p1_n37" x="18.69100000000003" y="46.571000000000026" width="10" height="10" style="fill:none;stroke:rgb(0,0,255);stroke-width:1;stroke-miterlimit:4;stroke-dasharray:none"/>
		<rect id="rect_2023_06_05_01_19_23_780187" inkscape:label="bad_phi_23.72_51.69_p1_n38" x="18.721000000000004" y="46.69100000000003" width="10" height="10" style="fill:none;stroke:rgb(0,0,255);stroke-width:1;stroke-miterlimit:4;stroke-dasharray:none"/>
		<rect id="rect_2023_06_05_01_19_23_780209" inkscape:label="bad_phi_23.84_52.03_p1_n41" x="18.840000000000032" y="47.02999999999997" width="10" height="10" style="fill:none;stroke:rgb(0,0,255);stroke-width:1;stroke-miterlimit:4;stroke-dasharray:none"/>
		<rect id="rect_2023_06_05_01_19_23_780232" inkscape:label="bad_phi_24.03_52.48_p1_n45" x="19.033322999999996" y="47.477840000000015" width="10" height="10" style="fill:none;stroke:rgb(0,0,255);stroke-width:1;stroke-miterlimit:4;stroke-dasharray:none"/>
		<rect id="rect_2023_06_05_01_19_23_780257" inkscape:label="bad_phi_24.10_52.65_p1_n47" x="19.104000000000042" y="47.652000000000044" width="10" height="10" style="fill:none;stroke:rgb(0,0,255);stroke-width:1;stroke-miterlimit:4;stroke-dasharray:none"/>
		<rect id="rect_2023_06_05_01_19_23_780279" inkscape:label="bad_phi_24.13_52.76_p1_n48" x="19.133966999999984" y="47.759275" width="10" height="10" style="fill:none;stroke:rgb(0,0,255);stroke-width:1;stroke-miterlimit:4;stroke-dasharray:none"/>
		<rect id="rect_2023_06_05_01_19_23_780302" inkscape:label="bad_phi_24.16_52.86_p1_n49" x="19.156453000000056" y="47.85803999999996" width="10" height="10" style="fill:none;stroke:rgb(0,0,255);stroke-width:1;stroke-miterlimit:4;stroke-dasharray:none"/>
		<rect id="rect_2023_06_05_01_19_23_780324" inkscape:label="bad_phi_24.18_52.97_p1_n50" x="19.177476999999953" y="47.96763099999998" width="10" height="10" style="fill:none;stroke:rgb(0,0,255);stroke-width:1;stroke-miterlimit:4;stroke-dasharray:none"/>
		<rect id="rect_2023_06_05_01_19_23_780349" inkscape:label="bad_phi_24.25_53.37_p1_n54" x="19.249228000000016" y="48.36707999999999" width="10" height="10" style="fill:none;stroke:rgb(0,0,255);stroke-width:1;stroke-miterlimit:4;stroke-dasharray:none"/>
		<rect id="rect_2023_06_05_01_19_23_780372" inkscape:label="bad_phi_24.28_53.46_p1_n55" x="19.27675499999998" y="48.46477500000003" width="10" height="10" style="fill:none;stroke:rgb(0,0,255);stroke-width:1;stroke-miterlimit:4;stroke-dasharray:none"/>
		<rect id="rect_2023_06_05_01_19_23_780394" inkscape:label="bad_phi_24.31_53.56_p1_n56" x="19.309477000000015" y="48.56105600000001" width="10" height="10" style="fill:none;stroke:rgb(0,0,255);stroke-width:1;stroke-miterlimit:4;stroke-dasharray:none"/>
		<rect id="rect_2023_06_05_01_19_23_780416" inkscape:label="bad_phi_24.35_53.66_p1_n57" x="19.34628799999996" y="48.65589699999998" width="10" height="10" style="fill:none;stroke:rgb(0,0,255);stroke-width:1;stroke-miterlimit:4;stroke-dasharray:none"/>
		<rect id="rect_2023_06_05_01_19_23_780437" inkscape:label="bad_phi_24.38_53.74_p1_n58" x="19.381999999999948" y="48.74000000000001" width="10" height="10" style="fill:none;stroke:rgb(0,0,255);stroke-width:1;stroke-miterlimit:4;stroke-dasharray:none"/>
		<rect id="rect_2023_06_05_01_19_23_780460" inkscape:label="bad_phi_24.42_53.83_p1_n59" x="19.42495699999995" y="48.83243200000004" width="10" height="10" style="fill:none;stroke:rgb(0,0,255);stroke-width:1;stroke-miterlimit:4;stroke-dasharray:none"/>
		<rect id="rect_2023_06_05_01_19_23_780483" inkscape:label="bad_phi_24.47_53.92_p1_n60" x="19.47197200000005" y="48.92303700000002" width="10" height="10" style="fill:none;stroke:rgb(0,0,255);stroke-width:1;stroke-miterlimit:4;stroke-dasharray:none"/>
		<rect id="rect_2023_06_05_01_19_23_780505" inkscape:label="bad_phi_24.52_54.00_p1_n61" x="19.517735000000016" y="49.00272800000005" width="10" height="10" style="fill:none;stroke:rgb(0,0,255);stroke-width:1;stroke-miterlimit:4;stroke-dasharray:none"/>
		<rect id="rect_2023_06_05_01_19_23_780528" inkscape:label="bad_phi_24.57_54.09_p1_n62" x="19.57239400000003" y="49.088887" width="10" height="10" style="fill:none;stroke:rgb(0,0,255);stroke-width:1;stroke-miterlimit:4;stroke-dasharray:none"/>
		<rect id="rect_2023_06_05_01_19_23_780551" inkscape:label="bad_phi_24.62_54.16_p1_n63" x="19.625" y="49.16399999999999" width="10" height="10" style="fill:none;stroke:rgb(0,0,255);stroke-width:1;stroke-miterlimit:4;stroke-dasharray:none"/>
		<rect id="rect_2023_06_05_01_19_23_780574" inkscape:label="bad_phi_24.69_54.25_p1_n64" x="19.69282099999998" y="49.25140699999997" width="10" height="10" style="fill:none;stroke:rgb(0,0,255);stroke-width:1;stroke-miterlimit:4;stroke-dasharray:none"/>
		<rect id="rect_2023_06_05_01_19_23_780595" inkscape:label="bad_phi_24.76_54.33_p1_n65" x="19.758496000000036" y="49.32780100000002" width="10" height="10" style="fill:none;stroke:rgb(0,0,255);stroke-width:1;stroke-miterlimit:4;stroke-dasharray:none"/>
		<rect id="rect_2023_06_05_01_19_23_780621" inkscape:label="bad_phi_24.82_54.39_p1_n66" x="19.820641000000023" y="49.39389300000005" width="10" height="10" style="fill:none;stroke:rgb(0,0,255);stroke-width:1;stroke-miterlimit:4;stroke-dasharray:none"/>
		<rect id="rect_2023_06_05_01_19_23_780664" inkscape:label="bad_phi_24.89_54.46_p1_n67" x="19.89281100000005" y="49.46419100000003" width="10" height="10" style="fill:none;stroke:rgb(0,0,255);stroke-width:1;stroke-miterlimit:4;stroke-dasharray:none"/>
		<rect id="rect_2023_06_05_01_19_23_780686" inkscape:label="bad_phi_24.97_54.53_p1_n68" x="19.96799999999996" y="49.53099999999995" width="10" height="10" style="fill:none;stroke:rgb(0,0,255);stroke-width:1;stroke-miterlimit:4;stroke-dasharray:none"/>
		<rect id="rect_2023_06_05_01_19_23_780710" inkscape:label="bad_phi_25.05_54.59_p1_n69" x="20.04577900000004" y="49.59399099999996" width="10" height="10" style="fill:none;stroke:rgb(0,0,255);stroke-width:1;stroke-miterlimit:4;stroke-dasharray:none"/>
		<rect id="rect_2023_06_05_01_19_23_780731" inkscape:label="bad_phi_25.13_54.65_p1_n70" x="20.126368999999954" y="49.65355099999999" width="10" height="10" style="fill:none;stroke:rgb(0,0,255);stroke-width:1;stroke-miterlimit:4;stroke-dasharray:none"/>
		<rect id="rect_2023_06_05_01_19_23_780753" inkscape:label="bad_phi_25.21_54.71_p1_n71" x="20.209446999999955" y="49.709693000000016" width="10" height="10" style="fill:none;stroke:rgb(0,0,255);stroke-width:1;stroke-miterlimit:4;stroke-dasharray:none"/>
		<rect id="rect_2023_06_05_01_19_23_780775" inkscape:label="bad_phi_25.29_54.76_p1_n72" x="20.294692000000055" y="49.76243299999999" width="10" height="10" style="fill:none;stroke:rgb(0,0,255);stroke-width:1;stroke-miterlimit:4;stroke-dasharray:none"/>
		<rect id="rect_2023_06_05_01_19_23_780798" inkscape:label="bad_phi_25.37_54.81_p1_n73" x="20.373000000000047" y="49.807000000000016" width="10" height="10" style="fill:none;stroke:rgb(0,0,255);stroke-width:1;stroke-miterlimit:4;stroke-dasharray:none"/>
		<rect id="rect_2023_06_05_01_19_23_780819" inkscape:label="bad_phi_25.46_54.85_p1_n74" x="20.463460000000055" y="49.854318000000035" width="10" height="10" style="fill:none;stroke:rgb(0,0,255);stroke-width:1;stroke-miterlimit:4;stroke-dasharray:none"/>
		<rect id="rect_2023_06_05_01_19_23_780844" inkscape:label="bad_phi_25.56_54.90_p1_n75" x="20.55564000000004" y="49.89837899999998" width="10" height="10" style="fill:none;stroke:rgb(0,0,255);stroke-width:1;stroke-miterlimit:4;stroke-dasharray:none"/>
		<rect id="rect_2023_06_05_01_19_23_780866" inkscape:label="bad_phi_25.64_54.94_p1_n76" x="20.63988900000004" y="49.93530499999997" width="10" height="10" style="fill:none;stroke:rgb(0,0,255);stroke-width:1;stroke-miterlimit:4;stroke-dasharray:none"/>
		<rect id="rect_2023_06_05_01_19_23_780888" inkscape:label="bad_phi_25.73_54.97_p1_n77" x="20.73472400000003" y="49.973364999999944" width="10" height="10" style="fill:none;stroke:rgb(0,0,255);stroke-width:1;stroke-miterlimit:4;stroke-dasharray:none"/>
		<rect id="rect_2023_06_05_01_19_23_780910" inkscape:label="bad_phi_25.82_55.00_p1_n78" x="20.821000000000026" y="50.004999999999995" width="10" height="10" style="fill:none;stroke:rgb(0,0,255);stroke-width:1;stroke-miterlimit:4;stroke-dasharray:none"/>
		<rect id="rect_2023_06_05_01_19_23_780932" inkscape:label="bad_phi_25.92_55.04_p1_n79" x="20.916033999999968" y="50.036923" width="10" height="10" style="fill:none;stroke:rgb(0,0,255);stroke-width:1;stroke-miterlimit:4;stroke-dasharray:none"/>
		<rect id="rect_2023_06_05_01_19_23_780955" inkscape:label="bad_phi_26.01_55.07_p1_n80" x="21.011937999999986" y="50.06630700000005" width="10" height="10" style="fill:none;stroke:rgb(0,0,255);stroke-width:1;stroke-miterlimit:4;stroke-dasharray:none"/>
		<rect id="rect_2023_06_05_01_19_23_780978" inkscape:label="bad_phi_26.11_55.09_p1_n81" x="21.10860600000001" y="50.093133999999964" width="10" height="10" style="fill:none;stroke:rgb(0,0,255);stroke-width:1;stroke-miterlimit:4;stroke-dasharray:none"/>
		<rect id="rect_2023_06_05_01_19_23_781000" inkscape:label="bad_phi_26.21_55.12_p1_n82" x="21.205930999999964" y="50.11738700000001" width="10" height="10" style="fill:none;stroke:rgb(0,0,255);stroke-width:1;stroke-miterlimit:4;stroke-dasharray:none"/>
		<rect id="rect_2023_06_05_01_19_23_781020" inkscape:label="bad_phi_26.29_55.14_p1_n83" x="21.293999999999983" y="50.136999999999944" width="10" height="10" style="fill:none;stroke:rgb(0,0,255);stroke-width:1;stroke-miterlimit:4;stroke-dasharray:none"/>
		<rect id="rect_2023_06_05_01_19_23_781043" inkscape:label="bad_phi_26.40_55.16_p1_n84" x="21.40293399999996" y="50.15540299999998" width="10" height="10" style="fill:none;stroke:rgb(0,0,255);stroke-width:1;stroke-miterlimit:4;stroke-dasharray:none"/>
		<rect id="rect_2023_06_05_01_19_23_781064" inkscape:label="bad_phi_26.51_55.17_p1_n85" x="21.512966000000006" y="50.166675000000055" width="10" height="10" style="fill:none;stroke:rgb(0,0,255);stroke-width:1;stroke-miterlimit:4;stroke-dasharray:none"/>
		<rect id="rect_2023_06_05_01_19_23_781088" inkscape:label="bad_phi_26.61_55.17_p1_n86" x="21.61357399999997" y="50.172731" width="10" height="10" style="fill:none;stroke:rgb(0,0,255);stroke-width:1;stroke-miterlimit:4;stroke-dasharray:none"/>
		<rect id="rect_2023_06_05_01_19_23_781110" inkscape:label="bad_phi_28.29_55.15_p1_n102" x="23.28990799999997" y="50.15083100000004" width="10" height="10" style="fill:none;stroke:rgb(0,0,255);stroke-width:1;stroke-miterlimit:4;stroke-dasharray:none"/>
		<rect id="rect_2023_06_05_01_19_23_781154" inkscape:label="bad_phi_28.39_55.14_p1_n103" x="23.389999999999986" y="50.14099999999996" width="10" height="10" style="fill:none;stroke:rgb(0,0,255);stroke-width:1;stroke-miterlimit:4;stroke-dasharray:none"/>
		<rect id="rect_2023_06_05_01_19_23_781175" inkscape:label="bad_phi_28.49_55.12_p1_n104" x="23.489000000000033" y="50.120000000000005" width="10" height="10" style="fill:none;stroke:rgb(0,0,255);stroke-width:1;stroke-miterlimit:4;stroke-dasharray:none"/>
		<rect id="rect_2023_06_05_01_19_23_781197" inkscape:label="bad_phi_29.57_54.89_p1_n113" x="24.567000000000007" y="49.88599999999997" width="10" height="10" style="fill:none;stroke:rgb(0,0,255);stroke-width:1;stroke-miterlimit:4;stroke-dasharray:none"/>
		<rect id="rect_2023_06_05_01_19_23_781220" inkscape:label="bad_phi_29.89_54.84_p1_n116" x="24.890979000000016" y="49.83741599999996" width="10" height="10" style="fill:none;stroke:rgb(0,0,255);stroke-width:1;stroke-miterlimit:4;stroke-dasharray:none"/>
		<rect id="rect_2023_06_05_01_19_23_781241" inkscape:label="bad_phi_29.96_54.82_p1_n117" x="24.961000000000013" y="49.823999999999955" width="10" height="10" style="fill:none;stroke:rgb(0,0,255);stroke-width:1;stroke-miterlimit:4;stroke-dasharray:none"/>
		<rect id="rect_2023_06_05_01_19_23_781264" inkscape:label="bad_phi_30.52_54.77_p1_n122" x="25.522907000000032" y="49.766418000000044" width="10" height="10" style="fill:none;stroke:rgb(0,0,255);stroke-width:1;stroke-miterlimit:4;stroke-dasharray:none"/>
		<rect id="rect_2023_06_05_01_19_23_781287" inkscape:label="bad_phi_30.59_54.75_p1_n123" x="25.591999999999985" y="49.75400000000002" width="10" height="10" style="fill:none;stroke:rgb(0,0,255);stroke-width:1;stroke-miterlimit:4;stroke-dasharray:none"/>
		<rect id="rect_2023_06_05_01_19_23_781308" inkscape:label="bad_phi_31.87_54.61_p1_n134" x="26.86500000000001" y="49.61099999999999" width="10" height="10" style="fill:none;stroke:rgb(0,0,255);stroke-width:1;stroke-miterlimit:4;stroke-dasharray:none"/>
		<rect id="rect_2023_06_05_01_19_23_781330" inkscape:label="bad_phi_32.09_54.61_p1_n136" x="27.086545" y="49.613067" width="10" height="10" style="fill:none;stroke:rgb(0,0,255);stroke-width:1;stroke-miterlimit:4;stroke-dasharray:none"/>
		<rect id="rect_2023_06_05_01_19_23_781353" inkscape:label="bad_phi_32.16_54.62_p1_n137" x="27.15700000000004" y="49.61900000000003" width="10" height="10" style="fill:none;stroke:rgb(0,0,255);stroke-width:1;stroke-miterlimit:4;stroke-dasharray:none"/>
		<rect id="rect_2023_06_05_01_19_23_781375" inkscape:label="bad_phi_32.24_54.62_p1_n138" x="27.241265999999996" y="49.61556399999995" width="10" height="10" style="fill:none;stroke:rgb(0,0,255);stroke-width:1;stroke-miterlimit:4;stroke-dasharray:none"/>
		<rect id="rect_2023_06_05_01_19_23_781398" inkscape:label="bad_phi_32.32_54.61_p1_n139" x="27.315000000000055" y="49.613000000000056" width="10" height="10" style="fill:none;stroke:rgb(0,0,255);stroke-width:1;stroke-miterlimit:4;stroke-dasharray:none"/>
		<rect id="rect_2023_06_05_01_19_23_781421" inkscape:label="bad_phi_33.06_54.64_p1_n145" x="28.061000000000035" y="49.63599999999997" width="10" height="10" style="fill:none;stroke:rgb(0,0,255);stroke-width:1;stroke-miterlimit:4;stroke-dasharray:none"/>
		<rect id="rect_2023_06_05_01_19_23_781443" inkscape:label="bad_phi_33.28_54.63_p1_n147" x="28.28099999999995" y="49.625999999999976" width="10" height="10" style="fill:none;stroke:rgb(0,0,255);stroke-width:1;stroke-miterlimit:4;stroke-dasharray:none"/>
		<rect id="rect_2023_06_05_01_19_23_781465" inkscape:label="bad_phi_33.87_54.59_p1_n152" x="28.868000000000052" y="49.58700799999997" width="10" height="10" style="fill:none;stroke:rgb(0,0,255);stroke-width:1;stroke-miterlimit:4;stroke-dasharray:none"/>
		<rect id="rect_2023_06_05_01_19_23_781487" inkscape:label="bad_phi_33.95_54.58_p1_n153" x="28.951999999999998" y="49.583999999999946" width="10" height="10" style="fill:none;stroke:rgb(0,0,255);stroke-width:1;stroke-miterlimit:4;stroke-dasharray:none"/>
		<rect id="rect_2023_06_05_01_19_23_781509" inkscape:label="bad_phi_36.43_54.52_p1_n174" x="31.428247000000056" y="49.518438999999944" width="10" height="10" style="fill:none;stroke:rgb(0,0,255);stroke-width:1;stroke-miterlimit:4;stroke-dasharray:none"/>
		<rect id="rect_2023_06_05_01_19_23_781531" inkscape:label="bad_phi_36.50_54.52_p1_n175" x="31.5" y="49.52099999999996" width="10" height="10" style="fill:none;stroke:rgb(0,0,255);stroke-width:1;stroke-miterlimit:4;stroke-dasharray:none"/>
		<rect id="rect_2023_06_05_01_19_23_781554" inkscape:label="bad_phi_36.69_54.52_p1_n177" x="31.692999999999984" y="49.51897199999996" width="10" height="10" style="fill:none;stroke:rgb(0,0,255);stroke-width:1;stroke-miterlimit:4;stroke-dasharray:none"/>
		<rect id="rect_2023_06_05_01_19_23_781582" inkscape:label="bad_phi_36.77_54.52_p1_n178" x="31.773000000000025" y="49.51800000000003" width="10" height="10" style="fill:none;stroke:rgb(0,0,255);stroke-width:1;stroke-miterlimit:4;stroke-dasharray:none"/>
		<rect id="rect_2023_06_05_01_19_23_781604" inkscape:label="bad_phi_37.23_54.53_p1_n182" x="32.233069" y="49.53388700000005" width="10" height="10" style="fill:none;stroke:rgb(0,0,255);stroke-width:1;stroke-miterlimit:4;stroke-dasharray:none"/>
		<rect id="rect_2023_06_05_01_19_23_781627" inkscape:label="bad_phi_37.30_54.53_p1_n183" x="32.303999999999974" y="49.53399999999999" width="10" height="10" style="fill:none;stroke:rgb(0,0,255);stroke-width:1;stroke-miterlimit:4;stroke-dasharray:none"/>
		<rect id="rect_2023_06_05_01_19_23_781668" inkscape:label="bad_phi_38.08_54.54_p1_n190" x="33.08000500000003" y="49.54336699999999" width="10" height="10" style="fill:none;stroke:rgb(0,0,255);stroke-width:1;stroke-miterlimit:4;stroke-dasharray:none"/>
		<rect id="rect_2023_06_05_01_19_23_781690" inkscape:label="bad_phi_38.17_54.54_p1_n191" x="33.16999999999996" y="49.54399999999998" width="10" height="10" style="fill:none;stroke:rgb(0,0,255);stroke-width:1;stroke-miterlimit:4;stroke-dasharray:none"/>
		<rect id="rect_2023_06_05_01_19_23_781713" inkscape:label="bad_phi_39.66_54.62_p1_n204" x="34.658004000000005" y="49.616912999999954" width="10" height="10" style="fill:none;stroke:rgb(0,0,255);stroke-width:1;stroke-miterlimit:4;stroke-dasharray:none"/>
		<rect id="rect_2023_06_05_01_19_23_781735" inkscape:label="bad_phi_39.74_54.62_p1_n205" x="34.74199999999996" y="49.61699999999996" width="10" height="10" style="fill:none;stroke:rgb(0,0,255);stroke-width:1;stroke-miterlimit:4;stroke-dasharray:none"/>
		<rect id="rect_2023_06_05_01_19_23_781758" inkscape:label="bad_phi_40.08_54.63_p1_n208" x="35.08318699999995" y="49.62929699999995" width="10" height="10" style="fill:none;stroke:rgb(0,0,255);stroke-width:1;stroke-miterlimit:4;stroke-dasharray:none"/>
		<rect id="rect_2023_06_05_01_19_23_781779" inkscape:label="bad_phi_40.16_54.64_p1_n209" x="35.15599999999995" y="49.63900000000001" width="10" height="10" style="fill:none;stroke:rgb(0,0,255);stroke-width:1;stroke-miterlimit:4;stroke-dasharray:none"/>
		<rect id="rect_2023_06_05_01_19_23_781801" inkscape:label="bad_phi_40.69_54.68_p1_n213" x="35.68799999999999" y="49.682000000000016" width="10" height="10" style="fill:none;stroke:rgb(0,0,255);stroke-width:1;stroke-miterlimit:4;stroke-dasharray:none"/>
		<rect id="rect_2023_06_05_01_19_23_781826" inkscape:label="bad_phi_40.80_54.69_p1_n214" x="35.79600000000005" y="49.688999999999965" width="10" height="10" style="fill:none;stroke:rgb(0,0,255);stroke-width:1;stroke-miterlimit:4;stroke-dasharray:none"/>
		<rect id="rect_2023_06_05_01_19_23_781847" inkscape:label="bad_phi_42.28_54.63_p1_n226" x="37.277000000000044" y="49.63099999999997" width="10" height="10" style="fill:none;stroke:rgb(0,0,255);stroke-width:1;stroke-miterlimit:4;stroke-dasharray:none"/>
		<rect id="rect_2023_06_05_01_19_23_781870" inkscape:label="bad_phi_42.38_54.62_p1_n227" x="37.37800000000004" y="49.624000000000024" width="10" height="10" style="fill:none;stroke:rgb(0,0,255);stroke-width:1;stroke-miterlimit:4;stroke-dasharray:none"/>
		<rect id="rect_2023_06_05_01_19_23_781892" inkscape:label="bad_phi_43.21_54.55_p1_n234" x="38.20500000000004" y="49.547000000000025" width="10" height="10" style="fill:none;stroke:rgb(0,0,255);stroke-width:1;stroke-miterlimit:4;stroke-dasharray:none"/>
		<rect id="rect_2023_06_05_01_19_23_781915" inkscape:label="bad_phi_43.90_54.50_p1_n240" x="38.895711000000006" y="49.500058999999965" width="10" height="10" style="fill:none;stroke:rgb(0,0,255);stroke-width:1;stroke-miterlimit:4;stroke-dasharray:none"/>
		<rect id="rect_2023_06_05_01_19_23_781939" inkscape:label="bad_phi_43.97_54.49_p1_n241" x="38.96900000000005" y="49.490999999999985" width="10" height="10" style="fill:none;stroke:rgb(0,0,255);stroke-width:1;stroke-miterlimit:4;stroke-dasharray:none"/>
		<rect id="rect_2023_06_05_01_19_23_781962" inkscape:label="bad_phi_45.43_54.42_p1_n254" x="40.43311799999992" y="49.415688000000046" width="10" height="10" style="fill:none;stroke:rgb(0,0,255);stroke-width:1;stroke-miterlimit:4;stroke-dasharray:none"/>
		<rect id="rect_2023_06_05_01_19_23_781983" inkscape:label="bad_phi_45.51_54.41_p1_n255" x="40.50500000000011" y="49.40899999999999" width="10" height="10" style="fill:none;stroke:rgb(0,0,255);stroke-width:1;stroke-miterlimit:4;stroke-dasharray:none"/>
		<rect id="rect_2023_06_05_01_19_23_782006" inkscape:label="bad_phi_46.33_54.40_p1_n262" x="41.3318119999999" y="49.39752099999998" width="10" height="10" style="fill:none;stroke:rgb(0,0,255);stroke-width:1;stroke-miterlimit:4;stroke-dasharray:none"/>
		<rect id="rect_2023_06_05_01_19_23_782029" inkscape:label="bad_phi_46.40_54.40_p1_n263" x="41.403999999999996" y="49.398000000000025" width="10" height="10" style="fill:none;stroke:rgb(0,0,255);stroke-width:1;stroke-miterlimit:4;stroke-dasharray:none"/>
		<rect id="rect_2023_06_05_01_19_23_782051" inkscape:label="bad_phi_46.99_54.39_p1_n268" x="41.98670500000003" y="49.39005199999997" width="10" height="10" style="fill:none;stroke:rgb(0,0,255);stroke-width:1;stroke-miterlimit:4;stroke-dasharray:none"/>
		<rect id="rect_2023_06_05_01_19_23_782073" inkscape:label="bad_phi_47.06_54.39_p1_n269" x="42.05899999999997" y="49.38900000000001" width="10" height="10" style="fill:none;stroke:rgb(0,0,255);stroke-width:1;stroke-miterlimit:4;stroke-dasharray:none"/>
		<rect id="rect_2023_06_05_01_19_23_782096" inkscape:label="bad_phi_47.21_54.38_p1_n271" x="42.21199999999999" y="49.37699999999995" width="10" height="10" style="fill:none;stroke:rgb(0,0,255);stroke-width:1;stroke-miterlimit:4;stroke-dasharray:none"/>
		<rect id="rect_2023_06_05_01_19_23_782117" inkscape:label="bad_phi_47.34_54.38_p1_n272" x="42.33999999999992" y="49.375999999999976" width="10" height="10" style="fill:none;stroke:rgb(0,0,255);stroke-width:1;stroke-miterlimit:4;stroke-dasharray:none"/>
		<rect id="rect_2023_06_05_01_19_23_782140" inkscape:label="bad_phi_47.46_54.34_p1_n273" x="42.46399999999994" y="49.335000000000036" width="10" height="10" style="fill:none;stroke:rgb(0,0,255);stroke-width:1;stroke-miterlimit:4;stroke-dasharray:none"/>
		<rect id="rect_2023_06_05_01_19_23_782182" inkscape:label="bad_phi_47.55_54.33_p1_n274" x="42.545249999999896" y="49.33345099999997" width="10" height="10" style="fill:none;stroke:rgb(0,0,255);stroke-width:1;stroke-miterlimit:4;stroke-dasharray:none"/>
		<rect id="rect_2023_06_05_01_19_23_782205" inkscape:label="bad_phi_47.62_54.33_p1_n275" x="42.615999999999985" y="49.33000000000004" width="10" height="10" style="fill:none;stroke:rgb(0,0,255);stroke-width:1;stroke-miterlimit:4;stroke-dasharray:none"/>
		<rect id="rect_2023_06_05_01_19_23_782227" inkscape:label="bad_phi_47.71_54.29_p1_n276" x="42.71399999999994" y="49.28800000000001" width="10" height="10" style="fill:none;stroke:rgb(0,0,255);stroke-width:1;stroke-miterlimit:4;stroke-dasharray:none"/>
		<rect id="rect_2023_06_05_01_19_23_782250" inkscape:label="bad_phi_47.86_54.25_p1_n278" x="42.8599999999999" y="49.25" width="10" height="10" style="fill:none;stroke:rgb(0,0,255);stroke-width:1;stroke-miterlimit:4;stroke-dasharray:none"/>
		<rect id="rect_2023_06_05_01_19_23_782272" inkscape:label="bad_phi_47.99_54.22_p1_n279" x="42.99199999999996" y="49.21500000000003" width="10" height="10" style="fill:none;stroke:rgb(0,0,255);stroke-width:1;stroke-miterlimit:4;stroke-dasharray:none"/>
		<rect id="rect_2023_06_05_01_19_23_782294" inkscape:label="bad_phi_48.07_54.19_p1_n280" x="43.06879200000003" y="49.18724299999997" width="10" height="10" style="fill:none;stroke:rgb(0,0,255);stroke-width:1;stroke-miterlimit:4;stroke-dasharray:none"/>
		<rect id="rect_2023_06_05_01_19_23_782318" inkscape:label="bad_phi_48.14_54.16_p1_n281" x="43.13599999999997" y="49.16300000000001" width="10" height="10" style="fill:none;stroke:rgb(0,0,255);stroke-width:1;stroke-miterlimit:4;stroke-dasharray:none"/>
	</g>
</svg>
