<?xml version="1.0" ?>
<svg height="70.0mm" id="svg_2021_07_09_18_14_54_041802" inkscape:version="0.92.2 (unknown)" sodipodi:docname="@7757050_-364070.svg" viewBox="0 0 140.0 70.0" width="140.0mm" xmlns="http://www.w3.org/2000/svg" xmlns:cc="http://creativecommons.org/ns#" xmlns:dc="http://purl.org/dc/elements/1.1/" xmlns:inkscape="http://www.inkscape.org/namespaces/inkscape" xmlns:rdf="http://www.w3.org/1999/02/22-rdf-syntax-ns#" xmlns:sodipodi="http://sodipodi.sourceforge.net/DTD/sodipodi-0.dtd" xmlns:svg="http://www.w3.org/2000/svg" xmlns:xlink="http://www.w3.org/1999/xlink">
	<metadata id="metadata_2021_07_09_18_14_54_041951">
		<rdf:RDF>
			<cc:Work rdf:about="">
				<dc:format>image/svg+xml</dc:format>
				<dc:type rdf:resource="http://purl.org/dc/dcmitype/StillImage"/>
				<dc:title/>
			</cc:Work>
		</rdf:RDF>
	</metadata>
	<defs id="defs_2021_07_09_18_14_54_042064">
		<marker id="marker_trapezium" markerHeight="5" markerUnits="strokeWidth" markerWidth="5" orient="auto" refX="0" refy="0" viewBox="0 0 5 5">
			<path d="M 0.0,-0.5 L 0.0,0.5 L -5.0,2.5 L -5.0,-2.5 z" fill="context-stroke"/>
		</marker>
	</defs>
	<sodipodi:namedview bordercolor="#666666" borderopacity="1" gridtolerance="10" guidetolerance="10" id="namedview_2021_07_09_18_14_54_042161" inkscape:current-layer="svg_2021_07_09_18_14_54_041802" inkscape:cx="320.081790925" inkscape:cy="132.283464567" inkscape:document-units="mm" inkscape:pageopacity="0" inkscape:pageshadow="2" inkscape:window-height="70.0" inkscape:window-maximized="1" inkscape:window-width="140.0" inkscape:window-x="0" inkscape:window-y="0" inkscape:zoom="2.70" objecttolerance="10" pagecolor="#ffffff" showgrid="false"/>
	<g id="layer_2021_07_09_18_14_54_042331" inkscape:groupmode="layer" inkscape:label="images_m" style="display:inline">
		<image height="210.0" id="image_2021_07_09_18_14_54_042331" inkscape:label="image_m7757050_-364140.png" preserveAspectRatio="none" sodipodi:absref="/home/lcad/carmen_lcad/data/graphs/graphs_log_rhi-20210709/m7757050_-364140.png" width="210.0" x="0.0" xlink:href="file:///home/lcad/carmen_lcad/data/graphs/graphs_log_rhi-20210709/m7757050_-364140.png" y="-70.0"/>
	</g>
	<g id="layer_2021_07_09_18_14_54_042458" inkscape:groupmode="layer" inkscape:label="images_i" style="display:inline">
		<image height="210.0" id="image_2021_07_09_18_14_54_042458" inkscape:label="image_i7757050_-364140.png" preserveAspectRatio="none" sodipodi:absref="/home/lcad/carmen_lcad/data/graphs/graphs_log_rhi-20210709/i7757050_-364140.png" width="210.0" x="0.0" xlink:href="file:///home/lcad/carmen_lcad/data/graphs/graphs_log_rhi-20210709/i7757050_-364140.png" y="-70.0"/>
	</g>
	<g id="layer_2021_07_09_18_14_54_042596" inkscape:groupmode="layer" inkscape:label="paths" marker-end="url(#marker_trapezium)" style="display:inline">
		<path d="M 43.016268,59.602655 C 
43.189205572,59.6266307412 43.3672118085,59.5930165343 43.5397690004,59.619592 
43.7054403331,59.6451069771 43.8740322385,59.6476605 44.0399660002,59.671409 
44.2099082069,59.6957311901 44.3819214739,59.7032969007 44.5520810001,59.726049 
44.7262345068,59.749335136 44.9037161004,59.7308154055 45.0788540002,59.744901 
45.2520171832,59.7588277765 45.4159118654,59.8467860513 45.5896260003,59.848472 
45.7670619357,59.8501940698 45.9438588107,59.8268805583 46.1209150003,59.815151 
46.2934129927,59.8037234115 46.4604646023,59.7490731552 46.6316889999,59.725233 
46.8026900748,59.7014239387 46.9580558129,59.6095990303 47.1268269997,59.573205 
47.3038062248,59.5350409782 47.473254622,59.4677974564 47.6472500004,59.41776 
47.810910535,59.3706946298 47.9603636023,59.2826834862 48.1219429998,59.228906 
48.283163731,59.1752478865 48.4507711148,59.1414067933 48.6104939999,59.083442 
48.7788664252,59.022338215 48.9445599578,58.9540304405 49.1127890004,58.892533 
49.2817906821,58.8307531151 49.4395982344,58.7401787202 49.6099230004,58.682146 
49.7787262676,58.6246316818 49.950358673,58.5757775766 50.1208229996,58.523391 
50.3037908394,58.4671618817 50.4867210127,58.4106590845 50.6710729999,58.359149 
50.8442235719,58.3107687211 51.0258174958,58.2989256871 51.2007259997,58.257347 
51.3802896785,58.2146616996 51.5525054187,58.1406995786 51.7345620003,58.110359 
51.9036589535,58.0821782039 52.0617441665,57.9980356012 52.2323310003,57.981063 
52.4108575908,57.9633004298 52.5908694044,57.9663319166 52.7702390002,57.962617 
52.9540147753,57.9588108272 53.1379761593,57.966980661 53.3214779999,57.977709 
53.5227679154,57.9894773095 53.7234656662,58.0127244649 53.9229260003,58.042249 
54.0910378825,58.0671332718 54.264257702,58.05596288 54.4303130005,58.092108 
54.6102509061,58.1312749354 54.781676027,58.202585241 54.9583059996,58.254677 
55.1234259736,58.3033742271 55.2849434037,58.3637072929 55.4465309996,58.423083 
55.6044901228,58.481125417 55.760607589,58.5443242869 55.9149850002,58.611314 
56.0753238788,58.6808906005 56.2431218121,58.7331601963 56.4009229997,58.808315 
56.5546526974,58.8815307052 56.7212105133,58.9263159299 56.8729809998,59.003511 
57.0522377882,59.0946864368 57.2302887943,59.1882134313 57.4088829998,59.28068 
57.5658203661,59.3619338108 57.7214558618,59.445698523 57.8787820004,59.526197 
58.0510605872,59.6143461401 58.2304393044,59.6879757082 58.4040620001,59.773447 
58.555406237,59.8479510121 58.7166188024,59.9008056793 58.8695860002,59.971918 
59.0415022075,60.0518394512 59.2067094259,60.1463124107 59.3814070001,60.219956 
59.5359615879,60.2851083333 59.708495927,60.3000757237 59.8634310002,60.364318 
60.0194127103,60.4289942537 60.1738617904,60.4973825904 60.3305559997,60.560313 
60.5085731139,60.6318069626 60.6942656962,60.6828515721 60.8732000003,60.752018 
61.0436233133,60.8178945343 61.2197779194,60.8681170712 61.3907819996,60.932471 
61.5483539412,60.9917700152 61.6978046475,61.0715139692 61.8559640003,61.129228 
62.0237009441,61.1904369957 62.1951464526,61.2410324393 62.3636079999,61.300218 
62.5318798935,61.3593369297 62.6899048723,61.4457840474 62.8591780001,61.501972 
63.0247296216,61.5569246483 63.1863086708,61.6235795238 63.35255,61.676409 
63.5330797946,61.7337791772 63.7153127911,61.7856489871 63.8964630002,61.841029 
64.0615211437,61.8914894559 64.2123709153,61.9829036788 64.3780789999,62.031187 
64.5422780598,62.0790306278 64.6963522574,62.1583903857 64.8611979997,62.203956 
65.0411043977,62.2536845852 65.2261262005,62.2828320229 65.4073799998,62.3274 
65.5844055992,62.3709283172 65.7737864414,62.3348661352 65.952579,62.370447 
66.128748267,62.405505813 66.3146489514,62.3234420039 66.4912620001,62.356192 
66.670772627,62.3894793046 66.8570625577,62.3728198824 67.036816,62.40477 
67.2212063624,62.437544303 67.4142720727,62.3747898155 67.5986500001,62.407634 
67.7628607629,62.4368857041 67.9339647982,62.4059382011 68.0983239999,62.434344 
68.2762150029,62.4650884669 68.4564227564,62.4809430478 68.6346049998,62.509952 
68.8246237803,62.540887999 69.011582599,62.5890783781 69.2016939996,62.61944 
69.3853905424,62.648777141 69.569226536,62.6772774025 69.7532799998,62.704285 
69.9431256279,62.7321425268 70.1302405773,62.7780012671 70.3207430001,62.800941 
70.4987870166,62.8223805288 70.673315824,62.8704243144 70.8519700002,62.885981 
71.0207198942,62.9006752496 71.1837081611,62.9613462599 71.3527370002,62.972378 
71.5479890797,62.9851212112 71.7413337678,63.0247726185 71.9369409997,63.029628 
72.1118701193,63.0339701074 72.2819444472,63.1012458389 72.4569269996,63.101642 
72.6323671238,63.1020391972 72.7958399961,63.2168856175 72.9712460004,63.213403 
73.1647778377,63.2095605012 73.3568032524,63.1781476446 73.5498829996,63.16438 
73.737383238,63.1510102049 73.9126033913,63.0585501973 74.0994389998,63.037873 
74.2732751146,63.0186344637 74.4425999485,62.9696804983 74.6152619999,62.941807 
74.7895149821,62.9136766717 74.9641516833,62.885286861 75.1353850001,62.842455 
75.3074724479,62.799409489 75.4737185342,62.7356655006 75.6422560001,62.680329 
75.8179024169,62.6226583924 75.9955392843,62.5696500328 76.1664559999,62.499187 
76.3359301174,62.4293187003 76.4997582808,62.3463913613 76.6645550001,62.26611 
76.8258373644,62.1875406704 76.9858978568,62.1062033565 77.1426680004,62.018978 
77.3048630096,61.9287343018 77.4238892784,61.7748633841 77.5794310002,61.673582 
77.7229376743,61.580137268 77.8745397665,61.4985132448 78.0118249999,61.396147 
78.1577451369,61.2873421703 78.3371404503,61.2261481072 78.475846,61.108284 
78.6034743059,60.9998327059 78.7240222478,60.8832965974 78.8464360004,60.768992 
78.9728607424,60.6509421166 79.0577551322,60.4944420833 79.1757349996,60.367952 
79.3005080353,60.2341787379 79.4011279969,60.0797387347 79.5163979996,59.937695 
79.6254963633,59.8032563892 79.7568396349,59.6869198236 79.8579209996,59.546354 
79.9608482216,59.4032212892 80.0133456886,59.2291946546 80.1064879997,59.07951 
80.1986833354,58.9313471856 80.2516423091,58.76179204 80.3352589998,58.608624 
80.4238249864,58.446389901 80.5709130084,58.3188353953 80.6485099997,58.151078 
80.7229780722,57.9900850327 80.8447332811,57.8523093447 80.9085990004,57.686824 " id="path_2021_07_09_18_14_54_042596" inkscape:connector-curvature="0" inkscape:label="path_rddf-poc-rhi-20210709-percurso-3.txt" sodipodi:nodetypes="caaaaaaaaaaaaaaaaaaaaaaaaaaaaaaaaaaaaaaaaaaaaaaaaaaaaaaaaaaaaaaaaaaaaaaaaaaaac" style="fill:none;stroke:#ff00ff;stroke-width:0.4px;stroke-linecap:butt;stroke-linejoin:miter;stroke-miterlimit:4;stroke-dasharray:none;stroke-opacity:1"/>
		<path d="M 35.3613910004,45.493553 C 
35.5268885363,45.520689843 35.6975905634,45.5046064271 35.8630400002,45.532035 
36.0300973607,45.559730138 36.2008102639,45.5608539422 36.367966,45.587949 
36.5424158629,45.6162263972 36.7207569284,45.6155195509 36.8951780004,45.643974 
37.0788311167,45.6739345329 37.2253147969,45.8328867794 37.4091159999,45.861925 
37.5954691898,45.8913664016 37.7875883654,45.8676373896 37.9740660004,45.89628 
38.1505011609,45.9233801052 38.3328519221,45.8885145066 38.5092120003,45.916099 
38.6815979201,45.943061895 38.8542706715,45.9681645739 39.0266899997,45.994913 
39.1949263979,46.0210125034 39.3650885727,46.033455352 39.5333500002,46.059393 
39.7011134708,46.0852538874 39.8616057103,46.1489204361 40.0294260001,46.17441 
40.1950385682,46.1995642416 40.3600152712,46.2288319913 40.5257249996,46.253338 
40.711144791,46.2807588344 40.9005480874,46.2737243657 41.0860400004,46.300653 
41.2511038706,46.3246160102 41.4194603264,46.3214718499 41.584245,46.347285 
41.7735635377,46.3769413251 41.9624531902,46.4093161169 42.1512219999,46.442291 
42.3387094988,46.4750420584 42.5233725337,46.5223372114 42.7099000001,46.560175 
42.9048024891,46.599711693 43.099175144,46.6420957739 43.2924960004,46.688756 
43.4548282679,46.7279367715 43.5888340631,46.8488104304 43.7497500004,46.893453 
43.9283492221,46.9430014059 44.0853963997,47.0528588535 44.2611189997,47.111802 
44.4295630921,47.1683036956 44.5868400978,47.2541296852 44.7527249996,47.317754 
44.9083433719,47.3774406396 45.0819365727,47.3843341395 45.2346000001,47.451218 
45.4011651473,47.5241923875 45.5879326919,47.5474323751 45.7501619998,47.629596 
45.9114596806,47.7112877876 46.0472987583,47.8364499032 46.2039419999,47.926746 
46.3835108401,48.0302574264 46.5957412496,48.0725072116 46.7689859997,48.186287 
46.916877144,48.2834156178 47.0468634488,48.4056927179 47.1916650003,48.50737 
47.3487359304,48.6176626391 47.5222655581,48.703706197 47.6765620001,48.817848 
47.8187415143,48.9230262262 48.0013187332,48.9659324576 48.1408970002,49.074539 
48.292626394,49.1926003945 48.4519799529,49.3007509135 48.602132,49.420812 
48.7371327821,49.5287581846 48.8649282949,49.6455222191 49.0000499999,49.753317 
49.1322270306,49.8587626355 49.2705736235,49.9562698412 49.4038089998,50.060375 
49.5648848247,50.1862336483 49.6889263038,50.3554517845 49.851059,50.479946 
49.984395992,50.5823293232 50.0807050476,50.7279884309 50.2150999997,50.828979 
50.3634000104,50.9404184717 50.4949119566,51.0733504287 50.6449490003,51.18244 
50.781576843,51.2817799521 50.9445954869,51.340284695 51.0834290003,51.436518 
51.2313942974,51.539081057 51.3900168752,51.6254718179 51.5400489997,51.724987 
51.697571666,51.8294706025 51.8697435632,51.9102068493 52.03051,52.009627 
52.199283977,52.1139991223 52.3476630012,52.2498126974 52.5191019997,52.349747 
52.6670303233,52.4359765858 52.8080083746,52.5340464931 52.9579520002,52.616722 
53.104638285,52.6976014831 53.2570624007,52.7676088079 53.4063600004,52.84356 
53.5840430688,52.9339515459 53.7647409048,53.0183255844 53.9452330004,53.102969 
54.117224467,53.183625968 54.2868337296,53.2696632462 54.4616769999,53.343936 
54.6388306627,53.4191901998 54.8140779752,53.4991269071 54.9932800001,53.569364 
55.1667149076,53.6373407082 55.3307704385,53.7285496879 55.5061689997,53.791286 
55.68489605,53.8552128414 55.8712247387,53.895587526 56.0525129996,53.951842 
56.2400296656,54.010029173 56.4270271594,54.0701695498 56.6162869995,54.122409 
56.8145596096,54.1771361526 57.0150516443,54.223546847 57.2151910001,54.270995 
57.384572655,54.3111512535 57.552495393,54.357979216 57.7232489996,54.39183 
57.8934449116,54.4255702246 58.0647992874,54.4531952764 58.2357900003,54.482644 
58.417953168,54.5140168897 58.601337784,54.537834183 58.7840259997,54.565989 
58.968309911,54.5943897362 59.1533986274,54.6172984127 59.3380389996,54.643281 
59.5216432037,54.6691177778 59.7086307891,54.6646091106 59.8923380002,54.689703 
60.0707871141,54.7140786482 60.2433731183,54.7728171095 60.4217490004,54.797723 
60.5929379035,54.8216254022 60.7644205727,54.8433999664 60.935575,54.867548 
61.1200961964,54.8935819398 61.3069102122,54.9010798133 61.4914619997,54.926896 
61.6734775389,54.9523574014 61.8526661685,54.9956957884 62.0345649999,55.021978 
62.2231472656,55.0492258882 62.4132968364,55.0647108011 62.6019339999,55.091576 
62.7788607581,55.1167734343 62.9551448487,55.1463381874 63.1320289997,55.171833 
63.2976700682,55.1957073152 63.4656741479,55.2009724298 63.6311870003,55.22572 
63.8345886422,55.2561327223 64.0370718623,55.2925550142 64.2406059997,55.322068 
64.4130557152,55.3470736627 64.579768151,55.4043344206 64.752165,55.429702 
64.9352611732,55.4566439466 65.120420319,55.4680251961 65.3035289999,55.494882 
65.4909238201,55.522367458 65.6824187515,55.5143395437 65.8697499996,55.542255 
66.0373883415,55.5672358873 66.2046290943,55.5948326772 66.3722430002,55.619977 
66.547317395,55.6462404958 66.7204117635,55.6847940062 66.8955530003,55.710608 
67.0780507866,55.7375062726 67.2608206915,55.7625356348 67.4433220001,55.78941 
67.6110246778,55.8141051819 67.7784755146,55.8404864541 67.9461449999,55.865406 
68.128662793,55.8925323462 68.3164429693,55.8640315899 68.4991830001,55.889618 
68.6990142753,55.9175974466 68.8938998878,55.9771015825 69.0943790004,55.999982 
69.2754434291,56.0206466452 69.4534685109,56.0651370503 69.6349499999,56.081745 
69.8290369455,56.0995065151 70.0239147553,56.1073201422 70.2185279997,56.117851 
70.407562118,56.1280799616 70.5958755985,56.1546587884 70.7851820001,56.15593 
70.9875594182,56.1572889848 71.1881871503,56.1138729056 71.3905100003,56.108981 
71.5589367766,56.1049086578 71.726094069,56.0782626006 71.8942,56.067102 
72.0831959127,56.0545545075 72.2706685718,56.024920189 72.4589560004,56.004311 
72.6364043867,55.9848882092 72.8165674051,55.9931150907 72.9932009997,55.967313 
73.1632567653,55.9424717782 73.3176358081,55.8492393218 73.4865450002,55.817526 
73.6766588455,55.7818314265 73.8680517012,55.7519272328 74.0563709997,55.707732 
74.2235666523,55.6684941161 74.3879495999,55.6180196003 74.5527680004,55.569761 
74.729193653,55.5181038123 74.9092157064,55.4777294857 75.082502,55.416359 
75.2432095399,55.3594433629 75.4008097323,55.29407323 75.5590399997,55.230595 
75.7260283278,55.1636032438 75.8865470085,55.0814858337 76.0497390004,55.005714 
76.2148065092,54.9290713434 76.3876564791,54.8687812019 76.5485540004,54.783732 
76.7137657404,54.6964023351 76.8693456976,54.5919273596 77.0282579996,54.4936 
77.1827073935,54.3980340754 77.3256978597,54.2850803776 77.4749269998,54.181552 
77.6263186755,54.0765233533 77.7671626452,53.9570479735 77.912548,53.843851 
78.0481279241,53.7382885305 78.1851699585,53.6343880575 78.3160910001,53.5231 
78.4455221538,53.4130784062 78.5716537042,53.2991233885 78.6953269998,53.182667 
78.8358247885,53.0503679054 78.9578964841,52.8997589967 79.0910649998,52.760085 
79.2186939502,52.6262211851 79.3584658755,52.5034271981 79.47719,52.361606 
79.5853521712,52.2324015199 79.692264176,52.101991287 79.7934839996,51.967279 
79.9085949538,51.8140791691 80.015815597,51.6550664722 80.123408,51.496496 
80.2341645751,51.3332621476 80.3312579999,51.1610908837 80.4299670001,50.990302 
80.523912495,50.8277550575 80.618524285,50.6653486093 80.7031370001,50.497754 
80.780710469,50.3441022089 80.8568177493,50.1895652696 80.9261090001,50.032005 
80.9965426922,49.8718469511 81.046197868,49.7033316637 81.107229,49.53936 
81.1724319533,49.3641799501 81.2109941533,49.1801775171 81.2667060001,49.001752 
81.3168297503,48.8412231979 81.3796378905,48.6844550371 81.4216149999,48.521606 
81.4664118914,48.3478176983 81.4927791068,48.1697879714 81.529995,47.99422 " id="path_2021_07_09_18_14_54_043096" inkscape:connector-curvature="0" inkscape:label="path_rddf-poc-rhi-20210709-percurso-2.txt" sodipodi:nodetypes="caaaaaaaaaaaaaaaaaaaaaaaaaaaaaaaaaaaaaaaaaaaaaaaaaaaaaaaaaaaaaaaaaaaaaaaaaaaaaaaaaaaaaaaaaaaaaaac" style="fill:none;stroke:#00ff00;stroke-width:0.4px;stroke-linecap:butt;stroke-linejoin:miter;stroke-miterlimit:4;stroke-dasharray:none;stroke-opacity:1"/>
		<path d="M 38.5828999998,59.188195 C 
38.7571595982,59.2115554545 38.9352755826,59.1954162898 39.1094169999,59.219642 
39.284232785,59.2439615249 39.4613934131,59.2487802441 39.6362100001,59.273094 
39.8202786492,59.2986945467 40.0015333593,59.3424369326 40.18566,59.367617 
40.3622300047,59.3917636668 40.5391363129,59.4133840748 40.7158599999,59.436379 
40.9034935003,59.460793488 41.0945960386,59.445922361 41.282722,59.466196 
41.4578032773,59.4850638616 41.6333890194,59.4990176416 41.8089140002,59.513175 
41.9778616261,59.5268018472 42.1456199996,59.5553402362 42.3149319999,59.563242 
42.515425575,59.5725990029 42.7149132695,59.6024012754 42.9156060005,59.605168 
43.1186084338,59.6079665658 43.3216567282,59.6024817316 43.5246289996,59.598001 
43.7188697802,59.5937130211 43.9074014351,59.5248209686 44.1013749996,59.51377 
44.288721404,59.5030965908 44.4772185693,59.5145632114 44.6640900001,59.497485 
44.838139181,59.4815786161 45.0087352972,59.4383337869 45.1822159998,59.417107 
45.3748410549,59.3935377445 45.5699083982,59.3902585726 45.7615879998,59.359946 
45.9395132875,59.3318085604 46.1123511093,59.2772123503 46.2893200004,59.24358 
46.4774935991,59.2078182323 46.6689943559,59.1897620193 46.855978,59.148225 
47.036121265,59.1082075198 47.2168480419,59.0705544574 47.3958949996,59.025887 
47.5736003602,58.9815542354 47.7523453012,58.9411092912 47.9287719997,58.891934 
48.0971094323,58.8450134243 48.2635063594,58.7913790185 48.4304919997,58.739854 
48.6127627539,58.6836126134 48.779541553,58.5842998279 48.9606799996,58.524512 
49.1500005163,58.4620235406 49.3442408983,58.4144821137 49.5317749996,58.346821 
49.7009723224,58.2857756796 49.8767106375,58.2436320512 50.0450099995,58.180153 
50.2240120452,58.1126371172 50.4029522697,58.0449343868 50.5811440004,57.975308 
50.7704723012,57.9013301258 50.942410294,57.7874688885 51.1310350001,57.711715 
51.3162358413,57.6373361755 51.5010038354,57.5618815586 51.6857040003,57.486268 
51.8504249603,57.4188336369 52.00195703,57.3217002207 52.1668919995,57.254791 
52.3541963985,57.178807166 52.5433581648,57.1074558686 52.7306519998,57.031446 
52.9166571712,56.9559591127 53.0927410694,56.8574382162 53.2786640003,56.781749 
53.4409353668,56.7156883347 53.5996026369,56.6409735877 53.762046,56.575337 
53.9216384711,56.5108523389 54.0855496759,56.4574746364 54.2454789998,56.39383 
54.4447335042,56.3145357209 54.6384011684,56.2214939202 54.8385199998,56.144407 
55.0228872262,56.0733876885 55.2049965272,55.9964797373 55.3903559996,55.928092 
55.5617762376,55.8648470952 55.7238625977,55.7775099098 55.8964849999,55.717624 
56.0945198275,55.6489220491 56.2791937003,55.5442293377 56.4788119998,55.480274 
56.6428985484,55.4277026143 56.8034293298,55.3640390153 56.9687529998,55.315498 
57.1563425073,55.2604194675 57.3399217073,55.1912999489 57.5295190001,55.143589 
57.7202313999,55.0955974414 57.9158233292,55.069614654 58.1085759997,55.030617 
58.3078010585,54.9903098547 58.5084247943,54.9570324433 58.7091650004,54.925116 
58.8855910366,54.8970653585 59.0598488301,54.854946376 59.237191,54.833435 
59.4252617443,54.8106222618 59.6137562636,54.7906268116 59.8026729999,54.776432 
59.9894085759,54.7624010763 60.1770055303,54.7644315819 60.364147,54.757715 
60.5517382156,54.7509822765 60.7390097929,54.7314945993 60.9267189996,54.732518 
61.0968109937,54.7334453507 61.2669182317,54.715487845 61.436892,54.721896 
61.6116091926,54.7284829861 61.7832611809,54.7728945976 61.9577749996,54.783591 
62.1575054666,54.795832996 62.3586566821,54.7799397847 62.5579080004,54.798407 
62.7420497108,54.8154738112 62.9289406789,54.7855985446 63.1126349997,54.806949 
63.3003537143,54.8287672033 63.4810258681,54.894511932 63.6684440002,54.918777 
63.844774683,54.9416065735 64.024535358,54.9298905099 64.2006789995,54.954121 
64.3789817551,54.9786484999 64.5533830952,55.027322869 64.7316230005,55.052303 
64.9047413636,55.0765653524 65.077405273,55.1039784477 65.250434,55.128872 
65.4254412036,55.1540501946 65.6015831036,55.1708814048 65.7765779998,55.196145 
65.9456621502,55.220555275 66.1154572545,55.2400239767 66.2842929997,55.266097 
66.4621301685,55.293560098 66.6375520648,55.3354933658 66.8154990003,55.362236 
66.9930587728,55.3889204497 67.1764613604,55.3497081188 67.353964,55.37677 
67.5309014982,55.4037457202 67.6961759441,55.486508988 67.8729710001,55.514403 
68.0581358876,55.5436175702 68.2419624124,55.5812005835 68.4274840001,55.608057 
68.6141564772,55.635080021 68.8049511379,55.6221941847 68.9920699997,55.64593 
69.1626144471,55.6675633697 69.3295500586,55.7152821622 69.5007440001,55.730968 
69.6671951562,55.7462192748 69.8341332301,55.7556613241 70.0009409999,55.766327 
70.1698074201,55.7771243058 70.3384704255,55.7928576383 70.507619,55.797463 
70.7594903195,55.8043206311 71.011231794,55.7787950555 71.263154,55.77417 
71.432757223,55.7710562439 71.5994210374,55.7267387048 71.7687109997,55.715975 
71.9397169724,55.7051021887 72.1123015005,55.7250541804 72.2826840002,55.706859 
72.4831705177,55.6854490057 72.6738390075,55.6067637714 72.8727679998,55.573893 
73.056338124,55.5435601083 73.240192215,55.5138970242 73.4219890004,55.474299 
73.6079550106,55.4337928571 73.7961700233,55.4023465738 73.9797160001,55.351998 
74.1651611459,55.3011284643 74.346693594,55.2368903825 74.5292600002,55.176499 
74.7153163236,55.1149531831 74.887994905,55.0182692271 75.0707409997,54.947497 
75.2351483442,54.8838268353 75.4047643133,54.8328840851 75.5653590001,54.760131 
75.7236820338,54.688407026 75.8843305707,54.6214780049 76.0396210002,54.543405 
76.2094300734,54.4580326778 76.3683055667,54.3524572871 76.5323879998,54.256538 
76.6941078482,54.1619998324 76.854632223,54.0650819581 77.0103369998,53.960934 
77.1722803582,53.852613173 77.3279099585,53.735053483 77.4835069999,53.617799 
77.6265522446,53.5100032727 77.7341541089,53.3608877516 77.8723290004,53.246916 
78.0173438508,53.1273023975 78.1833527489,53.0335952914 78.322319,52.907005 
78.4523542952,52.7885502978 78.5592921637,52.6468075421 78.6838720003,52.522628 
78.8153092191,52.3916131098 78.9522843808,52.2658442652 79.0771810003,52.12858 
79.2084805798,51.9842787333 79.3184235403,51.8218401613 79.4431560002,51.671826 
79.552018811,51.5408980668 79.6106044995,51.3741205578 79.7131460002,51.238185 
79.8349892227,51.0766618475 79.9654730633,50.9211221554 80.0764960004,50.751979 
80.1840374907,50.5881398201 80.300120729,50.4296214977 80.3994410001,50.260672 
80.4869030602,50.111894001 80.5947902529,49.9750582635 80.6740589999,49.821758 
80.7547073476,49.6657896845 80.8326015417,49.5083034305 80.9053950002,49.348518 
80.9762855545,49.1929095438 81.010174036,49.022717192 81.0730569996,48.863704 
81.1403598366,48.6935142009 81.2642332148,48.5479873287 81.3219280001,48.374305 
81.3760380335,48.2114140817 81.4101508083,48.0425433529 81.4558619997,47.877099 
81.5018149782,47.7107795384 81.5443769749,47.5433568583 81.579252,47.374367 " id="path_2021_07_09_18_14_54_043646" inkscape:connector-curvature="0" inkscape:label="path_rddf-poc-rhi-20210709-percurso-1.txt" sodipodi:nodetypes="caaaaaaaaaaaaaaaaaaaaaaaaaaaaaaaaaaaaaaaaaaaaaaaaaaaaaaaaaaaaaaaaaaaaaaaaaaaaaaaaaaaaac" style="fill:none;stroke:#ffa500;stroke-width:0.4px;stroke-linecap:butt;stroke-linejoin:miter;stroke-miterlimit:4;stroke-dasharray:none;stroke-opacity:1"/>
	</g>
	<g id="layer_2021_07_09_18_14_54_044169" inkscape:groupmode="layer" inkscape:label="junctions" style="display:inline">
		<polygon id="polygon_2021_07_09_18_14_54_044169" inkscape:label="junction_1_-1_2_-1" points="76.5545000006,47.684 81.5545000006,37.684 86.5545000006,47.684 81.5545000006,57.684" style="fill:none;stroke:rgb(255,0,0);stroke-width:1;stroke-miterlimit:4;stroke-dasharray:none"/>
		<polygon id="polygon_2021_07_09_18_14_54_044256" inkscape:label="junction_1_8_3_0" points="37.9658030001,59.604084 42.9658030001,49.604084 47.9658030001,59.604084 42.9658030001,69.604084" style="fill:none;stroke:rgb(255,0,0);stroke-width:1;stroke-miterlimit:4;stroke-dasharray:none"/>
		<polygon id="polygon_2021_07_09_18_14_54_044314" inkscape:label="junction_1_85_2_-1" points="76.492931,47.9355495 81.492931,37.9355495 86.492931,47.9355495 81.492931,57.9355495" style="fill:none;stroke:rgb(255,0,0);stroke-width:1;stroke-miterlimit:4;stroke-dasharray:none"/>
	</g>
</svg>
