<?xml version="1.0" ?>
<svg id="svg_2026_05_19_13_05_30_925572" sodipodi:docname="@9800_9800.svg" width="70.0mm" height="70.0mm" viewBox="0 0 70.0 70.0" xmlns:dc="http://purl.org/dc/elements/1.1/" xmlns:cc="http://creativecommons.org/ns#" xmlns:rdf="http://www.w3.org/1999/02/22-rdf-syntax-ns#" xmlns:svg="http://www.w3.org/2000/svg" xmlns="http://www.w3.org/2000/svg" xmlns:xlink="http://www.w3.org/1999/xlink" xmlns:sodipodi="http://sodipodi.sourceforge.net/DTD/sodipodi-0.dtd" xmlns:inkscape="http://www.inkscape.org/namespaces/inkscape" inkscape:version="0.92.2 (unknown)">
	<metadata id="metadata_2026_05_19_13_05_30_925665">
		<rdf:RDF>
			<cc:Work rdf:about="">
				<dc:format>image/svg+xml</dc:format>
				<dc:type rdf:resource="http://purl.org/dc/dcmitype/StillImage"/>
				<dc:title/>
			</cc:Work>
		</rdf:RDF>
	</metadata>
	<defs id="defs_2026_05_19_13_05_30_925692">
		<marker id="marker_trapezium" viewBox="0 0 5 5" refX="0" refY="0" markerUnits="strokeWidth" markerWidth="5" markerHeight="5" orient="auto">
			<path d="M 0.0,-0.5 L 0.0,0.5 L -5.0,2.5 L -5.0,-2.5 z" fill="context-stroke"/>
		</marker>
	</defs>
	<sodipodi:namedview id="namedview_2026_05_19_13_05_30_925737" inkscape:document-units="mm" inkscape:current-layer="svg_2026_05_19_13_05_30_925572" inkscape:window-x="0" inkscape:window-y="0" inkscape:window-width="70.0" inkscape:window-height="70.0" inkscape:zoom="3.39" inkscape:cx="176.50795651175383" inkscape:cy="132.28346456692915" inkscape:window-maximized="1" inkscape:pageopacity="0" inkscape:pageshadow="2" pagecolor="#ffffff" bordercolor="#666666" borderopacity="1" objecttolerance="10" gridtolerance="10" guidetolerance="10" showgrid="false"/>
	<g id="layer_2026_05_19_13_05_30_925883" inkscape:label="bad_phis" inkscape:groupmode="layer" style="display:inline">
		<rect id="rect_2026_05_19_13_05_30_925883" inkscape:label="bad_phi_-9022.25_-8851.33_p1_n695" x="-9027.247541" y="8916.33368" width="10" height="10" style="fill:none;stroke:rgb(0,0,255);stroke-width:1;stroke-miterlimit:4;stroke-dasharray:none"/>
		<rect id="rect_2026_05_19_13_05_30_925928" inkscape:label="bad_phi_-9021.77_-8851.36_p1_n694" x="-9026.767196" y="8916.35814" width="10" height="10" style="fill:none;stroke:rgb(0,0,255);stroke-width:1;stroke-miterlimit:4;stroke-dasharray:none"/>
		<rect id="rect_2026_05_19_13_05_30_925963" inkscape:label="bad_phi_-9021.26_-8851.32_p1_n693" x="-9026.261377" y="8916.319296" width="10" height="10" style="fill:none;stroke:rgb(0,0,255);stroke-width:1;stroke-miterlimit:4;stroke-dasharray:none"/>
		<rect id="rect_2026_05_19_13_05_30_926002" inkscape:label="bad_phi_-9018.16_-8849.81_p1_n686" x="-9023.163228" y="8914.812319" width="10" height="10" style="fill:none;stroke:rgb(0,0,255);stroke-width:1;stroke-miterlimit:4;stroke-dasharray:none"/>
		<rect id="rect_2026_05_19_13_05_30_926034" inkscape:label="bad_phi_-9016.76_-8849.33_p1_n683" x="-9021.76048" y="8914.326956" width="10" height="10" style="fill:none;stroke:rgb(0,0,255);stroke-width:1;stroke-miterlimit:4;stroke-dasharray:none"/>
		<rect id="rect_2026_05_19_13_05_30_926065" inkscape:label="bad_phi_-9011.36_-8849.77_p1_n672" x="-9016.359806" y="8914.767656" width="10" height="10" style="fill:none;stroke:rgb(0,0,255);stroke-width:1;stroke-miterlimit:4;stroke-dasharray:none"/>
		<rect id="rect_2026_05_19_13_05_30_926092" inkscape:label="bad_phi_-9005.47_-8850.91_p1_n660" x="-9010.471152" y="8915.905545" width="10" height="10" style="fill:none;stroke:rgb(0,0,255);stroke-width:1;stroke-miterlimit:4;stroke-dasharray:none"/>
		<rect id="rect_2026_05_19_13_05_30_926118" inkscape:label="bad_phi_-8996.30_-8852.28_p1_n641" x="-9001.296394" y="8917.279202" width="10" height="10" style="fill:none;stroke:rgb(0,0,255);stroke-width:1;stroke-miterlimit:4;stroke-dasharray:none"/>
		<rect id="rect_2026_05_19_13_05_30_926142" inkscape:label="bad_phi_-8969.96_-8857.12_p1_n586" x="-8974.964104" y="8922.117635" width="10" height="10" style="fill:none;stroke:rgb(0,0,255);stroke-width:1;stroke-miterlimit:4;stroke-dasharray:none"/>
		<rect id="rect_2026_05_19_13_05_30_926172" inkscape:label="bad_phi_-8969.49_-8857.30_p1_n585" x="-8974.487876" y="8922.298049" width="10" height="10" style="fill:none;stroke:rgb(0,0,255);stroke-width:1;stroke-miterlimit:4;stroke-dasharray:none"/>
		<rect id="rect_2026_05_19_13_05_30_926202" inkscape:label="bad_phi_-8957.92_-8859.56_p1_n561" x="-8962.923473" y="8924.559846" width="10" height="10" style="fill:none;stroke:rgb(0,0,255);stroke-width:1;stroke-miterlimit:4;stroke-dasharray:none"/>
		<rect id="rect_2026_05_19_13_05_30_926227" inkscape:label="bad_phi_-8945.97_-8861.51_p1_n536" x="-8950.969909" y="8926.508877" width="10" height="10" style="fill:none;stroke:rgb(0,0,255);stroke-width:1;stroke-miterlimit:4;stroke-dasharray:none"/>
		<rect id="rect_2026_05_19_13_05_30_926251" inkscape:label="bad_phi_-8945.53_-8861.72_p1_n535" x="-8950.531826" y="8926.718354" width="10" height="10" style="fill:none;stroke:rgb(0,0,255);stroke-width:1;stroke-miterlimit:4;stroke-dasharray:none"/>
		<rect id="rect_2026_05_19_13_05_30_926305" inkscape:label="bad_phi_-8944.55_-8861.94_p1_n533" x="-8949.553438" y="8926.943924" width="10" height="10" style="fill:none;stroke:rgb(0,0,255);stroke-width:1;stroke-miterlimit:4;stroke-dasharray:none"/>
		<rect id="rect_2026_05_19_13_05_30_926332" inkscape:label="bad_phi_-8943.61_-8861.90_p1_n531" x="-8948.608258" y="8926.904571" width="10" height="10" style="fill:none;stroke:rgb(0,0,255);stroke-width:1;stroke-miterlimit:4;stroke-dasharray:none"/>
		<rect id="rect_2026_05_19_13_05_30_926355" inkscape:label="bad_phi_-8943.12_-8861.91_p1_n530" x="-8948.120969" y="8926.907435" width="10" height="10" style="fill:none;stroke:rgb(0,0,255);stroke-width:1;stroke-miterlimit:4;stroke-dasharray:none"/>
		<rect id="rect_2026_05_19_13_05_30_926381" inkscape:label="bad_phi_-8930.25_-8864.58_p1_n503" x="-8935.248082" y="8929.579189" width="10" height="10" style="fill:none;stroke:rgb(0,0,255);stroke-width:1;stroke-miterlimit:4;stroke-dasharray:none"/>
		<rect id="rect_2026_05_19_13_05_30_926407" inkscape:label="bad_phi_-8910.68_-8869.60_p1_n461" x="-8915.675172" y="8934.604879" width="10" height="10" style="fill:none;stroke:rgb(0,0,255);stroke-width:1;stroke-miterlimit:4;stroke-dasharray:none"/>
		<rect id="rect_2026_05_19_13_05_30_926430" inkscape:label="bad_phi_-8909.81_-8870.04_p1_n459" x="-8914.811861" y="8935.044489" width="10" height="10" style="fill:none;stroke:rgb(0,0,255);stroke-width:1;stroke-miterlimit:4;stroke-dasharray:none"/>
		<rect id="rect_2026_05_19_13_05_30_926455" inkscape:label="bad_phi_-8908.95_-8870.45_p1_n457" x="-8913.948117" y="8935.452501" width="10" height="10" style="fill:none;stroke:rgb(0,0,255);stroke-width:1;stroke-miterlimit:4;stroke-dasharray:none"/>
		<rect id="rect_2026_05_19_13_05_30_926477" inkscape:label="bad_phi_-8907.02_-8870.56_p1_n453" x="-8912.022826" y="8935.562924" width="10" height="10" style="fill:none;stroke:rgb(0,0,255);stroke-width:1;stroke-miterlimit:4;stroke-dasharray:none"/>
		<rect id="rect_2026_05_19_13_05_30_926500" inkscape:label="bad_phi_-8898.94_-8872.72_p1_n436" x="-8903.939706" y="8937.720518" width="10" height="10" style="fill:none;stroke:rgb(0,0,255);stroke-width:1;stroke-miterlimit:4;stroke-dasharray:none"/>
		<rect id="rect_2026_05_19_13_05_30_926524" inkscape:label="bad_phi_-8898.11_-8873.25_p1_n434" x="-8903.113765" y="8938.248153" width="10" height="10" style="fill:none;stroke:rgb(0,0,255);stroke-width:1;stroke-miterlimit:4;stroke-dasharray:none"/>
		<rect id="rect_2026_05_19_13_05_30_926549" inkscape:label="bad_phi_-8886.54_-8888.01_p1_n396" x="-8891.543431" y="8953.006067" width="10" height="10" style="fill:none;stroke:rgb(0,0,255);stroke-width:1;stroke-miterlimit:4;stroke-dasharray:none"/>
		<rect id="rect_2026_05_19_13_05_30_926574" inkscape:label="bad_phi_-8886.19_-8888.39_p1_n395" x="-8891.188025" y="8953.390982" width="10" height="10" style="fill:none;stroke:rgb(0,0,255);stroke-width:1;stroke-miterlimit:4;stroke-dasharray:none"/>
		<rect id="rect_2026_05_19_13_05_30_926600" inkscape:label="bad_phi_-8884.45_-8889.30_p1_n391" x="-8889.450551" y="8954.302193" width="10" height="10" style="fill:none;stroke:rgb(0,0,255);stroke-width:1;stroke-miterlimit:4;stroke-dasharray:none"/>
		<rect id="rect_2026_05_19_13_05_30_926623" inkscape:label="bad_phi_-8880.26_-8890.35_p1_n382" x="-8885.255504" y="8955.347856" width="10" height="10" style="fill:none;stroke:rgb(0,0,255);stroke-width:1;stroke-miterlimit:4;stroke-dasharray:none"/>
		<rect id="rect_2026_05_19_13_05_30_926646" inkscape:label="bad_phi_-8862.55_-8895.89_p1_n344" x="-8867.545906" y="8960.891603" width="10" height="10" style="fill:none;stroke:rgb(0,0,255);stroke-width:1;stroke-miterlimit:4;stroke-dasharray:none"/>
		<rect id="rect_2026_05_19_13_05_30_926670" inkscape:label="bad_phi_-8861.12_-8896.21_p1_n341" x="-8866.121703" y="8961.21313" width="10" height="10" style="fill:none;stroke:rgb(0,0,255);stroke-width:1;stroke-miterlimit:4;stroke-dasharray:none"/>
		<rect id="rect_2026_05_19_13_05_30_926700" inkscape:label="bad_phi_-8856.89_-8897.55_p1_n332" x="-8861.894713" y="8962.545809" width="10" height="10" style="fill:none;stroke:rgb(0,0,255);stroke-width:1;stroke-miterlimit:4;stroke-dasharray:none"/>
		<rect id="rect_2026_05_19_13_05_30_926725" inkscape:label="bad_phi_-8855.56_-8898.11_p1_n329" x="-8860.560841" y="8963.106515" width="10" height="10" style="fill:none;stroke:rgb(0,0,255);stroke-width:1;stroke-miterlimit:4;stroke-dasharray:none"/>
		<rect id="rect_2026_05_19_13_05_30_926751" inkscape:label="bad_phi_-8853.27_-8898.89_p1_n324" x="-8858.26808" y="8963.886705" width="10" height="10" style="fill:none;stroke:rgb(0,0,255);stroke-width:1;stroke-miterlimit:4;stroke-dasharray:none"/>
		<rect id="rect_2026_05_19_13_05_30_926774" inkscape:label="bad_phi_-8843.17_-8902.10_p1_n302" x="-8848.168687" y="8967.104622" width="10" height="10" style="fill:none;stroke:rgb(0,0,255);stroke-width:1;stroke-miterlimit:4;stroke-dasharray:none"/>
		<rect id="rect_2026_05_19_13_05_30_926799" inkscape:label="bad_phi_-8842.67_-8902.20_p1_n301" x="-8847.666028" y="8967.197238" width="10" height="10" style="fill:none;stroke:rgb(0,0,255);stroke-width:1;stroke-miterlimit:4;stroke-dasharray:none"/>
		<rect id="rect_2026_05_19_13_05_30_926824" inkscape:label="bad_phi_-8842.18_-8902.22_p1_n300" x="-8847.175411" y="8967.221538" width="10" height="10" style="fill:none;stroke:rgb(0,0,255);stroke-width:1;stroke-miterlimit:4;stroke-dasharray:none"/>
		<rect id="rect_2026_05_19_13_05_30_926857" inkscape:label="bad_phi_-8841.76_-8902.02_p1_n299" x="-8846.761606" y="8967.019713" width="10" height="10" style="fill:none;stroke:rgb(0,0,255);stroke-width:1;stroke-miterlimit:4;stroke-dasharray:none"/>
		<rect id="rect_2026_05_19_13_05_30_926906" inkscape:label="bad_phi_-8837.96_-8890.85_p1_n275" x="-8842.956612" y="8955.848697" width="10" height="10" style="fill:none;stroke:rgb(0,0,255);stroke-width:1;stroke-miterlimit:4;stroke-dasharray:none"/>
		<rect id="rect_2026_05_19_13_05_30_926929" inkscape:label="bad_phi_-8837.75_-8890.41_p1_n274" x="-8842.75107" y="8955.412476" width="10" height="10" style="fill:none;stroke:rgb(0,0,255);stroke-width:1;stroke-miterlimit:4;stroke-dasharray:none"/>
		<rect id="rect_2026_05_19_13_05_30_926955" inkscape:label="bad_phi_-8837.35_-8890.13_p1_n273" x="-8842.349169" y="8955.132642" width="10" height="10" style="fill:none;stroke:rgb(0,0,255);stroke-width:1;stroke-miterlimit:4;stroke-dasharray:none"/>
		<rect id="rect_2026_05_19_13_05_30_926978" inkscape:label="bad_phi_-8836.92_-8890.15_p1_n272" x="-8841.916962" y="8955.146420000001" width="10" height="10" style="fill:none;stroke:rgb(0,0,255);stroke-width:1;stroke-miterlimit:4;stroke-dasharray:none"/>
		<rect id="rect_2026_05_19_13_05_30_927003" inkscape:label="bad_phi_-8830.04_-8892.78_p1_n257" x="-8835.041804" y="8957.77974" width="10" height="10" style="fill:none;stroke:rgb(0,0,255);stroke-width:1;stroke-miterlimit:4;stroke-dasharray:none"/>
		<rect id="rect_2026_05_19_13_05_30_927027" inkscape:label="bad_phi_-8829.53_-8892.89_p1_n256" x="-8834.52958" y="8957.888503" width="10" height="10" style="fill:none;stroke:rgb(0,0,255);stroke-width:1;stroke-miterlimit:4;stroke-dasharray:none"/>
		<rect id="rect_2026_05_19_13_05_30_927052" inkscape:label="bad_phi_-8829.04_-8892.79_p1_n255" x="-8834.039133" y="8957.785491999999" width="10" height="10" style="fill:none;stroke:rgb(0,0,255);stroke-width:1;stroke-miterlimit:4;stroke-dasharray:none"/>
		<rect id="rect_2026_05_19_13_05_30_927076" inkscape:label="bad_phi_-8828.65_-8892.47_p1_n254" x="-8833.646787" y="8957.468501" width="10" height="10" style="fill:none;stroke:rgb(0,0,255);stroke-width:1;stroke-miterlimit:4;stroke-dasharray:none"/>
		<rect id="rect_2026_05_19_13_05_30_927099" inkscape:label="bad_phi_-8824.86_-8883.51_p1_n234" x="-8829.858239" y="8948.512887" width="10" height="10" style="fill:none;stroke:rgb(0,0,255);stroke-width:1;stroke-miterlimit:4;stroke-dasharray:none"/>
		<rect id="rect_2026_05_19_13_05_30_927125" inkscape:label="bad_phi_-8820.51_-8871.44_p1_n208" x="-8825.512187" y="8936.438903" width="10" height="10" style="fill:none;stroke:rgb(0,0,255);stroke-width:1;stroke-miterlimit:4;stroke-dasharray:none"/>
		<rect id="rect_2026_05_19_13_05_30_927148" inkscape:label="bad_phi_-8820.35_-8870.98_p1_n207" x="-8825.346924" y="8935.982111" width="10" height="10" style="fill:none;stroke:rgb(0,0,255);stroke-width:1;stroke-miterlimit:4;stroke-dasharray:none"/>
		<rect id="rect_2026_05_19_13_05_30_927173" inkscape:label="bad_phi_-8819.28_-8868.73_p1_n202" x="-8824.281812" y="8933.729876" width="10" height="10" style="fill:none;stroke:rgb(0,0,255);stroke-width:1;stroke-miterlimit:4;stroke-dasharray:none"/>
		<rect id="rect_2026_05_19_13_05_30_927205" inkscape:label="bad_phi_-8807.40_-8838.97_p1_n137" x="-8812.401826" y="8903.973327" width="10" height="10" style="fill:none;stroke:rgb(0,0,255);stroke-width:1;stroke-miterlimit:4;stroke-dasharray:none"/>
		<rect id="rect_2026_05_19_13_05_30_927229" inkscape:label="bad_phi_-8806.74_-8838.26_p1_n135" x="-8811.736145" y="8903.264328" width="10" height="10" style="fill:none;stroke:rgb(0,0,255);stroke-width:1;stroke-miterlimit:4;stroke-dasharray:none"/>
		<rect id="rect_2026_05_19_13_05_30_927251" inkscape:label="bad_phi_-8806.34_-8837.99_p1_n134" x="-8811.339419" y="8902.993902" width="10" height="10" style="fill:none;stroke:rgb(0,0,255);stroke-width:1;stroke-miterlimit:4;stroke-dasharray:none"/>
		<rect id="rect_2026_05_19_13_05_30_927276" inkscape:label="bad_phi_-8805.88_-8837.86_p1_n133" x="-8810.875558" y="8902.85661" width="10" height="10" style="fill:none;stroke:rgb(0,0,255);stroke-width:1;stroke-miterlimit:4;stroke-dasharray:none"/>
		<rect id="rect_2026_05_19_13_05_30_927311" inkscape:label="bad_phi_-8802.56_-8838.56_p1_n126" x="-8807.558474" y="8903.561271" width="10" height="10" style="fill:none;stroke:rgb(0,0,255);stroke-width:1;stroke-miterlimit:4;stroke-dasharray:none"/>
		<rect id="rect_2026_05_19_13_05_30_927341" inkscape:label="bad_phi_-8802.02_-8838.67_p1_n125" x="-8807.019335" y="8903.672455" width="10" height="10" style="fill:none;stroke:rgb(0,0,255);stroke-width:1;stroke-miterlimit:4;stroke-dasharray:none"/>
		<rect id="rect_2026_05_19_13_05_30_927366" inkscape:label="bad_phi_-8801.53_-8838.73_p1_n124" x="-8806.533093" y="8903.728589" width="10" height="10" style="fill:none;stroke:rgb(0,0,255);stroke-width:1;stroke-miterlimit:4;stroke-dasharray:none"/>
		<rect id="rect_2026_05_19_13_05_30_927391" inkscape:label="bad_phi_-8801.07_-8838.62_p1_n123" x="-8806.072923" y="8903.615716" width="10" height="10" style="fill:none;stroke:rgb(0,0,255);stroke-width:1;stroke-miterlimit:4;stroke-dasharray:none"/>
		<rect id="rect_2026_05_19_13_05_30_927417" inkscape:label="bad_phi_-8800.66_-8838.41_p1_n122" x="-8805.664013" y="8903.411339" width="10" height="10" style="fill:none;stroke:rgb(0,0,255);stroke-width:1;stroke-miterlimit:4;stroke-dasharray:none"/>
		<rect id="rect_2026_05_19_13_05_30_927440" inkscape:label="bad_phi_-8800.28_-8838.11_p1_n121" x="-8805.283717" y="8903.114898" width="10" height="10" style="fill:none;stroke:rgb(0,0,255);stroke-width:1;stroke-miterlimit:4;stroke-dasharray:none"/>
		<rect id="rect_2026_05_19_13_05_30_927487" inkscape:label="bad_phi_-8794.40_-8825.01_p1_n092" x="-8799.404303" y="8890.009531" width="10" height="10" style="fill:none;stroke:rgb(0,0,255);stroke-width:1;stroke-miterlimit:4;stroke-dasharray:none"/>
		<rect id="rect_2026_05_19_13_05_30_927514" inkscape:label="bad_phi_-8794.21_-8824.55_p1_n091" x="-8799.212764" y="8889.546723" width="10" height="10" style="fill:none;stroke:rgb(0,0,255);stroke-width:1;stroke-miterlimit:4;stroke-dasharray:none"/>
		<rect id="rect_2026_05_19_13_05_30_927538" inkscape:label="bad_phi_-8793.88_-8823.13_p1_n088" x="-8798.883319" y="8888.132042" width="10" height="10" style="fill:none;stroke:rgb(0,0,255);stroke-width:1;stroke-miterlimit:4;stroke-dasharray:none"/>
		<rect id="rect_2026_05_19_13_05_30_927564" inkscape:label="bad_phi_-8793.50_-8822.22_p1_n086" x="-8798.497202" y="8887.217179" width="10" height="10" style="fill:none;stroke:rgb(0,0,255);stroke-width:1;stroke-miterlimit:4;stroke-dasharray:none"/>
		<rect id="rect_2026_05_19_13_05_30_927587" inkscape:label="bad_phi_-8793.28_-8821.81_p1_n085" x="-8798.276351" y="8886.809804" width="10" height="10" style="fill:none;stroke:rgb(0,0,255);stroke-width:1;stroke-miterlimit:4;stroke-dasharray:none"/>
		<rect id="rect_2026_05_19_13_05_30_927610" inkscape:label="bad_phi_-8791.60_-8820.98_p1_n081" x="-8796.600606" y="8885.97888" width="10" height="10" style="fill:none;stroke:rgb(0,0,255);stroke-width:1;stroke-miterlimit:4;stroke-dasharray:none"/>
		<rect id="rect_2026_05_19_13_05_30_927635" inkscape:label="bad_phi_-8791.15_-8820.80_p1_n080" x="-8796.154956" y="8885.798294" width="10" height="10" style="fill:none;stroke:rgb(0,0,255);stroke-width:1;stroke-miterlimit:4;stroke-dasharray:none"/>
		<rect id="rect_2026_05_19_13_05_30_927659" inkscape:label="bad_phi_-8790.62_-8820.79_p1_n079" x="-8795.623465" y="8885.794511" width="10" height="10" style="fill:none;stroke:rgb(0,0,255);stroke-width:1;stroke-miterlimit:4;stroke-dasharray:none"/>
		<rect id="rect_2026_05_19_13_05_30_927685" inkscape:label="bad_phi_-8788.03_-8822.04_p1_n073" x="-8793.032145" y="8887.040406" width="10" height="10" style="fill:none;stroke:rgb(0,0,255);stroke-width:1;stroke-miterlimit:4;stroke-dasharray:none"/>
		<rect id="rect_2026_05_19_13_05_30_927709" inkscape:label="bad_phi_-8787.13_-8822.51_p1_n071" x="-8792.128985" y="8887.505124" width="10" height="10" style="fill:none;stroke:rgb(0,0,255);stroke-width:1;stroke-miterlimit:4;stroke-dasharray:none"/>
		<rect id="rect_2026_05_19_13_05_30_927733" inkscape:label="bad_phi_-8786.67_-8822.56_p1_n070" x="-8791.670445" y="8887.555565999999" width="10" height="10" style="fill:none;stroke:rgb(0,0,255);stroke-width:1;stroke-miterlimit:4;stroke-dasharray:none"/>
		<rect id="rect_2026_05_19_13_05_30_927758" inkscape:label="bad_phi_-8786.28_-8822.32_p1_n069" x="-8791.27514" y="8887.324083" width="10" height="10" style="fill:none;stroke:rgb(0,0,255);stroke-width:1;stroke-miterlimit:4;stroke-dasharray:none"/>
		<rect id="rect_2026_05_19_13_05_30_927781" inkscape:label="bad_phi_-8783.48_-8816.63_p1_n056" x="-8788.47777" y="8881.625423" width="10" height="10" style="fill:none;stroke:rgb(0,0,255);stroke-width:1;stroke-miterlimit:4;stroke-dasharray:none"/>
		<rect id="rect_2026_05_19_13_05_30_927804" inkscape:label="bad_phi_-8782.77_-8814.78_p1_n052" x="-8787.768321" y="8879.783465" width="10" height="10" style="fill:none;stroke:rgb(0,0,255);stroke-width:1;stroke-miterlimit:4;stroke-dasharray:none"/>
		<rect id="rect_2026_05_19_13_05_30_927828" inkscape:label="bad_phi_-8782.71_-8813.78_p1_n050" x="-8787.70786" y="8878.778247" width="10" height="10" style="fill:none;stroke:rgb(0,0,255);stroke-width:1;stroke-miterlimit:4;stroke-dasharray:none"/>
		<rect id="rect_2026_05_19_13_05_30_927854" inkscape:label="bad_phi_-8782.78_-8813.29_p1_n049" x="-8787.775056" y="8878.292095" width="10" height="10" style="fill:none;stroke:rgb(0,0,255);stroke-width:1;stroke-miterlimit:4;stroke-dasharray:none"/>
		<rect id="rect_2026_05_19_13_05_30_927880" inkscape:label="bad_phi_-8782.98_-8812.88_p1_n048" x="-8787.982539" y="8877.879534" width="10" height="10" style="fill:none;stroke:rgb(0,0,255);stroke-width:1;stroke-miterlimit:4;stroke-dasharray:none"/>
		<rect id="rect_2026_05_19_13_05_30_927904" inkscape:label="bad_phi_-8785.13_-8811.58_p1_n043" x="-8790.133567" y="8876.577123" width="10" height="10" style="fill:none;stroke:rgb(0,0,255);stroke-width:1;stroke-miterlimit:4;stroke-dasharray:none"/>
		<rect id="rect_2026_05_19_13_05_30_927926" inkscape:label="bad_phi_-8785.58_-8811.36_p1_n042" x="-8790.577363" y="8876.356271" width="10" height="10" style="fill:none;stroke:rgb(0,0,255);stroke-width:1;stroke-miterlimit:4;stroke-dasharray:none"/>
		<rect id="rect_2026_05_19_13_05_30_927953" inkscape:label="bad_phi_-8786.04_-8811.21_p1_n041" x="-8791.03726" y="8876.206409" width="10" height="10" style="fill:none;stroke:rgb(0,0,255);stroke-width:1;stroke-miterlimit:4;stroke-dasharray:none"/>
		<rect id="rect_2026_05_19_13_05_30_927976" inkscape:label="bad_phi_-8786.51_-8811.11_p1_n040" x="-8791.509404" y="8876.108424" width="10" height="10" style="fill:none;stroke:rgb(0,0,255);stroke-width:1;stroke-miterlimit:4;stroke-dasharray:none"/>
		<rect id="rect_2026_05_19_13_05_30_928021" inkscape:label="bad_phi_-8787.02_-8810.94_p1_n039" x="-8792.020267" y="8875.943113" width="10" height="10" style="fill:none;stroke:rgb(0,0,255);stroke-width:1;stroke-miterlimit:4;stroke-dasharray:none"/>
		<rect id="rect_2026_05_19_13_05_30_928088" inkscape:label="bad_phi_-8794.07_-8807.34_p1_n023" x="-8799.068671" y="8872.335936" width="10" height="10" style="fill:none;stroke:rgb(0,0,255);stroke-width:1;stroke-miterlimit:4;stroke-dasharray:none"/>
		<rect id="rect_2026_05_19_13_05_30_928116" inkscape:label="bad_phi_-8796.81_-8806.12_p1_n017" x="-8801.807743" y="8871.11574" width="10" height="10" style="fill:none;stroke:rgb(0,0,255);stroke-width:1;stroke-miterlimit:4;stroke-dasharray:none"/>
		<rect id="rect_2026_05_19_13_05_30_928142" inkscape:label="bad_phi_-8797.22_-8805.87_p1_n016" x="-8802.220371" y="8870.872701" width="10" height="10" style="fill:none;stroke:rgb(0,0,255);stroke-width:1;stroke-miterlimit:4;stroke-dasharray:none"/>
		<rect id="rect_2026_05_19_13_05_30_928167" inkscape:label="bad_phi_-8797.63_-8805.55_p1_n015" x="-8802.630751" y="8870.554477" width="10" height="10" style="fill:none;stroke:rgb(0,0,255);stroke-width:1;stroke-miterlimit:4;stroke-dasharray:none"/>
		<rect id="rect_2026_05_19_13_05_30_928193" inkscape:label="bad_phi_-8797.84_-8805.12_p1_n014" x="-8802.835554" y="8870.121498" width="10" height="10" style="fill:none;stroke:rgb(0,0,255);stroke-width:1;stroke-miterlimit:4;stroke-dasharray:none"/>
		<rect id="rect_2026_05_19_13_05_30_928217" inkscape:label="bad_phi_-8797.81_-8804.63_p1_n013" x="-8802.814189" y="8869.633955" width="10" height="10" style="fill:none;stroke:rgb(0,0,255);stroke-width:1;stroke-miterlimit:4;stroke-dasharray:none"/>
		<rect id="rect_2026_05_19_13_05_30_928239" inkscape:label="bad_phi_-8797.37_-8803.79_p1_n011" x="-8802.369001" y="8868.787654" width="10" height="10" style="fill:none;stroke:rgb(0,0,255);stroke-width:1;stroke-miterlimit:4;stroke-dasharray:none"/>
		<rect id="rect_2026_05_19_13_05_30_928269" inkscape:label="bad_phi_-8797.16_-8803.30_p1_n010" x="-8802.161394" y="8868.29675" width="10" height="10" style="fill:none;stroke:rgb(0,0,255);stroke-width:1;stroke-miterlimit:4;stroke-dasharray:none"/>
		<rect id="rect_2026_05_19_13_05_30_928293" inkscape:label="bad_phi_-8797.04_-8802.82_p1_n009" x="-8802.035696" y="8867.815242" width="10" height="10" style="fill:none;stroke:rgb(0,0,255);stroke-width:1;stroke-miterlimit:4;stroke-dasharray:none"/>
		<rect id="rect_2026_05_19_13_05_30_928317" inkscape:label="bad_phi_-8796.96_-8802.37_p1_n008" x="-8801.959344" y="8867.365458" width="10" height="10" style="fill:none;stroke:rgb(0,0,255);stroke-width:1;stroke-miterlimit:4;stroke-dasharray:none"/>
		<rect id="rect_2026_05_19_13_05_30_928342" inkscape:label="bad_phi_-8797.10_-8801.85_p1_n007" x="-8802.096549" y="8866.853178" width="10" height="10" style="fill:none;stroke:rgb(0,0,255);stroke-width:1;stroke-miterlimit:4;stroke-dasharray:none"/>
		<rect id="rect_2026_05_19_13_05_30_928366" inkscape:label="bad_phi_-8797.42_-8801.52_p1_n006" x="-8802.416555" y="8866.516723" width="10" height="10" style="fill:none;stroke:rgb(0,0,255);stroke-width:1;stroke-miterlimit:4;stroke-dasharray:none"/>
	</g>
	<g id="layer_2026_05_19_13_05_30_928444" inkscape:label="paths" inkscape:groupmode="layer" style="display:inline;stroke-dashoffset:0;stroke-dasharray:none" marker-end="url(#marker_trapezium)">
		<path id="path_2026_05_19_13_05_30_928444" inkscape:label="path1_map_argos_holofre_20260514.txt" style="fill:none;stroke:#ff00ff;stroke-width:0.4;stroke-linecap:butt;stroke-linejoin:miter;stroke-miterlimit:4;stroke-opacity:1;stroke-dashoffset:0;stroke-dasharray:none" sodipodi:nodetypes="caaaaaaaaaaaaaaaaaaaaaaaaaaaaaaaaaaaaaaaaaaaaaaaaaaaaaaaaaaaaaaaaaaaaaaaaaaaaaaaaaaaaaaaaaaaaaaaaaaaaaaaaaaaaaaaaaaaaaaaaaaaaaaaaaaaaaaaaaaaaaaaaaaaaaaaaaaaaaaaaaaaaaaaaaaaaaaaaaaaaaaaaaaaaaaaaaaaaaaaaaaaaaaaaaaaaaaaaaaaaaaaaaaaaaaaaaaaaaaaaaaaaaaaaaaaaaaaaaaaaaaaaaaaaaaaaaaaaaaaaaaaaaaaaaaaaaaaaaaaaaaaaaaaaaaaaaaaaaaaaaaaaaaaaaaaaaaaaaaaaaaaaaaaaaaaaaaaaaaaaaaaaaaaaaaaaaaaaaaaaaaaaaaaaaaaaaaaaaaaaaaaaaaaaaaaaaaaaaaaaaaaaaaaaaaaaaaaaaaaaaaaaaaaaaaaaaaaaaaaaaaaaaaaaaaaaaaaaaaaaaaaaaaaaaaaaaaaaaaaaaaaaaaaaaaaaaaaaaaaaaaaaaaaaaaaaaaaaaaaaaaaaaaaaaaaaaaaaaaaaaaaaaaaaaaaaaaaaaaaaaaaaaaaaaaaaaaaaaaaaaaaaaaaaaaaaaaaaaaaaaaaaaaaaaaaaaaaaaaaaaaaaaaaaaaaaaaaaaaaaaaaaaaaaaaaaaaaaaaaaaaaaaaaaaaaaaaaaaaaaaaaaaac" inkscape:connector-curvature="0" d="M -8800.006401,8869.995408 C 
-8799.854852325941,8870.094174565736 -8799.665810560073,8870.122415065856 -8799.509336,8870.213176 
-8799.368465204136,8870.294886183561 -8799.219523071748,8870.36256361512 -8799.081152,8870.448439 
-8798.944642016597,8870.533159362549 -8798.815906912783,8870.630564310315 -8798.67588,8870.709336 
-8798.53296737224,8870.78973103937 -8798.401155374826,8870.888795118954 -8798.258735,8870.970059 
-8798.120578525159,8871.048889935188 -8797.99057851335,8871.141407453866 -8797.852992,8871.221229 
-8797.701027328661,8871.309392110823 -8797.539988029197,8871.391701870793 -8797.416555,8871.516723 
-8797.307812274074,8871.626864819227 -8797.155455938226,8871.710048082046 -8797.096549,8871.853178 
-8797.029268822376,8872.016652907934 -8796.962171157138,8872.188702024125 -8796.959344,8872.365458 
-8796.956911953428,8872.517511368154 -8797.013338432313,8872.664821653023 -8797.035696,8872.815242 
-8797.060083698865,8872.979320945282 -8797.098771654637,8873.143143027495 -8797.161394,8873.29675 
-8797.228465219554,8873.461269660167 -8797.270356715699,8873.639888739372 -8797.369001,8873.787654 
-8797.457015785725,8873.91949668956 -8797.520791565823,8874.066020499962 -8797.599291,8874.203741 
-8797.6786711664,8874.343006668912 -8797.783902192132,8874.476542018881 -8797.814189,8874.633955 
-8797.844923620078,8874.793695445109 -8797.90083025772,8874.97249921862 -8797.835554,8875.121498 
-8797.771486657693,8875.267737325954 -8797.743219269212,8875.441156863986 -8797.630751,8875.554477 
-8797.508812177935,8875.67733942154 -8797.36521686051,8875.777917416788 -8797.220371,8875.872701 
-8797.086799627812,8875.960106834214 -8796.958330557542,8876.062782669665 -8796.807743,8876.11574 
-8796.635965243588,8876.176149316274 -8796.487702602386,8876.29550143357 -8796.313412,8876.348224 
-8796.161792390145,8876.39408863552 -8796.03236855644,8876.498574162184 -8795.881061,8876.545458 
-8795.72438133711,8876.594006427302 -8795.580863484534,8876.678796765245 -8795.425703,8876.732001 
-8795.282654711082,8876.781051985938 -8795.147488543369,8876.850825418578 -8795.006186999999,8876.904702 
-8794.836299443861,8876.969478084768 -8794.681432926589,8877.069980415754 -8794.511207,8877.133862 
-8794.359382647772,8877.190837928061 -8794.213273070267,8877.262538918432 -8794.068671,8877.335936 
-8793.926947953094,8877.407871747633 -8793.78846726633,8877.486327541734 -8793.644712,8877.554111 
-8793.493402918473,8877.625456231899 -8793.354063479723,8877.720771255641 -8793.201934,8877.79035 
-8793.055083836478,8877.857514168347 -8792.916512862925,8877.941515098646 -8792.772424,8878.014415 
-8792.623047532705,8878.089990096572 -8792.47749893029,8878.173214161256 -8792.326227,8878.24492 
-8792.171273989921,8878.318370742198 -8792.031272554386,8878.420861026792 -8791.876561000001,8878.494819 
-8791.731370592925,8878.564225504764 -8791.592740514005,8878.646763311472 -8791.448049999999,8878.717206 
-8791.29311087945,8878.792638230545 -8791.14912461745,8878.88931355522 -8790.994153,8878.964679 
-8790.842064030565,8879.038642561949 -8790.692350388066,8879.117439566893 -8790.540025,8879.190915 
-8790.396180725842,8879.260299496425 -8790.262444793536,8879.34928742275 -8790.119437,8879.42038 
-8789.968817147706,8879.495256712798 -8789.823499050864,8879.580452916187 -8789.673312,8879.656194 
-8789.52231730859,8879.732342386373 -8789.373813275904,8879.8134429339 -8789.22178,8879.887496 
-8789.082119455856,8879.955522499105 -8788.946887338703,8880.03229547602 -8788.808852,8880.103562 
-8788.6547234156,8880.183137335993 -8788.50797697106,8880.276904501488 -8788.35166,8880.35209 
-8788.192216601363,8880.428779250884 -8788.05235290789,8880.54402228865 -8787.889411,8880.612967000001 
-8787.755814444286,8880.669494974236 -8787.623419949212,8880.728844603735 -8787.489663,8880.784992 
-8787.337427394274,8880.8488962153 -8787.179786554056,8880.900534363835 -8787.020267,8880.943113 
-8786.84733984462,8880.989270365946 -8786.687813459546,8881.094128257871 -8786.509404,8881.108424 
-8786.349182760629,8881.121262341238 -8786.194771562652,8881.174381259181 -8786.03726,8881.206409 
-8785.87926049326,8881.238535957324 -8785.723651915112,8881.288480596311 -8785.577363,8881.356271 
-8785.42744059186,8881.42574516735 -8785.274102178006,8881.4902135521 -8785.133567,8881.577123 
-8784.989342213805,8881.666314167078 -8784.840619136328,8881.748051641787 -8784.692686,8881.830947 
-8784.544973961312,8881.913718464619 -8784.40286324405,8882.006396055436 -8784.253727,8882.086573 
-8784.114166472822,8882.161601955719 -8783.979984693975,8882.246336346501 -8783.840688,8882.321854 
-8783.685328630234,8882.406079796887 -8783.533822409025,8882.497270816462 -8783.378737,8882.582 
-8783.233798004181,8882.661185803847 -8783.072299408519,8882.740894997181 -8782.982539,8882.879534 
-8782.898880502846,8883.00874832527 -8782.816536033213,8883.143857039795 -8782.775056,8883.292095 
-8782.730973095808,8883.449634888262 -8782.700494881708,8883.614821561747 -8782.70786,8883.778247 
-8782.715165460919,8883.94034869411 -8782.647997933991,8884.100105276924 -8782.655347,8884.262204999999 
-8782.663399020827,8884.4398099289 -8782.705017947515,8884.617329304394 -8782.768321,8884.783465 
-8782.822668126182,8884.926096314892 -8782.867408160964,8885.072309036888 -8782.910549,8885.21872 
-8782.956035199306,8885.373090624158 -8783.01635872218,8885.522753286456 -8783.074052,8885.672989 
-8783.138961519004,8885.842016108043 -8783.218904974286,8886.004988570687 -8783.284497,8886.173752 
-8783.343821817663,8886.326390366683 -8783.396961941817,8886.482987180392 -8783.47777,8886.625423 
-8783.552192035457,8886.756602536489 -8783.620955639317,8886.891032969213 -8783.686355,8887.026936 
-8783.765009981522,8887.190384851237 -8783.842702331283,8887.354329962587 -8783.924577,8887.51619 
-8783.999402632015,8887.664114624149 -8784.058729307904,8887.819577302756 -8784.134274,8887.967136 
-8784.210111204937,8888.115266051926 -8784.278915023724,8888.266915168504 -8784.354073,8888.415391 
-8784.428762085117,8888.562940529218 -8784.50089762421,8888.711769098929 -8784.574616,8888.859806 
-8784.646241949247,8889.003641013307 -8784.7198130407,8889.146510255789 -8784.794351,8889.288858 
-8784.874109844928,8889.44117625184 -8784.91442552175,8889.611709189045 -8784.990284,8889.766007 
-8785.058749486518,8889.905267303393 -8785.127153875024,8890.044592264057 -8785.198975,8890.182152 
-8785.272384772416,8890.322754488647 -8785.347448130131,8890.462511734693 -8785.418839,8890.60415 
-8785.490172807311,8890.745675054166 -8785.558360702682,8890.888809022315 -8785.624148,8891.032996 
-8785.688848755733,8891.17480158867 -8785.784872035078,8891.300978198085 -8785.848474,8891.44328 
-8785.915998043747,8891.59435698496 -8785.925696593542,8891.76759882453 -8785.996675,8891.917084 
-8786.0671819961,8892.065576354362 -8786.15496083969,8892.2119304912 -8786.27514,8892.324083 
-8786.386777574284,8892.428264407163 -8786.520706078394,8892.525649968396 -8786.670445,8892.555565999999 
-8786.821233764927,8892.585691777645 -8786.984064670492,8892.556533261835 -8787.128985,8892.505124 
-8787.282317789552,8892.450730489078 -8787.415627899583,8892.349191498124 -8787.567437,8892.29068 
-8787.731604092147,8892.227405384197 -8787.87742720762,8892.124173033313 -8788.032145,8892.040406 
-8788.175707287532,8891.96267876038 -8788.320827642245,8891.887831236734 -8788.463855,8891.809124 
-8788.61852569315,8891.724009494268 -8788.770073612397,8891.633321500442 -8788.922081,8891.543537 
-8789.045830534284,8891.47044324916 -8789.17866580685,8891.41360281491 -8789.302921,8891.341372 
-8789.438444912004,8891.262590563541 -8789.591318529252,8891.217326818442 -8789.72915,8891.142656 
-8789.869283225205,8891.066738195741 -8790.003686961187,8890.978758358695 -8790.150358,8890.916401 
-8790.30022771403,8890.852683720905 -8790.46166748569,8890.813014707783 -8790.623465,8890.794511 
-8790.799485807478,8890.774380668585 -8790.98315544018,8890.755014414126 -8791.154956,8890.798294 
-8791.310382788644,8890.837448744625 -8791.453101172618,8890.916167110145 -8791.600606,8890.97888 
-8791.755091124518,8891.04456062056 -8791.89847832995,8891.134567185509 -8792.053069,8891.199999 
-8792.187885510419,8891.257061233428 -8792.320894355928,8891.318350657762 -8792.453602,8891.380159 
-8792.589889541538,8891.443634672927 -8792.747455845249,8891.45040400167 -8792.885677,8891.509551 
-8793.03667477475,8891.574165314263 -8793.188267973539,8891.671179622503 -8793.276351,8891.809804 
-8793.359189731726,8891.940174947496 -8793.439274497805,8892.073989461574 -8793.497202,8892.217179 
-8793.560617065972,8892.373933109566 -8793.671936074368,8892.50766834389 -8793.741243,8892.661908 
-8793.80834294158,8892.811236105672 -8793.855279720063,8892.970750078057 -8793.883319,8893.132042 
-8793.90821431866,8893.275248737229 -8793.945104954819,8893.416109417027 -8793.976104,8893.55812 
-8794.012052063386,8893.722802667104 -8794.045612092912,8893.888004982698 -8794.082239,8894.052538 
-8794.119260666312,8894.21884432909 -8794.152820134386,8894.387239045172 -8794.212764,8894.546723 
-8794.271505308268,8894.703007484803 -8794.32574966706,8894.862205661477 -8794.404303,8895.009531 
-8794.483241285896,8895.157578310744 -8794.556344151295,8895.308664603857 -8794.632845,8895.457986 
-8794.705061496243,8895.59894480276 -8794.772251660619,8895.74243324936 -8794.843856,8895.883704 
-8794.918986492494,8896.031931623667 -8795.008431157517,8896.17262327095 -8795.083237,8896.321015 
-8795.15919042305,8896.471683175101 -8795.232373642222,8896.624024250861 -8795.296382,8896.780142 
-8795.357379940735,8896.928917277797 -8795.419128659738,8897.077407782823 -8795.483518000001,8897.224747 
-8795.552300602665,8897.382139120975 -8795.614157449012,8897.542535520206 -8795.684675,8897.699158 
-8795.754066872452,8897.853280299893 -8795.83276056806,8898.003282194883 -8795.897241,8898.159523 
-8795.96188267456,8898.316154507786 -8796.014585431947,8898.477761057844 -8796.084456,8898.632131 
-8796.145609583626,8898.767241897622 -8796.19053142673,8898.909196814671 -8796.248546,8899.045685000001 
-8796.313779518077,8899.199156860657 -8796.373201428052,8899.35505179746 -8796.438144,8899.508647 
-8796.5037262986,8899.663755215377 -8796.571361256543,8899.818009990713 -8796.634987,8899.973931 
-8796.698888926489,8900.130528822394 -8796.779027927243,8900.280043291565 -8796.846929,8900.434949 
-8796.909733368022,8900.578227371409 -8796.947613964014,8900.731389407523 -8797.006883,8900.876166 
-8797.073450315916,8901.038770115427 -8797.147891350347,8901.198040628131 -8797.219335,8901.358562 
-8797.286900226054,8901.510369233109 -8797.328940166644,8901.67280800546 -8797.398066,8901.823911 
-8797.461973930529,8901.96360811769 -8797.497199484442,8902.114839198972 -8797.553482,8902.257779 
-8797.617040212339,8902.419196771314 -8797.65643542971,8902.590446798285 -8797.731664,8902.746767 
-8797.804401270248,8902.897910438107 -8797.849621603378,8903.060995760625 -8797.917114,8903.214553 
-8797.984489721208,8903.367844782002 -8798.040709732995,8903.525858354416 -8798.107263,8903.679509 
-8798.1711489586,8903.827001666014 -8798.214222578676,8903.983408022948 -8798.284571,8904.12793 
-8798.35277838444,8904.268053486263 -8798.386484747327,8904.422911662099 -8798.45018,8904.565143 
-8798.519331093235,8904.719557216058 -8798.573752953182,8904.880350240446 -8798.644356,8905.034106 
-8798.713818532542,8905.185378005006 -8798.739182330708,8905.356013373597 -8798.819803,8905.501645 
-8798.8970251784,8905.64113765782 -8798.962371922757,8905.786912609892 -8799.036885,8905.927871 
-8799.116109658306,8906.077742414587 -8799.187174336683,8906.231961781186 -8799.270174,8906.379776 
-8799.352924377577,8906.527146265487 -8799.431560937179,8906.67698757907 -8799.520349,8906.820801 
-8799.60688740301,8906.960970560898 -8799.673475877033,8907.112970382814 -8799.762137,8907.251807 
-8799.852783803362,8907.393753042597 -8799.915128165678,8907.552252122954 -8800.002548,8907.696208 
-8800.089808049906,8907.839900757057 -8800.17086854576,8907.990290010224 -8800.283717,8908.114898 
-8800.391608475395,8908.234032461818 -8800.523644948173,8908.33304212598 -8800.664013,8908.411339 
-8800.797090378595,8908.48556915858 -8800.92681226658,8908.572456796168 -8801.072923,8908.615716 
-8801.224361932002,8908.660552730844 -8801.375211870643,8908.724390005838 -8801.533093,8908.728589 
-8801.696192479332,8908.73292678099 -8801.858825931567,8908.701731192597 -8802.019335,8908.672455 
-8802.19985153146,8908.6395295286 -8802.383621892835,8908.616922104371 -8802.558474,8908.561271 
-8802.697533432309,8908.517011819447 -8802.837986757686,8908.476164381504 -8802.980563,8908.445045 
-8803.143085174122,8908.409572122771 -8803.29501044526,8908.334052114502 -8803.45728,8908.297441 
-8803.61860038032,8908.261044037397 -8803.772616247195,8908.195820638288 -8803.93431,8908.16112 
-8804.088716428294,8908.127983273784 -8804.245102740804,8908.10463137241 -8804.399637,8908.072096 
-8804.56564591977,8908.037144772641 -8804.737273063587,8908.031041741602 -8804.901984,8907.990411 
-8805.062517418764,8907.95081076459 -8805.221198685447,8907.902680968225 -8805.383647999999,8907.871869 
-8805.54482332884,8907.841298670266 -8805.716663200132,8907.815812031156 -8805.875558,8907.85661 
-8806.031742551444,8907.896712083071 -8806.196690756708,8907.918865743814 -8806.339419,8907.993902 
-8806.481077610562,8908.068375920144 -8806.605395677128,8908.172034222871 -8806.736145,8908.264328 
-8806.876334475692,8908.363285424339 -8806.963089571174,8908.525136766044 -8807.100258,8908.628241 
-8807.22237059123,8908.720028339716 -8807.334050926369,8908.836422142294 -8807.401826,8908.973327 
-8807.473275171536,8909.117653492594 -8807.519383155783,8909.273368516297 -8807.586266,8909.419867 
-8807.658517135364,8909.578124052317 -8807.727167616285,8909.738006436597 -8807.799174,8909.896375 
-8807.863954008291,8910.038850101808 -8807.916885635772,8910.186448953245 -8807.978982,8910.330114 
-8808.047329451872,8910.488241452242 -8808.114558500569,8910.646902269178 -8808.186891,8910.803247 
-8808.253111223905,8910.946380213467 -8808.299214983683,8911.098235522175 -8808.364981,8911.241578 
-8808.436181871462,8911.396766194608 -8808.48725899147,8911.560523171516 -8808.554904,8911.717294 
-8808.6191761074,8911.866247954542 -8808.683884967391,8912.015043621785 -8808.751742,8912.162399 
-8808.826311126517,8912.32433006917 -8808.88545351086,8912.493137573983 -8808.961585000001,8912.654340000001 
-8809.026035254596,8912.79080833282 -8809.087679055741,8912.928588226789 -8809.151846,8913.06519 
-8809.220156047862,8913.210611817634 -8809.27450736345,8913.36224955705 -8809.340539,8913.50872 
-8809.41400540444,8913.671682140006 -8809.456412045887,8913.847284201147 -8809.526717,8914.011635 
-8809.591206354275,8914.16239076147 -8809.65965534796,8914.311430758378 -8809.724279,8914.462129 
-8809.785224627158,8914.604250321792 -8809.83235462066,8914.752085940901 -8809.894545,8914.893667 
-8809.969889271968,8915.065193881414 -8810.042500860265,8915.238068379585 -8810.124716,8915.40641 
-8810.185585623922,8915.531045087382 -8810.206734333076,8915.672305509845 -8810.265138,8915.798115 
-8810.340832195163,8915.96117065391 -8810.397485866944,8916.132746943034 -8810.475559,8916.294677 
-8810.54613426091,8916.441055857516 -8810.603184655922,8916.593700976493 -8810.673716,8916.740101 
-8810.744245586646,8916.886497375654 -8810.792908482272,8917.042759885471 -8810.863214,8917.189264 
-8810.932725753235,8917.334114051408 -8810.988300451621,8917.485305532495 -8811.055421000001,8917.631279 
-8811.12814974377,8917.789449145685 -8811.179563688958,8917.9568874067 -8811.252949,8918.114754 
-8811.32312947023,8918.265726334845 -8811.38401226681,8918.420857393485 -8811.451334,8918.573126 
-8811.518827545648,8918.725783212727 -8811.554384851055,8918.891326899633 -8811.622609,8919.043659 
-8811.69009620704,8919.194345643295 -8811.733443635774,8919.355193035039 -8811.802524,8919.505156 
-8811.867967299446,8919.64722345045 -8811.914861403708,8919.797195400797 -8811.976265,8919.941055 
-8812.044181793155,8920.100174061949 -8812.10659856184,8920.261623859007 -8812.175746,8920.420212 
-8812.239428095818,8920.566265497555 -8812.282922934743,8920.720392641655 -8812.342062,8920.868344 
-8812.401439135048,8921.016890950254 -8812.454504096797,8921.167909162998 -8812.513864,8921.316463 
-8812.578025815386,8921.477034081665 -8812.61852495197,8921.646361461446 -8812.681988,8921.80721 
-8812.741437734312,8921.957886703658 -8812.79376971625,8922.111549402503 -8812.859967,8922.259386 
-8812.931589643536,8922.419338906286 -8812.979221617697,8922.589293380404 -8813.050205,8922.749531 
-8813.112085927076,8922.889220771485 -8813.169937725086,8923.030661212211 -8813.229451,8923.171376 
-8813.298416621737,8923.334440170836 -8813.338136800594,8923.509059157732 -8813.40968,8923.671009 
-8813.469549751684,8923.806534066289 -8813.509878858864,8923.950079331686 -8813.568556,8924.086125 
-8813.63814442596,8924.247468987342 -8813.689398986247,8924.416304822682 -8813.75875,8924.577751 
-8813.82512766446,8924.73227534805 -8813.880076411211,8924.89152292399 -8813.945667,8925.046383 
-8814.003359267925,8925.182595056653 -8814.037932066352,8925.328395845045 -8814.102141,8925.46166 
-8814.181662274894,8925.62670456464 -8814.254584110999,8925.794894469129 -8814.335137,8925.959438 
-8814.403143080604,8926.098352454366 -8814.474581682733,8926.235645536965 -8814.538925,8926.376294 
-8814.609755938363,8926.531123794906 -8814.626416615743,8926.707432173203 -8814.699684,8926.861124 
-8814.764559198687,8926.997211672588 -8814.840620379275,8927.127852092799 -8814.903592,8927.264831 
-8814.974836950803,8927.419806453901 -8815.005380111446,8927.591831856682 -8815.080393,8927.745019 
-8815.153744934487,8927.894814235426 -8815.202739598855,8928.055681154237 -8815.275162,8928.205928 
-8815.339476563218,8928.339354399943 -8815.36507700398,8928.489288032126 -8815.429888,8928.622474 
-8815.51006708392,8928.78724123937 -8815.5608632692,8928.965072440908 -8815.638135,8929.131223 
-8815.699145894367,8929.262409322668 -8815.752518898033,8929.397035593533 -8815.812368,8929.528756 
-8815.88264899034,8929.683435691262 -8815.9318736357,8929.847063066265 -8816.00107,8930.002231 
-8816.072354770984,8930.162082037441 -8816.099220158289,8930.339764025839 -8816.173975,8930.498022 
-8816.240904570037,8930.63971366736 -8816.302667754822,8930.783798301774 -8816.365149,8930.927507 
-8816.434551913253,8931.087135738004 -8816.483229787142,8931.255362529286 -8816.554641,8931.414103 
-8816.616502205583,8931.551614694592 -8816.65923198923,8931.697099882884 -8816.718759,8931.835638 
-8816.782469267904,8931.983911875035 -8816.82665259757,8932.13996133727 -8816.887686,8932.289357 
-8816.953850052445,8932.451311308138 -8816.991650607619,8932.623853951725 -8817.056957,8932.786156 
-8817.113297685626,8932.926176116638 -8817.16318043684,8933.068803179864 -8817.222142,8933.20774 
-8817.289328885669,8933.36605894118 -8817.33223385689,8933.534209872647 -8817.403028,8933.690949 
-8817.464665418658,8933.827415023721 -8817.508674803688,8933.9711882938 -8817.563591,8934.110495 
-8817.629574000532,8934.27787502787 -8817.669898442122,8934.454877827025 -8817.739659,8934.620719 
-8817.801471752278,8934.767665923226 -8817.842371721847,8934.922796450099 -8817.903407,8935.070068 
-8817.969538861349,8935.229637056018 -8818.029923803877,8935.391539947186 -8818.095437,8935.551364 
-8818.152454626059,8935.690462511719 -8818.196971376608,8935.83442660774 -8818.252591,8935.97409 
-8818.314138179683,8936.128637754453 -8818.3623556742,8936.28824079197 -8818.42278,8936.443231 
-8818.482259448256,8936.59579756879 -8818.534598871756,8936.751104525338 -8818.595087,8936.903274 
-8818.65349895981,8937.050220475223 -8818.690901420741,8937.204834046086 -8818.746879,8937.352725 
-8818.811132367082,8937.52248031768 -8818.85764744733,8937.698727012 -8818.924673,8937.867407 
-8818.98613433612,8938.022083791557 -8819.042126553313,8938.17895431141 -8819.106383,8938.332491 
-8819.162282940953,8938.466060350143 -8819.208509204684,8938.605006969032 -8819.281812,8938.729876 
-8819.370221838702,8938.880479409316 -8819.416440709814,8939.053275944554 -8819.504357,8939.204168 
-8819.588652149358,8939.348845036802 -8819.641962557636,8939.51036063044 -8819.728415,8939.653759 
-8819.811029475839,8939.790791347654 -8819.89021282739,8939.929935409624 -8819.966331,8940.07068 
-8820.043591853597,8940.213537438884 -8820.089401357709,8940.371338691219 -8820.155433,8940.519721 
-8820.22325879056,8940.672135010145 -8820.29649839404,8940.823090162947 -8820.346924,8940.982111 
-8820.395868006515,8941.136459504824 -8820.446256879535,8941.291010485213 -8820.512187,8941.438903 
-8820.579467978449,8941.589825719844 -8820.617283602885,8941.752546664045 -8820.68124,8941.904908 
-8820.741729382149,8942.049009974018 -8820.791779127676,8942.1974294939 -8820.854642,8942.340512 
-8820.924338350984,8942.499148221925 -8820.943395835222,8942.67703297142 -8821.013758000001,8942.835375 
-8821.083682694943,8942.992732552602 -8821.139545865415,8943.155972577944 -8821.203562,8943.315825 
-8821.260057572916,8943.456898093911 -8821.281335174903,8943.610368200694 -8821.337188,8943.751697 
-8821.395757307257,8943.899899527922 -8821.439035252328,8944.053953602766 -8821.499995,8944.201189 
-8821.562578735158,8944.352346796057 -8821.596846329496,8944.514375345543 -8821.661501,8944.664659 
-8821.72558129321,8944.813607568873 -8821.740569930582,8944.980572528493 -8821.804303,8945.12967 
-8821.869766356473,8945.282815313974 -8821.91698899626,8945.443207682889 -8821.978943,8945.597806 
-8822.03818885011,8945.74564646502 -8822.098525219048,8945.893222241692 -8822.166343,8946.037332 
-8822.239938387323,8946.193718914032 -8822.25972142454,8946.372132259134 -8822.335457,8946.527494 
-8822.403250798205,8946.666564211653 -8822.448067349069,8946.816063447002 -8822.515729,8946.955198 
-8822.593589891569,8947.115305537951 -8822.653769305745,8947.283570568372 -8822.730531,8947.444208 
-8822.804267123884,8947.598513890114 -8822.832658158133,8947.771594644608 -8822.903738,8947.927142 
-8822.963147704,8948.057151044746 -8823.024950373287,8948.186081306401 -8823.082544,8948.316905 
-8823.153634586168,8948.478386983223 -8823.2100464462,8948.646030809721 -8823.279962,8948.808025 
-8823.341396585802,8948.950368805366 -8823.371222721311,8949.105178109547 -8823.434559,8949.246686 
-8823.503789101444,8949.401362053186 -8823.537333083572,8949.570022815733 -8823.601255,8949.726967 
-8823.667648384297,8949.889979251844 -8823.699190809655,8950.065580484596 -8823.762901,8950.22966 
-8823.818964570712,8950.37404637625 -8823.869023340858,8950.520701151283 -8823.923844,8950.665564 
-8823.98484314303,8950.826753408644 -8824.011346824413,8950.999565461807 -8824.071563,8951.161049 
-8824.131961511073,8951.323021512777 -8824.169446301497,8951.49301025244 -8824.231226,8951.654461 
-8824.284900794011,8951.794730956448 -8824.323741373799,8951.940324499643 -8824.375798000001,8952.081203 
-8824.435835048344,8952.243678556979 -8824.46933383571,8952.415097899328 -8824.528386,8952.577934 
-8824.58110404274,8952.723303786493 -8824.613111791523,8952.875736117961 -8824.66757,8953.020463 
-8824.729558702942,8953.185202750888 -8824.77701485037,8953.356731877342 -8824.858239,8953.512887 
-8824.931706159225,8953.65412914673 -8824.957783753003,8953.816180823667 -8825.025565,8953.960238 
-8825.096958262402,8954.111971882843 -8825.136364224063,8954.277274047488 -8825.205775,8954.429925 
-8825.271860606745,8954.57526310753 -8825.309736032877,8954.732150395215 -8825.372688,8954.878873 
-8825.43848828042,8955.032234189177 -8825.475263848833,8955.1971467254 -8825.543067,8955.349633 
-8825.61734071227,8955.516671279043 -8825.66720585487,8955.693740912224 -8825.739016,8955.861853 
-8825.801933667852,8956.009147236511 -8825.84233235692,8956.165446027708 -8825.906073,8956.312386 
-8825.968114941441,8956.455409990907 -8826.020675948988,8956.603392994963 -8826.096911,8956.739383 
-8826.177886695445,8956.883829486034 -8826.225464829902,8957.045233532568 -8826.304887,8957.19054 
-8826.382727272587,8957.332952314086 -8826.431411201622,8957.489976048888 -8826.508295,8957.632907 
-8826.581815204361,8957.769584856153 -8826.646707100177,8957.91074759019 -8826.713565,8958.050805 
-8826.78388674111,8958.198118644897 -8826.850896878586,8958.34700973903 -8826.922208,8958.493847 
-8826.994377566229,8958.642451891077 -8827.011086685747,8958.814315844482 -8827.085684,8958.961717 
-8827.160738707553,8959.110021945442 -8827.20711654642,8959.27180519531 -8827.283299,8959.419534 
-8827.354520328641,8959.557642465323 -8827.409508564704,8959.703645292277 -8827.47878,8959.842742 
-8827.54879872188,8959.983339255577 -8827.576415768895,8960.142323439344 -8827.644746,8960.283749 
-8827.714618123593,8960.428365871532 -8827.79075129025,8960.569899452106 -8827.860744,8960.714458 
-8827.937803410357,8960.873611667612 -8827.976758447086,8961.049355831929 -8828.05329,8961.208763999999 
-8828.117213364148,8961.341910473422 -8828.182506385188,8961.47441513279 -8828.244554,8961.608446 
-8828.31861943858,8961.768436919769 -8828.372350959147,8961.937465279942 -8828.448852,8962.096306 
-8828.509825183628,8962.222905903525 -8828.556594510697,8962.36074860064 -8828.646787,8962.468501 
-8828.754704564233,8962.597429434829 -8828.88566416259,8962.71681843943 -8829.039133,8962.785491999999 
-8829.191612650868,8962.853722923724 -8829.362668906677,8962.895299308318 -8829.52958,8962.888503 
-8829.70398341159,8962.881401618459 -8829.879100256141,8962.842941830102 -8830.041804,8962.77974 
-8830.175593484435,8962.72776983592 -8830.307669849824,8962.67138148232 -8830.44213,8962.621172 
-8830.59609060611,8962.563680748352 -8830.743322961374,8962.489568488036 -8830.894087,8962.424152 
-8831.057022467967,8962.35345433106 -8831.223009335507,8962.290006786294 -8831.387281,8962.222472 
-8831.545462990272,8962.157440779056 -8831.710656977973,8962.110110275018 -8831.867845,8962.042712 
-8832.015650815087,8961.97933657962 -8832.161845937833,8961.912187436474 -8832.310404,8961.850596 
-8832.453518826755,8961.791261301958 -8832.604635035761,8961.752429756765 -8832.747285,8961.691986 
-8832.905005014863,8961.62515674935 -8833.072685991823,8961.583904994262 -8833.230973,8961.51843 
-8833.364771066967,8961.463084790257 -8833.500811321283,8961.413286947321 -8833.634832,8961.358483 
-8833.791360627696,8961.294475066683 -8833.941168465617,8961.2148975488 -8834.097142999999,8961.149551 
-8834.258913313102,8961.081776271893 -8834.427970451872,8961.032575884396 -8834.59063,8960.966964 
-8834.736338516954,8960.908189642883 -8834.876446717006,8960.835781725258 -8835.023439,8960.780296 
-8835.186566945305,8960.718719486113 -8835.348654245918,8960.654400379895 -8835.510543,8960.589636 
-8835.650021306175,8960.533837028295 -8835.78095211043,8960.457852114585 -8835.92109,8960.403731 
-8836.076666295767,8960.343647588184 -8836.236672846837,8960.295229642395 -8836.397094,8960.249633 
-8836.567034396927,8960.20133069476 -8836.740982382049,8960.130798691964 -8836.916962,8960.146420000001 
-8837.06053961969,8960.159165056788 -8837.220243153399,8960.068181970319 -8837.349169,8960.132642 
-8837.495178371868,8960.20564340889 -8837.66532093003,8960.273569414943 -8837.75107,8960.412476 
-8837.835504838818,8960.54925363647 -8837.901112194902,8960.697842316682 -8837.956612,8960.848697 
-8838.018124912353,8961.015895981987 -8838.08611845195,8961.180750396248 -8838.143857,8961.34929 
-8838.193216330928,8961.49337055549 -8838.212471609835,8961.647410984275 -8838.269952999999,8961.788448 
-8838.336382427371,8961.95144002517 -8838.37336689537,8962.12515533404 -8838.435053,8962.290001 
-8838.491430186901,8962.440659482576 -8838.531585311694,8962.59699862636 -8838.586222,8962.748297 
-8838.642954524656,8962.905399104442 -8838.711408659981,8963.058212416538 -8838.782681,8963.209275 
-8838.849423448964,8963.350736424793 -8838.87127094159,8963.509848885598 -8838.930309,8963.654695 
-8838.996558331892,8963.81723351439 -8839.029073807314,8963.991830640247 -8839.08957,8964.156597 
-8839.142647017203,8964.301156624711 -8839.194269843783,8964.44624786194 -8839.247457,8964.590767 
-8839.302068459707,8964.739156228647 -8839.325184193238,8964.897682735638 -8839.376627,8965.0472 
-8839.426170165998,8965.19119600477 -8839.453121760436,8965.34329630044 -8839.513836,8965.48295 
-8839.582182023858,8965.640158179674 -8839.587393718677,8965.81958814657 -8839.652467,8965.978179 
-8839.71166429062,8966.122449407909 -8839.774852241746,8966.26510221459 -8839.831645,8966.410336 
-8839.896432110529,8966.576013413764 -8839.949176451122,8966.746316263872 -8840.016442,8966.911003 
-8840.081068844533,8967.069229376948 -8840.137074991322,8967.230885706054 -8840.20168,8967.389121 
-8840.264445330225,8967.542850419457 -8840.314579994274,8967.701513430482 -8840.376538,8967.85557 
-8840.434320902663,8967.999245311314 -8840.473160218691,8968.150074698638 -8840.531159,8968.293663 
-8840.59232669653,8968.44509662403 -8840.641025725105,8968.601290764307 -8840.698655,8968.754106 
-8840.7568385059,8968.908390887043 -8840.796710486135,8969.069262223582 -8840.85671,8969.22285 
-8840.918266256882,8969.380422753673 -8840.95266019238,8969.547888586349 -8841.016537,8969.704535 
-8841.077016425348,8969.852849942994 -8841.113361755004,8970.010159389567 -8841.172086,8970.159178 
-8841.232610941857,8970.312766057757 -8841.277010901978,8970.472279721913 -8841.334064,8970.627191 
-8841.388614877775,8970.775308218697 -8841.428159956646,8970.928615515524 -8841.469156,8971.081042 
-8841.510375166823,8971.234298074927 -8841.545406259924,8971.389287242197 -8841.591144,8971.541256 
-8841.639937467879,8971.70337775525 -8841.635645987672,8971.906583245616 -8841.761606,8972.019713 
-8841.875782331324,8972.122259356422 -8842.024326744553,8972.194602194724 -8842.175411,8972.221538 
-8842.33660868117,8972.250276860565 -8842.50271595194,8972.209061260106 -8842.666028,8972.197238 
-8842.83595663828,8972.184935720323 -8843.013770397998,8972.175529930566 -8843.168687,8972.104622 
-8843.294236613761,8972.04715583317 -8843.418933406223,8971.987776320082 -8843.542543,8971.926248 
-8843.681561754585,8971.857049565086 -8843.82584086361,8971.798662952433 -8843.970384,8971.741901 
-8844.13247007374,8971.678249952725 -8844.299814036769,8971.628564706172 -8844.466776,8971.579097 
-8844.61333760736,8971.53567353762 -8844.760832796119,8971.495233403406 -8844.906257999999,8971.448144 
-8845.056346373842,8971.399544638996 -8845.211908694127,8971.369827392104 -8845.364411,8971.329436 
-8845.53021696574,8971.2855210327 -8845.700568888442,8971.261036801308 -8845.868661,8971.226902 
-8846.02623749605,8971.194902625766 -8846.178066615643,8971.137496818306 -8846.336061,8971.107629 
-8846.48228368768,8971.07998654495 -8846.616753702765,8971.006712043412 -8846.761647,8970.972784 
-8846.92500563859,8970.934532134057 -8847.079402637954,8970.86492618771 -8847.237647,8970.809177 
-8847.393320502635,8970.75433352117 -8847.55538742151,8970.718044915096 -8847.709298,8970.658433 
-8847.850230772623,8970.603847587105 -8847.99596996617,8970.562313214677 -8848.137128,8970.508313 
-8848.301974783668,8970.445250619026 -8848.474221842775,8970.402639047968 -8848.638641,8970.33847 
-8848.77755595213,8970.284254661732 -8848.913719503065,8970.222577647388 -8849.054936,8970.174676 
-8849.217442238207,8970.11955271986 -8849.379208059077,8970.06220213106 -8849.540191,8970.002777 
-8849.697662540493,8969.944648064858 -8849.86413944334,8969.913285720368 -8850.021794,8969.855655 
-8850.170042398915,8969.801462706395 -8850.318174211496,8969.746147684844 -8850.469815,8969.702336 
-8850.633802087626,8969.654957252682 -8850.793999260834,8969.59515734366 -8850.957635,8969.546579 
-8851.115427385641,8969.499735365624 -8851.27350854482,8969.453868962537 -8851.431337,8969.407147 
-8851.57988896577,8969.363171156914 -8851.735786469517,8969.346479413354 -8851.883642,8969.300216 
-8852.034123191093,8969.25313102778 -8852.184408016914,8969.20536872239 -8852.333943,8969.15536 
-8852.4989352206,8969.100181940752 -8852.661689420804,8969.037983067474 -8852.828506,8968.988594 
-8852.972727132612,8968.945894723442 -8853.129453319047,8968.945062575676 -8853.26808,8968.886705 
-8853.42447462304,8968.82086766633 -8853.591883944586,8968.784670018103 -8853.751152,8968.726125 
-8853.904074430775,8968.669912557052 -8854.062117135398,8968.628548085673 -8854.21584,8968.574563 
-8854.370570924559,8968.520223899306 -8854.527947507007,8968.47371533193 -8854.683474,8968.421697 
-8854.834428759043,8968.371207757871 -8854.988739236454,8968.330791498374 -8855.13853,8968.276947 
-8855.281382606725,8968.225596524386 -8855.425194786443,8968.174660750723 -8855.560841,8968.106515 
-8855.718837653565,8968.027140867198 -8855.88487136333,8967.96489108937 -8856.047051,8967.894457 
-8856.191807825815,8967.831589580786 -8856.346520335108,8967.793368323808 -8856.490864,8967.729557999999 
-8856.62613144153,8967.669760022367 -8856.753810624468,8967.590748953677 -8856.894713,8967.545809 
-8857.044138029372,8967.49815079784 -8857.194685261213,8967.453826231696 -8857.342775,8967.402168 
-8857.519769034558,8967.34042706561 -8857.698866156341,8967.284843078205 -8857.877772,8967.228883 
-8858.015002045933,8967.185958722372 -8858.158472380168,8967.165539318616 -8858.296492,8967.125226 
-8858.45763531029,8967.078158622055 -8858.61918208188,8967.031949872186 -8858.777848,8966.977108 
-8858.930856537241,8966.924221565774 -8859.091162124563,8966.895100302088 -8859.246,8966.847837 
-8859.410932324314,8966.797492429938 -8859.581299942474,8966.764333800455 -8859.743259,8966.705118 
-8859.89277310811,8966.650452347296 -8860.033189830508,8966.570428639912 -8860.186255,8966.526681 
-8860.34876562681,8966.480233748758 -8860.507289286626,8966.420597307802 -8860.669563,8966.373329 
-8860.82307670176,8966.328612374271 -8860.963862623683,8966.23867307829 -8861.121703,8966.21313 
-8861.293091254429,8966.185394488322 -8861.462079797426,8966.144298685695 -8861.631415,8966.105974 
-8861.79644273891,8966.068624198373 -8861.955524332103,8966.008639093283 -8862.118083,8965.961694 
-8862.256918412259,8965.921599912963 -8862.411860327604,8965.945589713405 -8862.545906,8965.891603 
-8862.69969709035,8965.8296638462 -8862.860242968207,8965.785899369395 -8863.0188,8965.737445 
-8863.194383694357,8965.683787353346 -8863.376920339413,8965.655228005973 -8863.552958,8965.603079 
-8863.698712343901,8965.55990105657 -8863.847187375975,8965.52644012656 -8863.993588,8965.485507 
-8864.147194504587,8965.442559133251 -8864.301756024925,8965.403085010794 -8864.455443,8965.360426 
-8864.618367635883,8965.315202884656 -8864.783261845567,8965.277321577889 -8864.946358,8965.232721 
-8865.107700253659,8965.18860004708 -8865.269563070737,8965.145807608227 -8865.42858,8965.093927 
-8865.57527056992,8965.046067969995 -8865.72542519342,8965.009100932359 -8865.871503,8964.959403 
-8866.03324554362,8964.904375681474 -8866.20048327458,8964.86684561227 -8866.363372,8964.81531 
-8866.506910361788,8964.769896559998 -8866.656606696362,8964.746300536082 -8866.801103,8964.704034 
-8866.972520773255,8964.653892679316 -8867.147933781687,8964.618106911255 -8867.319238,8964.567579 
-8867.4790402421,8964.520443712927 -8867.639131660466,8964.47429286023 -8867.798947,8964.427202 
-8867.95735241583,8964.380526584999 -8868.12574275935,8964.368906344927 -8868.280814,8964.312128 
-8868.42384366922,8964.25975859959 -8868.562888731874,8964.194644415094 -8868.710115,8964.1556 
-8868.879475762213,8964.110685515752 -8869.046173986828,8964.055430682361 -8869.216948,8964.016231 
-8869.374545104107,8963.980055961963 -8869.525430607186,8963.91916271248 -8869.679313,8963.869507 
-8869.835519597282,8963.819101298996 -8869.996636425707,8963.784157674028 -8870.151386,8963.729442 
-8870.302743531884,8963.675925669411 -8870.451787611135,8963.615873797817 -8870.60394,8963.564661 
-8870.748577689237,8963.5159775663 -8870.890769733742,8963.459362382697 -8871.037774,8963.418376 
-8871.199175361562,8963.373375551093 -8871.36114771096,8963.330181437877 -8871.521136,8963.28039 
-8871.690074115639,8963.227813203657 -8871.860893551186,8963.181398787347 -8872.029733,8963.128506000001 
-8872.184388125723,8963.080056773622 -8872.345091261905,8963.052475184915 -8872.499624,8963.003637 
-8872.657241172628,8962.953824017215 -8872.82142683965,8962.927071394945 -8872.979765,8962.8796 
-8873.126743084318,8962.835534471682 -8873.27268907767,8962.788095611848 -8873.419281,8962.742762 
-8873.572219511554,8962.695465702842 -8873.730285914628,8962.665565941197 -8873.882504,8962.616 
-8874.053822923874,8962.560214357407 -8874.223277926203,8962.498575484276 -8874.395791,8962.4466 
-8874.540075170768,8962.403129441602 -8874.686115491571,8962.365564245649 -8874.830043,8962.320927 
-8874.994075263645,8962.270054525887 -8875.161679693618,8962.231356236074 -8875.326238,8962.182212 
-8875.465324177172,8962.140674844715 -8875.611428453973,8962.123138650792 -8875.748129,8962.07432 
-8875.912402399976,8962.01565450099 -8876.084194294166,8961.979629868849 -8876.248395999999,8961.920764 
-8876.394198602467,8961.868494160102 -8876.53356315107,8961.798683297662 -8876.680876,8961.750835 
-8876.844575429901,8961.69766422022 -8877.01671212427,8961.672475893933 -8877.179364,8961.616182 
-8877.326512476504,8961.56525384014 -8877.477507342086,8961.523557209346 -8877.61947,8961.459581 
-8877.766391216945,8961.393370190264 -8877.89803037428,8961.297071805553 -8878.041872,8961.224413 
-8878.188091661075,8961.15055297604 -8878.313392145994,8961.039336244376 -8878.459796,8960.965842 
-8878.611144808363,8960.889865405099 -8878.762235568625,8960.812001003169 -8878.920387,8960.751445 
-8879.072564493323,8960.693176410916 -8879.211301853218,8960.603364751843 -8879.363109,8960.544138 
-8879.519503175372,8960.483121643321 -8879.699868888883,8960.514050871456 -8879.860544,8960.465413 
-8879.9920137837,8960.425615856588 -8880.120736709649,8960.374424667662 -8880.255504,8960.347856 
-8880.423829652947,8960.314671476364 -8880.587053464378,8960.258722760063 -8880.75503,8960.223814 
-8880.889289953773,8960.195912195173 -8881.025240624467,8960.176508904786 -8881.159344,8960.147864 
-8881.324719389278,8960.112539294258 -8881.497976547618,8960.123300575095 -8881.662827,8960.085602 
-8881.812991548353,8960.051261848543 -8881.955387750491,8959.98790079715 -8882.105071,8959.95152 
-8882.27036406232,8959.911345208297 -8882.437442602264,8959.878843605477 -8882.603031,8959.839904 
-8882.781351849448,8959.797970243646 -8882.95753171072,8959.7471505803 -8883.136159,8959.706542 
-8883.271366294182,8959.675804388266 -8883.412253718781,8959.67264225378 -8883.54632,8959.637258 
-8883.706087684965,8959.595090347857 -8883.85969355497,8959.532298319864 -8884.015803,8959.478135 
-8884.163499238573,8959.42689070398 -8884.312347592577,8959.375268132157 -8884.450551,8959.302193 
-8884.599392655964,8959.223492887731 -8884.742614415909,8959.133376162545 -8884.896348,8959.064721 
-8885.05368638256,8958.99445598736 -8885.209183009416,8958.920134432145 -8885.365936,8958.848573 
-8885.51600213598,8958.780064274475 -8885.669579566256,8958.719284387444 -8885.818563,8958.648452 
-8885.954129580954,8958.583998494363 -8886.07153991365,8958.48565922492 -8886.188025,8958.390982 
-8886.323541968552,8958.280835964024 -8886.426521751544,8958.135794505302 -8886.543431,8958.006067 
-8886.657623587736,8957.879354017694 -8886.728118703888,8957.71880063848 -8886.831504,8957.583126 
-8886.917189520334,8957.470679139262 -8886.981662492837,8957.343295342944 -8887.064584,8957.228794999999 
-8887.164857056856,8957.09033515055 -8887.267703134214,8956.953741538171 -8887.371282,8956.817737 
-8887.46385887655,8956.696178656559 -8887.554365416965,8956.573027924487 -8887.648513,8956.452682 
-8887.762040946756,8956.307562759896 -8887.845543772415,8956.140063094443 -8887.963073,8955.998165 
-8888.05577717664,8955.886239257932 -8888.14391169007,8955.770581405603 -8888.236574,8955.658621 
-8888.343730502056,8955.529147803809 -8888.44305739723,8955.393302780807 -8888.550842,8955.264352 
-8888.664874349537,8955.127926572506 -8888.750220700736,8954.968748637102 -8888.867404,8954.83502 
-8888.969250418993,8954.718793687109 -8889.050274097539,8954.585348516017 -8889.152306,8954.469285 
-8889.267064061942,8954.338745199811 -8889.356624854572,8954.187188928125 -8889.473361,8954.058415 
-8889.584112867331,8953.936242446236 -8889.674005389326,8953.79646860208 -8889.781195,8953.671159 
-8889.88004094476,8953.555603528464 -8889.971501826192,8953.43389604774 -8890.069328,8953.317476 
-8890.18652586366,8953.17800227481 -8890.298713791166,8953.034336627241 -8890.417198,8952.895954 
-8890.517983172425,8952.778242812286 -8890.599540874106,8952.64473096214 -8890.702397000001,8952.528825 
-8890.811218019391,8952.406197350516 -8890.900111165989,8952.266980965307 -8891.006743,8952.142445 
-8891.119303112022,8952.010985362866 -8891.236645734467,8951.883224494068 -8891.341003,8951.745163 
-8891.437723249215,8951.617205046665 -8891.52770730755,8951.48424486539 -8891.624507,8951.356347 
-8891.724254070072,8951.224554873204 -8891.801168693639,8951.075165614324 -8891.910924,8950.951584 
-8892.02695352914,8950.820937774355 -8892.107875501715,8950.66174980733 -8892.223733,8950.530951 
-8892.339434014202,8950.40032885738 -8892.426954788518,8950.246294697361 -8892.543903,8950.116788 
-8892.649290645082,8950.000083300678 -8892.732113756725,8949.864471316438 -8892.835199,8949.745728 
-8892.942842680923,8949.621733844675 -8893.034520513896,8949.484364472206 -8893.143383,8949.361439 
-8893.253668049756,8949.23690719567 -8893.328916697175,8949.083811972201 -8893.44079,8948.960705 
-8893.553261792067,8948.836939441731 -8893.617445450795,8948.672758568548 -8893.736836,8948.555653 
-8893.849975805699,8948.444678543816 -8893.937111986357,8948.309155990108 -8894.049972,8948.197897 
-8894.169272211113,8948.08028917257 -8894.26697026337,8947.942299807562 -8894.383542,8947.821987 
-8894.492318229892,8947.709719875971 -8894.600693039414,8947.597063929004 -8894.70895,8947.484296 
-8894.841658694893,8947.346057455308 -8894.942338325758,8947.180290641056 -8895.057761,8947.027323 
-8895.146886724238,8946.909206244487 -8895.222427570538,8946.780858451284 -8895.31626,8946.666445 
-8895.423071225166,8946.53620600931 -8895.505656730747,8946.387348335784 -8895.611914,8946.256657 
-8895.724527696684,8946.118147563884 -8895.79646485394,8945.94977993739 -8895.908093,8945.810475 
-8895.998245459026,8945.697970375462 -8896.051439988541,8945.559286043952 -8896.139086,8945.444818 
-8896.24306207902,8945.309022449408 -8896.298406861928,8945.139128922981 -8896.408077,8945.007889 
-8896.516901388637,8944.877661167391 -8896.622871620391,8944.745051947204 -8896.73256,8944.615551 
-8896.840062014413,8944.488631332279 -8896.944159553568,8944.358344039876 -8897.060390999999,8944.239367 
-8897.179541795917,8944.117401650414 -8897.25074490372,8943.950123336055 -8897.382761,8943.842215 
-8897.505296102292,8943.742056312012 -8897.62544887692,8943.639016675448 -8897.747188,8943.537892 
-8897.866996742237,8943.43837082827 -8897.980035997607,8943.327997550583 -8898.113765,8943.248153 
-8898.26530355935,8943.157675033735 -8898.384275430695,8943.019251699656 -8898.53478,8942.927064 
-8898.66398842874,8942.847920703045 -8898.791497132785,8942.752023732637 -8898.939706,8942.720518 
-8899.11252889716,8942.683779901303 -8899.279589559112,8942.623342510162 -8899.451584,8942.582903 
-8899.615262333009,8942.544418781692 -8899.775501072394,8942.49203004124 -8899.939454,8942.454733 
-8900.10007438655,8942.41819406612 -8900.254187111725,8942.356639742655 -8900.41422,8942.317608 
-8900.586311030895,8942.275635297367 -8900.760025510597,8942.240219826417 -8900.931265,8942.194898 
-8901.077386906556,8942.156224025277 -8901.221970930847,8942.111842600452 -8901.3683,8942.07396 
-8901.528769946211,8942.032416519323 -8901.684394431803,8941.973334722526 -8901.845106,8941.932736 
-8901.99450473315,8941.894995109404 -8902.141003324388,8941.84650317918 -8902.289811999999,8941.806499 
-8902.458288619735,8941.761207494945 -8902.624925952001,8941.708945565411 -8902.794375,8941.66744 
-8902.942132464408,8941.631247662679 -8903.090463922013,8941.597424868256 -8903.238209,8941.561182 
-8903.413627200234,8941.518150727436 -8903.592270264202,8941.488946370859 -8903.767482,8941.445082 
-8903.912806904224,8941.408699816666 -8904.054835299752,8941.359405758227 -8904.200992,8941.326524 
-8904.356307664097,8941.291581694195 -8904.49955239646,8941.212904910954 -8904.654816,8941.177732 
-8904.830080629858,8941.1380281217 -8905.005936887723,8941.097588548297 -8905.175621,8941.038416 
-8905.325701364794,8940.986079705724 -8905.486473293426,8940.969529020094 -8905.637559,8940.92017 
-8905.792835899118,8940.869441736173 -8905.943956546633,8940.805662670478 -8906.101254,8940.761597 
-8906.25875973617,8940.7174729807 -8906.413961602892,8940.663852740105 -8906.573996,8940.63003 
-8906.721999602898,8940.598749928427 -8906.872316913128,8940.578107020689 -8907.022826,8940.562924 
-8907.178332626352,8940.547236838685 -8907.334065380237,8940.533849459263 -8907.489575,8940.518192 
-8907.667130137377,8940.500314891595 -8907.846553982901,8940.546753004388 -8908.024653,8940.535521 
-8908.17958452719,8940.525750078063 -8908.335844136076,8940.54041237591 -8908.490233,8940.524185 
-8908.643873748368,8940.508036256395 -8908.801148871717,8940.500110145633 -8908.948117,8940.452501 
-8909.094096883488,8940.405211988338 -8909.23424217971,8940.341512008012 -8909.377047,8940.285359 
-8909.531245355865,8940.224725882052 -8909.66864471075,8940.127811280558 -8909.811861,8940.044489 
-8909.947167230557,8939.965768738759 -8910.065497467538,8939.857777897905 -8910.206765,8939.790338 
-8910.358310396316,8939.717991538804 -8910.516354700378,8939.659441651445 -8910.675172,8939.604879 
-8910.828446128455,8939.5522207388 -8910.99719906779,8939.556727737885 -8911.15137,8939.506756 
-8911.301783804227,8939.458002067651 -8911.452212719509,8939.408526567224 -8911.605475,8939.369643 
-8911.762145388382,8939.3298947752 -8911.906548207498,8939.247479219686 -8912.064606,8939.213667 
-8912.188048135124,8939.187259870523 -8912.307773512875,8939.145612922352 -8912.430338,8939.115393 
-8912.588425786764,8939.07641433046 -8912.744674860145,8939.029427449123 -8912.904216,8938.996905 
-8913.060510734362,8938.965044330389 -8913.208461464508,8938.900768469028 -8913.362022,8938.857614 
-8913.519951436712,8938.813231757105 -8913.675143044296,8938.759255723167 -8913.83371,8938.717208 
-8913.989833022466,8938.67580834268 -8914.142952417327,8938.623246580457 -8914.299853,8938.584899 
-8914.468898768497,8938.543583052679 -8914.642775085324,8938.52334614754 -8914.811110999999,8938.479227 
-8914.968456684937,8938.437988280968 -8915.123875889642,8938.389472826882 -8915.281719999999,8938.350185 
-8915.427779586773,8938.31383037298 -8915.571713957543,8938.269087709063 -8915.718239,8938.234657 
-8915.87995474412,8938.196656753467 -8916.044343054979,8938.16983678712 -8916.204775,8938.126737 
-8916.360028461555,8938.085028404235 -8916.519034327821,8938.058640217763 -8916.675212,8938.020538 
-8916.826931918664,8937.983523327548 -8916.97850740996,8937.945916386117 -8917.130021,8937.908066 
-8917.299809794946,8937.865650191323 -8917.471605577648,8937.831282991194 -8917.640667,8937.786055 
-8917.798274067338,8937.743891323898 -8917.961910649248,8937.727288077946 -8918.119902,8937.686588 
-8918.271643603175,8937.647497916603 -8918.422187089835,8937.603791216636 -8918.57423,8937.56589 
-8918.7344934514,8937.52593956901 -8918.89673606545,8937.494395344365 -8919.057976,8937.458589 
-8919.206509841173,8937.425604281409 -8919.355522908592,8937.39456696923 -8919.503167,8937.357804 
-8919.669714271886,8937.316334191264 -8919.829389442002,8937.250025027959 -8919.995829,8937.208125 
-8920.140357465174,8937.1717409408 -8920.27618974218,8937.1039055357 -8920.421891,8937.072546 
-8920.580647368666,8937.038376590035 -8920.741988148182,8937.017283011215 -8920.901112,8936.984868 
-8921.05564506605,8936.95338817462 -8921.207081444512,8936.908261206112 -8921.359996,8936.869679 
-8921.52069791583,8936.82913194796 -8921.678702865009,8936.778071093715 -8921.840058,8936.740207 
-8921.988913363448,8936.705276141234 -8922.131475240289,8936.646511663972 -8922.280245,8936.611218 
-8922.426692110766,8936.576475353868 -8922.563182166881,8936.506361480553 -8922.709548,8936.471278 
-8922.88504897534,8936.429210907398 -8923.062712083452,8936.396728231484 -8923.239063,8936.35838 
-8923.386273535712,8936.326368464075 -8923.526503360723,8936.266212550918 -8923.673991,8936.235503 
-8923.829624285372,8936.203097380621 -8923.98757015205,8936.182200720905 -8924.142752,8936.147698 
-8924.310975566941,8936.11029561785 -8924.47179944078,8936.043016037947 -8924.640596,8936.008291 
-8924.810522284928,8935.973333553475 -8924.979309698176,8935.932766434407 -8925.149782,8935.900577 
-8925.29086083743,8935.873937786855 -8925.427513815597,8935.82709447823 -8925.568118,8935.798054 
-8925.718203271419,8935.76705529199 -8925.861380519029,8935.706284650707 -8926.012164,8935.678883 
-8926.171771537807,8935.649877766979 -8926.333362377314,8935.632677862166 -8926.493062,8935.604184 
-8926.655406350183,8935.575218261323 -8926.808226560339,8935.506804234961 -8926.967176,8935.462875 
-8927.116128068166,8935.421708762395 -8927.270537816737,8935.402667522692 -8927.419909,8935.363049 
-8927.579661964248,8935.320676861675 -8927.732105563482,8935.252378339359 -8927.893041,8935.214746 
-8928.056690273032,8935.176479070653 -8928.222382745824,8935.147380976521 -8928.38617,8935.109709 
-8928.547231797753,8935.072663893567 -8928.694069391851,8934.985629485944 -8928.855272,8934.949202 
-8929.007377017373,8934.9148303267 -8929.15328751268,8934.85609083583 -8929.305411,8934.821801 
-8929.477534249325,8934.783003059814 -8929.639981645945,8934.707680306177 -8929.811916999999,8934.668058 
-8929.956502925166,8934.634738338505 -8930.10087172631,8934.597747688491 -8930.248082,8934.579189 
-8930.412040143394,8934.55851892017 -8930.571151019943,8934.50757754431 -8930.734946,8934.485652 
-8930.887568799244,8934.465221960287 -8931.038349200177,8934.432375023594 -8931.190931,8934.411641 
-8931.354381187295,8934.389430093825 -8931.518092278267,8934.36788370821 -8931.680122,8934.33697 
-8931.854633408899,8934.30367490626 -8932.023551704444,8934.243759660074 -8932.198652,8934.213715 
-8932.361376867744,8934.185793783068 -8932.521244080539,8934.141651471751 -8932.684697,8934.118368 
-8932.819489939575,8934.09916707284 -8932.955659283703,8934.089440239442 -8933.089807,8934.066155 
-8933.261272293295,8934.036392209246 -8933.425375180695,8933.967263582319 -8933.598322,8933.947884 
-8933.756779836058,8933.930127982918 -8933.90928310045,8933.875361310784 -8934.067136,8933.852853 
-8934.217028060884,8933.831479828521 -8934.365785052487,8933.802766577752 -8934.515312,8933.778973 
-8934.673989424646,8933.753723346317 -8934.8292540255,8933.709232997791 -8934.988108,8933.685119 
-8935.160789684338,8933.65890595895 -8935.331041469839,8933.617814410723 -8935.503942,8933.593086 
-8935.64645019052,8933.572704332786 -8935.79025162004,8933.562180343783 -8935.932766,8933.541842 
-8936.097666116197,8933.518308969482 -8936.255322188767,8933.457969150768 -8936.418437,8933.424214 
-8936.576641658155,8933.39147496148 -8936.735968439894,8933.363410615679 -8936.892576,8933.323729 
-8937.04854502402,8933.284209178193 -8937.20287562446,8933.237819620892 -8937.360147,8933.203851 
-8937.517002164665,8933.169972275375 -8937.661640019222,8933.089606455062 -8937.819021,8933.058261 
-8937.983565923705,8933.025488707655 -8938.146336593518,8932.984339064678 -8938.310352,8932.949012000001 
-8938.471230009382,8932.914360695195 -8938.629510831768,8932.86749010752 -8938.791425,8932.838058 
-8938.964887130247,8932.806526750303 -8939.137970145723,8932.772828800371 -8939.310579,8932.736918999999 
-8939.47192362711,8932.703352626046 -8939.628398474797,8932.648250546392 -8939.79019,8932.616909 
-8939.947830782517,8932.586371517322 -8940.100176814378,8932.532604791748 -8940.256822,8932.497314 
-8940.419355146192,8932.460696702177 -8940.579470325827,8932.413264743445 -8940.742936,8932.381065 
-8940.89265962412,8932.351572188687 -8941.039285969187,8932.307216466528 -8941.189427,8932.279928 
-8941.347794090017,8932.251144428901 -8941.504557776134,8932.21344127817 -8941.663566,8932.188441 
-8941.830302865837,8932.162225575881 -8941.986759855568,8932.0881714158 -8942.152815,8932.057937 
-8942.309664129712,8932.029378765192 -8942.45978471144,8931.969649610866 -8942.616705,8931.941485 
-8942.78252602657,8931.911722853056 -8942.952534233667,8931.910917489682 -8943.120969,8931.907435 
-8943.283366764907,8931.904077328938 -8943.446442460701,8931.890427476981 -8943.608258,8931.904571 
-8943.757388607377,8931.917605793737 -8943.90718243239,8931.921423713211 -8944.056676,8931.929267 
-8944.222107862002,8931.937946500788 -8944.388314749438,8931.957241162716 -8944.553438,8931.943924 
-8944.728640409678,8931.929793954776 -8944.900291723503,8931.886509563514 -8945.072998,8931.853828 
-8945.229687322102,8931.824177357672 -8945.37938066335,8931.765163439057 -8945.531826,8931.718354 
-8945.686559067573,8931.670842096679 -8945.823925086384,8931.578794094643 -8945.969909,8931.508877 
-8946.115041530902,8931.439367664023 -8946.252172220426,8931.353715053772 -8946.398245,8931.286204 
-8946.54338535766,8931.219123887477 -8946.68190929245,8931.136886831107 -8946.831347,8931.08002 
-8946.984690250325,8931.021666958719 -8947.12990101056,8930.939803132276 -8947.288336,8930.89717 
-8947.44931744896,8930.853851643165 -8947.60478944244,8930.78902273302 -8947.768347,8930.756767 
-8947.922175836607,8930.72642990058 -8948.059715971385,8930.629549832456 -8948.215312,8930.610223 
-8948.381493814208,8930.589581290125 -8948.5460837746,8930.557686739487 -8948.711517,8930.531719 
-8948.878165658176,8930.505560476337 -8949.042133751827,8930.464263961558 -8949.206344,8930.42565 
-8949.363009416282,8930.388810202063 -8949.522192872286,8930.363558551617 -8949.680637,8930.335332999999 
-8949.835269329875,8930.307786489622 -8949.990310617153,8930.2824036813 -8950.145729,8930.259708 
-8950.300763464325,8930.237068382161 -8950.4502760172,8930.184416882359 -8950.604965,8930.159526 
-8950.764176379122,8930.13390742241 -8950.92065150403,8930.09318451842 -8951.079509,8930.065456 
-8951.23491520667,8930.038329902878 -8951.390851116346,8930.013572061316 -8951.547536,8929.995221 
-8951.72897098667,8929.97397118644 -8951.903902771874,8929.90981672455 -8952.085658,8929.891507 
-8952.225076795754,8929.877462178436 -8952.365693288879,8929.880073137285 -8952.505789,8929.877236 
-8952.672967747645,8929.87385039273 -8952.839016180798,8929.847586312499 -8953.006076,8929.84043 
-8953.16446802319,8929.833644988375 -8953.32257086004,8929.820731529173 -8953.480997999999,8929.814823 
-8953.661361682247,8929.808096349007 -8953.84159939246,8929.794204811213 -8954.022088,8929.794615 
-8954.182997462467,8929.794980692097 -8954.343930424977,8929.793220357016 -8954.504785,8929.789002 
-8954.65981342286,8929.78493643186 -8954.814952136929,8929.788743623456 -8954.970027,8929.787285 
-8955.146593882511,8929.785624224092 -8955.323069953098,8929.77804164049 -8955.499635,8929.776196 
-8955.649170869405,8929.77463289643 -8955.798786600008,8929.782004289762 -8955.948264999999,8929.777574 
-8956.112880436187,8929.772695073803 -8956.277129785263,8929.759203248002 -8956.441502,8929.749014 
-8956.600215034516,8929.73917555819 -8956.758380442247,8929.721529652235 -8956.917096,8929.711732 
-8957.093640372368,8929.700833759216 -8957.27048643623,8929.694034658221 -8957.446727,8929.679003 
-8957.60993822873,8929.665082621195 -8957.763414593937,8929.594673988435 -8957.923473,8929.559846 
-8958.079583002884,8929.525877166318 -8958.232141030858,8929.476157553649 -8958.388984,8929.445752 
-8958.550193956453,8929.414499862869 -8958.711580439753,8929.384164770898 -8958.872837,8929.353154 
-8959.028138541838,8929.323288421034 -8959.174578025713,8929.25585462342 -8959.32979,8929.225527 
-8959.500683869284,8929.192135214758 -8959.668345319478,8929.142644367617 -8959.84002,8929.113532 
-8960.003319884148,8929.08583981939 -8960.161487544226,8929.032844425297 -8960.324158,8929.001667 
-8960.47845874911,8928.972093712977 -8960.628504958755,8928.921431313323 -8960.783671,8928.896798 
-8960.951353230737,8928.870177684787 -8961.115889116052,8928.82601785719 -8961.283343,8928.797997 
-8961.454109817932,8928.769421773763 -8961.620051182574,8928.71511076331 -8961.791238,8928.68917 
-8961.953767697833,8928.664541091735 -8962.107271338935,8928.592980839032 -8962.270356,8928.572344 
-8962.429080572505,8928.55225888941 -8962.584796066865,8928.51157431481 -8962.74366,8928.492623 
-8962.90973304928,8928.47281168993 -8963.072054277458,8928.427764955186 -8963.237896999999,8928.40611 
-8963.397056500626,8928.385327708196 -8963.550612878047,8928.330381318909 -8963.709959,8928.311082 
-8963.871182654933,8928.291555282349 -8964.03104423074,8928.261425332854 -8964.192451,8928.243475 
-8964.34445788936,8928.226570044448 -8964.492242989207,8928.1812798797 -8964.643907,8928.161534 
-8964.818071584077,8928.138858660563 -8964.99091462955,8928.106009002484 -8965.165534,8928.087153 
-8965.329978250937,8928.06939574205 -8965.493011537988,8928.03960387685 -8965.657597,8928.023207 
-8965.818503602459,8928.007176630654 -8965.973456407444,8927.950790139788 -8966.134078,8927.932119 
-8966.288468804416,8927.914172145873 -8966.442076390991,8927.89000902242 -8966.596228,8927.870112 
-8966.753376748853,8927.849828123632 -8966.908102636406,8927.812623057127 -8967.065469,8927.794103 
-8967.239790769077,8927.773587503243 -8967.412797237517,8927.742768045558 -8967.587122,8927.722278 
-8967.747217128652,8927.703460498498 -8967.906876314706,8927.681065462599 -8968.066549,8927.658948 
-8968.22715419604,8927.636701368336 -8968.380544770267,8927.576219441027 -8968.5404,8927.549104 
-8968.695192889962,8927.522847258284 -8968.846761072034,8927.479918152752 -8969.001056,8927.450878 
-8969.168203090949,8927.419418916299 -8969.326881924493,8927.352900906182 -8969.487876,8927.298049 
-8969.648558082656,8927.243303392157 -8969.797822467524,8927.151785625501 -8969.964104,8927.117635 
-8970.112959329042,8927.087063339273 -8970.258214590933,8927.040938528007 -8970.406023,8927.005651 
-8970.569116060868,8926.966714440237 -8970.725674509138,8926.902589223619 -8970.889415,8926.866472 
-8971.04793811363,8926.831505604616 -8971.203934274265,8926.78540506876 -8971.362935,8926.752679 
-8971.519426127024,8926.72046946536 -8971.672171071781,8926.671713187292 -8971.828458,8926.638527 
-8971.996181254497,8926.602912407017 -8972.15711427288,8926.539555125415 -8972.324485,8926.502319 
-8972.4782114472,8926.468118412084 -8972.620830924336,8926.392345445129 -8972.774886,8926.359657 
-8972.93148461887,8926.326428848715 -8973.081870886148,8926.26654256611 -8973.239188,8926.236902 
-8973.40225297182,8926.206178463577 -8973.566847075206,8926.183819526319 -8973.729658,8926.151777 
-8973.883531955114,8926.121493342667 -8974.027402425221,8926.048078145552 -8974.182265,8926.023342 
-8974.344470004029,8925.997433050761 -8974.506650817691,8925.971354032943 -8974.668646,8925.944164 
-8974.832066725845,8925.916734697128 -8974.98901823937,8925.85696953763 -8975.152597,8925.830499 
-8975.330428173536,8925.80172211752 -8975.499562044351,8925.729363128305 -8975.677754,8925.702912 
-8975.841892805374,8925.678546946117 -8976.005649558048,8925.64632418062 -8976.171414,8925.638751 
-8976.31968445083,8925.631977056859 -8976.4661501619,8925.602959485983 -8976.613992,8925.589814 
-8976.771968785672,8925.575767356313 -8976.918515088259,8925.489331422406 -8977.076804,8925.479402 
-8977.249536145677,8925.468566557272 -8977.42322443805,8925.48206355267 -8977.595954,8925.471187 
-8977.760555855737,8925.460822238269 -8977.915678275898,8925.38209159184 -8978.080095,8925.369117 
-8978.237339649044,8925.356708377023 -8978.3949645149,8925.347844840933 -8978.551651,8925.329701 
-8978.724916985759,8925.309637300934 -8978.896611651056,8925.27685261748 -8979.067534,8925.242079 
-8979.216152425824,8925.211843045941 -8979.360512368457,8925.161790802076 -8979.50992,8925.135733 
-8979.670972484053,8925.107644249045 -8979.820279850052,8925.027040634772 -8979.981892,8925.002375 
-8980.146273620023,8924.97728668205 -8980.305293356365,8924.923234408017 -8980.46951,8924.897088 
-8980.625620245577,8924.872232284488 -8980.777870622016,8924.82610214967 -8980.934068,8924.8018 
-8981.09985446149,8924.776005921685 -8981.264216468955,8924.741569419733 -8981.429979,8924.715622 
-8981.589820479086,8924.690601424345 -8981.739619896174,8924.617262147101 -8981.899551,8924.592821 
-8982.055993645517,8924.568912969477 -8982.212145501757,8924.541534093565 -8982.369721,8924.526842 
-8982.528742812434,8924.512015054357 -8982.685858349849,8924.478025758483 -8982.845281,8924.468424 
-8983.010132553823,8924.458495267767 -8983.170685679677,8924.406749272634 -8983.335542,8924.3969 
-8983.484993408816,8924.38797108743 -8983.630452145266,8924.338851080902 -8983.780027,8924.332308000001 
-8983.946723219067,8924.325015953156 -8984.110528304609,8924.283050218346 -8984.277094000001,8924.273218 
-8984.449256594327,8924.263055401905 -8984.620067489206,8924.23511640241 -8984.792239,8924.225106 
-8984.945604392275,8924.216189023635 -8985.099428819256,8924.208311663173 -8985.251486,8924.186424 
-8985.421348316377,8924.1619734009 -8985.590920012291,8924.135416140138 -8985.761065,8924.113017 
-8985.908841202043,8924.093562651664 -8986.04141222867,8924.005094572567 -8986.188735,8923.982461 
-8986.363680978255,8923.9555836038 -8986.537496508805,8923.921798927639 -8986.711769,8923.890854 
-8986.870990009535,8923.862581708803 -8987.025229013076,8923.809703058248 -8987.184599,8923.782283 
-8987.353075593868,8923.7532961242 -8987.521151005969,8923.721802480752 -8987.690142,8923.695983 
-8987.832785073715,8923.674189116147 -8987.965712268548,8923.60413780668 -8988.108897,8923.586245 
-8988.288437753909,8923.563809032363 -8988.469273140108,8923.552292761566 -8988.648584,8923.528088 
-8988.793134707981,8923.508575431586 -8988.930772699117,8923.451275494466 -8989.075145,8923.430484 
-8989.240070648948,8923.406732555322 -8989.405374785898,8923.385651944793 -8989.570271,8923.361697 
-8989.726804448983,8923.338956938023 -8989.874357986497,8923.26802851042 -8990.031536,8923.250283 
-8990.200107761479,8923.231251127265 -8990.361209605655,8923.166773572924 -8990.52944,8923.144929 
-8990.688877553317,8923.124226169968 -8990.848750844338,8923.106939944239 -8991.008118,8923.085702 
-8991.172290439672,8923.0638236832 -8991.33116278555,8923.009970938061 -8991.495389,8922.9885 
-8991.65435179899,8922.967717200965 -8991.811322758012,8922.933149784416 -8991.970344,8922.912819 
-8992.14026962777,8922.891094095441 -8992.306805241598,8922.845641897366 -8992.477171,8922.827692 
-8992.635356159162,8922.811025462084 -8992.788142833488,8922.75750966617 -8992.946252,8922.740137 
-8993.100713847212,8922.72316509276 -8993.250702675812,8922.675852012635 -8993.404932,8922.656883 
-8993.565331042833,8922.637155159746 -8993.722329039496,8922.593841966303 -8993.882926,8922.575796 
-8994.041951266548,8922.557926641872 -8994.198316926606,8922.512637871607 -8994.358295,8922.508718000001 
-8994.527550217615,8922.504570814654 -8994.693089895913,8922.452561982129 -8994.862241,8922.445321 
-8995.025798340543,8922.438319474433 -8995.187119412616,8922.40202636157 -8995.350588,8922.393192 
-8995.507820023662,8922.384694682138 -8995.662913591183,8922.34629506647 -8995.82035,8922.343486 
-8995.980446111796,8922.340629477656 -8996.138090089442,8922.303260192673 -8996.296394,8922.279202 
-8996.469373279979,8922.25291352215 -8996.64183823434,8922.2232843146 -8996.814179,8922.193092 
-8996.974177014956,8922.165062007303 -8997.131829776494,8922.122363006301 -8997.293147,8922.103342 
-8997.457057580954,8922.084015209435 -8997.614217584653,8922.02319623095 -8997.778041,8922.003144 
-8997.930990288065,8921.984422778485 -8998.082546786836,8921.9555622935 -8998.235223,8921.934731 
-8998.388726619434,8921.91378681437 -8998.535277681704,8921.85055865649 -8998.689609000001,8921.836999 
-8998.840774973345,8921.82371745291 -8998.984530858532,8921.758309754114 -8999.13585,8921.746905 
-8999.302901051453,8921.734314549461 -8999.463828773622,8921.669647006845 -8999.631171,8921.661827 
-8999.794770657285,8921.654181885748 -8999.958498258307,8921.649016422823 -9000.121992,8921.639368 
-9000.296408603182,8921.629074975219 -9000.464983094596,8921.56295216894 -9000.639591,8921.556693 
-9000.795661530288,8921.551098340276 -9000.949012463298,8921.510788419888 -9001.104967,8921.502573 
-9001.282428289906,8921.493224640913 -9001.457990803829,8921.457457817032 -9001.635576,8921.45087 
-9001.803722970004,8921.444632309604 -9001.968670538337,8921.401221492291 -9002.136377,8921.387552 
-9002.280666945424,8921.375791151448 -9002.421824937444,8921.334406586557 -9002.566382,8921.326586 
-9002.72896427576,8921.31779024324 -9002.883460770627,8921.2443565601 -9003.045933,8921.23372 
-9003.204790826769,8921.223320063787 -9003.359317999793,8921.170003302968 -9003.5184,8921.16393 
-9003.694016861813,8921.15722544256 -9003.866331432446,8921.106586060638 -9004.042025,8921.102343 
-9004.207930616461,8921.098336321778 -9004.372385020288,8921.06985711892 -9004.53794,8921.058356 
-9004.697909883904,8921.047242878174 -9004.855842949026,8921.015944641918 -9005.015047,8920.996763 
-9005.168979432137,8920.97821650715 -9005.320004303083,8920.940092645042 -9005.471152,8920.905545 
-9005.631231384292,8920.868955850052 -9005.794507025003,8920.848109182438 -9005.956061,8920.818707 
-9006.136094911197,8920.785941542497 -9006.31339638718,8920.739299672168 -9006.493269,8920.70566 
-9006.64582579427,8920.67712891644 -9006.794737980166,8920.630335423828 -9006.947842,8920.604904 
-9007.113875680403,8920.577324888096 -9007.277288177358,8920.535287410688 -9007.443306,8920.507613 
-9007.60004108145,8920.481485979755 -9007.754017426307,8920.439872976152 -9007.911106,8920.415963 
-9008.069913485739,8920.391791393451 -9008.224561288518,8920.344344674892 -9008.383273,8920.319552 
-9008.556028645882,8920.292565493939 -9008.720221334757,8920.223030049454 -9008.892785,8920.194842 
-9009.066939948412,8920.166394016518 -9009.237269911528,8920.117702923646 -9009.410843,8920.085897 
-9009.566584417616,8920.057358591883 -9009.718429540831,8920.010015615473 -9009.873899,8919.980031 
-9010.04063237901,8919.947873968757 -9010.207276273472,8919.913607565857 -9010.375826,8919.89299 
-9010.526807334154,8919.874521458614 -9010.675323688041,8919.837396417937 -9010.826749,8919.823015 
-9011.004590024457,8919.806124784842 -9011.181215708799,8919.763387834517 -9011.359806,8919.767656 
-9011.510163730863,8919.771249429814 -9011.660103512566,8919.74815761827 -9011.810489,8919.746021 
-9011.972499590905,8919.7437192168 -9012.13299713363,8919.70861407965 -9012.295018,8919.707211 
-9012.465586250151,8919.705733901117 -9012.635596589209,8919.685112748406 -9012.806154,8919.682688 
-9012.972277309711,8919.680326289485 -9013.138095414944,8919.660399668292 -9013.304206,8919.663531 
-9013.463025077997,8919.66652488034 -9013.621664894137,8919.64829443029 -9013.780512,8919.648539 
-9013.946205586259,8919.648794110926 -9014.111435645595,8919.625460479741 -9014.277123,8919.62692 
-9014.450628412838,8919.628448388608 -9014.62171745934,8919.581837767444 -9014.795114,8919.575505 
-9014.964480948482,8919.569319400833 -9015.130924533603,8919.529404145935 -9015.298764,8919.505881000001 
-9015.458606526347,8919.483478646403 -9015.614601766463,8919.436580869324 -9015.774928,8919.417953 
-9015.95056979305,8919.397545657443 -9016.123242699692,8919.354208372797 -9016.299296,8919.337724 
-9016.452396238377,8919.323388787878 -9016.609087883227,8919.300018882914 -9016.76048,8919.326956 
-9016.933927865553,8919.357817484482 -9017.100658498914,8919.418885849094 -9017.271831,8919.460558 
-9017.427338712449,8919.498416539303 -9017.570369949732,8919.576221794254 -9017.7215,8919.628906 
-9017.8720457192,8919.68138650689 -9018.020966562037,8919.74034747479 -9018.163228,8919.812319 
-9018.298289419268,8919.88064796167 -9018.436563837577,8919.942509077364 -9018.571498,8920.011089 
-9018.732168940742,8920.092749570518 -9018.887747113042,8920.184607898424 -9019.05112,8920.260719 
-9019.19052951621,8920.325666201745 -9019.328986349821,8920.392640159875 -9019.467718,8920.459023 
-9019.62196154519,8920.532828253432 -9019.769238780862,8920.62042453452 -9019.921389,8920.698454 
-9020.07331691911,8920.776369460042 -9020.217656804109,8920.868679992116 -9020.370534,8920.944716 
-9020.5225563503,8921.020326836257 -9020.673846545775,8921.097402177924 -9020.825257,8921.174231 
-9020.961879308736,8921.243556008654 -9021.109868356612,8921.296564017059 -9021.261377,8921.319296 
-9021.428607954353,8921.344386919678 -9021.59829831337,8921.366465730935 -9021.767196,8921.35814 
-9021.927324023032,8921.350246565451 -9022.089663473622,8921.361572234295 -9022.247541,8921.33368 
-9022.409086528505,8921.305139739497 -9022.566183945442,8921.250181517431 -9022.729383,8921.233521 
-9022.891462445428,8921.216974780213 -9023.051679998047,8921.18475150824 -9023.213743,8921.168045 
-9023.375661261674,8921.151353412528 -9023.535688306463,8921.119443995805 -9023.697243999999,8921.099547 
-9023.857155158796,8921.079852543022 -9024.013738235426,8921.03714167711 -9024.173811,8921.018807 
-9024.331149132297,8921.000785546692 -9024.485516958612,8920.961489951438 -9024.642734000001,8920.942441 
-9024.804573100822,8920.922832024122 -9024.960664299511,8920.86709700185 -9025.122515,8920.847584 
-9025.271529168629,8920.82961859275 -9025.420117990514,8920.80828480002 -9025.568893,8920.788436 
-9025.72156542533,8920.768067226714 -9025.871507236716,8920.729220396845 -9026.02449,8920.711331 
-9026.2030051199,8920.690455917382 -9026.38198408321,8920.673635922902 -9026.560429,8920.652169 
-9026.712209750161,8920.633909776256 -9026.85830038055,8920.58075749851 -9027.009879,8920.56089 
-9027.169968461692,8920.539906980408 -9027.32595408041,8920.493097843413 -9027.486027,8920.471989 
-9027.644503548947,8920.451090670258 -9027.804800938375,8920.446425073353 -9027.963434,8920.42675 "/>
	</g>
</svg>
