<?xml version="1.0" encoding="UTF-8" standalone="no"?>
<svg
   xmlns:dc="http://purl.org/dc/elements/1.1/"
   xmlns:cc="http://creativecommons.org/ns#"
   xmlns:rdf="http://www.w3.org/1999/02/22-rdf-syntax-ns#"
   xmlns:svg="http://www.w3.org/2000/svg"
   xmlns="http://www.w3.org/2000/svg"
   xmlns:xlink="http://www.w3.org/1999/xlink"
   xmlns:sodipodi="http://sodipodi.sourceforge.net/DTD/sodipodi-0.dtd"
   xmlns:inkscape="http://www.inkscape.org/namespaces/inkscape"
   height="700.0mm"
   id="svg_2020_12_05_02_39_24_707491"
   inkscape:version="0.91 r13725"
   sodipodi:docname="@7756490_-364140.svg"
   viewBox="0 0 1540.0 700.0"
   width="1540.0mm"
   version="1.1">
  <metadata
     id="metadata_2020_12_05_02_39_24_707634">
    <rdf:RDF>
      <cc:Work
         rdf:about="">
        <dc:format>image/svg+xml</dc:format>
        <dc:type
           rdf:resource="http://purl.org/dc/dcmitype/StillImage" />
        <dc:title />
      </cc:Work>
    </rdf:RDF>
  </metadata>
  <defs
     id="defs_2020_12_05_02_39_24_707683">
    <marker
       id="marker_trapezium"
       markerHeight="5"
       markerUnits="strokeWidth"
       markerWidth="5"
       orient="auto"
       refX="0"
       refy="0"
       viewBox="0 0 5 5">
      <path
         d="M 0.0,-0.5 L 0.0,0.5 L -5.0,2.5 L -5.0,-2.5 z"
         fill="context-stroke"
         id="path6" />
    </marker>
  </defs>
  <sodipodi:namedview
     bordercolor="#666666"
     borderopacity="1"
     gridtolerance="10"
     guidetolerance="10"
     id="namedview_2020_12_05_02_39_24_707737"
     inkscape:current-layer="layer_2020_12_05_02_39_24_707829"
     inkscape:cx="4936.2585"
     inkscape:cy="1996.308"
     inkscape:document-units="mm"
     inkscape:pageopacity="0"
     inkscape:pageshadow="2"
     inkscape:window-height="1056"
     inkscape:window-maximized="1"
     inkscape:window-width="1863"
     inkscape:window-x="57"
     inkscape:window-y="24"
     inkscape:zoom="10.86116"
     objecttolerance="10"
     pagecolor="#ffffff"
     showgrid="false"
     inkscape:object-nodes="true"
     inkscape:snap-smooth-nodes="true"
     inkscape:snap-intersection-paths="false" />
  <g
     id="layer_2020_12_05_02_39_24_707829"
     inkscape:groupmode="layer"
     inkscape:label="images_m"
     style="display:inline">
    <image
       height="210.0"
       id="image_2020_12_05_02_39_24_707829"
       inkscape:label="image_m7757820_-363720.png"
       preserveAspectRatio="none"
       sodipodi:absref="/home/vinicius/carmen_lcad/data/map_rddf_reh/m7757820_-363720.png"
       width="210.0"
       x="1330.0"
       xlink:href="file:///home/vinicius/carmen_lcad/data/map_rddf_reh/m7757820_-363720.png"
       y="70.0" />
    <path
       style="fill:none;fill-rule:evenodd;stroke:#000000;stroke-width:0.28222221px;stroke-linecap:butt;stroke-linejoin:miter;stroke-opacity:1"
       d="m 1376.6418,125.78066 21.9016,19.69676 1.2494,1.17592 1.2495,1.10243 0.4409,0.44098 0.9555,0.88194 1.3964,1.32292 32.632,28.07523"
       id="path4148"
       inkscape:connector-curvature="0" />
    <path
       style="fill:none;fill-rule:evenodd;stroke:#000000;stroke-width:0.28222221px;stroke-linecap:butt;stroke-linejoin:miter;stroke-opacity:1"
       d="m 1401.2146,132.45147 c -1.2481,2.20305 -2.5015,3.98848 -2.8262,6.25251 -0.2716,1.89392 0,3.94401 0.799,5.68401 0.6327,1.38353 0.7476,1.57272 1.1198,2.19187 0.5024,0.83592 1.176,1.61689 1.176,1.61689"
       id="path4150"
       inkscape:connector-curvature="0"
       sodipodi:nodetypes="cassc" />
    <path
       style="fill:none;fill-rule:evenodd;stroke:#000000;stroke-width:0.28222221px;stroke-linecap:butt;stroke-linejoin:miter;stroke-opacity:1"
       d="m 1403.045,129.29008 c 0,0 -2.9837,6.33644 -5.9783,6.97035 -3.8273,0.81018 -10.5952,-5.04843 -10.5952,-5.04843"
       id="path4151"
       inkscape:connector-curvature="0"
       sodipodi:nodetypes="csc" />
  </g>
  <g
     id="layer_2020_12_05_02_39_24_707903"
     inkscape:groupmode="layer"
     inkscape:label="paths"
     marker-end="url(#marker_trapezium)"
     style="display:inline">
    <path
       d="m 1433.4829,172.68863 c -0.1118,-0.0969 -0.2239,-0.19338 -0.3354,-0.29063 -0.1137,-0.0992 -0.2273,-0.19849 -0.3413,-0.29737 -0.1114,-0.0967 -0.2226,-0.19358 -0.3337,-0.29063 -0.1132,-0.0989 -0.2267,-0.19727 -0.3401,-0.29589 -0.1133,-0.0986 -0.2268,-0.19723 -0.3399,-0.29611 -0.1134,-0.0991 -0.2269,-0.19814 -0.3404,-0.29715 -0.1135,-0.099 -0.2272,-0.19769 -0.3406,-0.29685 -0.1135,-0.0993 -0.2268,-0.19891 -0.3404,-0.29822 -0.1135,-0.0993 -0.2272,-0.19841 -0.3406,-0.29778 -0.113,-0.099 -0.2258,-0.19824 -0.3387,-0.2973 -0.113,-0.0991 -0.2263,-0.19773 -0.3393,-0.2967 -0.1137,-0.0995 -0.2269,-0.19955 -0.3404,-0.29919 -0.1135,-0.0996 -0.2269,-0.19936 -0.3406,-0.29881 -0.1141,-0.0998 -0.2281,-0.19972 -0.342,-0.29973 -0.1139,-0.0999 -0.2279,-0.19961 -0.342,-0.29927 -0.1158,-0.10117 -0.2311,-0.20289 -0.3466,-0.30436 -0.1131,-0.0993 -0.2261,-0.19867 -0.3394,-0.29764 -0.1156,-0.10094 -0.2311,-0.20206 -0.3464,-0.30327 -0.113,-0.0991 -0.2264,-0.19785 -0.3396,-0.29673 -0.1156,-0.10096 -0.2306,-0.20262 -0.346,-0.30384 -0.1129,-0.0991 -0.2258,-0.19835 -0.339,-0.29716 -0.116,-0.10122 -0.2319,-0.20255 -0.3476,-0.304 -0.1135,-0.0994 -0.2267,-0.19896 -0.3404,-0.298 -0.1163,-0.1013 -0.2327,-0.20251 -0.3488,-0.30396 -0.1138,-0.0993 -0.2273,-0.19889 -0.3412,-0.29804 -0.1163,-0.10123 -0.2327,-0.20229 -0.3489,-0.3036 -0.1137,-0.0991 -0.2273,-0.19837 -0.3411,-0.2974 -0.1168,-0.10164 -0.2337,-0.20319 -0.3505,-0.30485 -0.1141,-0.0994 -0.2283,-0.19881 -0.3425,-0.29815 -0.1158,-0.10074 -0.2318,-0.20134 -0.3477,-0.30199 -0.1158,-0.1006 -0.2316,-0.20128 -0.3473,-0.30201 -0.1162,-0.1011 -0.2325,-0.20193 -0.3489,-0.30285 -0.1164,-0.10101 -0.2329,-0.20189 -0.3491,-0.30315 -0.1159,-0.10099 -0.2319,-0.20181 -0.3481,-0.30251 -0.1161,-0.10067 -0.2321,-0.20145 -0.3479,-0.30249 -0.116,-0.10124 -0.2324,-0.2021 -0.3486,-0.30306 -0.1162,-0.10089 -0.2325,-0.20168 -0.3484,-0.30294 -0.1161,-0.10143 -0.2323,-0.20266 -0.3486,-0.30379 -0.1164,-0.10115 -0.2325,-0.20261 -0.3484,-0.30421 -0.1163,-0.10192 -0.2331,-0.20331 -0.3495,-0.30503 -0.1165,-0.10168 -0.2324,-0.20387 -0.3485,-0.30597 -0.1162,-0.10224 -0.2331,-0.20372 -0.3496,-0.3057 -0.1163,-0.10188 -0.2325,-0.20395 -0.3484,-0.3063 -0.116,-0.10244 -0.2324,-0.20441 -0.3487,-0.30656 -0.1162,-0.10206 -0.2325,-0.20397 -0.3483,-0.30644 -0.116,-0.10261 -0.232,-0.2052 -0.3481,-0.30764 -0.116,-0.10238 -0.2321,-0.20472 -0.3479,-0.30736 -0.116,-0.10279 -0.232,-0.20553 -0.348,-0.30823 -0.116,-0.10263 -0.2322,-0.20495 -0.348,-0.30777 -0.1156,-0.10266 -0.231,-0.20561 -0.3466,-0.30827 -0.1155,-0.10255 -0.231,-0.2051 -0.3464,-0.30773 -0.1173,-0.10434 -0.2347,-0.2087 -0.352,-0.31307 -0.1147,-0.10199 -0.2294,-0.20385 -0.344,-0.30593 -0.1172,-0.10444 -0.2342,-0.20917 -0.3513,-0.31376 -0.1146,-0.10236 -0.2291,-0.20491 -0.3437,-0.30724 -0.1169,-0.10431 -0.2337,-0.20871 -0.3503,-0.31326 -0.1142,-0.10232 -0.2284,-0.20462 -0.3427,-0.30674 -0.117,-0.10451 -0.2336,-0.20953 -0.3501,-0.31451 -0.1141,-0.10273 -0.2284,-0.20522 -0.3429,-0.30749 -0.1174,-0.1049 -0.2341,-0.2107 -0.3509,-0.31627 -0.1145,-0.10346 -0.229,-0.20689 -0.3441,-0.30973 -0.1173,-0.10483 -0.234,-0.21035 -0.3507,-0.31582 -0.1142,-0.10326 -0.2285,-0.20656 -0.3433,-0.30918 -0.1172,-0.10476 -0.2341,-0.20996 -0.3508,-0.31521 -0.1144,-0.10302 -0.2285,-0.20626 -0.3432,-0.30879 -0.1171,-0.10463 -0.2341,-0.20937 -0.3509,-0.31433 -0.1142,-0.10268 -0.2286,-0.2053 -0.3431,-0.30767 -0.1173,-0.10486 -0.2343,-0.21012 -0.3513,-0.3153 -0.1144,-0.10279 -0.229,-0.20527 -0.3437,-0.3077 -0.1172,-0.10464 -0.2339,-0.2097 -0.351,-0.31445 -0.1146,-0.10256 -0.2292,-0.20519 -0.344,-0.30755 -0.1171,-0.10439 -0.2342,-0.2087 -0.3513,-0.31307 -0.1146,-0.10222 -0.229,-0.20481 -0.3437,-0.30693 -0.1171,-0.10422 -0.2346,-0.208 -0.3518,-0.31213 -0.1147,-0.10197 -0.2294,-0.20398 -0.3442,-0.30587 -0.1176,-0.10436 -0.2353,-0.20858 -0.353,-0.31284 -0.1153,-0.10212 -0.2307,-0.20408 -0.346,-0.30616 -0.1183,-0.10477 -0.2366,-0.20957 -0.3551,-0.31423 -0.1158,-0.10239 -0.2321,-0.20435 -0.3479,-0.30677 -0.1186,-0.10484 -0.2369,-0.20994 -0.3556,-0.3146 -0.1162,-0.10241 -0.2323,-0.20493 -0.3484,-0.3074 -0.1185,-0.10458 -0.2371,-0.20902 -0.3557,-0.31354 -0.116,-0.10226 -0.2322,-0.20431 -0.3483,-0.30646 -0.1188,-0.10453 -0.2374,-0.20929 -0.3562,-0.31383 -0.1163,-0.10236 -0.2324,-0.20497 -0.3488,-0.30717 -0.1202,-0.10549 -0.2407,-0.21063 -0.3609,-0.31606 -0.1153,-0.10107 -0.2308,-0.20184 -0.3461,-0.30294 -0.119,-0.10442 -0.2379,-0.20903 -0.357,-0.31334 -0.1167,-0.10218 -0.2334,-0.20442 -0.35,-0.30666 -0.1186,-0.10392 -0.2373,-0.2076 -0.356,-0.31134 -0.1163,-0.10161 -0.2329,-0.20289 -0.349,-0.30466 -0.1182,-0.1036 -0.2363,-0.20733 -0.3547,-0.31072 -0.1158,-0.10108 -0.2317,-0.20202 -0.3473,-0.30328 -0.1181,-0.10346 -0.2363,-0.20682 -0.3546,-0.31002 -0.1158,-0.10098 -0.2317,-0.20188 -0.3474,-0.30298 -0.1187,-0.10375 -0.2376,-0.20736 -0.3565,-0.31091 -0.1164,-0.10143 -0.2332,-0.20254 -0.3495,-0.30409 -0.1192,-0.10403 -0.2382,-0.20825 -0.3574,-0.3122 -0.1167,-0.10172 -0.233,-0.20392 -0.3496,-0.3058 -0.1191,-0.10407 -0.2386,-0.20759 -0.3577,-0.3116 -0.1165,-0.1017 -0.2329,-0.20357 -0.3493,-0.3054 -0.1186,-0.10378 -0.2374,-0.20737 -0.356,-0.31112 -0.1161,-0.10152 -0.232,-0.20326 -0.348,-0.30488 -0.1185,-0.1038 -0.2371,-0.20741 -0.3556,-0.31122 -0.1161,-0.10168 -0.2324,-0.20305 -0.3484,-0.30478 -0.1187,-0.10412 -0.2373,-0.20843 -0.3562,-0.31243 -0.1163,-0.10181 -0.2326,-0.20358 -0.3488,-0.30557 -0.1189,-0.1044 -0.238,-0.20862 -0.357,-0.31282 -0.1165,-0.10191 -0.2328,-0.20401 -0.349,-0.30618 -0.1189,-0.10457 -0.2384,-0.20855 -0.3577,-0.31275 -0.1166,-0.10188 -0.2331,-0.20385 -0.3493,-0.30625 -0.1188,-0.10477 -0.2381,-0.209 -0.3573,-0.31335 -0.1167,-0.10212 -0.2336,-0.20389 -0.3497,-0.30665 -0.1174,-0.10393 -0.2348,-0.20786 -0.3526,-0.31142 -0.1177,-0.10356 -0.2351,-0.2075 -0.3524,-0.31158 -0.1177,-0.10447 -0.2363,-0.208 -0.3545,-0.3119 -0.1183,-0.10391 -0.2368,-0.2075 -0.3545,-0.3121 -0.1175,-0.10444 -0.2353,-0.20844 -0.3535,-0.31214 -0.1181,-0.10366 -0.2362,-0.20731 -0.3535,-0.31186 -0.1177,-0.10485 -0.2358,-0.2091 -0.354,-0.31335 -0.1183,-0.10428 -0.2365,-0.20859 -0.354,-0.31365 -0.117,-0.10459 -0.2345,-0.20861 -0.352,-0.31264 -0.1176,-0.10413 -0.235,-0.20856 -0.352,-0.31336 -0.117,-0.10475 -0.2342,-0.20922 -0.3511,-0.31399 -0.1169,-0.10473 -0.2341,-0.20921 -0.3509,-0.31401 -0.1192,-0.10688 -0.2379,-0.21418 -0.3569,-0.32124 -0.114,-0.10259 -0.228,-0.20524 -0.3421,-0.30776 -0.1176,-0.10564 -0.2348,-0.2116 -0.352,-0.31762 -0.1147,-0.10376 -0.2291,-0.2079 -0.344,-0.31138 -0.1175,-0.10575 -0.2347,-0.21171 -0.3517,-0.31805 -0.1144,-0.10404 -0.2285,-0.2084 -0.3433,-0.31195 -0.1173,-0.10573 -0.2343,-0.21171 -0.351,-0.318 -0.1143,-0.10404 -0.2282,-0.20847 -0.343,-0.312 -0.1168,-0.10533 -0.2335,-0.21074 -0.3498,-0.31652 -0.114,-0.1036 -0.2278,-0.20737 -0.3422,-0.31048 -0.117,-0.10547 -0.2339,-0.21108 -0.3506,-0.31685 -0.1143,-0.10356 -0.2288,-0.20694 -0.3434,-0.31015 -0.117,-0.10536 -0.2336,-0.21114 -0.3504,-0.31672 -0.1143,-0.10334 -0.229,-0.20623 -0.3436,-0.30928 -0.1171,-0.10534 -0.2338,-0.21122 -0.3508,-0.31663 -0.1147,-0.10323 -0.2294,-0.20632 -0.3442,-0.30937 -0.1171,-0.10515 -0.2342,-0.21037 -0.3514,-0.31545 -0.1148,-0.10294 -0.2298,-0.20567 -0.3446,-0.30855 -0.117,-0.10483 -0.2338,-0.20994 -0.3507,-0.31487 -0.1145,-0.10269 -0.2287,-0.2056 -0.3433,-0.30813 -0.1169,-0.10464 -0.234,-0.20912 -0.3509,-0.31384 -0.1143,-0.10243 -0.2287,-0.20477 -0.3431,-0.30716 -0.1178,-0.10543 -0.2354,-0.21101 -0.3531,-0.3165 -0.1125,-0.1009 -0.2253,-0.20164 -0.3379,-0.3025 -0.1175,-0.10524 -0.2347,-0.21085 -0.3521,-0.31628 -0.1123,-0.10091 -0.2244,-0.20198 -0.3369,-0.30272 -0.1148,-0.1028 -0.2294,-0.20578 -0.3439,-0.30891 -0.1146,-0.10318 -0.2292,-0.2063 -0.3441,-0.30909 -0.1147,-0.10261 -0.229,-0.20567 -0.3434,-0.30868 -0.1143,-0.10299 -0.2289,-0.20575 -0.3436,-0.30832 -0.117,-0.10461 -0.2333,-0.20997 -0.3499,-0.3151 -0.1116,-0.10072 -0.2231,-0.20163 -0.3351,-0.3019 -0.1153,-0.10321 -0.2305,-0.20657 -0.3455,-0.31012 -0.1127,-0.10145 -0.2255,-0.20274 -0.3385,-0.30388 -0.1144,-0.10245 -0.2286,-0.20518 -0.3429,-0.30773 -0.1143,-0.10251 -0.2287,-0.20491 -0.3431,-0.30727 -0.1147,-0.10258 -0.2292,-0.20533 -0.3439,-0.30794 -0.1145,-0.10254 -0.2294,-0.20467 -0.3441,-0.30706 -0.1149,-0.10263 -0.2295,-0.20564 -0.3445,-0.30825 -0.1149,-0.10254 -0.2296,-0.20529 -0.3445,-0.30775 -0.1153,-0.10275 -0.2307,-0.20527 -0.346,-0.308 -0.1153,-0.10273 -0.2307,-0.20532 -0.346,-0.308 -0.1153,-0.10265 -0.2305,-0.20542 -0.3458,-0.30804 -0.1154,-0.10267 -0.2308,-0.20536 -0.3462,-0.30796 -0.1155,-0.10266 -0.2311,-0.20528 -0.3466,-0.30792 -0.1155,-0.10263 -0.2308,-0.20548 -0.3464,-0.30808 -0.1174,-0.10427 -0.2351,-0.20831 -0.3525,-0.31258 -0.1125,-0.0998 -0.225,-0.19958 -0.3375,-0.29942 -0.1176,-0.10445 -0.2352,-0.20898 -0.3529,-0.31341 -0.1126,-0.1 -0.2255,-0.19964 -0.3381,-0.29959 -0.118,-0.10469 -0.2357,-0.20963 -0.3537,-0.3143 -0.1131,-0.10028 -0.2263,-0.20041 -0.3393,-0.3007 -0.118,-0.10472 -0.236,-0.20955 -0.3541,-0.31423 -0.113,-0.1002 -0.2259,-0.20056 -0.3389,-0.30077 -0.1178,-0.10448 -0.2358,-0.20879 -0.3537,-0.31324 -0.1127,-0.0999 -0.2255,-0.19983 -0.3383,-0.29976 -0.1173,-0.10391 -0.2345,-0.20781 -0.3519,-0.31168 -0.1123,-0.0995 -0.2248,-0.19884 -0.3371,-0.29832 -0.116,-0.10273 -0.232,-0.20548 -0.3481,-0.30813 -0.1136,-0.10038 -0.2274,-0.20043 -0.3409,-0.30087 -0.1178,-0.10425 -0.2354,-0.2087 -0.3533,-0.31281 -0.1129,-0.0997 -0.2258,-0.19946 -0.3387,-0.29919 -0.118,-0.10421 -0.2361,-0.20828 -0.3541,-0.31241 -0.1131,-0.0998 -0.2258,-0.19988 -0.3389,-0.29959 -0.1162,-0.10244 -0.2328,-0.20443 -0.349,-0.30685 -0.1136,-0.10013 -0.2274,-0.20002 -0.341,-0.30015 -0.1156,-0.10186 -0.231,-0.20392 -0.3466,-0.30576 -0.1131,-0.0997 -0.2262,-0.1995 -0.3394,-0.29924 -0.1154,-0.10175 -0.2309,-0.20341 -0.3464,-0.30515 -0.1131,-0.0997 -0.2265,-0.19912 -0.3396,-0.29885 -0.1158,-0.1021 -0.2313,-0.20449 -0.3471,-0.30658 -0.1133,-0.0998 -0.2267,-0.19956 -0.3399,-0.29942 -0.1158,-0.10212 -0.2315,-0.20437 -0.3474,-0.30648 -0.1132,-0.0998 -0.2264,-0.19969 -0.3396,-0.29952 -0.1154,-0.10176 -0.2308,-0.20348 -0.3462,-0.30525 -0.1129,-0.0996 -0.2259,-0.19915 -0.3388,-0.29875 -0.1135,-0.10009 -0.2269,-0.20024 -0.3404,-0.30033 -0.1135,-0.1002 -0.227,-0.20048 -0.3406,-0.30067 -0.1134,-0.10002 -0.2269,-0.19996 -0.3402,-0.30001 -0.1133,-0.1 -0.2266,-0.19998 -0.3398,-0.29999 -0.1138,-0.10046 -0.2275,-0.20092 -0.3412,-0.30143 -0.1137,-0.10045 -0.2272,-0.20106 -0.3408,-0.30157 -0.1159,-0.10256 -0.232,-0.205 -0.3478,-0.30759 -0.111,-0.0982 -0.2223,-0.19614 -0.3332,-0.29441 -0.1129,-0.1 -0.2254,-0.20035 -0.3383,-0.30038 -0.113,-0.10013 -0.2258,-0.20046 -0.3387,-0.30062 -0.115,-0.102 -0.2302,-0.20383 -0.3452,-0.30588 -0.11,-0.0976 -0.2198,-0.19547 -0.3298,-0.29312 -0.1149,-0.10199 -0.2299,-0.20379 -0.3448,-0.30581 -0.1097,-0.0974 -0.2195,-0.19477 -0.3292,-0.29219 -0.1135,-0.10076 -0.2268,-0.20166 -0.3403,-0.30245 -0.1109,-0.0985 -0.2218,-0.19705 -0.3327,-0.29555 -0.1146,-0.10177 -0.2291,-0.20361 -0.3437,-0.30544 -0.1097,-0.0976 -0.2195,-0.19503 -0.3293,-0.29256 -0.113,-0.10041 -0.2259,-0.20098 -0.3389,-0.30145 -0.1105,-0.0983 -0.2215,-0.19628 -0.3321,-0.29455 -0.1123,-0.0997 -0.2243,-0.19981 -0.3366,-0.29949 l -0.3294,-0.29251 c -0.1131,-0.10044 -0.2265,-0.20055 -0.3399,-0.30074 -0.1083,-0.0958 -0.2169,-0.19125 -0.3251,-0.28726 -0.1126,-0.1 -0.2252,-0.20005 -0.338,-0.29976 -0.108,-0.0954 -0.2162,-0.19064 -0.324,-0.28624 -0.1122,-0.0995 -0.2246,-0.19892 -0.3371,-0.29813 -0.1077,-0.0949 -0.2155,-0.18969 -0.3229,-0.28487 -0.1105,-0.0979 -0.2211,-0.19552 -0.3319,-0.29303 -0.1084,-0.0953 -0.2171,-0.19027 -0.3251,-0.28597 -0.1101,-0.0975 -0.22,-0.19518 -0.3303,-0.29244 -0.1077,-0.095 -0.2152,-0.19029 -0.3227,-0.28556 -0.11,-0.0975 -0.2205,-0.19445 -0.3307,-0.29167 -0.1076,-0.0949 -0.2149,-0.19013 -0.3223,-0.28533 -0.1083,-0.096 -0.2171,-0.19145 -0.3256,-0.28719 -0.1086,-0.0958 -0.2171,-0.19173 -0.3254,-0.28781 -0.1099,-0.0974 -0.22,-0.1946 -0.33,-0.291874 -0.1051,-0.09293 -0.21,-0.186057 -0.315,-0.279126 -0.1099,-0.09744 -0.2202,-0.194413 -0.3304,-0.291596 -0.105,-0.09266 -0.2098,-0.185506 -0.3146,-0.278404 -0.1081,-0.0958 -0.2165,-0.191161 -0.3248,-0.286695 -0.1058,-0.09334 -0.2116,-0.186778 -0.3172,-0.280305 -0.1076,-0.09526 -0.2155,-0.190169 -0.3233,-0.285175 -0.1054,-0.09282 -0.2105,-0.185861 -0.3157,-0.278825 -0.1087,-0.09604 -0.2178,-0.191633 -0.3267,-0.287446 -0.1037,-0.09126 -0.2077,-0.182201 -0.3113,-0.273554 -0.1076,-0.09486 -0.2149,-0.190073 -0.3225,-0.284948 -0.1051,-0.09271 -0.2102,-0.185546 -0.3155,-0.278052 -0.106,-0.09306 -0.212,-0.186034 -0.3179,-0.279121 -0.1059,-0.09308 -0.212,-0.18604 -0.3181,-0.278879 -0.1056,-0.09235 -0.2109,-0.184932 -0.3164,-0.277385 -0.1054,-0.09236 -0.2109,-0.184601 -0.3166,-0.276615"
       id="path_2020_12_05_02_39_24_707903"
       inkscape:connector-curvature="0"
       inkscape:label="path_rddf-log_volta_da_ufes-20190625-contrario.txt"
       sodipodi:nodetypes="caaaaaaaaaaaaaaaaaaaaaaaaaaaaaaaaaaaaaaaaaaaaaaaaaaaaaaaaaaaaaaaaaaaaaaaaaaaaaaaaaaaaaaaaaaaaaaaaaaaaaaaaaaaaaaaaaaaaaaaaaaaaaaaaaaaaaaaaaaaaaaaaaaaaaaaaaaaaaaaaaaaaaaaaaaaaaaaaaaaaaaaaaaaaaaaaaaaaaaaaaaaaaaaaaaaaaaaaaaaaaaaaaaaaaaaaaaaaaaaaaaaaaaaaaaaac"
       style="fill:none;stroke:#ff00ff;stroke-width:0.40000001px;stroke-linecap:butt;stroke-linejoin:miter;stroke-miterlimit:4;stroke-dasharray:none;stroke-opacity:1" />
    <path
       style="fill:none;fill-rule:evenodd;stroke:#000000;stroke-width:0.28222221px;stroke-linecap:butt;stroke-linejoin:miter;stroke-opacity:1"
       d="m 1386.4715,131.212 c 0,0 5.1378,4.02971 8.193,4.94923 0.7674,0.23097 1.613,0.23855 2.4022,0.0992 0.5613,-0.0991 1.1105,-0.32982 1.5811,-0.6514 0.5019,-0.34296 0.8729,-0.84968 1.26,-1.31842 0.4789,-0.57989 0.8906,-1.21278 1.3068,-1.83914 0.2278,-0.34279 0.442,-0.69459 0.6509,-1.04922 0.4092,-0.69484 1.1795,-2.11217 1.1795,-2.11217"
       id="path4166"
       inkscape:connector-curvature="0"
       sodipodi:nodetypes="caaaaaac" />
  </g>
  <g
     id="layer_2020_12_05_02_39_24_752793"
     inkscape:groupmode="layer"
     inkscape:label="bad_phis"
     style="display:inline" />
  <g
     id="layer_2020_12_05_02_39_24_753292"
     inkscape:groupmode="layer"
     inkscape:label="loop_closures"
     style="display:inline" />
  <g
     id="layer_2020_12_05_02_39_24_753373"
     inkscape:groupmode="layer"
     inkscape:label="junctions"
     style="display:inline" />
</svg>
