<?xml version="1.0" encoding="UTF-8" standalone="no"?>
<svg
   xmlns:dc="http://purl.org/dc/elements/1.1/"
   xmlns:cc="http://creativecommons.org/ns#"
   xmlns:rdf="http://www.w3.org/1999/02/22-rdf-syntax-ns#"
   xmlns:svg="http://www.w3.org/2000/svg"
   xmlns="http://www.w3.org/2000/svg"
   xmlns:xlink="http://www.w3.org/1999/xlink"
   xmlns:sodipodi="http://sodipodi.sourceforge.net/DTD/sodipodi-0.dtd"
   xmlns:inkscape="http://www.inkscape.org/namespaces/inkscape"
   height="700.0mm"
   id="svg_2020_12_05_02_39_24_707491"
   inkscape:version="0.91 r13725"
   sodipodi:docname="@7756490_-364140.svg"
   viewBox="0 0 1540.0 700.0"
   width="1540.0mm"
   version="1.1">
  <metadata
     id="metadata_2020_12_05_02_39_24_707634">
    <rdf:RDF>
      <cc:Work
         rdf:about="">
        <dc:format>image/svg+xml</dc:format>
        <dc:type
           rdf:resource="http://purl.org/dc/dcmitype/StillImage" />
        <dc:title />
      </cc:Work>
    </rdf:RDF>
  </metadata>
  <defs
     id="defs_2020_12_05_02_39_24_707683">
    <marker
       id="marker_trapezium"
       markerHeight="5"
       markerUnits="strokeWidth"
       markerWidth="5"
       orient="auto"
       refX="0"
       refy="0"
       viewBox="0 0 5 5">
      <path
         d="M 0.0,-0.5 L 0.0,0.5 L -5.0,2.5 L -5.0,-2.5 z"
         fill="context-stroke"
         id="path6" />
    </marker>
  </defs>
  <sodipodi:namedview
     bordercolor="#666666"
     borderopacity="1"
     gridtolerance="10"
     guidetolerance="10"
     id="namedview_2020_12_05_02_39_24_707737"
     inkscape:current-layer="layer_2020_12_05_02_39_24_707829"
     inkscape:cx="4948.3487"
     inkscape:cy="1987.179"
     inkscape:document-units="mm"
     inkscape:pageopacity="0"
     inkscape:pageshadow="2"
     inkscape:window-height="1056"
     inkscape:window-maximized="1"
     inkscape:window-width="1863"
     inkscape:window-x="57"
     inkscape:window-y="24"
     inkscape:zoom="7.6799999"
     objecttolerance="10"
     pagecolor="#ffffff"
     showgrid="false"
     inkscape:object-nodes="true"
     inkscape:snap-smooth-nodes="true" />
  <g
     id="layer_2020_12_05_02_39_24_707829"
     inkscape:groupmode="layer"
     inkscape:label="images_m"
     style="display:inline">
    <image
       height="210.0"
       id="image_2020_12_05_02_39_24_707829"
       inkscape:label="image_m7757820_-363720.png"
       preserveAspectRatio="none"
       sodipodi:absref="/home/vinicius/carmen_lcad/data/map_rddf_reh/m7757820_-363720.png"
       width="210.0"
       x="1330.0"
       xlink:href="file:///home/vinicius/carmen_lcad/data/map_rddf_reh/m7757820_-363720.png"
       y="70.0" />
    <path
       style="fill:none;fill-rule:evenodd;stroke:#000000;stroke-width:0.28222221px;stroke-linecap:butt;stroke-linejoin:miter;stroke-opacity:1"
       d="m 1403.3941,129.60243 c -2.3688,3.50684 -5.9786,6.38754 -5.8801,10.62008 0.4651,3.32177 2.5224,5.50564 4.32,8.06149"
       id="path4168"
       inkscape:connector-curvature="0"
       sodipodi:nodetypes="ccc" />
  </g>
  <g
     id="layer_2020_12_05_02_39_24_707903"
     inkscape:groupmode="layer"
     inkscape:label="paths"
     marker-end="url(#marker_trapezium)"
     style="display:inline">
    <path
       d="m 1429.734,281.151 c 0.1404,-0.10663 0.2806,-0.21339 0.421,-0.32 0.1404,-0.10661 0.2806,-0.21339 0.421,-0.32 0.1404,-0.10661 0.2806,-0.21339 0.421,-0.32 0.14,-0.10633 0.28,-0.21269 0.42,-0.319 0.1402,-0.10647 0.2808,-0.21253 0.421,-0.319 0.1393,-0.10575 0.2787,-0.21126 0.418,-0.317 0.1393,-0.10574 0.2787,-0.21128 0.418,-0.317 0.1395,-0.10588 0.2795,-0.21114 0.419,-0.317 0.1393,-0.1057 0.2787,-0.21132 0.418,-0.317 0.1386,-0.10511 0.2774,-0.2099 0.416,-0.315 0.139,-0.10538 0.278,-0.21063 0.417,-0.316 0.1386,-0.10508 0.2774,-0.20995 0.416,-0.315 0.139,-0.10533 0.278,-0.21069 0.417,-0.316 0.1386,-0.10503 0.2774,-0.20996 0.416,-0.315 0.1383,-0.10476 0.2768,-0.20921 0.415,-0.314 0.1386,-0.10507 0.2774,-0.20989 0.416,-0.315 0.1382,-0.10483 0.2768,-0.20914 0.415,-0.314 0.1378,-0.10454 0.2752,-0.20947 0.413,-0.314 0.1372,-0.10412 0.2747,-0.2079 0.412,-0.312 0.137,-0.10394 0.2739,-0.20811 0.411,-0.312 0.1371,-0.10389 0.2739,-0.20817 0.411,-0.312 0.1368,-0.10355 0.2732,-0.2075 0.41,-0.311 0.1364,-0.10322 0.2726,-0.20681 0.409,-0.31 0.137,-0.10363 0.274,-0.20737 0.411,-0.311 0.1366,-0.10331 0.2724,-0.20769 0.409,-0.311 0.1361,-0.10291 0.272,-0.20605 0.408,-0.309 0.1358,-0.10279 0.2712,-0.20615 0.407,-0.309 0.1352,-0.10241 0.2698,-0.20553 0.405,-0.308 0.1354,-0.10263 0.2707,-0.20533 0.406,-0.308 0.1349,-0.10235 0.2691,-0.20562 0.404,-0.308 0.1351,-0.10254 0.2699,-0.20544 0.405,-0.308 0.1356,-0.10297 0.2704,-0.20701 0.406,-0.31 0.1354,-0.10283 0.2696,-0.20716 0.405,-0.31 0.1351,-0.1026 0.27,-0.20539 0.405,-0.308 0.1348,-0.10245 0.2692,-0.20554 0.404,-0.308 0.1348,-0.10246 0.2692,-0.20551 0.404,-0.308 0.1342,-0.10204 0.2678,-0.20492 0.402,-0.307 0.1344,-0.10224 0.2686,-0.20472 0.403,-0.307 0.1334,-0.10155 0.2666,-0.20342 0.4,-0.305 0.1338,-0.10186 0.2672,-0.20415 0.401,-0.306 0.134,-0.10201 0.268,-0.20404 0.402,-0.306 0.1332,-0.10136 0.2657,-0.20368 0.399,-0.305 0.1331,-0.1012 0.2659,-0.20283 0.399,-0.304 0.1329,-0.101 0.2651,-0.203 0.398,-0.304 0.1328,-0.10088 0.2652,-0.20213 0.398,-0.303 0.1339,-0.10173 0.2677,-0.2035 0.4014,-0.30547 0.1311,-0.1 0.2623,-0.19981 0.3936,-0.29953 0.1328,-0.10085 0.2652,-0.20216 0.398,-0.303 0.1328,-0.10084 0.2652,-0.20217 0.398,-0.303 0.1333,-0.10122 0.2664,-0.20266 0.3996,-0.30407 0.1304,-0.0994 0.2608,-0.1988 0.3914,-0.29793 0.1329,-0.10085 0.2657,-0.20184 0.3984,-0.30291 0.1301,-0.0991 0.2602,-0.19825 0.3906,-0.29709 0.1313,-0.0996 0.2624,-0.19928 0.3936,-0.29905 0.131,-0.0997 0.2621,-0.19948 0.3934,-0.29895 0.1315,-0.0996 0.2628,-0.19954 0.3941,-0.29945 0.1312,-0.0999 0.2624,-0.2 0.3939,-0.29955 0.1307,-0.0989 0.2614,-0.198 0.3918,-0.29728 0.1306,-0.0994 0.2613,-0.19868 0.3922,-0.29772 0.133,-0.10067 0.2657,-0.20183 0.3984,-0.3029 0.1275,-0.0971 0.2549,-0.19436 0.3826,-0.2911 0.1311,-0.0993 0.2621,-0.19877 0.3929,-0.29846 0.1282,-0.0977 0.2567,-0.19513 0.3851,-0.29254 0.1307,-0.0992 0.2609,-0.1991 0.3912,-0.29876 0.1278,-0.0977 0.2558,-0.1949 0.3838,-0.29224 0.1303,-0.0991 0.2598,-0.19914 0.3896,-0.29881 0.1272,-0.0976 0.254,-0.19583 0.3814,-0.29319 0.131,-0.10007 0.2619,-0.20026 0.3923,-0.30098 0.1252,-0.0967 0.2503,-0.19362 0.3757,-0.29002 0.13,-0.0999 0.2598,-0.2002 0.3893,-0.30079 0.1242,-0.0965 0.2483,-0.19297 0.3727,-0.28921 0.1293,-0.1001 0.2583,-0.2007 0.3872,-0.3014 0.1236,-0.0966 0.2472,-0.19305 0.3708,-0.2896 0.1267,-0.099 0.2531,-0.1985 0.3795,-0.29799 0.1237,-0.0974 0.247,-0.19532 0.3705,-0.29301 0.1261,-0.0998 0.2524,-0.19939 0.3783,-0.29953 0.1231,-0.0979 0.246,-0.19606 0.3687,-0.29447 0.1235,-0.099 0.247,-0.19813 0.3703,-0.29745 0.1231,-0.0992 0.2461,-0.19863 0.3687,-0.29855 0.1224,-0.0998 0.2448,-0.19964 0.367,-0.29979 0.1221,-0.10015 0.2437,-0.20101 0.365,-0.30221 0.1211,-0.10104 0.2426,-0.20157 0.3635,-0.30287 0.121,-0.10142 0.2417,-0.2033 0.3615,-0.30613 0.1193,-0.10239 0.2389,-0.20442 0.3581,-0.30696 0.1193,-0.10261 0.2382,-0.20567 0.3559,-0.31004 0.1184,-0.10496 0.2371,-0.20952 0.3554,-0.31459 0.1158,-0.10282 0.2306,-0.20665 0.3446,-0.31141 0.116,-0.10665 0.233,-0.2123 0.349,-0.31899 0.1135,-0.10441 0.2264,-0.20956 0.338,-0.31601 0.1121,-0.1069 0.2249,-0.21306 0.337,-0.31998 0.1121,-0.10692 0.2241,-0.21392 0.334,-0.32302 0.1097,-0.10888 0.2195,-0.2177 0.3291,-0.32665 0.1096,-0.10886 0.2186,-0.21824 0.3259,-0.32935 0.1073,-0.11117 0.2151,-0.22187 0.3224,-0.33312 0.1072,-0.11128 0.2138,-0.22323 0.3186,-0.33688 0.1044,-0.11322 0.2093,-0.2259 0.3136,-0.33922 0.1044,-0.11343 0.2086,-0.22704 0.3104,-0.34278 0.1022,-0.11615 0.2044,-0.23222 0.3065,-0.34844 0.1,-0.11364 0.1992,-0.22774 0.2965,-0.34356 0.099,-0.11821 0.1991,-0.23596 0.2984,-0.35419 0.097,-0.11559 0.1933,-0.23197 0.2876,-0.34981 0.096,-0.12017 0.1934,-0.2396 0.2895,-0.35983 0.094,-0.11771 0.1873,-0.23619 0.2785,-0.35617 0.092,-0.12055 0.1842,-0.2404 0.2758,-0.36101 0.092,-0.12074 0.1827,-0.24196 0.2712,-0.36499 0.088,-0.12234 0.1767,-0.24425 0.2647,-0.36658 0.088,-0.12226 0.1754,-0.24498 0.2603,-0.36942 0.085,-0.12429 0.1702,-0.24816 0.255,-0.37243 0.085,-0.12414 0.1692,-0.24846 0.251,-0.37457 0.082,-0.12731 0.1652,-0.25455 0.2475,-0.38198 0.081,-0.12465 0.1607,-0.24961 0.2385,-0.37602 0.079,-0.12865 0.1585,-0.25718 0.2374,-0.386 0.077,-0.12593 0.1533,-0.25242 0.2276,-0.38 0.076,-0.1303 0.1526,-0.2602 0.2283,-0.39063 0.074,-0.1275 0.1475,-0.25532 0.2187,-0.38437 0.073,-0.13153 0.1456,-0.26287 0.218,-0.3945 0.071,-0.12883 0.1409,-0.25816 0.209,-0.3885 0.069,-0.13136 0.138,-0.26231 0.2065,-0.39375 0.069,-0.1314 0.1361,-0.26329 0.2015,-0.39625 0.065,-0.13296 0.1318,-0.26544 0.1973,-0.39838 0.065,-0.13282 0.1296,-0.26622 0.1917,-0.40062 0.062,-0.13391 0.125,-0.26724 0.1869,-0.40112 0.062,-0.13391 0.1225,-0.26846 0.1811,-0.40388 0.059,-0.13526 0.1184,-0.26989 0.177,-0.40512 0.059,-0.13528 0.1159,-0.27114 0.171,-0.40788 0.055,-0.13613 0.111,-0.27174 0.1659,-0.40785 0.055,-0.13611 0.1086,-0.27273 0.1601,-0.41015 0.052,-0.1386 0.1052,-0.2767 0.1572,-0.41529 0.051,-0.13535 0.1003,-0.27117 0.1478,-0.40771 0.048,-0.13909 0.098,-0.27772 0.1464,-0.41679 0.047,-0.1359 0.094,-0.2722 0.1376,-0.40921 0.045,-0.13982 0.091,-0.27924 0.1361,-0.41902 0.044,-0.13657 0.087,-0.27339 0.1279,-0.41098 0.041,-0.13915 0.083,-0.27808 0.1242,-0.41723 0.041,-0.13883 0.081,-0.27801 0.1188,-0.41777 0.038,-0.1419 0.078,-0.28352 0.116,-0.42545 0.037,-0.1385 0.074,-0.27724 0.108,-0.41655 0.034,-0.14017 0.069,-0.28021 0.1035,-0.42043 0.034,-0.14021 0.067,-0.28064 0.099,-0.42157 0.031,-0.14057 0.063,-0.281 0.093,-0.42162 0.031,-0.14053 0.061,-0.2812 0.089,-0.42238 0.028,-0.14085 0.055,-0.28164 0.083,-0.42252 0.027,-0.14091 0.054,-0.28199 0.078,-0.42348 0.024,-0.14232 0.049,-0.28455 0.073,-0.42693 0.024,-0.13915 0.046,-0.27842 0.067,-0.41807 0.021,-0.14244 0.042,-0.28485 0.062,-0.42735 0.02,-0.13902 0.038,-0.27823 0.055,-0.41765 0.017,-0.14301 0.035,-0.28593 0.052,-0.42899 0.016,-0.13951 0.031,-0.27918 0.044,-0.41901 0.013,-0.14079 0.027,-0.28149 0.04,-0.42232 0.013,-0.14077 0.025,-0.28166 0.035,-0.42268 0.01,-0.14042 0.02,-0.28079 0.03,-0.42123 0.01,-0.1405 0.018,-0.28109 0.024,-0.42177 0.01,-0.14056 0.013,-0.28109 0.019,-0.42166 0.01,-0.14072 0.011,-0.28151 0.014,-0.42234 0,-0.14026 0.01,-0.28049 0.01,-0.42075 0,-0.1404 0,-0.28083 0,-0.42125 -9e-4,-0.14161 -10e-4,-0.28323 -0,-0.42484 -6e-4,-0.1384 -0,-0.27683 -0.01,-0.41516 -0,-0.14125 -0.01,-0.28253 -0.012,-0.42378 -0,-0.13813 -0.01,-0.27626 -0.017,-0.41422 -0.01,-0.14022 -0.015,-0.28048 -0.023,-0.4207 -0.01,-0.13686 -0.017,-0.27367 -0.028,-0.4103 -0.011,-0.13982 -0.022,-0.27973 -0.033,-0.41953 -0.011,-0.13627 -0.023,-0.2725 -0.038,-0.40847 -0.015,-0.13758 -0.029,-0.27518 -0.044,-0.41272 -0.015,-0.13758 -0.031,-0.27506 -0.049,-0.41228 -0.018,-0.13674 -0.035,-0.27356 -0.054,-0.41023 -0.018,-0.13677 -0.038,-0.27341 -0.059,-0.40977 -0.021,-0.13548 -0.042,-0.27105 -0.063,-0.40645 -0.022,-0.13538 -0.044,-0.27064 -0.069,-0.40555 -0.024,-0.1346 -0.048,-0.26925 -0.073,-0.40377 -0.025,-0.13462 -0.05,-0.26915 -0.078,-0.40323 -0.028,-0.13538 -0.056,-0.2708 -0.084,-0.40611 -0.027,-0.13221 -0.056,-0.26429 -0.086,-0.39589 -0.031,-0.13433 -0.062,-0.26876 -0.093,-0.40302 -0.031,-0.13127 -0.062,-0.26242 -0.095,-0.39298 -0.034,-0.1324 -0.067,-0.26492 -0.1013,-0.39729 -0.033,-0.12918 -0.067,-0.25829 -0.1027,-0.38671 -0.036,-0.12932 -0.072,-0.25873 -0.1084,-0.38806 -0.036,-0.12927 -0.073,-0.25847 -0.1116,-0.38694 -0.039,-0.12838 -0.077,-0.25683 -0.1165,-0.3852 -0.039,-0.12833 -0.079,-0.25631 -0.1205,-0.3838 -0.042,-0.12796 -0.082,-0.2563 -0.124,-0.38426 -0.042,-0.12799 -0.084,-0.25568 -0.129,-0.38274 -0.044,-0.12648 -0.088,-0.25329 -0.132,-0.37975 -0.044,-0.12654 -0.09,-0.25271 -0.137,-0.37825 -0.047,-0.12521 -0.093,-0.25079 -0.1401,-0.37596 -0.047,-0.12514 -0.095,-0.24997 -0.1449,-0.37404 -0.05,-0.12381 -0.099,-0.24792 -0.1486,-0.37168 -0.05,-0.12364 -0.1008,-0.24682 -0.1534,-0.36932 -0.053,-0.12312 -0.1046,-0.24667 -0.1576,-0.36974 -0.053,-0.12295 -0.1068,-0.2455 -0.1624,-0.36726 -0.055,-0.12134 -0.11,-0.24308 -0.1654,-0.36439 -0.056,-0.12134 -0.1115,-0.24251 -0.1696,-0.36261 -0.059,-0.12105 -0.1168,-0.24227 -0.1754,-0.36329 -0.057,-0.11805 -0.1149,-0.23591 -0.1746,-0.35271 -0.061,-0.11947 -0.1217,-0.23917 -0.1828,-0.35862 -0.06,-0.11641 -0.1201,-0.23231 -0.1822,-0.34738 -0.064,-0.11818 -0.1263,-0.237 -0.19,-0.35523 -0.062,-0.11527 -0.1251,-0.23004 -0.19,-0.34377 -0.066,-0.1162 -0.1313,-0.23309 -0.1973,-0.34942 -0.064,-0.11351 -0.1294,-0.22675 -0.1967,-0.33858 -0.069,-0.11441 -0.1369,-0.22929 -0.2055,-0.34386 -0.067,-0.11179 -0.1347,-0.22309 -0.2045,-0.33314 -0.07,-0.11111 -0.1398,-0.2229 -0.21,-0.33419 -0.07,-0.11133 -0.1411,-0.22225 -0.214,-0.33181 -0.073,-0.10954 -0.1449,-0.21972 -0.2175,-0.32947 -0.073,-0.10969 -0.1462,-0.21867 -0.2215,-0.32653 -0.075,-0.10783 -0.149,-0.21667 -0.2239,-0.32475 -0.075,-0.10796 -0.1506,-0.21525 -0.2281,-0.32125 -0.078,-0.10618 -0.1539,-0.21342 -0.2311,-0.31993 -0.077,-0.10649 -0.1548,-0.21272 -0.2349,-0.31707 -0.08,-0.10424 -0.1591,-0.20912 -0.2386,-0.31371 -0.08,-0.1047 -0.16,-0.20877 -0.2424,-0.31129 -0.082,-0.10232 -0.1631,-0.20569 -0.2448,-0.30841 -0.082,-0.10271 -0.1638,-0.20511 -0.2482,-0.30559 -0.084,-0.10028 -0.1678,-0.20117 -0.2517,-0.30173 -0.084,-0.10053 -0.1681,-0.20077 -0.2543,-0.29927 -0.086,-0.0982 -0.1717,-0.19669 -0.2577,-0.29489 -0.086,-0.0983 -0.1724,-0.19639 -0.2603,-0.29311 -0.088,-0.0967 -0.1756,-0.19332 -0.2636,-0.28979 -0.088,-0.0966 -0.1769,-0.1928 -0.2664,-0.28821 -0.09,-0.0958 -0.1795,-0.19171 -0.2696,-0.28724 -0.09,-0.0956 -0.1803,-0.19108 -0.2714,-0.28576 -0.091,-0.0943 -0.1818,-0.18841 -0.2729,-0.28246 -0.091,-0.0941 -0.1824,-0.18802 -0.2741,-0.28154 -0.094,-0.0959 -0.1883,-0.19142 -0.2827,-0.28683 -0.09,-0.0909 -0.1801,-0.18161 -0.2703,-0.27217 -0.095,-0.0954 -0.1904,-0.19037 -0.286,-0.28527 -0.091,-0.0903 -0.1819,-0.18061 -0.273,-0.27073 -0.095,-0.0938 -0.1902,-0.18727 -0.2855,-0.28064 -0.093,-0.0912 -0.1863,-0.18233 -0.2795,-0.27336 -0.094,-0.0919 -0.1885,-0.18353 -0.2829,-0.27517 -0.095,-0.0918 -0.1893,-0.18328 -0.2841,-0.27483 -0.094,-0.0911 -0.1885,-0.18233 -0.283,-0.27324 -0.095,-0.091 -0.1892,-0.18203 -0.284,-0.27276 -0.097,-0.093 -0.1948,-0.18566 -0.2923,-0.27839 -0.092,-0.088 -0.1851,-0.17578 -0.2777,-0.26361 -0.098,-0.093 -0.1963,-0.18577 -0.2946,-0.27843 -0.093,-0.088 -0.1871,-0.17557 -0.2804,-0.26357 -0.097,-0.0917 -0.1945,-0.18343 -0.2921,-0.27478 -0.095,-0.0892 -0.1908,-0.17797 -0.2859,-0.26722 -0.098,-0.0917 -0.1956,-0.18343 -0.2938,-0.27476 -0.096,-0.0891 -0.1915,-0.17808 -0.2872,-0.26724 -0.098,-0.0914 -0.1964,-0.18237 -0.2948,-0.27329 -0.096,-0.0887 -0.1922,-0.17704 -0.2882,-0.26571 -0.099,-0.0911 -0.1974,-0.18205 -0.2965,-0.27269 -0.097,-0.0883 -0.193,-0.17692 -0.2895,-0.26531 -0.1009,-0.0924 -0.2024,-0.18392 -0.3038,-0.27571 -0.097,-0.0873 -0.1929,-0.17481 -0.2892,-0.26229 -0.1015,-0.0922 -0.2035,-0.18371 -0.3055,-0.27537 -0.097,-0.0873 -0.1945,-0.17428 -0.2915,-0.26163 -0.1021,-0.0919 -0.2044,-0.18381 -0.3069,-0.27535 -0.098,-0.0872 -0.1955,-0.17433 -0.2931,-0.26165 -0.1025,-0.0917 -0.2052,-0.18309 -0.3081,-0.2744 -0.098,-0.0869 -0.1962,-0.17344 -0.2939,-0.2606 -0.1027,-0.0916 -0.2053,-0.18344 -0.3083,-0.27481 -0.098,-0.087 -0.1959,-0.17404 -0.2937,-0.26119 -0.102,-0.0909 -0.2042,-0.18146 -0.3064,-0.27216 -0.1,-0.0885 -0.199,-0.17724 -0.2986,-0.26584 -0.1026,-0.0913 -0.2056,-0.18218 -0.3084,-0.27331 -0.1002,-0.0889 -0.2005,-0.1777 -0.3006,-0.26669 -0.1029,-0.0914 -0.2058,-0.18277 -0.3088,-0.27408 -0.1003,-0.089 -0.2009,-0.17783 -0.3012,-0.26692 -0.1031,-0.0915 -0.2062,-0.18307 -0.3094,-0.2744 -0.1007,-0.089 -0.2011,-0.17835 -0.3016,-0.2676 -0.1032,-0.0917 -0.207,-0.18286 -0.3105,-0.27429 -0.1009,-0.0892 -0.2018,-0.17828 -0.3025,-0.26771 -0.105,-0.0933 -0.2102,-0.18629 -0.3154,-0.27929 -0.1003,-0.0885 -0.2006,-0.17691 -0.3006,-0.26571 -0.1052,-0.0935 -0.2105,-0.18698 -0.3158,-0.2803 -0.1004,-0.0889 -0.2009,-0.17769 -0.3012,-0.2667 -0.1054,-0.0935 -0.2108,-0.18699 -0.3163,-0.28034 -0.1006,-0.0889 -0.2013,-0.17763 -0.3017,-0.26666 -0.1059,-0.0939 -0.2117,-0.18776 -0.3177,-0.28144 -0.1011,-0.0893 -0.2024,-0.17818 -0.3033,-0.26756 -0.1052,-0.0932 -0.2102,-0.1864 -0.3156,-0.27931 -0.1029,-0.0908 -0.2056,-0.18178 -0.3084,-0.27269 -0.1056,-0.0934 -0.2116,-0.18627 -0.3173,-0.27943 -0.1032,-0.0909 -0.2066,-0.18156 -0.3097,-0.27257 -0.1058,-0.0934 -0.2117,-0.18687 -0.3178,-0.28008 -0.1034,-0.0909 -0.2069,-0.1818 -0.3102,-0.27292 -0.1076,-0.095 -0.2155,-0.18971 -0.3234,-0.28441 -0.1029,-0.0904 -0.2058,-0.18093 -0.3086,-0.27159 -0.1055,-0.0931 -0.2112,-0.1858 -0.3169,-0.27864 -0.1058,-0.093 -0.2115,-0.18613 -0.3171,-0.27936 -0.1059,-0.0935 -0.2122,-0.18671 -0.3183,-0.28007 -0.1061,-0.0934 -0.2117,-0.18733 -0.3177,-0.28093 -0.1075,-0.095 -0.2156,-0.18926 -0.3232,-0.28409 -0.105,-0.0925 -0.2099,-0.18519 -0.3148,-0.27791 -0.1076,-0.0951 -0.2154,-0.19001 -0.3231,-0.28499 -0.105,-0.0926 -0.2101,-0.18521 -0.3149,-0.27801 -0.1076,-0.0953 -0.2154,-0.19025 -0.3233,-0.28526 -0.1053,-0.0928 -0.2106,-0.18566 -0.3157,-0.27874 -0.108,-0.0957 -0.2163,-0.19104 -0.3246,-0.28643 -0.106,-0.0933 -0.2117,-0.18698 -0.3174,-0.28057 -0.1099,-0.0973 -0.2203,-0.19389 -0.3304,-0.29084 -0.1052,-0.0927 -0.2106,-0.18523 -0.3156,-0.27816 -0.1076,-0.0952 -0.2154,-0.1902 -0.3232,-0.28511 -0.1079,-0.095 -0.2161,-0.18962 -0.3238,-0.28489 -0.1077,-0.0953 -0.2153,-0.19081 -0.3232,-0.28596 -0.108,-0.0953 -0.216,-0.19059 -0.3238,-0.28604 -0.1082,-0.0958 -0.2165,-0.19134 -0.3247,-0.28701 -0.1083,-0.0958 -0.2171,-0.19109 -0.3253,-0.28699 -0.1099,-0.0974 -0.2194,-0.19531 -0.3293,-0.29275 -0.1072,-0.0951 -0.2144,-0.19019 -0.3217,-0.28525 -0.11,-0.0975 -0.2198,-0.19514 -0.3297,-0.29279 -0.1072,-0.0953 -0.2148,-0.19016 -0.3223,-0.28521 -0.1103,-0.0976 -0.22,-0.19591 -0.3301,-0.29375 -0.1075,-0.0956 -0.215,-0.19111 -0.3229,-0.28625 -0.1101,-0.0971 -0.2202,-0.19426 -0.3302,-0.29144 -0.1075,-0.095 -0.2151,-0.18984 -0.3228,-0.28456 -0.1111,-0.0977 -0.2219,-0.19562 -0.3328,-0.29351 -0.1083,-0.0956 -0.2167,-0.19115 -0.3252,-0.28649 -0.1115,-0.0979 -0.2226,-0.1962 -0.3338,-0.29442 -0.1087,-0.096 -0.2172,-0.19201 -0.3262,-0.28758 -0.1113,-0.0976 -0.2223,-0.19541 -0.3333,-0.29331 -0.1087,-0.0958 -0.2176,-0.19135 -0.3267,-0.28669 -0.1107,-0.0968 -0.2209,-0.19413 -0.3314,-0.29119 -0.1104,-0.0971 -0.2207,-0.19423 -0.3316,-0.29081 -0.111,-0.0967 -0.2219,-0.19342 -0.3326,-0.29031 -0.1106,-0.0968 -0.2215,-0.19326 -0.3324,-0.28969 -0.1112,-0.0967 -0.2221,-0.19376 -0.3333,-0.29058 -0.1111,-0.0969 -0.2224,-0.1937 -0.3337,-0.29042 -0.114,-0.0991 -0.228,-0.19825 -0.342,-0.29739 -0.109,-0.0948 -0.2179,-0.18983 -0.327,-0.28461 -0.1136,-0.0987 -0.2274,-0.19726 -0.3411,-0.29597 -0.1111,-0.0965 -0.2218,-0.19345 -0.3329,-0.29003 -0.1141,-0.0992 -0.2288,-0.19787 -0.343,-0.29694 -0.1118,-0.0969 -0.2235,-0.1939 -0.335,-0.29106 -0.114,-0.0993 -0.2284,-0.19832 -0.3426,-0.29737 -0.1118,-0.0969 -0.2239,-0.19338 -0.3354,-0.29063 -0.1137,-0.0992 -0.2273,-0.19849 -0.3413,-0.29737 -0.1114,-0.0967 -0.2226,-0.19358 -0.3337,-0.29063 -0.1132,-0.0989 -0.2267,-0.19727 -0.3401,-0.29589 -0.1133,-0.0986 -0.2268,-0.19723 -0.3399,-0.29611 -0.1134,-0.0991 -0.2269,-0.19814 -0.3404,-0.29715 -0.1135,-0.099 -0.2272,-0.19769 -0.3406,-0.29685 -0.1135,-0.0993 -0.2268,-0.19891 -0.3404,-0.29822 -0.1135,-0.0993 -0.2272,-0.19841 -0.3406,-0.29778 -0.113,-0.099 -0.2258,-0.19824 -0.3387,-0.2973 -0.113,-0.0991 -0.2263,-0.19773 -0.3393,-0.2967 -0.1137,-0.0995 -0.2269,-0.19955 -0.3404,-0.29919 -0.1135,-0.0996 -0.2269,-0.19936 -0.3406,-0.29881 -0.1141,-0.0998 -0.2281,-0.19972 -0.342,-0.29973 -0.1139,-0.0999 -0.2279,-0.19961 -0.342,-0.29927 -0.1158,-0.10117 -0.2311,-0.20289 -0.3466,-0.30436 -0.1131,-0.0993 -0.2261,-0.19867 -0.3394,-0.29764 -0.1156,-0.10094 -0.2311,-0.20206 -0.3464,-0.30327 -0.113,-0.0991 -0.2264,-0.19785 -0.3396,-0.29673 -0.1156,-0.10096 -0.2306,-0.20262 -0.346,-0.30384 -0.1129,-0.0991 -0.2258,-0.19835 -0.339,-0.29716 -0.116,-0.10122 -0.2319,-0.20255 -0.3476,-0.304 -0.1135,-0.0994 -0.2267,-0.19896 -0.3404,-0.298 -0.1163,-0.1013 -0.2327,-0.20251 -0.3488,-0.30396 -0.1138,-0.0993 -0.2273,-0.19889 -0.3412,-0.29804 -0.1163,-0.10123 -0.2327,-0.20229 -0.3489,-0.3036 -0.1137,-0.0991 -0.2273,-0.19837 -0.3411,-0.2974 -0.1168,-0.10164 -0.2337,-0.20319 -0.3505,-0.30485 -0.1141,-0.0994 -0.2283,-0.19881 -0.3425,-0.29815 -0.1158,-0.10074 -0.2318,-0.20134 -0.3477,-0.30199 -0.1158,-0.1006 -0.2316,-0.20128 -0.3473,-0.30201 -0.1162,-0.1011 -0.2325,-0.20193 -0.3489,-0.30285 -0.1164,-0.10101 -0.2329,-0.20189 -0.3491,-0.30315 -0.1159,-0.10099 -0.2319,-0.20181 -0.3481,-0.30251 -0.1161,-0.10067 -0.2321,-0.20145 -0.3479,-0.30249 -0.116,-0.10124 -0.2324,-0.2021 -0.3486,-0.30306 -0.1162,-0.10089 -0.2325,-0.20168 -0.3484,-0.30294 -0.1161,-0.10143 -0.2323,-0.20266 -0.3486,-0.30379 -0.1164,-0.10115 -0.2325,-0.20261 -0.3484,-0.30421 -0.1163,-0.10192 -0.2331,-0.20331 -0.3495,-0.30503 -0.1165,-0.10168 -0.2324,-0.20387 -0.3485,-0.30597 -0.1162,-0.10224 -0.2331,-0.20372 -0.3496,-0.3057 -0.1163,-0.10188 -0.2325,-0.20395 -0.3484,-0.3063 -0.116,-0.10244 -0.2324,-0.20441 -0.3487,-0.30656 -0.1162,-0.10206 -0.2325,-0.20397 -0.3483,-0.30644 -0.116,-0.10261 -0.232,-0.2052 -0.3481,-0.30764 -0.116,-0.10238 -0.2321,-0.20472 -0.3479,-0.30736 -0.116,-0.10279 -0.232,-0.20553 -0.348,-0.30823 -0.116,-0.10263 -0.2322,-0.20495 -0.348,-0.30777 -0.1156,-0.10266 -0.231,-0.20561 -0.3466,-0.30827 -0.1155,-0.10255 -0.231,-0.2051 -0.3464,-0.30773 -0.1173,-0.10434 -0.2347,-0.2087 -0.352,-0.31307 -0.1147,-0.10199 -0.2294,-0.20385 -0.344,-0.30593 -0.1172,-0.10444 -0.2342,-0.20917 -0.3513,-0.31376 -0.1146,-0.10236 -0.2291,-0.20491 -0.3437,-0.30724 -0.1169,-0.10431 -0.2337,-0.20871 -0.3503,-0.31326 -0.1142,-0.10232 -0.2284,-0.20462 -0.3427,-0.30674 -0.117,-0.10451 -0.2336,-0.20953 -0.3501,-0.31451 -0.1141,-0.10273 -0.2284,-0.20522 -0.3429,-0.30749 -0.1174,-0.1049 -0.2341,-0.2107 -0.3509,-0.31627 -0.1145,-0.10346 -0.229,-0.20689 -0.3441,-0.30973 -0.1173,-0.10483 -0.234,-0.21035 -0.3507,-0.31582 -0.1142,-0.10326 -0.2285,-0.20656 -0.3433,-0.30918 -0.1172,-0.10476 -0.2341,-0.20996 -0.3508,-0.31521 -0.1144,-0.10302 -0.2285,-0.20626 -0.3432,-0.30879 -0.1171,-0.10463 -0.2341,-0.20937 -0.3509,-0.31433 -0.1142,-0.10268 -0.2286,-0.2053 -0.3431,-0.30767 -0.1173,-0.10486 -0.2343,-0.21012 -0.3513,-0.3153 -0.1144,-0.10279 -0.229,-0.20527 -0.3437,-0.3077 -0.1172,-0.10464 -0.2339,-0.2097 -0.351,-0.31445 -0.1146,-0.10256 -0.2292,-0.20519 -0.344,-0.30755 -0.1171,-0.10439 -0.2342,-0.2087 -0.3513,-0.31307 -0.1146,-0.10222 -0.229,-0.20481 -0.3437,-0.30693 -0.1171,-0.10422 -0.2346,-0.208 -0.3518,-0.31213 -0.1147,-0.10197 -0.2294,-0.20398 -0.3442,-0.30587 -0.1176,-0.10436 -0.2353,-0.20858 -0.353,-0.31284 -0.1153,-0.10212 -0.2307,-0.20408 -0.346,-0.30616 -0.1183,-0.10477 -0.2366,-0.20957 -0.3551,-0.31423 -0.1158,-0.10239 -0.2321,-0.20435 -0.3479,-0.30677 -0.1186,-0.10484 -0.2369,-0.20994 -0.3556,-0.3146 -0.1162,-0.10241 -0.2323,-0.20493 -0.3484,-0.3074 -0.1185,-0.10458 -0.2371,-0.20902 -0.3557,-0.31354 -0.116,-0.10226 -0.2322,-0.20431 -0.3483,-0.30646 -0.1188,-0.10453 -0.2374,-0.20929 -0.3562,-0.31383 -0.1163,-0.10236 -0.2324,-0.20497 -0.3488,-0.30717 -0.1202,-0.10549 -0.2407,-0.21063 -0.3609,-0.31606 -0.1153,-0.10107 -0.2308,-0.20184 -0.3461,-0.30294 -0.119,-0.10442 -0.2379,-0.20903 -0.357,-0.31334 -0.1167,-0.10218 -0.2334,-0.20442 -0.35,-0.30666 -0.1186,-0.10392 -0.2373,-0.2076 -0.356,-0.31134 -0.1163,-0.10161 -0.2329,-0.20289 -0.349,-0.30466 -0.1182,-0.1036 -0.2363,-0.20733 -0.3547,-0.31072 -0.1158,-0.10108 -0.2317,-0.20202 -0.3473,-0.30328 -0.1181,-0.10346 -0.2363,-0.20682 -0.3546,-0.31002 -0.1158,-0.10098 -0.2317,-0.20188 -0.3474,-0.30298 -0.1187,-0.10375 -0.2376,-0.20736 -0.3565,-0.31091 -0.1164,-0.10143 -0.2332,-0.20254 -0.3495,-0.30409 -0.1192,-0.10403 -0.2382,-0.20825 -0.3574,-0.3122 -0.1167,-0.10172 -0.233,-0.20392 -0.3496,-0.3058 -0.1191,-0.10407 -0.2386,-0.20759 -0.3577,-0.3116 -0.1165,-0.1017 -0.2329,-0.20357 -0.3493,-0.3054 -0.1186,-0.10378 -0.2374,-0.20737 -0.356,-0.31112 -0.1161,-0.10152 -0.232,-0.20326 -0.348,-0.30488 -0.1185,-0.1038 -0.2371,-0.20741 -0.3556,-0.31122 -0.1161,-0.10168 -0.2324,-0.20305 -0.3484,-0.30478 -0.1187,-0.10412 -0.2373,-0.20843 -0.3562,-0.31243 -0.1163,-0.10181 -0.2326,-0.20358 -0.3488,-0.30557 -0.1189,-0.1044 -0.238,-0.20862 -0.357,-0.31282 -0.1165,-0.10191 -0.2328,-0.20401 -0.349,-0.30618 -0.1189,-0.10457 -0.2384,-0.20855 -0.3577,-0.31275 -0.1166,-0.10188 -0.2331,-0.20385 -0.3493,-0.30625 -0.1188,-0.10477 -0.2381,-0.209 -0.3573,-0.31335 -0.1167,-0.10212 -0.2336,-0.20389 -0.3497,-0.30665 -0.1174,-0.10393 -0.2348,-0.20786 -0.3526,-0.31142 -0.1177,-0.10356 -0.2351,-0.2075 -0.3524,-0.31158 -0.1177,-0.10447 -0.2363,-0.208 -0.3545,-0.3119 -0.1183,-0.10391 -0.2368,-0.2075 -0.3545,-0.3121 -0.1175,-0.10444 -0.2353,-0.20844 -0.3535,-0.31214 -0.1181,-0.10366 -0.2362,-0.20731 -0.3535,-0.31186 -0.1177,-0.10485 -0.2358,-0.2091 -0.354,-0.31335 -0.1183,-0.10428 -0.2365,-0.20859 -0.354,-0.31365 -0.117,-0.10459 -0.2345,-0.20861 -0.352,-0.31264 -0.1176,-0.10413 -0.235,-0.20856 -0.352,-0.31336 -0.117,-0.10475 -0.2342,-0.20922 -0.3511,-0.31399 -0.1169,-0.10473 -0.2341,-0.20921 -0.3509,-0.31401 -0.1192,-0.10688 -0.2379,-0.21418 -0.3569,-0.32124 -0.114,-0.10259 -0.228,-0.20524 -0.3421,-0.30776 -0.1176,-0.10564 -0.2348,-0.2116 -0.352,-0.31762 -0.1147,-0.10376 -0.2291,-0.2079 -0.344,-0.31138 -0.1175,-0.10575 -0.2347,-0.21171 -0.3517,-0.31805 -0.1144,-0.10404 -0.2285,-0.2084 -0.3433,-0.31195 -0.1173,-0.10573 -0.2343,-0.21171 -0.351,-0.318 -0.1143,-0.10404 -0.2282,-0.20847 -0.343,-0.312 -0.1168,-0.10533 -0.2335,-0.21074 -0.3498,-0.31652 -0.114,-0.1036 -0.2278,-0.20737 -0.3422,-0.31048 -0.117,-0.10547 -0.2339,-0.21108 -0.3506,-0.31685 -0.1143,-0.10356 -0.2288,-0.20694 -0.3434,-0.31015 -0.117,-0.10536 -0.2336,-0.21114 -0.3504,-0.31672 -0.1143,-0.10334 -0.229,-0.20623 -0.3436,-0.30928 -0.1171,-0.10534 -0.2338,-0.21122 -0.3508,-0.31663 -0.1147,-0.10323 -0.2294,-0.20632 -0.3442,-0.30937 -0.1171,-0.10515 -0.2342,-0.21037 -0.3514,-0.31545 -0.1148,-0.10294 -0.2298,-0.20567 -0.3446,-0.30855 -0.117,-0.10483 -0.2338,-0.20994 -0.3507,-0.31487 -0.1145,-0.10269 -0.2287,-0.2056 -0.3433,-0.30813 -0.1169,-0.10464 -0.234,-0.20912 -0.3509,-0.31384 -0.1143,-0.10243 -0.2287,-0.20477 -0.3431,-0.30716 -0.1178,-0.10543 -0.2354,-0.21101 -0.3531,-0.3165 -0.1125,-0.1009 -0.2253,-0.20164 -0.3379,-0.3025 -0.1175,-0.10524 -0.2347,-0.21085 -0.3521,-0.31628 -0.1123,-0.10091 -0.2244,-0.20198 -0.3369,-0.30272 -0.1148,-0.1028 -0.2294,-0.20578 -0.3439,-0.30891 -0.1146,-0.10318 -0.2292,-0.2063 -0.3441,-0.30909 -0.1147,-0.10261 -0.229,-0.20567 -0.3434,-0.30868 -0.1143,-0.10299 -0.2289,-0.20575 -0.3436,-0.30832 -0.117,-0.10461 -0.2333,-0.20997 -0.3499,-0.3151 -0.1116,-0.10072 -0.2231,-0.20163 -0.3351,-0.3019 -0.1153,-0.10321 -0.2305,-0.20657 -0.3455,-0.31012 -0.1127,-0.10145 -0.2255,-0.20274 -0.3385,-0.30388 -0.1144,-0.10245 -0.2286,-0.20518 -0.3429,-0.30773 -0.1143,-0.10251 -0.2287,-0.20491 -0.3431,-0.30727 -0.1147,-0.10258 -0.2292,-0.20533 -0.3439,-0.30794 -0.1145,-0.10254 -0.2294,-0.20467 -0.3441,-0.30706 -0.1149,-0.10263 -0.2295,-0.20564 -0.3445,-0.30825 -0.1149,-0.10254 -0.2296,-0.20529 -0.3445,-0.30775 -0.1153,-0.10275 -0.2307,-0.20527 -0.346,-0.308 -0.1153,-0.10273 -0.2307,-0.20532 -0.346,-0.308 -0.1153,-0.10265 -0.2305,-0.20542 -0.3458,-0.30804 -0.1154,-0.10267 -0.2308,-0.20536 -0.3462,-0.30796 -0.1155,-0.10266 -0.2311,-0.20528 -0.3466,-0.30792 -0.1155,-0.10263 -0.2308,-0.20548 -0.3464,-0.30808 -0.1174,-0.10427 -0.2351,-0.20831 -0.3525,-0.31258 -0.1125,-0.0998 -0.225,-0.19958 -0.3375,-0.29942 -0.1176,-0.10445 -0.2352,-0.20898 -0.3529,-0.31341 -0.1126,-0.1 -0.2255,-0.19964 -0.3381,-0.29959 -0.118,-0.10469 -0.2357,-0.20963 -0.3537,-0.3143 -0.1131,-0.10028 -0.2263,-0.20041 -0.3393,-0.3007 -0.118,-0.10472 -0.236,-0.20955 -0.3541,-0.31423 -0.113,-0.1002 -0.2259,-0.20056 -0.3389,-0.30077 -0.1178,-0.10448 -0.2358,-0.20879 -0.3537,-0.31324 -0.1127,-0.0999 -0.2255,-0.19983 -0.3383,-0.29976 -0.1173,-0.10391 -0.2345,-0.20781 -0.3519,-0.31168 -0.1123,-0.0995 -0.2248,-0.19884 -0.3371,-0.29832 -0.116,-0.10273 -0.232,-0.20548 -0.3481,-0.30813 -0.1136,-0.10038 -0.2274,-0.20043 -0.3409,-0.30087 -0.1178,-0.10425 -0.2354,-0.2087 -0.3533,-0.31281 -0.1129,-0.0997 -0.2258,-0.19946 -0.3387,-0.29919 -0.118,-0.10421 -0.2361,-0.20828 -0.3541,-0.31241 -0.1131,-0.0998 -0.2258,-0.19988 -0.3389,-0.29959 -0.1162,-0.10244 -0.2328,-0.20443 -0.349,-0.30685 -0.1136,-0.10013 -0.2274,-0.20002 -0.341,-0.30015 -0.1156,-0.10186 -0.231,-0.20392 -0.3466,-0.30576 -0.1131,-0.0997 -0.2262,-0.1995 -0.3394,-0.29924 -0.1154,-0.10175 -0.2309,-0.20341 -0.3464,-0.30515 -0.1131,-0.0997 -0.2265,-0.19912 -0.3396,-0.29885 -0.1158,-0.1021 -0.2313,-0.20449 -0.3471,-0.30658 -0.1133,-0.0998 -0.2267,-0.19956 -0.3399,-0.29942 -0.1158,-0.10212 -0.2315,-0.20437 -0.3474,-0.30648 -0.1132,-0.0998 -0.2264,-0.19969 -0.3396,-0.29952 -0.1154,-0.10176 -0.2308,-0.20348 -0.3462,-0.30525 -0.1129,-0.0996 -0.2259,-0.19915 -0.3388,-0.29875 -0.1135,-0.10009 -0.2269,-0.20024 -0.3404,-0.30033 -0.1135,-0.1002 -0.227,-0.20048 -0.3406,-0.30067 -0.1134,-0.10002 -0.2269,-0.19996 -0.3402,-0.30001 -0.1133,-0.1 -0.2266,-0.19998 -0.3398,-0.29999 -0.1138,-0.10046 -0.2275,-0.20092 -0.3412,-0.30143 -0.1137,-0.10045 -0.2272,-0.20106 -0.3408,-0.30157 -0.1159,-0.10256 -0.232,-0.205 -0.3478,-0.30759 -0.111,-0.0982 -0.2223,-0.19614 -0.3332,-0.29441 -0.1129,-0.1 -0.2254,-0.20035 -0.3383,-0.30038 -0.113,-0.10013 -0.2258,-0.20046 -0.3387,-0.30062 -0.115,-0.102 -0.2302,-0.20383 -0.3452,-0.30588 -0.11,-0.0976 -0.2198,-0.19547 -0.3298,-0.29312 -0.1149,-0.10199 -0.2299,-0.20379 -0.3448,-0.30581 -0.1097,-0.0974 -0.2195,-0.19477 -0.3292,-0.29219 -0.1135,-0.10076 -0.2268,-0.20166 -0.3403,-0.30245 -0.1109,-0.0985 -0.2218,-0.19705 -0.3327,-0.29555 -0.1146,-0.10177 -0.2291,-0.20361 -0.3437,-0.30544 -0.1097,-0.0976 -0.2195,-0.19503 -0.3293,-0.29256 -0.113,-0.10041 -0.2259,-0.20098 -0.3389,-0.30145 -0.1105,-0.0983 -0.2215,-0.19628 -0.3321,-0.29455 -0.1123,-0.0997 -0.2243,-0.19981 -0.3366,-0.29949 -0.1098,-0.0975 -0.2196,-0.19501 -0.3294,-0.29251 -0.1131,-0.10044 -0.2265,-0.20055 -0.3399,-0.30074 -0.1083,-0.0958 -0.2169,-0.19125 -0.3251,-0.28726 -0.1126,-0.1 -0.2252,-0.20005 -0.338,-0.29976 -0.108,-0.0954 -0.2162,-0.19064 -0.324,-0.28624 -0.1122,-0.0995 -0.2246,-0.19892 -0.3371,-0.29813 -0.1077,-0.0949 -0.2155,-0.18969 -0.3229,-0.28487 -0.1105,-0.0979 -0.2211,-0.19552 -0.3319,-0.29303 -0.1084,-0.0953 -0.2171,-0.19027 -0.3251,-0.28597 -0.1101,-0.0975 -0.22,-0.19518 -0.3303,-0.29244 -0.1077,-0.095 -0.2152,-0.19029 -0.3227,-0.28556 -0.11,-0.0975 -0.2205,-0.19445 -0.3307,-0.29167 -0.1076,-0.0949 -0.2149,-0.19013 -0.3223,-0.28533 -0.1083,-0.096 -0.2171,-0.19145 -0.3256,-0.28719 -0.1086,-0.0958 -0.2171,-0.19173 -0.3254,-0.28781 -0.1099,-0.0974 -0.22,-0.1946 -0.33,-0.291874 -0.1051,-0.09293 -0.21,-0.186057 -0.315,-0.279126 -0.1099,-0.09744 -0.2202,-0.194413 -0.3304,-0.291596 -0.105,-0.09266 -0.2098,-0.185506 -0.3146,-0.278404 -0.1081,-0.0958 -0.2165,-0.191161 -0.3248,-0.286695 -0.1058,-0.09334 -0.2116,-0.186778 -0.3172,-0.280305 -0.1076,-0.09526 -0.2155,-0.190169 -0.3233,-0.285175 -0.1054,-0.09282 -0.2105,-0.185861 -0.3157,-0.278825 -0.1087,-0.09604 -0.2178,-0.191633 -0.3267,-0.287446 -0.1037,-0.09126 -0.2077,-0.182201 -0.3113,-0.273554 -0.1076,-0.09486 -0.2149,-0.190073 -0.3225,-0.284948 -0.1051,-0.09271 -0.2102,-0.185546 -0.3155,-0.278052 -0.106,-0.09306 -0.212,-0.186034 -0.3179,-0.279121 -0.1059,-0.09308 -0.212,-0.18604 -0.3181,-0.278879 -0.1056,-0.09235 -0.2109,-0.184932 -0.3164,-0.277385 -0.1054,-0.09236 -0.2109,-0.184601 -0.3166,-0.276615 -0.1067,-0.09286 -0.213,-0.186025 -0.3196,-0.279044 -0.104,-0.09082 -0.208,-0.1816 -0.3124,-0.271956 -0.1066,-0.09227 -0.213,-0.184794 -0.3194,-0.277278 -0.1041,-0.09041 -0.2081,-0.180808 -0.3126,-0.270722 -0.1064,-0.0916 -0.2127,-0.183362 -0.319,-0.27509 -0.1038,-0.08955 -0.2078,-0.178866 -0.312,-0.26791 -0.1052,-0.08986 -0.21,-0.180121 -0.3151,-0.270099 -0.105,-0.08995 -0.2103,-0.179658 -0.3159,-0.268901 -0.1051,-0.08879 -0.2099,-0.177946 -0.3149,-0.266844 -0.1051,-0.089 -0.2103,-0.17793 -0.3161,-0.266156 -0.1055,-0.08796 -0.2109,-0.175974 -0.3163,-0.263903 -0.1057,-0.08803 -0.2115,-0.175768 -0.3177,-0.263097 -0.1058,-0.08701 -0.2114,-0.174306 -0.3172,-0.26128 -0.1059,-0.08702 -0.2123,-0.173468 -0.3188,-0.25972 -0.1064,-0.08614 -0.2123,-0.172824 -0.3187,-0.258919 -0.1064,-0.08611 -0.2132,-0.171821 -0.3203,-0.257081 -0.108,-0.08597 -0.2157,-0.172338 -0.3237,-0.258284 -0.1055,-0.08394 -0.2111,-0.167717 -0.3173,-0.250716 -0.108,-0.08437 -0.2158,-0.168985 -0.3237,-0.25339 -0.1054,-0.08238 -0.211,-0.164374 -0.3173,-0.24561 -0.1071,-0.08188 -0.2138,-0.164345 -0.3207,-0.246382 -0.1071,-0.08207 -0.2142,-0.16396 -0.3223,-0.244618 -0.1077,-0.0804 -0.2151,-0.16124 -0.3227,-0.241886 -0.1076,-0.08069 -0.2155,-0.161003 -0.3243,-0.240114 -0.1085,-0.07888 -0.2164,-0.158444 -0.3247,-0.237584 -0.1083,-0.07915 -0.2167,-0.158042 -0.3263,-0.235416 -0.1092,-0.07715 -0.218,-0.154929 -0.327,-0.232422 -0.1092,-0.0776 -0.2185,-0.154939 -0.329,-0.230578 -0.1112,-0.07608 -0.222,-0.152682 -0.3329,-0.228992 -0.1085,-0.07454 -0.2174,-0.148304 -0.3271,-0.221008 -0.1119,-0.07417 -0.2232,-0.149156 -0.3351,-0.223299 -0.1091,-0.07231 -0.2186,-0.144116 -0.3289,-0.214701 -0.1129,-0.07227 -0.2256,-0.14489 -0.3386,-0.216956 -0.1101,-0.07022 -0.2203,-0.140448 -0.3314,-0.209044 -0.114,-0.07033 -0.2281,-0.140316 -0.3423,-0.210288 -0.1112,-0.06814 -0.2226,-0.136016 -0.3347,-0.202712 -0.1149,-0.0684 -0.23,-0.136615 -0.3452,-0.204518 -0.1122,-0.06613 -0.2248,-0.131732 -0.3378,-0.196482 -0.116,-0.06645 -0.2319,-0.133066 -0.3481,-0.19912 -0.1132,-0.06435 -0.2269,-0.128011 -0.3409,-0.19088 -0.1151,-0.06346 -0.23,-0.127316 -0.3453,-0.190502 -0.1152,-0.06315 -0.2307,-0.125875 -0.3467,-0.187498 -0.1154,-0.06126 -0.2305,-0.12293 -0.3459,-0.184185 -0.1153,-0.06126 -0.2308,-0.122259 -0.3471,-0.181815 -0.116,-0.05942 -0.2317,-0.119302 -0.3476,-0.178944 -0.1158,-0.05962 -0.2316,-0.119311 -0.3484,-0.177056 -0.1178,-0.05823 -0.2353,-0.116784 -0.3529,-0.175367 -0.1146,-0.0571 -0.2295,-0.11357 -0.3451,-0.168633 -0.1182,-0.05629 -0.2357,-0.113829 -0.3536,-0.170698 -0.115,-0.05546 -0.2303,-0.110155 -0.3464,-0.163302 -0.1193,-0.05464 -0.238,-0.110636 -0.3571,-0.165852 -0.1159,-0.05378 -0.2319,-0.107591 -0.3489,-0.159148 -0.1198,-0.05282 -0.2394,-0.106414 -0.3589,-0.159989 -0.1163,-0.05216 -0.2327,-0.104283 -0.3501,-0.154011 -0.1204,-0.05101 -0.2406,-0.102795 -0.3607,-0.154509 -0.1171,-0.05038 -0.2342,-0.100506 -0.3523,-0.148491 -0.1209,-0.04914 -0.2415,-0.09901 -0.3622,-0.148603 -0.1176,-0.04831 -0.2353,-0.09623 -0.3538,-0.142397 -0.1214,-0.0473 -0.2429,-0.09424 -0.3645,-0.140759 -0.1186,-0.04534 -0.2375,-0.08986 -0.3565,-0.134241 -0.1218,-0.04544 -0.2435,-0.09111 -0.3655,-0.135924 -0.1189,-0.04368 -0.2382,-0.08653 -0.3575,-0.129076 -0.1197,-0.04268 -0.2393,-0.08577 -0.3592,-0.128047 -0.1197,-0.04223 -0.2396,-0.08403 -0.3598,-0.124953 -0.1211,-0.04123 -0.2421,-0.0825 -0.3633,-0.123332 -0.1181,-0.03976 -0.2362,-0.07915 -0.3547,-0.117668 -0.1205,-0.03919 -0.2411,-0.07831 -0.3618,-0.117048 -0.1209,-0.03881 -0.2419,-0.07738 -0.3632,-0.114952 -0.1211,-0.0375 -0.2422,-0.07478 -0.3635,-0.111825 -0.1213,-0.03707 -0.2428,-0.07339 -0.3645,-0.109175 -0.1217,-0.03577 -0.2432,-0.07185 -0.365,-0.10718 -0.1218,-0.03533 -0.2438,-0.0698 -0.366,-0.10382 -0.1221,-0.03401 -0.2441,-0.06852 -0.3663,-0.102159 -0.1224,-0.03368 -0.245,-0.06656 -0.3677,-0.09884 -0.1241,-0.03263 -0.248,-0.06555 -0.3722,-0.09765 -0.1211,-0.03131 -0.2423,-0.06237 -0.3638,-0.09235 -0.1244,-0.0307 -0.2488,-0.06104 -0.3734,-0.09109 -0.1213,-0.0293 -0.2429,-0.05791 -0.3646,-0.08591 -0.1248,-0.02871 -0.2495,-0.05751 -0.3745,-0.08558 -0.1217,-0.02735 -0.2435,-0.05439 -0.3655,-0.08042 -0.125,-0.02667 -0.2501,-0.05299 -0.3753,-0.07895 -0.1221,-0.02533 -0.2443,-0.05004 -0.3667,-0.07405 -0.1251,-0.02454 -0.2501,-0.04889 -0.3754,-0.07262 -0.122,-0.02314 -0.2443,-0.04542 -0.3666,-0.06738 -0.125,-0.02244 -0.2499,-0.04496 -0.375,-0.06666 -0.122,-0.02114 -0.2439,-0.04222 -0.366,-0.06234 -0.1251,-0.02063 -0.2504,-0.04053 -0.3757,-0.0604 -0.122,-0.01936 -0.2441,-0.03803 -0.3663,-0.0566 -0.126,-0.01914 -0.2519,-0.03848 -0.378,-0.05706 -0.1226,-0.01808 -0.2452,-0.03599 -0.368,-0.05294 -0.126,-0.0174 -0.2521,-0.03484 -0.3781,-0.05204 -0.1225,-0.01672 -0.2452,-0.03283 -0.3679,-0.04796 -0.1259,-0.01552 -0.2517,-0.03141 -0.3776,-0.04668 -0.1224,-0.01484 -0.2449,-0.02894 -0.3674,-0.04232 -0.1265,-0.01381 -0.253,-0.02851 -0.3795,-0.04243 -0.1231,-0.01354 -0.2462,-0.02685 -0.3695,-0.03857 -0.1266,-0.01203 -0.2532,-0.02435 -0.3798,-0.03642 -0.1233,-0.01176 -0.2467,-0.02355 -0.3702,-0.03358 -0.2493,-0.02023 -0.4985,-0.04113 -0.748,-0.058 -0.127,-0.0086 -0.254,-0.01738 -0.381,-0.02557 -0.124,-0.008 -0.248,-0.01567 -0.372,-0.02243 -0.1275,-0.007 -0.255,-0.01385 -0.3825,-0.02041 -0.1241,-0.0064 -0.2483,-0.01244 -0.3725,-0.01759"
       id="path_2020_12_05_02_39_24_707903"
       inkscape:connector-curvature="0"
       inkscape:label="path_rddf-log_volta_da_ufes-20190625-contrario.txt"
       sodipodi:nodetypes="caaaaaaaaaaaaaaaaaaaaaaaaaaaaaaaaaaaaaaaaaaaaaaaaaaaaaaaaaaaaaaaaaaaaaaaaaaaaaaaaaaaaaaaaaaaaaaaaaaaaaaaaaaaaaaaaaaaaaaaaaaaaaaaaaaaaaaaaaaaaaaaaaaaaaaaaaaaaaaaaaaaaaaaaaaaaaaaaaaaaaaaaaaaaaaaaaaaaaaaaaaaaaaaaaaaaaaaaaaaaaaaaaaaaaaaaaaaaaaaaaaaaaaaaaaaaaaaaaaaaaaaaaaaaaaaaaaaaaaaaaaaaaaaaaaaaaaaaaaaaaaaaaaaaaaaaaaaaaaaaaaaaaaaaaaaaaaaaaaaaaaaaaaaaaaaaaaaaaaaaaaaaaaaaaaaaaaaaaaaaaaaaaaaaaaaaaaaaaaaaaaaaaaaaaaaaaaaaaaaaaaaaaaaaaaaaaaaaaaaaaaaaaaaaaaaaaaaaaaaaaaaaaaaaaaaaaaaaaaaaaaaaaaaaaaaaaaaaaaaaaaaaaaaaaaaaaaaaaaaaaaaaaaaaaaaaaaaaaaaaaaaaaaaaaaaaaaaaaaaaaaaaaaaaaaaaaaaaaaaaaaaaaaaaaaaaaaaaaaaaaaaaaaaaaaaaaaaaaaaaaaaaaaaaaaaaaaaaaaaaaaaaaaaaaaaaaaaaaaaaaaaaaaaaaaaaaaaaaaaaaaaaaaac"
       style="fill:none;stroke:#ff00ff;stroke-width:0.40000001px;stroke-linecap:butt;stroke-linejoin:miter;stroke-miterlimit:4;stroke-dasharray:none;stroke-opacity:1" />
    <path
       d="m 1309.04,81.959 c 0.2363,0.005 0.4727,0.0062 0.709,0.014 0.1339,0.0044 0.2676,0.012 0.4013,0.02012 0.1302,0.0079 0.2604,0.01689 0.3907,0.02388 0.1473,0.0079 0.2947,0.01325 0.4421,0.01883 0.144,0.0054 0.288,0.01071 0.4319,0.01759 0.1438,0.0069 0.2875,0.01566 0.431,0.02758 0.2292,0.01903 0.4589,0.03071 0.688,0.051 0.1302,0.01153 0.2602,0.02622 0.3901,0.04106 0.1266,0.01446 0.2532,0.02887 0.3799,0.04194 0.1506,0.01553 0.3005,0.03632 0.4505,0.0572 0.1464,0.02039 0.2927,0.04122 0.4395,0.0588 0.1331,0.01595 0.2664,0.03088 0.3996,0.04642 0.1296,0.01512 0.2592,0.03134 0.3884,0.04958 0.1363,0.01923 0.2712,0.04738 0.4058,0.07623 0.1279,0.02743 0.2559,0.05544 0.3852,0.07577 0.1323,0.02081 0.2649,0.04031 0.3973,0.06073 0.1291,0.01991 0.2581,0.04051 0.3867,0.06327 0.1724,0.0305 0.343,0.0704 0.515,0.103 0.1377,0.0261 0.2752,0.05332 0.4125,0.08155 0.1339,0.02753 0.2677,0.05567 0.4015,0.08345 0.2176,0.04516 0.438,0.07709 0.655,0.125 0.1514,0.03342 0.3027,0.06753 0.4537,0.102355 0.1476,0.03401 0.2951,0.06834 0.4423,0.103645 0.1373,0.03292 0.2738,0.06897 0.4102,0.105285 0.13,0.03458 0.2597,0.0699 0.3898,0.103715 0.1263,0.03281 0.2541,0.05944 0.3817,0.08678 0.1243,0.02664 0.2487,0.05352 0.3713,0.08722 0.1456,0.04004 0.2911,0.08066 0.4365,0.121665 0.1454,0.04101 0.2906,0.08258 0.4355,0.125335 0.1412,0.04166 0.2798,0.09158 0.4182,0.141871 0.132,0.048 0.2639,0.09664 0.3978,0.139129 0.1248,0.03962 0.2509,0.07532 0.3767,0.111621 0.1257,0.03624 0.2513,0.07283 0.3753,0.114379 0.1675,0.05613 0.3352,0.111735 0.502,0.17 0.2207,0.0771 0.4393,0.160014 0.659,0.24 0.1449,0.05277 0.2896,0.106304 0.434,0.16048 0.1412,0.05298 0.2822,0.106345 0.423,0.16052 0.1382,0.05319 0.2744,0.111414 0.4106,0.169735 0.13,0.05572 0.26,0.111648 0.3914,0.164265 0.1371,0.0549 0.2732,0.111981 0.4092,0.16946 0.1299,0.0549 0.2598,0.109877 0.3898,0.16454 0.142,0.05973 0.2827,0.12268 0.4233,0.185777 0.1344,0.06035 0.2689,0.120725 0.4037,0.180223 0.1325,0.05847 0.2629,0.121692 0.3932,0.184884 0.1273,0.06172 0.2543,0.123883 0.3828,0.183116 0.1366,0.06298 0.2751,0.121706 0.4133,0.181019 0.1351,0.05799 0.2702,0.116155 0.4027,0.179981 0.1325,0.06387 0.2615,0.135097 0.3903,0.206189 0.126,0.06955 0.2519,0.13945 0.3807,0.203811 0.1431,0.07155 0.2888,0.137862 0.4342,0.204805 0.1424,0.0656 0.2848,0.13154 0.4238,0.204195 0.1196,0.06251 0.2384,0.126331 0.3573,0.19021 0.116,0.06238 0.2319,0.124933 0.3477,0.18779 0.1384,0.07517 0.2767,0.150772 0.4147,0.22669 0.1382,0.076 0.276,0.152759 0.4133,0.23031 0.1497,0.08453 0.2942,0.17794 0.443,0.264 0.2152,0.124436 0.4402,0.231516 0.653,0.36 0.1375,0.08304 0.2749,0.166348 0.4118,0.250299 0.1368,0.08389 0.2733,0.168358 0.4093,0.253676 0.1331,0.08355 0.2659,0.167618 0.3979,0.253025 0.1347,0.08719 0.2674,0.177454 0.3995,0.268685 0.1293,0.08936 0.2577,0.179953 0.3863,0.270412 0.1286,0.09055 0.2574,0.180962 0.3872,0.269903 0.1711,0.117243 0.3424,0.234154 0.5128,0.352435 0.1676,0.116401 0.3346,0.233902 0.4992,0.354565 0.1404,0.102912 0.268,0.222542 0.408,0.326 0.118,0.08721 0.2355,0.175138 0.3525,0.263669 0.1117,0.0845 0.2232,0.169246 0.3345,0.254331 0.1345,0.102834 0.2692,0.205277 0.403,0.309 0.1197,0.09283 0.2364,0.189565 0.3528,0.286494 0.1141,0.09495 0.2279,0.190253 0.3442,0.282506 0.1654,0.131208 0.3221,0.273021 0.486,0.406 0.1509,0.122394 0.3042,0.241767 0.4568,0.361961 0.1526,0.120155 0.3048,0.240888 0.4542,0.365039 0.1236,0.102749 0.2447,0.208515 0.3655,0.314567 0.1182,0.103816 0.2363,0.207874 0.3565,0.309433 0.1402,0.118433 0.2783,0.239249 0.4163,0.360208 0.133,0.116587 0.2662,0.232961 0.4007,0.347792 0.1166,0.09952 0.2276,0.205412 0.3388,0.310853 0.1112,0.105383 0.2226,0.210747 0.3392,0.310147 0.1248,0.106406 0.2467,0.216172 0.3687,0.325743 0.1194,0.107238 0.2391,0.214217 0.3613,0.318257 0.1091,0.09291 0.2161,0.188343 0.3233,0.283496 0.1046,0.09287 0.2091,0.185864 0.3157,0.276504 0.1379,0.117329 0.2801,0.229674 0.418,0.347 0.1222,0.103946 0.2406,0.212343 0.3585,0.32114 0.1154,0.106503 0.2309,0.213092 0.3505,0.31486 0.1507,0.1282 0.2924,0.266754 0.443,0.395 0.1819,0.154874 0.3662,0.306984 0.548,0.462 0.1328,0.113225 0.2624,0.230126 0.392,0.347 0.1273,0.114812 0.2547,0.229592 0.385,0.341 0.1166,0.0997 0.2288,0.20442 0.3411,0.30895 0.1076,0.10015 0.2153,0.20035 0.3269,0.29605 0.1284,0.11008 0.2587,0.21784 0.387,0.328 0.1098,0.0942 0.2181,0.19016 0.3267,0.28563 0.1038,0.0911 0.2076,0.18224 0.3123,0.27237 0.1428,0.12296 0.2804,0.25185 0.423,0.375 0.1531,0.13221 0.299,0.27264 0.452,0.405 0.1095,0.0948 0.2165,0.19246 0.3235,0.29009 0.1047,0.0956 0.2095,0.191 0.3165,0.28391 0.175,0.1519 0.3541,0.29904 0.529,0.451 0.1137,0.0988 0.2267,0.1983 0.3396,0.29805 0.1078,0.0953 0.2158,0.19052 0.3244,0.28495 0.1287,0.11189 0.2564,0.22502 0.385,0.337 0.1524,0.13263 0.2967,0.27431 0.449,0.407 0.1133,0.0987 0.2259,0.19839 0.3382,0.29831 0.1073,0.0955 0.2145,0.19126 0.3228,0.28569 0.1352,0.11787 0.2638,0.2431 0.399,0.361 0.1452,0.12665 0.2938,0.24934 0.439,0.376 0.1264,0.11025 0.2516,0.22183 0.378,0.332 0.1338,0.11657 0.2681,0.23253 0.402,0.349 0.129,0.11226 0.2599,0.22245 0.3909,0.33239 0.1259,0.10562 0.252,0.21097 0.3761,0.31861 0.1212,0.10508 0.2433,0.20901 0.3658,0.31263 0.1199,0.10153 0.2403,0.20261 0.3592,0.30537 0.1422,0.12291 0.2866,0.24327 0.429,0.366 0.1463,0.12609 0.2985,0.24514 0.445,0.371 0.1068,0.0917 0.215,0.18178 0.3232,0.27181 0.1057,0.0879 0.2114,0.17579 0.3158,0.26519 0.1423,0.12179 0.2862,0.24155 0.4303,0.36124 0.1414,0.11757 0.2828,0.23533 0.4227,0.35476 0.1297,0.1107 0.257,0.22414 0.3842,0.33771 0.1272,0.11361 0.2548,0.2268 0.3848,0.33729 0.1473,0.12521 0.2917,0.25377 0.4364,0.38188 0.1424,0.12599 0.2847,0.25204 0.4296,0.37512 0.1388,0.11789 0.2872,0.22414 0.426,0.342 0.1555,0.13202 0.3135,0.26102 0.469,0.393 0.13,0.1103 0.2607,0.21965 0.3916,0.32888 0.1283,0.10711 0.2567,0.21425 0.3844,0.32212 0.1456,0.12294 0.2883,0.24917 0.434,0.372 0.133,0.11211 0.253,0.23897 0.386,0.351 0.1379,0.11616 0.2777,0.23015 0.4174,0.3441 0.1374,0.11199 0.2748,0.22403 0.4106,0.3379 0.1289,0.10807 0.2544,0.22023 0.3798,0.33235 0.1229,0.10986 0.2457,0.21998 0.3722,0.32565 0.1367,0.11417 0.2842,0.21501 0.421,0.329 0.1332,0.11093 0.2677,0.2202 0.401,0.331 0.1185,0.0985 0.2368,0.19733 0.3549,0.29624 0.1156,0.0967 0.2311,0.19352 0.3471,0.28976 0.1698,0.14088 0.3392,0.28213 0.509,0.423 0.1367,0.11346 0.2684,0.23298 0.4001,0.35222 0.1267,0.1147 0.2534,0.22957 0.3849,0.33878 0.1346,0.11184 0.2692,0.22382 0.4035,0.33601 0.1291,0.10779 0.2583,0.21542 0.3875,0.32299 0.1467,0.12211 0.2863,0.25256 0.426,0.38261 0.1347,0.12535 0.2697,0.25058 0.411,0.36839 0.098,0.0817 0.1962,0.16304 0.2945,0.24427 0.098,0.0811 0.1967,0.16207 0.2945,0.24373 0.1535,0.12812 0.2996,0.2648 0.453,0.393 0.1538,0.12855 0.3082,0.25644 0.462,0.385 0.1299,0.10854 0.2652,0.2104 0.395,0.319 0.1346,0.1126 0.2514,0.24536 0.386,0.358 0.1508,0.12627 0.2822,0.27472 0.433,0.401 0.1414,0.11835 0.2707,0.25063 0.412,0.369 0.1265,0.10592 0.2509,0.21431 0.3754,0.3225 0.1219,0.1059 0.2439,0.21174 0.3676,0.3155 0.1125,0.0944 0.223,0.19103 0.3336,0.2876 0.1078,0.0942 0.2157,0.18836 0.3254,0.2804 0.1499,0.12578 0.2942,0.25813 0.444,0.384 0.1386,0.11641 0.2625,0.24951 0.401,0.366 0.1569,0.13195 0.3042,0.27494 0.461,0.407 0.1419,0.11949 0.2702,0.25439 0.412,0.374 0.1336,0.11275 0.2612,0.23258 0.3885,0.35243 0.1225,0.11535 0.2451,0.2308 0.3735,0.33957 0.1247,0.10565 0.2473,0.21384 0.3697,0.32211 0.1175,0.10394 0.2348,0.20818 0.3543,0.30989 0.1648,0.14035 0.3204,0.29141 0.485,0.432 0.1315,0.11226 0.2477,0.24156 0.379,0.354 0.1275,0.10915 0.2467,0.22767 0.374,0.337 0.1492,0.12813 0.28,0.27667 0.429,0.405 0.132,0.11363 0.2542,0.23822 0.386,0.352 0.1365,0.11784 0.2666,0.24305 0.403,0.361 0.1294,0.11186 0.2501,0.23347 0.3707,0.3548 0.1182,0.11899 0.2367,0.23812 0.3633,0.3482 0.1506,0.13097 0.2896,0.27482 0.44,0.406 0.1364,0.11899 0.2692,0.24214 0.4018,0.36533 0.1302,0.12089 0.2606,0.24155 0.3942,0.35867 0.1728,0.15156 0.3274,0.3231 0.5,0.475 0.1635,0.14397 0.3127,0.30374 0.476,0.448 0.1255,0.11085 0.2504,0.22236 0.3749,0.33429 0.1195,0.10743 0.2389,0.21504 0.3591,0.32171 0.1373,0.12183 0.2702,0.24858 0.4029,0.37538 0.128,0.12231 0.256,0.24477 0.3881,0.36262 0.138,0.12304 0.2707,0.2519 0.4032,0.38077 0.1278,0.12427 0.2561,0.24824 0.3888,0.36723 0.1368,0.12264 0.2673,0.25217 0.404,0.375 0.1322,0.11886 0.2609,0.24165 0.3892,0.36473 0.1258,0.12065 0.2515,0.24146 0.3808,0.35827 0.1485,0.13416 0.2856,0.28069 0.434,0.415 0.1648,0.14916 0.3373,0.28967 0.502,0.439 0.1369,0.12414 0.2742,0.24775 0.411,0.372 0.1193,0.10837 0.2366,0.21894 0.3537,0.32963 0.1124,0.10621 0.225,0.21226 0.3393,0.31637 0.1462,0.1331 0.29,0.26874 0.436,0.402 0.1531,0.13973 0.311,0.27416 0.464,0.414 0.1424,0.13014 0.2796,0.26584 0.422,0.396 0.1278,0.11686 0.2562,0.23311 0.384,0.35 0.1236,0.11308 0.2484,0.22493 0.372,0.338 0.142,0.12985 0.289,0.25414 0.431,0.384 0.1254,0.11469 0.2536,0.22633 0.379,0.341 0.1421,0.12993 0.2859,0.25807 0.428,0.388 0.1319,0.12053 0.2651,0.23948 0.397,0.36 0.1431,0.13081 0.2838,0.26423 0.427,0.395 0.1467,0.13405 0.2973,0.26394 0.444,0.398 0.1471,0.1344 0.2879,0.27562 0.435,0.41 0.1475,0.13468 0.2986,0.26532 0.446,0.4 0.1283,0.11716 0.2767,0.21086 0.405,0.328 0.1341,0.12249 0.2758,0.23659 0.41,0.359 0.1435,0.13085 0.2864,0.26224 0.43,0.393 0.1449,0.13202 0.2969,0.25613 0.442,0.388 0.1514,0.13764 0.3045,0.27347 0.456,0.411 0.13,0.11796 0.266,0.22912 0.396,0.347 0.147,0.13324 0.2989,0.26091 0.446,0.394 0.1273,0.11521 0.2596,0.22492 0.387,0.34 0.1619,0.14621 0.3339,0.28098 0.496,0.427 0.1288,0.11604 0.2681,0.22007 0.397,0.336 0.138,0.1241 0.2849,0.23803 0.423,0.362 0.1435,0.12881 0.2864,0.25832 0.43,0.387 0.1397,0.12518 0.28,0.24965 0.4205,0.37398 0.1381,0.12221 0.2764,0.24418 0.4145,0.36628 0.1357,0.11987 0.2709,0.24029 0.406,0.36074 0.1146,0.10211 0.2296,0.20367 0.3444,0.30557 0.1147,0.1019 0.2295,0.20371 0.3444,0.30545 0.1124,0.0995 0.2248,0.19901 0.3373,0.29843 0.1149,0.10164 0.23,0.20323 0.345,0.3048 0.1125,0.0994 0.2253,0.1984 0.3379,0.29775 0.1504,0.13275 0.3032,0.26273 0.454,0.395 0.1486,0.13031 0.3012,0.25599 0.45,0.386 0.187,0.16332 0.3727,0.32804 0.56,0.491 0.1657,0.14418 0.32,0.30113 0.486,0.445 0.1522,0.13194 0.3005,0.26835 0.453,0.4 0.1313,0.11335 0.261,0.22856 0.3906,0.34379 0.1271,0.11291 0.2545,0.22546 0.3834,0.33621 0.1343,0.11539 0.2706,0.22857 0.4071,0.34142 0.1312,0.10849 0.2625,0.21694 0.3919,0.32758 0.1553,0.13276 0.31,0.26615 0.4649,0.39943 0.1547,0.13319 0.3096,0.26623 0.4651,0.39857 0.1478,0.12582 0.295,0.25235 0.443,0.378 0.1399,0.11884 0.2785,0.23929 0.4172,0.35965 0.136,0.11811 0.2723,0.23598 0.4098,0.35235 0.1274,0.10783 0.2528,0.21815 0.3783,0.32823 0.1232,0.10805 0.2465,0.21605 0.3717,0.32177 0.1478,0.12475 0.2951,0.25004 0.4424,0.37531 0.1449,0.12322 0.2902,0.24602 0.4356,0.36869 0.1606,0.13551 0.3174,0.27546 0.478,0.411 0.1332,0.11241 0.2654,0.22595 0.3975,0.3396 0.1296,0.11145 0.2589,0.22315 0.3895,0.3334 0.1149,0.097 0.2256,0.19902 0.336,0.30116 0.1079,0.0998 0.2157,0.19993 0.328,0.29484 0.1594,0.13474 0.3077,0.28223 0.467,0.417 0.151,0.12772 0.29,0.2692 0.441,0.397 0.1485,0.12573 0.2956,0.25313 0.444,0.379 0.1276,0.10828 0.2522,0.2202 0.3763,0.33247 0.1218,0.1101 0.2436,0.22029 0.3687,0.32653 0.141,0.11973 0.27,0.25325 0.411,0.373 0.1854,0.15747 0.3626,0.32452 0.548,0.482 0.1466,0.12452 0.2824,0.26145 0.429,0.386 0.1323,0.11242 0.2575,0.23312 0.3824,0.35365 0.1228,0.11838 0.2457,0.23689 0.3756,0.34735 0.1556,0.13234 0.3044,0.2726 0.46,0.405 0.165,0.14045 0.3272,0.28432 0.492,0.425 0.143,0.122 0.2671,0.26489 0.41,0.387 0.1642,0.14036 0.327,0.28239 0.491,0.423 0.1451,0.12443 0.281,0.25936 0.426,0.384 0.162,0.13927 0.3153,0.28844 0.477,0.428 0.1359,0.11728 0.2693,0.23746 0.405,0.355 0.1336,0.11576 0.2653,0.23378 0.3967,0.35203 0.1266,0.11389 0.253,0.22804 0.3813,0.33997 0.1271,0.11085 0.2641,0.20993 0.391,0.321 0.1542,0.13496 0.3041,0.27474 0.458,0.41 0.1331,0.11698 0.2601,0.24083 0.393,0.358 0.153,0.13484 0.3093,0.26589 0.462,0.401 0.1377,0.12184 0.2735,0.24595 0.411,0.368 0.1379,0.12236 0.2761,0.24437 0.4141,0.36665 0.138,0.12235 0.2762,0.24459 0.4139,0.36735 0.1677,0.14953 0.3224,0.31328 0.49,0.463 0.1352,0.1208 0.2708,0.24116 0.4065,0.36147 0.133,0.11797 0.2661,0.23586 0.3985,0.35453 0.1421,0.12733 0.2981,0.23851 0.44,0.366 0.097,0.0874 0.1928,0.17656 0.2882,0.2659 0.09,0.0846 0.1808,0.16919 0.2728,0.2521 0.1497,0.13493 0.2976,0.27181 0.447,0.407 0.1452,0.13132 0.294,0.25846 0.439,0.39 0.1296,0.11756 0.2574,0.23701 0.3849,0.35675 0.1251,0.11742 0.2503,0.23465 0.3771,0.35025 0.1335,0.12176 0.2646,0.24608 0.398,0.368 0.1266,0.11576 0.2545,0.23011 0.381,0.346 0.1415,0.12962 0.2857,0.25623 0.427,0.386 0.125,0.1148 0.2551,0.22408 0.38,0.339 0.1328,0.1222 0.2752,0.23374 0.408,0.356 0.1332,0.12268 0.2798,0.23029 0.413,0.353 0.1439,0.13254 0.2982,0.2534 0.442,0.386 0.146,0.13463 0.291,0.27033 0.437,0.405 0.1228,0.11334 0.2252,0.24761 0.348,0.361 0.1671,0.15429 0.3359,0.30666 0.503,0.461 0.1414,0.13062 0.2826,0.26139 0.424,0.392 0.1302,0.12025 0.2628,0.23778 0.393,0.358 0.1424,0.13146 0.2896,0.25762 0.432,0.389 0.1349,0.12446 0.2683,0.2506 0.402,0.37631 0.1339,0.12577 0.2678,0.25141 0.403,0.37569 0.1345,0.12362 0.2724,0.24352 0.407,0.367 0.1293,0.11856 0.2506,0.24559 0.38,0.364 0.1621,0.14833 0.3266,0.294 0.489,0.442 0.1384,0.12615 0.2894,0.23807 0.428,0.364 0.1563,0.14199 0.3114,0.28535 0.468,0.427 0.1387,0.12543 0.2849,0.24234 0.4306,0.3595 0.1432,0.11505 0.2868,0.22981 0.4234,0.3525 0.1072,0.0963 0.2167,0.18993 0.3265,0.28323 0.1047,0.0889 0.209,0.17829 0.3115,0.26977 0.1244,0.11109 0.2634,0.20512 0.388,0.316 0.1474,0.13116 0.3053,0.25017 0.453,0.381 0.1618,0.14334 0.3379,0.27003 0.5,0.413 0.1344,0.11853 0.2743,0.23073 0.409,0.349 0.1389,0.122 0.3029,0.21325 0.442,0.335 0.141,0.12339 0.283,0.24557 0.4254,0.36736 0.1372,0.11743 0.2742,0.2352 0.4106,0.35364 0.1423,0.12357 0.2884,0.24271 0.431,0.366 0.1433,0.12393 0.2905,0.24333 0.434,0.367 0.1531,0.13188 0.3107,0.25841 0.464,0.39 0.1354,0.11622 0.2625,0.24195 0.398,0.358 0.1375,0.11772 0.2783,0.23149 0.416,0.349 0.1601,0.13666 0.3217,0.2716 0.482,0.408 0.1371,0.11662 0.2748,0.23256 0.412,0.349 0.1385,0.1175 0.2704,0.24267 0.409,0.36 0.1386,0.11727 0.2743,0.23789 0.413,0.355 0.1442,0.12178 0.2886,0.2434 0.433,0.365 0.1305,0.10986 0.2605,0.22026 0.391,0.33 0.1301,0.10934 0.2659,0.21175 0.396,0.321 0.1377,0.11563 0.2702,0.23749 0.408,0.353 0.1421,0.11906 0.2738,0.25005 0.416,0.369 0.1761,0.1474 0.3598,0.28569 0.536,0.433 0.1512,0.12635 0.2998,0.25575 0.451,0.382 0.1538,0.12838 0.3102,0.25363 0.464,0.382 0.1233,0.10291 0.2419,0.21134 0.3606,0.31953 0.1162,0.10592 0.2326,0.21177 0.3534,0.31247 0.1436,0.11971 0.2805,0.24726 0.424,0.367 0.1319,0.11001 0.2632,0.22067 0.3947,0.33118 0.1288,0.10825 0.2572,0.21696 0.3863,0.32482 0.1078,0.0901 0.2063,0.19105 0.3041,0.29194 0.096,0.0985 0.1916,0.19707 0.2969,0.28506 0.1408,0.11765 0.2773,0.2403 0.418,0.358 0.145,0.1213 0.2771,0.2576 0.422,0.379 0.1111,0.0931 0.2158,0.19366 0.3203,0.29414 0.102,0.0981 0.2044,0.19588 0.3127,0.28686 0.1398,0.11743 0.2714,0.24437 0.411,0.362 0.1109,0.0935 0.2154,0.19441 0.32,0.2949 0.1021,0.0981 0.204,0.19661 0.312,0.2881 0.1276,0.10809 0.2513,0.22072 0.3747,0.33367 0.1183,0.10836 0.2363,0.21714 0.3583,0.32133 0.1203,0.10273 0.2421,0.20364 0.3635,0.30503 0.1187,0.0991 0.2373,0.19815 0.3545,0.29897 0.115,0.099 0.2273,0.20114 0.3396,0.30316 0.1074,0.0975 0.2147,0.19499 0.3244,0.28984 0.135,0.11671 0.2703,0.23304 0.405,0.35 0.1109,0.0963 0.2189,0.19595 0.3268,0.29565 0.1032,0.0954 0.2063,0.19093 0.3122,0.28335 0.1163,0.10154 0.2281,0.20827 0.3395,0.31511 0.1091,0.10449 0.2181,0.20911 0.3315,0.30889 0.1087,0.0957 0.22,0.18845 0.3312,0.28122 0.1111,0.0926 0.2224,0.18499 0.3308,0.28078 0.128,0.11318 0.2321,0.25161 0.36,0.365 0.1023,0.0907 0.2063,0.17943 0.3099,0.26852 0.1012,0.0869 0.2025,0.17374 0.3021,0.26248 0.1448,0.12907 0.2953,0.25174 0.44,0.381 0.099,0.0888 0.1992,0.17718 0.2987,0.26576 0.097,0.0864 0.1945,0.17252 0.2913,0.25924 0.1097,0.0982 0.2157,0.20048 0.3218,0.30245 0.1037,0.0996 0.2073,0.19939 0.3142,0.29555 0.102,0.0918 0.205,0.18254 0.3078,0.2735 0.1004,0.0888 0.2007,0.17772 0.3002,0.2675 0.1138,0.10265 0.2247,0.20845 0.3356,0.31423 0.1061,0.10129 0.2127,0.20222 0.3214,0.30077 0.1265,0.11464 0.2524,0.22986 0.3787,0.34471 0.1239,0.11265 0.2473,0.22574 0.3713,0.33829 0.094,0.0851 0.1873,0.17057 0.2804,0.25644 0.091,0.0837 0.1814,0.16741 0.2726,0.25056 0.099,0.0904 0.1994,0.1797 0.2995,0.26903 0.1001,0.0893 0.2005,0.17838 0.2995,0.26897 0.104,0.0952 0.2054,0.19331 0.3068,0.29126 0.099,0.0955 0.1975,0.19117 0.2982,0.28474 0.164,0.15247 0.3191,0.31432 0.482,0.468 0.093,0.0874 0.1827,0.17752 0.2726,0.26772 0.088,0.0879 0.1749,0.1763 0.2644,0.26228 0.096,0.0925 0.1941,0.18358 0.2914,0.27516 0.097,0.0915 0.1943,0.18328 0.2896,0.27684 0.1004,0.0986 0.2013,0.19655 0.3021,0.29472 0.1008,0.0982 0.2015,0.19661 0.3009,0.29628 0.091,0.0908 0.1819,0.18086 0.273,0.27109 0.091,0.0904 0.1824,0.1809 0.272,0.27291 0.089,0.0914 0.1778,0.18297 0.2663,0.2748 0.086,0.0894 0.1723,0.17899 0.2577,0.2692 0.09,0.0954 0.1831,0.18832 0.2758,0.28138 0.093,0.093 0.1852,0.18609 0.2742,0.28262 0.088,0.0959 0.1741,0.19409 0.2598,0.29236 0.083,0.0958 0.1668,0.19168 0.2512,0.28664 0.091,0.10285 0.1812,0.20716 0.2707,0.31167 0.087,0.10194 0.1741,0.20432 0.2613,0.30633 0.085,0.099 0.1697,0.19762 0.2542,0.2967 0.084,0.099 0.1681,0.19876 0.2508,0.2993 0.081,0.0987 0.159,0.20013 0.2358,0.30225 0.075,0.0995 0.1487,0.1996 0.2252,0.29775 0.081,0.10383 0.1673,0.20326 0.2526,0.30355 0.083,0.0977 0.1655,0.19613 0.2414,0.29945 0.1466,0.19962 0.2951,0.39797 0.437,0.601 0.073,0.10516 0.1467,0.21051 0.2195,0.31614 0.071,0.10264 0.1407,0.20586 0.2095,0.30986 0.078,0.11724 0.155,0.23446 0.2315,0.3524 0.076,0.11779 0.1518,0.23616 0.2255,0.3556 0.1226,0.19867 0.2281,0.40746 0.346,0.609 0.071,0.12135 0.1409,0.24329 0.2098,0.36587 0.065,0.11663 0.1302,0.2337 0.1942,0.35113 0.1193,0.21872 0.2458,0.43358 0.36,0.655 0.059,0.11344 0.1175,0.22665 0.1753,0.34046 0.056,0.11069 0.1118,0.2217 0.1657,0.33354 0.057,0.11804 0.1129,0.23649 0.1684,0.35519 0.053,0.1126 0.1042,0.22567 0.1556,0.33881 0.058,0.1276 0.113,0.25657 0.1668,0.38602 0.053,0.1263 0.1039,0.25303 0.1572,0.37898 0.05,0.11827 0.1014,0.23596 0.1518,0.35412 0.05,0.118 0.1,0.23635 0.1462,0.35588 0.059,0.15246 0.1189,0.30479 0.1778,0.45738 0.058,0.14949 0.1148,0.2993 0.1698,0.44984 0.055,0.15039 0.1077,0.30157 0.1574,0.45378 0.047,0.14398 0.096,0.28737 0.1435,0.4311 0.047,0.14038 0.092,0.28115 0.1345,0.4229 0.069,0.23196 0.119,0.46929 0.182,0.703 0.036,0.13234 0.078,0.26285 0.1186,0.39372 0.04,0.12779 0.078,0.25616 0.1094,0.38628 0.032,0.13285 0.061,0.26629 0.09,0.39998 0.027,0.12733 0.053,0.25478 0.08,0.38202 0.031,0.14427 0.068,0.28723 0.1036,0.43032 0.035,0.13984 0.07,0.28003 0.096,0.42168 0.044,0.22917 0.079,0.45979 0.117,0.69 0.034,0.20413 0.065,0.40867 0.094,0.61348 0.029,0.20126 0.056,0.40274 0.08,0.60452 0.017,0.13579 0.031,0.27183 0.045,0.40789 0.014,0.13265 0.027,0.26535 0.04,0.39811 0.014,0.14423 0.017,0.28931 0.02,0.43415 0,0.13801 0.01,0.27616 0.015,0.41385 0.01,0.1333 0.023,0.2663 0.036,0.39937 0.012,0.12968 0.023,0.25953 0.029,0.38963 0.01,0.13682 0.01,0.27386 0.01,0.41084 6e-4,0.13039 4e-4,0.2608 0,0.39116 0,0.13779 0.01,0.27556 0.01,0.41336 0,0.13452 0,0.26909 0,0.40364 -2e-4,0.14074 -4e-4,0.28148 -0,0.42221 -0,0.14094 -0,0.28188 -0.01,0.42279 -0,0.14685 -0.01,0.29369 -0.013,0.44049 -0.01,0.1402 -0.011,0.28036 -0.017,0.42051 -0.01,0.13656 -0.015,0.27298 -0.025,0.40928 -0.01,0.12956 -0.02,0.25909 -0.029,0.38872 -0.01,0.1415 -0.013,0.28334 -0.017,0.42509 -0,0.14142 -0.01,0.28298 -0.022,0.42391 -0.013,0.14739 -0.025,0.2949 -0.038,0.44233 -0.012,0.14403 -0.026,0.28804 -0.042,0.43167 -0.016,0.13573 -0.033,0.27122 -0.052,0.40663 -0.018,0.13221 -0.037,0.26429 -0.055,0.39637 -0.021,0.14657 -0.042,0.29314 -0.064,0.43954 -0.022,0.14636 -0.045,0.29254 -0.07,0.43846 -0.022,0.12845 -0.044,0.25685 -0.067,0.38503 -0.023,0.12488 -0.047,0.24953 -0.072,0.37397 -0.03,0.15093 -0.065,0.30108 -0.1,0.45092 -0.034,0.14332 -0.068,0.28649 -0.101,0.43008 -0.032,0.14125 -0.065,0.28226 -0.099,0.42306 -0.034,0.14091 -0.069,0.28155 -0.1056,0.42194 -0.037,0.14281 -0.076,0.2849 -0.117,0.42667 -0.039,0.13549 -0.078,0.27086 -0.117,0.40633 -0.04,0.13794 -0.08,0.27579 -0.1199,0.41348 -0.04,0.13756 -0.082,0.27486 -0.1251,0.41152 -0.046,0.14658 -0.092,0.29351 -0.1382,0.44014 -0.046,0.14648 -0.093,0.29269 -0.1438,0.43786 -0.046,0.13273 -0.09,0.26624 -0.134,0.39948 -0.043,0.13006 -0.087,0.26006 -0.135,0.38852 -0.051,0.1376 -0.1,0.27626 -0.1485,0.41478 -0.049,0.1385 -0.098,0.27686 -0.1525,0.41322 -0.057,0.14378 -0.1219,0.28466 -0.1871,0.42508 -0.062,0.13432 -0.126,0.26805 -0.1849,0.40392 -0.052,0.12025 -0.1016,0.2416 -0.1524,0.36243 -0.051,0.12082 -0.1017,0.24158 -0.1566,0.36057 -0.065,0.13996 -0.1289,0.28002 -0.1937,0.4199 -0.065,0.13997 -0.1302,0.27969 -0.1983,0.4181 -0.063,0.12908 -0.1283,0.25749 -0.1938,0.3856 -0.064,0.1252 -0.1288,0.24992 -0.1942,0.3744 -0.078,0.14763 -0.1586,0.29337 -0.238,0.44 -0.07,0.1292 -0.1393,0.25873 -0.2092,0.38795 -0.07,0.1291 -0.1408,0.25771 -0.2138,0.38505 -0.094,0.16386 -0.1864,0.32867 -0.283,0.491 -0.065,0.10928 -0.1287,0.21938 -0.1929,0.32913 -0.064,0.1098 -0.1292,0.21931 -0.1971,0.32687 -0.079,0.12421 -0.1571,0.24832 -0.2361,0.3722 -0.077,0.12109 -0.1552,0.24169 -0.2339,0.3618 -0.09,0.13745 -0.1797,0.27523 -0.2705,0.41226 -0.091,0.13699 -0.1819,0.27367 -0.2755,0.40874 -0.082,0.11833 -0.1681,0.23377 -0.2543,0.34901 -0.082,0.11001 -0.165,0.21978 -0.2457,0.33099 -0.093,0.12765 -0.1848,0.2556 -0.2776,0.38312 -0.091,0.12488 -0.1827,0.24911 -0.2764,0.37188 -0.1012,0.13256 -0.2145,0.25546 -0.317,0.387 -0.087,0.11103 -0.1722,0.2227 -0.2585,0.33389 -0.086,0.11123 -0.1729,0.22229 -0.2603,0.33266 -0.085,0.10771 -0.1717,0.21454 -0.2592,0.32045 -0.1085,0.13131 -0.2255,0.25537 -0.336,0.385 -0.1004,0.1178 -0.1998,0.23643 -0.3,0.35441 -0.098,0.11538 -0.1968,0.23015 -0.297,0.34359 -0.1023,0.11576 -0.2113,0.22549 -0.3208,0.33447 -0.1047,0.10423 -0.2103,0.20772 -0.3102,0.31653 -0.1038,0.11297 -0.2058,0.22747 -0.309,0.34097 -0.1031,0.11346 -0.2068,0.22644 -0.313,0.33703 -0.1139,0.11857 -0.2277,0.23718 -0.342,0.35525 -0.1122,0.11576 -0.225,0.23084 -0.339,0.34475 -0.1084,0.10831 -0.2188,0.21458 -0.3299,0.32012 -0.1063,0.101 -0.213,0.2016 -0.3191,0.30288 -0.1276,0.12187 -0.2615,0.237 -0.39,0.358 -0.1051,0.099 -0.2105,0.19756 -0.3162,0.2958 -0.1032,0.0958 -0.2067,0.19139 -0.3108,0.2862 -0.1233,0.11223 -0.2442,0.22698 -0.3655,0.34133 -0.1188,0.11202 -0.238,0.22366 -0.3605,0.33167 -0.1234,0.10887 -0.2497,0.21449 -0.3762,0.31983 -0.1238,0.1031 -0.2478,0.20598 -0.3698,0.31117 -0.1189,0.10253 -0.2399,0.20275 -0.3609,0.30282 -0.1157,0.0957 -0.2316,0.19113 -0.3461,0.28818 -0.1274,0.10792 -0.2551,0.2154 -0.3831,0.32258 -0.1228,0.10275 -0.2459,0.20504 -0.3689,0.30742 -0.1191,0.0991 -0.239,0.1974 -0.3591,0.29527 -0.1175,0.0957 -0.2348,0.19155 -0.3519,0.28773 -0.1324,0.10876 -0.2774,0.20154 -0.41,0.31 -0.1276,0.10431 -0.2532,0.21096 -0.3788,0.31759 -0.123,0.10438 -0.2458,0.20891 -0.3712,0.31041 -0.1227,0.0994 -0.2504,0.19256 -0.3777,0.28609 -0.1218,0.0895 -0.2437,0.17894 -0.3613,0.27391 -0.1334,0.10776 -0.2659,0.21658 -0.3986,0.32516 -0.1329,0.10866 -0.2658,0.21717 -0.3994,0.32484 -0.1326,0.10683 -0.2651,0.2137 -0.3977,0.3204 -0.1327,0.10667 -0.2655,0.21309 -0.3983,0.3196 -0.123,0.0987 -0.2464,0.19685 -0.37,0.29482 -0.1183,0.0937 -0.2362,0.18786 -0.354,0.28218 -0.1326,0.10619 -0.2763,0.19797 -0.409,0.304 -0.1445,0.11544 -0.3015,0.21458 -0.446,0.33 -0.1314,0.10494 -0.2625,0.21022 -0.3936,0.31552 -0.1285,0.10318 -0.2566,0.20677 -0.3854,0.30948 -0.1312,0.1046 -0.2636,0.20762 -0.3957,0.31105 -0.1294,0.10129 -0.2587,0.20268 -0.3873,0.30495 -0.1357,0.10793 -0.2841,0.19923 -0.42,0.307 -0.1337,0.10606 -0.2677,0.21179 -0.4021,0.31698 -0.1318,0.10319 -0.2638,0.20614 -0.3958,0.3092 -0.1319,0.10302 -0.2636,0.20623 -0.3951,0.30982 -0.1363,0.10739 -0.2716,0.21593 -0.407,0.32447 -0.1326,0.10634 -0.2653,0.21253 -0.399,0.31753 -0.1504,0.11812 -0.3025,0.23402 -0.453,0.352 -0.1271,0.0997 -0.2554,0.19795 -0.3834,0.2965 -0.1254,0.0966 -0.251,0.19291 -0.3756,0.2905 -0.1345,0.10535 -0.2744,0.20373 -0.409,0.309 -0.1376,0.10766 -0.2794,0.21001 -0.4211,0.31226 -0.1389,0.1002 -0.2779,0.20033 -0.4129,0.30574 -0.1419,0.11083 -0.299,0.20123 -0.441,0.312 -0.1473,0.11494 -0.2936,0.23113 -0.441,0.346 -0.135,0.10524 -0.2722,0.20768 -0.4096,0.30975 -0.1348,0.10015 -0.2699,0.20005 -0.4024,0.30325 -0.1448,0.11277 -0.2952,0.21827 -0.44,0.331 -0.1468,0.11425 -0.3032,0.2158 -0.45,0.33 -0.1291,0.10043 -0.2578,0.20137 -0.3865,0.30239 -0.1287,0.10107 -0.2573,0.20223 -0.3865,0.30261 -0.1413,0.10976 -0.2867,0.21428 -0.428,0.324 -0.1614,0.12529 -0.3195,0.25477 -0.481,0.38 -0.135,0.10474 -0.2703,0.2092 -0.4053,0.31388 -0.1326,0.10272 -0.2652,0.2053 -0.3977,0.30812 -0.1538,0.1194 -0.3131,0.23164 -0.467,0.351 -0.1426,0.11059 -0.286,0.22002 -0.4293,0.32969 -0.1404,0.10752 -0.2809,0.21495 -0.4207,0.32331 -0.1353,0.10485 -0.2717,0.20814 -0.407,0.313 -0.1453,0.11265 -0.2903,0.22567 -0.435,0.33912 -0.142,0.11136 -0.2843,0.22234 -0.427,0.33288 -0.1586,0.12288 -0.3184,0.24411 -0.477,0.367 -0.1327,0.10285 -0.2657,0.20533 -0.3989,0.30753 -0.1306,0.10019 -0.261,0.20066 -0.3911,0.30147 -0.1497,0.11601 -0.3092,0.21903 -0.459,0.335 -0.1479,0.11456 -0.294,0.2315 -0.442,0.346"
       id="path_2020_12_05_02_39_24_731047"
       inkscape:connector-curvature="0"
       inkscape:label="path_rddf-voltadaufes-20170809.txt"
       sodipodi:nodetypes="caaaaaaaaaaaaaaaaaaaaaaaaaaaaaaaaaaaaaaaaaaaaaaaaaaaaaaaaaaaaaaaaaaaaaaaaaaaaaaaaaaaaaaaaaaaaaaaaaaaaaaaaaaaaaaaaaaaaaaaaaaaaaaaaaaaaaaaaaaaaaaaaaaaaaaaaaaaaaaaaaaaaaaaaaaaaaaaaaaaaaaaaaaaaaaaaaaaaaaaaaaaaaaaaaaaaaaaaaaaaaaaaaaaaaaaaaaaaaaaaaaaaaaaaaaaaaaaaaaaaaaaaaaaaaaaaaaaaaaaaaaaaaaaaaaaaaaaaaaaaaaaaaaaaaaaaaaaaaaaaaaaaaaaaaaaaaaaaaaaaaaaaaaaaaaaaaaaaaaaaaaaaaaaaaaaaaaaaaaaaaaaaaaaaaaaaaaaaaaaaaaaaaaaaaaaaaaaaaaaaaaaaaaaaaaaaaaaaaaaaaaaaaaaaaaaaaaaaaaaaaaaaaaaaaaaaaaaaaaaaaaaaaaaaaaaaaaaaaaaaaaaaaaaaaaaaaaaaaaaaaaaaaaaaaaaaaaaaaaaaaaaaaaaaaaaaaaaaaaaaaaaaaaaaaaaaaaaac"
       style="fill:none;stroke:#00ff00;stroke-width:0.40000001px;stroke-linecap:butt;stroke-linejoin:miter;stroke-miterlimit:4;stroke-dasharray:none;stroke-opacity:1" />
    <path
       style="fill:none;fill-rule:evenodd;stroke:#000000;stroke-width:0.28222221px;stroke-linecap:butt;stroke-linejoin:miter;stroke-opacity:1"
       d="m 1389.2485,133.728 c 0,0 3.9655,2.40503 6.1693,2.37811 1.0259,-0.0125 2.0448,-0.5337 2.8441,-1.17692 1.9992,-1.60876 4.3972,-6.31895 4.3972,-6.31895"
       id="path4166"
       inkscape:connector-curvature="0"
       sodipodi:nodetypes="caac" />
  </g>
  <g
     id="layer_2020_12_05_02_39_24_752793"
     inkscape:groupmode="layer"
     inkscape:label="bad_phis"
     style="display:inline">
    <rect
       height="10"
       id="rect_2020_12_05_02_39_24_752793"
       inkscape:label="bad_phi_1448.19_511.04"
       style="fill:none;stroke:rgb(0,0,255);stroke-width:1;stroke-miterlimit:4;stroke-dasharray:none"
       width="10"
       x="1443.192053"
       y="183.962936" />
    <rect
       height="10"
       id="rect_2020_12_05_02_39_24_752856"
       inkscape:label="bad_phi_1448.49_510.75"
       style="fill:none;stroke:rgb(0,0,255);stroke-width:1;stroke-miterlimit:4;stroke-dasharray:none"
       width="10"
       x="1443.489"
       y="184.248" />
  </g>
  <g
     id="layer_2020_12_05_02_39_24_753292"
     inkscape:groupmode="layer"
     inkscape:label="loop_closures"
     style="display:inline" />
  <g
     id="layer_2020_12_05_02_39_24_753373"
     inkscape:groupmode="layer"
     inkscape:label="junctions"
     style="display:inline" />
</svg>
