<?xml version="1.0" encoding="UTF-8" standalone="no"?>
<svg
   height="280.0mm"
   id="svg_2022_01_21_14_22_35_033171"
   inkscape:version="1.1.1 (50ffc5b540, 2022-01-11)"
   sodipodi:docname="@7989870_-205310.svg"
   viewBox="0 0 210.0 280.0"
   width="210.0mm"
   version="1.1"
   xmlns:inkscape="http://www.inkscape.org/namespaces/inkscape"
   xmlns:sodipodi="http://sodipodi.sourceforge.net/DTD/sodipodi-0.dtd"
   xmlns:xlink="http://www.w3.org/1999/xlink"
   xmlns="http://www.w3.org/2000/svg"
   xmlns:svg="http://www.w3.org/2000/svg"
   xmlns:rdf="http://www.w3.org/1999/02/22-rdf-syntax-ns#"
   xmlns:cc="http://creativecommons.org/ns#"
   xmlns:dc="http://purl.org/dc/elements/1.1/">
  <metadata
     id="metadata_2022_01_21_14_22_35_033259">
    <rdf:RDF>
      <cc:Work
         rdf:about="">
        <dc:format>image/svg+xml</dc:format>
        <dc:type
           rdf:resource="http://purl.org/dc/dcmitype/StillImage" />
        <dc:title />
      </cc:Work>
    </rdf:RDF>
  </metadata>
  <defs
     id="defs_2022_01_21_14_22_35_033305">
    <marker
       id="marker_trapezium"
       markerHeight="5"
       markerUnits="strokeWidth"
       markerWidth="5"
       orient="auto"
       refX="0"
       refy="0"
       viewBox="0 0 5 5">
      <path
         d="M 0.0,-0.5 L 0.0,0.5 L -5.0,2.5 L -5.0,-2.5 z"
         fill="context-stroke"
         id="path3" />
    </marker>
  </defs>
  <sodipodi:namedview
     bordercolor="#666666"
     borderopacity="1"
     gridtolerance="10"
     guidetolerance="10"
     id="namedview_2022_01_21_14_22_35_033362"
     inkscape:current-layer="layer_2022_01_21_14_22_35_033480"
     inkscape:cx="344.18844"
     inkscape:cy="256.01054"
     inkscape:document-units="mm"
     inkscape:pageopacity="0"
     inkscape:pageshadow="2"
     inkscape:window-height="992"
     inkscape:window-maximized="1"
     inkscape:window-width="1920"
     inkscape:window-x="0"
     inkscape:window-y="24"
     inkscape:zoom="4.7517576"
     objecttolerance="10"
     pagecolor="#ffffff"
     showgrid="false"
     inkscape:pagecheckerboard="0" />
  <g
     id="layer_2022_01_21_14_22_35_033480"
     inkscape:groupmode="layer"
     inkscape:label="images_m"
     style="display:inline">
    <image
       height="70"
       id="image_2022_01_21_14_22_35_033480"
       inkscape:label="image_m7990010_-205310.png"
       preserveAspectRatio="none"
       width="70"
       x="140"
       xlink:href="../img/m7990010_-205310.png"
       y="210" />
    <image
       height="70"
       id="image_2022_01_21_14_22_35_033551"
       inkscape:label="image_m7990010_-205240.png"
       preserveAspectRatio="none"
       width="70"
       x="140"
       xlink:href="../img/m7990010_-205240.png"
       y="140" />
    <image
       height="70"
       id="image_2022_01_21_14_22_35_033603"
       inkscape:label="image_m7990010_-205170.png"
       preserveAspectRatio="none"
       width="70"
       x="140"
       xlink:href="../img/m7990010_-205170.png"
       y="70" />
    <image
       height="70"
       id="image_2022_01_21_14_22_35_033653"
       inkscape:label="image_m7990010_-205100.png"
       preserveAspectRatio="none"
       width="70"
       x="140"
       xlink:href="../img/m7990010_-205100.png"
       y="0" />
    <image
       height="70"
       id="image_2022_01_21_14_22_35_033703"
       inkscape:label="image_m7989940_-205310.png"
       preserveAspectRatio="none"
       width="70"
       x="70"
       xlink:href="../img/m7989940_-205310.png"
       y="210" />
    <image
       height="70"
       id="image_2022_01_21_14_22_35_033758"
       inkscape:label="image_m7989940_-205240.png"
       preserveAspectRatio="none"
       width="70"
       x="70"
       xlink:href="../img/m7989940_-205240.png"
       y="140" />
    <image
       height="70"
       id="image_2022_01_21_14_22_35_033808"
       inkscape:label="image_m7989940_-205170.png"
       preserveAspectRatio="none"
       width="70"
       x="70"
       xlink:href="../img/m7989940_-205170.png"
       y="70" />
    <image
       height="70"
       id="image_2022_01_21_14_22_35_033857"
       inkscape:label="image_m7989940_-205100.png"
       preserveAspectRatio="none"
       width="70"
       x="70"
       xlink:href="../img/m7989940_-205100.png"
       y="0" />
    <image
       height="70"
       id="image_2022_01_21_14_22_35_033906"
       inkscape:label="image_m7989870_-205310.png"
       preserveAspectRatio="none"
       width="70"
       x="0"
       xlink:href="../img/m7989870_-205310.png"
       y="210" />
    <image
       height="70"
       id="image_2022_01_21_14_22_35_033958"
       inkscape:label="image_m7989870_-205240.png"
       preserveAspectRatio="none"
       width="70"
       x="0"
       xlink:href="../img/m7989870_-205240.png"
       y="140" />
    <image
       height="70"
       id="image_2022_01_21_14_22_35_034005"
       inkscape:label="image_m7989870_-205170.png"
       preserveAspectRatio="none"
       width="70"
       x="0"
       xlink:href="../img/m7989870_-205170.png"
       y="70" />
    <image
       height="70"
       id="image_2022_01_21_14_22_35_034094"
       inkscape:label="image_m7989870_-205100.png"
       preserveAspectRatio="none"
       width="70"
       x="0"
       xlink:href="../img/m7989870_-205100.png"
       y="0" />
  </g>
  <g
     id="layer_2022_01_21_14_22_35_034149"
     inkscape:groupmode="layer"
     inkscape:label="paths"
     marker-end="url(#marker_trapezium)"
     style="display:inline">
    <path
       d="m 99.287,78.289 c -0.0411,0.163308 -0.08194,0.326681 -0.123,0.49 -0.03999,0.159086 -0.08057,0.318026 -0.121,0.477 -0.04022,0.158115 -0.08085,0.316125 -0.122,0.474 -0.04166,0.159843 -0.08386,0.319549 -0.127,0.479 -0.0438,0.161903 -0.08811,0.323676 -0.134,0.485 -0.04467,0.15705 -0.09081,0.313688 -0.138,0.47 -0.04793,0.158764 -0.09691,0.317224 -0.148,0.475 -0.05091,0.157245 -0.103414,0.313992 -0.158,0.47 -0.0544,0.155478 -0.111423,0.310047 -0.17,0.464 -0.05853,0.15383 -0.118802,0.307028 -0.182,0.459 -0.06311,0.151756 -0.128791,0.302467 -0.197,0.452 -0.06825,0.149619 -0.140259,0.297513 -0.213,0.445 -0.09839,0.19949 -0.177463,0.408092 -0.275,0.608 -0.08854,0.181471 -0.156342,0.372586 -0.245,0.554 -0.08824,0.18056 -0.172594,0.363015 -0.262,0.543 -0.08443,0.16997 -0.123397,0.360116 -0.208,0.53 -0.07501,0.150619 -0.166754,0.292499 -0.242,0.443 -0.0786,0.157212 -0.162589,0.311694 -0.241,0.469 -0.07957,0.159632 -0.135132,0.330517 -0.215,0.49 -0.08732,0.174363 -0.166954,0.3525 -0.254,0.527 -0.103529,0.207543 -0.168351,0.43302 -0.273,0.64 -0.07949,0.157217 -0.13911,0.323986 -0.219,0.481 -0.08861,0.174152 -0.155579,0.358752 -0.244,0.533 -0.08028,0.158205 -0.151561,0.320875 -0.232,0.479 -0.09101,0.178907 -0.193115,0.352029 -0.284,0.531 -0.08487,0.167125 -0.153517,0.342188 -0.239,0.509 -0.0888,0.173287 -0.181036,0.344797 -0.27,0.518 -0.103243,0.201001 -0.180308,0.414717 -0.283,0.616 -0.0952,0.186597 -0.174464,0.381091 -0.271,0.567 -0.100161,0.192891 -0.191418,0.390328 -0.292,0.583 -0.107076,0.205113 -0.194026,0.420359 -0.302,0.625 -0.0784,0.148591 -0.144098,0.303675 -0.223,0.452 -0.09496,0.178511 -0.189138,0.357437 -0.284,0.536 -0.101241,0.19057 -0.171621,0.396504 -0.273,0.587 -0.07539,0.14166 -0.15205,0.28264 -0.228,0.424 -0.07439,0.138457 -0.148204,0.277225 -0.222,0.416 -0.07545,0.141887 -0.146766,0.285949 -0.218,0.43 -0.0713,0.144186 -0.142398,0.288559 -0.219,0.43 -0.108284,0.199939 -0.22107,0.397412 -0.33,0.597 -0.115622,0.211849 -0.208246,0.435773 -0.325,0.647 -0.08677,0.15698 -0.175371,0.312943 -0.262,0.47 -0.08529,0.154629 -0.166813,0.311315 -0.252,0.466 -0.09031,0.163987 -0.188015,0.323835 -0.278,0.488 -0.0632,0.1153 -0.131803,0.22758 -0.2,0.34 -0.06796,0.11203 -0.136388,0.2239 -0.199,0.339 -0.08385,0.15415 -0.143064,0.32089 -0.227,0.475 -0.08305,0.15248 -0.132592,0.32171 -0.216,0.474 -0.08275,0.15108 -0.134175,0.31796 -0.217,0.469 -0.08161,0.14882 -0.180614,0.28761 -0.263,0.436 -0.08092,0.14575 -0.15335,0.2961 -0.234,0.442 -0.08341,0.15089 -0.171143,0.29936 -0.255,0.45 -0.07831,0.14068 -0.156144,0.28163 -0.235,0.422 -0.07551,0.13442 -0.151473,0.26859 -0.227,0.403 -0.118545,0.21097 -0.179634,0.45093 -0.298,0.662 -0.06384,0.11384 -0.1256,0.22883 -0.187,0.344 -0.06154,0.11543 -0.123176,0.23082 -0.187,0.345 -0.121689,0.2177 -0.216488,0.44976 -0.339,0.667 -0.09492,0.16831 -0.220458,0.31804 -0.316,0.486 -0.08305,0.146 -0.159453,0.29571 -0.242,0.442 -0.08971,0.15898 -0.185638,0.31439 -0.276,0.473 -0.09608,0.16865 -0.159504,0.35459 -0.256,0.523 -0.08449,0.14746 -0.149801,0.30537 -0.234,0.453 -0.09372,0.16433 -0.17972,0.33299 -0.274,0.497 -0.06477,0.11267 -0.126612,0.227 -0.189,0.341 -0.06082,0.11113 -0.122063,0.22205 -0.185,0.332 -0.09358,0.16348 -0.183971,0.32878 -0.278,0.492 -0.0919,0.15953 -0.182831,0.31962 -0.275,0.479 -0.101528,0.17556 -0.184924,0.36118 -0.286,0.537 -0.102967,0.17911 -0.193804,0.36502 -0.297,0.544 -0.0982,0.17031 -0.183595,0.34781 -0.282,0.518 -0.102649,0.17754 -0.199259,0.35852 -0.302,0.536 -0.09875,0.17059 -0.202122,0.33848 -0.301,0.509 -0.06915,0.11925 -0.138074,0.23862 -0.207,0.358 -0.06713,0.11626 -0.133956,0.23269 -0.201,0.349 -0.102228,0.17734 -0.202577,0.35577 -0.305,0.533 -0.09978,0.17266 -0.201388,0.34425 -0.301,0.517 -0.108075,0.18743 -0.19453,0.3868 -0.303,0.574 -0.122173,0.21085 -0.241281,0.42347 -0.364,0.634 -0.09757,0.16739 -0.178702,0.34404 -0.277,0.511 -0.125714,0.21353 -0.278624,0.41027 -0.404,0.624 -0.09814,0.1673 -0.202786,0.33074 -0.301,0.498 -0.105288,0.17931 -0.223543,0.35079 -0.329,0.53 -0.116137,0.19736 -0.249304,0.38438 -0.365,0.582 -0.08557,0.14616 -0.194421,0.27784 -0.28,0.424 -0.101546,0.17343 -0.177307,0.36107 -0.278,0.535 -0.10616,0.18337 -0.192158,0.37787 -0.297,0.562 -0.06833,0.12 -0.136323,0.2402 -0.205,0.36 -0.06705,0.11697 -0.134382,0.23378 -0.201,0.351 -0.113399,0.19953 -0.177347,0.42461 -0.291,0.624 -0.102164,0.17923 -0.194862,0.36375 -0.297,0.543 -0.105988,0.186 -0.188269,0.38485 -0.294,0.571 -0.09665,0.17016 -0.19261,0.3407 -0.289,0.511 -0.06582,0.11629 -0.128106,0.23457 -0.19,0.353 -0.06044,0.11565 -0.120639,0.23149 -0.185,0.345 -0.09364,0.16516 -0.186132,0.33097 -0.28,0.496 -0.114902,0.20201 -0.228524,0.40475 -0.343,0.607 -0.06985,0.12341 -0.134661,0.24963 -0.199,0.376 -0.06129,0.12038 -0.122103,0.24108 -0.188,0.359 -0.06392,0.11438 -0.120444,0.2328 -0.177,0.351 -0.05379,0.11242 -0.107637,0.22497 -0.168,0.334 -0.06362,0.11491 -0.122409,0.23245 -0.181,0.35 -0.05553,0.11141 -0.11106,0.2229 -0.171,0.332 -0.118425,0.21556 -0.233087,0.43316 -0.351,0.649 -0.06068,0.11107 -0.115853,0.22508 -0.171,0.339 -0.05385,0.11123 -0.107747,0.22255 -0.167,0.331 -0.110024,0.20138 -0.210664,0.40779 -0.321,0.609 -0.11501,0.20973 -0.222301,0.42365 -0.338,0.633 -0.06288,0.11378 -0.120421,0.23045 -0.178,0.347 -0.05461,0.11054 -0.109519,0.22101 -0.169,0.329 -0.116729,0.21193 -0.202214,0.4401 -0.319,0.652 -0.06779,0.123 -0.130859,0.24855 -0.194,0.374 -0.06167,0.12252 -0.123683,0.24493 -0.19,0.365 -0.06331,0.11462 -0.129237,0.22777 -0.195,0.341 -0.06209,0.1069 -0.124081,0.21387 -0.184,0.322 -0.06857,0.12374 -0.128927,0.25192 -0.189,0.38 -0.05716,0.12187 -0.114287,0.24396 -0.179,0.362 -0.09589,0.1749 -0.167842,0.36225 -0.264,0.537 -0.113115,0.20557 -0.231931,0.40796 -0.346,0.613 -0.09069,0.16302 -0.189954,0.32117 -0.281,0.484 -0.07159,0.12803 -0.135967,0.26002 -0.2,0.392 -0.0641,0.13211 -0.128743,0.26417 -0.201,0.392 -0.0958,0.16949 -0.167164,0.3521 -0.264,0.521 -0.06312,0.11009 -0.120688,0.22329 -0.179,0.336 -0.05688,0.10994 -0.114023,0.21985 -0.176,0.327 -0.08098,0.14001 -0.162149,0.27991 -0.243,0.42 -0.08077,0.13994 -0.160948,0.28022 -0.242,0.42 -0.100742,0.17373 -0.196591,0.35028 -0.292,0.527 -0.09541,0.17672 -0.19074,0.35357 -0.292,0.527 -0.111716,0.19134 -0.218249,0.38568 -0.33,0.577 -0.119384,0.20439 -0.235153,0.41088 -0.355,0.615 -0.113148,0.19271 -0.217347,0.39059 -0.331,0.583 -0.117587,0.19907 -0.230141,0.40109 -0.348,0.6 -0.06507,0.10982 -0.130398,0.21949 -0.196,0.329 -0.06393,0.10671 -0.128089,0.21328 -0.192,0.32 -0.11837,0.19766 -0.206748,0.41227 -0.325,0.61 -0.124665,0.20845 -0.214818,0.43626 -0.339,0.645 -0.126244,0.21221 -0.24614,0.42816 -0.373,0.64 -0.10572,0.17654 -0.202481,0.35834 -0.308,0.535 -0.121155,0.20284 -0.244107,0.4046 -0.366,0.607 -0.10172,0.1689 -0.200945,0.3393 -0.303,0.508 -0.113555,0.18771 -0.236483,0.36967 -0.349,0.558 -0.126835,0.2123 -0.2539,0.42446 -0.382,0.636 -0.110855,0.18306 -0.203578,0.37668 -0.314,0.56 -0.116216,0.19294 -0.233162,0.38544 -0.35,0.578 -0.08819,0.14535 -0.16302,0.29852 -0.251,0.444 -0.07417,0.12264 -0.148924,0.24492 -0.224,0.367 -0.07172,0.11663 -0.143633,0.23315 -0.215,0.35 -0.124226,0.2034 -0.238907,0.41252 -0.363,0.616 -0.121039,0.19847 -0.253385,0.38988 -0.375,0.588 -0.0971,0.15818 -0.145462,0.34309 -0.243,0.501 -0.114008,0.18458 -0.233978,0.36543 -0.348,0.55 -0.100413,0.16254 -0.199143,0.32612 -0.299,0.489 -0.106696,0.17404 -0.237949,0.33218 -0.345,0.506 -0.114824,0.18644 -0.230532,0.37234 -0.345,0.559 -0.06661,0.10862 -0.13611,0.21546 -0.206,0.322 -0.06811,0.10383 -0.136252,0.20766 -0.202,0.313 -0.06905,0.11063 -0.137989,0.22134 -0.207,0.332 -0.06744,0.10814 -0.134888,0.21628 -0.203,0.324 -0.13043,0.20628 -0.252198,0.41796 -0.383,0.624 -0.106446,0.16768 -0.205997,0.33968 -0.313,0.507 -0.09705,0.15176 -0.167701,0.31939 -0.265,0.471 -0.133127,0.20743 -0.272496,0.41081 -0.406,0.618 -0.109624,0.17013 -0.209017,0.34675 -0.32,0.516 -0.07498,0.11434 -0.151677,0.22755 -0.228,0.341 -0.07271,0.10808 -0.144965,0.21647 -0.217,0.325 -0.114194,0.17205 -0.24849,0.33016 -0.363,0.502 -0.100068,0.15017 -0.213473,0.29114 -0.314,0.441 -0.109373,0.16305 -0.246013,0.30669 -0.355,0.47 -0.11034,0.16533 -0.223453,0.3288 -0.334,0.494 -0.08021,0.11986 -0.158424,0.24106 -0.237,0.362 -0.07676,0.11815 -0.156099,0.2346 -0.234,0.352 -0.09263,0.1396 -0.181696,0.28153 -0.273,0.422 -0.09135,0.14054 -0.182833,0.28099 -0.275,0.421 -0.09206,0.13985 -0.184147,0.27968 -0.277,0.419 -0.09085,0.13632 -0.182409,0.27217 -0.274,0.408 -0.09351,0.13867 -0.187748,0.27684 -0.282,0.415 -0.0942,0.13809 -0.188076,0.27641 -0.283,0.414 -0.09493,0.13761 -0.190368,0.27487 -0.286,0.412 -0.09363,0.13426 -0.187716,0.2682 -0.282,0.402 -0.09627,0.13662 -0.193079,0.27285 -0.29,0.409 -0.09672,0.13587 -0.19365,0.27158 -0.291,0.407 -0.09742,0.13551 -0.194972,0.27093 -0.293,0.406 -0.0981,0.13517 -0.196319,0.27025 -0.295,0.405 -0.0986,0.13463 -0.197841,0.26878 -0.297,0.403 -0.09714,0.13148 -0.19434,0.26291 -0.292,0.394 -0.09973,0.13387 -0.199754,0.26752 -0.3,0.401 -0.100046,0.13322 -0.200453,0.26616 -0.301,0.399 -0.100629,0.13295 -0.201897,0.26541 -0.303,0.398 -0.101226,0.13275 -0.202317,0.2656 -0.304,0.398 -0.101484,0.13214 -0.203083,0.26419 -0.305,0.396 -0.10188,0.13176 -0.203705,0.26356 -0.306,0.395 -0.102384,0.13155 -0.205224,0.26275 -0.308,0.394 -0.102741,0.1312 -0.205889,0.26209 -0.309,0.393 -0.102949,0.13071 -0.205701,0.26157 -0.309,0.392 -0.103394,0.13055 -0.207275,0.26071 -0.311,0.391 -0.103854,0.13045 -0.207838,0.2608 -0.312,0.391 -0.103837,0.1298 -0.207876,0.25943 -0.312,0.389 -0.104255,0.12973 -0.208474,0.25949 -0.313,0.389 -0.102565,0.12708 -0.205198,0.25411 -0.308,0.381 -0.104705,0.12924 -0.21007,0.25794 -0.315,0.387 -0.10493,0.12906 -0.209858,0.25812 -0.315,0.387 -0.105276,0.12905 -0.210541,0.2581 -0.316,0.387 -0.105296,0.1287 -0.207338,0.26013 -0.316,0.386 -0.14948,0.17315 -0.270932,0.36984 -0.426,0.538 -0.162443,0.17616 -0.327045,0.35032 -0.49,0.526 -0.115587,0.12462 -0.237748,0.243 -0.354,0.367 -0.121265,0.12934 -0.244097,0.25721 -0.367,0.385 -0.1344,0.13974 -0.250826,0.29604 -0.385,0.436 -0.155399,0.1621 -0.291142,0.34234 -0.447,0.504 -0.125473,0.13014 -0.229498,0.27989 -0.355,0.41 -0.08923,0.0925 -0.17606,0.18733 -0.263,0.282 -0.08661,0.0943 -0.173616,0.18831 -0.263,0.28 -0.155521,0.15953 -0.327755,0.3022 -0.483,0.462 -0.129926,0.13374 -0.259857,0.26747 -0.39,0.401 -0.154533,0.15855 -0.288861,0.33604 -0.444,0.494 -0.169785,0.17287 -0.345847,0.33949 -0.516,0.512 -0.166191,0.16849 -0.342479,0.32685 -0.508,0.496 -0.0912,0.0932 -0.179777,0.18897 -0.268,0.285 -0.08822,0.096 -0.176436,0.19215 -0.268,0.285 -0.144683,0.14672 -0.252964,0.32663 -0.398,0.473 -0.158784,0.16024 -0.314692,0.32331 -0.472,0.485 -0.125492,0.12899 -0.280275,0.22727 -0.405,0.357 -0.159137,0.16552 -0.318207,0.33111 -0.478,0.496 -0.160396,0.16551 -0.297976,0.35213 -0.458,0.518 -0.155208,0.16088 -0.332255,0.29964 -0.488,0.46 -0.16807,0.17305 -0.327425,0.35444 -0.496,0.527 -0.139866,0.14317 -0.276701,0.28928 -0.416,0.433 -0.127102,0.13114 -0.233922,0.28088 -0.36,0.413 -0.153183,0.16053 -0.302926,0.32433 -0.457,0.484 -0.142656,0.14784 -0.276417,0.30409 -0.419,0.452 -0.159405,0.16536 -0.313095,0.33616 -0.472,0.502 -0.12893,0.13456 -0.240364,0.28516 -0.369,0.42 -0.124037,0.13002 -0.268493,0.23943 -0.393,0.369 -0.125779,0.13089 -0.217843,0.29151 -0.343,0.423 -0.134558,0.14136 -0.258976,0.29213 -0.393,0.434 -0.129944,0.13755 -0.253969,0.28059 -0.383,0.419 -0.132475,0.1421 -0.240988,0.3054 -0.374,0.447 -0.133886,0.14253 -0.265893,0.28682 -0.398,0.431 -0.136806,0.14931 -0.283065,0.28973 -0.421,0.438 -0.134218,0.14427 -0.254656,0.30092 -0.388,0.446 -0.128087,0.13936 -0.236829,0.29572 -0.365,0.435 -0.133355,0.14492 -0.233819,0.31792 -0.367,0.463 -0.12971,0.14129 -0.25944,0.28257 -0.389,0.424 -0.131372,0.14341 -0.273998,0.27625 -0.405,0.42 -0.144029,0.15804 -0.278022,0.32501 -0.421,0.484 -0.131145,0.14584 -0.26344,0.29064 -0.394,0.437 -0.119642,0.13412 -0.228812,0.27737 -0.349,0.411 -0.143776,0.15986 -0.257688,0.34484 -0.4,0.506 -0.154077,0.17449 -0.311268,0.34621 -0.465,0.521 -0.124065,0.14106 -0.273918,0.25808 -0.397,0.4 -0.119746,0.13807 -0.255821,0.26144 -0.375,0.4 -0.12831,0.14918 -0.26118,0.2944 -0.389,0.444 -0.141895,0.16607 -0.270134,0.34339 -0.409,0.512 -0.137314,0.16673 -0.265868,0.3405 -0.401,0.509 -0.130006,0.16211 -0.246403,0.33477 -0.375,0.498 -0.119199,0.1513 -0.242538,0.29935 -0.36,0.452 -0.136486,0.17738 -0.299507,0.33362 -0.432,0.514 -0.114088,0.15532 -0.249527,0.29423 -0.363,0.45 -0.137313,0.1885 -0.265975,0.38315 -0.4,0.574 -0.125065,0.17809 -0.256255,0.35195 -0.377,0.533 -0.116154,0.17416 -0.242862,0.34116 -0.358,0.516 -0.10292,0.15628 -0.216609,0.30545 -0.316,0.464 -0.103478,0.16507 -0.200755,0.33395 -0.301,0.501 -0.08821,0.147 -0.148331,0.3095 -0.234,0.458 -0.09914,0.17185 -0.232999,0.32237 -0.329,0.496 -0.09401,0.17002 -0.200127,0.33328 -0.291,0.505 -0.08791,0.16612 -0.184152,0.3278 -0.27,0.495 -0.10742,0.20921 -0.227508,0.41181 -0.333,0.622 -0.08868,0.17669 -0.170707,0.35665 -0.256,0.535 -0.0968,0.20242 -0.20012,0.40175 -0.293,0.606 -0.09324,0.20503 -0.176269,0.41455 -0.264,0.622 -0.08045,0.19023 -0.166516,0.37814 -0.243,0.57 -0.08125,0.20382 -0.156086,0.41014 -0.232,0.616 -0.06701,0.18172 -0.108358,0.37207 -0.172,0.555 -0.06208,0.17843 -0.146284,0.34877 -0.206,0.528 -0.06478,0.19444 -0.08704,0.40102 -0.147,0.597 -0.0536,0.17518 -0.07917,0.35799 -0.13,0.534 -0.05069,0.17552 -0.09951,0.35159 -0.147,0.528 -0.0509,0.18908 -0.09488,0.37995 -0.142,0.57 -0.04348,0.17536 -0.07772,0.35288 -0.118,0.529 -0.03991,0.17453 -0.05672,0.35368 -0.093,0.529 -0.03726,0.18005 -0.0907,0.35656 -0.126,0.537 -0.03507,0.17931 -0.05624,0.36108 -0.088,0.541 -0.0306,0.17335 -0.06477,0.34609 -0.092,0.52 -0.02998,0.19142 -0.05283,0.38389 -0.078,0.576 -0.02367,0.18063 -0.0043,0.36489 -0.024,0.546 -0.01922,0.17671 -0.03335,0.35394 -0.049,0.531 -0.01761,0.19924 0.0069,0.40047 -0.007,0.6 -0.01535,0.22025 -0.01133,0.44147 -0.022,0.662 -0.0088,0.18175 -0.02661,0.36309 -0.031,0.545 -0.0047,0.19509 -0.02369,0.38985 -0.023,0.585 7.53e-4,0.21293 0.04279,0.42413 0.048,0.637 0.0047,0.19228 0.03967,0.38285 0.048,0.575 0.0084,0.19354 0.02398,0.38671 0.037,0.58 0.01474,0.21884 -0.01609,0.4395 0.003,0.658 0.01546,0.17702 -0.0095,0.35638 0.01,0.533 0.02382,0.21579 0.05385,0.43086 0.083,0.646 0.02642,0.19494 0.05462,0.38964 0.085,0.584 0.03033,0.194 0.06813,0.38676 0.103,0.58 0.03341,0.18517 0.06588,0.37054 0.103,0.555 0.04611,0.22914 0.109881,0.45438 0.163,0.682 0.04222,0.18092 0.0941,0.35948 0.138,0.54 0.04177,0.17178 0.115484,0.33445 0.162,0.505 0.04943,0.18124 0.117265,0.35699 0.171,0.537 0.06675,0.2236 0.168459,0.43556 0.239,0.658 0.05736,0.18087 0.114107,0.36195 0.174,0.542 0.06884,0.20694 0.133296,0.41538 0.206,0.621 0.06045,0.17096 0.128967,0.33897 0.192,0.509 0.06583,0.17757 0.127103,0.35683 0.194,0.534 0.06356,0.16834 0.135767,0.3333 0.201,0.501 0.07442,0.19131 0.202149,0.35865 0.279,0.549 0.06812,0.16872 0.143236,0.33454 0.212,0.503 0.0726,0.17785 0.117938,0.36618 0.193,0.543 0.09109,0.21458 0.198891,0.42173 0.293,0.635 0.07872,0.1784 0.174239,0.34897 0.256,0.526 0.08901,0.19272 0.18746,0.38095 0.28,0.572 0.07896,0.16302 0.168345,0.32081 0.249,0.483 0.09103,0.18305 0.193981,0.35996 0.287,0.542 0.09306,0.18213 0.181239,0.36675 0.276,0.548 0.109344,0.20914 0.213202,0.42116 0.325,0.629 0.08459,0.15726 0.180228,0.30838 0.266,0.465 0.08482,0.15488 0.175364,0.30657 0.261,0.461 0.100116,0.18054 0.209012,0.35608 0.312,0.535 0.08355,0.14515 0.182979,0.2807 0.268,0.425 0.09152,0.15532 0.204776,0.29709 0.297,0.452 0.113452,0.19056 0.216348,0.38738 0.333,0.576 0.122477,0.19804 0.250417,0.39265 0.374,0.59 0.09221,0.14725 0.188082,0.29219 0.281,0.439 0.09597,0.15163 0.202753,0.29619 0.3,0.447 0.108239,0.16786 0.232162,0.32518 0.342,0.492 0.109778,0.16672 0.213827,0.3372 0.325,0.503 0.100999,0.15062 0.209844,0.29585 0.313,0.445 0.09483,0.13712 0.174373,0.28444 0.27,0.421 0.14194,0.2027 0.287527,0.40282 0.433,0.603 0.121467,0.16714 0.262605,0.31927 0.386,0.485 0.12247,0.16448 0.24792,0.32673 0.372,0.49 0.120536,0.15861 0.242324,0.31626 0.364,0.474 0.130668,0.16939 0.254165,0.3443 0.387,0.512 0.117812,0.14873 0.219105,0.31013 0.338,0.458 0.139924,0.17402 0.268527,0.35706 0.411,0.529 0.09804,0.11832 0.19892,0.23427 0.3,0.35 0.09699,0.11105 0.194351,0.22179 0.29,0.334 0.114719,0.13458 0.268383,0.23206 0.385,0.365 0.119082,0.13575 0.255898,0.25515 0.376,0.39 0.122244,0.13725 0.248609,0.27078 0.372,0.407 0.141786,0.15653 0.29874,0.29869 0.444,0.452 0.119289,0.1259 0.22892,0.26082 0.35,0.385 0.142965,0.14662 0.306024,0.2724 0.453,0.415 0.126813,0.12304 0.260371,0.23893 0.39,0.359 0.138658,0.12843 0.277208,0.25704 0.419,0.382 0.129882,0.11447 0.257638,0.23141 0.39,0.343 0.131422,0.1108 0.26796,0.21538 0.402,0.323 0.163306,0.13111 0.348834,0.23218 0.517,0.357 0.146693,0.10888 0.303791,0.20302 0.454,0.307 0.147634,0.10219 0.301156,0.19561 0.452,0.293 0.167251,0.10799 0.349547,0.19082 0.521,0.292 0.202604,0.11957 0.406488,0.23717 0.614,0.348 0.176935,0.0945 0.348826,0.19891 0.53,0.285 0.155504,0.0739 0.324801,0.11507 0.483,0.183 0.161633,0.0694 0.309274,0.16968 0.473,0.234 0.190907,0.075 0.364891,0.19174 0.56,0.255 0.188146,0.061 0.368034,0.1475 0.559,0.199 0.201358,0.0543 0.408623,0.0838 0.612,0.13 0.181167,0.0411 0.366512,0.0612 0.549,0.096 0.201869,0.0385 0.405392,0.0681 0.609,0.096 0.132363,0.0181 0.264555,0.0375 0.397,0.055 0.132288,0.0175 0.264717,0.0366 0.398,0.043 0.16715,0.008 0.334655,0.006 0.502,0.006 0.165679,3e-5 0.331369,-0.002 0.497,-0.006 0.167059,-0.004 0.334086,-0.01 0.501,-0.018 0.165111,-0.008 0.33015,-0.0178 0.495,-0.03 0.166853,-0.0124 0.333538,-0.0272 0.5,-0.044 0.164919,-0.0167 0.329588,-0.0359 0.494,-0.057 0.162996,-0.0209 0.32565,-0.0446 0.488,-0.07 0.164367,-0.0258 0.328429,-0.0536 0.492,-0.084 0.162413,-0.0302 0.32453,-0.0621 0.486,-0.097 0.163914,-0.0354 0.327191,-0.0738 0.49,-0.114 0.158871,-0.0392 0.317336,-0.0802 0.475,-0.124 0.160055,-0.0445 0.319361,-0.0917 0.478,-0.141 0.158344,-0.0492 0.316184,-0.10012 0.473,-0.154 0.156564,-0.0538 0.312114,-0.11056 0.467,-0.169 0.157929,-0.0596 0.314946,-0.12166 0.471,-0.186 0.153238,-0.0632 0.30569,-0.12833 0.457,-0.196 0.151383,-0.0677 0.301672,-0.13788 0.451,-0.21 0.149673,-0.0723 0.298486,-0.14641 0.446,-0.223 0.145063,-0.0753 0.289128,-0.1526 0.432,-0.232 0.146834,-0.0816 0.292507,-0.16532 0.437,-0.251 0.142211,-0.0843 0.283168,-0.17079 0.423,-0.259 0.140596,-0.0887 0.279826,-0.17958 0.418,-0.272 0.136488,-0.0913 0.271901,-0.18423 0.406,-0.279 0.135092,-0.0955 0.27131,-0.18958 0.402,-0.291 0.141976,-0.11017 0.263946,-0.24398 0.394,-0.368 0.132879,-0.12672 0.257671,-0.26166 0.388,-0.391 0.125311,-0.12436 0.252056,-0.24727 0.377,-0.372 0.139983,-0.13974 0.301133,-0.25925 0.428,-0.411 0.105105,-0.12572 0.196745,-0.26211 0.294,-0.394 0.0983,-0.1333 0.195333,-0.26752 0.292,-0.402 0.09533,-0.13262 0.189477,-0.2661 0.283,-0.4 0.09387,-0.1344 0.1872,-0.26918 0.279,-0.405 0.09024,-0.13351 0.179019,-0.268 0.267,-0.403 0.08971,-0.13766 0.17893,-0.27566 0.266,-0.415 0.08673,-0.1388 0.172235,-0.27839 0.256,-0.419 0.08339,-0.13999 0.16493,-0.28109 0.245,-0.423 0.07931,-0.14057 0.15639,-0.28241 0.232,-0.425 0.07654,-0.14435 0.151764,-0.28944 0.224,-0.436 0.07265,-0.14739 0.142349,-0.29625 0.21,-0.446 0.06676,-0.14778 0.130809,-0.29682 0.192,-0.447 0.06251,-0.15341 0.122202,-0.30802 0.178,-0.464 0.05489,-0.15344 0.106605,-0.30808 0.154,-0.464 0.04725,-0.15544 0.09039,-0.31219 0.129,-0.47 0.03847,-0.15724 0.07063,-0.316 0.101,-0.475 0.03568,-0.18681 0.08958,-0.37011 0.119,-0.558 0.02818,-0.17993 0.0011,-0.36486 0.02,-0.546 0.01733,-0.16611 -0.0044,-0.33437 0.007,-0.501 0.0132,-0.19294 0.01114,-0.38663 0.014,-0.58 0.0028,-0.18988 0.03453,-0.37922 0.028,-0.569 -0.0065,-0.18896 -0.02058,-0.37764 -0.037,-0.566 -0.01586,-0.18198 -0.07551,-0.35784 -0.099,-0.539 -0.02438,-0.18799 -0.125657,-0.3594 -0.159,-0.546 -0.0318,-0.17797 -0.0354,-0.36083 -0.076,-0.537 -0.04234,-0.18369 -0.0997,-0.3636 -0.151,-0.545 -0.05138,-0.18167 -0.154877,-0.34503 -0.215,-0.524 -0.05616,-0.16717 -0.104205,-0.33721 -0.167,-0.502 -0.06523,-0.17118 -0.190573,-0.31417 -0.264,-0.482 -0.07509,-0.17163 -0.142789,-0.34667 -0.225,-0.515 -0.07881,-0.16137 -0.128428,-0.33666 -0.215,-0.494 -0.08761,-0.15923 -0.158173,-0.32776 -0.251,-0.484 -0.09207,-0.15497 -0.215024,-0.28969 -0.313,-0.441 -0.108948,-0.16826 -0.234636,-0.32508 -0.35,-0.489 -0.102839,-0.14613 -0.22023,-0.28147 -0.328,-0.424 -0.109986,-0.14546 -0.198934,-0.30652 -0.314,-0.448 -0.117211,-0.14411 -0.219858,-0.30004 -0.342,-0.44 -0.127478,-0.14607 -0.295173,-0.25292 -0.426,-0.396 -0.135513,-0.14821 -0.285734,-0.28236 -0.424,-0.428 -0.124517,-0.13116 -0.294923,-0.21232 -0.422,-0.341 -0.12195,-0.12349 -0.256011,-0.23455 -0.379,-0.357 -0.125465,-0.12492 -0.242288,-0.25833 -0.368,-0.383 -0.13124,-0.13015 -0.238393,-0.28322 -0.37,-0.413 -0.123962,-0.12224 -0.268363,-0.22245 -0.393,-0.344 -0.121073,-0.11808 -0.22426,-0.25358 -0.345,-0.372 -0.139891,-0.1372 -0.286582,-0.26734 -0.427,-0.404 -0.121456,-0.11821 -0.24183,-0.23753 -0.364,-0.355 -0.137793,-0.13249 -0.270407,-0.27027 -0.407,-0.404 -0.128459,-0.12576 -0.277012,-0.22978 -0.406,-0.355 -0.141278,-0.13715 -0.263513,-0.29307 -0.405,-0.43 -0.129515,-0.12535 -0.289014,-0.21711 -0.418,-0.343 -0.128114,-0.12504 -0.22673,-0.27812 -0.355,-0.403 -0.130056,-0.12662 -0.262024,-0.25128 -0.391,-0.379 -0.122598,-0.1214 -0.242214,-0.24578 -0.364,-0.368 -0.126453,-0.1269 -0.280376,-0.22427 -0.407,-0.351 -0.139099,-0.13922 -0.249974,-0.30472 -0.388,-0.445 -0.126797,-0.12887 -0.222254,-0.28611 -0.348,-0.416 -0.118847,-0.12277 -0.269974,-0.21144 -0.388,-0.335 -0.13829,-0.14477 -0.323763,-0.23923 -0.461,-0.385 -0.135306,-0.14372 -0.245038,-0.31003 -0.379,-0.455 -0.12895,-0.13955 -0.268098,-0.26949 -0.396,-0.41 -0.133447,-0.1466 -0.259935,-0.29939 -0.39,-0.449 -0.116137,-0.13359 -0.263159,-0.23845 -0.377,-0.374 -0.127275,-0.15155 -0.254224,-0.30339 -0.379,-0.457 -0.128346,-0.15801 -0.250426,-0.321 -0.375,-0.482 -0.122674,-0.15854 -0.206384,-0.3444 -0.325,-0.506 -0.121537,-0.16558 -0.284934,-0.29823 -0.402,-0.467 -0.09905,-0.1428 -0.205514,-0.28045 -0.302,-0.425 -0.100982,-0.15128 -0.167707,-0.32332 -0.265,-0.477 -0.111069,-0.17544 -0.205954,-0.36068 -0.314,-0.538 -0.09153,-0.15021 -0.16647,-0.31 -0.255,-0.462 -0.09618,-0.16513 -0.190534,-0.33132 -0.284,-0.498 -0.104851,-0.18698 -0.216549,-0.37015 -0.318,-0.559 -0.08402,-0.1564 -0.122888,-0.33407 -0.204,-0.492 -0.08208,-0.15981 -0.169747,-0.31677 -0.249,-0.478 -0.08558,-0.1741 -0.140218,-0.36208 -0.222,-0.538 -0.07504,-0.16142 -0.174089,-0.31116 -0.246,-0.474 -0.06958,-0.15756 -0.178414,-0.29633 -0.243,-0.456 -0.0635,-0.15698 -0.112882,-0.31932 -0.172,-0.478 -0.07268,-0.19508 -0.197079,-0.36887 -0.264,-0.566 -0.06119,-0.18025 -0.14288,-0.3535 -0.197,-0.536 -0.06398,-0.21574 -0.140797,-0.42785 -0.196,-0.646 -0.05587,-0.22078 -0.122248,-0.43911 -0.169,-0.662 -0.03756,-0.17907 -0.09501,-0.35385 -0.127,-0.534 -0.03829,-0.21563 -0.09599,-0.42793 -0.125,-0.645 -0.02231,-0.16692 -0.04037,-0.33441 -0.057,-0.502 -0.02095,-0.21107 -0.02377,-0.42359 -0.041,-0.635 -0.01667,-0.2045 -0.05376,-0.40718 -0.066,-0.612 -0.01138,-0.19034 0.01149,-0.38137 0.007,-0.572 -0.0048,-0.20362 0.0066,-0.40732 0.007,-0.611 3.28e-4,-0.16842 -0.02009,-0.33663 -0.016,-0.505 0.0045,-0.18534 -0.02406,-0.37088 -0.014,-0.556 0.0098,-0.18049 0.0031,-0.36178 0.017,-0.542 0.01454,-0.18863 0.02517,-0.37756 0.042,-0.566 0.02005,-0.22447 0.02867,-0.44996 0.053,-0.674 0.02211,-0.20363 0.04717,-0.40694 0.074,-0.61 0.02502,-0.18937 0.04665,-0.37925 0.076,-0.568 0.03447,-0.22172 0.02465,-0.44928 0.065,-0.67 0.03855,-0.21088 0.03666,-0.42826 0.081,-0.638 0.04493,-0.21254 0.07174,-0.4289 0.123,-0.64 0.05045,-0.20775 0.08919,-0.41835 0.144,-0.625 0.05308,-0.20013 0.169846,-0.37888 0.23,-0.577 0.06323,-0.20825 0.09005,-0.42691 0.16,-0.633 0.06909,-0.20354 0.135884,-0.40798 0.212,-0.609 0.07883,-0.20819 0.152716,-0.41837 0.238,-0.624 0.08355,-0.20145 0.137539,-0.41466 0.226,-0.614 0.05348,-0.12051 0.09857,-0.2446 0.145,-0.368 0.0451,-0.11987 0.09155,-0.23955 0.147,-0.355 0.101231,-0.21076 0.171564,-0.43582 0.278,-0.644 0.09747,-0.19065 0.19501,-0.38139 0.3,-0.568 0.10923,-0.19415 0.197623,-0.39984 0.312,-0.591 0.118413,-0.19791 0.245223,-0.39069 0.371,-0.584 0.126278,-0.19408 0.242811,-0.39452 0.373,-0.586 0.122357,-0.17996 0.220562,-0.37588 0.347,-0.553 0.13424,-0.18805 0.289151,-0.36058 0.427,-0.546 0.145186,-0.19529 0.273629,-0.40289 0.423,-0.595 0.111073,-0.14285 0.225732,-0.28288 0.339,-0.424 0.155497,-0.19373 0.296492,-0.3989 0.454,-0.591 0.106057,-0.12935 0.210364,-0.26013 0.317,-0.389 0.104535,-0.12633 0.209947,-0.25194 0.316,-0.377 0.105953,-0.12494 0.212624,-0.24928 0.32,-0.373 0.109303,-0.12594 0.219321,-0.25127 0.33,-0.376 0.10873,-0.12254 0.218042,-0.24456 0.328,-0.366 0.109896,-0.12137 0.220959,-0.24168 0.332,-0.362 0.113252,-0.12272 0.226659,-0.2453 0.341,-0.367 0.112042,-0.11926 0.224997,-0.23765 0.338,-0.356 0.112988,-0.11833 0.226135,-0.23651 0.34,-0.354 0.116312,-0.12001 0.232864,-0.23979 0.35,-0.359 0.114484,-0.11651 0.229806,-0.23219 0.345,-0.348 0.117852,-0.11848 0.235489,-0.23718 0.354,-0.355 0.116005,-0.11533 0.232451,-0.23022 0.349,-0.345 0.116385,-0.11462 0.233145,-0.22886 0.35,-0.343 0.11922,-0.11645 0.238374,-0.23297 0.358,-0.349 0.117434,-0.11391 0.235251,-0.22742 0.353,-0.341 0.11979,-0.11555 0.239961,-0.23071 0.36,-0.346 0.117659,-0.11301 0.23518,-0.22616 0.353,-0.339 0.12021,-0.11513 0.240699,-0.22997 0.361,-0.345 0.117742,-0.11259 0.235248,-0.22542 0.353,-0.338 0.120311,-0.11502 0.240758,-0.2299 0.361,-0.345 0.117344,-0.11232 0.232606,-0.22686 0.352,-0.337 0.144259,-0.13308 0.295172,-0.25876 0.442,-0.389 0.152636,-0.13539 0.296317,-0.28066 0.449,-0.416 0.170611,-0.15123 0.325469,-0.31956 0.495,-0.472 0.124791,-0.11221 0.230635,-0.24432 0.355,-0.357 0.156523,-0.14182 0.299099,-0.2985 0.455,-0.441 0.139892,-0.12787 0.267748,-0.26853 0.408,-0.396 0.148642,-0.1351 0.286781,-0.28144 0.435,-0.417 0.157716,-0.14425 0.323038,-0.28002 0.481,-0.424 0.149681,-0.13643 0.291604,-0.28117 0.44,-0.419 0.123358,-0.11457 0.244908,-0.23108 0.367,-0.347 0.12105,-0.11493 0.241547,-0.23044 0.362,-0.346 0.119252,-0.1144 0.238333,-0.22899 0.357,-0.344 0.120349,-0.11664 0.240251,-0.23374 0.36,-0.351 0.118735,-0.11626 0.237854,-0.23214 0.356,-0.349 0.117135,-0.11586 0.233447,-0.23255 0.35,-0.349 0.118054,-0.11795 0.235531,-0.23647 0.353,-0.355 0.116806,-0.11786 0.23377,-0.23557 0.35,-0.354 0.115082,-0.11726 0.229479,-0.23519 0.344,-0.353 0.116168,-0.1195 0.2324,-0.23895 0.348,-0.359 0.114958,-0.11939 0.229592,-0.23909 0.344,-0.359 0.11605,-0.12164 0.231502,-0.24384 0.347,-0.366 0.114693,-0.12131 0.229838,-0.24219 0.344,-0.364 0.113704,-0.12132 0.22681,-0.2432 0.34,-0.365 0.112406,-0.12096 0.224083,-0.24259 0.336,-0.364 0.111445,-0.1209 0.223018,-0.24168 0.334,-0.363 0.112917,-0.12344 0.225545,-0.24714 0.338,-0.371 0.111837,-0.12318 0.223596,-0.24643 0.335,-0.37 0.111105,-0.12324 0.222301,-0.2464 0.333,-0.37 0.110254,-0.12311 0.220122,-0.24656 0.33,-0.37 0.111939,-0.12576 0.223427,-0.25192 0.335,-0.378 0.109245,-0.12345 0.21808,-0.24726 0.327,-0.371 0.110805,-0.12588 0.221497,-0.25186 0.332,-0.378 0.108333,-0.12367 0.216924,-0.24711 0.325,-0.371 0.110117,-0.12623 0.220125,-0.25256 0.33,-0.379 0.107715,-0.12396 0.215482,-0.24787 0.323,-0.372 0.109695,-0.12664 0.219482,-0.25321 0.329,-0.38 0.107532,-0.1245 0.214604,-0.24939 0.322,-0.374 0.10971,-0.1273 0.219399,-0.25461 0.329,-0.382 0.107597,-0.12506 0.215476,-0.24988 0.323,-0.375 0.107854,-0.12551 0.215186,-0.25146 0.323,-0.377 0.110264,-0.12839 0.220747,-0.2566 0.331,-0.385 0.106249,-0.12374 0.212727,-0.24728 0.319,-0.371 0.108911,-0.12679 0.217038,-0.25425 0.326,-0.381 0.109387,-0.12724 0.219527,-0.25383 0.329,-0.381 0.107797,-0.12522 0.215088,-0.25088 0.323,-0.376 0.108503,-0.12581 0.217358,-0.25131 0.326,-0.377 0.108949,-0.12604 0.217883,-0.2521 0.327,-0.378 0.107863,-0.12445 0.215948,-0.24871 0.324,-0.373 0.108504,-0.12481 0.21921,-0.24772 0.326,-0.374 0.144966,-0.17142 0.308348,-0.32702 0.449,-0.502 0.14879,-0.1851 0.294947,-0.37231 0.443,-0.558 0.124783,-0.15651 0.250107,-0.31258 0.375,-0.469 0.142022,-0.17787 0.291579,-0.34965 0.433,-0.528 0.139909,-0.17644 0.296693,-0.33908 0.436,-0.516 0.08687,-0.11032 0.177189,-0.2179 0.268,-0.325 0.09101,-0.10733 0.182384,-0.21434 0.273,-0.322 0.08834,-0.10495 0.176141,-0.21044 0.26,-0.319 0.151341,-0.19592 0.339992,-0.3613 0.489,-0.559 0.140813,-0.18683 0.301651,-0.35808 0.441,-0.546 0.135037,-0.18211 0.291524,-0.34774 0.425,-0.531 0.120575,-0.16554 0.249083,-0.32526 0.368,-0.492 0.135498,-0.18999 0.293597,-0.36323 0.428,-0.554 0.07369,-0.10459 0.153622,-0.20466 0.233,-0.305 0.07913,-0.10002 0.15821,-0.20028 0.231,-0.305 0.138013,-0.19856 0.277943,-0.39578 0.415,-0.595 0.137866,-0.20039 0.269944,-0.4047 0.405,-0.607 0.138561,-0.20754 0.287334,-0.4082 0.424,-0.617 0.07706,-0.11773 0.155119,-0.23481 0.233,-0.352 0.07594,-0.11427 0.152034,-0.22845 0.226,-0.344 0.09769,-0.15262 0.201583,-0.30121 0.299,-0.454 0.123332,-0.19344 0.233986,-0.39473 0.356,-0.589 0.105286,-0.16764 0.221237,-0.32861 0.322,-0.499 0.08504,-0.14381 0.165426,-0.29033 0.249,-0.435 0.08159,-0.14124 0.163748,-0.28215 0.246,-0.423 0.08317,-0.14243 0.166378,-0.28484 0.25,-0.427 0.08266,-0.14053 0.16611,-0.2806 0.249,-0.421 0.08318,-0.14089 0.165776,-0.28213 0.249,-0.423 0.08331,-0.14101 0.166835,-0.2819 0.25,-0.423 0.08285,-0.14056 0.165496,-0.28124 0.248,-0.422 0.08369,-0.14279 0.166872,-0.28588 0.25,-0.429 0.08221,-0.14154 0.164566,-0.28301 0.246,-0.425 0.0817,-0.14246 0.163348,-0.28495 0.244,-0.428 0.08076,-0.14324 0.160618,-0.28699 0.24,-0.431 0.0787,-0.14277 0.156046,-0.28628 0.233,-0.43 0.07735,-0.14446 0.153915,-0.28935 0.229,-0.435 0.07493,-0.14535 0.146993,-0.29217 0.221,-0.438 0.06227,-0.1227 0.124334,-0.2455 0.185,-0.369 0.05751,-0.11707 0.114738,-0.23432 0.175,-0.35 0.109548,-0.2103 0.229098,-0.41535 0.336,-0.627 0.06022,-0.11923 0.121144,-0.2381 0.182,-0.357 0.06099,-0.11917 0.122228,-0.23822 0.182,-0.358 0.101216,-0.20284 0.185768,-0.41368 0.286,-0.617 0.05623,-0.11406 0.115695,-0.22651 0.175,-0.339 0.05791,-0.10985 0.115134,-0.22011 0.169,-0.332 0.08801,-0.18281 0.190565,-0.35844 0.277,-0.542 0.09295,-0.1974 0.165251,-0.40404 0.257,-0.602 0.05368,-0.11582 0.108147,-0.23126 0.162,-0.347 0.05248,-0.11278 0.104314,-0.22586 0.156,-0.339 0.07761,-0.1699 0.164842,-0.33527 0.251,-0.501 0.08616,-0.16573 0.171892,-0.33197 0.247,-0.503 0.0556,-0.1266 0.109873,-0.25377 0.164,-0.381 0.05274,-0.12397 0.104898,-0.24819 0.158,-0.372 0.08973,-0.20922 0.184068,-0.41644 0.273,-0.626 0.06942,-0.16358 0.139539,-0.32686 0.21,-0.49 0.06904,-0.15984 0.13858,-0.31947 0.206,-0.48 0.06719,-0.15998 0.133137,-0.32047 0.199,-0.481 0.06457,-0.15737 0.12886,-0.31486 0.194,-0.472 0.0733,-0.17682 0.147092,-0.35343 0.221,-0.53 0.07259,-0.17342 0.144807,-0.347 0.216,-0.521 0.04812,-0.11761 0.08958,-0.23787 0.131,-0.358 0.04145,-0.12024 0.08367,-0.24035 0.132,-0.358 0.08997,-0.21901 0.181128,-0.43754 0.27,-0.657 0.07744,-0.19123 0.146148,-0.38593 0.224,-0.577 0.08021,-0.19685 0.161616,-0.39322 0.242,-0.59 0.09115,-0.22314 0.180411,-0.44704 0.272,-0.67 0.0525,-0.1278 0.104568,-0.25577 0.156,-0.384 0.0515,-0.1284 0.102611,-0.25696 0.155,-0.385 0.09222,-0.22539 0.169043,-0.45691 0.262,-0.682 0.09067,-0.21956 0.148709,-0.4517 0.24,-0.671 0.05286,-0.12698 0.104781,-0.25435 0.156,-0.382 0.05117,-0.12753 0.102207,-0.25513 0.155,-0.382 0.05276,-0.12679 0.09796,-0.25662 0.144,-0.386 0.04491,-0.12622 0.09028,-0.25241 0.142,-0.376 0.07552,-0.18048 0.154515,-0.3595 0.23,-0.54 0.05328,-0.1274 0.103193,-0.2562 0.153,-0.385 0.04851,-0.12545 0.09688,-0.251 0.149,-0.375 0.05188,-0.12343 0.106588,-0.24566 0.161,-0.368 0.05162,-0.11606 0.102906,-0.23227 0.153,-0.349 0.09328,-0.21735 0.173987,-0.43997 0.268,-0.657 0.07989,-0.18443 0.158235,-0.36952 0.238,-0.554 0.09427,-0.21803 0.188036,-0.43627 0.283,-0.654 0.08306,-0.19043 0.139604,-0.39172 0.223,-0.582 0.07062,-0.16113 0.12991,-0.32708 0.201,-0.488 0.07761,-0.17568 0.147692,-0.35463 0.226,-0.53 0.05868,-0.13141 0.114942,-0.26388 0.172,-0.396 0.05574,-0.12907 0.112041,-0.25791 0.17,-0.386 0.09962,-0.22016 0.183291,-0.44734 0.284,-0.667 0.05294,-0.11547 0.0994,-0.23383 0.146,-0.352 0.04649,-0.11788 0.09288,-0.23595 0.146,-0.351 0.09785,-0.21192 0.164433,-0.43741 0.263,-0.649 0.07536,-0.16177 0.155394,-0.32134 0.231,-0.483 0.05674,-0.12132 0.10809,-0.24512 0.159,-0.369 0.04966,-0.12084 0.09922,-0.24186 0.155,-0.36 0.05886,-0.12465 0.114572,-0.25078 0.17,-0.377 0.05543,-0.12622 0.110836,-0.25249 0.17,-0.377 0.06323,-0.13307 0.12563,-0.26653 0.188,-0.4 0.06092,-0.13037 0.121099,-0.26109 0.183,-0.391 0.106576,-0.22366 0.225554,-0.44128 0.332,-0.665 0.09645,-0.20272 0.172842,-0.41462 0.27,-0.617 0.05983,-0.12463 0.117543,-0.25026 0.175,-0.376 0.05591,-0.12235 0.111625,-0.24481 0.17,-0.366 0.103337,-0.21454 0.200711,-0.43192 0.305,-0.646 0.09795,-0.20106 0.15602,-0.41996 0.254,-0.621 0.106912,-0.21937 0.214936,-0.4382 0.323,-0.657 0.06207,-0.12568 0.129901,-0.24848 0.198,-0.371 0.06484,-0.11666 0.129899,-0.23333 0.189,-0.353 0.106975,-0.21661 0.186358,-0.44622 0.295,-0.662 0.057,-0.11321 0.109508,-0.22864 0.162,-0.344 0.05126,-0.11265 0.102797,-0.22523 0.158,-0.336 0.110642,-0.22202 0.226264,-0.44153 0.338,-0.663 0.05916,-0.11726 0.115793,-0.23578 0.173,-0.354 0.05727,-0.11836 0.114546,-0.23673 0.174,-0.354 0.06208,-0.12246 0.123652,-0.24517 0.185,-0.368 0.05822,-0.11656 0.117015,-0.23283 0.176,-0.349 0.101238,-0.19939 0.191908,-0.40405 0.294,-0.603 0.05996,-0.11685 0.118469,-0.23443 0.177,-0.352 0.05687,-0.11423 0.114116,-0.22828 0.172,-0.342 0.109147,-0.21444 0.219922,-0.42804 0.33,-0.642 0.06322,-0.12288 0.123002,-0.24751 0.183,-0.372 0.05851,-0.1214 0.118036,-0.24233 0.18,-0.362 0.104201,-0.20124 0.209117,-0.40211 0.314,-0.603 0.0601,-0.11511 0.119242,-0.23071 0.179,-0.346 0.05832,-0.11251 0.116972,-0.22486 0.176,-0.337 0.06222,-0.1182 0.122921,-0.2372 0.184,-0.356 0.05795,-0.11271 0.116694,-0.225 0.176,-0.337 0.09627,-0.1818 0.177762,-0.37118 0.274,-0.553 0.09826,-0.18564 0.180568,-0.37945 0.279,-0.565 0.09383,-0.17688 0.185305,-0.355 0.277,-0.533 0.0917,-0.178 0.18326,-0.35607 0.277,-0.533 0.0643,-0.121354 0.12882,-0.242586 0.193,-0.364 0.0627,-0.118641 0.12516,-0.237423 0.188,-0.356 0.061,-0.115118 0.12579,-0.22821 0.191,-0.341 0.0635,-0.109819 0.12692,-0.219748 0.186,-0.332 0.0656,-0.124661 0.12872,-0.250641 0.191,-0.377 0.0622,-0.126224 0.1244,-0.252502 0.19,-0.377 0.11602,-0.220186 0.23462,-0.439003 0.351,-0.659 0.10374,-0.196111 0.18204,-0.405007 0.286,-0.601 0.0886,-0.167014 0.15519,-0.3451 0.244,-0.512 0.10138,-0.190536 0.2078,-0.378366 0.309,-0.569 0.10282,-0.193688 0.16839,-0.405731 0.272,-0.599 0.0992,-0.185033 0.19471,-0.37202 0.294,-0.557 0.0632,-0.117761 0.12793,-0.234704 0.192,-0.352 0.0607,-0.111133 0.12097,-0.222505 0.181,-0.334 0.0639,-0.118666 0.12536,-0.23864 0.186,-0.359 0.0607,-0.120488 0.12094,-0.24126 0.185,-0.36 0.10752,-0.199301 0.20284,-0.405043 0.311,-0.604 0.11662,-0.214528 0.21127,-0.440531 0.328,-0.655 0.10335,-0.189882 0.1965,-0.385201 0.3,-0.575 0.11006,-0.201827 0.20535,-0.411495 0.316,-0.613 0.10173,-0.185267 0.20126,-0.371739 0.303,-0.557 0.11611,-0.211417 0.20391,-0.437573 0.32,-0.649 0.10662,-0.194188 0.19641,-0.397344 0.304,-0.591 0.0669,-0.120446 0.13057,-0.242685 0.194,-0.365 0.0618,-0.11913 0.12298,-0.238606 0.188,-0.356 0.0651,-0.117511 0.13182,-0.234104 0.198,-0.351 0.0644,-0.113767 0.12861,-0.227661 0.192,-0.342 0.0639,-0.115247 0.13224,-0.22798 0.2,-0.341 0.0643,-0.107237 0.1282,-0.214746 0.189,-0.324 0.10563,-0.189814 0.19524,-0.388259 0.301,-0.578 0.11327,-0.203212 0.21778,-0.411205 0.33,-0.615 0.0713,-0.129476 0.14116,-0.259734 0.211,-0.39 0.0699,-0.130406 0.14033,-0.260552 0.212,-0.39 0.0944,-0.170484 0.18937,-0.340649 0.284,-0.511 0.0931,-0.167606 0.18611,-0.335275 0.279,-0.503 0.0992,-0.179127 0.1915,-0.362035 0.291,-0.541 0.0703,-0.126411 0.14533,-0.250131 0.22,-0.374 0.0728,-0.120786 0.1455,-0.241714 0.214,-0.365 0.0639,-0.115045 0.12815,-0.229918 0.192,-0.345 0.064,-0.115337 0.1278,-0.230778 0.192,-0.346 0.064,-0.114861 0.13181,-0.227577 0.2,-0.34 0.0665,-0.109634 0.13366,-0.218949 0.196,-0.331 0.0987,-0.177399 0.19143,-0.35809 0.291,-0.535 0.0645,-0.114612 0.12988,-0.228735 0.195,-0.343 0.0652,-0.114375 0.12995,-0.228988 0.194,-0.344 0.088,-0.158004 0.17587,-0.316072 0.264,-0.474 0.11274,-0.202031 0.19943,-0.417871 0.312,-0.62 0.0667,-0.119742 0.13583,-0.238097 0.204,-0.357 0.0648,-0.113057 0.12913,-0.226403 0.193,-0.34 0.0628,-0.111687 0.12748,-0.2223 0.192,-0.333 0.0627,-0.107591 0.12505,-0.215406 0.186,-0.324 0.0967,-0.172302 0.18211,-0.350799 0.279,-0.523 0.10988,-0.195286 0.19904,-0.40176 0.309,-0.597 0.1182,-0.209869 0.22469,-0.426193 0.343,-0.636 0.0924,-0.16388 0.1657,-0.338058 0.258,-0.502 0.11872,-0.210863 0.25703,-0.410279 0.376,-0.621 0.0643,-0.113871 0.12361,-0.230498 0.183,-0.347 0.0579,-0.113584 0.11593,-0.227204 0.179,-0.338 0.0877,-0.154048 0.16997,-0.311141 0.258,-0.465 0.0914,-0.159741 0.14084,-0.341127 0.232,-0.501 0.0629,-0.110338 0.12498,-0.22116 0.187,-0.332 0.0601,-0.107449 0.12022,-0.214921 0.181,-0.322 0.0962,-0.169449 0.17006,-0.350981 0.267,-0.52 0.065,-0.113359 0.13331,-0.224825 0.202,-0.336 0.0669,-0.108257 0.13368,-0.216622 0.197,-0.327 0.10098,-0.176013 0.20189,-0.35206 0.303,-0.528 0.10005,-0.174111 0.1994,-0.348626 0.299,-0.523 0.0993,-0.173872 0.19865,-0.347729 0.299,-0.521 0.1201,-0.20736 0.21699,-0.427588 0.337,-0.635 0.11297,-0.195251 0.23485,-0.385274 0.347,-0.581 0.1097,-0.19146 0.2308,-0.376254 0.34,-0.568 0.10708,-0.188019 0.19683,-0.385605 0.305,-0.573 0.11786,-0.20419 0.23861,-0.406699 0.358,-0.61 0.10921,-0.185974 0.19864,-0.383113 0.308,-0.569 0.10152,-0.172558 0.20244,-0.345466 0.304,-0.518 0.12079,-0.205206 0.26094,-0.398549 0.383,-0.603 0.0971,-0.162628 0.18925,-0.328169 0.286,-0.491 0.0995,-0.167438 0.19849,-0.335171 0.299,-0.502 0.115,-0.190887 0.20458,-0.396365 0.32,-0.587 0.11085,-0.18309 0.22516,-0.364122 0.333,-0.549 0.0831,-0.142431 0.15974,-0.288519 0.241,-0.432 0.0811,-0.143186 0.16311,-0.285847 0.246,-0.428 0.0829,-0.142132 0.16645,-0.28386 0.251,-0.425 0.0843,-0.140746 0.16904,-0.28125 0.255,-0.421 0.0877,-0.142595 0.17663,-0.284443 0.266,-0.426 0.0874,-0.138396 0.17517,-0.276534 0.264,-0.414 0.089,-0.137755 0.17852,-0.275203 0.269,-0.412 0.0903,-0.136482 0.18137,-0.272424 0.273,-0.408 0.0916,-0.135509 0.1841,-0.270388 0.277,-0.405 0.0948,-0.137369 0.18994,-0.274511 0.286,-0.411 0.0942,-0.13388 0.18956,-0.266979 0.285,-0.4 0.0952,-0.132676 0.19068,-0.265141 0.287,-0.397 0.0965,-0.132059 0.19349,-0.263711 0.291,-0.395 0.0994,-0.1338 0.1996,-0.266965 0.3,-0.4 0.0986,-0.130643 0.19746,-0.261082 0.297,-0.391 0.0993,-0.129609 0.19882,-0.259066 0.299,-0.388 0.10241,-0.131797 0.20574,-0.262871 0.309,-0.394 0.101,-0.128261 0.20224,-0.256341 0.304,-0.384 0.10183,-0.127739 0.20447,-0.254826 0.307,-0.382 0.10472,-0.129892 0.2096,-0.259658 0.315,-0.389 0.1031,-0.126522 0.2063,-0.252965 0.31,-0.379 0.1038,-0.126163 0.20766,-0.252283 0.312,-0.378 0.10429,-0.12565 0.20643,-0.253152 0.314,-0.376 0.13282,-0.151679 0.27676,-0.293249 0.415,-0.44 0.1675,-0.177805 0.31182,-0.376762 0.482,-0.552 0.16997,-0.175021 0.33757,-0.352409 0.511,-0.524 0.11918,-0.117914 0.20513,-0.266823 0.326,-0.383 0.12385,-0.119036 0.25586,-0.229324 0.381,-0.347 0.16832,-0.158277 0.33068,-0.32288 0.501,-0.479 0.0961,-0.08808 0.18645,-0.182246 0.277,-0.276 0.0904,-0.09359 0.18071,-0.187611 0.278,-0.274 0.16306,-0.144784 0.32754,-0.287973 0.493,-0.43 0.15976,-0.137129 0.32227,-0.271011 0.483,-0.407 0.10545,-0.08922 0.20758,-0.182309 0.31,-0.275 0.1,-0.0905 0.20232,-0.178394 0.304,-0.267 0.12646,-0.110204 0.24896,-0.224906 0.37545,-0.335074 0.12635,-0.110038 0.25398,-0.218617 0.38268,-0.325888 0.1286,-0.107187 0.25829,-0.213081 0.38887,-0.31785 0.1279,-0.102616 0.25666,-0.20416 0.38611,-0.304803 0.13203,-0.102644 0.26478,-0.204356 0.39809,-0.305326 0.13324,-0.100911 0.26703,-0.201083 0.40123,-0.300714 0.13409,-0.09956 0.26858,-0.19857 0.40331,-0.297249 0.1346,-0.09858 0.26945,-0.196821 0.40439,-0.294934 0.13476,-0.09798 0.26962,-0.195837 0.40442,-0.293768 0.13458,-0.09777 0.26911,-0.195619 0.40342,-0.293751 0.13406,-0.09794 0.26792,-0.196169 0.40141,-0.294884 0.1332,-0.0985 0.26603,-0.197485 0.39835,-0.297164 0.132,-0.09944 0.26196,-0.201567 0.39427,-0.300595 0.1804,-0.135024 0.35648,-0.275853 0.539,-0.408 0.16058,-0.116263 0.30027,-0.259576 0.46,-0.377 0.19873,-0.146088 0.40647,-0.279648 0.605,-0.426 0.16029,-0.118162 0.31573,-0.24281 0.476,-0.361 0.14719,-0.108545 0.30444,-0.202958 0.452,-0.311 0.16918,-0.12387 0.32927,-0.259886 0.499,-0.383 0.17114,-0.124135 0.34729,-0.241274 0.518,-0.366 0.13804,-0.100857 0.29229,-0.178067 0.431,-0.278 0.18159,-0.130823 0.35925,-0.267016 0.54,-0.399 0.16881,-0.12327 0.35285,-0.224829 0.521,-0.349 0.14392,-0.106276 0.29321,-0.205213 0.436,-0.313 0.17478,-0.131936 0.33298,-0.284761 0.506,-0.419 0.17076,-0.13249 0.34954,-0.254588 0.518,-0.39 0.16558,-0.133104 0.31941,-0.280254 0.482,-0.417 0.16228,-0.136485 0.34179,-0.251946 0.501,-0.392 0.15352,-0.135049 0.33715,-0.233193 0.49,-0.369 0.16571,-0.147232 0.34264,-0.281956 0.503,-0.435 0.13298,-0.126917 0.29647,-0.21956 0.427,-0.349 0.12824,-0.127175 0.2672,-0.243409 0.393,-0.373 0.12103,-0.124675 0.24119,-0.250207 0.36,-0.377 0.13345,-0.142417 0.28782,-0.264588 0.418,-0.41 0.12336,-0.137793 0.25557,-0.267639 0.376,-0.408 0.14229,-0.165841 0.32262,-0.297687 0.457,-0.47 0.10385,-0.133164 0.2064,-0.267364 0.307,-0.403 0.10801,-0.145625 0.21267,-0.293719 0.317,-0.442 0.1071,-0.152212 0.21342,-0.305052 0.315,-0.461 0.10196,-0.15653 0.2029,-0.313803 0.299,-0.474 0.0966,-0.161048 0.19447,-0.321459 0.285,-0.486 0.0902,-0.163961 0.17872,-0.328915 0.263,-0.496 0.0836,-0.165712 0.1678,-0.331217 0.245,-0.5 0.0781,-0.17076 0.15459,-0.342334 0.226,-0.516 0.0695,-0.169053 0.14091,-0.337446 0.204,-0.509 0.0627,-0.170484 0.12171,-0.342304 0.181,-0.514 0.0547,-0.158321 0.11011,-0.316495 0.158,-0.477 0.0464,-0.155429 0.0883,-0.312252 0.126,-0.47 0.0384,-0.160352 0.072,-0.321879 0.102,-0.484 0.0299,-0.16133 0.0557,-0.323448 0.078,-0.486 0.0227,-0.165572 0.0423,-0.331618 0.058,-0.498 0.0154,-0.163073 0.0272,-0.326498 0.037,-0.49 0.01,-0.163506 0.0159,-0.327249 0.02,-0.491 0.004,-0.163965 0.007,-0.327983 0.007,-0.492 8e-5,-0.163672 5.7e-4,-0.327392 -0.004,-0.491 -0.005,-0.177159 -0.0127,-0.354348 -0.027,-0.531 -0.0144,-0.178166 -0.027,-0.356612 -0.049,-0.534 -0.022,-0.177306 -0.0435,-0.35479 -0.073,-0.531 -0.0294,-0.175398 -0.0582,-0.351002 -0.095,-0.525 -0.0363,-0.171846 -0.0726,-0.343802 -0.116,-0.514 -0.0433,-0.169863 -0.0861,-0.339963 -0.136,-0.508 -0.0502,-0.168886 -0.0991,-0.338261 -0.156,-0.505 -0.0562,-0.164651 -0.11422,-0.328748 -0.177,-0.491 -0.0632,-0.163312 -0.12759,-0.326231 -0.197,-0.487 -0.0695,-0.160958 -0.13958,-0.321735 -0.215,-0.48 -0.076,-0.159473 -0.15109,-0.319481 -0.233,-0.476 -0.0812,-0.155164 -0.16506,-0.308979 -0.252,-0.461 -0.0879,-0.153692 -0.17534,-0.307752 -0.269,-0.458 -0.093,-0.149176 -0.18452,-0.299385 -0.283,-0.445 -0.0994,-0.146988 -0.19922,-0.293793 -0.304,-0.437 -0.10326,-0.141127 -0.20892,-0.280532 -0.317,-0.418 -0.10837,-0.137832 -0.21388,-0.278042 -0.327,-0.412 -0.11214,-0.132793 -0.19301,-0.290556 -0.309,-0.42 -0.11649,-0.130007 -0.23407,-0.259113 -0.355,-0.385 -0.12068,-0.125623 -0.24008,-0.252594 -0.365,-0.374 -0.12665,-0.123088 -0.25412,-0.245416 -0.385,-0.364 -0.12825,-0.116205 -0.25578,-0.233334 -0.388,-0.345 -0.13258,-0.111968 -0.26468,-0.224618 -0.401,-0.332 -0.13612,-0.107225 -0.27039,-0.217135 -0.412,-0.317 -0.13736,-0.09687 -0.27972,-0.186518 -0.422,-0.276 -0.14029,-0.08823 -0.28211,-0.174044 -0.425,-0.258 -0.15906,-0.09346 -0.31976,-0.184179 -0.482,-0.272 -0.16153,-0.08744 -0.32448,-0.172336 -0.489,-0.254 -0.16427,-0.08154 -0.33006,-0.160078 -0.497,-0.236 -0.16347,-0.07434 -0.32824,-0.145897 -0.494,-0.215 -0.14232,-0.05933 -0.28518,-0.117418 -0.429,-0.173 -0.14393,-0.05562 -0.28872,-0.109017 -0.434,-0.161 -0.14471,-0.05178 -0.29008,-0.101724 -0.436,-0.15 -0.14582,-0.04824 -0.29211,-0.09513 -0.439,-0.14 -0.14678,-0.04484 -0.29392,-0.08866 -0.442,-0.129 -0.17418,-0.04746 -0.34966,-0.09033 -0.526,-0.129 -0.0795,-0.01743 -0.16827,-0.03576 -0.25999,-0.05406"
       id="path_2022_01_21_14_22_35_034149"
       inkscape:connector-curvature="0"
       inkscape:label="path_rddf-log-mosaic-circuito1-semi-reboque-20220118-3.txt"
       sodipodi:nodetypes="caaaaaaaaaaaaaaaaaaaaaaaaaaaaaaaaaaaaaaaaaaaaaaaaaaaaaaaaaaaaaaaaaaaaaaaaaaaaaaaaaaaaaaaaaaaaaaaaaaaaaaaaaaaaaaaaaaaaaaaaaaaaaaaaaaaaaaaaaaaaaaaaaaaaaaaaaaaaaaaaaaaaaaaaaaaaaaaaaaaaaaaaaaaaaaaaaaaaaaaaaaaaaaaaaaaaaaaaaaaaaaaaaaaaaaaaaaaaaaaaaaaaaaaaaaaaaaaaaaaaaaaaaaaaaaaaaaaaaaaaaaaaaaaaaaaaaaaaaaaaaaaaaaaaaaaaaaaaaaaaaaaaaaaaaaaaaaaaaaaaaaaaaaaaaaaaaaaaaaaaaaaaaaaaaaaaaaaaaaaaaaaaaaaaaaaaaaaaaaaaaaaaaaaaaaaaaaaaaaaaaaaaaaaaaaaaaaaaaaaaaaaaaaaaaaaaaaaaaaaaaaaaaaaaaaaaaaaaaaaaaaaaaaaaaaaaaaaaaaaaaaaaaaaaaaaaaaaaaaaaaaaaaaaaaaaaaaaaaaaaaaaaaaaaaaaaaaaaaaaaaaaaaaaaaaaaaaaaaaaaaaaaaaaaaaaaaaaaaaaaaaaaaaaaaaaaaaaaaaaaaaaaaaaaaaaaaaaaaaaaaaaaaaaaaaaaaaaaaaaaaaaaaaaaaaaaaaaaaaaaaaaaaaaaaaaaaaaaaaaaaaaaaaaaaaaaaaaaaaaaaaaaaaaaaaaaaaaaaaaaaaaaaaaaaaaaaaaaaaaaaaaaaaaaaaaaaaaaaaaaaaaaaaaaaaaaaaaaaaaaaaaaaaaaaaaaaaaaaaaaaaaaaaaaaaaaaaaaaaaaaaaaaaaaaaaaaaaaaaaaaaaaaaaaaaaaaaaaaaaaaaaaaaaaaaaaaaaaaaaaaaaaaaaaaaaaaaaaaaasc"
       style="fill:none;stroke:#ff00ff;stroke-width:0.4px;stroke-linecap:butt;stroke-linejoin:miter;stroke-miterlimit:4;stroke-dasharray:none;stroke-opacity:1" />
    <path
       d="m 141.389,14.065 c -0.16816,-0.03388 -1.96086,-0.491395 -2.95,-0.698 -0.16084,-0.03359 -0.32321,-0.05935 -0.485,-0.088 -0.16485,-0.02919 -0.32981,-0.05783 -0.495,-0.085 -0.1632,-0.02685 -0.32648,-0.05319 -0.49,-0.078 -0.16648,-0.02526 -0.33321,-0.04891 -0.5,-0.072 -0.16484,-0.02282 -0.32987,-0.04436 -0.495,-0.065 -0.16288,-0.02036 -0.32587,-0.03983 -0.489,-0.058 -0.16621,-0.01851 -0.33255,-0.03583 -0.499,-0.052 -0.16457,-0.01599 -0.32921,-0.03136 -0.494,-0.045 -0.16722,-0.01384 -0.3346,-0.02565 -0.502,-0.037 -0.16526,-0.0112 -0.33059,-0.02133 -0.496,-0.03 -0.16828,-0.0088 -0.33661,-0.01682 -0.505,-0.023 -0.16595,-0.0061 -0.33197,-0.01057 -0.498,-0.014 -0.16431,-0.0034 -0.32866,-0.0053 -0.493,-0.006 -0.16667,-7.17e-4 -0.33335,-1.09e-4 -0.5,0.002 -0.16903,0.0021 -0.33804,0.0058 -0.507,0.011 -0.16704,0.0051 -0.33408,0.01092 -0.501,0.019 -0.16509,0.008 -0.33008,0.01804 -0.495,0.029 -0.16678,0.01108 -0.33346,0.02378 -0.5,0.038 -0.16481,0.01408 -0.32949,0.02978 -0.494,0.047 -0.16684,0.01746 -0.33354,0.03625 -0.5,0.057 -0.16453,0.02051 -0.32892,0.04221 -0.493,0.066 -0.16628,0.02411 -0.33225,0.05046 -0.498,0.078 -0.16397,0.02725 -0.32764,0.05634 -0.491,0.087 -0.16165,0.03034 -0.32302,0.06227 -0.484,0.096 -0.16338,0.03423 -0.3264,0.07024 -0.489,0.108 -0.16073,0.03733 -0.32112,0.07618 -0.481,0.117 -0.16248,0.04149 -0.32449,0.08488 -0.486,0.13 -0.15981,0.04465 -0.31923,0.09076 -0.478,0.139 -0.16119,0.04898 -0.32198,0.09931 -0.482,0.152 -0.1584,0.05216 -0.31585,0.107186 -0.473,0.163 -0.15621,0.05548 -0.31211,0.111915 -0.467,0.171 -0.15378,0.05866 -0.30662,0.119792 -0.459,0.182 -0.15464,0.06313 -0.3089,0.127236 -0.462,0.194 -0.1522,0.06637 -0.3034,0.135064 -0.454,0.205 -0.15293,0.07102 -0.30481,0.144332 -0.456,0.219 -0.1505,0.07433 -0.30031,0.150105 -0.449,0.228 -0.14453,0.07571 -0.28826,0.152962 -0.431,0.232 -0.14562,0.08064 -0.29031,0.162972 -0.434,0.247 -0.14612,0.08545 -0.29095,0.173113 -0.435,0.262 -0.14064,0.08678 -0.28039,0.175011 -0.419,0.265 -0.14112,0.09163 -0.28104,0.185132 -0.42,0.28 -0.13564,0.0926 -0.27047,0.186394 -0.404,0.282 -0.13634,0.09762 -0.2719,0.196342 -0.406,0.297 -0.13384,0.100458 -0.26642,0.202601 -0.398,0.306 -0.13143,0.103284 -0.26185,0.207877 -0.391,0.314 -0.1263,0.103777 -0.25091,0.209601 -0.375,0.316 -0.12679,0.108707 -0.25252,0.218658 -0.377,0.33 -0.12451,0.111367 -0.24781,0.224096 -0.37,0.338 -0.12228,0.11399 -0.24404,0.228572 -0.364,0.345 -0.11992,0.116387 -0.23839,0.234274 -0.356,0.353 -0.11778,0.118904 -0.23453,0.238851 -0.35,0.36 -0.11325,0.118819 -0.22495,0.239117 -0.336,0.36 -0.11353,0.123582 -0.22576,0.248359 -0.337,0.374 -0.11136,0.125769 -0.22191,0.25226 -0.331,0.38 -0.1071,0.125406 -0.21306,0.251785 -0.318,0.379 -0.10511,0.127424 -0.20902,0.255848 -0.312,0.385 -0.10539,0.132168 -0.20981,0.265111 -0.313,0.399 -0.10121,0.131325 -0.20185,0.263107 -0.301,0.396 -0.0994,0.133218 -0.19768,0.267262 -0.295,0.402 -0.0974,0.134884 -0.19359,0.270681 -0.289,0.407 -0.0958,0.13688 -0.19016,0.274767 -0.284,0.413 -0.0939,0.138372 -0.18703,0.277314 -0.279,0.417 -0.0902,0.137071 -0.1796,0.274732 -0.268,0.413 -0.0905,0.141494 -0.18038,0.283341 -0.269,0.426 -0.0889,0.143113 -0.17696,0.286749 -0.264,0.431 -0.0853,0.141408 -0.16938,0.28358 -0.253,0.426 -0.0837,0.142582 -0.16696,0.285445 -0.249,0.429 -0.0823,0.144094 -0.1633,0.288977 -0.244,0.434 -0.0825,0.148219 -0.1642,0.296859 -0.245,0.446 -0.0794,0.146595 -0.15818,0.29355 -0.236,0.441 -0.0777,0.147282 -0.15475,0.294946 -0.231,0.443 -0.0748,0.145253 -0.14864,0.291011 -0.222,0.437 -0.075,0.149316 -0.14939,0.298976 -0.223,0.449 -0.0739,0.150703 -0.14746,0.301618 -0.22,0.453 -0.0724,0.151003 -0.14401,0.302348 -0.215,0.454 -0.0696,0.148714 -0.13863,0.297708 -0.207,0.447 -0.0701,0.153 -0.13924,0.30641 -0.208,0.46 -0.0672,0.150096 -0.13397,0.300388 -0.2,0.451 -0.0676,0.15409 -0.13466,0.308381 -0.201,0.463 -0.065,0.151401 -0.12913,0.303136 -0.193,0.455 -0.0652,0.155099 -0.12987,0.310444 -0.194,0.466 -0.0628,0.152454 -0.12521,0.305115 -0.187,0.458 -0.0631,0.156153 -0.12591,0.312438 -0.188,0.469 -0.0607,0.153057 -0.12023,0.306576 -0.18,0.46 -0.0611,0.156833 -0.12186,0.313798 -0.182,0.471 -0.0601,0.157159 -0.11975,0.314509 -0.179,0.472 -0.0579,0.153911 -0.11592,0.307781 -0.173,0.462 -0.0583,0.157444 -0.11556,0.315249 -0.173,0.473 -0.056,0.15387 -0.11173,0.307857 -0.167,0.462 -0.0565,0.157603 -0.11322,0.315138 -0.169,0.473 -0.0557,0.157548 -0.11102,0.31521 -0.166,0.473 -0.0549,0.15748 -0.1088,0.315289 -0.163,0.473 -0.0542,0.157609 -0.10847,0.315174 -0.162,0.473 -0.0533,0.157222 -0.10624,0.314587 -0.159,0.472 -0.0526,0.156913 -0.10492,0.313915 -0.157,0.471 -0.0531,0.160188 -0.1054,0.320646 -0.158,0.481 -0.0513,0.156249 -0.10219,0.312605 -0.153,0.469 -0.0518,0.159304 -0.10371,0.318546 -0.155,0.478 -0.0511,0.158957 -0.10224,0.317922 -0.153,0.477 -0.0505,0.15828 -0.10081,0.31662 -0.151,0.475 -0.0499,0.157582 -0.0994,0.315318 -0.149,0.473 -0.0505,0.160603 -0.10071,0.321321 -0.151,0.482 -0.05,0.159673 -0.10025,0.319254 -0.15,0.479 -0.0495,0.158949 -0.0986,0.318016 -0.148,0.477 -0.0491,0.157978 -0.0981,0.315986 -0.147,0.474 -0.0497,0.160332 -0.0994,0.32064 -0.149,0.481 -0.0493,0.159353 -0.0988,0.318639 -0.148,0.478 -0.0489,0.158354 -0.098,0.316659 -0.147,0.475 -0.0496,0.160261 -0.0983,0.320766 -0.148,0.481 -0.0493,0.159017 -0.0986,0.318025 -0.148,0.477 -0.049,0.157759 -0.0987,0.315309 -0.148,0.473 -0.0498,0.159304 -0.0989,0.31879 -0.149,0.478 -0.0496,0.157789 -0.1001,0.315303 -0.15,0.473 -0.0503,0.159005 -0.10028,0.318123 -0.151,0.477 -0.0512,0.160473 -0.10323,0.320699 -0.155,0.481 -0.0512,0.158393 -0.10231,0.316784 -0.154,0.475 -0.0511,0.156409 -0.10224,0.312807 -0.154,0.469 -0.0522,0.157493 -0.10504,0.314765 -0.158,0.472 -0.0531,0.157736 -0.11615,0.312438 -0.16,0.473 -0.0447,0.16371 -0.0678,0.33257 -0.101,0.499 -0.0326,0.163289 -0.0655,0.326504 -0.097,0.49 -0.0319,0.165559 -0.0632,0.331243 -0.094,0.497 -0.0311,0.166866 -0.0611,0.333921 -0.091,0.501 -0.0294,0.164264 -0.0587,0.328544 -0.087,0.493 -0.0285,0.165907 -0.0566,0.331897 -0.084,0.498 -0.0275,0.166863 -0.0536,0.33395 -0.08,0.501 -0.0259,0.164243 -0.0513,0.328574 -0.076,0.493 -0.0249,0.165583 -0.0494,0.331235 -0.073,0.497 -0.0238,0.166559 -0.0465,0.333264 -0.069,0.5 -0.0226,0.167586 -0.0447,0.335237 -0.066,0.503 -0.0209,0.164602 -0.0414,0.329248 -0.061,0.494 -0.0202,0.169275 -0.0402,0.338571 -0.059,0.508 -0.0185,0.166246 -0.0359,0.332609 -0.053,0.499 -0.0172,0.167279 -0.0342,0.334587 -0.05,0.502 -0.0159,0.167587 -0.0304,0.335296 -0.045,0.503 -0.01434,0.164943 -0.02797,0.329948 -0.041,0.495 -0.01333,0.168949 -0.02601,0.33795 -0.038,0.507 -0.01179,0.166302 -0.0235,0.332612 -0.034,0.499 -0.01052,0.166615 -0.01835,0.333393 -0.029,0.5 -0.01071,0.167557 -0.02401,0.334942 -0.03479,0.502494 -0.01041,0.161768 -0.02023,0.323576 -0.02949,0.485414 -0.0095,0.165727 -0.0184,0.331488 -0.02678,0.497275 -0.0084,0.166418 -0.01628,0.332864 -0.02367,0.499331 -0.0073,0.163788 -0.01405,0.327598 -0.02041,0.491424 -0.0064,0.164377 -0.01232,0.328771 -0.01787,0.493178 -0.0056,0.164928 -0.01073,0.329869 -0.01554,0.494821 -0.0048,0.165442 -0.0093,0.330895 -0.01344,0.496355 -0.0042,0.165918 -0.008,0.331845 -0.01156,0.497777 -0.0035,0.163026 -0.0067,0.326059 -0.0097,0.489095 -0.0031,0.166752 -0.0059,0.333508 -0.0085,0.500268 -0.0026,0.163772 -0.0049,0.327547 -0.0071,0.491324 -0.0022,0.164088 -0.0042,0.328178 -0.0061,0.49227 -0.002,0.167727 -0.0038,0.335455 -0.0055,0.503184 -0.0017,0.164621 -0.0033,0.329243 -0.0048,0.493865 l -0.0045,0.494497 c -0.0015,0.165009 -0.0029,0.330017 -0.0043,0.495026 -0.0014,0.16515 -0.0029,0.3303 -0.0044,0.49545 -0.0015,0.165257 -0.0031,0.330514 -0.0047,0.49577 -0.0016,0.161955 -0.0033,0.32391 -0.0051,0.485863 -0.0018,0.165367 -0.0038,0.330734 -0.0058,0.496098 -0.0021,0.165372 -0.0043,0.330742 -0.0067,0.496109 -0.0024,0.165342 -0.005,0.330681 -0.0078,0.496016 -0.0028,0.165277 -0.0059,0.330551 -0.0092,0.495819 -0.0033,0.165178 -0.0068,0.330351 -0.01067,0.495517 -0.0038,0.165045 -0.008,0.330083 -0.0124,0.495113 -0.0044,0.164877 -0.0092,0.329746 -0.01433,0.494603 -0.0051,0.164676 -0.0106,0.329341 -0.01647,0.493991 -0.0059,0.16444 -0.01213,0.328866 -0.01882,0.493274 -0.0067,0.16417 -0.01379,0.328322 -0.02137,0.492453 -0.0077,0.167207 -0.01046,0.334767 -0.02465,0.501549 -0.09756,1.146483 -0.40596,3.263315 -0.41554,3.426777"
       id="path_2022_01_21_14_22_35_036964"
       inkscape:connector-curvature="0"
       inkscape:label="path_rddf_7989870_-205310_path3278.txt"
       sodipodi:nodetypes="caaaaaaaaaaaaaaaaaaaaaaaaaaaaaaaaaaaaaaaaaaaaaaaaaaaaaaaaaaaaaaaaaaaaaaaaaaaaaaaaaaaaaaaaaaaaaaaaaaaaaaaaaaaaaaaaaaaaaaaaaaaaaaaaaaaaaaaaaaaaaaaaaaaaaaaaaaaaaaaaaaaaaaaaaaac"
       style="fill:none;stroke:#00ff00;stroke-width:0.4px;stroke-linecap:butt;stroke-linejoin:miter;stroke-miterlimit:4;stroke-dasharray:none;stroke-opacity:1" />
  </g>
  <g
     id="layer_2022_01_21_14_22_35_037546"
     inkscape:groupmode="layer"
     inkscape:label="bad_phis"
     style="display:inline">
    <rect
       height="10"
       id="rect_2022_01_21_14_22_35_037546"
       inkscape:label="bad_phi_40.47_87.81"
       style="fill:none;stroke:#0000ff;stroke-width:1;stroke-miterlimit:4;stroke-dasharray:none"
       width="10"
       x="35.466999"
       y="187.192" />
  </g>
  <g
     id="layer_2022_01_21_14_22_35_037647"
     inkscape:groupmode="layer"
     inkscape:label="junctions"
     style="display:inline" />
</svg>
