<?xml version="1.0" encoding="UTF-8" standalone="no"?>
<!-- Created with Inkscape (http://www.inkscape.org/) -->

<svg
   xmlns:dc="http://purl.org/dc/elements/1.1/"
   xmlns:cc="http://creativecommons.org/ns#"
   xmlns:rdf="http://www.w3.org/1999/02/22-rdf-syntax-ns#"
   xmlns:svg="http://www.w3.org/2000/svg"
   xmlns="http://www.w3.org/2000/svg"
   xmlns:xlink="http://www.w3.org/1999/xlink"
   xmlns:sodipodi="http://sodipodi.sourceforge.net/DTD/sodipodi-0.dtd"
   xmlns:inkscape="http://www.inkscape.org/namespaces/inkscape"
   version="1.1"
   id="svg11181"
   width="350"
   height="350"
   viewBox="0 0 350 350"
   sodipodi:docname="i7757120_-363650.svg"
   inkscape:version="0.92.4 (unknown)">
  <metadata
     id="metadata11187">
    <rdf:RDF>
      <cc:Work
         rdf:about="">
        <dc:format>image/svg+xml</dc:format>
        <dc:type
           rdf:resource="http://purl.org/dc/dcmitype/StillImage" />
        <dc:title />
      </cc:Work>
    </rdf:RDF>
  </metadata>
  <defs
     id="defs11185" />
  <sodipodi:namedview
     pagecolor="#ffffff"
     bordercolor="#666666"
     borderopacity="1"
     objecttolerance="10"
     gridtolerance="10"
     guidetolerance="10"
     inkscape:pageopacity="0"
     inkscape:pageshadow="2"
     inkscape:window-width="1855"
     inkscape:window-height="1056"
     id="namedview11183"
     showgrid="false"
     inkscape:zoom="0.46163973"
     inkscape:cx="464.50704"
     inkscape:cy="69.141882"
     inkscape:window-x="65"
     inkscape:window-y="24"
     inkscape:window-maximized="1"
     inkscape:current-layer="svg11181" />
  <image
     width="350"
     height="350"
     preserveAspectRatio="none"
     xlink:href="file:///home/rcarneiro/lcad/carmen_lcad/data/road_mapper_svg/voltadaufes/../../road_mapper_remission_350px/voltadaufes/i7757120_-363650.png"
     id="image11189"
     x="0"
     y="0"
     sodipodi:absref="/home/rcarneiro/lcad/carmen_lcad/data/road_mapper_svg/voltadaufes/../../road_mapper_remission_350px/voltadaufes/i7757120_-363650.png" />
  <image
     width="350"
     height="350"
     preserveAspectRatio="none"
     xlink:href="file:///home/rcarneiro/lcad/carmen_lcad/data/road_mapper_svg/voltadaufes/../../road_mapper_remission_350px/voltadaufes/i7757120_-363720.png"
     id="image10866"
     x="0"
     y="350"
     sodipodi:absref="/home/rcarneiro/lcad/carmen_lcad/data/road_mapper_svg/voltadaufes/../../road_mapper_remission_350px/voltadaufes/i7757120_-363720.png" />
  <image
     width="350"
     height="350"
     preserveAspectRatio="none"
     xlink:href="file:///home/rcarneiro/lcad/carmen_lcad/data/road_mapper_svg/voltadaufes/../../road_mapper_remission_350px/voltadaufes/i7757050_-363720.png"
     id="image10422"
     x="-350"
     y="350"
     sodipodi:absref="/home/rcarneiro/lcad/carmen_lcad/data/road_mapper_svg/voltadaufes/../../road_mapper_remission_350px/voltadaufes/i7757050_-363720.png" />
  <path
     style="opacity:0.53299997;fill:none;stroke:#ff0000;stroke-width:17;stroke-linecap:butt;stroke-linejoin:miter;stroke-miterlimit:4;stroke-dasharray:none;stroke-opacity:1"
     d="M -174.80364,560.53223 C -105.47282,519.4703 -41.047496,481.64353 25.735664,442.61978"
     id="path10766"
     inkscape:connector-curvature="0"
     sodipodi:nodetypes="cc" />
  <path
     style="opacity:0.59200003;fill:none;stroke:#ff0000;stroke-width:17;stroke-linecap:butt;stroke-linejoin:miter;stroke-miterlimit:4;stroke-dasharray:none;stroke-opacity:1"
     d="m 16.898674,428.68454 c -40.46001,23.52545 -71.714124,41.71308 -107.494754,62.70028 -30.88491,18.1156 -92.52224,54.57201 -92.52224,54.57201"
     id="path10768"
     inkscape:connector-curvature="0"
     sodipodi:nodetypes="cac" />
  <path
     style="opacity:0.54799996;fill:none;stroke:#ff0000;stroke-width:17;stroke-linecap:butt;stroke-linejoin:miter;stroke-miterlimit:4;stroke-dasharray:none;stroke-opacity:1"
     d="m 25.735664,442.61978 c 0,0 64.149981,-35.30355 95.913166,-53.50674 17.91995,-10.26976 35.80097,-20.61831 53.40088,-31.42737 9.53293,-5.85469 28.26303,-18.09938 28.26303,-18.09938"
     id="path11115"
     inkscape:connector-curvature="0"
     sodipodi:nodetypes="caac" />
  <path
     style="opacity:0.53299997;fill:none;stroke:#ff0000;stroke-width:17;stroke-linecap:butt;stroke-linejoin:miter;stroke-miterlimit:4;stroke-dasharray:none;stroke-opacity:1"
     d="m 193.93984,325.63181 c 0,0 -16.18693,11.28196 -24.55549,16.49797 -12.5643,7.83115 -25.65339,14.78711 -38.47478,22.18985 -18.34745,10.59335 -36.581121,21.3856 -55.027167,31.80632 -19.553266,11.04621 -58.983729,32.55859 -58.983729,32.55859"
     id="path11117"
     inkscape:connector-curvature="0"
     sodipodi:nodetypes="caaac" />
  <image
     y="0"
     x="350"
     id="image11527"
     xlink:href="file:///home/rcarneiro/lcad/carmen_lcad/data/road_mapper_svg/voltadaufes/../../road_mapper_remission_350px/voltadaufes/i7757190_-363650.png"
     preserveAspectRatio="none"
     height="350"
     width="350"
     sodipodi:absref="/home/rcarneiro/lcad/carmen_lcad/data/road_mapper_svg/voltadaufes/../../road_mapper_remission_350px/voltadaufes/i7757190_-363650.png" />
  <image
     y="-350"
     x="350"
     id="image11592"
     xlink:href="file:///home/rcarneiro/lcad/carmen_lcad/data/road_mapper_svg/voltadaufes/../../road_mapper_remission_350px/voltadaufes/i7757190_-363580.png"
     preserveAspectRatio="none"
     height="350"
     width="350"
     sodipodi:absref="/home/rcarneiro/lcad/carmen_lcad/data/road_mapper_svg/voltadaufes/../../road_mapper_remission_350px/voltadaufes/i7757190_-363580.png" />
  <image
     y="-350"
     x="700"
     id="image11657"
     xlink:href="file:///home/rcarneiro/lcad/carmen_lcad/data/road_mapper_svg/voltadaufes/../../road_mapper_remission_350px/voltadaufes/i7757260_-363580.png"
     preserveAspectRatio="none"
     height="350"
     width="350"
     sodipodi:absref="/home/rcarneiro/lcad/carmen_lcad/data/road_mapper_svg/voltadaufes/../../road_mapper_remission_350px/voltadaufes/i7757260_-363580.png" />
  <path
     style="opacity:0.53299997;fill:none;stroke:#ff0000;stroke-width:17;stroke-linecap:butt;stroke-linejoin:miter;stroke-miterlimit:4;stroke-dasharray:none;stroke-opacity:1"
     d="m 203.31274,339.58629 c 0,0 11.59692,-9.3769 16.55569,-14.90365 8.65724,-9.64886 16.56963,-20.14724 22.74502,-31.54517 5.25402,-9.69736 8.44389,-20.39915 11.91405,-30.86822 3.5966,-10.85054 5.89108,-22.09462 9.20631,-33.03442 3.27802,-10.81703 6.08567,-21.84269 10.56018,-32.2221 4.26891,-9.9025 9.47516,-19.44383 15.43411,-28.43126 6.95597,-10.49115 14.91507,-20.36228 23.55734,-29.51436 9.6543,-10.22382 20.40944,-19.40124 31.40978,-28.16049 10.53928,-8.39212 21.75551,-15.918355 33.03442,-23.28656 17.83159,-11.648899 36.57607,-21.839845 54.69633,-33.034419 21.70785,-13.410963 43.45066,-26.783178 64.71497,-40.886864 16.85943,-11.182123 49.8224,-34.659063 49.8224,-34.659063"
     id="path11660"
     inkscape:connector-curvature="0"
     sodipodi:nodetypes="caaaaaaaaaaac" />
  <path
     style="opacity:0.60700001;fill:none;stroke:#ff0000;stroke-width:17;stroke-linecap:butt;stroke-linejoin:miter;stroke-miterlimit:4;stroke-dasharray:none;stroke-opacity:1"
     d="m 537.16902,-34.657599 c 0,0 -23.28244,17.356293 -35.30713,25.4856004 C 481.7857,4.4005362 460.98493,16.87085 440.40982,29.674439 c -16.57871,10.316684 -33.32113,20.368024 -49.95381,30.597454 -8.33309,5.125016 -16.84221,9.977644 -24.97126,15.420508 -9.95793,6.6674 -19.60993,13.792692 -29.11782,21.087515 -7.2812,5.586414 -14.65606,11.102044 -21.3719,17.356744 -9.39959,8.75417 -18.07343,18.29375 -26.35565,28.1117 -5.20228,6.16692 -10.34547,12.44785 -14.61616,19.29298 -6.30376,10.10377 -11.52237,20.90014 -16.09346,31.8969 -3.91514,9.41875 -6.63897,19.29338 -9.64367,29.04085 -3.48324,11.29989 -5.95381,22.90706 -9.71501,34.11751 -3.37297,10.05333 -6.36797,20.38205 -11.50391,29.65937 -6.14933,11.10785 -14.10983,21.25198 -22.78349,30.52378 -3.10029,3.31408 -10.34384,8.85206 -10.34384,8.85206"
     id="path11662"
     inkscape:connector-curvature="0"
     sodipodi:nodetypes="caaaaaaaaaaaaac" />
</svg>
