<?xml version="1.0" encoding="UTF-8" standalone="no"?>
<!-- Created with Inkscape (http://www.inkscape.org/) -->

<svg
   xmlns:dc="http://purl.org/dc/elements/1.1/"
   xmlns:cc="http://creativecommons.org/ns#"
   xmlns:rdf="http://www.w3.org/1999/02/22-rdf-syntax-ns#"
   xmlns:svg="http://www.w3.org/2000/svg"
   xmlns="http://www.w3.org/2000/svg"
   xmlns:xlink="http://www.w3.org/1999/xlink"
   xmlns:sodipodi="http://sodipodi.sourceforge.net/DTD/sodipodi-0.dtd"
   xmlns:inkscape="http://www.inkscape.org/namespaces/inkscape"
   version="1.1"
   id="svg12352"
   width="350"
   height="350"
   viewBox="0 0 350 350"
   sodipodi:docname="i7757190_-363580.svg"
   inkscape:version="0.92.2 (unknown)">
  <metadata
     id="metadata12358">
    <rdf:RDF>
      <cc:Work
         rdf:about="">
        <dc:format>image/svg+xml</dc:format>
        <dc:type
           rdf:resource="http://purl.org/dc/dcmitype/StillImage" />
        <dc:title></dc:title>
      </cc:Work>
    </rdf:RDF>
  </metadata>
  <defs
     id="defs12356" />
  <sodipodi:namedview
     pagecolor="#ffffff"
     bordercolor="#666666"
     borderopacity="1"
     objecttolerance="10"
     gridtolerance="10"
     guidetolerance="10"
     inkscape:pageopacity="0"
     inkscape:pageshadow="2"
     inkscape:window-width="1855"
     inkscape:window-height="1056"
     id="namedview12354"
     showgrid="false"
     inkscape:zoom="2.6114286"
     inkscape:cx="284.37851"
     inkscape:cy="78.295783"
     inkscape:window-x="65"
     inkscape:window-y="24"
     inkscape:window-maximized="1"
     inkscape:current-layer="svg12352"
     inkscape:measure-start="412.801,237.801"
     inkscape:measure-end="436.16,212.91" />
  <image
     width="350"
     height="350"
     preserveAspectRatio="none"
     xlink:href="carmen_lcad/data/road_mapper_remission_350px/voltadaufes/i7757190_-363580.png"
     id="image12360"
     x="0"
     y="0"
     sodipodi:absref="carmen_lcad/data/road_mapper_remission_350px/voltadaufes/i7757190_-363580.png" />
  <image
     width="350"
     height="350"
     preserveAspectRatio="none"
     xlink:href="carmen_lcad/data/road_mapper_remission_350px/voltadaufes/i7757190_-363650.png"
     id="image12077"
     x="0"
     y="350"
     sodipodi:absref="carmen_lcad/data/road_mapper_remission_350px/voltadaufes/i7757190_-363650.png" />
  <image
     width="350"
     height="350"
     preserveAspectRatio="none"
     xlink:href="carmen_lcad/data/road_mapper_remission_350px/voltadaufes/i7757120_-363650.png"
     id="image11189"
     x="-350"
     y="350"
     sodipodi:absref="carmen_lcad/data/road_mapper_remission_350px/voltadaufes/i7757120_-363650.png" />
  <path
     style="display:none;opacity:0.28999999;fill:none;stroke:#00ff00;stroke-width:25;stroke-linecap:butt;stroke-linejoin:miter;stroke-miterlimit:4;stroke-dasharray:none;stroke-opacity:1"
     d="m 1353.0096,18112.221 -35.7089,-9.988"
     id="path2589"
     inkscape:connector-curvature="0" />
  <path
     style="opacity:0.54799996;fill:none;stroke:#ff0000;stroke-width:17;stroke-linecap:butt;stroke-linejoin:miter;stroke-miterlimit:4;stroke-dasharray:none;stroke-opacity:1"
     d="m -324.26435,792.61979 c 0,0 64.15,-35.3036 95.9132,-53.5068 17.91991,-10.2697 35.80093,-20.6183 53.40084,-31.4273 9.53293,-5.8547 28.26303,-18.0994 28.26303,-18.0994"
     id="path11115"
     inkscape:connector-curvature="0"
     sodipodi:nodetypes="caac" />
  <path
     style="opacity:0.53299997;fill:none;stroke:#ff0000;stroke-width:17;stroke-linecap:butt;stroke-linejoin:miter;stroke-miterlimit:4;stroke-dasharray:none;stroke-opacity:1"
     d="m -156.06018,675.63179 c 0,0 -16.18693,11.282 -24.55549,16.498 -12.5643,7.8311 -25.65339,14.7871 -38.47478,22.1898 -18.3475,10.5934 -36.5811,21.3856 -55.0272,31.8063 -19.5532,11.0463 -58.9837,32.5586 -58.9837,32.5586"
     id="path11117"
     inkscape:connector-curvature="0"
     sodipodi:nodetypes="caaac" />
  <image
     sodipodi:absref="carmen_lcad/data/road_mapper_remission_350px/voltadaufes/i7757260_-363580.png"
     y="0"
     x="350"
     id="image11657"
     xlink:href="carmen_lcad/data/road_mapper_remission_350px/voltadaufes/i7757260_-363580.png"
     preserveAspectRatio="none"
     height="350"
     width="350" />
  <path
     style="opacity:0.53299997;fill:none;stroke:#ff0000;stroke-width:17;stroke-linecap:butt;stroke-linejoin:miter;stroke-miterlimit:4;stroke-dasharray:none;stroke-opacity:1"
     d="m -146.68728,689.58629 c 0,0 11.59692,-9.3769 16.55569,-14.9037 8.65724,-9.6488 16.56963,-20.1472 22.74502,-31.5451 5.25402,-9.6974 8.443885,-20.3992 11.914045,-30.8682 3.5966,-10.8506 5.89108,-22.0947 9.20631,-33.0345 3.27802,-10.817 6.08567,-21.84266 10.56018,-32.22206 4.26891,-9.9025 9.47516,-19.4438 15.43411,-28.4312 6.95597,-10.4912 14.91507,-20.3623 23.55734,-29.5144 9.6543,-10.2238 20.40944,-19.4012 31.4097801,-28.1605 10.53928,-8.3921 21.7555099,-15.9183 33.0344199,-23.2865 17.83159,-11.6489 36.57607,-21.8399 54.69633,-33.0345 21.707855,-13.4109 43.450665,-26.7831 64.714975,-40.8868 16.85943,-11.1821 49.8224,-34.6591 49.8224,-34.6591"
     id="path11660"
     inkscape:connector-curvature="0"
     sodipodi:nodetypes="caaaaaaaaaaac" />
  <path
     style="opacity:0.60700001;fill:none;stroke:#ff0000;stroke-width:17;stroke-linecap:butt;stroke-linejoin:miter;stroke-miterlimit:4;stroke-dasharray:none;stroke-opacity:1"
     d="m 187.169,315.34243 c 0,0 -23.28244,17.3563 -35.30713,25.4856 -20.07619,13.5725 -40.87696,26.0429 -61.452075,38.8464 -16.57871,10.3167 -33.32113,20.3681 -49.95381,30.5975 -8.33309,5.125 -16.84221,9.9776 -24.97126,15.4205 -9.9579299,6.6674 -19.6099299,13.7927 -29.11782,21.0875 -7.2812,5.5864 -14.65606,11.1021 -21.3719,17.3568 -9.39959,8.7541 -18.07343,18.2937 -26.35565,28.1117 -5.20228,6.1669 -10.34547,12.4478 -14.61616,19.2929 -6.30376,10.1038 -11.52237,20.9002 -16.09346,31.8969 -3.91514,9.4188 -6.63897,19.29336 -9.643665,29.04086 -3.48324,11.2999 -5.95381,22.9071 -9.71501,34.1175 -3.37297,10.0533 -6.36797,20.3821 -11.50391,29.6594 -6.14933,11.1078 -14.10983,21.252 -22.78349,30.5237 -3.10029,3.3141 -10.34384,8.8521 -10.34384,8.8521"
     id="path11662"
     inkscape:connector-curvature="0"
     sodipodi:nodetypes="caaaaaaaaaaaaac" />
  <image
     sodipodi:absref="carmen_lcad/data/road_mapper_remission_350px/voltadaufes/i7757260_-363510.png"
     y="-350"
     x="350"
     id="image12638"
     xlink:href="carmen_lcad/data/road_mapper_remission_350px/voltadaufes/i7757260_-363510.png"
     preserveAspectRatio="none"
     height="350"
     width="350" />
  <image
     sodipodi:absref="carmen_lcad/data/road_mapper_remission_350px/voltadaufes/i7757330_-363510.png"
     y="-350"
     x="700"
     id="image12703"
     xlink:href="carmen_lcad/data/road_mapper_remission_350px/voltadaufes/i7757330_-363510.png"
     preserveAspectRatio="none"
     height="350"
     width="350" />
  <image
     sodipodi:absref="carmen_lcad/data/road_mapper_remission_350px/voltadaufes/i7757330_-363580.png"
     y="0"
     x="700"
     id="image12768"
     xlink:href="carmen_lcad/data/road_mapper_remission_350px/voltadaufes/i7757330_-363580.png"
     preserveAspectRatio="none"
     height="350"
     width="350" />
  <path
     style="opacity:0.56199999;fill:none;stroke:#ff0000;stroke-width:17;stroke-linecap:butt;stroke-linejoin:miter;stroke-miterlimit:4;stroke-dasharray:none;stroke-opacity:1"
     d="m 196.96332,329.03973 c 0,0 19.72159,-14.45381 29.54105,-21.73666 9.8884,-7.33399 19.85773,-14.56346 29.58151,-22.11434 9.19511,-7.14034 18.20542,-14.51717 27.18819,-21.92287 6.76231,-5.57507 13.41092,-11.28667 20.10394,-16.94474 11.34249,-9.58859 22.879,-18.95438 33.98523,-28.81566 9.25265,-8.21546 18.20504,-16.76419 27.18818,-25.27351 8.33958,-7.89971 16.47976,-16.00779 24.79486,-23.93326 8.08884,-7.70981 24.41192,-22.97593 24.41192,-22.97593"
     id="path12771"
     inkscape:connector-curvature="0"
     sodipodi:nodetypes="caaaaaaac" />
  <path
     style="opacity:0.52600002;fill:none;stroke:#ff0000;stroke-width:17;stroke-linecap:butt;stroke-linejoin:miter;stroke-miterlimit:4;stroke-dasharray:none;stroke-opacity:1"
     d="m 402.07877,133.26039 c 0,0 -18.68104,17.56749 -27.95404,26.42232 -10.27717,9.81372 -20.29832,19.89595 -30.68103,29.59794 -5.64079,5.27096 -11.38743,10.4287 -17.17188,15.5416 -6.43676,5.68948 -12.95402,11.28809 -19.50954,16.84033 -8.06389,6.82976 -16.29032,13.46558 -24.38266,20.26161 -9.33056,7.8359 -18.32741,16.07549 -27.86911,23.65287 -8.29542,6.58767 -17.02061,12.61528 -25.51707,18.94154 -8.55571,6.37038 -17.04022,12.83675 -25.63921,19.1486 -5.36265,3.9363 -16.18523,11.67523 -16.18523,11.67523"
     id="path12773"
     inkscape:connector-curvature="0"
     sodipodi:nodetypes="caaaaaaaac" />
</svg>
