<?xml version="1.0" encoding="UTF-8" standalone="no"?>
<!-- Created with Inkscape (http://www.inkscape.org/) -->

<svg
   xmlns:dc="http://purl.org/dc/elements/1.1/"
   xmlns:cc="http://creativecommons.org/ns#"
   xmlns:rdf="http://www.w3.org/1999/02/22-rdf-syntax-ns#"
   xmlns:svg="http://www.w3.org/2000/svg"
   xmlns="http://www.w3.org/2000/svg"
   xmlns:xlink="http://www.w3.org/1999/xlink"
   xmlns:sodipodi="http://sodipodi.sourceforge.net/DTD/sodipodi-0.dtd"
   xmlns:inkscape="http://www.inkscape.org/namespaces/inkscape"
   version="1.1"
   id="svg5257"
   width="350"
   height="350"
   viewBox="0 0 350 350"
   sodipodi:docname="i7756980_-364070.svg"
   inkscape:version="0.92.2 (unknown)">
  <metadata
     id="metadata5263">
    <rdf:RDF>
      <cc:Work
         rdf:about="">
        <dc:format>image/svg+xml</dc:format>
        <dc:type
           rdf:resource="http://purl.org/dc/dcmitype/StillImage" />
        <dc:title></dc:title>
      </cc:Work>
    </rdf:RDF>
  </metadata>
  <defs
     id="defs5261" />
  <sodipodi:namedview
     pagecolor="#ffffff"
     bordercolor="#666666"
     borderopacity="1"
     objecttolerance="10"
     gridtolerance="10"
     guidetolerance="10"
     inkscape:pageopacity="0"
     inkscape:pageshadow="2"
     inkscape:window-width="1855"
     inkscape:window-height="1056"
     id="namedview5259"
     showgrid="false"
     inkscape:zoom="3.6931177"
     inkscape:cx="380.50124"
     inkscape:cy="3.8669901"
     inkscape:window-x="65"
     inkscape:window-y="24"
     inkscape:window-maximized="1"
     inkscape:current-layer="svg5257" />
  <image
     width="350"
     height="350"
     preserveAspectRatio="none"
     xlink:href="carmen_lcad/data/road_mapper_remission_350px/voltadaufes/i7756980_-364070.png"
     id="image5265"
     x="0"
     y="0"
     sodipodi:absref="carmen_lcad/data/road_mapper_remission_350px/voltadaufes/i7756980_-364070.png" />
  <path
     style="display:none;opacity:0.28999999;fill:none;stroke:#00ff00;stroke-width:25;stroke-linecap:butt;stroke-linejoin:miter;stroke-miterlimit:4;stroke-dasharray:none;stroke-opacity:1"
     d="m -468.98513,1769.2459 -35.70889,-9.9878"
     id="path2589"
     inkscape:connector-curvature="0" />
  <image
     sodipodi:absref="carmen_lcad/data/road_mapper_remission_350px/voltadaufes/i7757050_-364070.png"
     y="0"
     x="350"
     id="image2302"
     xlink:href="carmen_lcad/data/road_mapper_remission_350px/voltadaufes/i7757050_-364070.png"
     preserveAspectRatio="none"
     height="350"
     width="350" />
  <image
     sodipodi:absref="carmen_lcad/data/road_mapper_remission_350px/voltadaufes/i7757120_-364070.png"
     y="0"
     x="700"
     id="image2704"
     xlink:href="carmen_lcad/data/road_mapper_remission_350px/voltadaufes/i7757120_-364070.png"
     preserveAspectRatio="none"
     height="350"
     width="350" />
  <image
     width="350"
     height="350"
     preserveAspectRatio="none"
     xlink:href="carmen_lcad/data/road_mapper_remission_350px/voltadaufes/i7756980_-364140.png"
     id="image4658"
     x="1.9042969e-05"
     y="349.99994"
     sodipodi:absref="carmen_lcad/data/road_mapper_remission_350px/voltadaufes/i7756980_-364140.png" />
  <image
     width="350"
     height="350"
     preserveAspectRatio="none"
     xlink:href="carmen_lcad/data/road_mapper_remission_350px/voltadaufes/i7757050_-364140.png"
     id="image2031"
     x="350"
     y="350"
     sodipodi:absref="carmen_lcad/data/road_mapper_remission_350px/voltadaufes/i7757050_-364140.png" />
  <path
     style="opacity:0.73500001;fill:none;stroke:#0000ff;stroke-width:18;stroke-linecap:butt;stroke-linejoin:miter;stroke-miterlimit:4;stroke-dasharray:none;stroke-opacity:1"
     d="m 718.99183,516.09925 c 0,0 -111.41135,-14.0841 -167.09303,-21.3126 -71.15845,-9.2377 -213.41296,-28.18938 -213.41296,-28.18938"
     id="path1162"
     inkscape:connector-curvature="0"
     sodipodi:nodetypes="cac" />
  <path
     style="opacity:0.54000005;fill:none;stroke:#00ff7f;stroke-width:16;stroke-linecap:butt;stroke-linejoin:miter;stroke-miterlimit:4;stroke-dasharray:none;stroke-opacity:1"
     d="M 721.08713,499.38345 601.007,484.10935"
     id="path1166"
     inkscape:connector-curvature="0"
     sodipodi:nodetypes="cc" />
  <path
     style="fill:none;stroke:#ff007f;stroke-width:16;stroke-linecap:butt;stroke-linejoin:miter;stroke-miterlimit:4;stroke-dasharray:none;stroke-opacity:1"
     d="m 601.007,484.10935 c 0,0 -79.9053,-10.3614 -119.84761,-15.62104 -33.11521,-4.36062 -99.32831,-13.21269 -99.32831,-13.21269"
     id="path1168"
     inkscape:connector-curvature="0"
     sodipodi:nodetypes="cac" />
  <path
     style="opacity:0.544;fill:none;stroke:#00ff7f;stroke-width:16;stroke-linecap:butt;stroke-linejoin:miter;stroke-miterlimit:4;stroke-dasharray:none;stroke-opacity:1"
     d="M 381.83108,455.27562 292.57859,443.18475"
     id="path1170"
     inkscape:connector-curvature="0"
     sodipodi:nodetypes="cc" />
  <path
     style="opacity:0.62099998;fill:none;stroke:#00ff00;stroke-width:16;stroke-linecap:butt;stroke-linejoin:miter;stroke-miterlimit:4;stroke-dasharray:none;stroke-opacity:1"
     d="M 854.47254,551.69275 697.34465,530.26135"
     id="path1174"
     inkscape:connector-curvature="0"
     sodipodi:nodetypes="cc" />
  <path
     style="opacity:0.48500001;fill:none;stroke:#7f00ff;stroke-width:16;stroke-linecap:butt;stroke-linejoin:miter;stroke-miterlimit:4;stroke-dasharray:none;stroke-opacity:1"
     d="m 697.34465,530.26135 c 0,0 -73.2032,-9.0901 -109.78878,-13.7618 -18.16236,-2.3192 -36.31625,-4.7043 -54.47088,-7.0832 -19.05454,-2.4969 -38.10566,-5.0198 -57.15621,-7.5468 -32.44562,-4.304 -64.87873,-8.7021 -97.32904,-12.9704 -14.15875,-1.8624 -42.4857,-5.515 -42.4857,-5.515"
     id="path1176"
     inkscape:connector-curvature="0"
     sodipodi:nodetypes="caaaac" />
  <path
     style="opacity:0.41499999;fill:none;stroke:#ff0000;stroke-width:15;stroke-linecap:butt;stroke-linejoin:miter;stroke-miterlimit:4;stroke-dasharray:none;stroke-opacity:1"
     d="m 470.2731,423.58634 c 0,0 -17.03892,-2.13629 -25.58931,-2.89891 -5.77009,-0.51464 -11.55176,-0.95701 -17.34215,-1.13068 -5.01477,-0.1504 -10.04138,-0.19729 -15.05088,0.0773 -4.41508,0.24206 -8.81204,0.78273 -13.1929,1.38237 -3.8744,0.53032 -7.73957,1.15618 -11.56706,1.95775 -3.61461,0.75699 -10.74764,2.68965 -10.74764,2.68965"
     id="path1178"
     inkscape:connector-curvature="0"
     sodipodi:nodetypes="caaaaac" />
  <path
     sodipodi:nodetypes="caaaac"
     inkscape:connector-curvature="0"
     id="path1180"
     d="m 468.43478,437.98654 c 0,0 -10.50905,-1.44536 -15.78492,-1.97975 -8.38418,-0.84921 -16.78087,-1.77073 -25.20609,-1.94771 -6.55149,-0.13762 -13.12368,0.0645 -19.64669,0.69013 -4.91171,0.47106 -9.787,1.3204 -14.62271,2.30153 -4.14243,0.84046 -12.30416,3.06632 -12.30416,3.06632"
     style="opacity:0.41499999;fill:none;stroke:#ff0000;stroke-width:15;stroke-linecap:butt;stroke-linejoin:miter;stroke-miterlimit:4;stroke-dasharray:none;stroke-opacity:1" />
  <path
     style="opacity:0.46700003;fill:none;stroke:#ff007f;stroke-width:15;stroke-linecap:butt;stroke-linejoin:miter;stroke-miterlimit:4;stroke-dasharray:none;stroke-opacity:1"
     d="m 562.12573,437.47861 c 0,0 -15.05639,-2.70174 -22.67266,-4.0356 -7.03771,-1.23253 -12.79233,-1.82083 -19.18576,-2.75023 -8.48088,-1.23284 -16.95043,-2.54361 -25.43527,-3.74886 -8.18035,-1.162 -24.55894,-3.35758 -24.55894,-3.35758"
     id="path1182"
     inkscape:connector-curvature="0"
     sodipodi:nodetypes="csaac" />
  <path
     style="opacity:0.43000004;fill:none;stroke:#7f00ff;stroke-width:15;stroke-linecap:butt;stroke-linejoin:miter;stroke-miterlimit:4;stroke-dasharray:none;stroke-opacity:1"
     d="m 603.74446,463.08594 c 0,0 -4.25411,-1.17894 -6.38115,-1.76847 -2.84654,-0.78894 -5.6763,-1.64114 -8.53958,-2.36697 -5.26255,-1.33403 -10.58316,-2.42755 -15.87231,-3.65186 -4.97182,-1.15086 -9.91422,-2.43453 -14.91085,-3.47239 -6.3024,-1.30908 -12.64269,-2.4383 -18.99601,-3.47239 -4.27669,-0.69609 -8.57933,-1.2222 -12.86827,-1.83833 -3.32349,-0.47743 -6.64461,-0.97145 -9.96936,-1.44007 -4.5761,-0.64499 -9.16014,-1.23311 -13.73485,-1.88788 -4.90276,-0.70173 -9.80008,-1.4412 -14.69633,-2.18702 -6.4504,-0.98254 -19.34097,-3.01402 -19.34097,-3.01402"
     id="path1184"
     inkscape:connector-curvature="0"
     sodipodi:nodetypes="caaaaaaaaac" />
  <path
     style="opacity:0.51499999;fill:none;stroke:#00ff7f;stroke-width:15;stroke-linecap:butt;stroke-linejoin:miter;stroke-miterlimit:4;stroke-dasharray:none;stroke-opacity:1"
     d="m 608.27783,449.07598 c 0,0 -7.79253,-2.26372 -11.71405,-3.30326 -5.6778,-1.5051 -11.39173,-2.8713 -17.1023,-4.24685 -5.76897,-1.38963 -17.33575,-4.04726 -17.33575,-4.04726"
     id="path1186"
     inkscape:connector-curvature="0"
     sodipodi:nodetypes="caac" />
  <path
     style="opacity:0.49300005;fill:none;stroke:#ff007f;stroke-width:15;stroke-linecap:butt;stroke-linejoin:miter;stroke-miterlimit:4;stroke-dasharray:none;stroke-opacity:1"
     d="m 656.28876,462.24342 c 0,0 -17.46087,-4.62185 -26.16889,-7.01533 -7.29349,-2.00468 -21.84204,-6.15211 -21.84204,-6.15211"
     id="path1188"
     inkscape:connector-curvature="0"
     sodipodi:nodetypes="cac" />
  <path
     style="opacity:0.67299996;fill:none;stroke:#ff7f00;stroke-width:15;stroke-linecap:butt;stroke-linejoin:miter;stroke-miterlimit:4;stroke-dasharray:none;stroke-opacity:1"
     d="m 865.17304,519.14085 c 0,0 -10.24824,-1.3936 -15.31013,-2.4323 -22.96939,-4.7136 -45.53998,-11.2066 -68.20493,-17.2158 -16.31018,-4.3243 -32.56104,-8.8742 -48.7724,-13.5554 -10.2665,-2.9645 -20.4975,-6.0525 -30.70882,-9.2019 -9.27814,-2.8615 -18.50494,-5.887 -27.7646,-8.80785 -6.03802,-1.90461 -18.1234,-5.68418 -18.1234,-5.68418"
     id="path1190"
     inkscape:connector-curvature="0"
     sodipodi:nodetypes="caaaaac" />
  <path
     style="opacity:0.44900004;fill:none;stroke:#007fff;stroke-width:15;stroke-linecap:butt;stroke-linejoin:miter;stroke-miterlimit:4;stroke-dasharray:none;stroke-opacity:1"
     d="m 651.9893,476.56965 c 0,0 -16.12334,-4.5207 -24.18689,-6.77432 -8.01807,-2.24092 -24.05795,-6.70939 -24.05795,-6.70939"
     id="path1192"
     inkscape:connector-curvature="0"
     sodipodi:nodetypes="cac" />
  <path
     style="fill:none;stroke:#00ff00;stroke-width:16;stroke-linecap:butt;stroke-linejoin:miter;stroke-miterlimit:4;stroke-dasharray:none;stroke-opacity:1"
     d="m 766.48605,379.33211 c 0,0 -8.68103,-0.72173 -12.97039,-1.44733 -5.43938,-0.92013 -10.89475,-1.95661 -16.1364,-3.67664 -6.48988,-2.12964 -12.45111,-5.63065 -18.79175,-8.17033 -5.31896,-2.13046 -10.61207,-4.40301 -16.1364,-5.92349 -3.20587,-0.88236 -9.80439,-1.83832 -9.80439,-1.83832"
     id="path1206"
     inkscape:connector-curvature="0"
     sodipodi:nodetypes="caaaac" />
  <path
     style="fill:none;stroke:#ff7f00;stroke-width:16;stroke-linecap:butt;stroke-linejoin:miter;stroke-miterlimit:4;stroke-dasharray:none;stroke-opacity:1"
     d="m 767.16105,363.42 c 0,0 -8.61477,-0.42428 -12.89137,-0.94983 -8.5511,-1.05086 -16.9442,-3.15392 -25.46927,-4.39843 -8.21607,-1.19941 -16.46478,-2.20037 -24.73358,-2.95499 -3.79851,-0.34665 -11.42011,-0.72166 -11.42011,-0.72166"
     id="path1208"
     inkscape:connector-curvature="0"
     sodipodi:nodetypes="caaac" />
  <path
     style="fill:none;stroke:#00ff00;stroke-width:16;stroke-linecap:butt;stroke-linejoin:miter;stroke-miterlimit:4;stroke-dasharray:none;stroke-opacity:1"
     d="m 658.98122,390.33699 c 0,0 19.63162,4.57463 29.4642,6.78832 9.18531,2.06796 18.41755,3.92717 27.58658,6.06616 11.15534,2.60236 33.36387,8.23264 33.36387,8.23264"
     id="path1214"
     inkscape:connector-curvature="0"
     sodipodi:nodetypes="caac" />
  <path
     style="fill:none;stroke:#ff7f00;stroke-width:16;stroke-linecap:butt;stroke-linejoin:miter;stroke-miterlimit:4;stroke-dasharray:none;stroke-opacity:1"
     d="m 664.18079,402.61374 c 0,0 16.96261,4.95383 25.42009,7.51048 12.638,3.82039 25.16139,8.02004 37.84128,11.69902 6.18024,1.79316 18.63177,5.05513 18.63177,5.05513"
     id="path1216"
     inkscape:connector-curvature="0"
     sodipodi:nodetypes="caac" />
  <path
     sodipodi:nodetypes="caaac"
     inkscape:connector-curvature="0"
     id="path1228"
     d="m 721.80929,360.72836 c 0,0 -6.99409,5.9276 -9.53253,9.67696 -2.35689,3.4812 -3.78821,7.54603 -5.05513,11.55459 -1.16947,3.7002 -1.74225,7.57144 -2.31092,11.41016 -0.52441,3.53993 -1.01103,10.68799 -1.01103,10.68799"
     style="opacity:0.49300005;fill:none;stroke:#00ff00;stroke-width:18;stroke-linecap:butt;stroke-linejoin:miter;stroke-miterlimit:4;stroke-dasharray:none;stroke-opacity:1" />
  <path
     style="opacity:0.42600002;fill:none;stroke:#0000ff;stroke-width:18;stroke-linecap:butt;stroke-linejoin:miter;stroke-miterlimit:4;stroke-dasharray:none;stroke-opacity:1"
     d="M 338.48584,466.59727 -14.55141,418.16188"
     id="path2482"
     inkscape:connector-curvature="0" />
  <path
     style="opacity:0.65399996;fill:none;stroke:#7f00ff;stroke-width:16;stroke-linecap:butt;stroke-linejoin:miter;stroke-miterlimit:4;stroke-dasharray:none;stroke-opacity:1"
     d="M 336.11404,483.38415 -16.96636,434.84458"
     id="path2556"
     inkscape:connector-curvature="0"
     sodipodi:nodetypes="cc" />
  <path
     style="opacity:0.53299997;fill:none;stroke:#ff007f;stroke-width:16;stroke-linecap:butt;stroke-linejoin:miter;stroke-miterlimit:4;stroke-dasharray:none;stroke-opacity:1"
     d="M 292.57859,443.18475 46.7656,409.45017"
     id="path2558"
     inkscape:connector-curvature="0"
     sodipodi:nodetypes="cc" />
  <path
     style="opacity:0.38600003;fill:none;stroke:#0000ff;stroke-width:16;stroke-linecap:butt;stroke-linejoin:miter;stroke-miterlimit:4;stroke-dasharray:none;stroke-opacity:1"
     d="m 46.7656,409.45017 -58.98557,-8.10346"
     id="path2560"
     inkscape:connector-curvature="0"
     sodipodi:nodetypes="cc" />
  <path
     style="opacity:0.40100002;fill:none;stroke:#ff7f00;stroke-width:15;stroke-linecap:butt;stroke-linejoin:miter;stroke-miterlimit:4;stroke-dasharray:none;stroke-opacity:1"
     d="m 376.78316,425.66387 c 0,0 -15.84073,3.85707 -23.84885,5.35994 -11.19986,2.10186 -22.56006,3.24644 -33.80253,5.10694 -8.63832,1.42955 -17.11279,4.11551 -25.85211,4.65244 -7.62638,0.46855 -15.27981,-0.55443 -22.8872,-1.26776 -9.92598,-0.93074 -29.64974,-3.92622 -29.64974,-3.92622"
     id="path2562"
     inkscape:connector-curvature="0"
     sodipodi:nodetypes="caaaac" />
  <path
     style="opacity:0.42600002;fill:none;stroke:#00ff00;stroke-width:15;stroke-linecap:butt;stroke-linejoin:miter;stroke-miterlimit:4;stroke-dasharray:none;stroke-opacity:1"
     d="m 380.87021,440.11706 c 0,0 -12.14303,2.91875 -18.26538,4.13939 -7.85712,1.56651 -15.75573,2.94273 -23.68585,4.08359 -5.04775,0.7262 -10.10013,1.62003 -15.19804,1.75615 -6.833,0.18245 -20.46734,-1.26342 -20.46734,-1.26342"
     id="path2564"
     inkscape:connector-curvature="0"
     sodipodi:nodetypes="caaac" />
  <path
     style="opacity:0.23500001;fill:none;stroke:#00ff00;stroke-width:15;stroke-linecap:butt;stroke-linejoin:miter;stroke-miterlimit:4;stroke-dasharray:none;stroke-opacity:1"
     d="m 739.26229,503.07075 c 0,0 -35.0779,-10.4909 -52.59106,-15.8215 -11.57213,-3.5224 -34.68193,-10.6796 -34.68193,-10.6796"
     id="path2587"
     inkscape:connector-curvature="0"
     sodipodi:nodetypes="cac" />
  <image
     width="350"
     height="350"
     preserveAspectRatio="none"
     xlink:href="carmen_lcad/data/road_mapper_remission_350px/voltadaufes/i7757120_-364140.png"
     id="image905-5"
     x="700"
     y="350"
     sodipodi:absref="carmen_lcad/data/road_mapper_remission_350px/voltadaufes/i7757120_-364140.png" />
  <path
     style="opacity:0.53299997;fill:none;stroke:#0000ff;stroke-width:18;stroke-linecap:butt;stroke-linejoin:miter;stroke-miterlimit:4;stroke-dasharray:none;stroke-opacity:1"
     d="m 1420.3333,609.66655 c -59.1666,-8.34 -119.0477,-15.5195 -178.5634,-23.342 -47.3264,-6.2203 -94.6351,-12.5742 -141.9659,-18.761 -28.5313,-3.7294 -58.358,-7.7405 -85.6096,-11.0672"
     id="path4600-3"
     inkscape:connector-curvature="0"
     sodipodi:nodetypes="caac" />
  <path
     style="opacity:0.53299997;fill:none;stroke:#ff007f;stroke-width:16;stroke-linecap:butt;stroke-linejoin:miter;stroke-miterlimit:4;stroke-dasharray:none;stroke-opacity:1"
     d="m 1422.9409,592.99225 c -57.0464,-8.2371 -115.6647,-15.1711 -173.5026,-22.7145 -77.6954,-10.1333 -159.8569,-21.1087 -233.1009,-30.2866"
     id="path4602-5"
     inkscape:connector-curvature="0"
     sodipodi:nodetypes="cac" />
  <path
     style="opacity:0.53299997;fill:none;stroke:#7f00ff;stroke-width:16;stroke-linecap:butt;stroke-linejoin:miter;stroke-miterlimit:4;stroke-dasharray:none;stroke-opacity:1"
     d="m 1418.6878,626.05755 c 0,0 -123.9356,-16.1091 -185.9034,-24.1636 -68.3019,-8.8778 -220.7113,-28.6597 -220.7113,-28.6597"
     id="path4604-6"
     inkscape:connector-curvature="0"
     sodipodi:nodetypes="csc" />
  <path
     style="opacity:1;fill:none;stroke:#7fff00;stroke-width:16;stroke-linecap:butt;stroke-linejoin:miter;stroke-miterlimit:4;stroke-dasharray:none;stroke-opacity:1"
     d="m 1260.3315,444.63805 c 0,0 -16.1722,-2.30224 -24.255,-3.47649 -14.2224,-2.06619 -28.5077,-3.75155 -42.6553,-6.27995 -8.1503,-1.45659 -16.1971,-3.44275 -24.3054,-5.11759 -9.8948,-2.04388 -19.8175,-3.95189 -29.7078,-6.01798 -14.2194,-2.97046 -28.4592,-5.86012 -42.6034,-9.17025 -16.182,-3.787 -32.1985,-8.25069 -48.3349,-12.22701 -11.7954,-2.9066 -23.5587,-5.96523 -35.4392,-8.50159 -15.04867,-3.21272 -45.37369,-8.50159 -45.37369,-8.50159"
     id="path1144-2"
     inkscape:connector-curvature="0"
     sodipodi:nodetypes="caaaaaaac" />
  <path
     style="opacity:1;fill:none;stroke:#ff7f00;stroke-width:16;stroke-linecap:butt;stroke-linejoin:miter;stroke-miterlimit:4;stroke-dasharray:none;stroke-opacity:1"
     d="m 1155.3229,413.74296 c 0,0 -21.3699,-4.98336 -32.0165,-7.63262 -12.0983,-3.01051 -24.1683,-6.1377 -36.2043,-9.38879 -12.2145,-3.29934 -24.3156,-7.01169 -36.542,-10.26689 -5.4004,-1.43784 -10.8286,-2.77061 -16.2589,-4.09128 -5.0178,-1.22034 -10.0288,-2.47753 -15.0821,-3.54134 -16.2262,-3.41589 -48.90279,-9.11861 -48.90279,-9.11861"
     id="path1146-9"
     inkscape:connector-curvature="0"
     sodipodi:nodetypes="caaaaac" />
  <path
     style="opacity:1;fill:none;stroke:#7fff00;stroke-width:16;stroke-linecap:butt;stroke-linejoin:miter;stroke-miterlimit:4;stroke-dasharray:none;stroke-opacity:1"
     d="m 965.17319,440.74922 c 0,0 34.13283,0.68901 51.20061,0.95524 14.6554,0.2286 29.3144,0.23499 43.9682,0.55137 9.6878,0.20916 19.3721,0.5587 29.0565,0.89039 7.5046,0.25703 15.0151,0.4071 22.5109,0.85221 13.8481,0.8223 27.6574,2.20434 41.4818,3.3583 10.8046,0.90188 21.6325,1.57617 32.4068,2.78657 11.1783,1.25578 20.4562,2.98341 33.4253,4.64109 12.8877,1.64729 38.6011,5.40526 38.6011,5.40526"
     id="path1148-1"
     inkscape:connector-curvature="0"
     sodipodi:nodetypes="caaaaaasc" />
  <path
     style="opacity:1;fill:none;stroke:#ff7f00;stroke-width:16;stroke-linecap:butt;stroke-linejoin:miter;stroke-miterlimit:4;stroke-dasharray:none;stroke-opacity:1"
     d="m 964.7911,456.60612 c 0,0 24.38803,0.69853 36.5855,0.85971 10.8569,0.14347 21.7168,-0.0674 32.5735,0.0955 15.2876,0.2294 30.5686,0.78987 45.8513,1.2418 10.4287,0.3084 20.8532,0.7698 31.2839,1.003 12.5751,0.28115 25.1577,0.15302 37.7318,0.47762 10.6235,0.27425 21.2382,0.82457 31.8571,1.24181 9.648,0.37909 19.319,0.37544 28.9436,1.14628 9.1275,0.73103 18.1787,2.219 27.2719,3.29556 6.5893,0.7801 19.7734,2.29257 19.7734,2.29257"
     id="path1150-2"
     inkscape:connector-curvature="0"
     sodipodi:nodetypes="caaaaaaaac" />
  <path
     style="opacity:1;fill:none;stroke:#007fff;stroke-width:16;stroke-linecap:butt;stroke-linejoin:miter;stroke-miterlimit:4;stroke-dasharray:none;stroke-opacity:1"
     d="m 1260.9637,439.7479 c 0,0 -38.1006,-8.75339 -57.0757,-13.44151 -16.2332,-4.01067 -48.5651,-12.56343 -48.5651,-12.56343"
     id="path1152-7"
     inkscape:connector-curvature="0"
     sodipodi:nodetypes="cac" />
  <path
     style="opacity:0.42300002;fill:none;stroke:#ff0000;stroke-width:18;stroke-linecap:butt;stroke-linejoin:miter;stroke-miterlimit:4;stroke-dasharray:none;stroke-opacity:1"
     d="m 1014.1944,556.49635 -77.38056,-9.5541"
     id="path1154-0"
     inkscape:connector-curvature="0" />
  <path
     style="fill:none;stroke:#ff0000;stroke-width:16;stroke-linecap:butt;stroke-linejoin:miter;stroke-miterlimit:4;stroke-dasharray:none;stroke-opacity:1"
     d="m 1016.3374,539.99115 -77.4972,-9.665"
     id="path1156-9"
     inkscape:connector-curvature="0"
     sodipodi:nodetypes="cc" />
  <path
     style="fill:none;stroke:#ff0000;stroke-width:16;stroke-linecap:butt;stroke-linejoin:miter;stroke-miterlimit:4;stroke-dasharray:none;stroke-opacity:1"
     d="m 1012.0731,573.23425 -77.42071,-10.4863"
     id="path1158-3"
     inkscape:connector-curvature="0"
     sodipodi:nodetypes="cc" />
  <path
     style="opacity:0.44500002;fill:none;stroke:#00ff00;stroke-width:18;stroke-linecap:butt;stroke-linejoin:miter;stroke-miterlimit:4;stroke-dasharray:none;stroke-opacity:1"
     d="m 936.81384,546.94225 -217.82201,-30.843"
     id="path1160-6"
     inkscape:connector-curvature="0"
     sodipodi:nodetypes="cc" />
  <path
     style="fill:none;stroke:#00ff00;stroke-width:16;stroke-linecap:butt;stroke-linejoin:miter;stroke-miterlimit:4;stroke-dasharray:none;stroke-opacity:1"
     d="M 938.8402,530.32615 721.08713,499.38345"
     id="path1164-6"
     inkscape:connector-curvature="0"
     sodipodi:nodetypes="cc" />
  <path
     style="opacity:0.54000005;fill:none;stroke:#00ff7f;stroke-width:16;stroke-linecap:butt;stroke-linejoin:miter;stroke-miterlimit:4;stroke-dasharray:none;stroke-opacity:1"
     d="M 721.08713,499.38345 601.007,484.10935"
     id="path1166-2"
     inkscape:connector-curvature="0"
     sodipodi:nodetypes="cc" />
  <path
     style="opacity:0.41499999;fill:none;stroke:#7fff00;stroke-width:16;stroke-linecap:butt;stroke-linejoin:miter;stroke-miterlimit:4;stroke-dasharray:none;stroke-opacity:1"
     d="m 934.65239,562.74795 -80.17985,-11.0552"
     id="path1172-8"
     inkscape:connector-curvature="0"
     sodipodi:nodetypes="cc" />
  <path
     style="opacity:0.62099998;fill:none;stroke:#00ff00;stroke-width:16;stroke-linecap:butt;stroke-linejoin:miter;stroke-miterlimit:4;stroke-dasharray:none;stroke-opacity:1"
     d="M 854.47254,551.69275 697.34465,530.26135"
     id="path1174-7"
     inkscape:connector-curvature="0"
     sodipodi:nodetypes="cc" />
  <path
     style="opacity:0.67299996;fill:none;stroke:#ff7f00;stroke-width:15;stroke-linecap:butt;stroke-linejoin:miter;stroke-miterlimit:4;stroke-dasharray:none;stroke-opacity:1"
     d="m 865.17304,519.14085 c 0,0 -10.24824,-1.3936 -15.31013,-2.4323 -22.96939,-4.7136 -45.53998,-11.2066 -68.20493,-17.2158 -16.31018,-4.3243 -32.56104,-8.8742 -48.7724,-13.5554 -10.2665,-2.9645 -20.4975,-6.0525 -30.70882,-9.2019 -9.27814,-2.8615 -18.50494,-5.887 -27.7646,-8.80785 -6.03802,-1.90461 -18.1234,-5.68418 -18.1234,-5.68418"
     id="path1190-9"
     inkscape:connector-curvature="0"
     sodipodi:nodetypes="caaaaac" />
  <path
     style="opacity:0.44900004;fill:none;stroke:#00ff00;stroke-width:15;stroke-linecap:butt;stroke-linejoin:miter;stroke-miterlimit:4;stroke-dasharray:none;stroke-opacity:1"
     d="m 797.2393,510.81965 c 0,0 -17.23256,-2.3884 -25.83353,-3.6869 -12.9684,-1.9578 -26.06592,-3.2869 -38.85649,-6.1875 -14.44895,-3.2768 -28.42536,-8.3692 -42.61562,-12.629 -11.20413,-3.3634 -22.37276,-6.8442 -33.57657,-10.2087 -10.21695,-3.068 -20.39467,-6.2768 -30.68228,-9.09883 -7.04273,-1.93195 -21.24285,-5.36028 -21.24285,-5.36028"
     id="path1192-2"
     inkscape:connector-curvature="0"
     sodipodi:nodetypes="caaaaac" />
  <path
     style="fill:none;stroke:#00ff00;stroke-width:16;stroke-linecap:butt;stroke-linejoin:miter;stroke-miterlimit:4;stroke-dasharray:none;stroke-opacity:1"
     d="m 890.33739,433.95139 c 26.41486,2.40862 51.61703,4.89135 74.8358,6.79783"
     id="path1194-2"
     inkscape:connector-curvature="0"
     sodipodi:nodetypes="cc" />
  <path
     style="fill:none;stroke:#007fff;stroke-width:16;stroke-linecap:butt;stroke-linejoin:miter;stroke-miterlimit:4;stroke-dasharray:none;stroke-opacity:1"
     d="m 889.04097,449.68154 c 24.77575,1.8687 50.95742,5.03326 75.75013,6.92458"
     id="path1196-8"
     inkscape:connector-curvature="0"
     sodipodi:nodetypes="cc" />
  <path
     style="fill:none;stroke:#00ff00;stroke-width:16;stroke-linecap:butt;stroke-linejoin:miter;stroke-miterlimit:4;stroke-dasharray:none;stroke-opacity:1"
     d="m 967.65681,385.3456 c -21.86006,-2.58242 -43.43633,-3.74588 -65.03267,-5.00972"
     id="path1198-9"
     inkscape:connector-curvature="0"
     sodipodi:nodetypes="cc" />
  <path
     style="fill:none;stroke:#ff7f00;stroke-width:16;stroke-linecap:butt;stroke-linejoin:miter;stroke-miterlimit:4;stroke-dasharray:none;stroke-opacity:1"
     d="m 970.31631,369.70343 c -22.42034,-2.28861 -45.29755,-4.41589 -67.18153,-5.09543"
     id="path1200-7"
     inkscape:connector-curvature="0"
     sodipodi:nodetypes="cc" />
  <path
     style="fill:none;stroke:#7fff00;stroke-width:16;stroke-linecap:butt;stroke-linejoin:miter;stroke-miterlimit:4;stroke-dasharray:none;stroke-opacity:1"
     d="m 902.62414,380.33588 c 0,0 -21.65317,-0.19358 -32.48007,-0.22904 -16.47574,-0.054 -32.95206,0.14209 -49.42747,0.0248 -18.07835,-0.12872 -54.23055,-0.79951 -54.23055,-0.79951"
     id="path1202-3"
     inkscape:connector-curvature="0"
     sodipodi:nodetypes="caac" />
  <path
     style="fill:none;stroke:#ff7f00;stroke-width:16;stroke-linecap:butt;stroke-linejoin:miter;stroke-miterlimit:4;stroke-dasharray:none;stroke-opacity:1"
     d="m 903.13478,364.608 c 0,0 -19.03653,-0.23991 -28.55535,-0.26158 -14.77553,-0.0336 -29.55067,0.22172 -44.32622,0.20426 -10.11292,-0.012 -20.22667,-0.0344 -30.33805,-0.21152 C 788.9945,364.14789 767.16105,363.42 767.16105,363.42"
     id="path1204-6"
     inkscape:connector-curvature="0"
     sodipodi:nodetypes="caaac" />
  <path
     style="fill:none;stroke:#00ff00;stroke-width:16;stroke-linecap:butt;stroke-linejoin:miter;stroke-miterlimit:4;stroke-dasharray:none;stroke-opacity:1"
     d="m 766.48605,379.33211 c 0,0 -8.68103,-0.72173 -12.97039,-1.44733 -5.43938,-0.92013 -10.89475,-1.95661 -16.1364,-3.67664 -6.48988,-2.12964 -12.45111,-5.63065 -18.79175,-8.17033 -5.31896,-2.13046 -10.61207,-4.40301 -16.1364,-5.92349 -3.20587,-0.88236 -9.80439,-1.83832 -9.80439,-1.83832"
     id="path1206-1"
     inkscape:connector-curvature="0"
     sodipodi:nodetypes="caaaac" />
  <path
     style="fill:none;stroke:#ff7f00;stroke-width:16;stroke-linecap:butt;stroke-linejoin:miter;stroke-miterlimit:4;stroke-dasharray:none;stroke-opacity:1"
     d="m 767.16105,363.42 c 0,0 -8.61477,-0.42428 -12.89137,-0.94983 -8.5511,-1.05086 -16.9442,-3.15392 -25.46927,-4.39843 -8.21607,-1.19941 -16.46478,-2.20037 -24.73358,-2.95499 -3.79851,-0.34665 -11.42011,-0.72166 -11.42011,-0.72166"
     id="path1208-2"
     inkscape:connector-curvature="0"
     sodipodi:nodetypes="caaac" />
  <path
     style="fill:none;stroke:#7fff00;stroke-width:16;stroke-linecap:butt;stroke-linejoin:miter;stroke-miterlimit:4;stroke-dasharray:none;stroke-opacity:1"
     d="m 749.39587,411.42411 c 0,0 24.2003,6.24471 36.39696,8.95481 13.75184,3.05566 27.50914,6.2215 41.45208,8.23264 12.96982,1.87078 26.09197,2.47092 39.15143,3.55098 7.97537,0.6596 23.94105,1.78885 23.94105,1.78885"
     id="path1210-9"
     inkscape:connector-curvature="0"
     sodipodi:nodetypes="caaac" />
  <path
     style="fill:none;stroke:#ff7f00;stroke-width:16;stroke-linecap:butt;stroke-linejoin:miter;stroke-miterlimit:4;stroke-dasharray:none;stroke-opacity:1"
     d="m 746.07393,426.87837 c 0,0 16.17983,3.64397 24.26463,5.48843 10.8852,2.48334 21.69451,5.31664 32.64172,7.51049 10.91918,2.18823 21.88043,4.25036 32.93057,5.63286 10.78901,1.34982 21.67625,1.7436 32.5163,2.59102 6.87048,0.53709 20.61382,1.58037 20.61382,1.58037"
     id="path1212-3"
     inkscape:connector-curvature="0"
     sodipodi:nodetypes="caaaac" />
  <path
     style="fill:none;stroke:#00ff00;stroke-width:16;stroke-linecap:butt;stroke-linejoin:miter;stroke-miterlimit:4;stroke-dasharray:none;stroke-opacity:1"
     d="m 658.98122,390.33699 c 0,0 19.63162,4.57463 29.4642,6.78832 9.18531,2.06796 18.41755,3.92717 27.58658,6.06616 11.15534,2.60236 33.36387,8.23264 33.36387,8.23264"
     id="path1214-1"
     inkscape:connector-curvature="0"
     sodipodi:nodetypes="caac" />
  <path
     style="fill:none;stroke:#ff7f00;stroke-width:16;stroke-linecap:butt;stroke-linejoin:miter;stroke-miterlimit:4;stroke-dasharray:none;stroke-opacity:1"
     d="m 664.18079,402.61374 c 0,0 16.96261,4.95383 25.42009,7.51048 12.638,3.8204 25.16139,8.02004 37.84128,11.69902 6.18024,1.79316 18.63177,5.05513 18.63177,5.05513"
     id="path1216-9"
     inkscape:connector-curvature="0"
     sodipodi:nodetypes="caac" />
  <path
     style="opacity:0.57700004;fill:none;stroke:#7fff00;stroke-width:16;stroke-linecap:butt;stroke-linejoin:miter;stroke-miterlimit:4;stroke-dasharray:none;stroke-opacity:1"
     d="m 890.36864,433.54514 c 0,0 5.86739,1.03011 8.78311,0.68139 3.26977,-0.39107 6.48711,-1.51357 9.39162,-3.0654 2.84954,-1.52247 5.50367,-3.54789 7.62163,-5.98757 2.08975,-2.40718 3.68059,-5.28806 4.79281,-8.27546 0.92769,-2.49174 1.3059,-5.18368 1.48963,-7.83615 0.17373,-2.508 0.18891,-5.08248 -0.37346,-7.53278 -0.67645,-2.94732 -1.95735,-5.77723 -3.54674,-8.3498 -1.60113,-2.59159 -3.51604,-5.0927 -5.92348,-6.9593 -2.92442,-2.26742 -6.4209,-3.84856 -9.97963,-4.8629 -3.14006,-0.89501 -9.74456,-0.99651 -9.74456,-0.99651"
     id="path1218-4"
     inkscape:connector-curvature="0"
     sodipodi:nodetypes="caaaaaaaaac" />
  <path
     style="opacity:0.72100004;fill:none;stroke:#00ff00;stroke-width:18;stroke-linecap:butt;stroke-linejoin:miter;stroke-miterlimit:4;stroke-dasharray:none;stroke-opacity:1"
     d="m 926.03664,440.16615 c 0,0 5.87549,-7.40646 8.08821,-11.55459 1.50645,-2.8241 2.64907,-5.86014 3.46638,-8.9548 1.00663,-3.81155 1.61427,-7.75858 1.73319,-11.69903 0.10058,-3.33296 -0.098,-6.72113 -0.8666,-9.96583 -0.99116,-4.18443 -2.44785,-8.36617 -4.76626,-11.98788 -1.46878,-2.29445 -5.63287,-5.92173 -5.63287,-5.92173"
     id="path1220-7"
     inkscape:connector-curvature="0"
     sodipodi:nodetypes="caaaaac" />
  <path
     style="opacity:0.55500034;fill:none;stroke:#ff7f00;stroke-width:19;stroke-linecap:butt;stroke-linejoin:miter;stroke-miterlimit:4;stroke-dasharray:none;stroke-opacity:1"
     d="m 946.25717,444.49912 c 0,0 5.36043,-10.11166 7.36605,-15.45426 1.44101,-3.83861 2.62032,-7.80376 3.32194,-11.84345 0.70201,-4.04193 0.92992,-8.17481 0.8666,-12.27675 -0.0441,-2.85482 -0.37361,-5.70924 -0.8666,-8.52151 -0.51818,-2.95596 -1.27616,-5.87418 -2.19012,-8.73265 -1.07922,-3.3753 -3.87604,-9.89913 -3.87604,-9.89913"
     id="path1222-8"
     inkscape:connector-curvature="0"
     sodipodi:nodetypes="caaaaac" />
  <path
     style="opacity:0.55500034;fill:none;stroke:#7fff00;stroke-width:16;stroke-linecap:butt;stroke-linejoin:miter;stroke-miterlimit:4;stroke-dasharray:none;stroke-opacity:1"
     d="m 766.48605,379.33211 c 0,0 -4.86977,0.0885 -7.26878,0.46132 -3.72682,0.57919 -7.7034,0.87093 -10.97686,2.74421 -3.22075,1.84312 -6.23846,4.57717 -7.79934,7.94378 -1.32189,2.85114 -1.58833,6.32943 -0.8666,9.3881 0.75477,3.19868 2.66363,6.28657 5.19957,8.37708 3.65666,3.01438 8.76333,3.64548 13.28778,5.05513 2.50835,0.78151 7.65491,1.87762 7.65491,1.87762"
     id="path1224-4"
     inkscape:connector-curvature="0"
     sodipodi:nodetypes="caaaaaac" />
  <path
     style="opacity:0.49300005;fill:none;stroke:#00ff00;stroke-width:18;stroke-linecap:butt;stroke-linejoin:miter;stroke-miterlimit:4;stroke-dasharray:none;stroke-opacity:1"
     d="m 736.25253,372.28294 c 0,0 -5.6446,3.29173 -7.65491,5.7773 -2.43809,3.01447 -4.14922,6.98518 -4.91071,10.54356 -0.78956,3.68958 -0.96973,4.88802 -1.01102,7.36605 -0.0468,2.80687 0.86659,8.37708 0.86659,8.37708"
     id="path1226-5"
     inkscape:connector-curvature="0"
     sodipodi:nodetypes="casac" />
  <path
     sodipodi:nodetypes="caaac"
     inkscape:connector-curvature="0"
     id="path1228-0"
     d="m 721.8093,360.72836 c 0,0 -6.9941,5.9276 -9.53254,9.67696 -2.35689,3.4812 -3.78821,7.54603 -5.05513,11.55459 -1.16947,3.7002 -1.74225,7.57144 -2.31092,11.41016 -0.52441,3.53993 -1.01103,10.68799 -1.01103,10.68799"
     style="opacity:0.49300005;fill:none;stroke:#00ff00;stroke-width:18;stroke-linecap:butt;stroke-linejoin:miter;stroke-miterlimit:4;stroke-dasharray:none;stroke-opacity:1" />
  <path
     style="opacity:0.42857145;fill:none;stroke:#ff7f00;stroke-width:30;stroke-linecap:butt;stroke-linejoin:miter;stroke-miterlimit:4;stroke-dasharray:none;stroke-opacity:1"
     d="m 698.1556,383.90608 -31.69139,13.24506"
     id="path2837"
     inkscape:connector-curvature="0"
     sodipodi:nodetypes="cc" />
  <path
     sodipodi:nodetypes="cc"
     inkscape:connector-curvature="0"
     id="path3382"
     d="m 710.0306,378.65608 -31.69139,13.24506"
     style="opacity:0.11000001;fill:none;stroke:#00ff00;stroke-width:30;stroke-linecap:butt;stroke-linejoin:miter;stroke-miterlimit:4;stroke-dasharray:none;stroke-opacity:1" />
  <path
     style="opacity:0.11000001;fill:none;stroke:#00ff00;stroke-width:30;stroke-linecap:butt;stroke-linejoin:miter;stroke-miterlimit:4;stroke-dasharray:none;stroke-opacity:1"
     d="m 725.00001,368.62495 -32.25,-0.5"
     id="path3384"
     inkscape:connector-curvature="0"
     sodipodi:nodetypes="cc" />
  <path
     style="opacity:0.35700001;fill:none;stroke:#ff0000;stroke-width:20;stroke-linecap:butt;stroke-linejoin:miter;stroke-miterlimit:4;stroke-dasharray:none;stroke-opacity:1"
     d="m 695.00001,355.99995 c 0,0 -24.3054,-4.17808 -36.5,-6 -18.08202,-2.70152 -36.23344,-4.91677 -54.35876,-7.31066 -21.38401,-2.82428 -64.17194,-8.32062 -64.17194,-8.32062"
     id="path3965"
     inkscape:connector-curvature="0"
     sodipodi:nodetypes="caac" />
  <path
     style="opacity:0.272;fill:none;stroke:#ff0000;stroke-width:24;stroke-linecap:butt;stroke-linejoin:miter;stroke-miterlimit:4;stroke-dasharray:none;stroke-opacity:1"
     d="m 376.81219,327.71962 c 0,0 -139.96096,-18.29522 -209.91121,-27.67031 -62.02559,-8.31299 -186.02229,-25.34225 -186.02229,-25.34225"
     id="path3967"
     inkscape:connector-curvature="0"
     sodipodi:nodetypes="cac" />
  <path
     style="fill:none;stroke:#7fff00;stroke-width:24;stroke-linecap:butt;stroke-linejoin:miter;stroke-miterlimit:4;stroke-dasharray:none;stroke-opacity:1"
     d="m 498.25001,331.87495 c 0,0 -19.74547,0.89872 -29.625,1.125 -10.62254,0.2433 -21.25407,0.55553 -31.875,0.25 -11.47811,-0.33019 -22.94557,-1.14369 -34.375,-2.25 -8.55085,-0.82768 -25.56282,-3.28033 -25.56282,-3.28033"
     id="path3969"
     inkscape:connector-curvature="0"
     sodipodi:nodetypes="caaac" />
  <path
     style="opacity:0.30500004;fill:none;stroke:#ff7f00;stroke-width:20;stroke-linecap:butt;stroke-linejoin:miter;stroke-miterlimit:4;stroke-dasharray:none;stroke-opacity:1"
     d="m 539.96931,334.36867 c 0,0 -15.71085,-1.95741 -23.55318,-3.03447 -6.58702,-0.90465 -19.73769,-2.87898 -19.73769,-2.87898"
     id="path3971"
     inkscape:connector-curvature="0"
     sodipodi:nodetypes="cac" />
  <path
     style="opacity:0.43399999;fill:none;stroke:#7fff00;stroke-width:18;stroke-linecap:butt;stroke-linejoin:miter;stroke-miterlimit:4;stroke-dasharray:none;stroke-opacity:1"
     d="m 538.64348,334.98739 -41.03493,-0.38487"
     id="path3973"
     inkscape:connector-curvature="0"
     sodipodi:nodetypes="cc" />
  <path
     style="opacity:0.46000001;fill:none;stroke:#ff0000;stroke-width:20;stroke-linecap:butt;stroke-linejoin:miter;stroke-miterlimit:4;stroke-dasharray:none;stroke-opacity:1"
     d="m -22.02026,296.2383 c 0,0 175.66319,24.14584 263.54372,35.85534 31.3592,4.17841 62.74986,8.11803 94.11181,12.27576 38.02313,5.04082 75.94908,10.8398 114.0374,15.36174 16.09282,1.91058 32.25068,3.22984 48.36266,4.97152 13.09745,1.41582 26.2234,2.62424 39.26955,4.45342 13.98917,1.9614 27.92439,4.32919 41.79773,6.98896 9.97508,1.91241 29.78059,6.44607 29.78059,6.44607"
     id="path3975"
     inkscape:connector-curvature="0"
     sodipodi:nodetypes="caaaaaac" />
  <path
     style="opacity:0.40400002;fill:none;stroke:#7fff00;stroke-width:20;stroke-linecap:butt;stroke-linejoin:miter;stroke-miterlimit:4;stroke-dasharray:none;stroke-opacity:1"
     d="m 608.8832,382.59111 50.12247,10.87805"
     id="path3977"
     inkscape:connector-curvature="0"
     sodipodi:nodetypes="cc" />
  <path
     style="opacity:0.13200001;fill:none;stroke:#00ff00;stroke-width:20;stroke-linecap:butt;stroke-linejoin:miter;stroke-miterlimit:4;stroke-dasharray:none;stroke-opacity:1"
     d="m 608.8832,382.59111 58.51937,18.92139"
     id="path3979"
     inkscape:connector-curvature="0"
     sodipodi:nodetypes="cc" />
  <path
     style="opacity:0.61799999;fill:none;stroke:#ff7f00;stroke-width:16;stroke-linecap:butt;stroke-linejoin:miter;stroke-miterlimit:4;stroke-dasharray:none;stroke-opacity:1"
     d="m 63.79854,412.73782 -72.832,-24.74874"
     id="path3981"
     inkscape:connector-curvature="0"
     sodipodi:nodetypes="cc" />
</svg>
