<?xml version="1.0" encoding="UTF-8" standalone="no"?>
<!-- Created with Inkscape (http://www.inkscape.org/) -->

<svg
   xmlns:dc="http://purl.org/dc/elements/1.1/"
   xmlns:cc="http://creativecommons.org/ns#"
   xmlns:rdf="http://www.w3.org/1999/02/22-rdf-syntax-ns#"
   xmlns:svg="http://www.w3.org/2000/svg"
   xmlns="http://www.w3.org/2000/svg"
   xmlns:xlink="http://www.w3.org/1999/xlink"
   xmlns:sodipodi="http://sodipodi.sourceforge.net/DTD/sodipodi-0.dtd"
   xmlns:inkscape="http://www.inkscape.org/namespaces/inkscape"
   version="1.1"
   id="svg11181"
   width="350"
   height="350"
   viewBox="0 0 350 350"
   sodipodi:docname="i7757120_-363650.svg"
   inkscape:version="0.92.2 (unknown)">
  <metadata
     id="metadata11187">
    <rdf:RDF>
      <cc:Work
         rdf:about="">
        <dc:format>image/svg+xml</dc:format>
        <dc:type
           rdf:resource="http://purl.org/dc/dcmitype/StillImage" />
        <dc:title></dc:title>
      </cc:Work>
    </rdf:RDF>
  </metadata>
  <defs
     id="defs11185" />
  <sodipodi:namedview
     pagecolor="#ffffff"
     bordercolor="#666666"
     borderopacity="1"
     objecttolerance="10"
     gridtolerance="10"
     guidetolerance="10"
     inkscape:pageopacity="0"
     inkscape:pageshadow="2"
     inkscape:window-width="1855"
     inkscape:window-height="1056"
     id="namedview11183"
     showgrid="false"
     inkscape:zoom="1.8465589"
     inkscape:cx="236.60922"
     inkscape:cy="154.48027"
     inkscape:window-x="65"
     inkscape:window-y="24"
     inkscape:window-maximized="1"
     inkscape:current-layer="svg11181" />
  <image
     width="350"
     height="350"
     preserveAspectRatio="none"
     xlink:href="carmen_lcad/data/road_mapper_remission_350px/voltadaufes/i7757120_-363650.png"
     id="image11189"
     x="0"
     y="0"
     sodipodi:absref="carmen_lcad/data/road_mapper_remission_350px/voltadaufes/i7757120_-363650.png" />
  <image
     width="350"
     height="350"
     preserveAspectRatio="none"
     xlink:href="carmen_lcad/data/road_mapper_remission_350px/voltadaufes/i7757120_-363720.png"
     id="image10866"
     x="0"
     y="350"
     sodipodi:absref="carmen_lcad/data/road_mapper_remission_350px/voltadaufes/i7757120_-363720.png" />
  <image
     width="350"
     height="350"
     preserveAspectRatio="none"
     xlink:href="carmen_lcad/data/road_mapper_remission_350px/voltadaufes/i7757050_-363720.png"
     id="image10422"
     x="-350"
     y="350"
     sodipodi:absref="carmen_lcad/data/road_mapper_remission_350px/voltadaufes/i7757050_-363720.png" />
  <path
     style="display:none;opacity:0.28999999;fill:none;stroke:#00ff00;stroke-width:25;stroke-linecap:butt;stroke-linejoin:miter;stroke-miterlimit:4;stroke-dasharray:none;stroke-opacity:1"
     d="m 2726.1444,16233.733 -35.7089,-9.988"
     id="path2589"
     inkscape:connector-curvature="0" />
  <path
     style="opacity:0.57399998;fill:none;stroke:#ff0000;stroke-width:17;stroke-linecap:butt;stroke-linejoin:miter;stroke-miterlimit:4;stroke-dasharray:none;stroke-opacity:1"
     d="m -665.07275,533.3783 c 120.11049,12.90973 221.97898,28.34703 330.58151,42.74313"
     id="path10344"
     inkscape:connector-curvature="0"
     sodipodi:nodetypes="cc" />
  <path
     style="opacity:0.61400003;fill:none;stroke:#ff0000;stroke-width:17;stroke-linecap:butt;stroke-linejoin:miter;stroke-miterlimit:4;stroke-dasharray:none;stroke-opacity:1"
     d="M -332.76806,559.84683 -528.44638,533.0416"
     id="path10346"
     inkscape:connector-curvature="0"
     sodipodi:nodetypes="cc" />
  <path
     style="opacity:0.61000001;fill:none;stroke:#ff0000;stroke-width:17;stroke-linecap:butt;stroke-linejoin:miter;stroke-miterlimit:4;stroke-dasharray:none;stroke-opacity:1"
     d="m -334.49124,576.12143 c 0,0 25.77339,3.9986 38.65214,6.0483 6.56044,1.0441 13.09474,2.2591 19.6731,3.1836 6.59537,0.9269 19.83968,2.3684 19.83968,2.3684"
     id="path10762"
     inkscape:connector-curvature="0"
     sodipodi:nodetypes="caac" />
  <path
     style="opacity:0.61799999;fill:none;stroke:#00ff00;stroke-width:17;stroke-linecap:butt;stroke-linejoin:miter;stroke-miterlimit:4;stroke-dasharray:none;stroke-opacity:1"
     d="m -256.32632,587.72173 c 0,0 14.76455,1.4017 22.09178,0.6374 5.81511,-0.6067 11.58412,-2.0403 17.0508,-4.1137 4.53189,-1.7189 8.58661,-4.4999 12.84136,-6.8215 5.05465,-2.758 10.07223,-5.5842 15.07041,-8.4433 4.8477,-2.773 14.46833,-8.4484 14.46833,-8.4484"
     id="path10764"
     inkscape:connector-curvature="0"
     sodipodi:nodetypes="caaaac" />
  <path
     style="opacity:0.53299997;fill:none;stroke:#ff0000;stroke-width:17;stroke-linecap:butt;stroke-linejoin:miter;stroke-miterlimit:4;stroke-dasharray:none;stroke-opacity:1"
     d="M -174.80364,560.53223 C -105.47282,519.4703 -41.047496,481.64353 25.735664,442.61978"
     id="path10766"
     inkscape:connector-curvature="0"
     sodipodi:nodetypes="cc" />
  <path
     style="opacity:0.59200003;fill:none;stroke:#ff0000;stroke-width:17;stroke-linecap:butt;stroke-linejoin:miter;stroke-miterlimit:4;stroke-dasharray:none;stroke-opacity:1"
     d="m 16.898674,428.68454 c -40.46001,23.52545 -71.714124,41.71308 -107.494754,62.70028 -30.88491,18.1156 -92.52224,54.57201 -92.52224,54.57201"
     id="path10768"
     inkscape:connector-curvature="0"
     sodipodi:nodetypes="cac" />
  <path
     style="opacity:0.63999999;fill:none;stroke:#7fff00;stroke-width:17;stroke-linecap:butt;stroke-linejoin:miter;stroke-miterlimit:4;stroke-dasharray:none;stroke-opacity:1"
     d="m -301.97729,564.24653 -30.79077,-4.3997"
     id="path10770"
     inkscape:connector-curvature="0"
     sodipodi:nodetypes="cc" />
  <path
     style="opacity:0.65100002;fill:none;stroke:#ff7f00;stroke-width:17;stroke-linecap:butt;stroke-linejoin:miter;stroke-miterlimit:4;stroke-dasharray:none;stroke-opacity:1"
     d="m -183.11832,545.95683 c 0,0 -5.33359,2.9643 -7.96484,4.5082 -3.28531,1.9276 -6.46693,4.0293 -9.76477,5.9354 -4.19166,2.4227 -8.45579,4.7193 -12.73249,6.9885 -3.76949,2.0001 -7.33418,4.52 -11.39224,5.8398 -5.49809,1.788 -11.36321,2.3664 -17.13621,2.6805 -4.11489,0.2238 -12.34956,-0.5744 -12.34956,-0.5744"
     id="path10772"
     inkscape:connector-curvature="0"
     sodipodi:nodetypes="csaaaac" />
  <path
     style="opacity:0.544;fill:none;stroke:#ff0000;stroke-width:17;stroke-linecap:butt;stroke-linejoin:miter;stroke-miterlimit:4;stroke-dasharray:none;stroke-opacity:1"
     d="m -254.45843,571.33483 c 0,0 -13.93722,-1.4782 -20.8698,-2.4891 -8.92,-1.3008 -26.64906,-4.5993 -26.64906,-4.5993"
     id="path10774"
     inkscape:connector-curvature="0"
     sodipodi:nodetypes="cac" />
  <path
     style="opacity:0.56600001;fill:none;stroke:#ff7f00;stroke-width:17;stroke-linecap:butt;stroke-linejoin:miter;stroke-miterlimit:4;stroke-dasharray:none;stroke-opacity:1"
     d="m -256.32632,587.72173 c 0,0 9.84518,1.4805 14.50465,3.1426 6.47898,2.3113 12.80332,5.3555 18.38074,9.3819 5.37897,3.8831 9.67821,9.0935 14.16849,13.977 5.39815,5.871 15.31729,18.3808 15.31729,18.3808"
     id="path10784"
     inkscape:connector-curvature="0"
     sodipodi:nodetypes="caaac" />
  <path
     style="opacity:0.57399998;fill:none;stroke:#ff7f00;stroke-width:17;stroke-linecap:butt;stroke-linejoin:miter;stroke-miterlimit:4;stroke-dasharray:none;stroke-opacity:1"
     d="m -188.0197,628.20033 c 0,0 -4.31718,-7.7632 -4.97812,-12.0624 -1.01234,-6.5849 0.40835,-13.3812 1.7232,-19.9125 1.11135,-5.5205 2.93563,-10.9141 5.16958,-16.0832 2.19851,-5.0871 4.47473,-10.3099 8.04158,-14.5514 2.58409,-3.0728 9.38673,-7.5477 9.38673,-7.5477"
     id="path10786"
     inkscape:connector-curvature="0"
     sodipodi:nodetypes="caaaac" />
  <path
     style="opacity:0.61799999;fill:none;stroke:#ff7f00;stroke-width:14.5;stroke-linecap:butt;stroke-linejoin:miter;stroke-miterlimit:4;stroke-dasharray:none;stroke-opacity:1"
     d="m -197.06307,630.48623 c 8.45143,10.1252 16.40445,20.2503 24.13634,30.3755"
     id="path10788"
     inkscape:connector-curvature="0"
     sodipodi:nodetypes="cc" />
  <path
     style="opacity:0.58800001;fill:none;stroke:#ff7f00;stroke-width:14.5;stroke-linecap:butt;stroke-linejoin:miter;stroke-miterlimit:4;stroke-dasharray:none;stroke-opacity:1"
     d="m -165.6446,655.27313 c -7.61726,-9.8026 -16.27821,-20.7633 -23.07469,-31.0994"
     id="path10790"
     inkscape:connector-curvature="0"
     sodipodi:nodetypes="cc" />
  <path
     style="opacity:0.54799996;fill:none;stroke:#ff7f00;stroke-width:12;stroke-linecap:butt;stroke-linejoin:miter;stroke-miterlimit:4;stroke-dasharray:none;stroke-opacity:1"
     d="m -176.14881,658.06903 27.95405,38.1017"
     id="path10792"
     inkscape:connector-curvature="0"
     sodipodi:nodetypes="cc" />
  <path
     style="opacity:0.54799996;fill:none;stroke:#ff7f00;stroke-width:12;stroke-linecap:butt;stroke-linejoin:miter;stroke-miterlimit:4;stroke-dasharray:none;stroke-opacity:1"
     d="m -138.90866,689.18223 -27.28391,-37.1444"
     id="path10794"
     inkscape:connector-curvature="0"
     sodipodi:nodetypes="cc" />
  <path
     style="opacity:0.54799996;fill:none;stroke:#ff0000;stroke-width:17;stroke-linecap:butt;stroke-linejoin:miter;stroke-miterlimit:4;stroke-dasharray:none;stroke-opacity:1"
     d="m 25.735664,442.61978 c 0,0 64.149981,-35.30355 95.913166,-53.50674 17.91995,-10.26976 35.80097,-20.61831 53.40088,-31.42737 9.53293,-5.85469 28.26303,-18.09938 28.26303,-18.09938"
     id="path11115"
     inkscape:connector-curvature="0"
     sodipodi:nodetypes="caac" />
  <path
     style="opacity:0.53299997;fill:none;stroke:#ff0000;stroke-width:17;stroke-linecap:butt;stroke-linejoin:miter;stroke-miterlimit:4;stroke-dasharray:none;stroke-opacity:1"
     d="m 193.93984,325.63181 c 0,0 -16.18693,11.28196 -24.55549,16.49797 -12.5643,7.83115 -25.65339,14.78711 -38.47478,22.18985 -18.34745,10.59335 -36.581121,21.3856 -55.027167,31.80632 -19.553266,11.04621 -58.983729,32.55859 -58.983729,32.55859"
     id="path11117"
     inkscape:connector-curvature="0"
     sodipodi:nodetypes="caaac" />
  <image
     sodipodi:absref="carmen_lcad/data/road_mapper_remission_350px/voltadaufes/i7757190_-363650.png"
     y="0"
     x="350"
     id="image11527"
     xlink:href="carmen_lcad/data/road_mapper_remission_350px/voltadaufes/i7757190_-363650.png"
     preserveAspectRatio="none"
     height="350"
     width="350" />
  <image
     sodipodi:absref="carmen_lcad/data/road_mapper_remission_350px/voltadaufes/i7757190_-363580.png"
     y="-350"
     x="350"
     id="image11592"
     xlink:href="carmen_lcad/data/road_mapper_remission_350px/voltadaufes/i7757190_-363580.png"
     preserveAspectRatio="none"
     height="350"
     width="350" />
  <image
     sodipodi:absref="carmen_lcad/data/road_mapper_remission_350px/voltadaufes/i7757260_-363580.png"
     y="-350"
     x="700"
     id="image11657"
     xlink:href="carmen_lcad/data/road_mapper_remission_350px/voltadaufes/i7757260_-363580.png"
     preserveAspectRatio="none"
     height="350"
     width="350" />
  <path
     style="opacity:0.53299997;fill:none;stroke:#ff0000;stroke-width:17;stroke-linecap:butt;stroke-linejoin:miter;stroke-miterlimit:4;stroke-dasharray:none;stroke-opacity:1"
     d="m 203.31274,339.58629 c 0,0 11.59692,-9.3769 16.55569,-14.90365 8.65724,-9.64886 16.56963,-20.14724 22.74502,-31.54517 5.25402,-9.69736 8.44389,-20.39915 11.91405,-30.86822 3.5966,-10.85054 5.89108,-22.09462 9.20631,-33.03442 3.27802,-10.81703 6.08567,-21.84269 10.56018,-32.2221 4.26891,-9.9025 9.47516,-19.44383 15.43411,-28.43126 6.95597,-10.49115 14.91507,-20.36228 23.55734,-29.51436 9.6543,-10.22382 20.40944,-19.40124 31.40978,-28.16049 10.53928,-8.39212 21.75551,-15.918355 33.03442,-23.28656 17.83159,-11.648899 36.57607,-21.839845 54.69633,-33.034419 21.70785,-13.410963 43.45066,-26.783178 64.71497,-40.886864 16.85943,-11.182123 49.8224,-34.659063 49.8224,-34.659063"
     id="path11660"
     inkscape:connector-curvature="0"
     sodipodi:nodetypes="caaaaaaaaaaac" />
  <path
     style="opacity:0.60700001;fill:none;stroke:#ff0000;stroke-width:17;stroke-linecap:butt;stroke-linejoin:miter;stroke-miterlimit:4;stroke-dasharray:none;stroke-opacity:1"
     d="m 537.16902,-34.657599 c 0,0 -23.28244,17.356293 -35.30713,25.4856004 C 481.7857,4.4005362 460.98493,16.87085 440.40982,29.674439 c -16.57871,10.316684 -33.32113,20.368024 -49.95381,30.597454 -8.33309,5.125016 -16.84221,9.977644 -24.97126,15.420508 -9.95793,6.6674 -19.60993,13.792692 -29.11782,21.087515 -7.2812,5.586414 -14.65606,11.102044 -21.3719,17.356744 -9.39959,8.75417 -18.07343,18.29375 -26.35565,28.1117 -5.20228,6.16692 -10.34547,12.44785 -14.61616,19.29298 -6.30376,10.10377 -11.52237,20.90014 -16.09346,31.8969 -3.91514,9.41875 -6.63897,19.29338 -9.64367,29.04085 -3.48324,11.29989 -5.95381,22.90706 -9.71501,34.11751 -3.37297,10.05333 -6.36797,20.38205 -11.50391,29.65937 -6.14933,11.10785 -14.10983,21.25198 -22.78349,30.52378 -3.10029,3.31408 -10.34384,8.85206 -10.34384,8.85206"
     id="path11662"
     inkscape:connector-curvature="0"
     sodipodi:nodetypes="caaaaaaaaaaaaac" />
</svg>
