<?xml version="1.0" encoding="UTF-8" standalone="no"?>
<!-- Created with Inkscape (http://www.inkscape.org/) -->

<svg
   xmlns:dc="http://purl.org/dc/elements/1.1/"
   xmlns:cc="http://creativecommons.org/ns#"
   xmlns:rdf="http://www.w3.org/1999/02/22-rdf-syntax-ns#"
   xmlns:svg="http://www.w3.org/2000/svg"
   xmlns="http://www.w3.org/2000/svg"
   xmlns:xlink="http://www.w3.org/1999/xlink"
   xmlns:sodipodi="http://sodipodi.sourceforge.net/DTD/sodipodi-0.dtd"
   xmlns:inkscape="http://www.inkscape.org/namespaces/inkscape"
   version="1.1"
   id="svg897"
   width="350"
   height="350"
   viewBox="0 0 350 350"
   sodipodi:docname="i7757120_-364140.svg"
   inkscape:version="0.92.2 (unknown)">
  <metadata
     id="metadata903">
    <rdf:RDF>
      <cc:Work
         rdf:about="">
        <dc:format>image/svg+xml</dc:format>
        <dc:type
           rdf:resource="http://purl.org/dc/dcmitype/StillImage" />
        <dc:title />
      </cc:Work>
    </rdf:RDF>
  </metadata>
  <defs
     id="defs901" />
  <sodipodi:namedview
     pagecolor="#ffffff"
     bordercolor="#666666"
     borderopacity="1"
     objecttolerance="10"
     gridtolerance="10"
     guidetolerance="10"
     inkscape:pageopacity="0"
     inkscape:pageshadow="2"
     inkscape:window-width="1920"
     inkscape:window-height="1004"
     id="namedview899"
     showgrid="false"
     inkscape:zoom="4"
     inkscape:cx="92.42561"
     inkscape:cy="308.14485"
     inkscape:window-x="0"
     inkscape:window-y="24"
     inkscape:window-maximized="1"
     inkscape:current-layer="svg897"
     inkscape:measure-start="33.075,313.563"
     inkscape:measure-end="-7.94378,329.306"
     inkscape:snap-to-guides="false" />
  <image
     sodipodi:absref="carmen_lcad/data/road_mapper_remission_350px/voltadaufes/i7757050_-364070.png"
     xlink:href="carmen_lcad/data/road_mapper_remission_350px/voltadaufes/i7757050_-364070.png"
     width="350"
     height="350"
     preserveAspectRatio="none"
     id="image2834"
     x="-350"
     y="-350" />
  <image
     sodipodi:absref="carmen_lcad/data/road_mapper_remission_350px/voltadaufes/i7757050_-364140.png"
     xlink:href="carmen_lcad/data/road_mapper_remission_350px/voltadaufes/i7757050_-364140.png"
     width="350"
     height="350"
     preserveAspectRatio="none"
     id="image2769"
     x="-350"
     y="0" />
  <image
     sodipodi:absref="carmen_lcad/data/road_mapper_remission_350px/voltadaufes/i7757120_-364070.png"
     xlink:href="carmen_lcad/data/road_mapper_remission_350px/voltadaufes/i7757120_-364070.png"
     width="350"
     height="350"
     preserveAspectRatio="none"
     id="image2704"
     x="0"
     y="-350" />
  <image
     sodipodi:absref="carmen_lcad/data/road_mapper_remission_350px/voltadaufes/i7757120_-364140.png"
     xlink:href="carmen_lcad/data/road_mapper_remission_350px/voltadaufes/i7757120_-364140.png"
     y="0"
     x="0"
     id="image905"
     preserveAspectRatio="none"
     height="350"
     width="350" />
  <path
     style="opacity:0.53299997;fill:none;stroke:#0000ff;stroke-width:18;stroke-linecap:butt;stroke-linejoin:miter;stroke-miterlimit:4;stroke-dasharray:none;stroke-opacity:1"
     d="M 720.33333,259.66667 C 661.16671,251.32663 601.28554,244.14717 541.76987,236.32465 494.44352,230.10425 447.13475,223.75037 399.80399,217.56362 371.27271,213.8342 341.44594,209.8231 314.1944,206.49643"
     id="path4600"
     inkscape:connector-curvature="0"
     sodipodi:nodetypes="caac" />
  <path
     style="opacity:0.53299997;fill:none;stroke:#ff007f;stroke-width:16;stroke-linecap:butt;stroke-linejoin:miter;stroke-miterlimit:4;stroke-dasharray:none;stroke-opacity:1"
     d="M 722.94092,242.99234 C 665.89454,234.75521 607.27616,227.8212 549.43827,220.27779 471.74288,210.14449 389.5814,199.1691 316.33736,189.99117"
     id="path4602"
     inkscape:connector-curvature="0"
     sodipodi:nodetypes="cac" />
  <path
     style="fill:none;stroke:#7f00ff;stroke-width:16;stroke-linecap:butt;stroke-linejoin:miter;stroke-miterlimit:4;stroke-dasharray:none;stroke-opacity:1;opacity:0.533"
     d="m 718.68781,276.05761 c 0,0 -123.93561,-16.10903 -185.90342,-24.16354 -68.30189,-8.87782 -220.71126,-28.6598 -220.71126,-28.6598"
     id="path4604"
     inkscape:connector-curvature="0"
     sodipodi:nodetypes="csc" />
  <path
     style="opacity:1;fill:none;stroke:#7fff00;stroke-width:16;stroke-linecap:butt;stroke-linejoin:miter;stroke-miterlimit:4;stroke-dasharray:none;stroke-opacity:1"
     d="m 265.17318,90.749271 c 0,0 34.13283,0.689007 51.20059,0.955235 14.65543,0.2286 29.31439,0.234993 43.9682,0.55137 9.68778,0.20916 19.37212,0.558701 29.05649,0.890391 7.50463,0.257033 15.01514,0.407101 22.51097,0.852208 13.8481,0.822307 27.65734,2.204348 41.48176,3.358305 10.80455,0.901882 21.63245,1.576168 32.4068,2.78657 11.17833,1.25578 20.45623,2.98341 33.42527,4.64109 12.88772,1.64729 38.60109,5.40526 38.60109,5.40526"
     id="path1148"
     inkscape:connector-curvature="0"
     sodipodi:nodetypes="caaaaaasc" />
  <path
     style="opacity:1;fill:none;stroke:#ff7f00;stroke-width:16;stroke-linecap:butt;stroke-linejoin:miter;stroke-miterlimit:4;stroke-dasharray:none;stroke-opacity:1"
     d="m 264.79109,106.60617 c 0,0 24.38803,0.69853 36.5855,0.85971 10.85693,0.14347 21.71684,-0.0674 32.5735,0.0955 15.28764,0.2294 30.56859,0.78987 45.85127,1.2418 10.42878,0.3084 20.85321,0.7698 31.28394,1.003 12.57512,0.28115 25.1577,0.15302 37.73178,0.47762 10.62355,0.27425 21.23818,0.82457 31.85708,1.24181 9.64799,0.37909 19.319,0.37544 28.94361,1.14628 9.12756,0.73103 18.17868,2.219 27.27196,3.29556 6.58926,0.7801 19.77336,2.29257 19.77336,2.29257"
     id="path1150"
     inkscape:connector-curvature="0"
     sodipodi:nodetypes="caaaaaaaac" />
  <path
     style="opacity:1;fill:none;stroke:#007fff;stroke-width:16;stroke-linecap:butt;stroke-linejoin:miter;stroke-miterlimit:4;stroke-dasharray:none;stroke-opacity:1"
     d="m 560.96373,89.747953 c 0,0 -38.10062,-8.753388 -57.07578,-13.441515 C 487.6548,72.29577 455.32288,63.743012 455.32288,63.743012"
     id="path1152"
     inkscape:connector-curvature="0"
     sodipodi:nodetypes="cac" />
  <path
     style="fill:none;stroke:#ff0000;stroke-width:18;stroke-linecap:butt;stroke-linejoin:miter;stroke-opacity:1;stroke-miterlimit:4;stroke-dasharray:none;opacity:0.423"
     d="m 314.1944,206.49643 -77.38057,-9.55408"
     id="path1154"
     inkscape:connector-curvature="0" />
  <path
     style="fill:none;stroke:#ff0000;stroke-width:16;stroke-linecap:butt;stroke-linejoin:miter;stroke-miterlimit:4;stroke-dasharray:none;stroke-opacity:1"
     d="M 316.33736,189.99117 238.84019,180.3262"
     id="path1156"
     inkscape:connector-curvature="0"
     sodipodi:nodetypes="cc" />
  <path
     style="fill:none;stroke:#ff0000;stroke-width:16;stroke-linecap:butt;stroke-linejoin:miter;stroke-miterlimit:4;stroke-dasharray:none;stroke-opacity:1"
     d="M 312.07313,223.23427 234.65238,212.74795"
     id="path1158"
     inkscape:connector-curvature="0"
     sodipodi:nodetypes="cc" />
  <path
     style="fill:none;stroke:#00ff00;stroke-width:18;stroke-linecap:butt;stroke-linejoin:miter;stroke-miterlimit:4;stroke-dasharray:none;stroke-opacity:1;opacity:0.445"
     d="M 236.81383,196.94235 18.991818,166.09931"
     id="path1160"
     inkscape:connector-curvature="0"
     sodipodi:nodetypes="cc" />
  <path
     style="opacity:0.26499999;fill:none;stroke:#0000ff;stroke-width:18;stroke-linecap:butt;stroke-linejoin:miter;stroke-miterlimit:4;stroke-dasharray:none;stroke-opacity:1"
     d="m 18.991818,166.09931 c 0,0 -111.824871,-14.00773 -167.881738,-21.30045 -70.77846,-9.20794 -212.62425,-28.20154 -212.62425,-28.20154"
     id="path1162"
     inkscape:connector-curvature="0"
     sodipodi:nodetypes="csc" />
  <path
     style="fill:none;stroke:#00ff00;stroke-width:16;stroke-linecap:butt;stroke-linejoin:miter;stroke-miterlimit:4;stroke-dasharray:none;stroke-opacity:1"
     d="M 238.84019,180.3262 21.087124,149.38346"
     id="path1164"
     inkscape:connector-curvature="0"
     sodipodi:nodetypes="cc" />
  <path
     style="opacity:0.54000005;fill:none;stroke:#00ff7f;stroke-width:16;stroke-linecap:butt;stroke-linejoin:miter;stroke-miterlimit:4;stroke-dasharray:none;stroke-opacity:1"
     d="M 21.087124,149.38346 -98.993006,134.10935"
     id="path1166"
     inkscape:connector-curvature="0"
     sodipodi:nodetypes="cc" />
  <path
     style="fill:none;stroke:#ff007f;stroke-width:16;stroke-linecap:butt;stroke-linejoin:miter;stroke-miterlimit:4;stroke-dasharray:none;stroke-opacity:1"
     d="M -98.993006,134.10935 -312.33284,106.14562"
     id="path1168"
     inkscape:connector-curvature="0"
     sodipodi:nodetypes="cc" />
  <path
     style="opacity:0.544;fill:none;stroke:#00ff7f;stroke-width:16;stroke-linecap:butt;stroke-linejoin:miter;stroke-miterlimit:4;stroke-dasharray:none;stroke-opacity:1"
     d="M -312.33284,106.14562 -359.3252,99.818761"
     id="path1170"
     inkscape:connector-curvature="0"
     sodipodi:nodetypes="cc" />
  <path
     style="opacity:0.41499999;fill:none;stroke:#7fff00;stroke-width:16;stroke-linecap:butt;stroke-linejoin:miter;stroke-miterlimit:4;stroke-dasharray:none;stroke-opacity:1"
     d="m 234.65238,212.74795 -80.17985,-11.0552"
     id="path1172"
     inkscape:connector-curvature="0"
     sodipodi:nodetypes="cc" />
  <path
     style="opacity:0.62099998;fill:none;stroke:#00ff00;stroke-width:16;stroke-linecap:butt;stroke-linejoin:miter;stroke-miterlimit:4;stroke-dasharray:none;stroke-opacity:1"
     d="M 154.47253,201.69275 -2.6553565,180.26144"
     id="path1174"
     inkscape:connector-curvature="0"
     sodipodi:nodetypes="cc" />
  <path
     style="opacity:0.48500001;fill:none;stroke:#7f00ff;stroke-width:16;stroke-linecap:butt;stroke-linejoin:miter;stroke-miterlimit:4;stroke-dasharray:none;stroke-opacity:1"
     d="m -2.6553565,180.26144 c 0,0 -73.2127895,-8.89452 -109.7887835,-13.58317 -37.23038,-4.77253 -74.41952,-9.86149 -111.62709,-14.80871 -32.44429,-4.31389 -64.87873,-8.70204 -97.32904,-12.9704 -14.15875,-1.86237 -42.4857,-5.51497 -42.4857,-5.51497"
     id="path1176"
     inkscape:connector-curvature="0"
     sodipodi:nodetypes="caaac" />
  <path
     style="opacity:0.41499999;fill:none;stroke:#ff7f00;stroke-width:15;stroke-linecap:butt;stroke-linejoin:miter;stroke-miterlimit:4;stroke-dasharray:none;stroke-opacity:1"
     d="m -229.72691,73.586392 c 0,0 -17.03892,-2.136294 -25.58931,-2.898912 -5.77009,-0.51464 -11.55176,-0.95701 -17.34215,-1.130678 -5.01477,-0.150406 -10.04138,-0.197295 -15.05088,0.07735 -4.41508,0.242056 -8.80858,0.808544 -13.1929,1.382373 -3.76433,0.492684 -7.51432,1.098472 -11.2512,1.768233 -2.15948,0.387042 -6.45203,1.299891 -6.45203,1.299891"
     id="path1178"
     inkscape:connector-curvature="0"
     sodipodi:nodetypes="caaaaac" />
  <path
     sodipodi:nodetypes="caaaac"
     inkscape:connector-curvature="0"
     id="path1180"
     d="m -231.56523,87.986595 c 0,0 -10.50905,-1.445369 -15.78492,-1.97975 -8.38418,-0.849215 -16.78087,-1.770731 -25.20609,-1.947711 -6.55149,-0.137621 -13.12368,0.06453 -19.64669,0.690123 -4.91171,0.471059 -9.7632,1.446035 -14.62271,2.301534 -2.81261,0.49515 -8.40948,1.638317 -8.40948,1.638317"
     style="opacity:0.41499999;fill:none;stroke:#7fff00;stroke-width:15;stroke-linecap:butt;stroke-linejoin:miter;stroke-miterlimit:4;stroke-dasharray:none;stroke-opacity:1" />
  <path
     style="opacity:0.46700003;fill:none;stroke:#ff007f;stroke-width:15;stroke-linecap:butt;stroke-linejoin:miter;stroke-miterlimit:4;stroke-dasharray:none;stroke-opacity:1"
     d="m -137.87428,87.478664 c 0,0 -15.05639,-2.701743 -22.67266,-4.035603 -7.03771,-1.232534 -12.79233,-1.820832 -19.18576,-2.750227 -8.48088,-1.232843 -16.95043,-2.54361 -25.43527,-3.748863 -8.18035,-1.162 -24.55894,-3.357579 -24.55894,-3.357579"
     id="path1182"
     inkscape:connector-curvature="0"
     sodipodi:nodetypes="csaac" />
  <path
     style="opacity:0.43000004;fill:none;stroke:#7f00ff;stroke-width:15;stroke-linecap:butt;stroke-linejoin:miter;stroke-miterlimit:4;stroke-dasharray:none;stroke-opacity:1"
     d="m -95.568053,113.64849 c 0,0 -10.356487,-3.30506 -15.608227,-4.69794 -5.24757,-1.39177 -10.58316,-2.42755 -15.87231,-3.65186 -4.97182,-1.15086 -9.91422,-2.43453 -14.91085,-3.47239 -6.3024,-1.30908 -12.64269,-2.438304 -18.99601,-3.472391 -4.27669,-0.696088 -8.57933,-1.222203 -12.86827,-1.838324 -3.32349,-0.477431 -6.64461,-0.971451 -9.96936,-1.440072 -4.5761,-0.644997 -9.16014,-1.233114 -13.73485,-1.887885 -4.90276,-0.701723 -9.80008,-1.441203 -14.69633,-2.187014 -6.4504,-0.982544 -19.34097,-3.014019 -19.34097,-3.014019"
     id="path1184"
     inkscape:connector-curvature="0"
     sodipodi:nodetypes="caaaaaaaac" />
  <path
     style="opacity:0.51499999;fill:none;stroke:#00ff7f;stroke-width:15;stroke-linecap:butt;stroke-linejoin:miter;stroke-miterlimit:4;stroke-dasharray:none;stroke-opacity:1"
     d="m -91.034685,99.138527 c 0,0 -8.699692,-2.480056 -13.071125,-3.640721 -5.22543,-1.387412 -10.46651,-2.718126 -15.72561,-3.97189 -5.99571,-1.429371 -18.04286,-4.047252 -18.04286,-4.047252"
     id="path1186"
     inkscape:connector-curvature="0"
     sodipodi:nodetypes="caac" />
  <path
     style="opacity:0.49300005;fill:none;stroke:#ff007f;stroke-width:15;stroke-linecap:butt;stroke-linejoin:miter;stroke-miterlimit:4;stroke-dasharray:none;stroke-opacity:1"
     d="m -43.711253,112.24347 c 0,0 -14.538937,-4.39941 -21.855626,-6.43414 -8.45481,-2.35123 -25.467806,-6.670803 -25.467806,-6.670803"
     id="path1188"
     inkscape:connector-curvature="0"
     sodipodi:nodetypes="cac" />
  <path
     style="opacity:0.67299996;fill:none;stroke:#ff7f00;stroke-width:15;stroke-linecap:butt;stroke-linejoin:miter;stroke-miterlimit:4;stroke-dasharray:none;stroke-opacity:1"
     d="m 165.17303,169.14088 c 0,0 -10.24824,-1.39357 -15.31013,-2.43232 -22.96939,-4.71357 -45.53998,-11.20657 -68.204933,-17.21576 -16.310174,-4.32434 -32.561036,-8.8742 -48.772398,-13.55538 -10.266502,-2.96455 -20.497502,-6.05251 -30.7088192,-9.20188 -9.2781387,-2.86157 -18.5049418,-5.88707 -27.7645978,-8.80789 -6.038027,-1.90461 -18.123405,-5.68418 -18.123405,-5.68418"
     id="path1190"
     inkscape:connector-curvature="0"
     sodipodi:nodetypes="caaaaac" />
  <path
     style="opacity:0.44900004;fill:none;stroke:#00ff00;stroke-width:15;stroke-linecap:butt;stroke-linejoin:miter;stroke-miterlimit:4;stroke-dasharray:none;stroke-opacity:1"
     d="m 97.23929,160.81974 c 0,0 -17.232561,-2.38842 -25.83353,-3.68691 -12.968401,-1.95784 -26.065918,-3.28692 -38.856492,-6.18757 -14.448948,-3.27674 -28.4253589,-8.3692 -42.61562,-12.62897 -11.204131,-3.36336 -22.372758,-6.84423 -33.576571,-10.20865 -10.216948,-3.06807 -20.394665,-6.2768 -30.682278,-9.09887 -7.042724,-1.93195 -21.242852,-5.36028 -21.242852,-5.36028"
     id="path1192"
     inkscape:connector-curvature="0"
     sodipodi:nodetypes="caaaaac" />
  <path
     style="fill:none;stroke:#00ff00;stroke-width:16;stroke-linecap:butt;stroke-linejoin:miter;stroke-miterlimit:4;stroke-dasharray:none;stroke-opacity:1"
     d="m 190.33738,83.951441 c 26.41486,2.408617 51.61703,4.891348 74.8358,6.79783"
     id="path1194"
     inkscape:connector-curvature="0"
     sodipodi:nodetypes="cc" />
  <path
     style="fill:none;stroke:#007fff;stroke-width:16;stroke-linecap:butt;stroke-linejoin:miter;stroke-miterlimit:4;stroke-dasharray:none;stroke-opacity:1"
     d="m 189.04096,99.681588 c 24.77575,1.868702 50.95742,5.033262 75.75013,6.924582"
     id="path1196"
     inkscape:connector-curvature="0"
     sodipodi:nodetypes="cc" />
  <path
     style="fill:none;stroke:#7fff00;stroke-width:16;stroke-linecap:butt;stroke-linejoin:miter;stroke-miterlimit:4;stroke-dasharray:none;stroke-opacity:1"
     d="m 49.395864,61.424161 c 0,0 24.2003,6.24471 36.396953,8.954806 13.75184,3.055658 27.509143,6.221499 41.452083,8.232644 12.96982,1.870782 26.09197,2.47092 39.15143,3.550983 7.97537,0.659591 23.94105,1.788847 23.94105,1.788847"
     id="path1210"
     inkscape:connector-curvature="0"
     sodipodi:nodetypes="caaac" />
  <path
     style="fill:none;stroke:#ff7f00;stroke-width:16;stroke-linecap:butt;stroke-linejoin:miter;stroke-miterlimit:4;stroke-dasharray:none;stroke-opacity:1"
     d="m 46.07392,76.878423 c 0,0 16.179826,3.643972 24.264635,5.488429 10.885191,2.483333 21.694508,5.316633 32.641715,7.510483 10.91918,2.188233 21.88043,4.250366 32.93057,5.632861 10.78901,1.349825 21.67625,1.743606 32.5163,2.591021 6.87048,0.537096 20.61382,1.580371 20.61382,1.580371"
     id="path1212"
     inkscape:connector-curvature="0"
     sodipodi:nodetypes="caaaac" />
  <path
     style="fill:none;stroke:#00ff00;stroke-width:16;stroke-linecap:butt;stroke-linejoin:miter;stroke-miterlimit:4;stroke-dasharray:none;stroke-opacity:1"
     d="m -41.018788,40.337038 c 0,0 19.631619,4.574635 29.4642,6.788321 9.1853109,2.067961 18.4175487,3.927167 27.586579,6.066158 11.155336,2.602366 33.363873,8.232644 33.363873,8.232644"
     id="path1214"
     inkscape:connector-curvature="0"
     sodipodi:nodetypes="caac" />
  <path
     style="fill:none;stroke:#ff7f00;stroke-width:16;stroke-linecap:butt;stroke-linejoin:miter;stroke-miterlimit:4;stroke-dasharray:none;stroke-opacity:1"
     d="m -35.819223,52.613788 c 0,0 16.962615,4.953833 25.420094,7.510482 12.6379955,3.820395 25.161392,8.020038 37.841275,11.699021 6.180244,1.793156 18.631774,5.055132 18.631774,5.055132"
     id="path1216"
     inkscape:connector-curvature="0"
     sodipodi:nodetypes="caac" />
  <path
     style="opacity:0.57700004;fill:none;stroke:#7fff00;stroke-width:16;stroke-linecap:butt;stroke-linejoin:miter;stroke-miterlimit:4;stroke-dasharray:none;stroke-opacity:1"
     d="m 190.36863,83.545191 c 0,0 5.86739,1.03011 8.78311,0.681387 3.26977,-0.391068 6.48711,-1.513568 9.39162,-3.065402 2.84954,-1.522466 5.50367,-3.547884 7.62163,-5.987565 2.08975,-2.407186 3.68059,-5.288063 4.79281,-8.275463 0.92769,-2.49174 1.3059,-5.183681 1.48963,-7.836153 0.17373,-2.507999 0.18891,-5.082473 -0.37346,-7.532773 -0.67645,-2.94732 -1.95735,-5.777235 -3.54674,-8.349805 -1.60113,-2.591582 -3.51604,-5.0927 -5.92348,-6.959295 -2.92442,-2.267426 -6.4209,-3.848561 -9.97963,-4.862899 -3.14006,-0.895009 -9.74456,-0.99651 -9.74456,-0.99651"
     id="path1218"
     inkscape:connector-curvature="0"
     sodipodi:nodetypes="caaaaaaaaac" />
  <path
     style="opacity:0.72100004;fill:none;stroke:#00ff00;stroke-width:18;stroke-linecap:butt;stroke-linejoin:miter;stroke-miterlimit:4;stroke-dasharray:none;stroke-opacity:1"
     d="m 226.03663,90.166199 c 0,0 5.87549,-7.406461 8.08821,-11.554587 1.50645,-2.824099 2.64907,-5.860144 3.46638,-8.954806 1.00663,-3.81155 1.61427,-7.758579 1.73319,-11.699021 0.10058,-3.332962 -0.098,-6.721136 -0.8666,-9.965833 -0.99116,-4.184429 -2.44785,-8.366173 -4.76626,-11.987885 -1.46878,-2.294445 -5.63287,-5.921726 -5.63287,-5.921726"
     id="path1220"
     inkscape:connector-curvature="0"
     sodipodi:nodetypes="caaaaac" />
  <path
     style="opacity:0.55500034;fill:none;stroke:#ff7f00;stroke-width:19;stroke-linecap:butt;stroke-linejoin:miter;stroke-miterlimit:4;stroke-dasharray:none;stroke-opacity:1"
     d="m 246.25716,94.49917 c 0,0 5.36043,-10.111661 7.36605,-15.454262 1.44101,-3.838605 2.62032,-7.803757 3.32194,-11.843452 0.70201,-4.041923 0.92992,-8.174807 0.8666,-12.27675 -0.0441,-2.854813 -0.37361,-5.70924 -0.8666,-8.521509 -0.51818,-2.955956 -1.27616,-5.874174 -2.19012,-8.732645 -1.07922,-3.375303 -3.87604,-9.899128 -3.87604,-9.899128"
     id="path1222"
     inkscape:connector-curvature="0"
     sodipodi:nodetypes="caaaaac" />
  <path
     style="opacity:0.555;fill:none;stroke:#7fff00;stroke-width:16;stroke-linecap:butt;stroke-linejoin:miter;stroke-miterlimit:4;stroke-dasharray:none;stroke-opacity:1"
     d="m 66.48604,29.332163 c 0,0 -4.869775,0.08848 -7.268776,0.461313 -3.726824,0.579196 -7.703404,0.870936 -10.976859,2.744215 -3.220758,1.843123 -6.238467,4.577173 -7.799347,7.94378 -1.32189,2.851138 -1.588325,6.329428 -0.866594,9.388102 0.754766,3.198678 2.663626,6.286569 5.199565,8.377077 3.656666,3.014382 8.763332,3.645484 13.287777,5.055131 2.50835,0.781508 7.654914,1.877621 7.654914,1.877621"
     id="path1224"
     inkscape:connector-curvature="0"
     sodipodi:nodetypes="caaaaaac" />
  <path
     style="opacity:0.49300005;fill:none;stroke:#00ff00;stroke-width:18;stroke-linecap:butt;stroke-linejoin:miter;stroke-miterlimit:4;stroke-dasharray:none;stroke-opacity:1"
     d="m 36.25252,22.282994 c 0,0 -5.6446,3.291723 -7.654914,5.777294 -2.438086,3.014471 -4.149211,6.985185 -4.910701,10.543562 -0.789568,3.689583 -0.969737,4.888024 -1.011026,7.36605 -0.04677,2.806871 0.866594,8.377076 0.866594,8.377076"
     id="path1226"
     inkscape:connector-curvature="0"
     sodipodi:nodetypes="casac" />
  <path
     sodipodi:nodetypes="caac"
     inkscape:connector-curvature="0"
     id="path1228"
     d="m 15.809285,19.728406 c 0,0 -6.6202931,7.654756 -8.5876681,12.231556 C 5.6890962,35.52514 5.4793704,39.531404 4.9106998,43.370118 4.3862903,46.910054 3.8996732,54.058112 3.8996732,54.058112"
     style="opacity:0.49300005;fill:none;stroke:#00ff00;stroke-width:18;stroke-linecap:butt;stroke-linejoin:miter;stroke-miterlimit:4;stroke-dasharray:none;stroke-opacity:1" />
  <path
     style="opacity:0.42857145;fill:none;stroke:#ff7f00;stroke-width:30;stroke-linecap:butt;stroke-linejoin:miter;stroke-miterlimit:4;stroke-dasharray:none;stroke-opacity:1"
     d="M -1.844408,33.906133 -33.535795,47.15119"
     id="path2837"
     inkscape:connector-curvature="0"
     sodipodi:nodetypes="cc" />
  <g
     id="g6535"
     transform="translate(350)">
    <image
       sodipodi:absref="carmen_lcad/data/road_mapper_remission_350px/voltadaufes/i7757190_-364140.png"
       xlink:href="carmen_lcad/data/road_mapper_remission_350px/voltadaufes/i7757190_-364140.png"
       y="0"
       x="0"
       id="image18"
       preserveAspectRatio="none"
       height="350"
       width="350" />
    <path
       sodipodi:nodetypes="ccc"
       inkscape:connector-curvature="0"
       id="path4563"
       d="m 261.02607,122.5499 59.57027,8.12322 66.88115,9.47709"
       style="fill:none;stroke:#7f00ff;stroke-width:22;stroke-linecap:butt;stroke-linejoin:miter;stroke-miterlimit:4;stroke-dasharray:none;stroke-opacity:1" />
    <path
       sodipodi:nodetypes="cac"
       inkscape:connector-curvature="0"
       id="path4565"
       d="m 390.67058,118.41284 c 0,0 -44.2512,-6.05198 -66.37185,-9.11388 -20.0108,-2.76985 -60.02337,-8.37451 -60.02337,-8.37451"
       style="fill:none;stroke:#7f00ff;stroke-width:22;stroke-linecap:butt;stroke-linejoin:miter;stroke-miterlimit:4;stroke-dasharray:none;stroke-opacity:1" />
    <path
       sodipodi:nodetypes="cc"
       inkscape:connector-curvature="0"
       id="path4598"
       d="m 206.58335,114.92095 54.44272,7.62895"
       style="opacity:0.69100001;fill:none;stroke:#ff0000;stroke-width:22;stroke-linecap:butt;stroke-linejoin:miter;stroke-miterlimit:4;stroke-dasharray:none;stroke-opacity:1" />
    <path
       sodipodi:nodetypes="cac"
       inkscape:connector-curvature="0"
       id="path4600-3"
       d="M 370.33333,259.66667 C 311.16671,251.32663 251.30344,244.00973 191.76987,236.32465 121.19445,227.2142 50.746065,217.9695 -20,209.33333"
       style="fill:none;stroke:#0000ff;stroke-width:18;stroke-linecap:butt;stroke-linejoin:miter;stroke-miterlimit:4;stroke-dasharray:none;stroke-opacity:1" />
    <path
       sodipodi:nodetypes="cac"
       inkscape:connector-curvature="0"
       id="path4602-6"
       d="M 372.94092,242.99234 C 315.89454,234.75521 257.304,227.64695 199.46037,220.1673 127.04189,210.803 55.387002,201.73582 -17.857035,192.55789"
       style="fill:none;stroke:#ff007f;stroke-width:16;stroke-linecap:butt;stroke-linejoin:miter;stroke-miterlimit:4;stroke-dasharray:none;stroke-opacity:1" />
    <path
       sodipodi:nodetypes="csc"
       inkscape:connector-curvature="0"
       id="path4604-7"
       d="m 368.68781,276.05761 c 0,0 -123.93561,-16.10903 -185.90342,-24.16354 -68.30189,-8.87782 -204.905659,-26.63344 -204.905659,-26.63344"
       style="fill:none;stroke:#7f00ff;stroke-width:16;stroke-linecap:butt;stroke-linejoin:miter;stroke-miterlimit:4;stroke-dasharray:none;stroke-opacity:1" />
    <path
       sodipodi:nodetypes="caaaaaasc"
       inkscape:connector-curvature="0"
       id="path1148-5"
       d="m -84.82682,90.749271 c 0,0 34.13283,0.689007 51.20059,0.955235 14.65543,0.2286 29.31439,0.234993 43.9682,0.55137 9.68778,0.20916 19.37212,0.558701 29.05649,0.890391 7.50463,0.257033 15.01514,0.407101 22.51097,0.852208 13.8481,0.822307 27.65734,2.204348 41.48176,3.358305 10.80455,0.901882 21.65493,1.390475 32.4068,2.78657 11.79958,1.53214 22.19726,4.4684 35.1663,6.12608 12.88772,1.64729 35.98954,5.61009 35.98954,5.61009"
       style="opacity:0.28300003;fill:none;stroke:#7fff00;stroke-width:16;stroke-linecap:butt;stroke-linejoin:miter;stroke-miterlimit:4;stroke-dasharray:none;stroke-opacity:1" />
    <path
       sodipodi:nodetypes="caaaaaaaac"
       inkscape:connector-curvature="0"
       id="path1150-3"
       d="m -85.20891,106.60617 c 0,0 24.38803,0.69853 36.5855,0.85971 10.85693,0.14347 21.71684,-0.0674 32.5735,0.0955 15.28764,0.2294 30.56859,0.78987 45.85127,1.2418 10.42878,0.3084 20.85321,0.7698 31.28394,1.003 12.57512,0.28115 25.1577,0.15302 37.73178,0.47762 10.62355,0.27425 21.24327,0.71061 31.85708,1.24181 10.16618,0.5088 20.33384,1.04508 30.47981,1.86317 8.59365,0.69293 17.16394,1.65409 25.73576,2.57867 6.76754,0.72996 20.28543,2.34378 20.28543,2.34378"
       style="opacity:1;fill:none;stroke:#ff7f00;stroke-width:16;stroke-linecap:butt;stroke-linejoin:miter;stroke-miterlimit:4;stroke-dasharray:none;stroke-opacity:1" />
    <path
       sodipodi:nodetypes="cccc"
       inkscape:connector-curvature="0"
       id="path6241"
       d="m 264.27536,100.92445 -52.07504,-8.186617 -31.54329,-5.325491 -36.04948,-6.55445"
       style="opacity:0.456;fill:none;fill-rule:evenodd;stroke:#7f00ff;stroke-width:23.79999924;stroke-linecap:butt;stroke-linejoin:miter;stroke-miterlimit:4;stroke-dasharray:none;stroke-opacity:1" />
    <path
       sodipodi:nodetypes="cccc"
       inkscape:connector-curvature="0"
       id="path6243"
       d="M 148.29443,79.26898 97.638016,68.448314 44.319282,55.407128 -17.38011,39.185691"
       style="opacity:0.48500001;fill:none;fill-rule:evenodd;stroke:#ff0000;stroke-width:30.89999962;stroke-linecap:butt;stroke-linejoin:miter;stroke-miterlimit:4;stroke-dasharray:none;stroke-opacity:1" />
  </g>
  <path
     style="fill:none;fill-rule:evenodd;stroke:#ff0000;stroke-width:33.2;stroke-linecap:butt;stroke-linejoin:miter;stroke-opacity:1;stroke-miterlimit:4;stroke-dasharray:none;opacity:0.478"
     d="m 360.5,46.5 -46.25,-11.75 -65.5,-9 -63,-3.25 -59.5,-0.25 L 83,22 53.75,21.75"
     id="path6537"
     inkscape:connector-curvature="0" />
  <path
     style="opacity:0.51799999;fill:none;fill-rule:evenodd;stroke:#ff7f00;stroke-width:28.20000076;stroke-linecap:butt;stroke-linejoin:miter;stroke-miterlimit:4;stroke-dasharray:none;stroke-opacity:1"
     d="m 60.5,18.5 -43,-5.75"
     id="path6539"
     inkscape:connector-curvature="0"
     sodipodi:nodetypes="cc" />
  <path
     style="opacity:0.53699999;fill:none;fill-rule:evenodd;stroke:#ff7f00;stroke-width:21.29999924;stroke-linecap:butt;stroke-linejoin:miter;stroke-miterlimit:4;stroke-dasharray:none;stroke-opacity:1"
     d="M 25.5,10 -6.25,6.0000002"
     id="path6541"
     inkscape:connector-curvature="0"
     sodipodi:nodetypes="cc" />
</svg>
