<?xml version="1.0" encoding="UTF-8" standalone="no"?>
<!-- Created with Inkscape (http://www.inkscape.org/) -->

<svg
   xmlns:dc="http://purl.org/dc/elements/1.1/"
   xmlns:cc="http://creativecommons.org/ns#"
   xmlns:rdf="http://www.w3.org/1999/02/22-rdf-syntax-ns#"
   xmlns:svg="http://www.w3.org/2000/svg"
   xmlns="http://www.w3.org/2000/svg"
   xmlns:xlink="http://www.w3.org/1999/xlink"
   xmlns:sodipodi="http://sodipodi.sourceforge.net/DTD/sodipodi-0.dtd"
   xmlns:inkscape="http://www.inkscape.org/namespaces/inkscape"
   version="1.1"
   id="svg12069"
   width="350"
   height="350"
   viewBox="0 0 350 350"
   sodipodi:docname="i7757190_-363650.svg"
   inkscape:version="0.92.2 (unknown)">
  <metadata
     id="metadata12075">
    <rdf:RDF>
      <cc:Work
         rdf:about="">
        <dc:format>image/svg+xml</dc:format>
        <dc:type
           rdf:resource="http://purl.org/dc/dcmitype/StillImage" />
        <dc:title></dc:title>
      </cc:Work>
    </rdf:RDF>
  </metadata>
  <defs
     id="defs12073" />
  <sodipodi:namedview
     pagecolor="#ffffff"
     bordercolor="#666666"
     borderopacity="1"
     objecttolerance="10"
     gridtolerance="10"
     guidetolerance="10"
     inkscape:pageopacity="0"
     inkscape:pageshadow="2"
     inkscape:window-width="1855"
     inkscape:window-height="1056"
     id="namedview12071"
     showgrid="false"
     inkscape:zoom="0.92327943"
     inkscape:cx="-29.325914"
     inkscape:cy="218.02279"
     inkscape:window-x="65"
     inkscape:window-y="24"
     inkscape:window-maximized="1"
     inkscape:current-layer="svg12069" />
  <image
     width="350"
     height="350"
     preserveAspectRatio="none"
     xlink:href="carmen_lcad/data/road_mapper_remission_350px/voltadaufes/i7757190_-363650.png"
     id="image12077"
     x="0"
     y="0"
     sodipodi:absref="carmen_lcad/data/road_mapper_remission_350px/voltadaufes/i7757190_-363650.png" />
  <image
     width="350"
     height="350"
     preserveAspectRatio="none"
     xlink:href="carmen_lcad/data/road_mapper_remission_350px/voltadaufes/i7757120_-363650.png"
     id="image11189"
     x="-350"
     y="0"
     sodipodi:absref="carmen_lcad/data/road_mapper_remission_350px/voltadaufes/i7757120_-363650.png" />
  <image
     width="350"
     height="350"
     preserveAspectRatio="none"
     xlink:href="carmen_lcad/data/road_mapper_remission_350px/voltadaufes/i7757120_-363720.png"
     id="image10866"
     x="-350"
     y="350"
     sodipodi:absref="carmen_lcad/data/road_mapper_remission_350px/voltadaufes/i7757120_-363720.png" />
  <path
     style="display:none;opacity:0.28999999;fill:none;stroke:#00ff00;stroke-width:25;stroke-linecap:butt;stroke-linejoin:miter;stroke-miterlimit:4;stroke-dasharray:none;stroke-opacity:1"
     d="m 2131.2234,17320.7 -35.7089,-9.988"
     id="path2589"
     inkscape:connector-curvature="0" />
  <path
     style="opacity:0.53299997;fill:none;stroke:#ff0000;stroke-width:17;stroke-linecap:butt;stroke-linejoin:miter;stroke-miterlimit:4;stroke-dasharray:none;stroke-opacity:1"
     d="m -524.80365,560.53225 c 69.33082,-41.0619 133.75614,-78.8887 200.5393,-117.9124"
     id="path10766"
     inkscape:connector-curvature="0"
     sodipodi:nodetypes="cc" />
  <path
     style="opacity:0.59200003;fill:none;stroke:#ff0000;stroke-width:17;stroke-linecap:butt;stroke-linejoin:miter;stroke-miterlimit:4;stroke-dasharray:none;stroke-opacity:1"
     d="m -333.10134,428.68455 c -40.46001,23.5255 -71.71412,41.7131 -107.49475,62.7003 -30.88491,18.1156 -92.52224,54.572 -92.52224,54.572"
     id="path10768"
     inkscape:connector-curvature="0"
     sodipodi:nodetypes="cac" />
  <path
     style="opacity:0.54799996;fill:none;stroke:#ff0000;stroke-width:17;stroke-linecap:butt;stroke-linejoin:miter;stroke-miterlimit:4;stroke-dasharray:none;stroke-opacity:1"
     d="m -324.26435,442.61985 c 0,0 64.14999,-35.3036 95.91317,-53.5068 17.91995,-10.2697 35.80097,-20.6183 53.40088,-31.4273 9.53293,-5.8547 28.26303,-18.0994 28.26303,-18.0994"
     id="path11115"
     inkscape:connector-curvature="0"
     sodipodi:nodetypes="caac" />
  <path
     style="opacity:0.53299997;fill:none;stroke:#ff0000;stroke-width:17;stroke-linecap:butt;stroke-linejoin:miter;stroke-miterlimit:4;stroke-dasharray:none;stroke-opacity:1"
     d="m -156.06017,325.63185 c 0,0 -16.18693,11.282 -24.55549,16.498 -12.5643,7.8311 -25.65339,14.7871 -38.47478,22.1898 -18.34745,10.5934 -36.58112,21.3856 -55.02717,31.8063 -19.55326,11.0463 -58.98373,32.5586 -58.98373,32.5586"
     id="path11117"
     inkscape:connector-curvature="0"
     sodipodi:nodetypes="caaac" />
  <image
     sodipodi:absref="carmen_lcad/data/road_mapper_remission_350px/voltadaufes/i7757190_-363580.png"
     y="-350"
     x="0"
     id="image11592"
     xlink:href="carmen_lcad/data/road_mapper_remission_350px/voltadaufes/i7757190_-363580.png"
     preserveAspectRatio="none"
     height="350"
     width="350" />
  <image
     sodipodi:absref="carmen_lcad/data/road_mapper_remission_350px/voltadaufes/i7757260_-363580.png"
     y="-350"
     x="350"
     id="image11657"
     xlink:href="carmen_lcad/data/road_mapper_remission_350px/voltadaufes/i7757260_-363580.png"
     preserveAspectRatio="none"
     height="350"
     width="350" />
  <path
     style="opacity:0.53299997;fill:none;stroke:#ff0000;stroke-width:17;stroke-linecap:butt;stroke-linejoin:miter;stroke-miterlimit:4;stroke-dasharray:none;stroke-opacity:1"
     d="m -146.68727,339.58635 c 0,0 11.59692,-9.3769 16.55569,-14.9037 8.65724,-9.6488 16.56963,-20.1472 22.74502,-31.5451 5.25402,-9.6974 8.443891,-20.3992 11.914051,-30.8682 3.5966,-10.8506 5.89108,-22.0947 9.20631,-33.0345 3.27802,-10.817 6.08567,-21.8427 10.56018,-32.2221 4.26891,-9.9025 9.47516,-19.4438 15.43411,-28.4312 6.95597,-10.4912 14.91507,-20.3623 23.55734,-29.5144 9.6543,-10.2238 20.40944,-19.4012 31.4097795,-28.1605 10.53928,-8.3921 21.7555105,-15.918303 33.0344205,-23.286503 17.83159,-11.6489 36.57607,-21.8399 54.69633,-33.0345 21.707849,-13.4109 43.450659,-26.7831 64.714969,-40.8868 16.85943,-11.1820997 49.8224,-34.6591 49.8224,-34.6591"
     id="path11660"
     inkscape:connector-curvature="0"
     sodipodi:nodetypes="caaaaaaaaaaac" />
  <path
     style="opacity:0.60700001;fill:none;stroke:#ff0000;stroke-width:17;stroke-linecap:butt;stroke-linejoin:miter;stroke-miterlimit:4;stroke-dasharray:none;stroke-opacity:1"
     d="m 187.16901,-34.657553 c 0,0 -23.28244,17.3563 -35.30713,25.4856003 -20.07619,13.5725 -40.87696,26.0428997 -61.452069,38.8463997 -16.57871,10.3167 -33.32113,20.3681 -49.95381,30.5975 -8.33309,5.125 -16.84221,9.9776 -24.97126,15.4205 -9.9579305,6.6674 -19.6099305,13.7927 -29.11782,21.0875 -7.2812,5.586403 -14.65606,11.102103 -21.3719,17.356803 -9.39959,8.7541 -18.07343,18.2937 -26.35565,28.1117 -5.20228,6.1669 -10.34547,12.4478 -14.61616,19.2929 -6.30376,10.1038 -11.52237,20.9002 -16.09346,31.8969 -3.91514,9.4188 -6.63897,19.2934 -9.643671,29.0409 -3.48324,11.2999 -5.95381,22.9071 -9.71501,34.1175 -3.37297,10.0533 -6.36797,20.3821 -11.50391,29.6594 -6.14933,11.1078 -14.10983,21.252 -22.78349,30.5237 -3.10029,3.3141 -10.34384,8.8521 -10.34384,8.8521"
     id="path11662"
     inkscape:connector-curvature="0"
     sodipodi:nodetypes="caaaaaaaaaaaaac" />
</svg>
