<?xml version="1.0" encoding="UTF-8" standalone="no"?>
<!-- Created with Inkscape (http://www.inkscape.org/) -->

<svg
   xmlns:dc="http://purl.org/dc/elements/1.1/"
   xmlns:cc="http://creativecommons.org/ns#"
   xmlns:rdf="http://www.w3.org/1999/02/22-rdf-syntax-ns#"
   xmlns:svg="http://www.w3.org/2000/svg"
   xmlns="http://www.w3.org/2000/svg"
   xmlns:xlink="http://www.w3.org/1999/xlink"
   xmlns:sodipodi="http://sodipodi.sourceforge.net/DTD/sodipodi-0.dtd"
   xmlns:inkscape="http://www.inkscape.org/namespaces/inkscape"
   version="1.1"
   id="svg29"
   width="350"
   height="350"
   viewBox="0 0 350 350"
   sodipodi:docname="i7757610_-363650.svg"
   inkscape:version="0.92.2 (unknown)">
  <metadata
     id="metadata35">
    <rdf:RDF>
      <cc:Work
         rdf:about="">
        <dc:format>image/svg+xml</dc:format>
        <dc:type
           rdf:resource="http://purl.org/dc/dcmitype/StillImage" />
        <dc:title />
      </cc:Work>
    </rdf:RDF>
  </metadata>
  <defs
     id="defs33" />
  <sodipodi:namedview
     pagecolor="#ffffff"
     bordercolor="#666666"
     borderopacity="1"
     objecttolerance="10"
     gridtolerance="10"
     guidetolerance="10"
     inkscape:pageopacity="0"
     inkscape:pageshadow="2"
     inkscape:window-width="1855"
     inkscape:window-height="1056"
     id="namedview31"
     showgrid="false"
     inkscape:zoom="18.328208"
     inkscape:cx="338.31553"
     inkscape:cy="208.57024"
     inkscape:window-x="65"
     inkscape:window-y="24"
     inkscape:window-maximized="1"
     inkscape:current-layer="svg29"
     inkscape:measure-start="331.62,193.8"
     inkscape:measure-end="343.623,202.529"
     showguides="true"
     inkscape:guide-bbox="true" />
  <image
     sodipodi:absref="carmen_lcad/data/road_mapper_remission_350px/voltadaufes/i7757680_-363650.png"
     y="0"
     x="350"
     id="image4722"
     xlink:href="carmen_lcad/data/road_mapper_remission_350px/voltadaufes/i7757680_-363650.png"
     preserveAspectRatio="none"
     height="350"
     width="350" />
  <image
     width="350"
     height="350"
     preserveAspectRatio="none"
     xlink:href="carmen_lcad/data/road_mapper_remission_350px/voltadaufes/i7757610_-363650.png"
     id="image37"
     x="0"
     y="0"
     sodipodi:absref="carmen_lcad/data/road_mapper_remission_350px/voltadaufes/i7757610_-363650.png" />
  <image
     width="350"
     height="350"
     preserveAspectRatio="none"
     xlink:href="carmen_lcad/data/road_mapper_remission_350px/voltadaufes/i7757540_-363650.png"
     id="image3535"
     x="-350"
     y="6.1035156e-05"
     sodipodi:absref="carmen_lcad/data/road_mapper_remission_350px/voltadaufes/i7757540_-363650.png" />
  <image
     sodipodi:absref="carmen_lcad/data/road_mapper_remission_350px/voltadaufes/i7757610_-363720.png"
     y="350"
     x="0"
     id="image3458"
     xlink:href="carmen_lcad/data/road_mapper_remission_350px/voltadaufes/i7757610_-363720.png"
     preserveAspectRatio="none"
     height="350"
     width="350" />
  <image
     width="350"
     height="350"
     preserveAspectRatio="none"
     xlink:href="carmen_lcad/data/road_mapper_remission_350px/voltadaufes/i7757540_-363720.png"
     id="image2948"
     x="-350"
     y="350"
     sodipodi:absref="carmen_lcad/data/road_mapper_remission_350px/voltadaufes/i7757540_-363720.png" />
  <image
     width="350"
     height="350"
     preserveAspectRatio="none"
     xlink:href="carmen_lcad/data/road_mapper_remission_350px/voltadaufes/i7757470_-363720.png"
     id="image2709"
     x="-700"
     y="350"
     sodipodi:absref="carmen_lcad/data/road_mapper_remission_350px/voltadaufes/i7757470_-363720.png" />
  <image
     width="350"
     height="350"
     preserveAspectRatio="none"
     xlink:href="carmen_lcad/data/road_mapper_remission_350px/voltadaufes/i7757470_-363650.png"
     id="image2112"
     x="-700"
     y="0"
     sodipodi:absref="carmen_lcad/data/road_mapper_remission_350px/voltadaufes/i7757470_-363650.png" />
  <image
     width="350"
     height="350"
     preserveAspectRatio="none"
     xlink:href="carmen_lcad/data/road_mapper_remission_350px/voltadaufes/i7757400_-363650.png"
     id="image1882"
     x="-1050"
     y="0"
     sodipodi:absref="carmen_lcad/data/road_mapper_remission_350px/voltadaufes/i7757400_-363650.png" />
  <image
     width="350"
     height="350"
     preserveAspectRatio="none"
     xlink:href="carmen_lcad/data/road_mapper_remission_350px/voltadaufes/i7757400_-363580.png"
     id="image1664"
     x="-1050"
     y="-349.99997"
     sodipodi:absref="carmen_lcad/data/road_mapper_remission_350px/voltadaufes/i7757400_-363580.png" />
  <path
     style="display:none;opacity:0.28999999;fill:none;stroke:#00ff00;stroke-width:25;stroke-linecap:butt;stroke-linejoin:miter;stroke-miterlimit:4;stroke-dasharray:none;stroke-opacity:1"
     d="m -4425.0447,24545.717 -35.7089,-9.988"
     id="path2589"
     inkscape:connector-curvature="0" />
  <path
     style="opacity:0.53699999;fill:none;stroke:#ff0000;stroke-width:18;stroke-linecap:butt;stroke-linejoin:miter;stroke-miterlimit:4;stroke-dasharray:none;stroke-opacity:1"
     d="m -1316.734,-421.36078 c 13.1872,4.21713 21.1271,5.75017 31.4752,9.30026 16.4863,5.65586 32.6952,12.13981 48.6805,19.08672 15.213,6.61137 30.3134,13.55961 44.8894,21.47726 10.2248,5.55399 20.0147,11.88505 29.7784,18.21437 13.7022,8.88243 27.2899,17.97222 40.3947,27.71466 7.1455,5.31229 14.1989,10.78169 20.8166,16.73872 9.6379,8.67572 18.8613,17.85435 27.4208,27.5957 10.1738,11.57865 18.8769,24.37093 28.3354,36.54088 8.146,10.48111 16.3023,20.95413 24.4722,31.41657 4.7655,6.10265 6.8539,9.11706 14.3182,18.29086"
     id="path1485"
     inkscape:connector-curvature="0"
     sodipodi:nodetypes="caaaaaaaaac" />
  <path
     style="opacity:0.53299997;fill:none;stroke:#ff0000;stroke-width:18;stroke-linecap:butt;stroke-linejoin:miter;stroke-miterlimit:4;stroke-dasharray:none;stroke-opacity:1"
     d="m -992.36236,-206.54195 c -9.60594,-11.86335 -12.66514,-15.61258 -18.89534,-23.49562 -8.6635,-10.96197 -16.8543,-22.29033 -25.4294,-33.32162 -7.8761,-10.13202 -15.3669,-20.59742 -23.8979,-30.18448 -7.1455,-8.03016 -14.7723,-15.6543 -22.7858,-22.81869 -10.4004,-9.29859 -21.5544,-17.73433 -32.7297,-26.08604 -10.2431,-7.65518 -20.7693,-14.93478 -31.4289,-21.99839 -8.0268,-5.31895 -16.1449,-10.51514 -24.4791,-15.33839 -10.7987,-6.24965 -21.8805,-12.00889 -33.0344,-17.6003 -9.0958,-4.55975 -18.3116,-8.88594 -27.6188,-12.99714 -9.2915,-4.10424 -12.6819,-6.33666 -28.1605,-11.64328"
     id="path1487"
     inkscape:connector-curvature="0"
     sodipodi:nodetypes="csaaaaaaaac" />
  <path
     style="opacity:0.603;fill:none;stroke:#00ff7f;stroke-width:18;stroke-linecap:butt;stroke-linejoin:miter;stroke-miterlimit:4;stroke-dasharray:none;stroke-opacity:1"
     d="m -1006.1526,-194.98478 c 19.34044,24.26019 32.44304,42.44887 56.79404,73.39415"
     id="path1848"
     inkscape:connector-curvature="0"
     sodipodi:nodetypes="cc" />
  <path
     style="opacity:0.48900003;fill:none;stroke:#ff0000;stroke-width:18;stroke-linecap:butt;stroke-linejoin:miter;stroke-miterlimit:4;stroke-dasharray:none;stroke-opacity:1"
     d="m -949.35856,-121.59063 c 44.2998,54.542298 84.0144,109.854728 125.2406,163.569528 43.48024,56.65152 88.04794,111.098602 131.34584,169.255982"
     id="path1850"
     inkscape:connector-curvature="0"
     sodipodi:nodetypes="csc" />
  <path
     style="opacity:0.55100002;fill:none;stroke:#00ff7f;stroke-width:18;stroke-linecap:butt;stroke-linejoin:miter;stroke-miterlimit:4;stroke-dasharray:none;stroke-opacity:1"
     d="m -693.10722,210.99558 c 14.1177,20.7708 20.5744,29.0553 32.0349,42.6488 10.2629,12.173 16.0059,16.5466 32.7928,34.7307"
     id="path1852"
     inkscape:connector-curvature="0"
     sodipodi:nodetypes="cac" />
  <path
     style="opacity:0.56600001;fill:none;stroke:#ff007f;stroke-width:18;stroke-linecap:butt;stroke-linejoin:miter;stroke-miterlimit:4;stroke-dasharray:none;stroke-opacity:1"
     d="m -615.53062,276.75168 c -16.64064,-18.8431 -24.03188,-24.8984 -35.05593,-38.2122 -9.94526,-12.011 -15.26597,-19.898 -27.96927,-37.5002"
     id="path1854"
     inkscape:connector-curvature="0"
     sodipodi:nodetypes="cac" />
  <path
     style="opacity:0.53299997;fill:none;stroke:#ff0000;stroke-width:18;stroke-linecap:butt;stroke-linejoin:miter;stroke-miterlimit:4;stroke-dasharray:none;stroke-opacity:1"
     d="m -678.55582,201.03928 c -52.4615,-70.08568 -85.6541,-109.986652 -127.8993,-165.426622 -42.74684,-56.09812 -75.73804,-101.40175 -128.98254,-168.331538"
     id="path1856"
     inkscape:connector-curvature="0"
     sodipodi:nodetypes="csc" />
  <path
     style="opacity:0.55500034;fill:none;stroke:#ff007f;stroke-width:18;stroke-linecap:butt;stroke-linejoin:miter;stroke-miterlimit:4;stroke-dasharray:none;stroke-opacity:1"
     d="m -935.43766,-132.71888 c -27.4783,-35.82803 -37.7424,-49.31492 -56.9247,-73.82307"
     id="path1858"
     inkscape:connector-curvature="0"
     sodipodi:nodetypes="cc" />
  <path
     style="opacity:0.522;fill:none;stroke:#ff7f00;stroke-width:19;stroke-linecap:butt;stroke-linejoin:miter;stroke-miterlimit:4;stroke-dasharray:none;stroke-opacity:1"
     d="m -1006.1526,-194.98478 c 4.9072,6.12698 5.8375,9.16042 6.51654,14.37853 0.5963,4.58351 -0.53174,9.40424 -2.30164,13.67409 -1.8462,4.45373 -5.4594,7.95351 -8.394,11.77866 -4.6635,6.0785 -9.3881,12.13849 -14.6243,17.73102 -3.6007,3.8456 -3.121,3.94546 -11.5054,10.83563"
     id="path1860"
     inkscape:connector-curvature="0"
     sodipodi:nodetypes="caaaac" />
  <path
     style="opacity:0.5;fill:none;stroke:#ff7f00;stroke-width:19;stroke-linecap:butt;stroke-linejoin:miter;stroke-miterlimit:4;stroke-dasharray:none;stroke-opacity:1"
     d="m -1024.0058,-112.10045 c 9.8343,-9.21105 12.3579,-11.22093 19.4957,-15.43412 4.4245,-2.61161 9.26434,-4.58562 14.21574,-5.95702 3.6473,-1.01021 7.4544,-1.74845 11.2371,-1.62464 6.0863,0.19922 12.3846,1.14849 17.871,3.79084 4.6005,2.21564 5.3001,1.66616 11.8277,9.73476"
     id="path1862"
     inkscape:connector-curvature="0"
     sodipodi:nodetypes="caaaac" />
  <path
     style="opacity:0.38200001;fill:none;stroke:#00ff00;stroke-width:23.5;stroke-linecap:butt;stroke-linejoin:miter;stroke-miterlimit:4;stroke-dasharray:none;stroke-opacity:1"
     d="m -1020.9243,-128.0041 c 14.9922,-11.91394 27.07974,-19.79958 35.15374,-26.03627"
     id="path1864"
     inkscape:connector-curvature="0"
     sodipodi:nodetypes="cc" />
  <path
     style="opacity:0.61400003;fill:none;stroke:#ff7f00;stroke-width:18;stroke-linecap:butt;stroke-linejoin:miter;stroke-miterlimit:4;stroke-dasharray:none;stroke-opacity:1"
     d="m -693.10722,210.99558 c 5.73744,8.6707 8.4269,17.256 9.57329,26.6138 0.42124,3.4385 0.0545,7.0567 -1.05306,10.3391 -2.34476,6.9488 -6.63134,13.2686 -11.48796,18.7637 -6.10566,6.9084 -9.12618,7.7526 -21.63567,17.232"
     id="path2090"
     inkscape:connector-curvature="0"
     sodipodi:nodetypes="caaac" />
  <path
     style="opacity:0.58499995;fill:none;stroke:#ff7f00;stroke-width:18;stroke-linecap:butt;stroke-linejoin:miter;stroke-miterlimit:4;stroke-dasharray:none;stroke-opacity:1"
     d="m -706.70132,296.67668 c 11.29024,-10.0146 12.68815,-12.0043 20.29541,-16.0832 5.91427,-3.1712 12.46638,-5.5827 19.1466,-6.2226 6.97781,-0.6685 14.26815,0.2279 20.8698,2.5847 6.72109,2.3995 9.68001,2.2626 18.10999,11.4195"
     id="path2092"
     inkscape:connector-curvature="0"
     sodipodi:nodetypes="caaac" />
  <path
     style="opacity:0.37099998;fill:none;stroke:#00ff00;stroke-width:20;stroke-linecap:butt;stroke-linejoin:miter;stroke-miterlimit:4;stroke-dasharray:none;stroke-opacity:1"
     d="m -688.03338,271.30738 c 6.05865,-4.9147 13.89016,-9.506 18.76368,-13.6898"
     id="path2094"
     inkscape:connector-curvature="0"
     sodipodi:nodetypes="cc" />
  <image
     sodipodi:absref="carmen_lcad/data/road_mapper_remission_350px/voltadaufes/i7757400_-363720.png"
     y="349.99988"
     x="-1050"
     id="image2502"
     xlink:href="carmen_lcad/data/road_mapper_remission_350px/voltadaufes/i7757400_-363720.png"
     preserveAspectRatio="none"
     height="350"
     width="350" />
  <path
     style="opacity:0.5;fill:none;stroke:#ff0000;stroke-width:18;stroke-linecap:butt;stroke-linejoin:miter;stroke-miterlimit:4;stroke-dasharray:none;stroke-opacity:1"
     d="m -628.27952,288.37508 c 12.14677,12.3357 23.25191,21.2029 35.64865,30.8664 10.22283,7.969 20.8815,15.4032 31.85841,22.2964 8.67906,5.4503 17.70375,10.3499 26.82023,15.032 8.43328,4.3311 16.97794,8.4827 25.75588,12.0642 12.0543,4.9182 24.36474,9.2614 36.86375,12.9042 10.21949,2.9784 20.65269,5.2023 31.08973,7.2945 12.53423,2.5125 25.16699,4.5451 37.82855,6.3071 13.26323,1.8458 26.55677,3.6718 39.92437,4.4638 20.98986,1.2435 42.05248,0.6146 63.07844,0.4421 20.49205,-0.1681 34.1832,-0.7029 61.46138,-1.4395"
     id="path2635"
     inkscape:connector-curvature="0"
     sodipodi:nodetypes="caaaaaaaaac" />
  <path
     style="opacity:0.51099997;fill:none;stroke:#ff0000;stroke-width:18;stroke-linecap:butt;stroke-linejoin:miter;stroke-miterlimit:4;stroke-dasharray:none;stroke-opacity:1"
     d="m -292.43304,382.22148 c -20.76021,0.3813 -37.14135,0.9434 -55.68936,0.1919 -15.7884,-0.6397 -31.57089,-1.9211 -47.23519,-3.9978 -18.90247,-2.5059 -37.74209,-5.7629 -56.28782,-10.1945 -13.07629,-3.1247 -26.05875,-6.8175 -38.64982,-11.5311 -14.01496,-5.2466 -27.72044,-11.4334 -40.87327,-18.5713 -15.84742,-8.6001 -31.07571,-18.4119 -45.59984,-29.0962 -13.68128,-10.0643 -20.30643,-14.3398 -38.95374,-32.8452"
     id="path2637"
     inkscape:connector-curvature="0"
     sodipodi:nodetypes="caaaaaac" />
  <path
     style="opacity:0.456;fill:none;stroke:#ff0000;stroke-width:17;stroke-linecap:butt;stroke-linejoin:miter;stroke-miterlimit:4;stroke-dasharray:none;stroke-opacity:1"
     d="m 207.18702,211.10675 c 28.71138,-22.27566 34.37784,-26.81719 51.61753,-40.16035 14.94634,-11.56816 27.23223,-21.65297 44.92679,-34.59079"
     id="path39-6"
     inkscape:connector-curvature="0"
     sodipodi:nodetypes="cac" />
  <path
     style="opacity:0.50700001;fill:none;stroke:#ff0000;stroke-width:17;stroke-linecap:butt;stroke-linejoin:miter;stroke-miterlimit:4;stroke-dasharray:none;stroke-opacity:1"
     d="m 361.50407,70.834407 c -24.51746,19.070244 -30.21368,23.827288 -44.97782,34.577063 -15.02252,10.9379 -29.58979,22.48811 -44.32109,33.8152 -15.6086,12.00166 -31.14771,24.0935 -46.69036,36.18045 -7.14817,5.55889 -14.23634,11.1951 -21.41575,16.71359 -8.73137,6.7114 -17.58795,13.25854 -26.34165,19.94079 -13.57475,10.36246 -23.71483,18.10177 -40.59868,31.25117"
     id="path4535-7"
     inkscape:connector-curvature="0"
     sodipodi:nodetypes="csaaaac" />
  <path
     style="opacity:0.55100002;fill:none;stroke:#ff0000;stroke-width:14;stroke-linecap:butt;stroke-linejoin:miter;stroke-miterlimit:4;stroke-dasharray:none;stroke-opacity:1"
     d="m 102.61595,245.56652 c -8.36325,0.17078 -10.957031,-0.24281 -16.222008,1.03738 -5.101205,1.24035 -9.773473,3.88826 -14.424159,6.32381 -11.105733,5.81604 -21.077705,13.61167 -32.030151,19.71147 -9.309274,5.18466 -18.85464,9.9655 -28.57803,14.3243 -10.83184991,4.8556 -21.90161,9.1965 -33.09451,13.1494 -18.59907,6.5684 -37.59938,11.9493 -56.51813,17.5306 -25.314982,7.4681 -54.717462,16.1653 -76.248902,21.3472"
     id="path4712-5"
     inkscape:connector-curvature="0"
     sodipodi:nodetypes="caaaaaac" />
  <path
     style="opacity:0.53699999;fill:none;stroke:#7fff00;stroke-width:17;stroke-linecap:butt;stroke-linejoin:miter;stroke-miterlimit:4;stroke-dasharray:none;stroke-opacity:1"
     d="m -197.30674,377.93078 c -12.4302,1.6132 -15.74782,1.8904 -23.65025,2.5327 -6.62324,0.5384 -13.26377,0.8666 -19.90453,1.1064 -8.45508,0.3052 -16.91835,0.3149 -25.37825,0.4223 -8.73072,0.1109 -12.42295,0.435 -26.19327,0.2293"
     id="path3465"
     inkscape:connector-curvature="0"
     sodipodi:nodetypes="caaac" />
  <path
     style="opacity:0.55899999;fill:none;stroke:#ff0000;stroke-width:17;stroke-linecap:butt;stroke-linejoin:miter;stroke-miterlimit:4;stroke-dasharray:none;stroke-opacity:1"
     d="m -238.69517,398.40308 c 8.96935,-0.2989 23.36124,-1.2975 34.97525,-2.6427 9.43292,-1.0926 18.78463,-2.8076 28.14551,-4.4037 8.31704,-1.4181 16.62813,-2.8876 24.89059,-4.5952 10.64358,-2.1997 21.21163,-4.7533 31.78338,-7.2757 9.53076,-2.274 19.056682,-4.5758 28.528442,-7.0843 8.65251,-2.2914 17.23892,-4.8258 25.84792,-7.2757 9.32565,-2.6538 15.25355,-4.127 27.95405,-8.0416"
     id="path3467"
     inkscape:connector-curvature="0"
     sodipodi:nodetypes="caaaaaac" />
  <path
     style="opacity:0.36400003;fill:none;stroke:#ff0000;stroke-width:17;stroke-linecap:butt;stroke-linejoin:miter;stroke-miterlimit:4;stroke-dasharray:none;stroke-opacity:1"
     d="m -179.308,374.98628 c -8.26518,1.5559 -9.8074,1.8673 -17.99874,2.9445"
     id="path3469"
     inkscape:connector-curvature="0"
     sodipodi:nodetypes="cc" />
  <path
     style="opacity:0.54000005;fill:none;stroke:#7fff00;stroke-width:17;stroke-linecap:butt;stroke-linejoin:miter;stroke-miterlimit:4;stroke-dasharray:none;stroke-opacity:1"
     d="m -126.47613,363.83418 c -8.84528,2.0308 -15.8516,3.8522 -23.8281,5.5508 -9.63061,2.0509 -18.04729,3.7474 -29.00377,5.6013"
     id="path3471"
     inkscape:connector-curvature="0"
     sodipodi:nodetypes="cac" />
  <path
     style="opacity:0.50700001;fill:none;stroke:#7fff00;stroke-width:17;stroke-linecap:butt;stroke-linejoin:miter;stroke-miterlimit:4;stroke-dasharray:none;stroke-opacity:1"
     d="m -36.570028,357.08418 c 9.11024,-2.8043 16.20726,-5.1585 24.28003,-7.8322 6.1032501,-2.0214 7.8416501,-2.4433 18.2619801,-6.2065"
     id="path3475"
     inkscape:connector-curvature="0"
     sodipodi:nodetypes="cac" />
  <path
     style="opacity:0.55100002;fill:none;stroke:#ff0000;stroke-width:17;stroke-linecap:butt;stroke-linejoin:miter;stroke-miterlimit:4;stroke-dasharray:none;stroke-opacity:1"
     d="m -88.364428,431.72318 c 10.2851,-6.5385 16.12253,-10.5743 24.08789,-16.0039 6.76754,-4.6131 13.45435,-9.344 20.13679,-14.0795 9.39451,-6.6575 18.78449,-13.3235 28.05659,-20.1504 10.3318601,-7.6073 17.8105201,-12.6195 30.7235,-23.1867"
     id="path3477"
     inkscape:connector-curvature="0"
     sodipodi:nodetypes="caaac" />
  <path
     style="opacity:0.48500001;fill:none;stroke:#ff0000;stroke-width:17;stroke-linecap:butt;stroke-linejoin:miter;stroke-miterlimit:4;stroke-dasharray:none;stroke-opacity:1"
     d="m -29.809838,371.00968 c -12.71735,9.1251 -22.16605,15.6681 -33.30519,23.4219 -11.42466,7.9526 -20.08348,14.1157 -34.38829,23.6927"
     id="path3479"
     inkscape:connector-curvature="0"
     sodipodi:nodetypes="cac" />
  <path
     style="opacity:0.522;fill:none;stroke:#00ff7f;stroke-width:17;stroke-linecap:butt;stroke-linejoin:miter;stroke-miterlimit:4;stroke-dasharray:none;stroke-opacity:1"
     d="m 5.9719821,343.04548 c 10.1675899,-3.5865 14.8158199,-6.1241 22.0777899,-9.5116 7.81813,-3.6468 15.50265,-7.5811 23.11952,-11.6315 9.64387,-5.1284 18.50503,-9.3153 28.57633,-16.0353"
     id="path3481"
     inkscape:connector-curvature="0"
     sodipodi:nodetypes="caac" />
  <path
     style="opacity:0.59200003;fill:none;stroke:#ff0000;stroke-width:17;stroke-linecap:butt;stroke-linejoin:miter;stroke-miterlimit:4;stroke-dasharray:none;stroke-opacity:1"
     d="m 79.745622,305.86708 c 13.21116,-8.9857 20.070648,-14.55858 30.060388,-21.90016 8.78143,-6.45359 17.53251,-12.94856 26.2637,-19.46996 16.55896,-12.36803 31.9247,-24.42128 49.54326,-37.28232"
     id="path3483"
     inkscape:connector-curvature="0"
     sodipodi:nodetypes="caac" />
  <path
     style="opacity:0.51099997;fill:none;stroke:#ff7f00;stroke-width:17;stroke-linecap:butt;stroke-linejoin:miter;stroke-miterlimit:4;stroke-dasharray:none;stroke-opacity:1"
     d="m 14.640342,358.30268 c 21.05216,-16.3779 28.637315,-20.96813 42.79947,-31.6616 17.940245,-13.5462 35.636752,-27.4123 53.419038,-41.1652 13.64451,-10.55272 27.275,-21.12365 40.87801,-31.72981 11.31121,-8.81927 16.17942,-12.76363 33.87611,-26.53143"
     id="path3485"
     inkscape:connector-curvature="0"
     sodipodi:nodetypes="caaac" />
  <path
     style="opacity:0.56199999;fill:none;stroke:#7fff00;stroke-width:17;stroke-linecap:butt;stroke-linejoin:miter;stroke-miterlimit:4;stroke-dasharray:none;stroke-opacity:1"
     d="m 4.3008721,345.09748 c -12.02379,9.1945 -23.5159901,17.9311 -34.1107101,25.9122"
     id="path3487"
     inkscape:connector-curvature="0"
     sodipodi:nodetypes="cc" />
  <path
     style="opacity:0.52600002;fill:none;stroke:#ff0000;stroke-width:17;stroke-linecap:butt;stroke-linejoin:miter;stroke-miterlimit:4;stroke-dasharray:none;stroke-opacity:1"
     d="m -0.17651791,327.23998 c -10.20699009,3.7713 -12.12670009,4.0929 -18.19346009,6.1293 -7.82685,2.6271 -15.60174,5.4164 -23.4893,7.8552 -7.76767,2.4018 -15.64402,4.4369 -23.4616,6.6708 -9.50807,2.7171 -18.94795,5.6813 -28.51338,8.189 -10.817542,2.8358 -17.782522,4.2289 -32.641872,7.7499"
     id="path3489"
     inkscape:connector-curvature="0"
     sodipodi:nodetypes="caaaac" />
  <path
     style="opacity:0.58499995;fill:none;stroke:#ff007f;stroke-width:17;stroke-linecap:butt;stroke-linejoin:miter;stroke-miterlimit:4;stroke-dasharray:none;stroke-opacity:1"
     d="m 70.864812,291.80148 c -11.1392,6.7787 -17.43106,10.1307 -26.33078,14.8597 -7.41391,3.9395 -14.90515,7.7462 -22.5343,11.2507 -7.28732,3.3476 -9.208249,4.55996 -22.17624991,9.3281"
     id="path3491"
     inkscape:connector-curvature="0"
     sodipodi:nodetypes="caac" />
  <path
     style="opacity:0.478;fill:none;stroke:#ff7f00;stroke-width:18;stroke-linecap:butt;stroke-linejoin:miter;stroke-miterlimit:4;stroke-dasharray:none;stroke-opacity:1"
     d="m -201.0394,353.25488 c -18.95173,5.8414 -26.79121,8.0887 -40.20787,12.0624 -7.52279,2.2281 -15.15206,4.1132 -22.5917,6.6049 -8.59567,2.8788 -16.13446,5.901 -25.43315,9.6288"
     id="path3493"
     inkscape:connector-curvature="0"
     sodipodi:nodetypes="caac" />
  <path
     style="opacity:0.43800001;fill:none;stroke:#00ff00;stroke-width:16;stroke-linecap:butt;stroke-linejoin:miter;stroke-miterlimit:4;stroke-dasharray:none;stroke-opacity:1"
     d="m -153.41684,339.66758 c -10.92986,2.4669 -16.72713,4.0444 -24.2637,6.3116 -7.80952,2.3494 -17.3444,4.543 -25.65771,7.2757"
     id="path3495"
     inkscape:connector-curvature="0"
     sodipodi:nodetypes="csc" />
  <path
     style="opacity:0.51099997;fill:none;stroke:#ff0000;stroke-width:16;stroke-linecap:butt;stroke-linejoin:miter;stroke-miterlimit:4;stroke-dasharray:none;stroke-opacity:1"
     d="m -191.7533,323.86488 c -1.49659,-7.3747 -2.87138,-14.2968 -4.21225,-22.4016"
     id="path3497"
     inkscape:connector-curvature="0"
     sodipodi:nodetypes="cc" />
  <path
     style="opacity:0.478;fill:none;stroke:#ff7f00;stroke-width:17;stroke-linecap:butt;stroke-linejoin:miter;stroke-miterlimit:4;stroke-dasharray:none;stroke-opacity:1"
     d="m -126.47613,363.83418 c -5.60899,1.3414 -8.94715,0.6344 -13.26526,-0.3234 -3.4574,-0.7669 -6.78281,-2.2804 -9.73447,-4.2563 -4.00874,-2.6835 -8.89153,-4.4451 -10.45961,-10.005"
     id="path3499"
     inkscape:connector-curvature="0"
     sodipodi:nodetypes="casc" />
  <path
     style="opacity:0.57399998;fill:none;stroke:#ff7f00;stroke-width:16;stroke-linecap:butt;stroke-linejoin:miter;stroke-miterlimit:4;stroke-dasharray:none;stroke-opacity:1"
     d="m -153.41684,339.66758 c -8.6373,1.9653 -12.03402,1.6187 -17.91002,0.5478 -4.66092,-0.8495 -9.47677,-2.4137 -13.13972,-5.4184 -3.38588,-2.7775 -6.04557,-4.9625 -7.28672,-10.9321"
     id="path3501"
     inkscape:connector-curvature="0"
     sodipodi:nodetypes="caac" />
  <path
     style="opacity:0.55899999;fill:none;stroke:#ff7f00;stroke-width:16;stroke-linecap:butt;stroke-linejoin:miter;stroke-miterlimit:4;stroke-dasharray:none;stroke-opacity:1"
     d="m -191.7533,323.86488 c 1.2678,7.3766 1.19158,8.5256 0.56555,12.7251 -0.47944,3.2162 -1.40378,6.5233 -3.2567,9.1954 -2.20608,3.1814 -5.09538,6.2736 -8.8938,7.4695"
     id="path3503"
     inkscape:connector-curvature="0"
     sodipodi:nodetypes="caac" />
  <path
     style="opacity:0.5;fill:none;stroke:#ff7f00;stroke-width:22;stroke-linecap:butt;stroke-linejoin:miter;stroke-miterlimit:4;stroke-dasharray:none;stroke-opacity:1"
     d="m -173.47126,353.09218 c 1.97348,6.9173 1.89995,4.122 3.27795,11.6529"
     id="path3505"
     inkscape:connector-curvature="0"
     sodipodi:nodetypes="cc" />
  <path
     style="opacity:0.43399999;fill:none;stroke:#00ff00;stroke-width:18;stroke-linecap:butt;stroke-linejoin:miter;stroke-miterlimit:4;stroke-dasharray:none;stroke-opacity:1"
     d="m -200.99283,360.94088 c -15.72585,4.3445 -25.80709,6.9428 -38.74187,10.2951 -8.04833,2.0859 -16.05334,4.367 -24.18296,6.1093 -7.8687,1.6865 -14.72706,3.597 -23.77425,4.1989"
     id="path3509"
     inkscape:connector-curvature="0"
     sodipodi:nodetypes="caac" />
  <path
     style="opacity:0.61000001;fill:none;stroke:#ff7f00;stroke-width:15;stroke-linecap:butt;stroke-linejoin:miter;stroke-miterlimit:4;stroke-dasharray:none;stroke-opacity:1"
     d="m -198.0843,502.68198 c 18.11968,-15.8041 34.8659,-27.8416 54.02298,-41.1877"
     id="path3511"
     inkscape:connector-curvature="0"
     sodipodi:nodetypes="cc" />
  <path
     style="opacity:0.47099998;fill:none;stroke:#ff7f00;stroke-width:16.5;stroke-linecap:butt;stroke-linejoin:miter;stroke-miterlimit:4;stroke-dasharray:none;stroke-opacity:1"
     d="m -145.88124,462.06898 c 20.99623,-10.8591 40.57953,-21.3268 60.294592,-31.9742"
     id="path3513"
     inkscape:connector-curvature="0"
     sodipodi:nodetypes="cc" />
  <path
     style="opacity:0.54000005;fill:none;stroke:#ff7f00;stroke-width:16.60000038;stroke-linecap:butt;stroke-linejoin:miter;stroke-miterlimit:4;stroke-dasharray:none;stroke-opacity:1"
     d="m -93.869738,415.70878 c -19.490072,10.9879 -39.543982,20.8188 -59.865902,35.4406"
     id="path3515"
     inkscape:connector-curvature="0"
     sodipodi:nodetypes="cc" />
  <path
     style="opacity:0.49300005;fill:none;stroke:#ff7f00;stroke-width:15;stroke-linecap:butt;stroke-linejoin:miter;stroke-miterlimit:4;stroke-dasharray:none;stroke-opacity:1"
     d="m -152.49043,449.52108 c 0,0 -19.13673,12.9597 -28.35249,19.9233 -9.21804,6.9654 -26.91571,21.8391 -26.91571,21.8391"
     id="path3517"
     inkscape:connector-curvature="0"
     sodipodi:nodetypes="cac" />
  <path
     style="opacity:0.52600002;fill:none;stroke:#ff0000;stroke-width:17;stroke-linecap:butt;stroke-linejoin:miter;stroke-miterlimit:4;stroke-dasharray:none;stroke-opacity:1"
     d="m 139.34115,241.13024 c -5.84383,4.57537 -23.13047,17.19155 -34.71393,25.76272 -11.242363,8.31877 -24.211998,19.15848 -33.762408,24.90852"
     id="path4725"
     inkscape:connector-curvature="0"
     sodipodi:nodetypes="cac" />
  <path
     style="opacity:0.57700004;fill:none;stroke:#ff7f00;stroke-width:15;stroke-linecap:butt;stroke-linejoin:miter;stroke-miterlimit:4;stroke-dasharray:none;stroke-opacity:1"
     d="m 138.49238,240.89876 c -2.88277,2.23425 -4.06567,2.5308 -6.33726,3.18727 -4.71992,1.36403 -9.76808,1.09767 -14.6704,1.42246 -5.30255,0.35129 -8.75783,0.39252 -15.93239,0.56821"
     id="path4727"
     inkscape:connector-curvature="0"
     sodipodi:nodetypes="caac" />
  <path
     style="opacity:0.48500001;fill:none;stroke:#7fff00;stroke-width:17;stroke-linecap:butt;stroke-linejoin:miter;stroke-miterlimit:4;stroke-dasharray:none;stroke-opacity:1"
     d="m 303.73134,136.35561 c 9.22057,-7.00585 19.65632,-15.51463 28.54338,-21.94875"
     id="path4731"
     inkscape:connector-curvature="0"
     sodipodi:nodetypes="cc" />
  <path
     style="opacity:0.478;fill:none;stroke:#ff0000;stroke-width:17;stroke-linecap:butt;stroke-linejoin:miter;stroke-miterlimit:4;stroke-dasharray:none;stroke-opacity:1"
     d="M 332.27472,114.40686 C 368.36737,86.66915 404.21408,59.737428 439.12009,32.802763"
     id="path4733"
     inkscape:connector-curvature="0"
     sodipodi:nodetypes="cc" />
  <path
     style="opacity:0.577;fill:none;stroke:#ff0000;stroke-width:16;stroke-linecap:butt;stroke-linejoin:miter;stroke-miterlimit:4;stroke-dasharray:none;stroke-opacity:1"
     d="m 222.53086,253.39506 c 10.08892,13.80158 18.99913,25.70342 27.9321,37.80864"
     id="path4807"
     inkscape:connector-curvature="0"
     sodipodi:nodetypes="cc" />
  <path
     style="opacity:0.51099997;fill:none;stroke:#7fff00;stroke-width:17;stroke-linecap:butt;stroke-linejoin:miter;stroke-miterlimit:4;stroke-dasharray:none;stroke-opacity:1"
     d="m 185.61297,227.21464 c 6.35378,-4.96631 13.35992,-9.69032 21.57405,-16.10789"
     id="path4813"
     inkscape:connector-curvature="0"
     sodipodi:nodetypes="cc" />
  <path
     style="opacity:0.53299997;fill:none;stroke:#ff7f00;stroke-width:16;stroke-linecap:butt;stroke-linejoin:miter;stroke-miterlimit:4;stroke-dasharray:none;stroke-opacity:1"
     d="m 183.7963,228.7037 c 4.98971,-4.07243 8.97422,-4.08601 13.40721,-2.95081 5.38708,1.37952 8.76055,6.91864 12.56391,10.97551 4.7859,5.10489 6.20382,8.50025 12.76344,16.66666"
     id="path4809"
     inkscape:connector-curvature="0"
     sodipodi:nodetypes="caac" />
  <path
     style="opacity:0.49300005;fill:none;stroke:#ff7f00;stroke-width:16;stroke-linecap:butt;stroke-linejoin:miter;stroke-miterlimit:4;stroke-dasharray:none;stroke-opacity:1"
     d="m 222.53086,253.39506 c -4.81437,-6.45232 -6.9143,-9.19854 -10.03862,-14.02449 -2.67704,-4.13508 -5.84123,-8.10843 -7.44324,-12.76665 -1.01973,-2.96512 -2.00525,-6.27521 -1.26265,-9.32158 0.73125,-2.9998 0.46561,-4.0417 5.32795,-7.57723"
     id="path4811"
     inkscape:connector-curvature="0"
     sodipodi:nodetypes="caaac" />
  <path
     style="opacity:0.50700001;fill:none;stroke:#ff0000;stroke-width:15;stroke-linecap:butt;stroke-linejoin:miter;stroke-miterlimit:4;stroke-dasharray:none;stroke-opacity:1"
     d="m 335.54836,148.67099 c 7.94518,11.63961 11.69792,17.0593 20.4057,28.80804"
     id="path4815"
     inkscape:connector-curvature="0"
     sodipodi:nodetypes="cc" />
  <path
     style="opacity:0.47400004;fill:none;stroke:#ff7f00;stroke-width:15;stroke-linecap:butt;stroke-linejoin:miter;stroke-miterlimit:4;stroke-dasharray:none;stroke-opacity:1"
     d="m 303.5131,137.88331 c 5.16501,-3.74644 9.53193,-3.09613 14.35759,-2.52514 2.99288,0.35413 5.83888,1.85202 8.29323,3.60101 4.11973,2.93575 6.81998,6.01473 10.25741,11.18495"
     id="path4819"
     inkscape:connector-curvature="0"
     sodipodi:nodetypes="caac" />
  <path
     style="opacity:0.49599998;fill:none;stroke:#ff7f00;stroke-width:15;stroke-linecap:butt;stroke-linejoin:miter;stroke-miterlimit:4;stroke-dasharray:none;stroke-opacity:1"
     d="m 336.09397,149.2166 c -4.01659,-5.81915 -5.2595,-8.22308 -6.54729,-12.87633 -1.00098,-3.6169 -1.54246,-7.59316 -0.65472,-11.23951 0.96062,-3.94576 0.98736,-6.55247 6.21991,-10.47566"
     id="path4821"
     inkscape:connector-curvature="0"
     sodipodi:nodetypes="csac" />
</svg>
