<?xml version="1.0" encoding="UTF-8" standalone="no"?>
<!-- Created with Inkscape (http://www.inkscape.org/) -->

<svg
   xmlns:dc="http://purl.org/dc/elements/1.1/"
   xmlns:cc="http://creativecommons.org/ns#"
   xmlns:rdf="http://www.w3.org/1999/02/22-rdf-syntax-ns#"
   xmlns:svg="http://www.w3.org/2000/svg"
   xmlns="http://www.w3.org/2000/svg"
   xmlns:xlink="http://www.w3.org/1999/xlink"
   xmlns:sodipodi="http://sodipodi.sourceforge.net/DTD/sodipodi-0.dtd"
   xmlns:inkscape="http://www.inkscape.org/namespaces/inkscape"
   version="1.1"
   id="svg5079"
   width="350"
   height="350"
   viewBox="0 0 350 350"
   sodipodi:docname="i7756420_-364000.svg"
   inkscape:version="0.92.2 (unknown)">
  <metadata
     id="metadata5085">
    <rdf:RDF>
      <cc:Work
         rdf:about="">
        <dc:format>image/svg+xml</dc:format>
        <dc:type
           rdf:resource="http://purl.org/dc/dcmitype/StillImage" />
        <dc:title></dc:title>
      </cc:Work>
    </rdf:RDF>
  </metadata>
  <defs
     id="defs5083" />
  <sodipodi:namedview
     pagecolor="#ffffff"
     bordercolor="#666666"
     borderopacity="1"
     objecttolerance="10"
     gridtolerance="10"
     guidetolerance="10"
     inkscape:pageopacity="0"
     inkscape:pageshadow="2"
     inkscape:window-width="1855"
     inkscape:window-height="1056"
     id="namedview5081"
     showgrid="false"
     inkscape:zoom="0.92327943"
     inkscape:cx="563.25954"
     inkscape:cy="263.51242"
     inkscape:window-x="65"
     inkscape:window-y="24"
     inkscape:window-maximized="1"
     inkscape:current-layer="svg5079" />
  <image
     width="350"
     height="350"
     preserveAspectRatio="none"
     xlink:href="carmen_lcad/data/road_mapper_remission_350px/voltadaufes/i7756420_-364000.png"
     id="image5087"
     x="0"
     y="0"
     sodipodi:absref="carmen_lcad/data/road_mapper_remission_350px/voltadaufes/i7756420_-364000.png" />
  <image
     width="350"
     height="350"
     preserveAspectRatio="none"
     xlink:href="carmen_lcad/data/road_mapper_remission_350px/voltadaufes/i7756490_-364000.png"
     id="image4592"
     x="350"
     y="0"
     sodipodi:absref="carmen_lcad/data/road_mapper_remission_350px/voltadaufes/i7756490_-364000.png" />
  <image
     width="350"
     height="350"
     preserveAspectRatio="none"
     xlink:href="carmen_lcad/data/road_mapper_remission_350px/voltadaufes/i7756560_-364000.png"
     id="image4252"
     x="699.99994"
     y="0"
     sodipodi:absref="carmen_lcad/data/road_mapper_remission_350px/voltadaufes/i7756560_-364000.png" />
  <path
     style="display:none;opacity:0.28999999;fill:none;stroke:#00ff00;stroke-width:25;stroke-linecap:butt;stroke-linejoin:miter;stroke-miterlimit:4;stroke-dasharray:none;stroke-opacity:1"
     d="m 2424.3717,9314.6561 -35.7089,-9.9879"
     id="path2589"
     inkscape:connector-curvature="0" />
  <image
     width="350"
     height="350"
     preserveAspectRatio="none"
     xlink:href="carmen_lcad/data/road_mapper_remission_350px/voltadaufes/i7756560_-364070.png"
     id="image3770"
     x="699.99994"
     y="350"
     sodipodi:absref="carmen_lcad/data/road_mapper_remission_350px/voltadaufes/i7756560_-364070.png"
     style="fill:#24221c" />
  <image
     width="350"
     height="350"
     preserveAspectRatio="none"
     xlink:href="carmen_lcad/data/road_mapper_remission_350px/voltadaufes/i7756630_-364070.png"
     id="image3313"
     x="1049.9999"
     y="350"
     sodipodi:absref="carmen_lcad/data/road_mapper_remission_350px/voltadaufes/i7756630_-364070.png" />
  <image
     width="350"
     height="350"
     preserveAspectRatio="none"
     xlink:href="carmen_lcad/data/road_mapper_remission_350px/voltadaufes/i7756630_-364000.png"
     id="image2561"
     x="1049.9999"
     y="0"
     sodipodi:absref="carmen_lcad/data/road_mapper_remission_350px/voltadaufes/i7756630_-364000.png" />
  <image
     width="350"
     height="350"
     preserveAspectRatio="none"
     xlink:href="carmen_lcad/data/road_mapper_remission_350px/voltadaufes/i7756700_-364000.png"
     id="image2161"
     x="1400"
     y="0"
     sodipodi:absref="carmen_lcad/data/road_mapper_remission_350px/voltadaufes/i7756700_-364000.png" />
  <image
     width="350"
     height="350"
     preserveAspectRatio="none"
     xlink:href="carmen_lcad/data/road_mapper_remission_350px/voltadaufes/i7756700_-364070.png"
     id="image1109"
     x="1400"
     y="350"
     sodipodi:absref="carmen_lcad/data/road_mapper_remission_350px/voltadaufes/i7756700_-364070.png" />
  <path
     style="opacity:0.52600002;fill:none;stroke:#ff007f;stroke-width:18;stroke-linecap:butt;stroke-linejoin:miter;stroke-miterlimit:4;stroke-dasharray:none;stroke-opacity:1"
     d="m 1756.751,442.7583 c 0,0 -9.4145,-3.2148 -14.0763,-4.9479 -17.7933,-6.6152 -35.4377,-13.6311 -53.0155,-20.7993 -12.1349,-4.9485 -24.2327,-9.9963 -36.2033,-15.3298 -12.7161,-5.6657 -25.2356,-11.763 -37.8259,-17.7034 -9.8008,-4.6244 -19.6234,-9.2047 -29.359,-13.9648 -10.4493,-5.1091 -20.8774,-10.2672 -31.1809,-15.6643 -10.9988,-5.7613 -32.6983,-17.8414 -32.6983,-17.8414"
     id="path950"
     inkscape:connector-curvature="0"
     sodipodi:nodetypes="caaaaaac" />
  <path
     style="opacity:0.522;fill:none;stroke:#7f00ff;stroke-width:18;stroke-linecap:butt;stroke-linejoin:miter;stroke-miterlimit:4;stroke-dasharray:none;stroke-opacity:1"
     d="m 1750.7775,459.8218 c 0,0 -21.8614,-8.1929 -32.7339,-12.4404 -11.3415,-4.4309 -22.6436,-8.9642 -33.9002,-13.6068 -14.1291,-5.8273 -28.2644,-11.6513 -42.2197,-17.8831 -11.7405,-5.2427 -23.0582,-10.6254 -34.9111,-16.4058 -13.472,-6.5701 -24.6262,-11.7027 -36.8547,-17.7277 -11.6138,-5.722 -23.2627,-11.3853 -34.6777,-17.4944 -14.971,-8.012 -44.3192,-25.1141 -44.3192,-25.1141"
     id="path952"
     inkscape:connector-curvature="0"
     sodipodi:nodetypes="caaasaac" />
  <path
     style="opacity:0.68000034;fill:none;stroke:#0000ff;stroke-width:18;stroke-linecap:butt;stroke-linejoin:miter;stroke-miterlimit:4;stroke-dasharray:none;stroke-opacity:1"
     d="m 2000.1306,658.0913 c -42.1262,-6.8188 -84.8944,-13.602 -127.3363,-20.4363 -46.2866,-7.4535 -93.2932,-15.2439 -138.8483,-22.4333"
     id="path1027"
     inkscape:connector-curvature="0"
     sodipodi:nodetypes="cac" />
  <path
     style="opacity:0.67600002;fill:none;stroke:#ff007f;stroke-width:16;stroke-linecap:butt;stroke-linejoin:miter;stroke-miterlimit:4;stroke-dasharray:none;stroke-opacity:1"
     d="M 2002.7742,641.6077 1736.7516,598.5801"
     id="path1029"
     inkscape:connector-curvature="0"
     sodipodi:nodetypes="cc" />
  <path
     style="opacity:0.49300005;fill:none;stroke:#7f00ff;stroke-width:16;stroke-linecap:butt;stroke-linejoin:miter;stroke-miterlimit:4;stroke-dasharray:none;stroke-opacity:1"
     d="m 2015.2146,677.7628 c 0,0 -94.6993,-15.4249 -142.0606,-23.0659 -47.2791,-7.6277 -141.8604,-22.7403 -141.8604,-22.7403"
     id="path1031"
     inkscape:connector-curvature="0"
     sodipodi:nodetypes="cac" />
  <path
     style="opacity:0.46300001;fill:none;stroke:#ff007f;stroke-width:18;stroke-linecap:butt;stroke-linejoin:miter;stroke-miterlimit:4;stroke-dasharray:none;stroke-opacity:1"
     d="m 1522.3918,336.5074 c 0,0 -38.8015,-22.019 -57.9477,-33.4619 -29.4664,-17.6109 -87.5953,-54.1548 -87.5953,-54.1548"
     id="path1718"
     inkscape:connector-curvature="0"
     sodipodi:nodetypes="cac" />
  <path
     style="opacity:0.47099998;fill:none;stroke:#7f00ff;stroke-width:18;stroke-linecap:butt;stroke-linejoin:miter;stroke-miterlimit:4;stroke-dasharray:none;stroke-opacity:1"
     d="M 1491.161,339.1495 1473.3798,328.769"
     id="path1720"
     inkscape:connector-curvature="0"
     sodipodi:nodetypes="cc" />
  <path
     style="opacity:0.52899996;fill:none;stroke:#007fff;stroke-width:18;stroke-linecap:butt;stroke-linejoin:miter;stroke-miterlimit:4;stroke-dasharray:none;stroke-opacity:1"
     d="M 1473.3797,328.769 1426.265,300.8116"
     id="path1722"
     inkscape:connector-curvature="0"
     sodipodi:nodetypes="cc" />
  <path
     style="opacity:0.47099998;fill:none;stroke:#7f00ff;stroke-width:18;stroke-linecap:butt;stroke-linejoin:miter;stroke-miterlimit:4;stroke-dasharray:none;stroke-opacity:1"
     d="m 1426.265,300.8116 -58.7185,-36.7798"
     id="path1724"
     inkscape:connector-curvature="0"
     sodipodi:nodetypes="cc" />
  <path
     style="opacity:0.50700001;fill:none;stroke:#0000ff;stroke-width:18;stroke-linecap:butt;stroke-linejoin:miter;stroke-miterlimit:4;stroke-dasharray:none;stroke-opacity:1"
     d="m 1733.946,615.2217 c 0,0 -60.1645,-8.9292 -90.2098,-13.6352 -42.1585,-6.6033 -84.3133,-13.2496 -126.3676,-20.4869 -20.7139,-3.5647 -41.4103,-7.2472 -62.035,-11.2965 -18.7151,-3.6744 -45.1327,-9.2913 -67.6611,-14.1162 -5.0232,-1.0758 -15.0522,-3.3072 -15.0522,-3.3072"
     id="path1726"
     inkscape:connector-curvature="0"
     sodipodi:nodetypes="caasac" />
  <path
     style="opacity:0.48500001;fill:none;stroke:#ff007f;stroke-width:16;stroke-linecap:butt;stroke-linejoin:miter;stroke-miterlimit:4;stroke-dasharray:none;stroke-opacity:1"
     d="m 1736.7516,598.5801 c 0,0 -51.3854,-7.6143 -77.056,-11.5662 -22.7565,-3.5034 -45.5035,-7.0707 -68.2296,-10.7666 -22.9867,-3.7383 -45.9594,-7.5657 -68.9066,-11.5392 -20.8721,-3.6142 -41.7554,-7.1802 -62.5553,-11.1892 -14.8619,-2.8645 -29.6549,-6.0766 -44.4666,-9.1904 -13.0729,-2.7482 -39.1904,-8.378 -39.1904,-8.378"
     id="path1728"
     inkscape:connector-curvature="0"
     sodipodi:nodetypes="caaaaac" />
  <path
     style="opacity:0.43800001;fill:none;stroke:#7f00ff;stroke-width:16;stroke-linecap:butt;stroke-linejoin:miter;stroke-miterlimit:4;stroke-dasharray:none;stroke-opacity:1"
     d="m 1731.2936,631.9566 c 0,0 -39.0267,-6.1226 -58.5502,-9.1174 -19.4271,-2.9799 -38.8829,-5.7726 -58.3015,-8.8074 -18.5872,-2.9049 -37.1536,-5.9426 -55.7166,-8.9989 -19.0286,-3.133 -38.0762,-6.1619 -57.0569,-9.5733 -17.0133,-3.0578 -33.9631,-6.4592 -50.93,-9.7648 -13.2778,-2.5869 -26.5507,-5.2001 -39.8101,-7.8796 -7.0542,-1.4256 -14.1038,-2.8744 -21.1453,-4.3613 -6.5474,-1.3825 -19.6223,-4.2398 -19.6223,-4.2398"
     id="path1730"
     inkscape:connector-curvature="0"
     sodipodi:nodetypes="caaaaaaac" />
  <image
     sodipodi:absref="carmen_lcad/data/road_mapper_remission_350px/voltadaufes/i7756560_-363930.png"
     y="-350"
     x="700"
     id="image3106"
     xlink:href="carmen_lcad/data/road_mapper_remission_350px/voltadaufes/i7756560_-363930.png"
     preserveAspectRatio="none"
     height="350"
     width="350" />
  <image
     sodipodi:absref="carmen_lcad/data/road_mapper_remission_350px/voltadaufes/i7756490_-363930.png"
     y="-350"
     x="350"
     id="image3171"
     xlink:href="carmen_lcad/data/road_mapper_remission_350px/voltadaufes/i7756490_-363930.png"
     preserveAspectRatio="none"
     height="350"
     width="350" />
  <path
     style="opacity:0.51499999;fill:none;stroke:#ff007f;stroke-width:18;stroke-linecap:butt;stroke-linejoin:miter;stroke-miterlimit:4;stroke-dasharray:none;stroke-opacity:1"
     d="M 1376.8488,248.8907 C 1228.1278,156.7163 1080.8491,65.984198 930.31788,-28.000402"
     id="path3239"
     inkscape:connector-curvature="0"
     sodipodi:nodetypes="cc" />
  <path
     style="opacity:0.51799999;fill:none;stroke:#7f00ff;stroke-width:18;stroke-linecap:butt;stroke-linejoin:miter;stroke-miterlimit:4;stroke-dasharray:none;stroke-opacity:1"
     d="M 1367.5465,264.0318 C 1227.1354,177.1195 1086.7823,90.760198 946.79943,3.4820182 c -8.72827,-5.44201 -17.37031,-11.02497 -26.13481,-16.4059702"
     id="path3241"
     inkscape:connector-curvature="0"
     sodipodi:nodetypes="cac" />
  <path
     style="opacity:0.46300001;fill:none;stroke:#0000ff;stroke-width:18;stroke-linecap:butt;stroke-linejoin:miter;stroke-miterlimit:4;stroke-dasharray:none;stroke-opacity:1"
     d="m 1372.6203,552.3797 c 0,0 -9.3127,-1.9896 -13.9318,-3.1411 -15.8724,-3.9569 -31.6407,-8.3369 -47.3373,-12.942 -25.9935,-7.626 -51.8484,-15.7395 -77.5438,-24.3162 -20.4877,-6.8384 -40.8507,-14.0609 -61.0777,-21.6357 -18.0578,-6.7624 -35.9746,-13.9042 -53.802,-21.2527 -17.789,-7.3327 -35.4171,-15.0522 -53.0361,-22.7845 -22.8633,-10.0337 -68.35337,-30.6345 -68.35337,-30.6345"
     id="path3661"
     inkscape:connector-curvature="0"
     sodipodi:nodetypes="caaaaaac" />
  <path
     style="opacity:0.52899996;fill:none;stroke:#ff007f;stroke-width:16;stroke-linecap:butt;stroke-linejoin:miter;stroke-miterlimit:4;stroke-dasharray:none;stroke-opacity:1"
     d="m 1376.3471,535.9505 c 0,0 -13.6347,-3.1404 -20.4122,-4.8716 -9.6553,-2.4662 -19.2601,-5.1294 -28.8453,-7.8556 -15.7002,-4.4654 -31.3658,-9.0605 -46.9474,-13.9234 -22.9844,-7.1733 -45.9138,-14.5453 -68.6406,-22.4973 -18.1273,-6.3426 -36.1324,-13.0463 -53.9935,-20.1039 -24.61,-9.7244 -73.2357,-30.6346 -73.2357,-30.6346"
     id="path3682"
     inkscape:connector-curvature="0"
     sodipodi:nodetypes="caaaaac" />
  <path
     style="opacity:0.51799999;fill:none;stroke:#0000ff;stroke-width:16;stroke-linecap:butt;stroke-linejoin:miter;stroke-miterlimit:4;stroke-dasharray:none;stroke-opacity:1"
     d="m 1084.2724,436.0641 -80.7659,-35.9656"
     id="path3684"
     inkscape:connector-curvature="0"
     sodipodi:nodetypes="cc" />
  <path
     style="opacity:0.46000001;fill:none;stroke:#7f00ff;stroke-width:16;stroke-linecap:butt;stroke-linejoin:miter;stroke-miterlimit:4;stroke-dasharray:none;stroke-opacity:1"
     d="m 1370.1607,569.2141 c 0,0 -32.8902,-8.1448 -49.2097,-12.6859 -16.8868,-4.699 -33.662,-9.8005 -50.3821,-15.062 -14.2875,-4.496 -28.4546,-9.3662 -42.6641,-14.1028 -14.1275,-4.7093 -28.3396,-9.1785 -42.3469,-14.2342 -14.3692,-5.1864 -28.5341,-10.9232 -42.753,-16.5085 -13.7345,-5.3951 -27.493,-10.7362 -41.1091,-16.4237 -16.7644,-7.0024 -33.3633,-14.3968 -49.9597,-21.7886 -20.5267,-9.1423 -61.3654,-27.9036 -61.3654,-27.9036"
     id="path3686"
     inkscape:connector-curvature="0"
     sodipodi:nodetypes="caaaaaaac" />
  <path
     style="opacity:0.43399999;fill:none;stroke:#ff007f;stroke-width:20;stroke-linecap:butt;stroke-linejoin:miter;stroke-miterlimit:4;stroke-dasharray:none;stroke-opacity:1"
     d="m 1091.6933,419.8802 -81.0677,-36.0251"
     id="path3688"
     inkscape:connector-curvature="0"
     sodipodi:nodetypes="cc" />
  <path
     style="opacity:0.43800001;fill:none;stroke:#7fff00;stroke-width:18;stroke-linecap:butt;stroke-linejoin:miter;stroke-miterlimit:4;stroke-dasharray:none;stroke-opacity:1"
     d="m 1150.4711,434.5113 c 0,0 -10.5355,0.7458 -15.7833,0.3533 -4.9273,-0.3685 -9.8283,-1.27 -14.6054,-2.5323 -3.8722,-1.0233 -7.5795,-2.5996 -11.3074,-4.0636 -3.2583,-1.2796 -6.4419,-2.7416 -9.6584,-4.1225 -3.4582,-1.4847 -10.3652,-4.4759 -10.3652,-4.4759"
     id="path3692"
     inkscape:connector-curvature="0"
     sodipodi:nodetypes="caaaac" />
  <path
     style="opacity:0.51099997;fill:none;stroke:#7fff00;stroke-width:16;stroke-linecap:butt;stroke-linejoin:miter;stroke-miterlimit:4;stroke-dasharray:none;stroke-opacity:1"
     d="m 1205.477,416.1367 c 0,0 -7.7934,5.6239 -12.0142,7.8917 -5.2679,2.8304 -10.7814,5.2854 -16.49,7.0671 -5.2774,1.6472 -10.7809,2.5195 -16.2544,3.298 -4.2513,0.6047 -12.8386,1.0601 -12.8386,1.0601"
     id="path3694"
     inkscape:connector-curvature="0"
     sodipodi:nodetypes="caaac" />
  <path
     style="opacity:0.48200001;fill:none;stroke:#ff7f00;stroke-width:18;stroke-linecap:butt;stroke-linejoin:miter;stroke-miterlimit:4;stroke-dasharray:none;stroke-opacity:1"
     d="m 1149.9999,425.5596 c 0,0 -11.9511,0.092 -17.9034,-0.3534 -9.0813,-0.6798 -18.1464,-1.8213 -27.0907,-3.5335 -5.172,-0.9902 -15.3121,-3.887 -15.3121,-3.887"
     id="path3696"
     inkscape:connector-curvature="0"
     sodipodi:nodetypes="caac" />
  <path
     style="opacity:0.47099998;fill:none;stroke:#ff7f00;stroke-width:16;stroke-linecap:butt;stroke-linejoin:miter;stroke-miterlimit:4;stroke-dasharray:none;stroke-opacity:1"
     d="m 1196.2897,403.2981 c 0,0 -7.0983,5.217 -10.8363,7.5383 -3.732,2.3176 -7.5416,4.547 -11.543,6.3604 -4.4118,1.9994 -9.0025,3.6277 -13.6631,4.947 -4.2824,1.2122 -13.0742,2.7091 -13.0742,2.7091"
     id="path3698"
     inkscape:connector-curvature="0"
     sodipodi:nodetypes="caaac" />
  <path
     style="opacity:0.522;fill:none;stroke:#0000ff;stroke-width:18;stroke-linecap:butt;stroke-linejoin:miter;stroke-miterlimit:4;stroke-dasharray:none;stroke-opacity:1"
     d="M 997.53822,415.673 C 948.9979,394.025 890.90246,367.3595 837.59779,343.1736 779.71796,316.9117 719.25647,291.129 663.98701,264.3248"
     id="path4174"
     inkscape:connector-curvature="0"
     sodipodi:nodetypes="cac" />
  <path
     style="opacity:0.5;fill:none;stroke:#7f00ff;stroke-width:16;stroke-linecap:butt;stroke-linejoin:miter;stroke-miterlimit:4;stroke-dasharray:none;stroke-opacity:1"
     d="m 990.37069,430.5048 c 0,0 -105.52294,-47.5851 -158.30076,-71.3414 -38.77274,-17.4523 -77.6794,-34.6091 -116.34219,-52.3037 -19.745,-9.0366 -59.05163,-27.5069 -59.05163,-27.5069"
     id="path4176"
     inkscape:connector-curvature="0"
     sodipodi:nodetypes="caac" />
  <path
     style="opacity:0.50400002;fill:none;stroke:#0000ff;stroke-width:16;stroke-linecap:butt;stroke-linejoin:miter;stroke-miterlimit:4;stroke-dasharray:none;stroke-opacity:1"
     d="m 1003.5065,400.0985 c 0,0 -98.32593,-44.8079 -147.58746,-66.9939 -39.11941,-17.6182 -78.49958,-34.658 -117.51372,-52.5081 -32.75851,-14.9881 -97.87202,-45.8358 -97.87202,-45.8358"
     id="path4178"
     inkscape:connector-curvature="0"
     sodipodi:nodetypes="caac" />
  <path
     style="opacity:0.48200001;fill:none;stroke:#ff007f;stroke-width:20;stroke-linecap:butt;stroke-linejoin:miter;stroke-miterlimit:4;stroke-dasharray:none;stroke-opacity:1"
     d="m 1010.6256,383.8551 c 0,0 -75.35356,-34.0614 -113.03266,-51.0869 -33.22346,-15.0122 -66.45214,-30.0129 -99.67452,-45.0275 -28.84422,-13.0359 -57.78709,-25.856 -86.52625,-39.1219 -21.07421,-9.7278 -62.99233,-29.6773 -62.99233,-29.6773"
     id="path4180"
     inkscape:connector-curvature="0"
     sodipodi:nodetypes="caaac" />
  <path
     style="opacity:0.45199998;fill:none;stroke:#0000ff;stroke-width:18;stroke-linecap:butt;stroke-linejoin:miter;stroke-miterlimit:4;stroke-dasharray:none;stroke-opacity:1"
     d="m 663.98701,264.3248 c 0,0 -95.71389,-45.184 -142.89075,-69.1474 C 476.52346,172.5366 432.29324,149.1853 388.71269,124.6889 360.86762,109.0373 306.27,75.841398 306.27,75.841398"
     id="path4901"
     inkscape:connector-curvature="0"
     sodipodi:nodetypes="caac" />
  <path
     style="opacity:0.56999966;fill:none;stroke:#7f00ff;stroke-width:16;stroke-linecap:butt;stroke-linejoin:miter;stroke-miterlimit:4;stroke-dasharray:none;stroke-opacity:1"
     d="m 656.67611,279.3528 c 0,0 -65.74593,-30.9198 -98.36102,-46.913 -24.57628,-12.0512 -49.05919,-24.3007 -73.33151,-36.9529 -24.81534,-12.9354 -49.41799,-26.2801 -73.90591,-39.825 -23.76002,-13.1423 -47.3369,-26.6157 -70.84245,-40.2079 -14.04281,-8.1203 -41.93107,-24.699102 -41.93107,-24.699102"
     id="path4903"
     inkscape:connector-curvature="0"
     sodipodi:nodetypes="caaaac" />
  <path
     style="opacity:0.56199999;fill:none;stroke:#ff007f;stroke-width:16;stroke-linecap:butt;stroke-linejoin:miter;stroke-miterlimit:4;stroke-dasharray:none;stroke-opacity:1"
     d="m 640.5333,234.7607 c 0,0 -55.83984,-26.8034 -83.55847,-40.6141 -33.41628,-16.6495 -66.79413,-33.394 -99.75384,-50.93 -26.27936,-13.9818 -52.31277,-28.4329 -78.11816,-43.271302 -22.03256,-12.669 -65.4814,-39.0591 -65.4814,-39.0591"
     id="path4905"
     inkscape:connector-curvature="0"
     sodipodi:nodetypes="caaac" />
  <path
     style="opacity:0.48200001;fill:none;stroke:#7fff00;stroke-width:18;stroke-linecap:butt;stroke-linejoin:miter;stroke-miterlimit:4;stroke-dasharray:none;stroke-opacity:1"
     d="m 651.50676,221.6531 c 0,0 -12.9457,-7.464 -19.22494,-11.5078 -6.69956,-4.3145 -13.16532,-8.9833 -19.66397,-13.5948 -3.46014,-2.4554 -10.28941,-7.4928 -10.28941,-7.4928"
     id="path4907"
     inkscape:connector-curvature="0"
     sodipodi:nodetypes="caac" />
  <path
     style="opacity:0.44500002;fill:none;stroke:#7fff00;stroke-width:16;stroke-linecap:butt;stroke-linejoin:miter;stroke-miterlimit:4;stroke-dasharray:none;stroke-opacity:1"
     d="m 605.41574,193.1893 c 0,0 -13.87216,-10.6851 -19.33807,-17.4234 -4.01082,-4.9446 -7.01703,-10.6954 -9.58293,-16.5222 -3.05741,-6.9429 -6.81347,-21.715 -6.81347,-21.715"
     id="path4909"
     inkscape:connector-curvature="0"
     sodipodi:nodetypes="caac" />
  <path
     style="opacity:0.5;fill:none;stroke:#ff7f00;stroke-width:18;stroke-linecap:butt;stroke-linejoin:miter;stroke-miterlimit:4;stroke-dasharray:none;stroke-opacity:1"
     d="m 653.28227,219.2287 c 0,0 -16.3149,-9.0198 -23.93326,-14.36 -4.3096,-3.0208 -8.34562,-6.4315 -12.25383,-9.9562 -3.88747,-3.5061 -11.10504,-11.1051 -11.10504,-11.1051"
     id="path4911"
     inkscape:connector-curvature="0"
     sodipodi:nodetypes="caac" />
  <path
     style="opacity:0.48500001;fill:none;stroke:#ff7f00;stroke-width:16;stroke-linecap:butt;stroke-linejoin:miter;stroke-miterlimit:4;stroke-dasharray:none;stroke-opacity:1"
     d="m 610.38424,188.1879 c 0,0 -7.20036,-9.143 -10.13808,-14.1452 -2.58273,-4.3978 -4.53787,-9.1423 -6.51947,-13.8417 -1.97337,-4.6798 -3.76417,-9.4421 -5.33782,-14.271 -1.33842,-4.1071 -3.48323,-12.4821 -3.48323,-12.4821"
     id="path4913"
     inkscape:connector-curvature="0"
     sodipodi:nodetypes="caaac" />
  <image
     sodipodi:absref="carmen_lcad/data/road_mapper_remission_350px/voltadaufes/i7756420_-363930.png"
     y="-350"
     x="0"
     id="image4977"
     xlink:href="carmen_lcad/data/road_mapper_remission_350px/voltadaufes/i7756420_-363930.png"
     preserveAspectRatio="none"
     height="350"
     width="350" />
  <path
     style="opacity:0.51499999;fill:none;stroke:#ff0000;stroke-width:20;stroke-linecap:butt;stroke-linejoin:miter;stroke-miterlimit:4;stroke-dasharray:none;stroke-opacity:1"
     d="m 324.56785,38.610398 c 0,0 -10.7062,-4.0154 -15.86048,-6.473 -7.45597,-3.5549 -14.5541,-7.8207 -21.71896,-11.9309 -6.48631,-3.721 -12.90751,-7.5584 -19.24915,-11.5208998 -8.16402,-5.10113 -16.21566,-10.38349 -24.19441,-15.76986 -9.36311,-6.3209302 -27.77902,-19.4145602 -27.77902,-19.4145602"
     id="path4980"
     inkscape:connector-curvature="0"
     sodipodi:nodetypes="caaaac" />
  <path
     style="opacity:0.41499999;fill:none;stroke:#7fff00;stroke-width:18;stroke-linecap:butt;stroke-linejoin:miter;stroke-miterlimit:4;stroke-dasharray:none;stroke-opacity:1"
     d="m 377.04458,47.866498 c 0,0 -10.79704,-0.1385 -16.17889,-0.5265 -4.72397,-0.3406 -9.45151,-0.7851 -14.12062,-1.5796 -4.35747,-0.7415 -8.67536,-1.7484 -12.92396,-2.9677 -4.21961,-1.211 -12.4453,-4.308 -12.4453,-4.308"
     id="path4982"
     inkscape:connector-curvature="0"
     sodipodi:nodetypes="caaac" />
  <path
     style="opacity:0.47099998;fill:none;stroke:#7fff00;stroke-width:16;stroke-linecap:butt;stroke-linejoin:miter;stroke-miterlimit:4;stroke-dasharray:none;stroke-opacity:1"
     d="m 414.10373,43.429198 c 0,0 -8.72908,2.7335 -13.20505,3.6308 -4.48489,0.8992 -9.04659,1.4484 -13.6112,1.7436 -4.32335,0.2797 -12.99714,0.023 -12.99714,0.023"
     id="path4984"
     inkscape:connector-curvature="0"
     sodipodi:nodetypes="caac" />
  <path
     style="opacity:0.44900004;fill:none;stroke:#ff7f00;stroke-width:18;stroke-linecap:butt;stroke-linejoin:miter;stroke-miterlimit:4;stroke-dasharray:none;stroke-opacity:1"
     d="m 377.28391,41.165198 c 0,0 -5.42116,0.406 -8.13731,0.4787 -6.09291,0.163 -12.19571,0.1697 -18.28501,-0.096 -4.28639,-0.1868 -8.58717,-0.4038 -12.82823,-1.053 -5.30317,-0.8118 -15.70022,-3.5422 -15.70022,-3.5422"
     id="path4986"
     inkscape:connector-curvature="0"
     sodipodi:nodetypes="caaac" />
  <path
     style="opacity:0.478;fill:none;stroke:#ff7f00;stroke-width:16;stroke-linecap:butt;stroke-linejoin:miter;stroke-miterlimit:4;stroke-dasharray:none;stroke-opacity:1"
     d="m 409.45021,28.528398 c 0,0 -4.93505,1.7975 -7.37145,2.7763 -3.54207,1.4229 -6.97045,3.1224 -10.53063,4.4994 -2.99315,1.1577 -6.00965,2.2749 -9.09464,3.1592 -2.48547,0.7125 -7.56291,1.7232 -7.56291,1.7232"
     id="path4988"
     inkscape:connector-curvature="0"
     sodipodi:nodetypes="caaac" />
  <path
     style="opacity:0.43800001;fill:none;stroke:#0000ff;stroke-width:18;stroke-linecap:butt;stroke-linejoin:miter;stroke-miterlimit:4;stroke-dasharray:none;stroke-opacity:1"
     d="m 306.27,75.841398 c 0,0 -56.08853,-36.2941 -83.56237,-55.2847 -26.1774,-18.0943498 -77.41273,-55.86801 -77.41273,-55.86801"
     id="path4990"
     inkscape:connector-curvature="0"
     sodipodi:nodetypes="cac" />
  <path
     style="opacity:0.48200001;fill:none;stroke:#7f00ff;stroke-width:16;stroke-linecap:butt;stroke-linejoin:miter;stroke-miterlimit:4;stroke-dasharray:none;stroke-opacity:1"
     d="m 298.30415,90.754898 c 0,0 -48.79513,-31.9069 -72.86017,-48.3541 -19.02009,-12.9992 -37.80322,-26.3443 -56.52406,-39.7709098 -11.35628,-8.14475 -33.84674,-24.7409702 -33.84674,-24.7409702"
     id="path4992"
     inkscape:connector-curvature="0"
     sodipodi:nodetypes="caac" />
  <path
     style="opacity:0.46700003;fill:none;stroke:#ff007f;stroke-width:16;stroke-linecap:butt;stroke-linejoin:miter;stroke-miterlimit:4;stroke-dasharray:none;stroke-opacity:1"
     d="m 313.62143,60.886198 c -37.29929,-24.3618 -73.07506,-48.5542 -108.0826,-72.66137"
     id="path4994"
     inkscape:connector-curvature="0"
     sodipodi:nodetypes="cc" />
  <path
     style="opacity:0.54000005;fill:none;stroke:#0000ff;stroke-width:16;stroke-linecap:butt;stroke-linejoin:miter;stroke-miterlimit:4;stroke-dasharray:none;stroke-opacity:1"
     d="m 205.53883,-11.775172 -50.45131,-37.04869"
     id="path4996"
     inkscape:connector-curvature="0"
     sodipodi:nodetypes="cc" />
</svg>
