<?xml version="1.0" encoding="UTF-8" standalone="no"?>
<!-- Created with Inkscape (http://www.inkscape.org/) -->

<svg
   xmlns:dc="http://purl.org/dc/elements/1.1/"
   xmlns:cc="http://creativecommons.org/ns#"
   xmlns:rdf="http://www.w3.org/1999/02/22-rdf-syntax-ns#"
   xmlns:svg="http://www.w3.org/2000/svg"
   xmlns="http://www.w3.org/2000/svg"
   xmlns:xlink="http://www.w3.org/1999/xlink"
   xmlns:sodipodi="http://sodipodi.sourceforge.net/DTD/sodipodi-0.dtd"
   xmlns:inkscape="http://www.inkscape.org/namespaces/inkscape"
   version="1.1"
   id="svg5824"
   width="350"
   height="350"
   viewBox="0 0 350 350"
   sodipodi:docname="i7757820_-363860.svg"
   inkscape:version="0.92.2 (unknown)">
  <metadata
     id="metadata5830">
    <rdf:RDF>
      <cc:Work
         rdf:about="">
        <dc:format>image/svg+xml</dc:format>
        <dc:type
           rdf:resource="http://purl.org/dc/dcmitype/StillImage" />
        <dc:title />
      </cc:Work>
    </rdf:RDF>
  </metadata>
  <defs
     id="defs5828" />
  <sodipodi:namedview
     pagecolor="#ffffff"
     bordercolor="#666666"
     borderopacity="1"
     objecttolerance="10"
     gridtolerance="10"
     guidetolerance="10"
     inkscape:pageopacity="0"
     inkscape:pageshadow="2"
     inkscape:window-width="1855"
     inkscape:window-height="1056"
     id="namedview5826"
     showgrid="false"
     inkscape:zoom="0.65778826"
     inkscape:cx="-348.57816"
     inkscape:cy="511.95539"
     inkscape:window-x="65"
     inkscape:window-y="24"
     inkscape:window-maximized="1"
     inkscape:current-layer="svg5824" />
  <image
     width="350"
     height="350"
     preserveAspectRatio="none"
     xlink:href="carmen_lcad/data/road_mapper_remission_350px/voltadaufes/i7757820_-363860.png"
     id="image5832"
     x="0"
     y="0"
     sodipodi:absref="carmen_lcad/data/road_mapper_remission_350px/voltadaufes/i7757820_-363860.png" />
  <image
     width="350"
     height="350"
     preserveAspectRatio="none"
     xlink:href="carmen_lcad/data/road_mapper_remission_350px/voltadaufes/i7757820_-363790.png"
     id="image5652"
     x="0"
     y="-350"
     sodipodi:absref="carmen_lcad/data/road_mapper_remission_350px/voltadaufes/i7757820_-363790.png" />
  <path
     style="fill:none;stroke:#7fff00;stroke-width:22;stroke-linecap:butt;stroke-linejoin:miter;stroke-miterlimit:4;stroke-dasharray:none;stroke-opacity:1"
     d="m 42.5146,12.62613 c 0,0 70.96982,-53.85279 106.44469,-80.79241 35.57488,-27.01557 71.20762,-53.95524 106.70449,-81.07322 25.08697,-19.16529 50.05612,-38.48436 75.10925,-57.69387 15.60103,-11.96211 46.83428,-35.84562 46.83428,-35.84562"
     id="path5684"
     inkscape:connector-curvature="0"
     sodipodi:nodetypes="caaac" />
  <path
     style="fill:none;stroke:#7fff00;stroke-width:22;stroke-linecap:butt;stroke-linejoin:miter;stroke-miterlimit:4;stroke-dasharray:none;stroke-opacity:1"
     d="m 385.53122,-281.97803 c 0,0 -38.1803,29.41565 -57.19264,44.22374 -17.57044,13.68503 -35.06522,27.467 -52.56686,41.23991 -15.27489,12.02058 -30.39642,24.23703 -45.77053,36.13045 -16.62706,12.86271 -33.54207,25.34906 -50.25687,38.09756 -21.92435,16.72187 -43.74489,33.57941 -65.62495,50.3592 -25.11768,19.26271 -75.3705,57.76535 -75.3705,57.76535"
     id="path5686"
     inkscape:connector-curvature="0"
     sodipodi:nodetypes="caaaaac" />
  <image
     width="350"
     height="350"
     preserveAspectRatio="none"
     xlink:href="carmen_lcad/data/road_mapper_remission_350px/voltadaufes/i7757750_-363860.png"
     id="image5742"
     x="-350"
     y="3.0517578e-05"
     sodipodi:absref="carmen_lcad/data/road_mapper_remission_350px/voltadaufes/i7757750_-363860.png" />
  <path
     style="fill:none;stroke:#7fff00;stroke-width:22;stroke-linecap:butt;stroke-linejoin:miter;stroke-miterlimit:4;stroke-dasharray:none;stroke-opacity:1"
     d="m -375.9825,334.93005 c 0,0 41.95113,-31.48737 62.77236,-47.43392 24.12318,-18.47543 47.9929,-37.27949 72.00889,-55.89403 22.70235,-17.59636 45.40443,-35.19315 68.14398,-52.74141 26.76472,-20.65452 53.57316,-41.25234 80.38189,-61.84971 C -68.48904,98.42841 -44.2136,79.96167 -20.07643,61.31528 0.84163047,45.15571 42.5146,12.62613 42.5146,12.62613"
     id="path5774"
     inkscape:connector-curvature="0"
     sodipodi:nodetypes="caaaaac" />
  <path
     style="fill:none;stroke:#7fff00;stroke-width:22;stroke-linecap:butt;stroke-linejoin:miter;stroke-miterlimit:4;stroke-dasharray:none;stroke-opacity:1"
     d="m 38.74887,-14.16182 c 0,0 -54.21805,41.52665 -81.33358,62.28148 -35.65347,27.28995 -71.39756,54.46175 -106.9775,81.8475 -19.62893,15.10832 -39.10683,30.41238 -58.75516,45.49544 -15.74917,12.08986 -31.67317,23.95117 -47.39885,36.07157 -18.67713,14.39519 -37.09693,29.12207 -55.76583,43.52792 -24.78273,19.12358 -74.66565,56.95696 -74.66565,56.95696"
     id="path5776"
     inkscape:connector-curvature="0"
     sodipodi:nodetypes="caaaaac" />
</svg>
