<?xml version="1.0" encoding="UTF-8" standalone="no"?>
<!-- Created with Inkscape (http://www.inkscape.org/) -->

<svg
   xmlns:dc="http://purl.org/dc/elements/1.1/"
   xmlns:cc="http://creativecommons.org/ns#"
   xmlns:rdf="http://www.w3.org/1999/02/22-rdf-syntax-ns#"
   xmlns:svg="http://www.w3.org/2000/svg"
   xmlns="http://www.w3.org/2000/svg"
   xmlns:xlink="http://www.w3.org/1999/xlink"
   xmlns:sodipodi="http://sodipodi.sourceforge.net/DTD/sodipodi-0.dtd"
   xmlns:inkscape="http://www.inkscape.org/namespaces/inkscape"
   version="1.1"
   id="svg7884"
   width="350"
   height="350"
   viewBox="0 0 350 350"
   sodipodi:docname="i7757330_-364140.svg"
   inkscape:version="0.92.2 (unknown)">
  <metadata
     id="metadata7890">
    <rdf:RDF>
      <cc:Work
         rdf:about="">
        <dc:format>image/svg+xml</dc:format>
        <dc:type
           rdf:resource="http://purl.org/dc/dcmitype/StillImage" />
        <dc:title />
      </cc:Work>
    </rdf:RDF>
  </metadata>
  <defs
     id="defs7888" />
  <sodipodi:namedview
     pagecolor="#ffffff"
     bordercolor="#666666"
     borderopacity="1"
     objecttolerance="10"
     gridtolerance="10"
     guidetolerance="10"
     inkscape:pageopacity="0"
     inkscape:pageshadow="2"
     inkscape:window-width="1855"
     inkscape:window-height="1056"
     id="namedview7886"
     showgrid="false"
     inkscape:zoom="1.726111"
     inkscape:cx="218.32708"
     inkscape:cy="248.95231"
     inkscape:window-x="65"
     inkscape:window-y="24"
     inkscape:window-maximized="1"
     inkscape:current-layer="svg7884" />
  <image
     width="350"
     height="350"
     preserveAspectRatio="none"
     id="image7982"
     x="-350"
     y="0"
     style="fill:#ffccaa"
     xlink:href="/home/rcarneiro/carmen_lcad/data/road_mapper_remission_350px/voltadaufes/i7757260_-364140.png"
     sodipodi:absref="/home/rcarneiro/carmen_lcad/data/road_mapper_remission_350px/voltadaufes/i7757260_-364140.png" />
  <image
     sodipodi:absref="carmen_lcad/data/road_mapper_remission_350px/voltadaufes/i7757400_-364140.png"
     xlink:href="carmen_lcad/data/road_mapper_remission_350px/voltadaufes/i7757400_-364140.png"
     width="350"
     height="350"
     preserveAspectRatio="none"
     id="image7785"
     x="350"
     y="0" />
  <image
     sodipodi:absref="carmen_lcad/data/road_mapper_remission_350px/voltadaufes/i7757330_-364140.png"
     xlink:href="carmen_lcad/data/road_mapper_remission_350px/voltadaufes/i7757330_-364140.png"
     width="350"
     height="350"
     preserveAspectRatio="none"
     id="image7892"
     x="0"
     y="0" />
  <path
     style="opacity:0.56499999;fill:none;stroke:#ff0000;stroke-width:24;stroke-linecap:butt;stroke-linejoin:miter;stroke-miterlimit:4;stroke-dasharray:none;stroke-opacity:1"
     d="m 139.95874,139.54051 c -18.41173,1.69955 -29.23932,2.92204 -43.858751,4.38536 -12.404607,1.24162 -24.774564,2.89782 -37.213431,3.72878 -12.853552,0.85867 -25.747685,0.93644 -38.624865,1.2961 -7.685068,0.21464 -6.922793,0.51434 -23.0584578,0.51434"
     id="path7924"
     inkscape:connector-curvature="0"
     sodipodi:nodetypes="caaac" />
  <path
     style="opacity:0.5270004;fill:none;stroke:#ff0000;stroke-width:24;stroke-linecap:butt;stroke-linejoin:miter;stroke-miterlimit:4;stroke-dasharray:none;stroke-opacity:1"
     d="m -3.5575581,173.25623 c 33.0116411,-0.86901 40.7026021,-0.44592 61.0053031,-1.73015 17.101815,-1.08177 34.119563,-3.2352 51.161385,-5.02928 14.76635,-1.55453 29.53698,-3.0922 44.26581,-4.96921 16.61169,-2.11695 25.86317,-3.19291 49.73446,-7.09585"
     id="path7926"
     inkscape:connector-curvature="0"
     sodipodi:nodetypes="caaac" />
  <path
     style="fill:none;stroke:#0000ff;stroke-width:18;stroke-linecap:butt;stroke-linejoin:miter;stroke-miterlimit:4;stroke-dasharray:none;stroke-opacity:1"
     d="M 367.36354,356.62027 -14.242543,303.67266"
     id="path4788"
     inkscape:connector-curvature="0"
     sodipodi:nodetypes="cc" />
  <path
     style="fill:none;stroke:#0000ff;stroke-width:16;stroke-linecap:butt;stroke-linejoin:miter;stroke-miterlimit:4;stroke-dasharray:none;stroke-opacity:1"
     d="M 315.8682,332.42756 -11.61814,286.97158"
     id="path4790"
     inkscape:connector-curvature="0"
     sodipodi:nodetypes="cc" />
  <path
     style="fill:none;stroke:#ff007f;stroke-width:16;stroke-linecap:butt;stroke-linejoin:miter;stroke-miterlimit:4;stroke-dasharray:none;stroke-opacity:1"
     d="M 369.74732,339.83413 315.8682,332.42756"
     id="path4792"
     inkscape:connector-curvature="0"
     sodipodi:nodetypes="cc" />
  <path
     style="fill:none;stroke:#7f00ff;stroke-width:17;stroke-linecap:butt;stroke-linejoin:miter;stroke-miterlimit:4;stroke-dasharray:none;stroke-opacity:1"
     d="M 364.98712,373.95248 -16.440434,319.96098"
     id="path4794"
     inkscape:connector-curvature="0"
     sodipodi:nodetypes="cc" />
  <path
     style="fill:none;stroke:#ff007f;stroke-width:16;stroke-linecap:butt;stroke-linejoin:miter;stroke-miterlimit:4;stroke-dasharray:none;stroke-opacity:1"
     d="m 332.41946,334.61243 c 0,0 -9.74382,-0.80557 -15.11246,-1.80528 -5.95142,-1.10823 -21.42743,-9.62661 -32.51514,-13.45327 -14.74528,-5.08898 -29.81949,-9.31701 -45.07148,-12.58779 -24.48497,-5.25079 -49.49771,-7.64092 -74.27968,-11.23797 -36.47319,-5.294 -73.00948,-10.14379 -109.513096,-15.22378 -21.8859,-3.04573 -65.6563489,-9.14689 -65.6563489,-9.14689"
     id="path4796"
     inkscape:connector-curvature="0"
     sodipodi:nodetypes="csaaaac" />
  <path
     style="opacity:0.531;fill:none;stroke:#ff0000;stroke-width:24;stroke-linecap:butt;stroke-linejoin:miter;stroke-miterlimit:4;stroke-dasharray:none;stroke-opacity:1"
     d="m 370.93934,90.622441 c -22.48981,7.050841 -28.53478,8.843622 -42.93945,12.784829 -21.10564,5.77463 -42.28552,11.35256 -63.68767,15.90691 -24.12891,5.1346 -48.50647,9.06341 -72.88251,12.85511 -20.01326,3.11307 -34.03569,4.87613 -60.21676,8.12025"
     id="path4798"
     inkscape:connector-curvature="0"
     sodipodi:nodetypes="caaac" />
  <path
     style="opacity:0.46200005;fill:none;stroke:#ff0000;stroke-width:24;stroke-linecap:butt;stroke-linejoin:miter;stroke-miterlimit:4;stroke-dasharray:none;stroke-opacity:1"
     d="m 197.46389,154.93653 c 26.4089,-4.29982 38.87731,-5.92077 58.17422,-9.66795 15.57454,-3.02436 31.05572,-6.5409 46.46049,-10.33647 12.43737,-3.06443 24.77917,-6.51241 37.09419,-10.03651 14.53613,-4.1597 27.88422,-7.58901 43.42323,-13.1089"
     id="path4800"
     inkscape:connector-curvature="0"
     sodipodi:nodetypes="caaac" />
  <image
     sodipodi:absref="carmen_lcad/data/road_mapper_remission_350px/voltadaufes/i7757400_-364070.png"
     xlink:href="carmen_lcad/data/road_mapper_remission_350px/voltadaufes/i7757400_-364070.png"
     y="-350"
     x="350"
     id="image7544"
     preserveAspectRatio="none"
     height="350"
     width="350" />
  <path
     style="opacity:0.53800001;fill:none;stroke:#ff0000;stroke-width:24;stroke-linecap:butt;stroke-linejoin:miter;stroke-miterlimit:4;stroke-dasharray:none;stroke-opacity:1"
     d="m 671.27327,-37.74827 c -12.31643,7.624458 -29.85372,17.425251 -45.08386,25.588136 -17.20153,9.2194948 -34.71658,17.848135 -52.25937,26.400458 -10.48875,5.113393 -20.99544,10.203314 -31.68055,14.892567 -10.71288,4.70144 -16.54361,6.888217 -32.49287,13.267922"
     id="path7826"
     inkscape:connector-curvature="0"
     sodipodi:nodetypes="caaac" />
  <path
     style="opacity:0.531;fill:none;stroke:#00ff7f;stroke-width:24;stroke-linecap:butt;stroke-linejoin:miter;stroke-miterlimit:4;stroke-dasharray:none;stroke-opacity:1"
     d="m 509.75662,42.400813 c -16.33661,6.078945 -19.86597,7.344302 -29.81234,10.979951 -10.67698,3.902703 -15.87605,5.667345 -32.05951,11.629673"
     id="path7828"
     inkscape:connector-curvature="0"
     sodipodi:nodetypes="cac" />
  <path
     style="opacity:0.51099997;fill:none;stroke:#ff0000;stroke-width:24;stroke-linecap:butt;stroke-linejoin:miter;stroke-miterlimit:4;stroke-dasharray:none;stroke-opacity:1"
     d="m 333.28239,126.59593 c 22.63496,-6.41388 34.17293,-10.3717 51.2127,-15.7082 12.84628,-4.02319 25.68058,-8.08703 38.46709,-12.296309 10.97669,-3.61349 17.13697,-5.523175 32.83527,-11.124271"
     id="path7830"
     inkscape:connector-curvature="0"
     sodipodi:nodetypes="caac" />
  <path
     style="opacity:0.59500002;fill:none;stroke:#ff0000;stroke-width:24;stroke-linecap:butt;stroke-linejoin:miter;stroke-miterlimit:4;stroke-dasharray:none;stroke-opacity:1"
     d="m 518.49015,64.52407 c 0,0 20.04734,-8.151546 30.06018,-12.253829 10.85761,-4.448391 21.82814,-8.634607 32.54923,-13.402626 10.53761,-4.68642 20.87668,-9.811111 31.20897,-14.934354 8.38781,-4.159078 24.98632,-12.828228 24.98632,-12.828228"
     id="path7832"
     inkscape:connector-curvature="0"
     sodipodi:nodetypes="caaac" />
  <path
     style="opacity:0.57999998;fill:none;stroke:#ff0000;stroke-width:24;stroke-linecap:butt;stroke-linejoin:miter;stroke-miterlimit:4;stroke-dasharray:none;stroke-opacity:1"
     d="m 447.88477,65.010437 c -18.71118,6.736004 -22.07027,7.665872 -33.15454,11.353261 -12.55993,4.178294 -25.1454,8.283759 -37.78822,12.204071 -16.63848,5.15929 -25.38433,7.881563 -50.09318,14.892561"
     id="path7824"
     inkscape:connector-curvature="0"
     sodipodi:nodetypes="caac" />
  <path
     style="opacity:0.42699998;fill:none;stroke:#ff0000;stroke-width:26;stroke-linecap:butt;stroke-linejoin:miter;stroke-miterlimit:4;stroke-dasharray:none;stroke-opacity:1"
     d="m 635.09299,13.21116 c 12.97119,-6.6708963 17.59888,-9.4866656 26.32659,-14.3599566 5.84038,-3.2610884 11.62326,-6.6241553 17.42342,-9.9562364 5.97526,-3.43267 7.90024,-5.338254 17.90207,-10.339169"
     id="path7834"
     inkscape:connector-curvature="0"
     sodipodi:nodetypes="caac" />
  <path
     style="opacity:0.51499999;fill:none;stroke:#ff007f;stroke-width:16;stroke-linecap:butt;stroke-linejoin:miter;stroke-miterlimit:4;stroke-dasharray:none;stroke-opacity:1"
     d="M 552.40275,367.62811 C 472.79358,355.1412 394.24873,343.57621 315.8682,332.42756"
     id="path4792-6"
     inkscape:connector-curvature="0"
     sodipodi:nodetypes="cc" />
  <path
     style="opacity:0.5270004;fill:none;stroke:#0000ff;stroke-width:18;stroke-linecap:butt;stroke-linejoin:miter;stroke-miterlimit:4;stroke-dasharray:none;stroke-opacity:1"
     d="M 438.4417,367.45123 C 284.09178,343.88825 136.23661,324.65512 -14.24254,303.67266"
     id="path4788-7"
     inkscape:connector-curvature="0"
     sodipodi:nodetypes="cc" />
  <path
     style="opacity:0.63700005;fill:none;stroke:#00ff7f;stroke-width:24;stroke-linecap:butt;stroke-linejoin:miter;stroke-miterlimit:4;stroke-dasharray:none;stroke-opacity:1"
     d="m 455.79745,87.46715 c 19.48916,-7.336662 23.01307,-8.580221 34.54719,-12.795378 9.36708,-3.423212 13.89794,-4.790353 28.14551,-10.147702"
     id="path7836"
     inkscape:connector-curvature="0"
     sodipodi:nodetypes="cac" />
  <image
     sodipodi:absref="carmen_lcad/data/road_mapper_remission_350px/voltadaufes/i7757540_-364000.png"
     xlink:href="carmen_lcad/data/road_mapper_remission_350px/voltadaufes/i7757540_-364000.png"
     y="-700"
     x="1050"
     id="image6507"
     preserveAspectRatio="none"
     height="350"
     width="350" />
  <image
     sodipodi:absref="carmen_lcad/data/road_mapper_remission_350px/voltadaufes/i7757540_-364070.png"
     xlink:href="carmen_lcad/data/road_mapper_remission_350px/voltadaufes/i7757540_-364070.png"
     y="-350"
     x="1050"
     id="image6832"
     preserveAspectRatio="none"
     height="350"
     width="350" />
  <image
     sodipodi:absref="carmen_lcad/data/road_mapper_remission_350px/voltadaufes/i7757470_-364070.png"
     xlink:href="carmen_lcad/data/road_mapper_remission_350px/voltadaufes/i7757470_-364070.png"
     y="-350"
     x="700"
     id="image6701"
     preserveAspectRatio="none"
     height="350"
     width="350" />
  <image
     sodipodi:absref="carmen_lcad/data/road_mapper_remission_350px/voltadaufes/i7757610_-364000.png"
     xlink:href="carmen_lcad/data/road_mapper_remission_350px/voltadaufes/i7757610_-364000.png"
     width="350"
     height="350"
     preserveAspectRatio="none"
     id="image6396"
     x="1400"
     y="-700" />
  <image
     sodipodi:absref="carmen_lcad/data/road_mapper_remission_350px/voltadaufes/i7757680_-363930.png"
     xlink:href="carmen_lcad/data/road_mapper_remission_350px/voltadaufes/i7757680_-363930.png"
     y="-1050"
     x="1750"
     id="image6181"
     preserveAspectRatio="none"
     height="350"
     width="350" />
  <image
     sodipodi:absref="carmen_lcad/data/road_mapper_remission_350px/voltadaufes/i7757610_-363930.png"
     xlink:href="carmen_lcad/data/road_mapper_remission_350px/voltadaufes/i7757610_-363930.png"
     width="350"
     height="350"
     preserveAspectRatio="none"
     id="image6306"
     x="1400"
     y="-1050" />
  <image
     sodipodi:absref="carmen_lcad/data/road_mapper_remission_350px/voltadaufes/i7757750_-363860.png"
     xlink:href="carmen_lcad/data/road_mapper_remission_350px/voltadaufes/i7757750_-363860.png"
     width="350"
     height="350"
     preserveAspectRatio="none"
     id="image5742"
     x="2100"
     y="-1400" />
  <image
     sodipodi:absref="carmen_lcad/data/road_mapper_remission_350px/voltadaufes/i7757680_-363860.png"
     xlink:href="carmen_lcad/data/road_mapper_remission_350px/voltadaufes/i7757680_-363860.png"
     width="350"
     height="350"
     preserveAspectRatio="none"
     id="image5303"
     x="1750"
     y="-1400" />
  <image
     sodipodi:absref="/home/rcarneiro/carmen_lcad/data/road_mapper_remission_350px/voltadaufes/i7757890_-363790.png"
     y="-1750"
     x="2800"
     id="image2071"
     xlink:href="file:///home/rcarneiro/carmen_lcad/data/road_mapper_remission_350px/voltadaufes/i7757890_-363790.png"
     preserveAspectRatio="none"
     height="350"
     width="350" />
  <image
     sodipodi:absref="/home/rcarneiro/carmen_lcad/data/road_mapper_remission_350px/voltadaufes/i7757750_-363790.png"
     y="-1750"
     x="2100"
     id="image5768"
     xlink:href="file:///home/rcarneiro/carmen_lcad/data/road_mapper_remission_350px/voltadaufes/i7757750_-363790.png"
     preserveAspectRatio="none"
     height="350"
     width="350" />
  <image
     sodipodi:absref="carmen_lcad/data/road_mapper_remission_350px/voltadaufes/i7757820_-363860.png"
     xlink:href="carmen_lcad/data/road_mapper_remission_350px/voltadaufes/i7757820_-363860.png"
     width="350"
     height="350"
     preserveAspectRatio="none"
     id="image5832"
     x="2450"
     y="-1400" />
  <image
     sodipodi:absref="carmen_lcad/data/road_mapper_remission_350px/voltadaufes/i7757820_-363790.png"
     xlink:href="carmen_lcad/data/road_mapper_remission_350px/voltadaufes/i7757820_-363790.png"
     width="350"
     height="350"
     preserveAspectRatio="none"
     id="image5652"
     x="2450"
     y="-1750" />
  <image
     sodipodi:absref="carmen_lcad/data/road_mapper_remission_350px/voltadaufes/i7757960_-363720.png"
     xlink:href="carmen_lcad/data/road_mapper_remission_350px/voltadaufes/i7757960_-363720.png"
     width="350"
     height="350"
     preserveAspectRatio="none"
     id="image5472"
     x="3150"
     y="-2100" />
  <image
     sodipodi:absref="carmen_lcad/data/road_mapper_remission_350px/voltadaufes/i7757890_-363720.png"
     xlink:href="carmen_lcad/data/road_mapper_remission_350px/voltadaufes/i7757890_-363720.png"
     width="350"
     height="350"
     preserveAspectRatio="none"
     id="image5290"
     x="2800"
     y="-2100" />
  <image
     sodipodi:absref="carmen_lcad/data/road_mapper_remission_350px/voltadaufes/i7757960_-363650.png"
     xlink:href="carmen_lcad/data/road_mapper_remission_350px/voltadaufes/i7757960_-363650.png"
     width="350"
     height="350"
     preserveAspectRatio="none"
     id="image5382"
     x="3150"
     y="-2450" />
  <image
     sodipodi:absref="carmen_lcad/data/road_mapper_remission_350px/voltadaufes/i7757890_-363650.png"
     xlink:href="carmen_lcad/data/road_mapper_remission_350px/voltadaufes/i7757890_-363650.png"
     width="350"
     height="350"
     preserveAspectRatio="none"
     id="image5200"
     x="2800"
     y="-2450" />
  <path
     style="opacity:0.50400002;fill:none;stroke:#ff0000;stroke-width:22;stroke-linecap:butt;stroke-linejoin:miter;stroke-miterlimit:4;stroke-dasharray:none;stroke-opacity:1"
     d="m 35.232883,149.0524 c -16.72534,0.94209 -22.82078,1.16586 -34.24219004,1.26263 -12.68245996,0.10745 -25.37422996,-0.12189 -38.04119796,-0.75758 -14.00063,-0.70262 -21.98066,-2.00517 -41.91899,-3.37644"
     id="path1446"
     inkscape:connector-curvature="0"
     sodipodi:nodetypes="caac" />
  <path
     style="opacity:0.51499999;fill:none;stroke:#ff0000;stroke-width:22;stroke-linecap:butt;stroke-linejoin:miter;stroke-miterlimit:4;stroke-dasharray:none;stroke-opacity:1"
     d="m -80.704805,167.88465 c 19.4762,1.65687 26.38485,2.60123 39.61715,3.32747 12.18752,0.6689 24.399658,0.87909 36.605328,0.94697 13.57794,0.0755 22.07729,-0.52543 40.71969,-1.07324"
     id="path1448"
     inkscape:connector-curvature="0"
     sodipodi:nodetypes="casc" />
</svg>
