<?xml version="1.0" encoding="UTF-8" standalone="no"?>
<!-- Created with Inkscape (http://www.inkscape.org/) -->

<svg
   xmlns:dc="http://purl.org/dc/elements/1.1/"
   xmlns:cc="http://creativecommons.org/ns#"
   xmlns:rdf="http://www.w3.org/1999/02/22-rdf-syntax-ns#"
   xmlns:svg="http://www.w3.org/2000/svg"
   xmlns="http://www.w3.org/2000/svg"
   xmlns:xlink="http://www.w3.org/1999/xlink"
   xmlns:sodipodi="http://sodipodi.sourceforge.net/DTD/sodipodi-0.dtd"
   xmlns:inkscape="http://www.inkscape.org/namespaces/inkscape"
   version="1.1"
   id="svg886"
   width="350"
   height="350"
   viewBox="0 0 350 350"
   sodipodi:docname="i7757260_-363510.svg"
   inkscape:version="0.92.2 (unknown)">
  <metadata
     id="metadata892">
    <rdf:RDF>
      <cc:Work
         rdf:about="">
        <dc:format>image/svg+xml</dc:format>
        <dc:type
           rdf:resource="http://purl.org/dc/dcmitype/StillImage" />
        <dc:title></dc:title>
      </cc:Work>
    </rdf:RDF>
  </metadata>
  <defs
     id="defs890" />
  <sodipodi:namedview
     pagecolor="#ffffff"
     bordercolor="#666666"
     borderopacity="1"
     objecttolerance="10"
     gridtolerance="10"
     guidetolerance="10"
     inkscape:pageopacity="0"
     inkscape:pageshadow="2"
     inkscape:window-width="1855"
     inkscape:window-height="1056"
     id="namedview888"
     showgrid="false"
     inkscape:zoom="1.3057143"
     inkscape:cx="203.56972"
     inkscape:cy="115.86265"
     inkscape:window-x="65"
     inkscape:window-y="24"
     inkscape:window-maximized="1"
     inkscape:current-layer="svg886" />
  <image
     width="350"
     height="350"
     preserveAspectRatio="none"
     xlink:href="carmen_lcad/data/road_mapper_remission_350px/voltadaufes/i7757260_-363510.png"
     id="image894"
     x="0"
     y="0"
     sodipodi:absref="carmen_lcad/data/road_mapper_remission_350px/voltadaufes/i7757260_-363510.png" />
  <image
     width="350"
     height="350"
     preserveAspectRatio="none"
     xlink:href="carmen_lcad/data/road_mapper_remission_350px/voltadaufes/i7757260_-363580.png"
     id="image12845"
     x="0"
     y="350"
     sodipodi:absref="carmen_lcad/data/road_mapper_remission_350px/voltadaufes/i7757260_-363580.png" />
  <image
     width="350"
     height="350"
     preserveAspectRatio="none"
     xlink:href="carmen_lcad/data/road_mapper_remission_350px/voltadaufes/i7757190_-363580.png"
     id="image12360"
     x="-350"
     y="350"
     sodipodi:absref="carmen_lcad/data/road_mapper_remission_350px/voltadaufes/i7757190_-363580.png" />
  <path
     style="display:none;opacity:0.28999999;fill:none;stroke:#00ff00;stroke-width:25;stroke-linecap:butt;stroke-linejoin:miter;stroke-miterlimit:4;stroke-dasharray:none;stroke-opacity:1"
     d="m -434.00587,19314.573 -35.7089,-9.988"
     id="path2589"
     inkscape:connector-curvature="0" />
  <path
     style="opacity:0.53299997;fill:none;stroke:#ff0000;stroke-width:17;stroke-linecap:butt;stroke-linejoin:miter;stroke-miterlimit:4;stroke-dasharray:none;stroke-opacity:1"
     d="m -496.68729,1039.5863 c 0,0 11.5969,-9.3769 16.5557,-14.9037 8.6572,-9.6488 16.5696,-20.1472 22.745,-31.54509 5.254,-9.6974 8.4439,-20.3992 11.9141,-30.8682 3.5966,-10.8506 5.8911,-22.0947 9.2063,-33.0345 3.278,-10.817 6.0857,-21.8427 10.5602,-32.2221 4.2689,-9.9025 9.4751,-19.4438 15.4341,-28.4312 6.9559,-10.4912 14.915,-20.3623 23.5573,-29.5144 9.6543,-10.2238 20.4095,-19.4012 31.4098,-28.1605 10.5393,-8.3921 21.7555,-15.9183 33.0344,-23.2865 17.8316,-11.6489 36.5761,-21.8399 54.6963,-33.0345 21.7079,-13.4109 43.4507,-26.7831 64.715,-40.8868 16.8594,-11.1821 49.8224,-34.6591 49.8224,-34.6591"
     id="path11660"
     inkscape:connector-curvature="0"
     sodipodi:nodetypes="caaaaaaaaaaac" />
  <path
     style="opacity:0.60700001;fill:none;stroke:#ff0000;stroke-width:17;stroke-linecap:butt;stroke-linejoin:miter;stroke-miterlimit:4;stroke-dasharray:none;stroke-opacity:1"
     d="m -162.83099,665.34241 c 0,0 -23.2824,17.3563 -35.3071,25.4856 -20.0762,13.5725 -40.877,26.0429 -61.4521,38.8464 -16.5787,10.3167 -33.3211,20.3681 -49.9538,30.5975 -8.3331,5.125 -16.8422,9.9776 -24.9713,15.4205 -9.9579,6.6674 -19.6099,13.7927 -29.1178,21.0875 -7.2812,5.5864 -14.6561,11.1021 -21.3719,17.3568 -9.3996,8.7541 -18.0734,18.2937 -26.3556,28.1117 -5.2023,6.1669 -10.3455,12.4478 -14.6162,19.2929 -6.3038,10.1038 -11.5224,20.9002 -16.0935,31.8969 -3.9151,9.4188 -6.6389,19.2934 -9.6436,29.0409 -3.4833,11.2999 -5.9538,22.9071 -9.715,34.1175 -3.373,10.0533 -6.368,20.3821 -11.5039,29.6594 -6.1494,11.1078 -14.1099,21.25199 -22.7835,30.52369 -3.1003,3.3141 -10.3439,8.8521 -10.3439,8.8521"
     id="path11662"
     inkscape:connector-curvature="0"
     sodipodi:nodetypes="caaaaaaaaaaaaac" />
  <image
     sodipodi:absref="carmen_lcad/data/road_mapper_remission_350px/voltadaufes/i7757330_-363510.png"
     y="0"
     x="350"
     id="image12703"
     xlink:href="carmen_lcad/data/road_mapper_remission_350px/voltadaufes/i7757330_-363510.png"
     preserveAspectRatio="none"
     height="350"
     width="350" />
  <image
     sodipodi:absref="carmen_lcad/data/road_mapper_remission_350px/voltadaufes/i7757330_-363580.png"
     y="350"
     x="350"
     id="image12768"
     xlink:href="carmen_lcad/data/road_mapper_remission_350px/voltadaufes/i7757330_-363580.png"
     preserveAspectRatio="none"
     height="350"
     width="350" />
  <path
     style="opacity:0.56199999;fill:none;stroke:#ff0000;stroke-width:17;stroke-linecap:butt;stroke-linejoin:miter;stroke-miterlimit:4;stroke-dasharray:none;stroke-opacity:1"
     d="m -153.03669,679.03971 c 0,0 19.7216,-14.4538 29.5411,-21.7367 9.8884,-7.3339 19.8577,-14.5634 29.581497,-22.1143 9.1951,-7.1403 18.2054,-14.5172 27.1882,-21.9229 6.7623,-5.575 13.4109,-11.2866 20.1039,-16.9447 11.3425,-9.5886 22.879,-18.9544 33.9852,-28.8157 9.2526997,-8.2154 18.2050997,-16.7642 27.1882,-25.2735 8.3396,-7.8997 16.4798,-16.0078 24.7949,-23.9332 8.088796,-7.7098 24.411896,-22.976 24.411896,-22.976"
     id="path12771"
     inkscape:connector-curvature="0"
     sodipodi:nodetypes="caaaaaaac" />
  <path
     style="opacity:0.52600002;fill:none;stroke:#ff0000;stroke-width:17;stroke-linecap:butt;stroke-linejoin:miter;stroke-miterlimit:4;stroke-dasharray:none;stroke-opacity:1"
     d="m 52.078803,483.26041 c 0,0 -18.681096,17.5675 -27.954096,26.4223 -10.2771,9.8137 -20.2983003,19.8959 -30.6810003,29.5979 -5.6407997,5.271 -11.3873997,10.4287 -17.1718997,15.5416 -6.4367,5.6895 -12.954,11.2881 -19.5095,16.8403 -8.0639,6.8298 -16.2903,13.4656 -24.3827,20.2617 -9.3305,7.8359 -18.3274,16.0754 -27.8691,23.6528 -8.295397,6.5877 -17.020597,12.6153 -25.517097,18.9416 -8.5557,6.3704 -17.0402,12.8367 -25.6392,19.1486 -5.3626,3.9363 -16.1852,11.6752 -16.1852,11.6752"
     id="path12773"
     inkscape:connector-curvature="0"
     sodipodi:nodetypes="caaaaaaaac" />
  <path
     style="opacity:0.66199999;fill:none;stroke:#ff0000;stroke-width:17;stroke-linecap:butt;stroke-linejoin:miter;stroke-miterlimit:4;stroke-dasharray:none;stroke-opacity:1"
     d="m 63.758203,495.32271 c 0,0 11.715502,-11.3288 17.601644,-16.9636 6.048128,-5.7899 12.222569,-11.4485 18.202524,-17.3088 13.021839,-12.76128 25.668769,-25.89958 38.484689,-38.86763 13.89464,-14.05957 27.71447,-28.19313 41.64387,-42.21827 13.42025,-13.51249 26.85361,-27.01265 40.39935,-40.39934 8.15368,-8.05796 16.22216,-16.20798 24.60339,-24.029 8.06393,-7.52493 15.91391,-15.34989 24.69913,-22.0186 10.50374,-7.9732 21.19216,-16.13132 33.29624,-21.36501 10.45423,-4.52031 21.81464,-7.12727 33.14248,-8.31223 14.03454,-1.4681 28.29523,-0.11913 42.30395,1.57781 11.67381,1.41411 23.1408,4.28203 34.54727,7.14039 6.93965,1.73902 20.58323,6.08083 20.58323,6.08083"
     id="path25"
     inkscape:connector-curvature="0"
     sodipodi:nodetypes="caaaaaaaaaaac" />
  <path
     style="opacity:0.53299997;fill:none;stroke:#ff0000;stroke-width:17;stroke-linecap:butt;stroke-linejoin:miter;stroke-miterlimit:4;stroke-dasharray:none;stroke-opacity:1"
     d="m 438.33627,262.35166 c 0,0 -19.91928,-5.93443 -30.04426,-8.2431 -11.08599,-2.52781 -22.27687,-4.69469 -33.55685,-6.12692 -8.07367,-1.02512 -16.21375,-1.73613 -24.35222,-1.75629 -7.27765,-0.018 -14.58422,0.40049 -21.78397,1.46261 -7.43123,1.09626 -14.82887,2.69419 -21.96246,5.04724 -6.89994,2.27597 -13.55054,5.32875 -19.97867,8.71527 -5.34132,2.81396 -15.36045,9.59634 -15.36045,9.59634"
     id="path851"
     inkscape:connector-curvature="0"
     sodipodi:nodetypes="caaaaaac" />
  <path
     style="opacity:0.603;fill:none;stroke:#7fff00;stroke-width:17;stroke-linecap:butt;stroke-linejoin:miter;stroke-miterlimit:4;stroke-dasharray:none;stroke-opacity:1"
     d="m 271.29739,271.04681 c 0,0 -9.58392,6.94351 -14.1886,10.65591 -4.91568,3.96313 -14.32978,12.38915 -14.32978,12.38915"
     id="path853"
     inkscape:connector-curvature="0"
     sodipodi:nodetypes="cac" />
  <path
     style="opacity:0.56600001;fill:none;stroke:#ff0000;stroke-width:17;stroke-linecap:butt;stroke-linejoin:miter;stroke-miterlimit:4;stroke-dasharray:none;stroke-opacity:1"
     d="m 242.77901,294.09187 c 0,0 -21.41496,20.57786 -31.97484,31.01751 -16.17727,15.99307 -32.01597,32.32513 -48.07524,48.43669 -14.87378,14.9222 -29.89738,29.69506 -44.71613,44.6719 -9.49507,9.59637 -28.317736,28.95385 -28.317736,28.95385"
     id="path855"
     inkscape:connector-curvature="0"
     sodipodi:nodetypes="caaac" />
  <path
     style="opacity:0.51499999;fill:none;stroke:#7fff00;stroke-width:17;stroke-linecap:butt;stroke-linejoin:miter;stroke-miterlimit:4;stroke-dasharray:none;stroke-opacity:1"
     d="M 89.695064,447.17182 52.078803,483.26041"
     id="path857"
     inkscape:connector-curvature="0"
     sodipodi:nodetypes="cc" />
</svg>
