<?xml version="1.0" encoding="UTF-8" standalone="no"?>
<!-- Created with Inkscape (http://www.inkscape.org/) -->

<svg
   xmlns:dc="http://purl.org/dc/elements/1.1/"
   xmlns:cc="http://creativecommons.org/ns#"
   xmlns:rdf="http://www.w3.org/1999/02/22-rdf-syntax-ns#"
   xmlns:svg="http://www.w3.org/2000/svg"
   xmlns="http://www.w3.org/2000/svg"
   xmlns:xlink="http://www.w3.org/1999/xlink"
   xmlns:sodipodi="http://sodipodi.sourceforge.net/DTD/sodipodi-0.dtd"
   xmlns:inkscape="http://www.inkscape.org/namespaces/inkscape"
   version="1.1"
   id="svg5192"
   width="350"
   height="350"
   viewBox="0 0 350 350"
   sodipodi:docname="i7757890_-363650.svg"
   inkscape:version="0.92.2 (unknown)">
  <metadata
     id="metadata5198">
    <rdf:RDF>
      <cc:Work
         rdf:about="">
        <dc:format>image/svg+xml</dc:format>
        <dc:type
           rdf:resource="http://purl.org/dc/dcmitype/StillImage" />
        <dc:title />
      </cc:Work>
    </rdf:RDF>
  </metadata>
  <defs
     id="defs5196" />
  <sodipodi:namedview
     pagecolor="#ffffff"
     bordercolor="#666666"
     borderopacity="1"
     objecttolerance="10"
     gridtolerance="10"
     guidetolerance="10"
     inkscape:pageopacity="0"
     inkscape:pageshadow="2"
     inkscape:window-width="1855"
     inkscape:window-height="1056"
     id="namedview5194"
     showgrid="false"
     inkscape:zoom="3.5"
     inkscape:cx="90.713104"
     inkscape:cy="241.28154"
     inkscape:window-x="65"
     inkscape:window-y="24"
     inkscape:window-maximized="1"
     inkscape:current-layer="svg5192"
     inkscape:measure-start="352,-44"
     inkscape:measure-end="400.571,-34.2857" />
  <image
     sodipodi:absref="carmen_lcad/data/road_mapper_remission_350px/voltadaufes/i7757960_-363720.png"
     xlink:href="carmen_lcad/data/road_mapper_remission_350px/voltadaufes/i7757960_-363720.png"
     width="350"
     height="350"
     preserveAspectRatio="none"
     id="image5472"
     x="350"
     y="350" />
  <image
     sodipodi:absref="carmen_lcad/data/road_mapper_remission_350px/voltadaufes/i7757960_-363650.png"
     xlink:href="carmen_lcad/data/road_mapper_remission_350px/voltadaufes/i7757960_-363650.png"
     width="350"
     height="350"
     preserveAspectRatio="none"
     id="image5382"
     x="350"
     y="0" />
  <image
     sodipodi:absref="carmen_lcad/data/road_mapper_remission_350px/voltadaufes/i7757890_-363720.png"
     xlink:href="carmen_lcad/data/road_mapper_remission_350px/voltadaufes/i7757890_-363720.png"
     width="350"
     height="350"
     preserveAspectRatio="none"
     id="image5290"
     x="0"
     y="350" />
  <image
     sodipodi:absref="carmen_lcad/data/road_mapper_remission_350px/voltadaufes/i7757890_-363650.png"
     xlink:href="carmen_lcad/data/road_mapper_remission_350px/voltadaufes/i7757890_-363650.png"
     width="350"
     height="350"
     preserveAspectRatio="none"
     id="image5200"
     x="0"
     y="0" />
  <path
     style="opacity:0.49599998;fill:none;stroke:#7fff00;stroke-width:15;stroke-linecap:butt;stroke-linejoin:miter;stroke-miterlimit:4;stroke-dasharray:none;stroke-opacity:1"
     d="m -42.185002,-2.3688425 c 0,0 43.09862159,37.5500465 64.54523,56.4420875 22.466453,19.790408 44.784733,39.748395 67.183298,59.615605 18.123914,16.07566 36.212594,32.19118 54.381774,48.21567 23.85109,21.03571 47.77835,41.98499 71.71787,62.92002 12.37157,10.81889 24.79462,21.57883 37.16665,32.3972 12.81149,11.20265 25.81806,22.18829 38.38202,33.66786 7.94721,7.26128 15.82317,14.61088 23.3953,22.26249 7.23111,7.30701 14.56091,14.56922 21.02546,22.56241 7.48183,9.25103 15.10651,18.62482 20.44665,29.25696 8.33539,16.59566 14.22859,37.1017 17.57599,52.86905"
     id="path5232"
     inkscape:connector-curvature="0"
     sodipodi:nodetypes="caaaaaaaaac" />
  <path
     style="opacity:0.66399997;fill:none;stroke:#7fff00;stroke-width:16;stroke-linecap:butt;stroke-linejoin:miter;stroke-miterlimit:4;stroke-dasharray:none;stroke-opacity:1"
     d="m 388.64155,414.42677 c -5.75749,-24.0589 -10.11817,-36.36223 -14.29362,-46.28948 -5.30694,-12.61741 -14.92495,-27.15343 -24.54884,-39.19735 -15.30428,-19.15269 -34.26934,-35.09253 -52.18436,-51.82868 -10.73218,-10.02597 -22.09622,-19.3536 -33.10137,-29.07915 -19.56522,-17.29032 -38.98397,-34.74586 -58.54239,-52.04385 -31.7927,-28.11832 -63.7526,-56.04706 -95.5935,-84.11079 C 92.140338,95.80374 73.932061,79.697287 55.716986,63.598547 41.269499,50.829656 26.817736,38.065617 12.343905,25.326608 -2.4679168,12.290119 -32.151565,-13.714577 -32.151565,-13.714577"
     id="path6060"
     inkscape:connector-curvature="0"
     sodipodi:nodetypes="csaaaasssc" />
</svg>
