<?xml version="1.0" encoding="UTF-8" standalone="no"?>
<!-- Created with Inkscape (http://www.inkscape.org/) -->

<svg
   xmlns:dc="http://purl.org/dc/elements/1.1/"
   xmlns:cc="http://creativecommons.org/ns#"
   xmlns:rdf="http://www.w3.org/1999/02/22-rdf-syntax-ns#"
   xmlns:svg="http://www.w3.org/2000/svg"
   xmlns="http://www.w3.org/2000/svg"
   xmlns:xlink="http://www.w3.org/1999/xlink"
   xmlns:sodipodi="http://sodipodi.sourceforge.net/DTD/sodipodi-0.dtd"
   xmlns:inkscape="http://www.inkscape.org/namespaces/inkscape"
   version="1.1"
   id="svg2940"
   width="350"
   height="350"
   viewBox="0 0 350 350"
   sodipodi:docname="i7757540_-363720.svg"
   inkscape:version="0.92.2 (unknown)">
  <metadata
     id="metadata2946">
    <rdf:RDF>
      <cc:Work
         rdf:about="">
        <dc:format>image/svg+xml</dc:format>
        <dc:type
           rdf:resource="http://purl.org/dc/dcmitype/StillImage" />
        <dc:title />
      </cc:Work>
    </rdf:RDF>
  </metadata>
  <defs
     id="defs2944" />
  <sodipodi:namedview
     pagecolor="#ffffff"
     bordercolor="#666666"
     borderopacity="1"
     objecttolerance="10"
     gridtolerance="10"
     guidetolerance="10"
     inkscape:pageopacity="0"
     inkscape:pageshadow="2"
     inkscape:window-width="1855"
     inkscape:window-height="1056"
     id="namedview2942"
     showgrid="false"
     inkscape:zoom="5.22"
     inkscape:cx="157.89155"
     inkscape:cy="310.2156"
     inkscape:window-x="65"
     inkscape:window-y="24"
     inkscape:window-maximized="1"
     inkscape:current-layer="svg2940"
     inkscape:measure-start="177.586,245.594"
     inkscape:measure-end="196.169,222.605" />
  <image
     width="350"
     height="350"
     preserveAspectRatio="none"
     id="image3535"
     x="8.2125089e-06"
     y="-349.99997"
     xlink:href="/home/rcarneiro/carmen_lcad/data/road_mapper_remission_350px/voltadaufes/i7757540_-363650.png"
     sodipodi:absref="/home/rcarneiro/carmen_lcad/data/road_mapper_remission_350px/voltadaufes/i7757540_-363650.png" />
  <image
     sodipodi:absref="carmen_lcad/data/road_mapper_remission_350px/voltadaufes/i7757610_-363720.png"
     xlink:href="carmen_lcad/data/road_mapper_remission_350px/voltadaufes/i7757610_-363720.png"
     width="350"
     height="350"
     preserveAspectRatio="none"
     id="image3458"
     x="350"
     y="0" />
  <image
     sodipodi:absref="carmen_lcad/data/road_mapper_remission_350px/voltadaufes/i7757540_-363720.png"
     xlink:href="carmen_lcad/data/road_mapper_remission_350px/voltadaufes/i7757540_-363720.png"
     y="0"
     x="0"
     id="image2948"
     preserveAspectRatio="none"
     height="350"
     width="350" />
  <image
     sodipodi:absref="carmen_lcad/data/road_mapper_remission_350px/voltadaufes/i7757470_-363720.png"
     xlink:href="carmen_lcad/data/road_mapper_remission_350px/voltadaufes/i7757470_-363720.png"
     y="0"
     x="-350"
     id="image2709"
     preserveAspectRatio="none"
     height="350"
     width="350" />
  <image
     sodipodi:absref="carmen_lcad/data/road_mapper_remission_350px/voltadaufes/i7757470_-363650.png"
     xlink:href="carmen_lcad/data/road_mapper_remission_350px/voltadaufes/i7757470_-363650.png"
     y="-350"
     x="-350"
     id="image2112"
     preserveAspectRatio="none"
     height="350"
     width="350" />
  <image
     sodipodi:absref="carmen_lcad/data/road_mapper_remission_350px/voltadaufes/i7757400_-363650.png"
     xlink:href="carmen_lcad/data/road_mapper_remission_350px/voltadaufes/i7757400_-363650.png"
     y="-350"
     x="-700"
     id="image1882"
     preserveAspectRatio="none"
     height="350"
     width="350" />
  <image
     sodipodi:absref="carmen_lcad/data/road_mapper_remission_350px/voltadaufes/i7757400_-363580.png"
     xlink:href="carmen_lcad/data/road_mapper_remission_350px/voltadaufes/i7757400_-363580.png"
     y="-700"
     x="-700"
     id="image1664"
     preserveAspectRatio="none"
     height="350"
     width="350" />
  <path
     style="display:none;opacity:0.28999999;fill:none;stroke:#00ff00;stroke-width:25;stroke-linecap:butt;stroke-linejoin:miter;stroke-miterlimit:4;stroke-dasharray:none;stroke-opacity:1"
     d="m -3825.4427,22578.317 -35.7089,-9.988"
     id="path2589"
     inkscape:connector-curvature="0" />
  <image
     sodipodi:absref="carmen_lcad/data/road_mapper_remission_350px/voltadaufes/i7757400_-363720.png"
     xlink:href="carmen_lcad/data/road_mapper_remission_350px/voltadaufes/i7757400_-363720.png"
     width="350"
     height="350"
     preserveAspectRatio="none"
     id="image2502"
     x="-700"
     y="-0.00012207031" />
  <path
     style="opacity:0.5;fill:none;stroke:#ff0000;stroke-width:18;stroke-linecap:butt;stroke-linejoin:miter;stroke-miterlimit:4;stroke-dasharray:none;stroke-opacity:1"
     d="m -278.27951,-61.624922 c 12.14677,12.3357 23.25191,21.2029 35.64865,30.8664 10.22283,7.969 20.8815,15.4032 31.85841,22.2963997 8.67906,5.4503 17.70375,10.3499 26.82023,15.032 8.43328,4.3311003 16.97794,8.4827003 25.75588,12.0642003 12.0543,4.9182 24.36474,9.2614 36.86375,12.9042 10.21949,2.9784 20.65269,5.2023 31.089728,7.2945 12.53423,2.5125 25.16699,4.5451 37.82855,6.3071 13.26323,1.8458 26.556772,3.671824 39.92438,4.4638 20.9898547,1.243562 42.052479,0.614657 63.078432,0.442151 20.492054,-0.168126 34.183198,-0.702965 61.46138,-1.439561"
     id="path2635"
     inkscape:connector-curvature="0"
     sodipodi:nodetypes="caaaaaaaaac" />
  <path
     style="opacity:0.51099997;fill:none;stroke:#ff0000;stroke-width:18;stroke-linecap:butt;stroke-linejoin:miter;stroke-miterlimit:4;stroke-dasharray:none;stroke-opacity:1"
     d="M 57.566969,32.221524 C 36.806763,32.602846 20.425625,33.164859 1.8776155,32.413356 -13.910785,31.773663 -29.693273,30.49225 -45.357575,28.415611 -64.260046,25.909683 -83.09967,22.652667 -101.6454,18.221078 c -13.07629,-3.124641 -26.05875,-6.8175 -38.64982,-11.5311003 -14.01496,-5.2466 -27.72044,-11.4334 -40.87327,-18.5712997 -15.84742,-8.6001 -31.07571,-18.4119 -45.59984,-29.0962 -13.68128,-10.0643 -20.30643,-14.3398 -38.95374,-32.8452"
     id="path2637"
     inkscape:connector-curvature="0"
     sodipodi:nodetypes="caaaaaac" />
  <image
     sodipodi:absref="carmen_lcad/data/road_mapper_remission_350px/voltadaufes/i7757610_-363650.png"
     xlink:href="carmen_lcad/data/road_mapper_remission_350px/voltadaufes/i7757610_-363650.png"
     y="-350"
     x="350"
     id="image37"
     preserveAspectRatio="none"
     height="350"
     width="350" />
  <path
     style="opacity:0.53699999;fill:none;stroke:#7fff00;stroke-width:17;stroke-linecap:butt;stroke-linejoin:miter;stroke-miterlimit:4;stroke-dasharray:none;stroke-opacity:1"
     d="m 152.69327,27.930834 c -12.4302,1.61314 -15.74782,1.890372 -23.65025,2.532698 -6.62324,0.538351 -13.26377,0.866603 -19.90453,1.106325 -8.45508,0.305217 -16.918344,0.314945 -25.378249,0.422372 -8.730721,0.110865 -12.422952,0.434972 -26.193272,0.229295"
     id="path3465"
     inkscape:connector-curvature="0"
     sodipodi:nodetypes="caaac" />
  <path
     style="opacity:0.55899999;fill:none;stroke:#ff0000;stroke-width:17;stroke-linecap:butt;stroke-linejoin:miter;stroke-miterlimit:4;stroke-dasharray:none;stroke-opacity:1"
     d="m 111.30484,48.403076 c 8.96935,-0.298858 23.36124,-1.297506 34.97525,-2.642682 9.43292,-1.092555 18.78463,-2.807633 28.14551,-4.403721 8.31704,-1.418106 16.62813,-2.887597 24.89059,-4.595185 10.64358,-2.199689 21.21163,-4.753317 31.78338,-7.275711 9.53076,-2.274017 19.05668,-4.575803 28.52844,-7.084245 8.65251,-2.291477 17.23892,-4.825817 25.84792,-7.275712 9.32565,-2.653837 15.25355,-4.127025 27.95405,-8.0415751"
     id="path3467"
     inkscape:connector-curvature="0"
     sodipodi:nodetypes="caaaaaac" />
  <path
     style="opacity:0.36400003;fill:none;stroke:#ff0000;stroke-width:17;stroke-linecap:butt;stroke-linejoin:miter;stroke-miterlimit:4;stroke-dasharray:none;stroke-opacity:1"
     d="m 170.69201,24.986324 c -8.26518,1.555902 -9.8074,1.867274 -17.99874,2.94451"
     id="path3469"
     inkscape:connector-curvature="0"
     sodipodi:nodetypes="cc" />
  <path
     style="opacity:0.54000005;fill:none;stroke:#7fff00;stroke-width:17;stroke-linecap:butt;stroke-linejoin:miter;stroke-miterlimit:4;stroke-dasharray:none;stroke-opacity:1"
     d="m 223.52388,13.834164 c -8.84528,2.030804 -15.8516,3.852205 -23.8281,5.550865 -9.63061,2.050914 -18.04729,3.747412 -29.00377,5.601295"
     id="path3471"
     inkscape:connector-curvature="0"
     sodipodi:nodetypes="cac" />
  <path
     style="opacity:0.50700001;fill:none;stroke:#7fff00;stroke-width:17;stroke-linecap:butt;stroke-linejoin:miter;stroke-miterlimit:4;stroke-dasharray:none;stroke-opacity:1"
     d="m 313.42998,7.0842449 c 9.11024,-2.8043306 16.20726,-5.1585328 24.28003,-7.83221954 6.10325,-2.02138766 7.84165,-2.44334756 18.26198,-6.20656436"
     id="path3475"
     inkscape:connector-curvature="0"
     sodipodi:nodetypes="cac" />
  <path
     style="opacity:0.55100002;fill:none;stroke:#ff0000;stroke-width:17;stroke-linecap:butt;stroke-linejoin:miter;stroke-miterlimit:4;stroke-dasharray:none;stroke-opacity:1"
     d="m 261.63558,81.723167 c 10.2851,-6.53848 16.12253,-10.574224 24.08789,-16.003843 6.76754,-4.61312 13.45435,-9.344 20.13679,-14.079561 9.39451,-6.657493 18.78449,-13.323461 28.05659,-20.150396 10.33186,-7.607219 17.81052,-12.619517 30.7235,-23.1866393"
     id="path3477"
     inkscape:connector-curvature="0"
     sodipodi:nodetypes="caaac" />
  <path
     style="opacity:0.48500001;fill:none;stroke:#ff0000;stroke-width:17;stroke-linecap:butt;stroke-linejoin:miter;stroke-miterlimit:4;stroke-dasharray:none;stroke-opacity:1"
     d="M 320.19017,21.009673 C 307.47282,30.13475 298.02412,36.67777 286.88498,44.431618 275.46032,52.384213 266.8015,58.5473 252.49669,68.124337"
     id="path3479"
     inkscape:connector-curvature="0"
     sodipodi:nodetypes="cac" />
  <path
     style="opacity:0.56199999;fill:none;stroke:#7fff00;stroke-width:17;stroke-linecap:butt;stroke-linejoin:miter;stroke-miterlimit:4;stroke-dasharray:none;stroke-opacity:1"
     d="M 354.30088,-4.9024985 C 342.27709,4.2920321 330.78489,13.028623 320.19017,21.009673"
     id="path3487"
     inkscape:connector-curvature="0"
     sodipodi:nodetypes="cc" />
  <path
     style="opacity:0.52600002;fill:none;stroke:#ff0000;stroke-width:17;stroke-linecap:butt;stroke-linejoin:miter;stroke-miterlimit:4;stroke-dasharray:none;stroke-opacity:1"
     d="m 349.82349,-22.759971 c -10.20699,3.771291 -12.1267,4.092911 -18.19346,6.129249 -7.82685,2.627125 -15.60174,5.416456 -23.4893,7.8552626 -7.76767,2.401738 -15.64402,4.4368348 -23.4616,6.6707972 -9.50807,2.71704002 -18.94795,5.681274 -28.51338,8.1889186 -10.81754,2.8358934 -17.78252,4.2289446 -32.64187,7.7499076"
     id="path3489"
     inkscape:connector-curvature="0"
     sodipodi:nodetypes="caaaac" />
  <path
     style="opacity:0.478;fill:none;stroke:#ff7f00;stroke-width:18;stroke-linecap:butt;stroke-linejoin:miter;stroke-miterlimit:4;stroke-dasharray:none;stroke-opacity:1"
     d="m 148.96061,3.2549232 c -18.95173,5.8413302 -26.79121,8.0886708 -40.20787,12.0623628 -7.52279,2.228068 -15.152055,4.113238 -22.591692,6.604899 -8.595676,2.878838 -16.134466,5.90106 -25.433159,9.628841"
     id="path3493"
     inkscape:connector-curvature="0"
     sodipodi:nodetypes="caac" />
  <path
     style="opacity:0.43800001;fill:none;stroke:#00ff00;stroke-width:16;stroke-linecap:butt;stroke-linejoin:miter;stroke-miterlimit:4;stroke-dasharray:none;stroke-opacity:1"
     d="m 196.58317,-10.332355 c -10.92986,2.4668373 -16.25843,3.9124163 -24.2637,6.311567 -9.49348,2.8451598 -19.83482,6.841798 -28.14813,9.5745618"
     id="path3495"
     inkscape:connector-curvature="0"
     sodipodi:nodetypes="cac" />
  <path
     style="opacity:0.51099997;fill:none;stroke:#ff0000;stroke-width:16;stroke-linecap:butt;stroke-linejoin:miter;stroke-miterlimit:4;stroke-dasharray:none;stroke-opacity:1"
     d="m 158.24671,-26.135121 c -1.49659,-7.374672 -2.87138,-14.296745 -4.21225,-22.401531"
     id="path3497"
     inkscape:connector-curvature="0"
     sodipodi:nodetypes="cc" />
  <path
     style="opacity:0.57399998;fill:none;stroke:#ff7f00;stroke-width:16;stroke-linecap:butt;stroke-linejoin:miter;stroke-miterlimit:4;stroke-dasharray:none;stroke-opacity:1"
     d="m 196.58317,-10.332355 c -8.6373,1.9652301 -12.03402,1.6186831 -17.91002,0.5477555 -4.66092,-0.8494725 -9.47677,-2.4136925 -13.13972,-5.4184435 -3.38588,-2.777466 -6.04557,-4.962485 -7.28672,-10.932078"
     id="path3501"
     inkscape:connector-curvature="0"
     sodipodi:nodetypes="caac" />
  <path
     style="opacity:0.55899999;fill:none;stroke:#ff7f00;stroke-width:17;stroke-linecap:butt;stroke-linejoin:miter;stroke-miterlimit:4;stroke-dasharray:none;stroke-opacity:1"
     d="m 158.24671,-26.135121 c 1.2678,7.376588 1.19158,8.525659 0.56555,12.725159 -0.47944,3.216153 -1.41794,6.5135245 -3.2567,9.195403 -2.82752,4.12400999 -7.5858,8.5724213 -11.38422,9.7683328"
     id="path3503"
     inkscape:connector-curvature="0"
     sodipodi:nodetypes="caac" />
  <path
     style="opacity:0.61000001;fill:none;stroke:#ff7f00;stroke-width:15;stroke-linecap:butt;stroke-linejoin:miter;stroke-miterlimit:4;stroke-dasharray:none;stroke-opacity:1"
     d="m 151.91571,152.682 c 18.11968,-15.80408 34.8659,-27.84165 54.02298,-41.18775"
     id="path3511"
     inkscape:connector-curvature="0"
     sodipodi:nodetypes="cc" />
  <path
     style="opacity:0.47099998;fill:none;stroke:#ff7f00;stroke-width:16.5;stroke-linecap:butt;stroke-linejoin:miter;stroke-miterlimit:4;stroke-dasharray:none;stroke-opacity:1"
     d="M 204.11877,112.06896 C 225.115,101.20985 244.6983,90.742178 264.41336,80.094815"
     id="path3513"
     inkscape:connector-curvature="0"
     sodipodi:nodetypes="cc" />
  <path
     style="opacity:0.54000005;fill:none;stroke:#ff7f00;stroke-width:16.60000038;stroke-linecap:butt;stroke-linejoin:miter;stroke-miterlimit:4;stroke-dasharray:none;stroke-opacity:1"
     d="M 256.13027,65.708812 C 236.6402,76.696739 216.58629,86.527638 196.26437,101.14942"
     id="path3515"
     inkscape:connector-curvature="0"
     sodipodi:nodetypes="cc" />
  <path
     style="opacity:0.49300005;fill:none;stroke:#ff7f00;stroke-width:15;stroke-linecap:butt;stroke-linejoin:miter;stroke-miterlimit:4;stroke-dasharray:none;stroke-opacity:1"
     d="m 197.50958,99.521073 c 0,0 -19.13673,12.959707 -28.35249,19.923367 -9.21804,6.96539 -26.91571,21.83908 -26.91571,21.83908"
     id="path3517"
     inkscape:connector-curvature="0"
     sodipodi:nodetypes="cac" />
  <path
     style="opacity:0.478;fill:none;stroke:#ff7f00;stroke-width:17;stroke-linecap:butt;stroke-linejoin:miter;stroke-miterlimit:4;stroke-dasharray:none;stroke-opacity:1"
     d="m 223.52388,13.834152 c -11.7014,2.55988 -19.12828,2.17209 -28.29321,-0.0526 -7.24223,-1.75799 -14.49425,-5.07109 -19.8885,-10.21332 -8.26874,-7.88244 -15.52738,-24.143453 -17.09546,-29.703353"
     id="path3499-3"
     inkscape:connector-curvature="0"
     sodipodi:nodetypes="caac" />
</svg>
