<?xml version="1.0" encoding="UTF-8" standalone="no"?>
<!-- Created with Inkscape (http://www.inkscape.org/) -->

<svg
   xmlns:dc="http://purl.org/dc/elements/1.1/"
   xmlns:cc="http://creativecommons.org/ns#"
   xmlns:rdf="http://www.w3.org/1999/02/22-rdf-syntax-ns#"
   xmlns:svg="http://www.w3.org/2000/svg"
   xmlns="http://www.w3.org/2000/svg"
   xmlns:xlink="http://www.w3.org/1999/xlink"
   xmlns:sodipodi="http://sodipodi.sourceforge.net/DTD/sodipodi-0.dtd"
   xmlns:inkscape="http://www.inkscape.org/namespaces/inkscape"
   version="1.1"
   id="svg5554"
   width="350"
   height="350"
   viewBox="0 0 350 350"
   sodipodi:docname="i7757890_-363790.svg"
   inkscape:version="0.92.2 (unknown)">
  <metadata
     id="metadata5560">
    <rdf:RDF>
      <cc:Work
         rdf:about="">
        <dc:format>image/svg+xml</dc:format>
        <dc:type
           rdf:resource="http://purl.org/dc/dcmitype/StillImage" />
        <dc:title />
      </cc:Work>
    </rdf:RDF>
  </metadata>
  <defs
     id="defs5558" />
  <sodipodi:namedview
     pagecolor="#ffffff"
     bordercolor="#666666"
     borderopacity="1"
     objecttolerance="10"
     gridtolerance="10"
     guidetolerance="10"
     inkscape:pageopacity="0"
     inkscape:pageshadow="2"
     inkscape:window-width="1855"
     inkscape:window-height="1056"
     id="namedview5556"
     showgrid="false"
     inkscape:zoom="3.02"
     inkscape:cx="88.989461"
     inkscape:cy="327.64762"
     inkscape:window-x="65"
     inkscape:window-y="24"
     inkscape:window-maximized="1"
     inkscape:current-layer="svg5554" />
  <image
     sodipodi:absref="carmen_lcad/data/road_mapper_remission_350px/voltadaufes/i7757890_-363790.png"
     xlink:href="carmen_lcad/data/road_mapper_remission_350px/voltadaufes/i7757890_-363790.png"
     y="0"
     x="0"
     id="image5562"
     preserveAspectRatio="none"
     height="350"
     width="350" />
  <image
     sodipodi:absref="carmen_lcad/data/road_mapper_remission_350px/voltadaufes/i7757820_-363860.png"
     xlink:href="carmen_lcad/data/road_mapper_remission_350px/voltadaufes/i7757820_-363860.png"
     y="350"
     x="-350"
     id="image5832"
     preserveAspectRatio="none"
     height="350"
     width="350" />
  <image
     sodipodi:absref="carmen_lcad/data/road_mapper_remission_350px/voltadaufes/i7757820_-363790.png"
     xlink:href="carmen_lcad/data/road_mapper_remission_350px/voltadaufes/i7757820_-363790.png"
     y="0"
     x="-350"
     id="image5652"
     preserveAspectRatio="none"
     height="350"
     width="350" />
  <path
     style="fill:none;stroke:#7fff00;stroke-width:22;stroke-linecap:butt;stroke-linejoin:miter;stroke-miterlimit:4;stroke-dasharray:none;stroke-opacity:1"
     d="m -307.48541,362.6261 c 0,0 70.96982,-53.85279 106.44469,-80.79241 35.57488,-27.01557 71.20762,-53.95524 106.70449,-81.07322 25.08697,-19.16529 50.05612,-38.48436 75.10925,-57.69387 15.60103,-11.96211 46.83428,-35.84562 46.83428,-35.84562"
     id="path5684"
     inkscape:connector-curvature="0"
     sodipodi:nodetypes="caaac" />
  <path
     style="fill:none;stroke:#7fff00;stroke-width:22;stroke-linecap:butt;stroke-linejoin:miter;stroke-miterlimit:4;stroke-dasharray:none;stroke-opacity:1"
     d="m 35.53121,68.02194 c 0,0 -38.1803,29.415654 -57.19264,44.22374 -17.57044,13.68503 -35.06522,27.467 -52.56686,41.23991 -15.27489,12.02058 -30.39642,24.23703 -45.77053,36.13045 -16.62706,12.86271 -33.54207,25.34906 -50.25687,38.09756 -21.92435,16.72187 -43.74489,33.57941 -65.62495,50.3592 -25.11768,19.26271 -75.3705,57.76535 -75.3705,57.76535"
     id="path5686"
     inkscape:connector-curvature="0"
     sodipodi:nodetypes="caaaaac" />
  <image
     sodipodi:absref="carmen_lcad/data/road_mapper_remission_350px/voltadaufes/i7757750_-363860.png"
     xlink:href="carmen_lcad/data/road_mapper_remission_350px/voltadaufes/i7757750_-363860.png"
     y="350"
     x="-700"
     id="image5742"
     preserveAspectRatio="none"
     height="350"
     width="350" />
  <path
     style="fill:none;stroke:#7fff00;stroke-width:22;stroke-linecap:butt;stroke-linejoin:miter;stroke-miterlimit:4;stroke-dasharray:none;stroke-opacity:1"
     d="m -725.98251,684.93002 c 0,0 41.95113,-31.48737 62.77236,-47.43392 24.12318,-18.47543 47.9929,-37.27949 72.00889,-55.89403 22.70235,-17.59636 45.40443,-35.19315 68.14398,-52.74141 26.76472,-20.65452 53.57316,-41.25234 80.38189,-61.84971 24.18634,-18.58257 48.46178,-37.04931 72.59895,-55.6957 20.91806,-16.15957 62.59103,-48.68915 62.59103,-48.68915"
     id="path5774"
     inkscape:connector-curvature="0"
     sodipodi:nodetypes="caaaaac" />
  <path
     style="fill:none;stroke:#7fff00;stroke-width:22;stroke-linecap:butt;stroke-linejoin:miter;stroke-miterlimit:4;stroke-dasharray:none;stroke-opacity:1"
     d="m -311.25114,335.83815 c 0,0 -54.21805,41.52665 -81.33358,62.28148 -35.65347,27.28995 -71.39756,54.46175 -106.9775,81.8475 -19.62893,15.10832 -39.10683,30.41238 -58.75516,45.49544 -15.74917,12.08986 -31.67317,23.95117 -47.39885,36.07157 -18.67713,14.39519 -37.09693,29.12207 -55.76583,43.52792 -24.78273,19.12358 -74.66565,56.95696 -74.66565,56.95696"
     id="path5776"
     inkscape:connector-curvature="0"
     sodipodi:nodetypes="caaaaac" />
  <image
     sodipodi:absref="carmen_lcad/data/road_mapper_remission_350px/voltadaufes/i7757890_-363720.png"
     xlink:href="carmen_lcad/data/road_mapper_remission_350px/voltadaufes/i7757890_-363720.png"
     y="-350"
     x="0"
     id="image5290"
     preserveAspectRatio="none"
     height="350"
     width="350" />
  <path
     style="fill:none;stroke:#7fff00;stroke-width:16;stroke-linecap:butt;stroke-linejoin:miter;stroke-miterlimit:4;stroke-dasharray:none;stroke-opacity:1"
     d="m 302.80248,-397.94002 c 0,0 21.68633,18.23239 30.45255,29.2415 7.04014,8.84141 12.49293,18.91837 17.41014,29.09458 3.65951,7.57338 6.59828,15.52061 8.91286,23.60707 2.57753,9.00513 5.48751,27.55925 5.48751,27.55925"
     id="path5322"
     inkscape:connector-curvature="0"
     sodipodi:nodetypes="caaac" />
  <path
     style="fill:none;stroke:#7fff00;stroke-width:23;stroke-linecap:butt;stroke-linejoin:miter;stroke-miterlimit:4;stroke-dasharray:none;stroke-opacity:1"
     d="m 370.11525,-250.75026 c 0,0 -2.07888,18.48001 -4.64479,27.37141 -2.09097,7.24563 -5.46618,14.0704 -8.68095,20.89217 -2.73484,5.80338 -5.6554,11.53839 -9.00626,17.00925 -3.84627,6.27971 -7.92924,12.46624 -12.69462,18.08049 -6.47677,7.6305 -13.90774,14.43076 -21.44388,21.01708 -10.56051,9.22952 -22.10812,17.26477 -33.21012,25.83529 -11.03365,8.51775 -22.19031,16.87581 -33.19578,25.42994 -12.03234,9.35228 -23.86333,18.96177 -35.89913,28.3096 -12.02153,9.33675 -24.13152,18.55956 -36.27063,27.7429 -11.99116,9.07142 -24.15263,17.916789 -36.1174,27.02299 C 104.26026,14.36396 35.53121,68.02194 35.53121,68.02194"
     id="path5324"
     inkscape:connector-curvature="0"
     sodipodi:nodetypes="caaaaaaaaaac" />
  <path
     style="fill:none;stroke:#7fff00;stroke-width:22;stroke-linecap:butt;stroke-linejoin:miter;stroke-miterlimit:4;stroke-dasharray:none;stroke-opacity:1"
     d="m 27.6073,107.22098 c 0,0 89.58812,-69.965007 134.74672,-104.47392 17.41262,-13.306225 35.05611,-26.3079 52.51641,-39.55149 14.23245,-10.79526 28.47593,-21.57731 42.58639,-32.53154 12.75657,-9.90318 25.41483,-19.93299 38.03683,-30.00712 12.75678,-10.18169 26.04905,-19.74973 38.09646,-30.76164 8.77244,-8.01843 17.46804,-16.26378 24.79564,-25.62098 4.39226,-5.60883 7.84901,-11.90486 11.34648,-18.11119 3.80528,-6.75256 7.24556,-13.7143 10.46192,-20.76641 3.25228,-7.13088 8.92026,-21.75477 8.92026,-21.75477"
     id="path5326"
     inkscape:connector-curvature="0"
     sodipodi:nodetypes="caaaaaaaac" />
</svg>
