<?xml version="1.0" encoding="UTF-8" standalone="no"?>
<!-- Created with Inkscape (http://www.inkscape.org/) -->

<svg
   xmlns:dc="http://purl.org/dc/elements/1.1/"
   xmlns:cc="http://creativecommons.org/ns#"
   xmlns:rdf="http://www.w3.org/1999/02/22-rdf-syntax-ns#"
   xmlns:svg="http://www.w3.org/2000/svg"
   xmlns="http://www.w3.org/2000/svg"
   xmlns:xlink="http://www.w3.org/1999/xlink"
   xmlns:sodipodi="http://sodipodi.sourceforge.net/DTD/sodipodi-0.dtd"
   xmlns:inkscape="http://www.inkscape.org/namespaces/inkscape"
   version="1.1"
   id="svg7290"
   width="350"
   height="350"
   viewBox="0 0 350 350"
   sodipodi:docname="i7756560_-363790.svg"
   inkscape:version="0.92.2 (unknown)">
  <metadata
     id="metadata7296">
    <rdf:RDF>
      <cc:Work
         rdf:about="">
        <dc:format>image/svg+xml</dc:format>
        <dc:type
           rdf:resource="http://purl.org/dc/dcmitype/StillImage" />
        <dc:title></dc:title>
      </cc:Work>
    </rdf:RDF>
  </metadata>
  <defs
     id="defs7294" />
  <sodipodi:namedview
     pagecolor="#ffffff"
     bordercolor="#666666"
     borderopacity="1"
     objecttolerance="10"
     gridtolerance="10"
     guidetolerance="10"
     inkscape:pageopacity="0"
     inkscape:pageshadow="2"
     inkscape:window-width="1855"
     inkscape:window-height="1056"
     id="namedview7292"
     showgrid="false"
     inkscape:zoom="0.92327943"
     inkscape:cx="-3.0121557"
     inkscape:cy="244.83351"
     inkscape:window-x="65"
     inkscape:window-y="24"
     inkscape:window-maximized="1"
     inkscape:current-layer="svg7290" />
  <image
     width="350"
     height="350"
     preserveAspectRatio="none"
     xlink:href="carmen_lcad/data/road_mapper_remission_350px/voltadaufes/i7756560_-363790.png"
     id="image7298"
     x="0"
     y="0"
     sodipodi:absref="carmen_lcad/data/road_mapper_remission_350px/voltadaufes/i7756560_-363790.png" />
  <image
     width="350"
     height="350"
     preserveAspectRatio="none"
     xlink:href="carmen_lcad/data/road_mapper_remission_350px/voltadaufes/i7756490_-363790.png"
     id="image6834"
     x="-350.00003"
     y="0"
     sodipodi:absref="carmen_lcad/data/road_mapper_remission_350px/voltadaufes/i7756490_-363790.png" />
  <image
     width="350"
     height="350"
     preserveAspectRatio="none"
     xlink:href="carmen_lcad/data/road_mapper_remission_350px/voltadaufes/i7756490_-363860.png"
     id="image6343"
     x="-350"
     y="350"
     sodipodi:absref="carmen_lcad/data/road_mapper_remission_350px/voltadaufes/i7756490_-363860.png" />
  <path
     style="display:none;opacity:0.28999999;fill:none;stroke:#00ff00;stroke-width:25;stroke-linecap:butt;stroke-linejoin:miter;stroke-miterlimit:4;stroke-dasharray:none;stroke-opacity:1"
     d="m 3733.1383,9491.8037 -35.7089,-9.9879"
     id="path2589"
     inkscape:connector-curvature="0" />
  <path
     style="opacity:0.5;fill:none;stroke:#7fff00;stroke-width:17;stroke-linecap:butt;stroke-linejoin:miter;stroke-miterlimit:4;stroke-dasharray:none;stroke-opacity:1"
     d="m -158.29206,732.3822 c 0,0 -2.55481,-5.2429 -3.52006,-7.9878 -1.56518,-4.4509 -2.71091,-9.0515 -3.65545,-13.6741 -1.18186,-5.784 -1.95625,-11.6546 -2.50465,-17.5326 -0.58467,-6.2667 -0.74751,-12.57 -0.83356,-18.8633 -0.16828,-12.3066 0.25731,-24.6157 0.62085,-36.9181 0.28616,-9.684 0.68217,-19.3658 1.22811,-29.0386 0.66793,-11.8344 1.36807,-23.6727 2.50465,-35.4713 1.15963,-12.0379 4.40008,-36.013 4.40008,-36.013"
     id="path6192"
     inkscape:connector-curvature="0"
     sodipodi:nodetypes="caaaaaaac" />
  <path
     style="opacity:0.51799999;fill:none;stroke:#ff7f00;stroke-width:17;stroke-linecap:butt;stroke-linejoin:miter;stroke-miterlimit:4;stroke-dasharray:none;stroke-opacity:1"
     d="m -140.69175,723.1759 c 0,0 -6.11827,-14.8599 -8.66476,-22.4743 -2.45566,-7.3427 -4.58648,-14.8029 -6.36319,-22.3388 -2.75014,-11.6646 -5.19779,-23.4379 -6.63397,-35.336 -1.08865,-9.019 -1.35836,-18.1292 -1.48925,-27.2128 -0.15089,-10.4723 0.30213,-20.9488 0.81231,-31.4098 0.52235,-10.7103 1.68301,-21.3815 2.30159,-32.0867 0.29707,-5.141 0.67693,-15.4341 0.67693,-15.4341"
     id="path6194"
     inkscape:connector-curvature="0"
     sodipodi:nodetypes="caaaaaac" />
  <path
     style="opacity:0.44900004;fill:none;stroke:#7fff00;stroke-width:17;stroke-linecap:butt;stroke-linejoin:miter;stroke-miterlimit:4;stroke-dasharray:none;stroke-opacity:1"
     d="m -176.84007,534.6495 c 0,0 -1.92122,14.8794 -2.70774,22.3389 -1.27094,12.0537 -2.37677,24.1269 -3.24929,36.216 -0.92239,12.7799 -1.58599,25.5793 -2.0985,38.3822 -0.39093,9.7657 -0.87561,19.5386 -0.74462,29.3113 0.14273,10.6485 1.30909,21.2614 1.66711,31.9048 0.28525,8.4805 0.38293,25.4528 0.38293,25.4528"
     id="path6196"
     inkscape:connector-curvature="0"
     sodipodi:nodetypes="caaaaac" />
  <path
     style="opacity:0.47400004;fill:none;stroke:#ff7f00;stroke-width:17;stroke-linecap:butt;stroke-linejoin:miter;stroke-miterlimit:4;stroke-dasharray:none;stroke-opacity:1"
     d="m -176.84007,534.6495 c 0,0 -2.33001,16.3451 -3.42524,24.5272 -1.23313,9.2122 -2.3644,18.4378 -3.54213,27.6572 -1.47939,11.581 -2.86247,23.1746 -4.42695,34.7443 -1.4672,10.8504 -3.0692,21.6822 -4.65127,32.5164 -1.74125,11.9244 -3.79329,23.805 -5.32819,35.7577 -1.19371,9.2958 -3.017,27.9541 -3.017,27.9541"
     id="path6198"
     inkscape:connector-curvature="0"
     sodipodi:nodetypes="caaaaac" />
  <path
     style="opacity:0.57700004;fill:none;stroke:#ff0000;stroke-width:17;stroke-linecap:butt;stroke-linejoin:miter;stroke-miterlimit:4;stroke-dasharray:none;stroke-opacity:1"
     d="m -160.05209,536.8834 c 0,0 1.87155,-13.9284 2.93254,-20.8742 2.40325,-15.7329 5.4005,-31.37163 7.77599,-47.10875 2.07198,-13.72641 3.6639,-27.52158 5.64825,-41.26094 2.09472,-14.50348 4.20369,-29.00702 6.60559,-43.4628 1.35529,-8.15682 2.63897,-16.3338 4.40372,-24.41193 2.46128,-11.26649 8.61597,-33.50656 8.61597,-33.50656"
     id="path6760"
     inkscape:connector-curvature="0"
     sodipodi:nodetypes="caaaaac" />
  <path
     style="opacity:0.478;fill:none;stroke:#ff0000;stroke-width:17;stroke-linecap:butt;stroke-linejoin:miter;stroke-miterlimit:4;stroke-dasharray:none;stroke-opacity:1"
     d="m -140.38813,321.96675 c 0,0 -3.67152,13.74188 -5.38263,20.64452 -1.78068,7.18327 -3.63383,14.35499 -5.08183,21.61264 -1.57598,7.89916 -2.68729,15.88449 -3.91942,23.84454 -1.55931,10.07379 -2.9675,20.17051 -4.39526,30.26379 -1.25354,8.86167 -2.38633,17.74026 -3.66225,26.59873 -1.40532,9.7568 -2.83796,19.51035 -4.39809,29.24358 -1.3621,8.49781 -2.96875,16.95519 -4.33238,25.45275 -1.87062,11.6569 -5.28008,35.0222 -5.28008,35.0222"
     id="path6762"
     inkscape:connector-curvature="0"
     sodipodi:nodetypes="caaaaaaac" />
  <image
     sodipodi:absref="carmen_lcad/data/road_mapper_remission_350px/voltadaufes/i7756560_-363720.png"
     y="-350"
     x="0"
     id="image7156"
     xlink:href="carmen_lcad/data/road_mapper_remission_350px/voltadaufes/i7756560_-363720.png"
     preserveAspectRatio="none"
     height="350"
     width="350" />
  <image
     sodipodi:absref="carmen_lcad/data/road_mapper_remission_350px/voltadaufes/i7756630_-363720.png"
     y="-350"
     x="350"
     id="image7221"
     xlink:href="carmen_lcad/data/road_mapper_remission_350px/voltadaufes/i7756630_-363720.png"
     preserveAspectRatio="none"
     height="350"
     width="350" />
  <path
     style="opacity:0.48500001;fill:none;stroke:#ff0000;stroke-width:17;stroke-linecap:butt;stroke-linejoin:miter;stroke-miterlimit:4;stroke-dasharray:none;stroke-opacity:1"
     d="m -124.07003,326.25822 c 0,0 3.10807,-12.72425 5.48094,-18.80798 4.75358,-12.18759 11.07537,-23.72779 17.43029,-35.16234 8.663282,-15.58805 17.340202,-31.31396 28.160492,-45.49003 10.44311,-13.68192 22.59197,-26.05905 35.18137,-37.79619 13.62049,-12.69841 28.8498496,-23.55563 43.4552296,-35.1077 12.6915504,-10.03833 25.5816404,-19.82306 38.3842004,-29.71943 22.59262,-17.46408 45.20643,-34.900737 67.819248,-52.338677 39.19373,-30.22435 117.61443,-90.62995 117.61443,-90.62995"
     id="path7224"
     inkscape:connector-curvature="0"
     sodipodi:nodetypes="caaaaaaac" />
  <path
     style="opacity:0.54000005;fill:none;stroke:#ff0000;stroke-width:17;stroke-linecap:butt;stroke-linejoin:miter;stroke-miterlimit:4;stroke-dasharray:none;stroke-opacity:1"
     d="m 216.45902,-30.166587 c 0,0 -35.34778,27.4815298 -53.07169,41.15764 -27.92759,21.54945 -56.01712,42.88852 -83.939908,64.44419 -25.86694,19.96861 -51.67105,40.018647 -77.4413504,60.111817 -9.56162,7.45522 -19.2739096,14.72388 -28.6363296,22.42777 -11.01068,9.06018 -22.20361,17.96778 -32.36711,27.96903 -9.63741,9.48357 -18.81351,19.38906 -27.0117,30.26098 -9.20968,12.2133 -17.229492,25.32273 -24.752582,38.64136 -9.27824,16.42589 -18.31499,33.12725 -25.05621,50.74689 -2.02486,5.29238 -4.57027,16.37366 -4.57027,16.37366"
     id="path7226"
     inkscape:connector-curvature="0"
     sodipodi:nodetypes="caaaaasaac" />
</svg>
