<?xml version="1.0" encoding="UTF-8" standalone="no"?>
<!-- Created with Inkscape (http://www.inkscape.org/) -->

<svg
   xmlns:dc="http://purl.org/dc/elements/1.1/"
   xmlns:cc="http://creativecommons.org/ns#"
   xmlns:rdf="http://www.w3.org/1999/02/22-rdf-syntax-ns#"
   xmlns:svg="http://www.w3.org/2000/svg"
   xmlns="http://www.w3.org/2000/svg"
   xmlns:xlink="http://www.w3.org/1999/xlink"
   xmlns:sodipodi="http://sodipodi.sourceforge.net/DTD/sodipodi-0.dtd"
   xmlns:inkscape="http://www.inkscape.org/namespaces/inkscape"
   version="1.1"
   id="svg4244"
   width="350"
   height="350"
   viewBox="0 0 350 350"
   sodipodi:docname="i7756560_-364000.svg"
   inkscape:version="0.92.2 (unknown)">
  <metadata
     id="metadata4250">
    <rdf:RDF>
      <cc:Work
         rdf:about="">
        <dc:format>image/svg+xml</dc:format>
        <dc:type
           rdf:resource="http://purl.org/dc/dcmitype/StillImage" />
        <dc:title></dc:title>
      </cc:Work>
    </rdf:RDF>
  </metadata>
  <defs
     id="defs4248" />
  <sodipodi:namedview
     pagecolor="#ffffff"
     bordercolor="#666666"
     borderopacity="1"
     objecttolerance="10"
     gridtolerance="10"
     guidetolerance="10"
     inkscape:pageopacity="0"
     inkscape:pageshadow="2"
     inkscape:window-width="1855"
     inkscape:window-height="1056"
     id="namedview4246"
     showgrid="false"
     inkscape:zoom="7.3862354"
     inkscape:cx="64.439512"
     inkscape:cy="63.066955"
     inkscape:window-x="65"
     inkscape:window-y="24"
     inkscape:window-maximized="1"
     inkscape:current-layer="svg4244" />
  <image
     width="350"
     height="350"
     preserveAspectRatio="none"
     xlink:href="carmen_lcad/data/road_mapper_remission_350px/voltadaufes/i7756560_-364000.png"
     id="image4252"
     x="-3.0517578e-05"
     y="-3.4472658e-05"
     sodipodi:absref="carmen_lcad/data/road_mapper_remission_350px/voltadaufes/i7756560_-364000.png" />
  <path
     style="display:none;opacity:0.28999999;fill:none;stroke:#00ff00;stroke-width:25;stroke-linecap:butt;stroke-linejoin:miter;stroke-miterlimit:4;stroke-dasharray:none;stroke-opacity:1"
     d="m 2394.472,7380.8423 -35.7089,-9.9879"
     id="path2589"
     inkscape:connector-curvature="0" />
  <image
     width="350"
     height="350"
     preserveAspectRatio="none"
     xlink:href="carmen_lcad/data/road_mapper_remission_350px/voltadaufes/i7756560_-364070.png"
     id="image3770"
     x="-2.6955566e-05"
     y="350.00003"
     sodipodi:absref="carmen_lcad/data/road_mapper_remission_350px/voltadaufes/i7756560_-364070.png"
     style="fill:#24221c" />
  <image
     width="350"
     height="350"
     preserveAspectRatio="none"
     xlink:href="carmen_lcad/data/road_mapper_remission_350px/voltadaufes/i7756630_-364070.png"
     id="image3313"
     x="349.99997"
     y="350.00003"
     sodipodi:absref="carmen_lcad/data/road_mapper_remission_350px/voltadaufes/i7756630_-364070.png" />
  <image
     width="350"
     height="350"
     preserveAspectRatio="none"
     xlink:href="carmen_lcad/data/road_mapper_remission_350px/voltadaufes/i7756630_-364000.png"
     id="image2561"
     x="349.99997"
     y="-3.4472658e-05"
     sodipodi:absref="carmen_lcad/data/road_mapper_remission_350px/voltadaufes/i7756630_-364000.png" />
  <image
     width="350"
     height="350"
     preserveAspectRatio="none"
     xlink:href="carmen_lcad/data/road_mapper_remission_350px/voltadaufes/i7756700_-364000.png"
     id="image2161"
     x="699.99994"
     y="-3.4472658e-05"
     sodipodi:absref="carmen_lcad/data/road_mapper_remission_350px/voltadaufes/i7756700_-364000.png" />
  <image
     width="350"
     height="350"
     preserveAspectRatio="none"
     xlink:href="carmen_lcad/data/road_mapper_remission_350px/voltadaufes/i7756700_-364070.png"
     id="image1109"
     x="699.99994"
     y="350.00003"
     sodipodi:absref="carmen_lcad/data/road_mapper_remission_350px/voltadaufes/i7756700_-364070.png" />
  <path
     style="opacity:0.52600002;fill:none;stroke:#ff007f;stroke-width:18;stroke-linecap:butt;stroke-linejoin:miter;stroke-miterlimit:4;stroke-dasharray:none;stroke-opacity:1"
     d="m 1056.751,442.75825 c 0,0 -9.4145,-3.2148 -14.0763,-4.9479 -17.7933,-6.6152 -35.4377,-13.6311 -53.01553,-20.7993 -12.13481,-4.9485 -24.23261,-9.9963 -36.20321,-15.3298 -12.71619,-5.6657 -25.23569,-11.763 -37.8259,-17.7034 -9.8008,-4.6244 -19.6234,-9.2047 -29.359,-13.9648 -10.4493,-5.1091 -20.8774,-10.2672 -31.1809,-15.6643 -10.9988,-5.7613 -32.6983,-17.8414 -32.6983,-17.8414"
     id="path950"
     inkscape:connector-curvature="0"
     sodipodi:nodetypes="caaaaaac" />
  <path
     style="opacity:0.522;fill:none;stroke:#7f00ff;stroke-width:18;stroke-linecap:butt;stroke-linejoin:miter;stroke-miterlimit:4;stroke-dasharray:none;stroke-opacity:1"
     d="m 1050.7775,459.82175 c 0,0 -21.8614,-8.1929 -32.7339,-12.4404 -11.3415,-4.4309 -22.64363,-8.9642 -33.90023,-13.6068 -14.1291,-5.8273 -28.26431,-11.6513 -42.2197,-17.8831 -11.7405,-5.2427 -23.0582,-10.6254 -34.91101,-16.4058 -13.472,-6.5701 -24.6262,-11.7027 -36.85479,-17.7277 -11.6138,-5.722 -23.2627,-11.3853 -34.6777,-17.4944 -14.971,-8.012 -44.31911,-25.1141 -44.31911,-25.1141"
     id="path952"
     inkscape:connector-curvature="0"
     sodipodi:nodetypes="caaasaac" />
  <path
     style="opacity:0.68000034;fill:none;stroke:#0000ff;stroke-width:18;stroke-linecap:butt;stroke-linejoin:miter;stroke-miterlimit:4;stroke-dasharray:none;stroke-opacity:1"
     d="m 1300.1306,658.09125 c -42.1262,-6.8188 -84.8944,-13.602 -127.3362,-20.4363 -46.2867,-7.4535 -93.2933,-15.2439 -138.8484,-22.4333"
     id="path1027"
     inkscape:connector-curvature="0"
     sodipodi:nodetypes="cac" />
  <path
     style="opacity:0.67600002;fill:none;stroke:#ff007f;stroke-width:16;stroke-linecap:butt;stroke-linejoin:miter;stroke-miterlimit:4;stroke-dasharray:none;stroke-opacity:1"
     d="m 1302.7742,641.60765 -266.0226,-43.0276"
     id="path1029"
     inkscape:connector-curvature="0"
     sodipodi:nodetypes="cc" />
  <path
     style="opacity:0.49300005;fill:none;stroke:#7f00ff;stroke-width:16;stroke-linecap:butt;stroke-linejoin:miter;stroke-miterlimit:4;stroke-dasharray:none;stroke-opacity:1"
     d="m 1315.2146,677.76275 c 0,0 -94.6993,-15.4249 -142.0605,-23.0659 -47.2792,-7.6277 -141.8605,-22.7403 -141.8605,-22.7403"
     id="path1031"
     inkscape:connector-curvature="0"
     sodipodi:nodetypes="cac" />
  <path
     style="opacity:0.46300001;fill:none;stroke:#ff007f;stroke-width:18;stroke-linecap:butt;stroke-linejoin:miter;stroke-miterlimit:4;stroke-dasharray:none;stroke-opacity:1"
     d="m 822.39186,336.50735 c 0,0 -38.8015,-22.019 -57.9477,-33.4619 -29.4664,-17.6109 -87.59536,-54.1548 -87.59536,-54.1548"
     id="path1718"
     inkscape:connector-curvature="0"
     sodipodi:nodetypes="cac" />
  <path
     style="opacity:0.47099998;fill:none;stroke:#7f00ff;stroke-width:18;stroke-linecap:butt;stroke-linejoin:miter;stroke-miterlimit:4;stroke-dasharray:none;stroke-opacity:1"
     d="m 791.16106,339.14945 -17.78129,-10.3805"
     id="path1720"
     inkscape:connector-curvature="0"
     sodipodi:nodetypes="cc" />
  <path
     style="opacity:0.52899996;fill:none;stroke:#007fff;stroke-width:18;stroke-linecap:butt;stroke-linejoin:miter;stroke-miterlimit:4;stroke-dasharray:none;stroke-opacity:1"
     d="m 773.37976,328.76895 -47.1147,-27.9574"
     id="path1722"
     inkscape:connector-curvature="0"
     sodipodi:nodetypes="cc" />
  <path
     style="opacity:0.47099998;fill:none;stroke:#7f00ff;stroke-width:18;stroke-linecap:butt;stroke-linejoin:miter;stroke-miterlimit:4;stroke-dasharray:none;stroke-opacity:1"
     d="m 726.26506,300.81155 -58.71859,-36.7798"
     id="path1724"
     inkscape:connector-curvature="0"
     sodipodi:nodetypes="cc" />
  <path
     style="opacity:0.50700001;fill:none;stroke:#0000ff;stroke-width:18;stroke-linecap:butt;stroke-linejoin:miter;stroke-miterlimit:4;stroke-dasharray:none;stroke-opacity:1"
     d="m 1033.946,615.22165 c 0,0 -60.16453,-8.9292 -90.20974,-13.6352 -42.1585,-6.6033 -84.3133,-13.2496 -126.3676,-20.4869 -20.7139,-3.5647 -41.4103,-7.2472 -62.035,-11.2965 -18.7151,-3.6744 -45.1327,-9.2913 -67.6611,-14.1162 -5.0232,-1.0758 -15.05224,-3.3072 -15.05224,-3.3072"
     id="path1726"
     inkscape:connector-curvature="0"
     sodipodi:nodetypes="caasac" />
  <path
     style="opacity:0.48500001;fill:none;stroke:#ff007f;stroke-width:16;stroke-linecap:butt;stroke-linejoin:miter;stroke-miterlimit:4;stroke-dasharray:none;stroke-opacity:1"
     d="m 1036.7516,598.58005 c 0,0 -51.38534,-7.6143 -77.05594,-11.5662 -22.7565,-3.5034 -45.5035,-7.0707 -68.2296,-10.7666 -22.9867,-3.7383 -45.9594,-7.5657 -68.9066,-11.5392 -20.8721,-3.6142 -41.7554,-7.1802 -62.5553,-11.1892 -14.8619,-2.8645 -29.6549,-6.0766 -44.4666,-9.1904 -13.0729,-2.7482 -39.19046,-8.378 -39.19046,-8.378"
     id="path1728"
     inkscape:connector-curvature="0"
     sodipodi:nodetypes="caaaaac" />
  <path
     style="opacity:0.43800001;fill:none;stroke:#7f00ff;stroke-width:16;stroke-linecap:butt;stroke-linejoin:miter;stroke-miterlimit:4;stroke-dasharray:none;stroke-opacity:1"
     d="m 1031.2936,631.95655 c 0,0 -39.02664,-6.1226 -58.55014,-9.1174 -19.4271,-2.9799 -38.8829,-5.7726 -58.3015,-8.8074 -18.5872,-2.9049 -37.1536,-5.9426 -55.7166,-8.9989 -19.0286,-3.133 -38.0762,-6.1619 -57.0569,-9.5733 -17.0133,-3.0578 -33.9631,-6.4592 -50.93,-9.7648 -13.2778,-2.5869 -26.5507,-5.2001 -39.8101,-7.8796 -7.0542,-1.4256 -14.1038,-2.8744 -21.1453,-4.3613 -6.5474,-1.3825 -19.62235,-4.2398 -19.62235,-4.2398"
     id="path1730"
     inkscape:connector-curvature="0"
     sodipodi:nodetypes="caaaaaaac" />
  <image
     sodipodi:absref="carmen_lcad/data/road_mapper_remission_350px/voltadaufes/i7756560_-363930.png"
     y="-350"
     x="-2.5268554e-07"
     id="image3106"
     xlink:href="carmen_lcad/data/road_mapper_remission_350px/voltadaufes/i7756560_-363930.png"
     preserveAspectRatio="none"
     height="350"
     width="350" />
  <image
     sodipodi:absref="carmen_lcad/data/road_mapper_remission_350px/voltadaufes/i7756490_-363930.png"
     y="-350"
     x="-349.99997"
     id="image3171"
     xlink:href="carmen_lcad/data/road_mapper_remission_350px/voltadaufes/i7756490_-363930.png"
     preserveAspectRatio="none"
     height="350"
     width="350" />
  <image
     sodipodi:absref="carmen_lcad/data/road_mapper_remission_350px/voltadaufes/i7756490_-364000.png"
     y="-3.4472658e-05"
     x="-349.99997"
     id="image3236"
     xlink:href="carmen_lcad/data/road_mapper_remission_350px/voltadaufes/i7756490_-364000.png"
     preserveAspectRatio="none"
     height="350"
     width="350" />
  <path
     style="opacity:0.51499999;fill:none;stroke:#ff007f;stroke-width:18;stroke-linecap:butt;stroke-linejoin:miter;stroke-miterlimit:4;stroke-dasharray:none;stroke-opacity:1"
     d="M 676.8488,248.89065 C 528.12784,156.71628 380.84917,65.98423 230.31791,-28.00042"
     id="path3239"
     inkscape:connector-curvature="0"
     sodipodi:nodetypes="cc" />
  <path
     style="opacity:0.51799999;fill:none;stroke:#7f00ff;stroke-width:18;stroke-linecap:butt;stroke-linejoin:miter;stroke-miterlimit:4;stroke-dasharray:none;stroke-opacity:1"
     d="M 667.54647,264.03175 C 527.13541,177.11949 386.78237,90.76015 246.79946,3.482 238.07119,-1.96001 229.42915,-7.54297 220.66465,-12.92397"
     id="path3241"
     inkscape:connector-curvature="0"
     sodipodi:nodetypes="cac" />
  <path
     style="opacity:0.46300001;fill:none;stroke:#0000ff;stroke-width:18;stroke-linecap:butt;stroke-linejoin:miter;stroke-miterlimit:4;stroke-dasharray:none;stroke-opacity:1"
     d="m 672.62032,552.37965 c 0,0 -9.31269,-1.9896 -13.93183,-3.1411 -15.8724,-3.9569 -31.6407,-8.3369 -47.33732,-12.942 -25.99341,-7.626 -51.84838,-15.7395 -77.54376,-24.3162 -20.48769,-6.8384 -40.85066,-14.0609 -61.07768,-21.6357 -18.05779,-6.7624 -35.97463,-13.9042 -53.80197,-21.2527 -17.78901,-7.3327 -35.41709,-15.0522 -53.0361,-22.7845 -22.8633,-10.0337 -68.3534,-30.6345 -68.3534,-30.6345"
     id="path3661"
     inkscape:connector-curvature="0"
     sodipodi:nodetypes="caaaaaac" />
  <path
     style="opacity:0.52899996;fill:none;stroke:#ff007f;stroke-width:16;stroke-linecap:butt;stroke-linejoin:miter;stroke-miterlimit:4;stroke-dasharray:none;stroke-opacity:1"
     d="m 676.3471,535.95045 c 0,0 -13.63466,-3.1404 -20.41221,-4.8716 -9.65526,-2.4662 -19.26011,-5.1294 -28.84523,-7.8556 -15.7002,-4.4654 -31.36582,-9.0605 -46.94746,-13.9234 -22.98442,-7.1733 -45.91382,-14.5453 -68.64059,-22.4973 -18.12733,-6.3426 -36.13234,-13.0463 -53.99344,-20.1039 -24.61002,-9.7244 -73.23577,-30.6346 -73.23577,-30.6346"
     id="path3682"
     inkscape:connector-curvature="0"
     sodipodi:nodetypes="caaaaac" />
  <path
     style="opacity:0.51799999;fill:none;stroke:#0000ff;stroke-width:16;stroke-linecap:butt;stroke-linejoin:miter;stroke-miterlimit:4;stroke-dasharray:none;stroke-opacity:1"
     d="m 384.2724,436.06405 -80.76585,-35.9656"
     id="path3684"
     inkscape:connector-curvature="0"
     sodipodi:nodetypes="cc" />
  <path
     style="opacity:0.46000001;fill:none;stroke:#7f00ff;stroke-width:16;stroke-linecap:butt;stroke-linejoin:miter;stroke-miterlimit:4;stroke-dasharray:none;stroke-opacity:1"
     d="m 670.16071,569.21405 c 0,0 -32.8902,-8.1448 -49.20966,-12.6859 -16.88688,-4.699 -33.66201,-9.8005 -50.38216,-15.062 -14.28746,-4.496 -28.45457,-9.3662 -42.66409,-14.1028 -14.12747,-4.7093 -28.3396,-9.1785 -42.34684,-14.2342 -14.36921,-5.1864 -28.53413,-10.9232 -42.75302,-16.5085 -13.73453,-5.3951 -27.49306,-10.7362 -41.10913,-16.4237 -16.7644,-7.0024 -33.36331,-14.3968 -49.95972,-21.7886 -20.52664,-9.1423 -61.36536,-27.9036 -61.36536,-27.9036"
     id="path3686"
     inkscape:connector-curvature="0"
     sodipodi:nodetypes="caaaaaaac" />
  <path
     style="opacity:0.43399999;fill:none;stroke:#ff007f;stroke-width:20;stroke-linecap:butt;stroke-linejoin:miter;stroke-miterlimit:4;stroke-dasharray:none;stroke-opacity:1"
     d="m 391.6933,419.88015 -81.06772,-36.0251"
     id="path3688"
     inkscape:connector-curvature="0"
     sodipodi:nodetypes="cc" />
  <path
     style="opacity:0.43800001;fill:none;stroke:#7fff00;stroke-width:18;stroke-linecap:butt;stroke-linejoin:miter;stroke-miterlimit:4;stroke-dasharray:none;stroke-opacity:1"
     d="m 450.47111,434.51125 c 0,0 -10.53553,0.7458 -15.78328,0.3533 -4.92734,-0.3685 -9.82828,-1.27 -14.60541,-2.5323 -3.87223,-1.0233 -7.57945,-2.5996 -11.30742,-4.0636 -3.25823,-1.2796 -6.44185,-2.7416 -9.65842,-4.1225 -3.45818,-1.4847 -10.36514,-4.4759 -10.36514,-4.4759"
     id="path3692"
     inkscape:connector-curvature="0"
     sodipodi:nodetypes="caaaac" />
  <path
     style="opacity:0.51099997;fill:none;stroke:#7fff00;stroke-width:16;stroke-linecap:butt;stroke-linejoin:miter;stroke-miterlimit:4;stroke-dasharray:none;stroke-opacity:1"
     d="m 505.47699,416.13665 c 0,0 -7.7934,5.6239 -12.01413,7.8917 -5.26794,2.8304 -10.7814,5.2854 -16.48999,7.0671 -5.27746,1.6472 -10.78096,2.5195 -16.25442,3.298 -4.25132,0.6047 -12.83863,1.0601 -12.83863,1.0601"
     id="path3694"
     inkscape:connector-curvature="0"
     sodipodi:nodetypes="caaac" />
  <path
     style="opacity:0.48200001;fill:none;stroke:#ff7f00;stroke-width:18;stroke-linecap:butt;stroke-linejoin:miter;stroke-miterlimit:4;stroke-dasharray:none;stroke-opacity:1"
     d="m 449.99997,425.55955 c 0,0 -11.9511,0.092 -17.90341,-0.3534 -9.08132,-0.6798 -18.1464,-1.8213 -27.0907,-3.5335 -5.172,-0.9902 -15.31213,-3.887 -15.31213,-3.887"
     id="path3696"
     inkscape:connector-curvature="0"
     sodipodi:nodetypes="caac" />
  <path
     style="opacity:0.47099998;fill:none;stroke:#ff7f00;stroke-width:16;stroke-linecap:butt;stroke-linejoin:miter;stroke-miterlimit:4;stroke-dasharray:none;stroke-opacity:1"
     d="m 496.28971,403.29805 c 0,0 -7.09825,5.217 -10.83627,7.5383 -3.73206,2.3176 -7.54161,4.547 -11.54298,6.3604 -4.41181,1.9994 -9.00255,3.6277 -13.66314,4.947 -4.28238,1.2122 -13.07421,2.7091 -13.07421,2.7091"
     id="path3698"
     inkscape:connector-curvature="0"
     sodipodi:nodetypes="caaac" />
  <path
     style="opacity:0.522;fill:none;stroke:#0000ff;stroke-width:18;stroke-linecap:butt;stroke-linejoin:miter;stroke-miterlimit:4;stroke-dasharray:none;stroke-opacity:1"
     d="m 297.53825,415.67295 c -48.54032,-21.648 -106.63576,-48.3135 -159.94043,-72.4994 -57.879836,-26.2619 -118.341324,-52.0446 -173.610781,-78.8488"
     id="path4174"
     inkscape:connector-curvature="0"
     sodipodi:nodetypes="cac" />
  <path
     style="opacity:0.5;fill:none;stroke:#7f00ff;stroke-width:16;stroke-linecap:butt;stroke-linejoin:miter;stroke-miterlimit:4;stroke-dasharray:none;stroke-opacity:1"
     d="m 290.37072,430.50475 c 0,0 -105.52294,-47.5851 -158.30076,-71.3414 -38.772739,-17.4523 -77.679399,-34.6091 -116.342186,-52.3037 -19.745,-9.0366 -59.051631,-27.5069 -59.051631,-27.5069"
     id="path4176"
     inkscape:connector-curvature="0"
     sodipodi:nodetypes="caac" />
  <path
     style="opacity:0.50400002;fill:none;stroke:#0000ff;stroke-width:16;stroke-linecap:butt;stroke-linejoin:miter;stroke-miterlimit:4;stroke-dasharray:none;stroke-opacity:1"
     d="m 303.50655,400.09845 c 0,0 -98.32595,-44.8079 -147.58748,-66.9939 -39.11941,-17.6182 -78.499586,-34.658 -117.513723,-52.5081 C 5.646841,265.60835 -59.466675,234.7607 -59.466675,234.7607"
     id="path4178"
     inkscape:connector-curvature="0"
     sodipodi:nodetypes="caac" />
  <path
     style="opacity:0.48200001;fill:none;stroke:#ff007f;stroke-width:20;stroke-linecap:butt;stroke-linejoin:miter;stroke-miterlimit:4;stroke-dasharray:none;stroke-opacity:1"
     d="m 310.62558,383.85505 c 0,0 -75.35351,-34.06139 -113.03261,-51.0869 C 164.36951,317.75595 131.14083,302.75529 97.918448,287.7407 69.07423,274.70478 40.13136,261.88469 11.392204,248.61876 -9.6820067,238.89095 -51.600135,218.94151 -51.600135,218.94151"
     id="path4180"
     inkscape:connector-curvature="0"
     sodipodi:nodetypes="caaac" />
</svg>
