<?xml version="1.0" encoding="UTF-8" standalone="no"?>
<!-- Created with Inkscape (http://www.inkscape.org/) -->

<svg
   xmlns:dc="http://purl.org/dc/elements/1.1/"
   xmlns:cc="http://creativecommons.org/ns#"
   xmlns:rdf="http://www.w3.org/1999/02/22-rdf-syntax-ns#"
   xmlns:svg="http://www.w3.org/2000/svg"
   xmlns="http://www.w3.org/2000/svg"
   xmlns:xlink="http://www.w3.org/1999/xlink"
   xmlns:sodipodi="http://sodipodi.sourceforge.net/DTD/sodipodi-0.dtd"
   xmlns:inkscape="http://www.inkscape.org/namespaces/inkscape"
   version="1.1"
   id="svg7974"
   width="350"
   height="350"
   viewBox="0 0 350 350"
   sodipodi:docname="i7757260_-364140.svg"
   inkscape:version="0.92.2 (unknown)">
  <metadata
     id="metadata7980">
    <rdf:RDF>
      <cc:Work
         rdf:about="">
        <dc:format>image/svg+xml</dc:format>
        <dc:type
           rdf:resource="http://purl.org/dc/dcmitype/StillImage" />
        <dc:title />
      </cc:Work>
    </rdf:RDF>
  </metadata>
  <defs
     id="defs7978" />
  <sodipodi:namedview
     pagecolor="#ffffff"
     bordercolor="#666666"
     borderopacity="1"
     objecttolerance="10"
     gridtolerance="10"
     guidetolerance="10"
     inkscape:pageopacity="0"
     inkscape:pageshadow="2"
     inkscape:window-width="1855"
     inkscape:window-height="1056"
     id="namedview7976"
     showgrid="false"
     inkscape:zoom="5.6002856"
     inkscape:cx="317.43477"
     inkscape:cy="184.1022"
     inkscape:window-x="65"
     inkscape:window-y="24"
     inkscape:window-maximized="1"
     inkscape:current-layer="svg7974"
     inkscape:measure-start="325.698,210.168"
     inkscape:measure-end="324.626,167.134" />
  <image
     sodipodi:absref="carmen_lcad/data/road_mapper_remission_350px/voltadaufes/i7757400_-364140.png"
     xlink:href="carmen_lcad/data/road_mapper_remission_350px/voltadaufes/i7757400_-364140.png"
     y="3.0517578e-05"
     x="700"
     id="image7785"
     preserveAspectRatio="none"
     height="350"
     width="350" />
  <image
     sodipodi:absref="carmen_lcad/data/road_mapper_remission_350px/voltadaufes/i7757330_-364140.png"
     xlink:href="carmen_lcad/data/road_mapper_remission_350px/voltadaufes/i7757330_-364140.png"
     y="0"
     x="350"
     id="image7892"
     preserveAspectRatio="none"
     height="350"
     width="350" />
  <image
     sodipodi:absref="carmen_lcad/data/road_mapper_remission_350px/voltadaufes/i7757260_-364140.png"
     xlink:href="carmen_lcad/data/road_mapper_remission_350px/voltadaufes/i7757260_-364140.png"
     width="350"
     height="350"
     preserveAspectRatio="none"
     id="image7982"
     x="0"
     y="0"
     style="fill:#ffccaa" />
  <path
     style="opacity:0.56099997;fill:none;stroke:#ff0000;stroke-width:23;stroke-linecap:butt;stroke-linejoin:miter;stroke-miterlimit:4;stroke-dasharray:none;stroke-opacity:1"
     d="m 97.215245,146.74044 c 0,0 27.280575,4.0838 40.945835,5.94836 18.91202,2.58045 37.84979,4.97455 56.80093,7.2499 26.68371,3.20375 43.34536,5.55724 80.1206,9.0139"
     id="path8014"
     inkscape:connector-curvature="0"
     sodipodi:nodetypes="caac" />
  <path
     style="opacity:0.54199997;fill:none;stroke:#ff0000;stroke-width:23;stroke-linecap:butt;stroke-linejoin:miter;stroke-miterlimit:4;stroke-dasharray:none;stroke-opacity:1"
     d="m 277.33217,146.29199 c -12.90437,-1.28692 -25.54016,-2.38655 -38.28694,-3.80145 -19.3028,-2.14262 -38.56747,-4.62007 -57.83007,-7.09821 -17.40441,-2.23908 -34.79916,-4.55766 -52.17328,-7.02078 -13.09092,-1.8559 -23.63541,-3.55144 -39.232427,-5.84512"
     id="path8016"
     inkscape:connector-curvature="0"
     sodipodi:nodetypes="caaac" />
  <path
     style="opacity:0.55;fill:none;stroke:#7f00ff;stroke-width:23;stroke-linecap:butt;stroke-linejoin:miter;stroke-miterlimit:4;stroke-dasharray:none;stroke-opacity:1"
     d="m -28.33698,130.57987 c 15.911185,2.33988 32.4731218,4.42481 48.722889,6.53722 14.198399,1.84575 28.410582,3.5839 42.617559,5.36241 11.403028,1.4275 20.742712,2.29831 34.211777,4.26094"
     id="path8020"
     inkscape:connector-curvature="0"
     sodipodi:nodetypes="caac" />
  <path
     style="opacity:0.481;fill:none;stroke:#7f00ff;stroke-width:23;stroke-linecap:butt;stroke-linejoin:miter;stroke-miterlimit:4;stroke-dasharray:none;stroke-opacity:1"
     d="M 89.809453,122.52643 C 74.575223,120.66779 64.083191,119.60832 51.232934,118.04118 34.797502,116.03682 18.372671,113.9431 1.9611183,111.75179 -6.881121,110.57115 -14.482971,109.2641 -24.544695,108.05669"
     id="path8022"
     inkscape:connector-curvature="0"
     sodipodi:nodetypes="caac" />
  <path
     style="fill:none;stroke:#ff0000;stroke-width:18;stroke-linecap:butt;stroke-linejoin:miter;stroke-miterlimit:4;stroke-dasharray:none;stroke-opacity:1"
     d="M 177.96772,281.55088 98.987965,270.35011"
     id="path4688"
     inkscape:connector-curvature="0"
     sodipodi:nodetypes="cc" />
  <path
     style="fill:none;stroke:#0000ff;stroke-width:18;stroke-linecap:butt;stroke-linejoin:miter;stroke-miterlimit:4;stroke-dasharray:none;stroke-opacity:1"
     d="m 370.58081,309.21718 c 0,0 -67.51795,-10.68519 -101.35119,-15.52653 -30.37915,-4.34707 -91.2619,-12.13977 -91.2619,-12.13977"
     id="path4690"
     inkscape:connector-curvature="0"
     sodipodi:nodetypes="cac" />
  <path
     style="fill:none;stroke:#7f00ff;stroke-width:16;stroke-linecap:butt;stroke-linejoin:miter;stroke-miterlimit:4;stroke-dasharray:none;stroke-opacity:1"
     d="M 180.39231,264.77907 101.39523,253.60669"
     id="path4692"
     inkscape:connector-curvature="0"
     sodipodi:nodetypes="cc" />
  <path
     style="fill:none;stroke:#0000ff;stroke-width:16;stroke-linecap:butt;stroke-linejoin:miter;stroke-miterlimit:4;stroke-dasharray:none;stroke-opacity:1"
     d="m 372.72727,291.70999 c 0,0 -56.30931,-7.49945 -84.43998,-11.42379 -35.98607,-5.02021 -107.89498,-15.50713 -107.89498,-15.50713"
     id="path4694"
     inkscape:connector-curvature="0"
     sodipodi:nodetypes="cac" />
  <path
     style="fill:none;stroke:#ff0000;stroke-width:16;stroke-linecap:butt;stroke-linejoin:miter;stroke-miterlimit:4;stroke-dasharray:none;stroke-opacity:1"
     d="M 175.61604,298.12764 96.334371,287.05679"
     id="path4696"
     inkscape:connector-curvature="0"
     sodipodi:nodetypes="cc" />
  <path
     style="fill:none;stroke:#7f00ff;stroke-width:16;stroke-linecap:butt;stroke-linejoin:miter;stroke-miterlimit:4;stroke-dasharray:none;stroke-opacity:1"
     d="m 369.08831,325.17983 c 0,0 -62.47582,-9.21372 -93.74646,-13.59085 -33.21955,-4.64993 -99.72581,-13.46134 -99.72581,-13.46134"
     id="path4698"
     inkscape:connector-curvature="0"
     sodipodi:nodetypes="cac" />
  <path
     style="fill:none;stroke:#7f00ff;stroke-width:16;stroke-linecap:butt;stroke-linejoin:miter;stroke-miterlimit:4;stroke-dasharray:none;stroke-opacity:1"
     d="M 96.334371,287.05679 -13.257576,272.85354"
     id="path4700"
     inkscape:connector-curvature="0"
     sodipodi:nodetypes="cc" />
  <path
     style="fill:none;stroke:#0000ff;stroke-width:18;stroke-linecap:butt;stroke-linejoin:miter;stroke-miterlimit:4;stroke-dasharray:none;stroke-opacity:1"
     d="m 98.987965,270.35011 -109.84655,-14.2895"
     id="path4702"
     inkscape:connector-curvature="0"
     sodipodi:nodetypes="cc" />
  <path
     style="fill:none;stroke:#0000ff;stroke-width:16;stroke-linecap:butt;stroke-linejoin:miter;stroke-miterlimit:4;stroke-dasharray:none;stroke-opacity:1"
     d="m 101.39523,253.60669 -54.320933,-7.1114"
     id="path4704"
     inkscape:connector-curvature="0"
     sodipodi:nodetypes="cc" />
  <path
     style="fill:none;stroke:#ff007f;stroke-width:16;stroke-linecap:butt;stroke-linejoin:miter;stroke-miterlimit:4;stroke-dasharray:none;stroke-opacity:1"
     d="M 47.074297,246.49529 -8.6918382,239.27063"
     id="path4706"
     inkscape:connector-curvature="0"
     sodipodi:nodetypes="cc" />
  <path
     style="fill:none;stroke:#0000ff;stroke-width:18;stroke-linecap:butt;stroke-linejoin:miter;stroke-miterlimit:4;stroke-dasharray:none;stroke-opacity:1"
     d="M 717.36354,356.62027 335.75746,303.67266"
     id="path4788"
     inkscape:connector-curvature="0"
     sodipodi:nodetypes="cc" />
  <path
     style="fill:none;stroke:#0000ff;stroke-width:16;stroke-linecap:butt;stroke-linejoin:miter;stroke-miterlimit:4;stroke-dasharray:none;stroke-opacity:1"
     d="M 665.8682,332.42756 338.38186,286.97158"
     id="path4790"
     inkscape:connector-curvature="0"
     sodipodi:nodetypes="cc" />
  <path
     style="fill:none;stroke:#7f00ff;stroke-width:17;stroke-linecap:butt;stroke-linejoin:miter;stroke-miterlimit:4;stroke-dasharray:none;stroke-opacity:1"
     d="M 714.98712,373.95248 333.55957,319.96098"
     id="path4794"
     inkscape:connector-curvature="0"
     sodipodi:nodetypes="cc" />
  <path
     style="fill:none;stroke:#ff007f;stroke-width:16;stroke-linecap:butt;stroke-linejoin:miter;stroke-miterlimit:4;stroke-dasharray:none;stroke-opacity:1"
     d="m 682.41946,334.61243 c 0,0 -9.74382,-0.80557 -15.11246,-1.80528 -5.95142,-1.10823 -21.42743,-9.62661 -32.51514,-13.45327 -14.74528,-5.08898 -29.81949,-9.31701 -45.07148,-12.58779 -24.48497,-5.25079 -49.49771,-7.64092 -74.27968,-11.23797 -36.47319,-5.294 -73.00948,-10.14379 -109.5131,-15.22378 -21.8859,-3.04573 -65.65634,-9.14689 -65.65634,-9.14689"
     id="path4796"
     inkscape:connector-curvature="0"
     sodipodi:nodetypes="csaaaac" />
  <path
     style="fill:none;stroke:#ff007f;stroke-width:16;stroke-linecap:butt;stroke-linejoin:miter;stroke-miterlimit:4;stroke-dasharray:none;stroke-opacity:1"
     d="m 340.27126,271.15745 c 0,0 -29.38078,-3.57054 -44.04013,-5.59032 -14.54904,-2.00458 -29.04671,-4.36664 -43.58055,-6.47856 -16.62736,-2.41613 -33.25007,-4.871 -49.90556,-7.08494 -15.42265,-2.05006 -30.81323,-4.48277 -46.32071,-5.73937 -12.1644,-0.98571 -24.38349,-1.18691 -36.58579,-1.40683 -11.55489,-0.20825 -23.128766,-0.51235 -34.670186,0.0829 -7.515554,0.38763 -14.938066,2.1298 -22.462323,2.26901 -7.70804,0.14261 -15.42001,-0.61129 -23.081209,-1.47167 -7.943162,-0.89204 -23.673022,-3.82022 -23.673022,-3.82022"
     id="path6064"
     inkscape:connector-curvature="0"
     sodipodi:nodetypes="caaaaaaaac" />
  <path
     style="opacity:0.56499999;fill:none;stroke:#ff0000;stroke-width:24;stroke-linecap:butt;stroke-linejoin:miter;stroke-miterlimit:4;stroke-dasharray:none;stroke-opacity:1"
     d="m 489.95875,139.5405 c -18.41173,1.69955 -29.22119,3.11618 -43.85875,4.38536 -21.64986,1.8772 -48.88243,4.77602 -65.0181,4.77602"
     id="path7924-5"
     inkscape:connector-curvature="0"
     sodipodi:nodetypes="cac" />
  <path
     style="opacity:0.5270004;fill:none;stroke:#ff0000;stroke-width:24;stroke-linecap:butt;stroke-linejoin:miter;stroke-miterlimit:4;stroke-dasharray:none;stroke-opacity:1"
     d="m 380.72034,172.16622 c 31.9012,-0.75757 37.2508,-1.91362 55.82984,-3.49743 21.28198,-1.81423 42.51124,-4.24306 63.70746,-6.87639 17.48779,-2.17262 30.79783,-3.45773 52.35177,-7.36067"
     id="path7926-3"
     inkscape:connector-curvature="0"
     sodipodi:nodetypes="caac" />
  <path
     style="opacity:0.531;fill:none;stroke:#ff0000;stroke-width:24;stroke-linecap:butt;stroke-linejoin:miter;stroke-miterlimit:4;stroke-dasharray:none;stroke-opacity:1"
     d="m 720.93931,90.62243 c -22.4898,7.05084 -28.5347,8.84362 -42.9394,12.78483 -21.10565,5.77463 -42.28553,11.35256 -63.68768,15.90691 -24.12891,5.1346 -48.50647,9.06341 -72.88251,12.85511 -20.01326,3.11307 -34.03569,4.87613 -60.21676,8.12025"
     id="path4798"
     inkscape:connector-curvature="0"
     sodipodi:nodetypes="caaac" />
  <path
     style="opacity:0.46200005;fill:none;stroke:#ff0000;stroke-width:24;stroke-linecap:butt;stroke-linejoin:miter;stroke-miterlimit:4;stroke-dasharray:none;stroke-opacity:1"
     d="m 547.4639,154.93652 c 26.4089,-4.29982 38.87731,-5.92077 58.17422,-9.66795 15.57454,-3.02436 31.05572,-6.5409 46.46049,-10.33647 12.4374,-3.06443 24.7792,-6.51241 37.0942,-10.03651 14.5361,-4.1597 27.8842,-7.58901 43.4232,-13.1089"
     id="path4800"
     inkscape:connector-curvature="0"
     sodipodi:nodetypes="caaac" />
  <image
     sodipodi:absref="carmen_lcad/data/road_mapper_remission_350px/voltadaufes/i7757400_-364070.png"
     xlink:href="carmen_lcad/data/road_mapper_remission_350px/voltadaufes/i7757400_-364070.png"
     width="350"
     height="350"
     preserveAspectRatio="none"
     id="image7544"
     x="700"
     y="-350" />
  <image
     sodipodi:absref="carmen_lcad/data/road_mapper_remission_350px/voltadaufes/i7757540_-364000.png"
     xlink:href="carmen_lcad/data/road_mapper_remission_350px/voltadaufes/i7757540_-364000.png"
     width="350"
     height="350"
     preserveAspectRatio="none"
     id="image6507"
     x="1400"
     y="-699.99994" />
  <image
     sodipodi:absref="carmen_lcad/data/road_mapper_remission_350px/voltadaufes/i7757540_-364070.png"
     xlink:href="carmen_lcad/data/road_mapper_remission_350px/voltadaufes/i7757540_-364070.png"
     width="350"
     height="350"
     preserveAspectRatio="none"
     id="image6832"
     x="1400"
     y="-350" />
  <image
     sodipodi:absref="carmen_lcad/data/road_mapper_remission_350px/voltadaufes/i7757470_-364070.png"
     xlink:href="carmen_lcad/data/road_mapper_remission_350px/voltadaufes/i7757470_-364070.png"
     width="350"
     height="350"
     preserveAspectRatio="none"
     id="image6701"
     x="1050"
     y="-350" />
  <image
     sodipodi:absref="carmen_lcad/data/road_mapper_remission_350px/voltadaufes/i7757610_-364000.png"
     xlink:href="carmen_lcad/data/road_mapper_remission_350px/voltadaufes/i7757610_-364000.png"
     y="-699.99994"
     x="1750"
     id="image6396"
     preserveAspectRatio="none"
     height="350"
     width="350" />
  <image
     sodipodi:absref="carmen_lcad/data/road_mapper_remission_350px/voltadaufes/i7757680_-363930.png"
     xlink:href="carmen_lcad/data/road_mapper_remission_350px/voltadaufes/i7757680_-363930.png"
     width="350"
     height="350"
     preserveAspectRatio="none"
     id="image6181"
     x="2100.0002"
     y="-1050.0001" />
  <image
     sodipodi:absref="carmen_lcad/data/road_mapper_remission_350px/voltadaufes/i7757610_-363930.png"
     xlink:href="carmen_lcad/data/road_mapper_remission_350px/voltadaufes/i7757610_-363930.png"
     y="-1050.0001"
     x="1750"
     id="image6306"
     preserveAspectRatio="none"
     height="350"
     width="350" />
  <image
     sodipodi:absref="carmen_lcad/data/road_mapper_remission_350px/voltadaufes/i7757750_-363860.png"
     xlink:href="carmen_lcad/data/road_mapper_remission_350px/voltadaufes/i7757750_-363860.png"
     y="-1400.0001"
     x="2450.0002"
     id="image5742"
     preserveAspectRatio="none"
     height="350"
     width="350" />
  <image
     sodipodi:absref="carmen_lcad/data/road_mapper_remission_350px/voltadaufes/i7757680_-363860.png"
     xlink:href="carmen_lcad/data/road_mapper_remission_350px/voltadaufes/i7757680_-363860.png"
     y="-1400.0001"
     x="2100.0002"
     id="image5303"
     preserveAspectRatio="none"
     height="350"
     width="350" />
  <image
     sodipodi:absref="/home/rcarneiro/carmen_lcad/data/road_mapper_remission_350px/voltadaufes/i7757890_-363790.png"
     y="-1750"
     x="3150.0002"
     id="image2071"
     xlink:href="file:///home/rcarneiro/carmen_lcad/data/road_mapper_remission_350px/voltadaufes/i7757890_-363790.png"
     preserveAspectRatio="none"
     height="350"
     width="350" />
  <image
     sodipodi:absref="/home/rcarneiro/carmen_lcad/data/road_mapper_remission_350px/voltadaufes/i7757750_-363790.png"
     y="-1750"
     x="2450.0002"
     id="image5768"
     xlink:href="file:///home/rcarneiro/carmen_lcad/data/road_mapper_remission_350px/voltadaufes/i7757750_-363790.png"
     preserveAspectRatio="none"
     height="350"
     width="350" />
  <image
     sodipodi:absref="carmen_lcad/data/road_mapper_remission_350px/voltadaufes/i7757820_-363860.png"
     xlink:href="carmen_lcad/data/road_mapper_remission_350px/voltadaufes/i7757820_-363860.png"
     y="-1400.0001"
     x="2800.0002"
     id="image5832"
     preserveAspectRatio="none"
     height="350"
     width="350" />
  <image
     sodipodi:absref="carmen_lcad/data/road_mapper_remission_350px/voltadaufes/i7757820_-363790.png"
     xlink:href="carmen_lcad/data/road_mapper_remission_350px/voltadaufes/i7757820_-363790.png"
     y="-1750"
     x="2800.0002"
     id="image5652"
     preserveAspectRatio="none"
     height="350"
     width="350" />
  <image
     sodipodi:absref="carmen_lcad/data/road_mapper_remission_350px/voltadaufes/i7757960_-363720.png"
     xlink:href="carmen_lcad/data/road_mapper_remission_350px/voltadaufes/i7757960_-363720.png"
     y="-2099.9995"
     x="3500.0002"
     id="image5472"
     preserveAspectRatio="none"
     height="350"
     width="350" />
  <image
     sodipodi:absref="carmen_lcad/data/road_mapper_remission_350px/voltadaufes/i7757890_-363720.png"
     xlink:href="carmen_lcad/data/road_mapper_remission_350px/voltadaufes/i7757890_-363720.png"
     y="-2099.9995"
     x="3150.0002"
     id="image5290"
     preserveAspectRatio="none"
     height="350"
     width="350" />
  <image
     sodipodi:absref="carmen_lcad/data/road_mapper_remission_350px/voltadaufes/i7757960_-363650.png"
     xlink:href="carmen_lcad/data/road_mapper_remission_350px/voltadaufes/i7757960_-363650.png"
     y="-2449.9995"
     x="3500.0002"
     id="image5382"
     preserveAspectRatio="none"
     height="350"
     width="350" />
  <image
     sodipodi:absref="carmen_lcad/data/road_mapper_remission_350px/voltadaufes/i7757890_-363650.png"
     xlink:href="carmen_lcad/data/road_mapper_remission_350px/voltadaufes/i7757890_-363650.png"
     y="-2449.9995"
     x="3150.0002"
     id="image5200"
     preserveAspectRatio="none"
     height="350"
     width="350" />
  <path
     style="opacity:0.50400002;fill:none;stroke:#ff0000;stroke-width:22;stroke-linecap:butt;stroke-linejoin:miter;stroke-miterlimit:4;stroke-dasharray:none;stroke-opacity:1"
     d="m 385.2329,149.0524 c -16.72534,0.94209 -22.82078,1.16586 -34.24219,1.26263 -12.68246,0.10745 -25.37423,-0.12189 -38.0412,-0.75758 -14.00063,-0.70262 -21.98066,-2.00517 -41.91899,-3.37644"
     id="path1446"
     inkscape:connector-curvature="0"
     sodipodi:nodetypes="caac" />
  <path
     style="opacity:0.51499999;fill:none;stroke:#ff0000;stroke-width:22;stroke-linecap:butt;stroke-linejoin:miter;stroke-miterlimit:4;stroke-dasharray:none;stroke-opacity:1"
     d="m 269.29521,167.88465 c 19.4762,1.65687 26.38485,2.60123 39.61715,3.32747 12.18752,0.6689 24.39966,0.87909 36.60533,0.94697 13.57794,0.0755 22.07729,-0.52543 40.71969,-1.07324"
     id="path1448"
     inkscape:connector-curvature="0"
     sodipodi:nodetypes="casc" />
</svg>
