<?xml version="1.0" encoding="UTF-8" standalone="no"?>
<!-- Created with Inkscape (http://www.inkscape.org/) -->

<svg
   xmlns:dc="http://purl.org/dc/elements/1.1/"
   xmlns:cc="http://creativecommons.org/ns#"
   xmlns:rdf="http://www.w3.org/1999/02/22-rdf-syntax-ns#"
   xmlns:svg="http://www.w3.org/2000/svg"
   xmlns="http://www.w3.org/2000/svg"
   xmlns:xlink="http://www.w3.org/1999/xlink"
   xmlns:sodipodi="http://sodipodi.sourceforge.net/DTD/sodipodi-0.dtd"
   xmlns:inkscape="http://www.inkscape.org/namespaces/inkscape"
   version="1.1"
   id="svg6693"
   width="350"
   height="350"
   viewBox="0 0 350 350"
   sodipodi:docname="i7757470_-364070.svg"
   inkscape:version="0.92.2 (unknown)">
  <metadata
     id="metadata6699">
    <rdf:RDF>
      <cc:Work
         rdf:about="">
        <dc:format>image/svg+xml</dc:format>
        <dc:type
           rdf:resource="http://purl.org/dc/dcmitype/StillImage" />
        <dc:title />
      </cc:Work>
    </rdf:RDF>
  </metadata>
  <defs
     id="defs6697" />
  <sodipodi:namedview
     pagecolor="#ffffff"
     bordercolor="#666666"
     borderopacity="1"
     objecttolerance="10"
     gridtolerance="10"
     guidetolerance="10"
     inkscape:pageopacity="0"
     inkscape:pageshadow="2"
     inkscape:window-width="1855"
     inkscape:window-height="1056"
     id="namedview6695"
     showgrid="false"
     inkscape:zoom="1.8465589"
     inkscape:cx="51.993717"
     inkscape:cy="187.77276"
     inkscape:window-x="65"
     inkscape:window-y="24"
     inkscape:window-maximized="1"
     inkscape:current-layer="svg6693" />
  <image
     sodipodi:absref="carmen_lcad/data/road_mapper_remission_350px/voltadaufes/i7757470_-364070.png"
     xlink:href="carmen_lcad/data/road_mapper_remission_350px/voltadaufes/i7757470_-364070.png"
     width="350"
     height="350"
     preserveAspectRatio="none"
     id="image6701"
     x="0"
     y="0" />
  <path
     style="fill:none;stroke:#ff0000;stroke-width:28;stroke-linecap:butt;stroke-linejoin:miter;stroke-miterlimit:4;stroke-dasharray:none;stroke-opacity:1"
     d="m 121.54811,244.26427 c 0,0 23.6391,-16.47606 35.21643,-25.04784 36.01264,-26.66352 71.03645,-54.63745 106.4917,-82.03778 18.80014,-14.52903 37.64345,-29.00315 56.3335,-43.673515 13.88735,-10.900583 41.46485,-32.95141 41.46485,-32.95141"
     id="path6737"
     inkscape:connector-curvature="0"
     sodipodi:nodetypes="caaac" />
  <path
     style="fill:none;stroke:#ff0000;stroke-width:28;stroke-linecap:butt;stroke-linejoin:miter;stroke-miterlimit:4;stroke-dasharray:none;stroke-opacity:1"
     d="m -17.040481,337.36324 c 0,0 28.794572,-16.38468 42.888402,-25.08206 9.264749,-5.71733 18.450533,-11.57783 27.37965,-17.80634 16.007198,-11.16582 31.046173,-23.66857 46.909189,-35.03829 8.17232,-5.85747 24.85774,-17.08694 24.85774,-17.08694"
     id="path6741"
     inkscape:connector-curvature="0"
     sodipodi:nodetypes="caaac" />
  <path
     style="fill:none;stroke:#ff0000;stroke-width:18;stroke-linecap:butt;stroke-linejoin:miter;stroke-miterlimit:4;stroke-dasharray:none;stroke-opacity:1"
     d="m 157.95952,162.93764 c 0,0 -5.42527,6.54617 -7.65864,10.1477 -2.18109,3.51722 -4.02684,7.25791 -5.55252,11.10503 -1.22819,3.09696 -2.12409,6.32673 -2.87199,9.57331 -0.62418,2.7095 -1.08395,5.4644 -1.34026,8.23303 -0.25305,2.73341 -0.3476,5.4924 -0.19147,8.23305 0.10627,1.86533 0.44557,3.71181 0.76587,5.55251 0.42487,2.44171 1.53172,7.27572 1.53172,7.27572"
     id="path6754"
     inkscape:connector-curvature="0"
     sodipodi:nodetypes="caaaaaac" />
  <path
     style="fill:none;stroke:#ff0000;stroke-width:14;stroke-linecap:butt;stroke-linejoin:miter;stroke-miterlimit:4;stroke-dasharray:none;stroke-opacity:1"
     d="m 61.736456,289.61741 c 0,0 22.314531,-3.9842 33.575968,-3.79084 10.490916,0.18013 21.052886,1.71141 31.138996,4.60317 6.72171,1.92716 13.16215,4.91007 19.22495,8.39399 6.49584,3.73276 12.38723,8.47067 18.14186,13.26792 5.44345,4.53784 10.8117,9.24997 15.43411,14.62179 4.73611,5.50395 8.68891,11.66333 12.4556,17.87109 4.54454,7.48968 8.23518,15.4668 12.18483,23.28654 5.29592,10.48517 15.43412,31.68056 15.43412,31.68056"
     id="path6764"
     inkscape:connector-curvature="0"
     sodipodi:nodetypes="caaaaaaac" />
  <path
     style="fill:none;stroke:#ff0000;stroke-width:14;stroke-linecap:butt;stroke-linejoin:miter;stroke-miterlimit:4;stroke-dasharray:none;stroke-opacity:1"
     d="m 48.739307,305.3223 c 0,0 20.105315,-4.33582 30.326681,-5.1447 8.908147,-0.70495 17.974094,-1.08513 26.806622,0.27077 8.29728,1.27374 16.48781,3.76987 24.09888,7.3109 7.80825,3.63277 14.97029,8.65917 21.66191,14.08024 6.24843,5.06203 12.07835,10.74508 17.05876,17.05876 5.77149,7.31653 10.05633,15.70417 14.62179,23.8281 3.97501,7.07327 7.64042,14.32359 11.10173,21.66192 3.39755,7.20315 9.47709,21.93269 9.47709,21.93269"
     id="path6766"
     inkscape:connector-curvature="0"
     sodipodi:nodetypes="caaaaaaac" />
  <path
     style="fill:none;stroke:#ff0000;stroke-width:14;stroke-linecap:butt;stroke-linejoin:miter;stroke-miterlimit:4;stroke-dasharray:none;stroke-opacity:1"
     d="m 141.34399,233.29643 c 0,0 1.99279,14.49453 4.87393,21.12037 3.60368,8.28747 9.809,15.19415 15.16335,22.47424 5.82109,7.91472 12.46919,15.19252 18.41262,23.01578 5.78868,7.61957 11.36363,15.40348 16.78799,23.28656 3.91665,5.69196 7.87784,11.36917 11.3725,17.32952 5.04343,8.60186 9.37281,17.6059 13.80947,26.53586 4.22151,8.49692 12.18483,25.72352 12.18483,25.72352"
     id="path6768"
     inkscape:connector-curvature="0"
     sodipodi:nodetypes="caaaaaac" />
  <path
     style="fill:none;stroke:#ff0000;stroke-width:28;stroke-linecap:butt;stroke-linejoin:miter;stroke-miterlimit:4;stroke-dasharray:none;stroke-opacity:1"
     d="m 331.60748,196.62182 c 0,0 11.07422,-24.25971 17.06042,-36.17086 5.82833,-11.59703 18.34858,-34.34348 18.34858,-34.34348"
     id="path6770"
     inkscape:connector-curvature="0"
     sodipodi:nodetypes="cac" />
  <path
     style="fill:none;stroke:#ff0000;stroke-width:20;stroke-linecap:butt;stroke-linejoin:miter;stroke-miterlimit:4;stroke-dasharray:none;stroke-opacity:1"
     d="m 330.47958,193.22189 c 0,0 2.29077,-14.66878 2.43697,-22.06808 0.15194,-7.68951 -0.30921,-15.43809 -1.62465,-23.01577 -1.05813,-6.09547 -2.79776,-12.09325 -5.00931,-17.87109 -1.24094,-3.24203 -2.7502,-6.40619 -4.60316,-9.3417 -2.33252,-3.69524 -8.12322,-10.28941 -8.12322,-10.28941"
     id="path6772"
     inkscape:connector-curvature="0"
     sodipodi:nodetypes="caaaac" />
  <path
     style="fill:none;stroke:#ff0000;stroke-width:20;stroke-linecap:butt;stroke-linejoin:miter;stroke-miterlimit:4;stroke-dasharray:none;stroke-opacity:1"
     d="m 300.21882,98.796499 c 0,0 -6.64104,-4.803944 -10.33917,-6.509847 -4.28002,-1.974322 -8.8612,-3.367687 -13.49836,-4.212254 -5.97496,-1.088219 -12.12676,-1.41384 -18.18928,-1.053063 -3.62416,0.215672 -10.7221,1.914661 -10.7221,1.914661"
     id="path6774"
     inkscape:connector-curvature="0"
     sodipodi:nodetypes="caaac" />
  <path
     style="fill:none;stroke:#ff0000;stroke-width:20;stroke-linecap:butt;stroke-linejoin:miter;stroke-miterlimit:4;stroke-dasharray:none;stroke-opacity:1"
     d="m 181.04197,301.93638 c 0,0 12.80558,1.4002 19.23155,1.3459 8.15314,-0.0689 16.32133,-0.80633 24.36828,-2.11974 6.69307,-1.09243 13.36292,-2.57101 19.7771,-4.77304 7.56948,-2.59866 14.75976,-6.23172 21.87757,-9.89054 4.73099,-2.43191 9.40864,-5.00992 13.80879,-7.9991 3.83763,-2.60705 7.36347,-5.65028 10.92319,-8.62559 3.66051,-3.05955 10.7221,-9.4804 10.7221,-9.4804"
     id="path6776"
     inkscape:connector-curvature="0"
     sodipodi:nodetypes="caaaaaac" />
  <path
     style="opacity:0.51799999;fill:none;fill-rule:evenodd;stroke:#ff0000;stroke-width:28.70000076;stroke-linecap:butt;stroke-linejoin:miter;stroke-miterlimit:4;stroke-dasharray:none;stroke-opacity:1"
     d="m 391.35667,9.1903757 c 0,0 -36.80027,13.5832243 -54.37637,22.2100653 -25.1567,12.347606 -49.27095,26.834526 -72.75711,42.122538 -33.08048,21.533318 -65.08929,44.814681 -95.73304,69.693651 -31.98403,25.96711 -60.44949,56.0202 -91.717888,82.84475 -24.799833,21.27529 -49.625802,42.6232 -76.00639768,61.90361 -19.84092232,14.50085 -61.71777832,40.328 -61.71777832,40.328"
     id="path4524"
     inkscape:connector-curvature="0"
     sodipodi:nodetypes="caaaaac" />
</svg>
