<?xml version="1.0" encoding="UTF-8" standalone="no"?>
<!-- Created with Inkscape (http://www.inkscape.org/) -->

<svg
   xmlns:dc="http://purl.org/dc/elements/1.1/"
   xmlns:cc="http://creativecommons.org/ns#"
   xmlns:rdf="http://www.w3.org/1999/02/22-rdf-syntax-ns#"
   xmlns:svg="http://www.w3.org/2000/svg"
   xmlns="http://www.w3.org/2000/svg"
   xmlns:xlink="http://www.w3.org/1999/xlink"
   xmlns:sodipodi="http://sodipodi.sourceforge.net/DTD/sodipodi-0.dtd"
   xmlns:inkscape="http://www.inkscape.org/namespaces/inkscape"
   version="1.1"
   id="svg2940"
   width="350"
   height="350"
   viewBox="0 0 350 350"
   sodipodi:docname="i7757540_-363720.svg"
   inkscape:version="0.92.2 (unknown)">
  <metadata
     id="metadata2946">
    <rdf:RDF>
      <cc:Work
         rdf:about="">
        <dc:format>image/svg+xml</dc:format>
        <dc:type
           rdf:resource="http://purl.org/dc/dcmitype/StillImage" />
        <dc:title></dc:title>
      </cc:Work>
    </rdf:RDF>
  </metadata>
  <defs
     id="defs2944" />
  <sodipodi:namedview
     pagecolor="#ffffff"
     bordercolor="#666666"
     borderopacity="1"
     objecttolerance="10"
     gridtolerance="10"
     guidetolerance="10"
     inkscape:pageopacity="0"
     inkscape:pageshadow="2"
     inkscape:window-width="1855"
     inkscape:window-height="1056"
     id="namedview2942"
     showgrid="false"
     inkscape:zoom="10.44"
     inkscape:cx="109.45038"
     inkscape:cy="324.7488"
     inkscape:window-x="65"
     inkscape:window-y="24"
     inkscape:window-maximized="1"
     inkscape:current-layer="svg2940"
     inkscape:measure-start="177.586,245.594"
     inkscape:measure-end="196.169,222.605" />
  <image
     sodipodi:absref="carmen_lcad/data/road_mapper_remission_350px/voltadaufes/i7757610_-363720.png"
     y="0"
     x="350"
     id="image3458"
     xlink:href="carmen_lcad/data/road_mapper_remission_350px/voltadaufes/i7757610_-363720.png"
     preserveAspectRatio="none"
     height="350"
     width="350" />
  <image
     width="350"
     height="350"
     preserveAspectRatio="none"
     xlink:href="carmen_lcad/data/road_mapper_remission_350px/voltadaufes/i7757540_-363720.png"
     id="image2948"
     x="0"
     y="0"
     sodipodi:absref="carmen_lcad/data/road_mapper_remission_350px/voltadaufes/i7757540_-363720.png" />
  <image
     width="350"
     height="350"
     preserveAspectRatio="none"
     xlink:href="carmen_lcad/data/road_mapper_remission_350px/voltadaufes/i7757470_-363720.png"
     id="image2709"
     x="-350"
     y="0"
     sodipodi:absref="carmen_lcad/data/road_mapper_remission_350px/voltadaufes/i7757470_-363720.png" />
  <image
     width="350"
     height="350"
     preserveAspectRatio="none"
     xlink:href="carmen_lcad/data/road_mapper_remission_350px/voltadaufes/i7757470_-363650.png"
     id="image2112"
     x="-350"
     y="-350"
     sodipodi:absref="carmen_lcad/data/road_mapper_remission_350px/voltadaufes/i7757470_-363650.png" />
  <image
     width="350"
     height="350"
     preserveAspectRatio="none"
     xlink:href="carmen_lcad/data/road_mapper_remission_350px/voltadaufes/i7757400_-363650.png"
     id="image1882"
     x="-700"
     y="-350"
     sodipodi:absref="carmen_lcad/data/road_mapper_remission_350px/voltadaufes/i7757400_-363650.png" />
  <image
     width="350"
     height="350"
     preserveAspectRatio="none"
     xlink:href="carmen_lcad/data/road_mapper_remission_350px/voltadaufes/i7757400_-363580.png"
     id="image1664"
     x="-700"
     y="-700"
     sodipodi:absref="carmen_lcad/data/road_mapper_remission_350px/voltadaufes/i7757400_-363580.png" />
  <path
     style="display:none;opacity:0.28999999;fill:none;stroke:#00ff00;stroke-width:25;stroke-linecap:butt;stroke-linejoin:miter;stroke-miterlimit:4;stroke-dasharray:none;stroke-opacity:1"
     d="m -3825.4427,22578.317 -35.7089,-9.988"
     id="path2589"
     inkscape:connector-curvature="0" />
  <path
     style="opacity:0.53699999;fill:none;stroke:#ff0000;stroke-width:18;stroke-linecap:butt;stroke-linejoin:miter;stroke-miterlimit:4;stroke-dasharray:none;stroke-opacity:1"
     d="m -966.734,-771.3608 c 13.1872,4.21713 21.1271,5.75017 31.4753,9.30026 16.4863,5.65586 32.6952,12.13981 48.6804,19.08672 15.2131,6.61137 30.3135,13.55961 44.8895,21.47726 10.2247,5.55399 20.0147,11.88505 29.7784,18.21437 13.7022,8.88243 27.2899,17.97222 40.3946,27.71466 7.1456,5.31229 14.199,10.78169 20.8167,16.73872 9.6379,8.67572 18.8613,17.85435 27.4207,27.5957 10.1738,11.57865 18.877,24.37093 28.3355,36.54088 8.146,10.48111 16.3023,20.95413 24.4722,31.41657 4.7654,6.10265 6.8539,9.11706 14.31819,18.29086"
     id="path1485"
     inkscape:connector-curvature="0"
     sodipodi:nodetypes="caaaaaaaaac" />
  <path
     style="opacity:0.53299997;fill:none;stroke:#ff0000;stroke-width:18;stroke-linecap:butt;stroke-linejoin:miter;stroke-miterlimit:4;stroke-dasharray:none;stroke-opacity:1"
     d="m -642.36231,-556.54197 c -9.6059,-11.86335 -12.6651,-15.61258 -18.8953,-23.49562 -8.66349,-10.96197 -16.85439,-22.29033 -25.42949,-33.32162 -7.876,-10.13202 -15.3668,-20.59742 -23.8978,-30.18448 -7.1456,-8.03016 -14.7724,-15.6543 -22.7858,-22.81869 -10.4005,-9.29859 -21.5545,-17.73433 -32.7297,-26.08604 -10.2431,-7.65518 -20.7693,-14.93478 -31.429,-21.99839 -8.0268,-5.31895 -16.1449,-10.51514 -24.479,-15.33839 -10.7987,-6.24965 -21.8806,-12.00889 -33.0344,-17.6003 -9.0958,-4.55975 -18.3117,-8.88594 -27.6189,-12.99714 -9.2914,-4.10424 -12.6818,-6.33666 -28.1605,-11.64328"
     id="path1487"
     inkscape:connector-curvature="0"
     sodipodi:nodetypes="csaaaaaaaac" />
  <path
     style="opacity:0.603;fill:none;stroke:#00ff7f;stroke-width:18;stroke-linecap:butt;stroke-linejoin:miter;stroke-miterlimit:4;stroke-dasharray:none;stroke-opacity:1"
     d="m -656.15251,-544.9848 c 19.3404,24.26019 32.443,42.44887 56.794,73.39415"
     id="path1848"
     inkscape:connector-curvature="0"
     sodipodi:nodetypes="cc" />
  <path
     style="opacity:0.48900003;fill:none;stroke:#ff0000;stroke-width:18;stroke-linecap:butt;stroke-linejoin:miter;stroke-miterlimit:4;stroke-dasharray:none;stroke-opacity:1"
     d="m -599.35851,-471.59065 c 44.2998,54.5423 84.0144,109.85473 125.2406,163.56953 43.4802,56.65152 88.0479,111.0986 131.3458,169.256"
     id="path1850"
     inkscape:connector-curvature="0"
     sodipodi:nodetypes="csc" />
  <path
     style="opacity:0.55100002;fill:none;stroke:#00ff7f;stroke-width:18;stroke-linecap:butt;stroke-linejoin:miter;stroke-miterlimit:4;stroke-dasharray:none;stroke-opacity:1"
     d="m -343.10721,-139.00442 c 14.1177,20.7708 20.5744,29.0553 32.0349,42.648798 10.2629,12.173 16.0059,16.5466 32.7928,34.7307"
     id="path1852"
     inkscape:connector-curvature="0"
     sodipodi:nodetypes="cac" />
  <path
     style="opacity:0.56600001;fill:none;stroke:#ff007f;stroke-width:18;stroke-linecap:butt;stroke-linejoin:miter;stroke-miterlimit:4;stroke-dasharray:none;stroke-opacity:1"
     d="m -265.53061,-73.248322 c -16.64064,-18.8431 -24.03188,-24.8984 -35.05593,-38.212198 -9.94526,-12.011 -15.26597,-19.898 -27.96927,-37.5002"
     id="path1854"
     inkscape:connector-curvature="0"
     sodipodi:nodetypes="cac" />
  <path
     style="opacity:0.53299997;fill:none;stroke:#ff0000;stroke-width:18;stroke-linecap:butt;stroke-linejoin:miter;stroke-miterlimit:4;stroke-dasharray:none;stroke-opacity:1"
     d="m -328.55581,-148.96072 c -52.4615,-70.0857 -85.6541,-109.98667 -127.8993,-165.42664 -42.7468,-56.09812 -75.738,-101.40175 -128.9825,-168.33154"
     id="path1856"
     inkscape:connector-curvature="0"
     sodipodi:nodetypes="csc" />
  <path
     style="opacity:0.55500034;fill:none;stroke:#ff007f;stroke-width:18;stroke-linecap:butt;stroke-linejoin:miter;stroke-miterlimit:4;stroke-dasharray:none;stroke-opacity:1"
     d="m -585.43761,-482.7189 c -27.4783,-35.82803 -37.7424,-49.31492 -56.9247,-73.82307"
     id="path1858"
     inkscape:connector-curvature="0"
     sodipodi:nodetypes="cc" />
  <path
     style="opacity:0.522;fill:none;stroke:#ff7f00;stroke-width:19;stroke-linecap:butt;stroke-linejoin:miter;stroke-miterlimit:4;stroke-dasharray:none;stroke-opacity:1"
     d="m -656.15251,-544.9848 c 4.9072,6.12698 5.8375,9.16042 6.5165,14.37853 0.5963,4.58351 -0.5317,9.40424 -2.3016,13.67409 -1.8462,4.45373 -5.4594,7.95351 -8.394,11.77866 -4.66349,6.0785 -9.38809,12.13849 -14.62439,17.73102 -3.6007,3.8456 -3.1209,3.94546 -11.5053,10.83563"
     id="path1860"
     inkscape:connector-curvature="0"
     sodipodi:nodetypes="caaaac" />
  <path
     style="opacity:0.5;fill:none;stroke:#ff7f00;stroke-width:19;stroke-linecap:butt;stroke-linejoin:miter;stroke-miterlimit:4;stroke-dasharray:none;stroke-opacity:1"
     d="m -674.0057,-462.10047 c 9.8343,-9.21105 12.35789,-11.22093 19.49569,-15.43412 4.4245,-2.61161 9.2643,-4.58562 14.2157,-5.95702 3.6473,-1.01021 7.4544,-1.74845 11.2371,-1.62464 6.0863,0.19922 12.3846,1.14849 17.871,3.79084 4.6005,2.21564 5.3001,1.66616 11.8277,9.73476"
     id="path1862"
     inkscape:connector-curvature="0"
     sodipodi:nodetypes="caaaac" />
  <path
     style="opacity:0.38200001;fill:none;stroke:#00ff00;stroke-width:23.5;stroke-linecap:butt;stroke-linejoin:miter;stroke-miterlimit:4;stroke-dasharray:none;stroke-opacity:1"
     d="m -670.9242,-478.00412 c 14.99219,-11.91394 27.07969,-19.79958 35.15369,-26.03627"
     id="path1864"
     inkscape:connector-curvature="0"
     sodipodi:nodetypes="cc" />
  <path
     style="opacity:0.61400003;fill:none;stroke:#ff7f00;stroke-width:18;stroke-linecap:butt;stroke-linejoin:miter;stroke-miterlimit:4;stroke-dasharray:none;stroke-opacity:1"
     d="m -343.10721,-139.00442 c 5.73744,8.6707 8.4269,17.256 9.57329,26.6138 0.42124,3.4385 0.0545,7.0567 -1.05306,10.3391 -2.34476,6.948798 -6.63134,13.268598 -11.48796,18.763698 -6.10566,6.9084 -9.12618,7.7526 -21.63567,17.232"
     id="path2090"
     inkscape:connector-curvature="0"
     sodipodi:nodetypes="caaac" />
  <path
     style="opacity:0.58499995;fill:none;stroke:#ff7f00;stroke-width:18;stroke-linecap:butt;stroke-linejoin:miter;stroke-miterlimit:4;stroke-dasharray:none;stroke-opacity:1"
     d="m -356.70131,-53.323322 c 11.29024,-10.0146 12.68815,-12.0043 20.29541,-16.0832 5.91427,-3.1712 12.46638,-5.5827 19.1466,-6.2226 6.97781,-0.6685 14.26815,0.2279 20.8698,2.5847 6.72109,2.3995 9.68001,2.2626 18.10999,11.4195"
     id="path2092"
     inkscape:connector-curvature="0"
     sodipodi:nodetypes="caaac" />
  <path
     style="opacity:0.37099998;fill:none;stroke:#00ff00;stroke-width:20;stroke-linecap:butt;stroke-linejoin:miter;stroke-miterlimit:4;stroke-dasharray:none;stroke-opacity:1"
     d="m -338.03337,-78.692622 c 6.05865,-4.9147 13.89016,-9.506 18.76368,-13.6898"
     id="path2094"
     inkscape:connector-curvature="0"
     sodipodi:nodetypes="cc" />
  <image
     sodipodi:absref="carmen_lcad/data/road_mapper_remission_350px/voltadaufes/i7757400_-363720.png"
     y="-0.00012207031"
     x="-700"
     id="image2502"
     xlink:href="carmen_lcad/data/road_mapper_remission_350px/voltadaufes/i7757400_-363720.png"
     preserveAspectRatio="none"
     height="350"
     width="350" />
  <image
     sodipodi:absref="carmen_lcad/data/road_mapper_remission_350px/voltadaufes/i7757540_-363650.png"
     y="-350"
     x="0"
     id="image2632"
     xlink:href="carmen_lcad/data/road_mapper_remission_350px/voltadaufes/i7757540_-363650.png"
     preserveAspectRatio="none"
     height="350"
     width="350" />
  <path
     style="opacity:0.5;fill:none;stroke:#ff0000;stroke-width:18;stroke-linecap:butt;stroke-linejoin:miter;stroke-miterlimit:4;stroke-dasharray:none;stroke-opacity:1"
     d="m -278.27951,-61.624922 c 12.14677,12.3357 23.25191,21.2029 35.64865,30.8664 10.22283,7.969 20.8815,15.4032 31.85841,22.2963997 8.67906,5.4503 17.70375,10.3499 26.82023,15.032 8.43328,4.3311003 16.97794,8.4827003 25.75588,12.0642003 12.0543,4.9182 24.36474,9.2614 36.86375,12.9042 10.21949,2.9784 20.65269,5.2023 31.089728,7.2945 12.53423,2.5125 25.16699,4.5451 37.82855,6.3071 13.26323,1.8458 26.556772,3.671824 39.92438,4.4638 20.9898547,1.243562 42.052479,0.614657 63.078432,0.442151 20.492054,-0.168126 34.183198,-0.702965 61.46138,-1.439561"
     id="path2635"
     inkscape:connector-curvature="0"
     sodipodi:nodetypes="caaaaaaaaac" />
  <path
     style="opacity:0.51099997;fill:none;stroke:#ff0000;stroke-width:18;stroke-linecap:butt;stroke-linejoin:miter;stroke-miterlimit:4;stroke-dasharray:none;stroke-opacity:1"
     d="M 57.566969,32.221524 C 36.806763,32.602846 20.425625,33.164859 1.8776155,32.413356 -13.910785,31.773663 -29.693273,30.49225 -45.357575,28.415611 -64.260046,25.909683 -83.09967,22.652667 -101.6454,18.221078 c -13.07629,-3.124641 -26.05875,-6.8175 -38.64982,-11.5311003 -14.01496,-5.2466 -27.72044,-11.4334 -40.87327,-18.5712997 -15.84742,-8.6001 -31.07571,-18.4119 -45.59984,-29.0962 -13.68128,-10.0643 -20.30643,-14.3398 -38.95374,-32.8452"
     id="path2637"
     inkscape:connector-curvature="0"
     sodipodi:nodetypes="caaaaaac" />
  <image
     width="350"
     height="350"
     preserveAspectRatio="none"
     xlink:href="carmen_lcad/data/road_mapper_remission_350px/voltadaufes/i7757610_-363650.png"
     id="image37"
     x="350"
     y="-350"
     sodipodi:absref="carmen_lcad/data/road_mapper_remission_350px/voltadaufes/i7757610_-363650.png" />
  <path
     style="opacity:0.456;fill:none;stroke:#7fff00;stroke-width:16;stroke-linecap:butt;stroke-linejoin:miter;stroke-miterlimit:4;stroke-dasharray:none;stroke-opacity:1"
     d="m 554.67724,-138.23851 c 28.71138,-22.27571 34.9211,-29.14932 53.03611,-42.88841 9.48176,-7.19132 19.52043,-13.6217 29.10284,-20.67834 17.45289,-12.8526 34.24431,-26.58758 51.69585,-39.44201 10.46575,-7.70885 31.78337,-22.59299 31.78337,-22.59299"
     id="path39"
     inkscape:connector-curvature="0"
     sodipodi:nodetypes="caaac" />
  <path
     style="opacity:0.62900002;fill:none;stroke:#7fff00;stroke-width:16;stroke-linecap:butt;stroke-linejoin:miter;stroke-miterlimit:4;stroke-dasharray:none;stroke-opacity:1"
     d="m 717.61488,-282.22101 c 0,0 -32.7834,23.85336 -49.01531,35.99563 -16.19067,12.11142 -32.2046,24.45755 -48.24946,36.76149 -19.06465,14.61967 -38.09379,29.28603 -57.05689,44.03719 -16.00288,12.44846 -31.78457,25.18122 -47.86652,37.52736 -18.55402,14.24396 -29.50045,23.65397 -56.09393,42.163351"
     id="path4535"
     inkscape:connector-curvature="0"
     sodipodi:nodetypes="caaaac" />
  <path
     style="opacity:0.55100002;fill:none;stroke:#ff0000;stroke-width:14;stroke-linecap:butt;stroke-linejoin:miter;stroke-miterlimit:4;stroke-dasharray:none;stroke-opacity:1"
     d="m 498.37213,-116.08475 c -4.19658,3.25725 -7.49648,6.44649 -12.02574,8.17034 -4.29839,1.63597 -9.09916,1.38732 -13.68011,1.79651 -5.86495,0.5239 -11.77807,0.3382 -17.6449,0.84058 -6.75023,0.57803 -13.67902,0.55986 -20.17064,2.49855 -6.86461,2.05008 -13.02122,6.010634 -19.28527,9.48732 -8.79426,4.88101 -16.84981,11.016955 -25.62583,15.930684 -9.29751,5.205708 -18.85464,9.965477 -28.57803,14.324216 -10.83185,4.855628 -21.90161,9.196568 -33.09451,13.149415 -18.59907,6.568386 -37.59938,11.949373 -56.51813,17.530598 -25.31498,7.468182 -54.71746,16.165382 -76.2489,21.347247"
     id="path4712"
     inkscape:connector-curvature="0"
     sodipodi:nodetypes="caaaaaaaaac" />
  <path
     style="opacity:0.53699999;fill:none;stroke:#7fff00;stroke-width:17;stroke-linecap:butt;stroke-linejoin:miter;stroke-miterlimit:4;stroke-dasharray:none;stroke-opacity:1"
     d="m 152.69327,27.930834 c -12.4302,1.61314 -15.74782,1.890372 -23.65025,2.532698 -6.62324,0.538351 -13.26377,0.866603 -19.90453,1.106325 -8.45508,0.305217 -16.918344,0.314945 -25.378249,0.422372 -8.730721,0.110865 -12.422952,0.434972 -26.193272,0.229295"
     id="path3465"
     inkscape:connector-curvature="0"
     sodipodi:nodetypes="caaac" />
  <path
     style="opacity:0.55899999;fill:none;stroke:#ff0000;stroke-width:17;stroke-linecap:butt;stroke-linejoin:miter;stroke-miterlimit:4;stroke-dasharray:none;stroke-opacity:1"
     d="m 111.30484,48.403076 c 8.96935,-0.298858 23.36124,-1.297506 34.97525,-2.642682 9.43292,-1.092555 18.78463,-2.807633 28.14551,-4.403721 8.31704,-1.418106 16.62813,-2.887597 24.89059,-4.595185 10.64358,-2.199689 21.21163,-4.753317 31.78338,-7.275711 9.53076,-2.274017 19.05668,-4.575803 28.52844,-7.084245 8.65251,-2.291477 17.23892,-4.825817 25.84792,-7.275712 9.32565,-2.653837 15.25355,-4.127025 27.95405,-8.0415751"
     id="path3467"
     inkscape:connector-curvature="0"
     sodipodi:nodetypes="caaaaaac" />
  <path
     style="opacity:0.36400003;fill:none;stroke:#ff0000;stroke-width:17;stroke-linecap:butt;stroke-linejoin:miter;stroke-miterlimit:4;stroke-dasharray:none;stroke-opacity:1"
     d="m 170.69201,24.986324 c -8.26518,1.555902 -9.8074,1.867274 -17.99874,2.94451"
     id="path3469"
     inkscape:connector-curvature="0"
     sodipodi:nodetypes="cc" />
  <path
     style="opacity:0.54000005;fill:none;stroke:#7fff00;stroke-width:17;stroke-linecap:butt;stroke-linejoin:miter;stroke-miterlimit:4;stroke-dasharray:none;stroke-opacity:1"
     d="m 223.52388,13.834164 c -8.84528,2.030804 -15.8516,3.852205 -23.8281,5.550865 -9.63061,2.050914 -18.04729,3.747412 -29.00377,5.601295"
     id="path3471"
     inkscape:connector-curvature="0"
     sodipodi:nodetypes="cac" />
  <path
     style="opacity:0.50700001;fill:none;stroke:#7fff00;stroke-width:17;stroke-linecap:butt;stroke-linejoin:miter;stroke-miterlimit:4;stroke-dasharray:none;stroke-opacity:1"
     d="m 313.42998,7.0842449 c 9.11024,-2.8043306 16.20726,-5.1585328 24.28003,-7.83221954 6.10325,-2.02138766 7.84165,-2.44334756 18.26198,-6.20656436"
     id="path3475"
     inkscape:connector-curvature="0"
     sodipodi:nodetypes="cac" />
  <path
     style="opacity:0.55100002;fill:none;stroke:#ff0000;stroke-width:17;stroke-linecap:butt;stroke-linejoin:miter;stroke-miterlimit:4;stroke-dasharray:none;stroke-opacity:1"
     d="m 261.63558,81.723167 c 10.2851,-6.53848 16.12253,-10.574224 24.08789,-16.003843 6.76754,-4.61312 13.45435,-9.344 20.13679,-14.079561 9.39451,-6.657493 18.78449,-13.323461 28.05659,-20.150396 10.33186,-7.607219 17.81052,-12.619517 30.7235,-23.1866393"
     id="path3477"
     inkscape:connector-curvature="0"
     sodipodi:nodetypes="caaac" />
  <path
     style="opacity:0.48500001;fill:none;stroke:#ff0000;stroke-width:17;stroke-linecap:butt;stroke-linejoin:miter;stroke-miterlimit:4;stroke-dasharray:none;stroke-opacity:1"
     d="M 320.19017,21.009673 C 307.47282,30.13475 298.02412,36.67777 286.88498,44.431618 275.46032,52.384213 266.8015,58.5473 252.49669,68.124337"
     id="path3479"
     inkscape:connector-curvature="0"
     sodipodi:nodetypes="cac" />
  <path
     style="opacity:0.522;fill:none;stroke:#00ff7f;stroke-width:17;stroke-linecap:butt;stroke-linejoin:miter;stroke-miterlimit:4;stroke-dasharray:none;stroke-opacity:1"
     d="m 355.97199,-6.954539 c 10.16759,-3.586432 14.81582,-6.124109 22.07779,-9.511544 7.81813,-3.646865 15.50265,-7.581116 23.11952,-11.631565 9.64387,-5.128349 18.50503,-9.315281 28.57633,-16.035284"
     id="path3481"
     inkscape:connector-curvature="0"
     sodipodi:nodetypes="caac" />
  <path
     style="opacity:0.59200003;fill:none;stroke:#7fff00;stroke-width:17;stroke-linecap:butt;stroke-linejoin:miter;stroke-miterlimit:4;stroke-dasharray:none;stroke-opacity:1"
     d="m 429.74563,-44.132932 c 13.21116,-8.98565 20.19457,-14.269131 30.16951,-21.572785 8.82787,-6.463775 17.50556,-13.130213 26.2637,-19.688157 9.8091,-7.344882 19.72228,-14.552339 29.43932,-22.018596 13.15194,-10.10553 22.20437,-17.63767 39.05908,-30.82604"
     id="path3483"
     inkscape:connector-curvature="0"
     sodipodi:nodetypes="caaac" />
  <path
     style="opacity:0.51099997;fill:none;stroke:#ff7f00;stroke-width:17;stroke-linecap:butt;stroke-linejoin:miter;stroke-miterlimit:4;stroke-dasharray:none;stroke-opacity:1"
     d="m 364.64035,8.3027277 c 21.05216,-16.3779031 28.58308,-21.0403367 42.79947,-31.6615897 17.74162,-13.255001 35.68244,-27.353443 53.41904,-41.165208 13.68015,-10.652935 27.22074,-21.484067 40.87801,-32.166302 11.30263,-8.840508 16.28854,-12.654528 33.98523,-26.422318"
     id="path3485"
     inkscape:connector-curvature="0"
     sodipodi:nodetypes="csaac" />
  <path
     style="opacity:0.56199999;fill:none;stroke:#7fff00;stroke-width:17;stroke-linecap:butt;stroke-linejoin:miter;stroke-miterlimit:4;stroke-dasharray:none;stroke-opacity:1"
     d="M 354.30088,-4.9024985 C 342.27709,4.2920321 330.78489,13.028623 320.19017,21.009673"
     id="path3487"
     inkscape:connector-curvature="0"
     sodipodi:nodetypes="cc" />
  <path
     style="opacity:0.52600002;fill:none;stroke:#ff0000;stroke-width:17;stroke-linecap:butt;stroke-linejoin:miter;stroke-miterlimit:4;stroke-dasharray:none;stroke-opacity:1"
     d="m 349.82349,-22.759971 c -10.20699,3.771291 -12.1267,4.092911 -18.19346,6.129249 -7.82685,2.627125 -15.60174,5.416456 -23.4893,7.8552626 -7.76767,2.401738 -15.64402,4.4368348 -23.4616,6.6707972 -9.50807,2.71704002 -18.94795,5.681274 -28.51338,8.1889186 -10.81754,2.8358934 -17.78252,4.2289446 -32.64187,7.7499076"
     id="path3489"
     inkscape:connector-curvature="0"
     sodipodi:nodetypes="caaaac" />
  <path
     style="opacity:0.58499995;fill:none;stroke:#ff007f;stroke-width:17;stroke-linecap:butt;stroke-linejoin:miter;stroke-miterlimit:4;stroke-dasharray:none;stroke-opacity:1"
     d="m 420.86482,-58.198506 c -11.1392,6.778714 -17.43106,10.130663 -26.33078,14.859716 -7.41391,3.939534 -14.90515,7.746151 -22.5343,11.250726 -7.28732,3.347548 -9.36257,4.289844 -22.17625,9.328093"
     id="path3491"
     inkscape:connector-curvature="0"
     sodipodi:nodetypes="caac" />
  <path
     style="opacity:0.478;fill:none;stroke:#ff7f00;stroke-width:18;stroke-linecap:butt;stroke-linejoin:miter;stroke-miterlimit:4;stroke-dasharray:none;stroke-opacity:1"
     d="m 148.96061,3.2549232 c -18.95173,5.8413302 -26.79121,8.0886708 -40.20787,12.0623628 -7.52279,2.228068 -15.152055,4.113238 -22.591692,6.604899 -8.595676,2.878838 -16.134466,5.90106 -25.433159,9.628841"
     id="path3493"
     inkscape:connector-curvature="0"
     sodipodi:nodetypes="caac" />
  <path
     style="opacity:0.43800001;fill:none;stroke:#00ff00;stroke-width:16;stroke-linecap:butt;stroke-linejoin:miter;stroke-miterlimit:4;stroke-dasharray:none;stroke-opacity:1"
     d="m 196.58317,-10.332355 c -10.92986,2.4668373 -16.72713,4.0443361 -24.2637,6.311567 -7.80952,2.3493437 -17.3444,4.54294742 -25.65771,7.2757112"
     id="path3495"
     inkscape:connector-curvature="0"
     sodipodi:nodetypes="csc" />
  <path
     style="opacity:0.51099997;fill:none;stroke:#ff0000;stroke-width:16;stroke-linecap:butt;stroke-linejoin:miter;stroke-miterlimit:4;stroke-dasharray:none;stroke-opacity:1"
     d="m 158.24671,-26.135121 c -1.49659,-7.374672 -2.87138,-14.296745 -4.21225,-22.401531"
     id="path3497"
     inkscape:connector-curvature="0"
     sodipodi:nodetypes="cc" />
  <path
     style="opacity:0.478;fill:none;stroke:#ff7f00;stroke-width:17;stroke-linecap:butt;stroke-linejoin:miter;stroke-miterlimit:4;stroke-dasharray:none;stroke-opacity:1"
     d="m 223.52388,13.834164 c -5.60899,1.341452 -8.94715,0.63446 -13.26526,-0.323365 -3.4574,-0.766905 -6.78281,-2.280363 -9.73447,-4.2562822 -4.00874,-2.6835585 -8.89153,-4.4451375 -10.45961,-10.00498635"
     id="path3499"
     inkscape:connector-curvature="0"
     sodipodi:nodetypes="casc" />
  <path
     style="opacity:0.57399998;fill:none;stroke:#ff7f00;stroke-width:16;stroke-linecap:butt;stroke-linejoin:miter;stroke-miterlimit:4;stroke-dasharray:none;stroke-opacity:1"
     d="m 196.58317,-10.332355 c -8.6373,1.9652301 -12.03402,1.6186831 -17.91002,0.5477555 -4.66092,-0.8494725 -9.47677,-2.4136925 -13.13972,-5.4184435 -3.38588,-2.777466 -6.04557,-4.962485 -7.28672,-10.932078"
     id="path3501"
     inkscape:connector-curvature="0"
     sodipodi:nodetypes="caac" />
  <path
     style="opacity:0.55899999;fill:none;stroke:#ff7f00;stroke-width:17;stroke-linecap:butt;stroke-linejoin:miter;stroke-miterlimit:4;stroke-dasharray:none;stroke-opacity:1"
     d="m 158.24671,-26.135121 c 1.2678,7.376588 1.19158,8.525659 0.56555,12.725159 -0.47944,3.216153 -1.40378,6.5232898 -3.2567,9.195403 -2.20608,3.1814026 -5.09538,6.2735707 -8.8938,7.4694822"
     id="path3503"
     inkscape:connector-curvature="0"
     sodipodi:nodetypes="caac" />
  <path
     style="opacity:0.5;fill:none;stroke:#ff7f00;stroke-width:22;stroke-linecap:butt;stroke-linejoin:miter;stroke-miterlimit:4;stroke-dasharray:none;stroke-opacity:1"
     d="m 176.52875,3.0921923 c 1.97348,6.9173317 1.89995,4.1220513 3.27795,11.6529547"
     id="path3505"
     inkscape:connector-curvature="0"
     sodipodi:nodetypes="cc" />
  <path
     style="opacity:0.43399999;fill:none;stroke:#00ff00;stroke-width:18;stroke-linecap:butt;stroke-linejoin:miter;stroke-miterlimit:4;stroke-dasharray:none;stroke-opacity:1"
     d="m 149.00718,10.940944 c -15.72585,4.344421 -25.80709,6.942706 -38.74187,10.295041 -8.04833,2.085904 -16.053341,4.366969 -24.182962,6.109363 -7.868696,1.686471 -14.727059,3.596971 -23.774242,4.198871"
     id="path3509"
     inkscape:connector-curvature="0"
     sodipodi:nodetypes="caac" />
  <path
     style="opacity:0.61000001;fill:none;stroke:#ff7f00;stroke-width:15;stroke-linecap:butt;stroke-linejoin:miter;stroke-miterlimit:4;stroke-dasharray:none;stroke-opacity:1"
     d="m 151.91571,152.682 c 18.11968,-15.80408 34.8659,-27.84165 54.02298,-41.18775"
     id="path3511"
     inkscape:connector-curvature="0"
     sodipodi:nodetypes="cc" />
  <path
     style="opacity:0.47099998;fill:none;stroke:#ff7f00;stroke-width:16.5;stroke-linecap:butt;stroke-linejoin:miter;stroke-miterlimit:4;stroke-dasharray:none;stroke-opacity:1"
     d="M 204.11877,112.06896 C 225.115,101.20985 244.6983,90.742178 264.41336,80.094815"
     id="path3513"
     inkscape:connector-curvature="0"
     sodipodi:nodetypes="cc" />
  <path
     style="opacity:0.54000005;fill:none;stroke:#ff7f00;stroke-width:16.60000038;stroke-linecap:butt;stroke-linejoin:miter;stroke-miterlimit:4;stroke-dasharray:none;stroke-opacity:1"
     d="M 256.13027,65.708812 C 236.6402,76.696739 216.58629,86.527638 196.26437,101.14942"
     id="path3515"
     inkscape:connector-curvature="0"
     sodipodi:nodetypes="cc" />
  <path
     style="opacity:0.49300005;fill:none;stroke:#ff7f00;stroke-width:15;stroke-linecap:butt;stroke-linejoin:miter;stroke-miterlimit:4;stroke-dasharray:none;stroke-opacity:1"
     d="m 197.50958,99.521073 c 0,0 -19.13673,12.959707 -28.35249,19.923367 -9.21804,6.96539 -26.91571,21.83908 -26.91571,21.83908"
     id="path3517"
     inkscape:connector-curvature="0"
     sodipodi:nodetypes="cac" />
</svg>
