<?xml version="1.0" encoding="UTF-8" standalone="no"?>
<!-- Created with Inkscape (http://www.inkscape.org/) -->

<svg
   xmlns:dc="http://purl.org/dc/elements/1.1/"
   xmlns:cc="http://creativecommons.org/ns#"
   xmlns:rdf="http://www.w3.org/1999/02/22-rdf-syntax-ns#"
   xmlns:svg="http://www.w3.org/2000/svg"
   xmlns="http://www.w3.org/2000/svg"
   xmlns:xlink="http://www.w3.org/1999/xlink"
   xmlns:sodipodi="http://sodipodi.sourceforge.net/DTD/sodipodi-0.dtd"
   xmlns:inkscape="http://www.inkscape.org/namespaces/inkscape"
   version="1.1"
   id="svg5377"
   width="350"
   height="350"
   viewBox="0 0 350 350"
   sodipodi:docname="i7757470_-364210.svg"
   inkscape:version="0.92.2 (unknown)">
  <metadata
     id="metadata5383">
    <rdf:RDF>
      <cc:Work
         rdf:about="">
        <dc:format>image/svg+xml</dc:format>
        <dc:type
           rdf:resource="http://purl.org/dc/dcmitype/StillImage" />
        <dc:title></dc:title>
      </cc:Work>
    </rdf:RDF>
  </metadata>
  <defs
     id="defs5381" />
  <sodipodi:namedview
     pagecolor="#ffffff"
     bordercolor="#666666"
     borderopacity="1"
     objecttolerance="10"
     gridtolerance="10"
     guidetolerance="10"
     inkscape:pageopacity="0"
     inkscape:pageshadow="2"
     inkscape:window-width="1855"
     inkscape:window-height="1056"
     id="namedview5379"
     showgrid="false"
     inkscape:zoom="1.8465589"
     inkscape:cx="243.39893"
     inkscape:cy="242.18719"
     inkscape:window-x="65"
     inkscape:window-y="24"
     inkscape:window-maximized="1"
     inkscape:current-layer="svg5377"
     inkscape:measure-start="237.226,407.057"
     inkscape:measure-end="269.967,391.931" />
  <image
     width="350"
     height="350"
     preserveAspectRatio="none"
     xlink:href="carmen_lcad/data/road_mapper_remission_350px/voltadaufes/i7757470_-364210.png"
     id="image5385"
     x="0"
     y="0"
     sodipodi:absref="carmen_lcad/data/road_mapper_remission_350px/voltadaufes/i7757470_-364210.png" />
  <path
     style="fill:none;stroke:#0000ff;stroke-width:18;stroke-linecap:butt;stroke-linejoin:miter;stroke-miterlimit:4;stroke-dasharray:none;stroke-opacity:1;opacity:1"
     d="m 34.84683,59.737418 c 0,0 -61.51529,-8.745095 -92.28665,-13.019694 -29.85997,-4.147994 -59.76569,-7.967601 -89.60613,-12.253829 -23.76539,-3.413618 -47.47454,-7.208663 -71.22538,-10.722101 -14.42359,-2.133668 -43.28697,-6.290564 -43.28697,-6.290564"
     id="path5346"
     inkscape:connector-curvature="0"
     sodipodi:nodetypes="caaac" />
  <path
     style="fill:none;stroke:#7f00ff;stroke-width:17;stroke-linecap:butt;stroke-linejoin:miter;stroke-miterlimit:4;stroke-dasharray:none;stroke-opacity:1;opacity:1"
     d="m 32.68851,75.818166 c 0,0 -89.75484,-11.961368 -134.59388,-18.221162 -58.50592,-8.167769 -116.95128,-16.763836 -175.41458,-25.231251 -19.2337,-2.785675 -57.69293,-8.413273 -57.69293,-8.413273"
     id="path5344"
     inkscape:connector-curvature="0"
     sodipodi:nodetypes="caac" />
  <path
     style="fill:none;stroke:#ff007f;stroke-width:16;stroke-linecap:butt;stroke-linejoin:miter;stroke-miterlimit:4;stroke-dasharray:none;stroke-opacity:1;opacity:1"
     d="m 5.7923233,38.515413 c 0,0 -15.1288653,-2.21669 -22.6986933,-3.287339 -17.651141,-2.496514 -35.31022,-4.937757 -52.978,-7.313666 -9.01137,-1.211822 -18.03718,-2.315064 -27.0467,-3.540582 -8.45751,-1.150432 -16.8941,-2.452509 -25.35486,-3.578848 -8.42853,-1.122049 -25.31132,-3.166868 -25.31132,-3.166868"
     id="path5348"
     inkscape:connector-curvature="0"
     sodipodi:nodetypes="caaaac" />
  <path
     style="opacity:1;fill:none;stroke:#0000ff;stroke-width:18;stroke-linecap:butt;stroke-linejoin:miter;stroke-miterlimit:4;stroke-dasharray:none;stroke-opacity:1"
     d="M 99.301104,64.152411 C 61.615654,61.625767 83.553718,63.789952 34.84683,59.737418"
     id="path5660"
     inkscape:connector-curvature="0"
     sodipodi:nodetypes="cc" />
  <path
     style="opacity:1;fill:none;stroke:#7f00ff;stroke-width:17;stroke-linecap:butt;stroke-linejoin:miter;stroke-miterlimit:4;stroke-dasharray:none;stroke-opacity:1"
     d="m 98.175527,81.463666 c 0,0 -22.707148,-1.785001 -34.053348,-2.76547 C 53.639468,77.792344 32.68851,75.818166 32.68851,75.818166"
     id="path5662"
     inkscape:connector-curvature="0"
     sodipodi:nodetypes="cac" />
  <path
     style="opacity:1;fill:none;stroke:#ff007f;stroke-width:17;stroke-linecap:butt;stroke-linejoin:miter;stroke-miterlimit:4;stroke-dasharray:none;stroke-opacity:1"
     d="M 98.527984,46.745637 C 90.785331,46.164552 67.050212,45.152297 51.357254,43.753479 36.129289,42.396108 5.7923233,38.515413 5.7923233,38.515413"
     id="path5664"
     inkscape:connector-curvature="0"
     sodipodi:nodetypes="cac" />
  <path
     style="fill:none;stroke:#00ff00;stroke-width:18;stroke-linecap:butt;stroke-linejoin:miter;stroke-miterlimit:4;stroke-dasharray:none;stroke-opacity:1"
     d="M 205.78819,72.727494 99.301104,64.152411"
     id="path5755"
     inkscape:connector-curvature="0"
     sodipodi:nodetypes="cc" />
  <path
     style="fill:none;stroke:#7fff00;stroke-width:17;stroke-linecap:butt;stroke-linejoin:miter;stroke-miterlimit:4;stroke-dasharray:none;stroke-opacity:1"
     d="M 204.56971,89.921639 98.175527,81.463666"
     id="path5757"
     inkscape:connector-curvature="0"
     sodipodi:nodetypes="cc" />
  <path
     style="fill:none;stroke:#00ff00;stroke-width:17;stroke-linecap:butt;stroke-linejoin:miter;stroke-miterlimit:4;stroke-dasharray:none;stroke-opacity:1"
     d="M 206.03972,55.192889 98.527984,46.745637"
     id="path5759"
     inkscape:connector-curvature="0"
     sodipodi:nodetypes="cc" />
  <path
     style="opacity:1;fill:none;stroke:#ff7f00;stroke-width:18;stroke-linecap:butt;stroke-linejoin:miter;stroke-miterlimit:4;stroke-dasharray:none;stroke-opacity:1"
     d="m 256.13916,-83.073051 c 0,0 -6.20813,20.428368 -10.33918,30.251641 -3.46318,8.235146 -7.52094,16.239966 -12.06236,23.93326 -3.85152,6.524579 -8.26488,12.715521 -12.82823,18.763676 -4.42217,5.8610432 -9.06039,11.5797089 -14.07275,16.9447487 -3.79061,4.0573123 -7.79243,7.9385893 -12.06237,11.4879643 -6.45006,5.361601 -12.97542,10.824038 -20.39113,14.742889 -8.87421,4.689604 -18.52757,8.034706 -28.32383,10.220421 -11.5152,2.569241 -23.45282,2.836737 -35.24291,3.277938 -14.224648,0.532305 -42.696945,-0.765865 -42.696945,-0.765865"
     id="path5666"
     inkscape:connector-curvature="0"
     sodipodi:nodetypes="caaaaaaaac" />
  <path
     style="opacity:1;fill:none;stroke:#7fff00;stroke-width:18;stroke-linecap:butt;stroke-linejoin:miter;stroke-miterlimit:4;stroke-dasharray:none;stroke-opacity:1"
     d="m 273.41357,-77.926696 c 0,0 -6.08473,19.608956 -9.95624,29.102844 -2.85654,7.004951 -6.21866,13.804483 -9.76477,20.486872 -3.53006,6.652149 -7.2697,13.211093 -11.4401,19.4816735 -2.68475,4.0367725 -5.71414,7.8363531 -8.7186,11.6411708 -4.31028,5.4584964 -8.51038,11.0397907 -13.34529,16.0395277 -7.42557,7.678719 -23.93322,21.310022 -23.93322,21.310022"
     id="path5668"
     inkscape:connector-curvature="0"
     sodipodi:nodetypes="caaaaac" />
  <path
     sodipodi:nodetypes="caaac"
     inkscape:connector-curvature="0"
     id="path5753"
     d="m 196.25535,40.135414 c 0,0 -14.48033,9.778653 -22.52217,13.02529 -11.51042,4.646965 -23.84876,7.259802 -36.14438,8.963237 -11.76471,1.629883 -23.73565,1.123134 -35.6127,1.148796 -11.428569,0.02469 -34.272429,-0.957331 -34.272429,-0.957331"
     style="opacity:1;fill:none;stroke:#00ff00;stroke-width:18;stroke-linecap:butt;stroke-linejoin:miter;stroke-miterlimit:4;stroke-dasharray:none;stroke-opacity:1" />
</svg>
