<?xml version="1.0" encoding="UTF-8" standalone="no"?>
<!-- Created with Inkscape (http://www.inkscape.org/) -->

<svg
   xmlns:dc="http://purl.org/dc/elements/1.1/"
   xmlns:cc="http://creativecommons.org/ns#"
   xmlns:rdf="http://www.w3.org/1999/02/22-rdf-syntax-ns#"
   xmlns:svg="http://www.w3.org/2000/svg"
   xmlns="http://www.w3.org/2000/svg"
   xmlns:xlink="http://www.w3.org/1999/xlink"
   xmlns:sodipodi="http://sodipodi.sourceforge.net/DTD/sodipodi-0.dtd"
   xmlns:inkscape="http://www.inkscape.org/namespaces/inkscape"
   version="1.1"
   id="svg10414"
   width="350"
   height="350"
   viewBox="0 0 350 350"
   sodipodi:docname="i7757050_-363720.svg"
   inkscape:version="0.92.2 (unknown)">
  <metadata
     id="metadata10420">
    <rdf:RDF>
      <cc:Work
         rdf:about="">
        <dc:format>image/svg+xml</dc:format>
        <dc:type
           rdf:resource="http://purl.org/dc/dcmitype/StillImage" />
        <dc:title></dc:title>
      </cc:Work>
    </rdf:RDF>
  </metadata>
  <defs
     id="defs10418" />
  <sodipodi:namedview
     pagecolor="#ffffff"
     bordercolor="#666666"
     borderopacity="1"
     objecttolerance="10"
     gridtolerance="10"
     guidetolerance="10"
     inkscape:pageopacity="0"
     inkscape:pageshadow="2"
     inkscape:window-width="1855"
     inkscape:window-height="1056"
     id="namedview10416"
     showgrid="false"
     inkscape:zoom="1.3057143"
     inkscape:cx="195.19587"
     inkscape:cy="89.987606"
     inkscape:window-x="65"
     inkscape:window-y="24"
     inkscape:window-maximized="1"
     inkscape:current-layer="svg10414"
     inkscape:measure-start="155.853,53.0361"
     inkscape:measure-end="175.957,66.8217" />
  <image
     width="350"
     height="350"
     preserveAspectRatio="none"
     xlink:href="carmen_lcad/data/road_mapper_remission_350px/voltadaufes/i7757050_-363720.png"
     id="image10422"
     x="0"
     y="0"
     sodipodi:absref="carmen_lcad/data/road_mapper_remission_350px/voltadaufes/i7757050_-363720.png" />
  <image
     sodipodi:absref="carmen_lcad/data/road_mapper_remission_350px/voltadaufes/i7757120_-363720.png"
     y="0"
     x="350"
     id="image10486"
     xlink:href="carmen_lcad/data/road_mapper_remission_350px/voltadaufes/i7757120_-363720.png"
     preserveAspectRatio="none"
     height="350"
     width="350" />
  <image
     sodipodi:absref="carmen_lcad/data/road_mapper_remission_350px/voltadaufes/i7757050_-363790.png"
     y="350"
     x="0"
     id="image10551"
     xlink:href="carmen_lcad/data/road_mapper_remission_350px/voltadaufes/i7757050_-363790.png"
     preserveAspectRatio="none"
     height="350"
     width="350" />
  <image
     sodipodi:absref="carmen_lcad/data/road_mapper_remission_350px/voltadaufes/i7757120_-363650.png"
     y="-350"
     x="350"
     id="image10616"
     xlink:href="carmen_lcad/data/road_mapper_remission_350px/voltadaufes/i7757120_-363650.png"
     preserveAspectRatio="none"
     height="350"
     width="350" />
  <image
     width="350"
     height="350"
     preserveAspectRatio="none"
     xlink:href="carmen_lcad/data/road_mapper_remission_350px/voltadaufes/i7756980_-363720.png"
     id="image10079"
     x="-350"
     y="0"
     sodipodi:absref="carmen_lcad/data/road_mapper_remission_350px/voltadaufes/i7756980_-363720.png" />
  <image
     width="350"
     height="350"
     preserveAspectRatio="none"
     xlink:href="carmen_lcad/data/road_mapper_remission_350px/voltadaufes/i7756910_-363720.png"
     id="image9714"
     x="-699.99994"
     y="0"
     sodipodi:absref="carmen_lcad/data/road_mapper_remission_350px/voltadaufes/i7756910_-363720.png" />
  <path
     style="display:none;opacity:0.28999999;fill:none;stroke:#00ff00;stroke-width:25;stroke-linecap:butt;stroke-linejoin:miter;stroke-miterlimit:4;stroke-dasharray:none;stroke-opacity:1"
     d="m 2681.7851,14670.044 -35.7089,-9.988"
     id="path2589"
     inkscape:connector-curvature="0" />
  <path
     style="opacity:0.522;fill:none;stroke:#ff0000;stroke-width:17;stroke-linecap:butt;stroke-linejoin:miter;stroke-miterlimit:4;stroke-dasharray:none;stroke-opacity:1"
     d="m -968.43745,97.646756 294.0435,38.073014"
     id="path9640"
     inkscape:connector-curvature="0"
     sodipodi:nodetypes="cc" />
  <path
     style="opacity:0.54799996;fill:none;stroke:#ff0000;stroke-width:17;stroke-linecap:butt;stroke-linejoin:miter;stroke-miterlimit:4;stroke-dasharray:none;stroke-opacity:1"
     d="M -672.22535,119.26776 -1019.7484,73.905926"
     id="path9642"
     inkscape:connector-curvature="0"
     sodipodi:nodetypes="cc" />
  <path
     style="opacity:0.522;fill:none;stroke:#ff0000;stroke-width:17;stroke-linecap:butt;stroke-linejoin:miter;stroke-miterlimit:4;stroke-dasharray:none;stroke-opacity:1"
     d="m -674.39395,135.71977 261.10641,34.59052"
     id="path9991"
     inkscape:connector-curvature="0"
     sodipodi:nodetypes="cc" />
  <path
     style="opacity:0.5;fill:none;stroke:#7fff00;stroke-width:17;stroke-linecap:butt;stroke-linejoin:miter;stroke-miterlimit:4;stroke-dasharray:none;stroke-opacity:1"
     d="m -413.28754,170.31029 98.2148,13.06799"
     id="path9993"
     inkscape:connector-curvature="0"
     sodipodi:nodetypes="cc" />
  <path
     style="opacity:0.57700004;fill:none;stroke:#ff0000;stroke-width:17;stroke-linecap:butt;stroke-linejoin:miter;stroke-miterlimit:4;stroke-dasharray:none;stroke-opacity:1"
     d="M -312.9189,166.7112 -672.22535,119.26776"
     id="path9995"
     inkscape:connector-curvature="0" />
  <path
     style="opacity:0.53299997;fill:none;stroke:#ff7f00;stroke-width:17;stroke-linecap:butt;stroke-linejoin:miter;stroke-miterlimit:4;stroke-dasharray:none;stroke-opacity:1"
     d="m -413.28754,170.31029 c 0,0 3.71469,0.44383 5.44742,1.09875 4.36482,1.64978 7.0465,4.5297 10.21461,7.24908 3.07497,2.63944 6.25286,5.33307 8.45726,8.73347 2.39179,3.68948 3.87867,7.96944 4.90487,12.24493 1.32522,5.52134 1.53328,16.96531 1.53328,16.96531"
     id="path9997"
     inkscape:connector-curvature="0"
     sodipodi:nodetypes="csaaac" />
  <path
     style="opacity:0.544;fill:none;stroke:#ff7f00;stroke-width:14.5;stroke-linecap:butt;stroke-linejoin:miter;stroke-miterlimit:4;stroke-dasharray:none;stroke-opacity:1"
     d="m -384.52579,206.63088 c 0.0552,15.75865 0.0362,31.04229 -0.29019,47.62182"
     id="path9999"
     inkscape:connector-curvature="0"
     sodipodi:nodetypes="cc" />
  <path
     style="opacity:0.61400003;fill:none;stroke:#ff7f00;stroke-width:12;stroke-linecap:butt;stroke-linejoin:miter;stroke-miterlimit:4;stroke-dasharray:none;stroke-opacity:1"
     d="m -385.94592,249.86486 -2.70271,57.16217"
     id="path10001"
     inkscape:connector-curvature="0"
     sodipodi:nodetypes="cc" />
  <path
     style="opacity:0.63200001;fill:none;stroke:#ff7f00;stroke-width:17;stroke-linecap:butt;stroke-linejoin:miter;stroke-miterlimit:4;stroke-dasharray:none;stroke-opacity:1"
     d="m -371.38644,216.89192 c 0,0 4.07188,-8.96735 6.97552,-12.89992 2.9433,-3.98629 6.53714,-7.52245 10.41549,-10.6066 3.91646,-3.11446 8.15217,-5.99277 12.80436,-7.83551 4.50685,-1.78516 9.40182,-2.62634 14.2377,-2.9622 3.95943,-0.27499 11.88063,0.79059 11.88063,0.79059"
     id="path10007"
     inkscape:connector-curvature="0"
     sodipodi:nodetypes="caaaac" />
  <path
     style="opacity:0.59600004;fill:none;stroke:#ff7f00;stroke-width:14.5;stroke-linecap:butt;stroke-linejoin:miter;stroke-miterlimit:4;stroke-dasharray:none;stroke-opacity:1"
     d="m -375.78197,254.15836 c 0,0 1.39588,-17.42731 3.05776,-25.99095 0.83024,-4.27816 2.01107,-8.49619 3.43998,-12.61325 0.90781,-2.61566 3.24887,-7.64441 3.24887,-7.64441"
     id="path10005"
     inkscape:connector-curvature="0"
     sodipodi:nodetypes="caac" />
  <path
     style="opacity:0.625;fill:none;stroke:#ff7f00;stroke-width:12;stroke-linecap:butt;stroke-linejoin:miter;stroke-miterlimit:4;stroke-dasharray:none;stroke-opacity:1"
     d="m -376.6216,307.16216 2.56757,-57.02702"
     id="path10003"
     inkscape:connector-curvature="0"
     sodipodi:nodetypes="cc" />
  <path
     style="opacity:0.57399998;fill:none;stroke:#ff0000;stroke-width:17;stroke-linecap:butt;stroke-linejoin:miter;stroke-miterlimit:4;stroke-dasharray:none;stroke-opacity:1"
     d="m -315.07274,183.37828 c 120.11048,12.90972 221.978977,28.34703 330.581507,42.74316"
     id="path10344"
     inkscape:connector-curvature="0"
     sodipodi:nodetypes="cc" />
  <path
     style="opacity:0.61400003;fill:none;stroke:#ff0000;stroke-width:17;stroke-linecap:butt;stroke-linejoin:miter;stroke-miterlimit:4;stroke-dasharray:none;stroke-opacity:1"
     d="M 17.231947,209.84683 -178.44638,183.04158"
     id="path10346"
     inkscape:connector-curvature="0"
     sodipodi:nodetypes="cc" />
  <path
     style="opacity:0.58800001;fill:none;stroke:#7fff00;stroke-width:17;stroke-linecap:butt;stroke-linejoin:miter;stroke-miterlimit:4;stroke-dasharray:none;stroke-opacity:1"
     d="m -178.44638,183.04158 -42.8884,-5.36105"
     id="path10348"
     inkscape:connector-curvature="0" />
  <path
     style="opacity:0.55899999;fill:none;stroke:#ff0000;stroke-width:17;stroke-linecap:butt;stroke-linejoin:miter;stroke-miterlimit:4;stroke-dasharray:none;stroke-opacity:1"
     d="M -221.33478,177.68053 -312.9189,166.7112"
     id="path10350"
     inkscape:connector-curvature="0" />
  <path
     style="opacity:0.61000001;fill:none;stroke:#ff0000;stroke-width:17;stroke-linecap:butt;stroke-linejoin:miter;stroke-miterlimit:4;stroke-dasharray:none;stroke-opacity:1"
     d="m 15.508767,226.12144 c 0,0 25.773392,3.9986 38.65214,6.04826 6.560443,1.0441 13.094738,2.25907 19.673098,3.18359 6.59537,0.92691 19.839685,2.36844 19.839685,2.36844"
     id="path10762"
     inkscape:connector-curvature="0"
     sodipodi:nodetypes="caac" />
  <path
     style="opacity:0.61799999;fill:none;stroke:#00ff00;stroke-width:17;stroke-linecap:butt;stroke-linejoin:miter;stroke-miterlimit:4;stroke-dasharray:none;stroke-opacity:1"
     d="m 93.67369,237.72173 c 0,0 14.76455,1.40173 22.09178,0.63733 5.81511,-0.60666 11.58412,-2.04029 17.0508,-4.1137 4.53189,-1.71886 8.58661,-4.49987 12.84136,-6.82144 5.05465,-2.75804 10.07223,-5.58417 15.07041,-8.44327 4.8477,-2.77302 14.46833,-8.44842 14.46833,-8.44842"
     id="path10764"
     inkscape:connector-curvature="0"
     sodipodi:nodetypes="caaaac" />
  <path
     style="opacity:0.53299997;fill:none;stroke:#ff0000;stroke-width:17;stroke-linecap:butt;stroke-linejoin:miter;stroke-miterlimit:4;stroke-dasharray:none;stroke-opacity:1"
     d="m 175.19637,210.53218 c 69.33082,-41.0619 133.75614,-78.88867 200.5393,-117.912423"
     id="path10766"
     inkscape:connector-curvature="0"
     sodipodi:nodetypes="cc" />
  <path
     style="opacity:0.59200003;fill:none;stroke:#ff0000;stroke-width:17;stroke-linecap:butt;stroke-linejoin:miter;stroke-miterlimit:4;stroke-dasharray:none;stroke-opacity:1"
     d="M 366.89868,78.684521 C 326.43867,102.20997 295.18456,120.3976 259.40393,141.3848 c -30.88491,18.1156 -92.52224,54.57204 -92.52224,54.57204"
     id="path10768"
     inkscape:connector-curvature="0"
     sodipodi:nodetypes="cac" />
  <path
     style="opacity:0.63999999;fill:none;stroke:#7fff00;stroke-width:17;stroke-linecap:butt;stroke-linejoin:miter;stroke-miterlimit:4;stroke-dasharray:none;stroke-opacity:1"
     d="m 48.022719,214.24653 -30.790772,-4.3997"
     id="path10770"
     inkscape:connector-curvature="0"
     sodipodi:nodetypes="cc" />
  <path
     style="opacity:0.65100002;fill:none;stroke:#ff7f00;stroke-width:17;stroke-linecap:butt;stroke-linejoin:miter;stroke-miterlimit:4;stroke-dasharray:none;stroke-opacity:1"
     d="m 166.88169,195.95684 c 0,0 -5.33359,2.96431 -7.96484,4.50815 -3.28531,1.9276 -6.46693,4.02936 -9.76477,5.93545 -4.19166,2.4227 -8.45579,4.71928 -12.73249,6.98851 -3.76949,2.0001 -7.33418,4.51999 -11.39224,5.83972 -5.49809,1.78804 -11.36321,2.36648 -17.13621,2.68051 -4.11489,0.22385 -12.349568,-0.5744 -12.349568,-0.5744"
     id="path10772"
     inkscape:connector-curvature="0"
     sodipodi:nodetypes="csaaaac" />
  <path
     style="opacity:0.544;fill:none;stroke:#ff0000;stroke-width:17;stroke-linecap:butt;stroke-linejoin:miter;stroke-miterlimit:4;stroke-dasharray:none;stroke-opacity:1"
     d="m 95.541572,221.33478 c 0,0 -13.937218,-1.47817 -20.869799,-2.48911 -8.919997,-1.30076 -26.649054,-4.59921 -26.649054,-4.59921"
     id="path10774"
     inkscape:connector-curvature="0"
     sodipodi:nodetypes="cac" />
  <path
     style="opacity:0.56600001;fill:none;stroke:#ff7f00;stroke-width:17;stroke-linecap:butt;stroke-linejoin:miter;stroke-miterlimit:4;stroke-dasharray:none;stroke-opacity:1"
     d="m 93.67369,237.72173 c 0,0 9.84518,1.48045 14.50465,3.14261 6.47898,2.31123 12.80332,5.35551 18.38074,9.38183 5.37897,3.88306 9.67821,9.09349 14.16849,13.97703 5.39815,5.87092 15.31729,18.38073 15.31729,18.38073"
     id="path10784"
     inkscape:connector-curvature="0"
     sodipodi:nodetypes="caaac" />
  <path
     style="opacity:0.57399998;fill:none;stroke:#ff7f00;stroke-width:17;stroke-linecap:butt;stroke-linejoin:miter;stroke-miterlimit:4;stroke-dasharray:none;stroke-opacity:1"
     d="m 161.98031,278.20022 c 0,0 -4.31718,-7.76313 -4.97812,-12.06236 -1.01234,-6.58494 0.40835,-13.38122 1.7232,-19.91248 1.11135,-5.52043 2.93563,-10.91404 5.16958,-16.08315 2.19851,-5.08713 4.47473,-10.30997 8.04158,-14.55142 2.58409,-3.07283 9.38673,-7.54769 9.38673,-7.54769"
     id="path10786"
     inkscape:connector-curvature="0"
     sodipodi:nodetypes="caaaac" />
  <path
     style="opacity:0.61799999;fill:none;stroke:#ff7f00;stroke-width:14.5;stroke-linecap:butt;stroke-linejoin:miter;stroke-miterlimit:4;stroke-dasharray:none;stroke-opacity:1"
     d="m 152.93694,280.4862 c 8.45143,10.12514 16.40445,20.25028 24.13634,30.37542"
     id="path10788"
     inkscape:connector-curvature="0"
     sodipodi:nodetypes="cc" />
  <path
     style="opacity:0.58800001;fill:none;stroke:#ff7f00;stroke-width:14.5;stroke-linecap:butt;stroke-linejoin:miter;stroke-miterlimit:4;stroke-dasharray:none;stroke-opacity:1"
     d="M 184.35541,305.27303 C 176.73815,295.47049 168.0772,284.5098 161.28072,274.17368"
     id="path10790"
     inkscape:connector-curvature="0"
     sodipodi:nodetypes="cc" />
  <path
     style="opacity:0.54799996;fill:none;stroke:#ff7f00;stroke-width:12;stroke-linecap:butt;stroke-linejoin:miter;stroke-miterlimit:4;stroke-dasharray:none;stroke-opacity:1"
     d="m 173.8512,308.06893 27.95405,38.10175"
     id="path10792"
     inkscape:connector-curvature="0"
     sodipodi:nodetypes="cc" />
  <path
     style="opacity:0.54799996;fill:none;stroke:#ff7f00;stroke-width:12;stroke-linecap:butt;stroke-linejoin:miter;stroke-miterlimit:4;stroke-dasharray:none;stroke-opacity:1"
     d="M 211.09135,339.18217 183.80744,302.03775"
     id="path10794"
     inkscape:connector-curvature="0"
     sodipodi:nodetypes="cc" />
</svg>
