<?xml version="1.0" encoding="UTF-8" standalone="no"?>
<!-- Created with Inkscape (http://www.inkscape.org/) -->

<svg
   xmlns:dc="http://purl.org/dc/elements/1.1/"
   xmlns:cc="http://creativecommons.org/ns#"
   xmlns:rdf="http://www.w3.org/1999/02/22-rdf-syntax-ns#"
   xmlns:svg="http://www.w3.org/2000/svg"
   xmlns="http://www.w3.org/2000/svg"
   xmlns:xlink="http://www.w3.org/1999/xlink"
   xmlns:sodipodi="http://sodipodi.sourceforge.net/DTD/sodipodi-0.dtd"
   xmlns:inkscape="http://www.inkscape.org/namespaces/inkscape"
   version="1.1"
   id="svg6826"
   width="350"
   height="350"
   viewBox="0 0 350 350"
   sodipodi:docname="i7756490_-363790.svg"
   inkscape:version="0.92.2 (unknown)">
  <metadata
     id="metadata6832">
    <rdf:RDF>
      <cc:Work
         rdf:about="">
        <dc:format>image/svg+xml</dc:format>
        <dc:type
           rdf:resource="http://purl.org/dc/dcmitype/StillImage" />
        <dc:title></dc:title>
      </cc:Work>
    </rdf:RDF>
  </metadata>
  <defs
     id="defs6830" />
  <sodipodi:namedview
     pagecolor="#ffffff"
     bordercolor="#666666"
     borderopacity="1"
     objecttolerance="10"
     gridtolerance="10"
     guidetolerance="10"
     inkscape:pageopacity="0"
     inkscape:pageshadow="2"
     inkscape:window-width="1855"
     inkscape:window-height="1056"
     id="namedview6828"
     showgrid="false"
     inkscape:zoom="1.8465589"
     inkscape:cx="332.13636"
     inkscape:cy="194.06618"
     inkscape:window-x="65"
     inkscape:window-y="24"
     inkscape:window-maximized="1"
     inkscape:current-layer="svg6826" />
  <image
     width="350"
     height="350"
     preserveAspectRatio="none"
     xlink:href="carmen_lcad/data/road_mapper_remission_350px/voltadaufes/i7756490_-363790.png"
     id="image6834"
     x="0"
     y="0"
     sodipodi:absref="carmen_lcad/data/road_mapper_remission_350px/voltadaufes/i7756490_-363790.png" />
  <image
     width="350"
     height="350"
     preserveAspectRatio="none"
     xlink:href="carmen_lcad/data/road_mapper_remission_350px/voltadaufes/i7756490_-363860.png"
     id="image6343"
     x="3.0517578e-05"
     y="350"
     sodipodi:absref="carmen_lcad/data/road_mapper_remission_350px/voltadaufes/i7756490_-363860.png" />
  <path
     style="display:none;opacity:0.28999999;fill:none;stroke:#00ff00;stroke-width:25;stroke-linecap:butt;stroke-linejoin:miter;stroke-miterlimit:4;stroke-dasharray:none;stroke-opacity:1"
     d="m 3328.379,8987.1541 -35.7089,-9.9879"
     id="path2589"
     inkscape:connector-curvature="0" />
  <path
     style="opacity:0.5;fill:none;stroke:#7fff00;stroke-width:17;stroke-linecap:butt;stroke-linejoin:miter;stroke-miterlimit:4;stroke-dasharray:none;stroke-opacity:1"
     d="m 191.70798,732.38219 c 0,0 -2.55481,-5.24293 -3.52006,-7.98784 -1.56518,-4.45091 -2.71091,-9.05151 -3.65545,-13.67408 -1.18186,-5.78402 -1.95625,-11.6546 -2.50465,-17.53261 -0.58467,-6.26667 -0.74751,-12.56995 -0.83356,-18.86325 -0.16828,-12.30665 0.25731,-24.61574 0.62085,-36.91817 0.28616,-9.68393 0.68217,-19.36575 1.22811,-29.03851 0.66793,-11.8344 1.36807,-23.67277 2.50465,-35.47139 1.15963,-12.03785 4.40008,-36.01293 4.40008,-36.01293"
     id="path6192"
     inkscape:connector-curvature="0"
     sodipodi:nodetypes="caaaaaaac" />
  <path
     style="opacity:0.51799999;fill:none;stroke:#ff7f00;stroke-width:17;stroke-linecap:butt;stroke-linejoin:miter;stroke-miterlimit:4;stroke-dasharray:none;stroke-opacity:1"
     d="m 209.30829,723.17587 c 0,0 -6.11827,-14.85987 -8.66476,-22.47424 -2.45566,-7.34274 -4.58648,-14.80298 -6.36319,-22.33884 -2.75014,-11.66463 -5.19779,-23.43793 -6.63397,-35.33601 -1.08865,-9.01903 -1.35836,-18.12922 -1.48925,-27.21278 -0.15089,-10.47234 0.30213,-20.94878 0.81231,-31.40977 0.52235,-10.71033 1.68301,-21.38153 2.30159,-32.08672 0.29707,-5.14107 0.67693,-15.43411 0.67693,-15.43411"
     id="path6194"
     inkscape:connector-curvature="0"
     sodipodi:nodetypes="caaaaaac" />
  <path
     style="opacity:0.44900004;fill:none;stroke:#7fff00;stroke-width:17;stroke-linecap:butt;stroke-linejoin:miter;stroke-miterlimit:4;stroke-dasharray:none;stroke-opacity:1"
     d="m 173.15997,534.64951 c 0,0 -1.92122,14.87943 -2.70774,22.33886 -1.27094,12.05368 -2.37677,24.12696 -3.24929,36.21601 -0.92239,12.77994 -1.58599,25.57929 -2.0985,38.3822 -0.39093,9.76576 -0.87561,19.53859 -0.74462,29.31129 0.14273,10.6485 1.30909,21.26142 1.66711,31.90487 0.28525,8.48041 0.38293,25.45274 0.38293,25.45274"
     id="path6196"
     inkscape:connector-curvature="0"
     sodipodi:nodetypes="caaaaac" />
  <path
     style="opacity:0.47400004;fill:none;stroke:#ff7f00;stroke-width:17;stroke-linecap:butt;stroke-linejoin:miter;stroke-miterlimit:4;stroke-dasharray:none;stroke-opacity:1"
     d="m 173.15997,534.64951 c 0,0 -2.33001,16.3451 -3.42524,24.52719 -1.23313,9.21221 -2.3644,18.43776 -3.54213,27.65722 -1.47939,11.58095 -2.86247,23.17454 -4.42695,34.74429 -1.4672,10.85038 -3.0692,21.68217 -4.65127,32.51639 -1.74125,11.92437 -3.79329,23.80501 -5.32819,35.7577 -1.19371,9.29579 -3.017,27.95405 -3.017,27.95405"
     id="path6198"
     inkscape:connector-curvature="0"
     sodipodi:nodetypes="caaaaac" />
  <image
     sodipodi:absref="carmen_lcad/data/road_mapper_remission_350px/voltadaufes/i7756560_-363790.png"
     y="0"
     x="350"
     id="image6757"
     xlink:href="carmen_lcad/data/road_mapper_remission_350px/voltadaufes/i7756560_-363790.png"
     preserveAspectRatio="none"
     height="350"
     width="350" />
  <path
     style="opacity:0.57700004;fill:none;stroke:#ff0000;stroke-width:17;stroke-linecap:butt;stroke-linejoin:miter;stroke-miterlimit:4;stroke-dasharray:none;stroke-opacity:1"
     d="m 189.94795,536.8834 c 0,0 1.87155,-13.92839 2.93254,-20.87423 2.40325,-15.7329 5.4005,-31.37161 7.77599,-47.10873 2.07198,-13.72641 3.6639,-27.52158 5.64825,-41.26094 2.09472,-14.50348 4.20369,-29.00702 6.60559,-43.4628 1.35529,-8.15682 2.63897,-16.3338 4.40372,-24.41193 2.46128,-11.26649 8.61597,-33.50656 8.61597,-33.50656"
     id="path6760"
     inkscape:connector-curvature="0"
     sodipodi:nodetypes="caaaaac" />
  <path
     style="opacity:0.478;fill:none;stroke:#ff0000;stroke-width:17;stroke-linecap:butt;stroke-linejoin:miter;stroke-miterlimit:4;stroke-dasharray:none;stroke-opacity:1"
     d="m 209.61191,321.96674 c 0,0 -3.67152,13.74188 -5.38263,20.64452 -1.78068,7.18327 -3.63383,14.35499 -5.08183,21.61264 -1.57598,7.89916 -2.68729,15.88449 -3.91942,23.84454 -1.55931,10.07379 -2.9675,20.17051 -4.39526,30.26379 -1.25354,8.86167 -2.38633,17.74026 -3.66225,26.59873 -1.40532,9.7568 -2.83796,19.51035 -4.39809,29.24358 -1.3621,8.49781 -2.96875,16.95519 -4.33238,25.45276 -1.87062,11.65686 -5.28008,35.02222 -5.28008,35.02222"
     id="path6762"
     inkscape:connector-curvature="0"
     sodipodi:nodetypes="caaaaaaac" />
  <image
     sodipodi:absref="carmen_lcad/data/road_mapper_remission_350px/voltadaufes/i7756560_-363720.png"
     y="-350"
     x="350"
     id="image7156"
     xlink:href="carmen_lcad/data/road_mapper_remission_350px/voltadaufes/i7756560_-363720.png"
     preserveAspectRatio="none"
     height="350"
     width="350" />
  <image
     sodipodi:absref="carmen_lcad/data/road_mapper_remission_350px/voltadaufes/i7756630_-363720.png"
     y="-350"
     x="700"
     id="image7221"
     xlink:href="carmen_lcad/data/road_mapper_remission_350px/voltadaufes/i7756630_-363720.png"
     preserveAspectRatio="none"
     height="350"
     width="350" />
  <path
     style="opacity:0.48500001;fill:none;stroke:#ff0000;stroke-width:17;stroke-linecap:butt;stroke-linejoin:miter;stroke-miterlimit:4;stroke-dasharray:none;stroke-opacity:1"
     d="m 225.93001,326.25821 c 0,0 3.10807,-12.72425 5.48094,-18.80798 4.75358,-12.18759 11.07537,-23.72779 17.43029,-35.16234 8.66328,-15.58805 17.3402,-31.31396 28.16049,-45.49003 10.44311,-13.68192 22.59197,-26.05905 35.18137,-37.79619 13.62049,-12.69841 28.84985,-23.55563 43.45523,-35.1077 12.69155,-10.03833 25.58164,-19.82306 38.3842,-29.71943 22.59262,-17.46408 45.20643,-34.900741 67.81925,-52.338676 39.19373,-30.224359 117.61443,-90.629959 117.61443,-90.629959"
     id="path7224"
     inkscape:connector-curvature="0"
     sodipodi:nodetypes="caaaaaaac" />
  <path
     style="opacity:0.54000005;fill:none;stroke:#ff0000;stroke-width:17;stroke-linecap:butt;stroke-linejoin:miter;stroke-miterlimit:4;stroke-dasharray:none;stroke-opacity:1"
     d="m 566.45906,-30.1666 c 0,0 -35.34778,27.4815346 -53.07169,41.157638 -27.92759,21.549454 -56.01712,42.888523 -83.93991,64.444196 -25.86694,19.968607 -51.67105,40.018646 -77.44135,60.111816 -9.56162,7.45522 -19.27391,14.72388 -28.63633,22.42777 -11.01068,9.06018 -22.20361,17.96778 -32.36711,27.96903 -9.63741,9.48357 -18.81351,19.38906 -27.0117,30.26098 -9.20968,12.2133 -17.22949,25.32273 -24.75258,38.64136 -9.27824,16.42589 -18.31499,33.12725 -25.05621,50.74689 -2.02486,5.29238 -4.57027,16.37366 -4.57027,16.37366"
     id="path7226"
     inkscape:connector-curvature="0"
     sodipodi:nodetypes="caaaaasaac" />
</svg>
