<?xml version="1.0" encoding="UTF-8" standalone="no"?>
<!-- Created with Inkscape (http://www.inkscape.org/) -->

<svg
   xmlns:dc="http://purl.org/dc/elements/1.1/"
   xmlns:cc="http://creativecommons.org/ns#"
   xmlns:rdf="http://www.w3.org/1999/02/22-rdf-syntax-ns#"
   xmlns:svg="http://www.w3.org/2000/svg"
   xmlns="http://www.w3.org/2000/svg"
   xmlns:xlink="http://www.w3.org/1999/xlink"
   xmlns:sodipodi="http://sodipodi.sourceforge.net/DTD/sodipodi-0.dtd"
   xmlns:inkscape="http://www.inkscape.org/namespaces/inkscape"
   version="1.1"
   id="svg2023"
   width="350"
   height="350"
   viewBox="0 0 350 350"
   sodipodi:docname="i7757050_-364140.svg"
   inkscape:version="0.92.2 (unknown)">
  <metadata
     id="metadata2029">
    <rdf:RDF>
      <cc:Work
         rdf:about="">
        <dc:format>image/svg+xml</dc:format>
        <dc:type
           rdf:resource="http://purl.org/dc/dcmitype/StillImage" />
        <dc:title />
      </cc:Work>
    </rdf:RDF>
  </metadata>
  <defs
     id="defs2027" />
  <sodipodi:namedview
     pagecolor="#ffffff"
     bordercolor="#666666"
     borderopacity="1"
     objecttolerance="10"
     gridtolerance="10"
     guidetolerance="10"
     inkscape:pageopacity="0"
     inkscape:pageshadow="2"
     inkscape:window-width="1855"
     inkscape:window-height="1056"
     id="namedview2025"
     showgrid="false"
     inkscape:zoom="2.8284271"
     inkscape:cx="206.5086"
     inkscape:cy="246.0849"
     inkscape:window-x="65"
     inkscape:window-y="24"
     inkscape:window-maximized="1"
     inkscape:current-layer="svg2023"
     inkscape:measure-start="-46.5,369.25"
     inkscape:measure-end="-48.75,350.5" />
  <image
     width="350"
     height="350"
     preserveAspectRatio="none"
     id="image905"
     x="350"
     y="0"
     xlink:href="/home/rcarneiro/carmen_lcad/data/road_mapper_remission_350px/voltadaufes/i7757120_-364140.png"
     sodipodi:absref="/home/rcarneiro/carmen_lcad/data/road_mapper_remission_350px/voltadaufes/i7757120_-364140.png" />
  <image
     sodipodi:absref="carmen_lcad/data/road_mapper_remission_350px/voltadaufes/i7757120_-364070.png"
     xlink:href="carmen_lcad/data/road_mapper_remission_350px/voltadaufes/i7757120_-364070.png"
     y="-350"
     x="350"
     id="image2704"
     preserveAspectRatio="none"
     height="350"
     width="350" />
  <image
     sodipodi:absref="carmen_lcad/data/road_mapper_remission_350px/voltadaufes/i7757050_-364070.png"
     xlink:href="carmen_lcad/data/road_mapper_remission_350px/voltadaufes/i7757050_-364070.png"
     y="-350"
     x="0"
     id="image2302"
     preserveAspectRatio="none"
     height="350"
     width="350" />
  <image
     sodipodi:absref="carmen_lcad/data/road_mapper_remission_350px/voltadaufes/i7757050_-364140.png"
     xlink:href="carmen_lcad/data/road_mapper_remission_350px/voltadaufes/i7757050_-364140.png"
     width="350"
     height="350"
     preserveAspectRatio="none"
     id="image2031"
     x="0"
     y="0" />
  <image
     sodipodi:absref="carmen_lcad/data/road_mapper_remission_350px/voltadaufes/i7756980_-364070.png"
     xlink:href="carmen_lcad/data/road_mapper_remission_350px/voltadaufes/i7756980_-364070.png"
     y="-350"
     x="-350"
     id="image2479"
     preserveAspectRatio="none"
     height="350"
     width="350" />
  <image
     sodipodi:absref="carmen_lcad/data/road_mapper_remission_350px/voltadaufes/i7756980_-364140.png"
     xlink:href="carmen_lcad/data/road_mapper_remission_350px/voltadaufes/i7756980_-364140.png"
     y="0"
     x="-350"
     id="image2414"
     preserveAspectRatio="none"
     height="350"
     width="350" />
  <path
     style="opacity:0.73500001;fill:none;stroke:#0000ff;stroke-width:18;stroke-linecap:butt;stroke-linejoin:miter;stroke-miterlimit:4;stroke-dasharray:none;stroke-opacity:1"
     d="m 368.99182,166.09931 c 0,0 -111.41135,-14.08411 -167.09303,-21.3126 -71.15845,-9.23767 -213.41296,-28.18939 -213.41296,-28.18939"
     id="path1162"
     inkscape:connector-curvature="0"
     sodipodi:nodetypes="cac" />
  <path
     style="opacity:0.54000005;fill:none;stroke:#00ff7f;stroke-width:16;stroke-linecap:butt;stroke-linejoin:miter;stroke-miterlimit:4;stroke-dasharray:none;stroke-opacity:1"
     d="M 371.08712,149.38346 251.00699,134.10935"
     id="path1166"
     inkscape:connector-curvature="0"
     sodipodi:nodetypes="cc" />
  <path
     style="fill:none;stroke:#ff007f;stroke-width:16;stroke-linecap:butt;stroke-linejoin:miter;stroke-miterlimit:4;stroke-dasharray:none;stroke-opacity:1"
     d="m 251.00699,134.10935 c 0,0 -79.9053,-10.36138 -119.84761,-15.62099 -33.115209,-4.36062 -99.328306,-13.21269 -99.328306,-13.21269"
     id="path1168"
     inkscape:connector-curvature="0"
     sodipodi:nodetypes="cac" />
  <path
     style="opacity:0.544;fill:none;stroke:#00ff7f;stroke-width:16;stroke-linecap:butt;stroke-linejoin:miter;stroke-miterlimit:4;stroke-dasharray:none;stroke-opacity:1"
     d="M 31.831074,105.27567 -57.42142,93.1848"
     id="path1170"
     inkscape:connector-curvature="0"
     sodipodi:nodetypes="cc" />
  <path
     style="opacity:0.62099998;fill:none;stroke:#00ff00;stroke-width:16;stroke-linecap:butt;stroke-linejoin:miter;stroke-miterlimit:4;stroke-dasharray:none;stroke-opacity:1"
     d="M 504.47253,201.69275 347.34464,180.26144"
     id="path1174"
     inkscape:connector-curvature="0"
     sodipodi:nodetypes="cc" />
  <path
     style="opacity:0.48500001;fill:none;stroke:#7f00ff;stroke-width:16;stroke-linecap:butt;stroke-linejoin:miter;stroke-miterlimit:4;stroke-dasharray:none;stroke-opacity:1"
     d="m 347.34464,180.26144 c 0,0 -73.2032,-9.09015 -109.78878,-13.76184 -18.16236,-2.31919 -36.31625,-4.70431 -54.47088,-7.08325 -19.05454,-2.49686 -38.10566,-5.01972 -57.15621,-7.54679 -32.445611,-4.30393 -64.87873,-8.70204 -97.32904,-12.9704 -14.15875,-1.86237 -42.4857,-5.51497 -42.4857,-5.51497"
     id="path1176"
     inkscape:connector-curvature="0"
     sodipodi:nodetypes="caaaac" />
  <path
     style="opacity:0.41499999;fill:none;stroke:#ff0000;stroke-width:15;stroke-linecap:butt;stroke-linejoin:miter;stroke-miterlimit:4;stroke-dasharray:none;stroke-opacity:1"
     d="m 120.27309,73.586392 c 0,0 -17.03892,-2.136294 -25.58931,-2.898912 -5.77009,-0.51464 -11.55176,-0.95701 -17.34215,-1.130678 -5.01477,-0.150406 -10.04138,-0.197295 -15.05088,0.07735 -4.41508,0.242056 -8.812039,0.782733 -13.1929,1.382373 -3.874394,0.530316 -7.739567,1.156177 -11.567054,1.957745 -3.614613,0.756988 -10.747646,2.689649 -10.747646,2.689649"
     id="path1178"
     inkscape:connector-curvature="0"
     sodipodi:nodetypes="caaaaac" />
  <path
     sodipodi:nodetypes="caaaac"
     inkscape:connector-curvature="0"
     id="path1180"
     d="m 118.43477,87.986595 c 0,0 -10.50905,-1.445369 -15.78492,-1.97975 -8.38418,-0.849215 -16.78087,-1.770731 -25.20609,-1.947711 -6.55149,-0.137621 -13.12368,0.06453 -19.64669,0.690123 -4.91171,0.471059 -9.786995,1.320408 -14.62271,2.301534 -4.142424,0.840463 -12.304154,3.066318 -12.304154,3.066318"
     style="opacity:0.41499999;fill:none;stroke:#ff0000;stroke-width:15;stroke-linecap:butt;stroke-linejoin:miter;stroke-miterlimit:4;stroke-dasharray:none;stroke-opacity:1" />
  <path
     style="opacity:0.46700003;fill:none;stroke:#ff007f;stroke-width:15;stroke-linecap:butt;stroke-linejoin:miter;stroke-miterlimit:4;stroke-dasharray:none;stroke-opacity:1"
     d="m 212.12572,87.478664 c 0,0 -15.05639,-2.701743 -22.67266,-4.035603 -7.03771,-1.232534 -12.79233,-1.820832 -19.18576,-2.750227 -8.48088,-1.232843 -16.95043,-2.54361 -25.43527,-3.748863 -8.18035,-1.162 -24.55894,-3.357579 -24.55894,-3.357579"
     id="path1182"
     inkscape:connector-curvature="0"
     sodipodi:nodetypes="csaac" />
  <path
     style="opacity:0.43000004;fill:none;stroke:#7f00ff;stroke-width:15;stroke-linecap:butt;stroke-linejoin:miter;stroke-miterlimit:4;stroke-dasharray:none;stroke-opacity:1"
     d="m 253.74445,113.08599 c 0,0 -4.25411,-1.17894 -6.38115,-1.76847 -2.84654,-0.78894 -5.6763,-1.64114 -8.53958,-2.36697 -5.26255,-1.33403 -10.58316,-2.42755 -15.87231,-3.65186 -4.97182,-1.15086 -9.91422,-2.43453 -14.91085,-3.47239 -6.3024,-1.30908 -12.64269,-2.438304 -18.99601,-3.472391 -4.27669,-0.696088 -8.57933,-1.222203 -12.86827,-1.838324 -3.32349,-0.477431 -6.64461,-0.971451 -9.96936,-1.440072 -4.5761,-0.644997 -9.16014,-1.233114 -13.73485,-1.887885 -4.90276,-0.701723 -9.80008,-1.441203 -14.69633,-2.187014 -6.4504,-0.982544 -19.34097,-3.014019 -19.34097,-3.014019"
     id="path1184"
     inkscape:connector-curvature="0"
     sodipodi:nodetypes="caaaaaaaaac" />
  <path
     style="opacity:0.51499999;fill:none;stroke:#00ff7f;stroke-width:15;stroke-linecap:butt;stroke-linejoin:miter;stroke-miterlimit:4;stroke-dasharray:none;stroke-opacity:1"
     d="m 258.27782,99.076027 c 0,0 -7.79253,-2.263715 -11.71405,-3.303253 -5.6778,-1.505102 -11.39173,-2.871301 -17.1023,-4.246858 -5.76897,-1.389625 -17.33575,-4.047252 -17.33575,-4.047252"
     id="path1186"
     inkscape:connector-curvature="0"
     sodipodi:nodetypes="caac" />
  <path
     style="opacity:0.49300005;fill:none;stroke:#ff007f;stroke-width:15;stroke-linecap:butt;stroke-linejoin:miter;stroke-miterlimit:4;stroke-dasharray:none;stroke-opacity:1"
     d="m 306.28875,112.24347 c 0,0 -17.46087,-4.62185 -26.16889,-7.01533 -7.29349,-2.00468 -21.84204,-6.152113 -21.84204,-6.152113"
     id="path1188"
     inkscape:connector-curvature="0"
     sodipodi:nodetypes="cac" />
  <path
     style="opacity:0.67299996;fill:none;stroke:#ff7f00;stroke-width:15;stroke-linecap:butt;stroke-linejoin:miter;stroke-miterlimit:4;stroke-dasharray:none;stroke-opacity:1"
     d="m 515.17303,169.14088 c 0,0 -10.24824,-1.39357 -15.31013,-2.43232 -22.96939,-4.71357 -45.53998,-11.20657 -68.20493,-17.21576 -16.31018,-4.32434 -32.56104,-8.8742 -48.7724,-13.55538 -10.2665,-2.96455 -20.4975,-6.05251 -30.70882,-9.20188 -9.27814,-2.86157 -18.50494,-5.88707 -27.7646,-8.80789 -6.03802,-1.90461 -18.1234,-5.68418 -18.1234,-5.68418"
     id="path1190"
     inkscape:connector-curvature="0"
     sodipodi:nodetypes="caaaaac" />
  <path
     style="fill:none;stroke:#0000ff;stroke-width:18;stroke-linecap:butt;stroke-linejoin:miter;stroke-opacity:1;stroke-miterlimit:4;stroke-dasharray:none;opacity:0.426"
     d="M -11.51417,116.59732 -364.55142,68.161926"
     id="path2482"
     inkscape:connector-curvature="0" />
  <path
     style="opacity:0.65399996;fill:none;stroke:#7f00ff;stroke-width:16;stroke-linecap:butt;stroke-linejoin:miter;stroke-miterlimit:4;stroke-dasharray:none;stroke-opacity:1"
     d="M -13.88597,133.38419 -366.96637,84.844627"
     id="path2556"
     inkscape:connector-curvature="0"
     sodipodi:nodetypes="cc" />
  <path
     style="opacity:0.53299997;fill:none;stroke:#ff007f;stroke-width:16;stroke-linecap:butt;stroke-linejoin:miter;stroke-miterlimit:4;stroke-dasharray:none;stroke-opacity:1"
     d="M -57.42142,93.1848 -303.23441,59.450218"
     id="path2558"
     inkscape:connector-curvature="0"
     sodipodi:nodetypes="cc" />
  <path
     style="opacity:0.38600003;fill:none;stroke:#0000ff;stroke-width:16;stroke-linecap:butt;stroke-linejoin:miter;stroke-miterlimit:4;stroke-dasharray:none;stroke-opacity:1"
     d="m -303.23441,59.450218 -58.98557,-8.103461"
     id="path2560"
     inkscape:connector-curvature="0"
     sodipodi:nodetypes="cc" />
  <path
     style="opacity:0.40100002;fill:none;stroke:#ff7f00;stroke-width:15;stroke-linecap:butt;stroke-linejoin:miter;stroke-miterlimit:4;stroke-dasharray:none;stroke-opacity:1"
     d="m 26.78315,75.663919 c 0,0 -15.84073,3.857073 -23.8488422,5.35994 -11.1998616,2.101857 -22.5600618,3.246439 -33.8025358,5.106944 -8.638314,1.429545 -17.112784,4.115504 -25.852107,4.652433 -7.626382,0.468553 -15.27981,-0.554428 -22.887201,-1.267758 -9.925982,-0.930739 -29.649744,-3.926222 -29.649744,-3.926222"
     id="path2562"
     inkscape:connector-curvature="0"
     sodipodi:nodetypes="caaaac" />
  <path
     style="opacity:0.42600002;fill:none;stroke:#00ff00;stroke-width:15;stroke-linecap:butt;stroke-linejoin:miter;stroke-miterlimit:4;stroke-dasharray:none;stroke-opacity:1"
     d="m 30.870206,90.117109 c 0,0 -12.131463,2.978262 -18.265383,4.139391 -8.7599719,1.658232 -17.5266236,3.89017 -26.441043,4.031477 -5.884846,0.09328 -8.137133,-0.487237 -17.530613,-2.106802"
     id="path2564"
     inkscape:connector-curvature="0"
     sodipodi:nodetypes="caac" />
  <path
     style="opacity:0.54000005;fill:none;stroke:#00ff7f;stroke-width:16;stroke-linecap:butt;stroke-linejoin:miter;stroke-miterlimit:4;stroke-dasharray:none;stroke-opacity:1"
     d="M 371.08712,149.38346 251.00699,134.10935"
     id="path1166-2"
     inkscape:connector-curvature="0"
     sodipodi:nodetypes="cc" />
  <path
     style="opacity:0.62099998;fill:none;stroke:#00ff00;stroke-width:16;stroke-linecap:butt;stroke-linejoin:miter;stroke-miterlimit:4;stroke-dasharray:none;stroke-opacity:1"
     d="M 504.47253,201.69275 347.34464,180.26144"
     id="path1174-7"
     inkscape:connector-curvature="0"
     sodipodi:nodetypes="cc" />
  <path
     style="opacity:0.67299996;fill:none;stroke:#ff7f00;stroke-width:15;stroke-linecap:butt;stroke-linejoin:miter;stroke-miterlimit:4;stroke-dasharray:none;stroke-opacity:1"
     d="m 515.17303,169.14088 c 0,0 -10.24824,-1.39357 -15.31013,-2.43232 -22.96939,-4.71357 -45.53998,-11.20657 -68.20493,-17.21576 -16.31018,-4.32434 -32.56104,-8.8742 -48.7724,-13.55538 -10.2665,-2.96455 -20.4975,-6.05251 -30.70882,-9.20188 -9.27814,-2.86157 -18.50494,-5.88707 -27.7646,-8.80789 -6.03802,-1.90461 -18.1234,-5.68418 -18.1234,-5.68418"
     id="path1190-9"
     inkscape:connector-curvature="0"
     sodipodi:nodetypes="caaaaac" />
  <path
     style="opacity:0.44900004;fill:none;stroke:#00ff00;stroke-width:15;stroke-linecap:butt;stroke-linejoin:miter;stroke-miterlimit:4;stroke-dasharray:none;stroke-opacity:1"
     d="m 447.23929,160.81974 c 0,0 -17.23256,-2.38842 -25.83353,-3.68691 -12.9684,-1.95784 -26.06107,-3.30839 -38.85649,-6.18757 -14.18601,-3.19208 -27.9492,-8.03907 -41.86562,-12.25397 -11.43338,-3.46285 -22.75119,-7.30242 -34.20157,-10.70865 -9.99193,-2.97237 -20.06826,-5.65325 -30.10017,-8.48773 -7.54694,-2.13237 -13.89753,-4.04432 -22.63746,-6.40892"
     id="path1192-2"
     inkscape:connector-curvature="0"
     sodipodi:nodetypes="caaaaac" />
  <path
     style="opacity:0.35700001;fill:none;stroke:#ff0000;stroke-width:20;stroke-linecap:butt;stroke-linejoin:miter;stroke-miterlimit:4;stroke-dasharray:none;stroke-opacity:1"
     d="m 354,7.9999998 c 0,0 -30.28261,-5.639906 -45.5,-7.99999999934038 C 290.43327,-2.8020039 272.26656,-4.9167688 254.14124,-7.3106604 232.75723,-10.134942 189.9693,-15.631281 189.9693,-15.631281"
     id="path3965"
     inkscape:connector-curvature="0"
     sodipodi:nodetypes="caac" />
  <path
     style="opacity:0.272;fill:none;stroke:#ff0000;stroke-width:24;stroke-linecap:butt;stroke-linejoin:miter;stroke-miterlimit:4;stroke-dasharray:none;stroke-opacity:1"
     d="m 26.812184,-22.28033 c 0,0 -139.960964,-18.295222 -209.911214,-27.67031 -62.02559,-8.312986 -186.02229,-25.342253 -186.02229,-25.342253"
     id="path3967"
     inkscape:connector-curvature="0"
     sodipodi:nodetypes="cac" />
  <path
     style="fill:none;stroke:#7fff00;stroke-width:24;stroke-linecap:butt;stroke-linejoin:miter;stroke-miterlimit:4;stroke-dasharray:none;stroke-opacity:1;opacity:0.504"
     d="m 148.25,-18.125 c 0,0 -19.74547,0.898722 -29.625,1.125 -10.62254,0.243296 -21.254067,0.555533 -31.875,0.25 -11.478104,-0.330192 -22.945565,-1.143692 -34.375,-2.25 -8.550846,-0.827676 -25.562816,-3.28033 -25.562816,-3.28033"
     id="path3969"
     inkscape:connector-curvature="0"
     sodipodi:nodetypes="caaac" />
  <path
     style="opacity:0.30500004;fill:none;stroke:#ff7f00;stroke-width:20;stroke-linecap:butt;stroke-linejoin:miter;stroke-miterlimit:4;stroke-dasharray:none;stroke-opacity:1"
     d="m 189.9693,-15.631281 c -8.32833,-0.995019 -14.89989,-0.322743 -22.35105,-0.3943 -7.30074,-0.07011 -13.88411,-0.320715 -21.90321,-0.03432"
     id="path3971"
     inkscape:connector-curvature="0"
     sodipodi:nodetypes="cac" />
  <path
     style="opacity:0.46000001;fill:none;stroke:#ff0000;stroke-width:20;stroke-linecap:butt;stroke-linejoin:miter;stroke-miterlimit:4;stroke-dasharray:none;stroke-opacity:1"
     d="m -372.02027,-53.761652 c 0,0 175.80363,23.909602 263.73306,35.658956 29.009028,3.87626 58.037318,7.607578 87.045094,11.4931921 42.502789,5.69328175 84.87752,12.3933306 127.476026,17.3195689 13.90455,1.60797 27.87472,2.58927 41.80141,3.992641 13.22196,1.332356 26.48439,2.35797 39.64455,4.203427 13.88102,1.946544 27.66638,4.549274 41.42273,7.238961 9.968,1.948975 29.78059,6.446068 29.78059,6.446068"
     id="path3975"
     inkscape:connector-curvature="0"
     sodipodi:nodetypes="caaaaaac" />
  <path
     style="opacity:0.40400002;fill:none;stroke:#7fff00;stroke-width:20;stroke-linecap:butt;stroke-linejoin:miter;stroke-miterlimit:4;stroke-dasharray:none;stroke-opacity:1"
     d="m 258.88319,32.591162 c 16.70749,3.626016 29.54967,7.009385 50.59344,11.599019"
     id="path3977"
     inkscape:connector-curvature="0"
     sodipodi:nodetypes="cc" />
  <path
     style="opacity:0.61799999;fill:none;stroke:#ff7f00;stroke-width:16;stroke-linecap:butt;stroke-linejoin:miter;stroke-miterlimit:4;stroke-dasharray:none;stroke-opacity:1"
     d="m -286.20147,62.73787 -72.832,-24.748737"
     id="path3981"
     inkscape:connector-curvature="0"
     sodipodi:nodetypes="cc" />
  <path
     style="opacity:0.49200056;fill:none;stroke:#ff7f00;stroke-width:21;stroke-linecap:butt;stroke-linejoin:miter;stroke-miterlimit:4;stroke-dasharray:none;stroke-opacity:1"
     d="m 307.60626,44.290465 c 12.70295,2.722063 20.82912,4.011736 31.2142,6.163322 9.33901,1.934862 18.66771,3.924911 27.96158,6.066158 11.11332,2.560439 19.01808,4.552446 33.23887,8.107644"
     id="path1214"
     inkscape:connector-curvature="0"
     sodipodi:nodetypes="caac" />
  <path
     style="opacity:0.53699999;fill:none;fill-rule:evenodd;stroke:#ff7f00;stroke-width:21.29999924;stroke-linecap:butt;stroke-linejoin:miter;stroke-miterlimit:4;stroke-dasharray:none;stroke-opacity:1"
     d="m 415.03037,22.53033 c -16.45172,-1.942499 -24.2554,-6.112453 -36.4391,-8.933727 -11.58017,-2.681521 -20.17,-5.9523277 -34.84123,-7.5966027"
     id="path6541"
     inkscape:connector-curvature="0"
     sodipodi:nodetypes="cac" />
</svg>
