<?xml version="1.0" encoding="UTF-8" standalone="no"?>
<!-- Created with Inkscape (http://www.inkscape.org/) -->

<svg
   xmlns:dc="http://purl.org/dc/elements/1.1/"
   xmlns:cc="http://creativecommons.org/ns#"
   xmlns:rdf="http://www.w3.org/1999/02/22-rdf-syntax-ns#"
   xmlns:svg="http://www.w3.org/2000/svg"
   xmlns="http://www.w3.org/2000/svg"
   xmlns:xlink="http://www.w3.org/1999/xlink"
   xmlns:sodipodi="http://sodipodi.sourceforge.net/DTD/sodipodi-0.dtd"
   xmlns:inkscape="http://www.inkscape.org/namespaces/inkscape"
   version="1.1"
   id="svg6693"
   width="350"
   height="350"
   viewBox="0 0 350 350"
   sodipodi:docname="i7757470_-364070.svg"
   inkscape:version="0.92.2 (unknown)">
  <metadata
     id="metadata6699">
    <rdf:RDF>
      <cc:Work
         rdf:about="">
        <dc:format>image/svg+xml</dc:format>
        <dc:type
           rdf:resource="http://purl.org/dc/dcmitype/StillImage" />
        <dc:title />
      </cc:Work>
    </rdf:RDF>
  </metadata>
  <defs
     id="defs6697" />
  <sodipodi:namedview
     pagecolor="#ffffff"
     bordercolor="#666666"
     borderopacity="1"
     objecttolerance="10"
     gridtolerance="10"
     guidetolerance="10"
     inkscape:pageopacity="0"
     inkscape:pageshadow="2"
     inkscape:window-width="1855"
     inkscape:window-height="1056"
     id="namedview6695"
     showgrid="false"
     inkscape:zoom="3.6931178"
     inkscape:cx="45.595582"
     inkscape:cy="85.104606"
     inkscape:window-x="65"
     inkscape:window-y="24"
     inkscape:window-maximized="1"
     inkscape:current-layer="svg6693" />
  <image
     sodipodi:absref="carmen_lcad/data/road_mapper_remission_350px/voltadaufes/i7757540_-364000.png"
     xlink:href="carmen_lcad/data/road_mapper_remission_350px/voltadaufes/i7757540_-364000.png"
     y="-350"
     x="350"
     id="image6507"
     preserveAspectRatio="none"
     height="350"
     width="350" />
  <image
     sodipodi:absref="carmen_lcad/data/road_mapper_remission_350px/voltadaufes/i7757540_-364070.png"
     xlink:href="carmen_lcad/data/road_mapper_remission_350px/voltadaufes/i7757540_-364070.png"
     y="0"
     x="350"
     id="image6832"
     preserveAspectRatio="none"
     height="350"
     width="350" />
  <image
     sodipodi:absref="carmen_lcad/data/road_mapper_remission_350px/voltadaufes/i7757470_-364070.png"
     xlink:href="carmen_lcad/data/road_mapper_remission_350px/voltadaufes/i7757470_-364070.png"
     y="0"
     x="0"
     id="image6701"
     preserveAspectRatio="none"
     height="350"
     width="350" />
  <path
     style="opacity:0.5;fill:none;stroke:#ff0000;stroke-width:28;stroke-linecap:butt;stroke-linejoin:miter;stroke-miterlimit:4;stroke-dasharray:none;stroke-opacity:1"
     d="m 121.54811,244.26427 c 0,0 23.6391,-16.47606 35.21643,-25.04784 36.01264,-26.66352 71.10964,-54.543 106.4917,-82.03778 18.74894,-14.56947 37.40704,-29.25561 56.06273,-43.944289 14.02617,-11.043599 42.00639,-33.222184 42.00639,-33.222184"
     id="path6737"
     inkscape:connector-curvature="0"
     sodipodi:nodetypes="caaac" />
  <path
     style="fill:none;stroke:#ff0000;stroke-width:28;stroke-linecap:butt;stroke-linejoin:miter;stroke-miterlimit:4;stroke-dasharray:none;stroke-opacity:1;opacity:0.523"
     d="m -17.040481,337.36324 c 0,0 28.794572,-16.38468 42.888402,-25.08206 9.264749,-5.71733 18.450533,-11.57783 27.37965,-17.80634 16.007198,-11.16582 31.046173,-23.66857 46.909189,-35.03829 8.17232,-5.85747 24.85774,-17.08694 24.85774,-17.08694"
     id="path6741"
     inkscape:connector-curvature="0"
     sodipodi:nodetypes="caaac" />
  <path
     style="opacity:0.656;fill:none;stroke:#ff0000;stroke-width:18;stroke-linecap:butt;stroke-linejoin:miter;stroke-miterlimit:4;stroke-dasharray:none;stroke-opacity:1"
     d="m 150.10708,166.4577 c 0,0 -3.56422,7.35708 -4.81717,11.2341 -1.60284,4.95966 -2.45578,10.13608 -3.41354,15.25956 -0.99637,5.33 -2.13253,10.67094 -2.42336,16.08547 -0.31874,5.93407 0.75225,17.812 0.75225,17.812"
     id="path6754"
     inkscape:connector-curvature="0"
     sodipodi:nodetypes="caaac" />
  <path
     style="opacity:0.70200004;fill:none;stroke:#ff0000;stroke-width:14;stroke-linecap:butt;stroke-linejoin:miter;stroke-miterlimit:4;stroke-dasharray:none;stroke-opacity:1"
     d="m 60.924134,299.90683 c 0,0 29.381766,-3.87969 44.136146,-3.52008 8.46107,0.20623 17.0027,1.07408 25.18197,3.2493 10.28603,2.7355 20.28791,6.87844 29.51436,12.18483 7.0889,4.07702 13.84077,8.98527 19.49573,14.89256 5.02115,5.24521 8.68891,11.66333 12.4556,17.87109 4.54454,7.48968 8.23518,15.4668 12.18483,23.28654 5.29592,10.48517 15.43412,31.68056 15.43412,31.68056"
     id="path6764"
     inkscape:connector-curvature="0"
     sodipodi:nodetypes="caaaaaac" />
  <path
     style="opacity:0.69499966;fill:none;stroke:#ff0000;stroke-width:14;stroke-linecap:butt;stroke-linejoin:miter;stroke-miterlimit:4;stroke-dasharray:none;stroke-opacity:1"
     d="m 21.391141,306.94694 c 0,0 25.09509,-5.06756 37.772964,-6.76934 12.065432,-1.61957 24.230355,-4.1108 36.374632,-3.26572 11.154543,0.77622 22.426363,3.12165 32.672723,7.5981 9.43982,4.12409 17.87204,10.50456 25.58813,17.32953 5.65393,5.00097 10.4209,10.97758 14.89257,17.05876 5.52059,7.50765 10.05633,15.70417 14.62179,23.8281 3.97501,7.07327 7.64042,14.32359 11.10173,21.66192 3.39755,7.20315 9.47709,21.93269 9.47709,21.93269"
     id="path6766"
     inkscape:connector-curvature="0"
     sodipodi:nodetypes="caaaaaaac" />
  <path
     style="opacity:0.744;fill:none;stroke:#ff0000;stroke-width:14;stroke-linecap:butt;stroke-linejoin:miter;stroke-miterlimit:4;stroke-dasharray:none;stroke-opacity:1"
     d="m 141.28836,223.59954 c 0,0 5.27,20.15129 9.26195,29.73417 3.2605,7.827 7.44294,15.26993 11.91406,22.47423 5.21743,8.40684 11.54817,16.0694 17.32952,24.09888 5.59132,7.76556 11.36363,15.40348 16.78799,23.28656 3.91665,5.69196 7.87784,11.36917 11.3725,17.32952 5.04343,8.60186 9.37281,17.6059 13.80947,26.53586 4.22151,8.49692 12.18483,25.72352 12.18483,25.72352"
     id="path6768"
     inkscape:connector-curvature="0"
     sodipodi:nodetypes="caaaaaac" />
  <path
     style="opacity:0.73299997;fill:none;stroke:#ff0000;stroke-width:20;stroke-linecap:butt;stroke-linejoin:miter;stroke-miterlimit:4;stroke-dasharray:none;stroke-opacity:1"
     d="m 332.01131,183.84005 c 0,0 1.02073,-23.92681 -0.71941,-35.70201 -0.90444,-6.12016 -2.44753,-12.23978 -5.00931,-17.87109 -2.79365,-6.14101 -6.80716,-11.72018 -11.10173,-16.92337 -4.4279,-5.36474 -14.96204,-14.547081 -14.96204,-14.547081"
     id="path6772"
     inkscape:connector-curvature="0"
     sodipodi:nodetypes="caaac" />
  <path
     style="opacity:0.62599996;fill:none;stroke:#ff0000;stroke-width:20;stroke-linecap:butt;stroke-linejoin:miter;stroke-miterlimit:4;stroke-dasharray:none;stroke-opacity:1"
     d="m 300.21882,98.796499 c 0,0 -6.64104,-4.803944 -10.33917,-6.509847 -4.28002,-1.974322 -8.82037,-3.635235 -13.49836,-4.212254 -8.14461,-1.00462 -24.579,1.403146 -24.579,1.403146"
     id="path6774"
     inkscape:connector-curvature="0"
     sodipodi:nodetypes="caac" />
  <path
     style="fill:none;stroke:#ff0000;stroke-width:20;stroke-linecap:butt;stroke-linejoin:miter;stroke-miterlimit:4;stroke-dasharray:none;stroke-opacity:1;opacity:0.676"
     d="m 181.04197,301.93638 c 0,0 12.80558,1.4002 19.23155,1.3459 8.15314,-0.0689 16.32133,-0.80633 24.36828,-2.11974 6.69307,-1.09243 13.36292,-2.57101 19.7771,-4.77304 7.56948,-2.59866 14.75976,-6.23172 21.87757,-9.89054 4.73099,-2.43191 9.40864,-5.00992 13.80879,-7.9991 3.83763,-2.60705 7.36347,-5.65028 10.92319,-8.62559 3.66051,-3.05955 10.7221,-9.4804 10.7221,-9.4804"
     id="path6776"
     inkscape:connector-curvature="0"
     sodipodi:nodetypes="caaaaaac" />
  <path
     style="opacity:0.51799999;fill:none;fill-rule:evenodd;stroke:#ff0000;stroke-width:28.70000076;stroke-linecap:butt;stroke-linejoin:miter;stroke-miterlimit:4;stroke-dasharray:none;stroke-opacity:1"
     d="m 358.86379,18.667463 c 0,0 -14.58439,8.496582 -21.88349,12.732978 -24.2371,14.067195 -49.27095,26.834526 -72.75711,42.122538 -33.08048,21.533318 -64.95155,44.985311 -95.73304,69.693651 -31.99834,25.68511 -61.30089,54.56159 -92.259436,81.49088 -20.686509,17.99416 -40.49113,37.11597 -62.467701,53.50962 -19.4586543,14.51538 -61.176231,39.51568 -61.176231,39.51568"
     id="path4524"
     inkscape:connector-curvature="0"
     sodipodi:nodetypes="caaaaac" />
  <image
     sodipodi:absref="carmen_lcad/data/road_mapper_remission_350px/voltadaufes/i7757610_-364000.png"
     xlink:href="carmen_lcad/data/road_mapper_remission_350px/voltadaufes/i7757610_-364000.png"
     width="350"
     height="350"
     preserveAspectRatio="none"
     id="image6396"
     x="700"
     y="-350" />
  <path
     style="opacity:0.53399999;fill:none;stroke:#7fff00;stroke-width:25;stroke-linecap:butt;stroke-linejoin:miter;stroke-miterlimit:4;stroke-dasharray:none;stroke-opacity:1"
     d="m 426.08747,10.01863 c 38.68866,-28.5264 160.77552,-120.84519 240.82525,-181.71405 34.54052,-26.2642 103.32842,-79.17663 103.32842,-79.17663"
     id="path6539"
     inkscape:connector-curvature="0"
     sodipodi:nodetypes="cac" />
  <path
     style="opacity:0.519;fill:none;stroke:#7fff00;stroke-width:25;stroke-linecap:butt;stroke-linejoin:miter;stroke-miterlimit:4;stroke-dasharray:none;stroke-opacity:1"
     d="m 754.94241,-270.50316 c 0,0 -59.94454,46.07056 -90.00567,68.9896 -55.4988,42.31308 -111.08253,84.51551 -166.82341,126.50918 -28.63396,21.57206 -63.42014,47.95005 -86.1061,64.4442"
     id="path6541"
     inkscape:connector-curvature="0"
     sodipodi:nodetypes="caac" />
  <image
     sodipodi:absref="carmen_lcad/data/road_mapper_remission_350px/voltadaufes/i7757680_-363930.png"
     xlink:href="carmen_lcad/data/road_mapper_remission_350px/voltadaufes/i7757680_-363930.png"
     y="-700"
     x="1050"
     id="image6181"
     preserveAspectRatio="none"
     height="350"
     width="350" />
  <image
     sodipodi:absref="carmen_lcad/data/road_mapper_remission_350px/voltadaufes/i7757610_-363930.png"
     xlink:href="carmen_lcad/data/road_mapper_remission_350px/voltadaufes/i7757610_-363930.png"
     width="350"
     height="350"
     preserveAspectRatio="none"
     id="image6306"
     x="700"
     y="-700" />
  <image
     sodipodi:absref="carmen_lcad/data/road_mapper_remission_350px/voltadaufes/i7757750_-363860.png"
     xlink:href="carmen_lcad/data/road_mapper_remission_350px/voltadaufes/i7757750_-363860.png"
     width="350"
     height="350"
     preserveAspectRatio="none"
     id="image5742"
     x="1400"
     y="-1050" />
  <image
     sodipodi:absref="carmen_lcad/data/road_mapper_remission_350px/voltadaufes/i7757680_-363860.png"
     xlink:href="carmen_lcad/data/road_mapper_remission_350px/voltadaufes/i7757680_-363860.png"
     width="350"
     height="350"
     preserveAspectRatio="none"
     id="image5303"
     x="1050"
     y="-1050" />
  <image
     sodipodi:absref="/home/rcarneiro/carmen_lcad/data/road_mapper_remission_350px/voltadaufes/i7757890_-363790.png"
     y="-1400"
     x="2100"
     id="image2071"
     xlink:href="file:///home/rcarneiro/carmen_lcad/data/road_mapper_remission_350px/voltadaufes/i7757890_-363790.png"
     preserveAspectRatio="none"
     height="350"
     width="350" />
  <image
     sodipodi:absref="/home/rcarneiro/carmen_lcad/data/road_mapper_remission_350px/voltadaufes/i7757750_-363790.png"
     y="-1400"
     x="1400"
     id="image5768"
     xlink:href="file:///home/rcarneiro/carmen_lcad/data/road_mapper_remission_350px/voltadaufes/i7757750_-363790.png"
     preserveAspectRatio="none"
     height="350"
     width="350" />
  <image
     sodipodi:absref="carmen_lcad/data/road_mapper_remission_350px/voltadaufes/i7757820_-363860.png"
     xlink:href="carmen_lcad/data/road_mapper_remission_350px/voltadaufes/i7757820_-363860.png"
     width="350"
     height="350"
     preserveAspectRatio="none"
     id="image5832"
     x="1750"
     y="-1050" />
  <image
     sodipodi:absref="carmen_lcad/data/road_mapper_remission_350px/voltadaufes/i7757820_-363790.png"
     xlink:href="carmen_lcad/data/road_mapper_remission_350px/voltadaufes/i7757820_-363790.png"
     width="350"
     height="350"
     preserveAspectRatio="none"
     id="image5652"
     x="1750"
     y="-1400" />
  <image
     sodipodi:absref="carmen_lcad/data/road_mapper_remission_350px/voltadaufes/i7757960_-363720.png"
     xlink:href="carmen_lcad/data/road_mapper_remission_350px/voltadaufes/i7757960_-363720.png"
     width="350"
     height="350"
     preserveAspectRatio="none"
     id="image5472"
     x="2450"
     y="-1750" />
  <image
     sodipodi:absref="carmen_lcad/data/road_mapper_remission_350px/voltadaufes/i7757890_-363720.png"
     xlink:href="carmen_lcad/data/road_mapper_remission_350px/voltadaufes/i7757890_-363720.png"
     width="350"
     height="350"
     preserveAspectRatio="none"
     id="image5290"
     x="2100"
     y="-1750" />
  <image
     sodipodi:absref="carmen_lcad/data/road_mapper_remission_350px/voltadaufes/i7757960_-363650.png"
     xlink:href="carmen_lcad/data/road_mapper_remission_350px/voltadaufes/i7757960_-363650.png"
     width="350"
     height="350"
     preserveAspectRatio="none"
     id="image5382"
     x="2450"
     y="-2100" />
  <image
     sodipodi:absref="carmen_lcad/data/road_mapper_remission_350px/voltadaufes/i7757890_-363650.png"
     xlink:href="carmen_lcad/data/road_mapper_remission_350px/voltadaufes/i7757890_-363650.png"
     width="350"
     height="350"
     preserveAspectRatio="none"
     id="image5200"
     x="2100"
     y="-2100" />
  <path
     style="opacity:0.569;fill:none;stroke:#ff0000;stroke-width:21;stroke-linecap:butt;stroke-linejoin:miter;stroke-miterlimit:4;stroke-dasharray:none;stroke-opacity:1"
     d="m 330.20765,79.138861 c 18.55282,-16.114873 28.14992,-20.860279 42.58361,-30.781552 9.57728,-6.583131 10.0181,-6.584623 29.19178,-19.062999"
     id="path7103-7"
     inkscape:connector-curvature="0"
     sodipodi:nodetypes="cac" />
  <path
     style="opacity:0.56499999;fill:none;stroke:#ff0000;stroke-width:28;stroke-linecap:butt;stroke-linejoin:miter;stroke-miterlimit:4;stroke-dasharray:none;stroke-opacity:1"
     d="m 335.84063,182.49979 c 0,0 11.98963,-21.34713 18.00793,-32.00745 9.16544,-16.2349 17.4891,-32.97999 27.56782,-48.66427 12.18973,-18.96937 21.82478,-31.1723 39.68284,-54.78241"
     id="path7105-8"
     inkscape:connector-curvature="0"
     sodipodi:nodetypes="caac" />
  <path
     style="opacity:0.5;fill:none;fill-rule:evenodd;stroke:#ff0000;stroke-width:25;stroke-linecap:butt;stroke-linejoin:miter;stroke-miterlimit:4;stroke-dasharray:none;stroke-opacity:1"
     d="m 412.00723,-10.56018 c 0,0 -12.10505,7.1291524 -18.14185,10.72025785 C 385.5356,5.1152045 377.33057,10.282392 368.91967,15.098542 c -10.25544,5.872353 -16.57396,9.457484 -31.10449,17.012862"
     id="path5603-4"
     inkscape:connector-curvature="0"
     sodipodi:nodetypes="caac" />
  <path
     style="opacity:0.531;fill:none;stroke:#7fff00;stroke-width:21;stroke-linecap:butt;stroke-linejoin:miter;stroke-miterlimit:4;stroke-dasharray:none;stroke-opacity:1"
     d="m 401.98304,29.29431 c 9.13652,-8.150687 11.19055,-9.787566 16.79354,-14.672519 4.50877,-3.930964 5.60056,-4.8242349 13.53869,-11.77867"
     id="path9155"
     inkscape:connector-curvature="0"
     sodipodi:nodetypes="cac" />
  <path
     style="opacity:0.49599998;fill:none;stroke:#ff7f00;stroke-width:28;stroke-linecap:butt;stroke-linejoin:miter;stroke-miterlimit:4;stroke-dasharray:none;stroke-opacity:1"
     d="m 421.09922,47.04566 c 0,0 11.08188,-14.56069 16.76692,-21.7283 9.541,-12.02914 19.28202,-23.89976 29.10158,-35.7026 6.33437,-7.61373 19.23156,-22.64918 19.23156,-22.64918"
     id="path9157"
     inkscape:connector-curvature="0"
     sodipodi:nodetypes="caac" />
</svg>
