<?xml version="1.0" encoding="UTF-8" standalone="no"?>
<!-- Created with Inkscape (http://www.inkscape.org/) -->

<svg
   xmlns:dc="http://purl.org/dc/elements/1.1/"
   xmlns:cc="http://creativecommons.org/ns#"
   xmlns:rdf="http://www.w3.org/1999/02/22-rdf-syntax-ns#"
   xmlns:svg="http://www.w3.org/2000/svg"
   xmlns="http://www.w3.org/2000/svg"
   xmlns:xlink="http://www.w3.org/1999/xlink"
   xmlns:sodipodi="http://sodipodi.sourceforge.net/DTD/sodipodi-0.dtd"
   xmlns:inkscape="http://www.inkscape.org/namespaces/inkscape"
   version="1.1"
   id="svg2023"
   width="350"
   height="350"
   viewBox="0 0 350 350"
   sodipodi:docname="i7757050_-364140.svg"
   inkscape:version="0.92.2 (unknown)">
  <metadata
     id="metadata2029">
    <rdf:RDF>
      <cc:Work
         rdf:about="">
        <dc:format>image/svg+xml</dc:format>
        <dc:type
           rdf:resource="http://purl.org/dc/dcmitype/StillImage" />
        <dc:title />
      </cc:Work>
    </rdf:RDF>
  </metadata>
  <defs
     id="defs2027" />
  <sodipodi:namedview
     pagecolor="#ffffff"
     bordercolor="#666666"
     borderopacity="1"
     objecttolerance="10"
     gridtolerance="10"
     guidetolerance="10"
     inkscape:pageopacity="0"
     inkscape:pageshadow="2"
     inkscape:window-width="1920"
     inkscape:window-height="1004"
     id="namedview2025"
     showgrid="false"
     inkscape:zoom="2"
     inkscape:cx="305.21881"
     inkscape:cy="251.55222"
     inkscape:window-x="0"
     inkscape:window-y="24"
     inkscape:window-maximized="1"
     inkscape:current-layer="svg2023"
     inkscape:measure-start="-46.5,369.25"
     inkscape:measure-end="-48.75,350.5" />
  <image
     sodipodi:absref="carmen_lcad/data/road_mapper_remission_350px/voltadaufes/i7757120_-364140.png"
     xlink:href="carmen_lcad/data/road_mapper_remission_350px/voltadaufes/i7757120_-364140.png"
     y="7.5390626e-06"
     x="350"
     id="image905-5"
     preserveAspectRatio="none"
     height="350"
     width="350" />
  <image
     sodipodi:absref="carmen_lcad/data/road_mapper_remission_350px/voltadaufes/i7757050_-364070.png"
     xlink:href="carmen_lcad/data/road_mapper_remission_350px/voltadaufes/i7757050_-364070.png"
     width="350"
     height="350"
     preserveAspectRatio="none"
     id="image2302"
     x="0"
     y="-350" />
  <image
     sodipodi:absref="carmen_lcad/data/road_mapper_remission_350px/voltadaufes/i7756980_-364070.png"
     xlink:href="carmen_lcad/data/road_mapper_remission_350px/voltadaufes/i7756980_-364070.png"
     width="350"
     height="350"
     preserveAspectRatio="none"
     id="image2479"
     x="-350"
     y="-350" />
  <image
     sodipodi:absref="carmen_lcad/data/road_mapper_remission_350px/voltadaufes/i7756980_-364140.png"
     xlink:href="carmen_lcad/data/road_mapper_remission_350px/voltadaufes/i7756980_-364140.png"
     width="350"
     height="350"
     preserveAspectRatio="none"
     id="image2414"
     x="-350"
     y="0" />
  <image
     sodipodi:absref="carmen_lcad/data/road_mapper_remission_350px/voltadaufes/i7757050_-364140.png"
     xlink:href="carmen_lcad/data/road_mapper_remission_350px/voltadaufes/i7757050_-364140.png"
     y="0"
     x="0"
     id="image2031"
     preserveAspectRatio="none"
     height="350"
     width="350" />
  <path
     style="opacity:0.73500001;fill:none;stroke:#0000ff;stroke-width:18;stroke-linecap:butt;stroke-linejoin:miter;stroke-miterlimit:4;stroke-dasharray:none;stroke-opacity:1"
     d="m 368.99182,166.09931 c 0,0 -111.41135,-14.08411 -167.09303,-21.3126 -71.15845,-9.23767 -213.41296,-28.18939 -213.41296,-28.18939"
     id="path1162"
     inkscape:connector-curvature="0"
     sodipodi:nodetypes="cac" />
  <path
     style="opacity:0.54000005;fill:none;stroke:#00ff7f;stroke-width:16;stroke-linecap:butt;stroke-linejoin:miter;stroke-miterlimit:4;stroke-dasharray:none;stroke-opacity:1"
     d="M 371.08712,149.38346 251.00699,134.10935"
     id="path1166"
     inkscape:connector-curvature="0"
     sodipodi:nodetypes="cc" />
  <path
     style="fill:none;stroke:#ff007f;stroke-width:16;stroke-linecap:butt;stroke-linejoin:miter;stroke-miterlimit:4;stroke-dasharray:none;stroke-opacity:1"
     d="m 251.00699,134.10935 c 0,0 -79.9053,-10.36138 -119.84761,-15.62099 -33.115209,-4.36062 -99.328306,-13.21269 -99.328306,-13.21269"
     id="path1168"
     inkscape:connector-curvature="0"
     sodipodi:nodetypes="cac" />
  <path
     style="opacity:0.544;fill:none;stroke:#00ff7f;stroke-width:16;stroke-linecap:butt;stroke-linejoin:miter;stroke-miterlimit:4;stroke-dasharray:none;stroke-opacity:1"
     d="M 31.831074,105.27567 -57.42142,93.1848"
     id="path1170"
     inkscape:connector-curvature="0"
     sodipodi:nodetypes="cc" />
  <path
     style="opacity:0.62099998;fill:none;stroke:#00ff00;stroke-width:16;stroke-linecap:butt;stroke-linejoin:miter;stroke-miterlimit:4;stroke-dasharray:none;stroke-opacity:1"
     d="M 504.47253,201.69275 347.34464,180.26144"
     id="path1174"
     inkscape:connector-curvature="0"
     sodipodi:nodetypes="cc" />
  <path
     style="opacity:0.48500001;fill:none;stroke:#7f00ff;stroke-width:16;stroke-linecap:butt;stroke-linejoin:miter;stroke-miterlimit:4;stroke-dasharray:none;stroke-opacity:1"
     d="m 347.34464,180.26144 c 0,0 -73.2032,-9.09015 -109.78878,-13.76184 -18.16236,-2.31919 -36.31625,-4.70431 -54.47088,-7.08325 -19.05454,-2.49686 -38.10566,-5.01972 -57.15621,-7.54679 -32.445611,-4.30393 -64.87873,-8.70204 -97.32904,-12.9704 -14.15875,-1.86237 -42.4857,-5.51497 -42.4857,-5.51497"
     id="path1176"
     inkscape:connector-curvature="0"
     sodipodi:nodetypes="caaaac" />
  <path
     style="opacity:0.41499999;fill:none;stroke:#ff0000;stroke-width:15;stroke-linecap:butt;stroke-linejoin:miter;stroke-miterlimit:4;stroke-dasharray:none;stroke-opacity:1"
     d="m 120.27309,73.586392 c 0,0 -17.03892,-2.136294 -25.58931,-2.898912 -5.77009,-0.51464 -11.55176,-0.95701 -17.34215,-1.130678 -5.01477,-0.150406 -10.04138,-0.197295 -15.05088,0.07735 -4.41508,0.242056 -8.812039,0.782733 -13.1929,1.382373 -3.874394,0.530316 -7.739567,1.156177 -11.567054,1.957745 -3.614613,0.756988 -10.747646,2.689649 -10.747646,2.689649"
     id="path1178"
     inkscape:connector-curvature="0"
     sodipodi:nodetypes="caaaaac" />
  <path
     sodipodi:nodetypes="caaaac"
     inkscape:connector-curvature="0"
     id="path1180"
     d="m 118.43477,87.986595 c 0,0 -10.50905,-1.445369 -15.78492,-1.97975 -8.38418,-0.849215 -16.78087,-1.770731 -25.20609,-1.947711 -6.55149,-0.137621 -13.12368,0.06453 -19.64669,0.690123 -4.91171,0.471059 -9.786995,1.320408 -14.62271,2.301534 -4.142424,0.840463 -12.304154,3.066318 -12.304154,3.066318"
     style="opacity:0.41499999;fill:none;stroke:#ff0000;stroke-width:15;stroke-linecap:butt;stroke-linejoin:miter;stroke-miterlimit:4;stroke-dasharray:none;stroke-opacity:1" />
  <path
     style="opacity:0.46700003;fill:none;stroke:#ff007f;stroke-width:15;stroke-linecap:butt;stroke-linejoin:miter;stroke-miterlimit:4;stroke-dasharray:none;stroke-opacity:1"
     d="m 212.12572,87.478664 c 0,0 -15.05639,-2.701743 -22.67266,-4.035603 -7.03771,-1.232534 -12.79233,-1.820832 -19.18576,-2.750227 -8.48088,-1.232843 -16.95043,-2.54361 -25.43527,-3.748863 -8.18035,-1.162 -24.55894,-3.357579 -24.55894,-3.357579"
     id="path1182"
     inkscape:connector-curvature="0"
     sodipodi:nodetypes="csaac" />
  <path
     style="opacity:0.43000004;fill:none;stroke:#7f00ff;stroke-width:15;stroke-linecap:butt;stroke-linejoin:miter;stroke-miterlimit:4;stroke-dasharray:none;stroke-opacity:1"
     d="m 253.74445,113.08599 c 0,0 -4.25411,-1.17894 -6.38115,-1.76847 -2.84654,-0.78894 -5.6763,-1.64114 -8.53958,-2.36697 -5.26255,-1.33403 -10.58316,-2.42755 -15.87231,-3.65186 -4.97182,-1.15086 -9.91422,-2.43453 -14.91085,-3.47239 -6.3024,-1.30908 -12.64269,-2.438304 -18.99601,-3.472391 -4.27669,-0.696088 -8.57933,-1.222203 -12.86827,-1.838324 -3.32349,-0.477431 -6.64461,-0.971451 -9.96936,-1.440072 -4.5761,-0.644997 -9.16014,-1.233114 -13.73485,-1.887885 -4.90276,-0.701723 -9.80008,-1.441203 -14.69633,-2.187014 -6.4504,-0.982544 -19.34097,-3.014019 -19.34097,-3.014019"
     id="path1184"
     inkscape:connector-curvature="0"
     sodipodi:nodetypes="caaaaaaaaac" />
  <path
     style="opacity:0.51499999;fill:none;stroke:#00ff7f;stroke-width:15;stroke-linecap:butt;stroke-linejoin:miter;stroke-miterlimit:4;stroke-dasharray:none;stroke-opacity:1"
     d="m 258.27782,99.076027 c 0,0 -7.79253,-2.263715 -11.71405,-3.303253 -5.6778,-1.505102 -11.39173,-2.871301 -17.1023,-4.246858 -5.76897,-1.389625 -17.33575,-4.047252 -17.33575,-4.047252"
     id="path1186"
     inkscape:connector-curvature="0"
     sodipodi:nodetypes="caac" />
  <path
     style="opacity:0.49300005;fill:none;stroke:#ff007f;stroke-width:15;stroke-linecap:butt;stroke-linejoin:miter;stroke-miterlimit:4;stroke-dasharray:none;stroke-opacity:1"
     d="m 306.28875,112.24347 c 0,0 -17.46087,-4.62185 -26.16889,-7.01533 -7.29349,-2.00468 -21.84204,-6.152113 -21.84204,-6.152113"
     id="path1188"
     inkscape:connector-curvature="0"
     sodipodi:nodetypes="cac" />
  <path
     style="opacity:0.67299996;fill:none;stroke:#ff7f00;stroke-width:15;stroke-linecap:butt;stroke-linejoin:miter;stroke-miterlimit:4;stroke-dasharray:none;stroke-opacity:1"
     d="m 515.17303,169.14088 c 0,0 -10.24824,-1.39357 -15.31013,-2.43232 -22.96939,-4.71357 -45.53998,-11.20657 -68.20493,-17.21576 -16.31018,-4.32434 -32.56104,-8.8742 -48.7724,-13.55538 -10.2665,-2.96455 -20.4975,-6.05251 -30.70882,-9.20188 -9.27814,-2.86157 -18.50494,-5.88707 -27.7646,-8.80789 -6.03802,-1.90461 -18.1234,-5.68418 -18.1234,-5.68418"
     id="path1190"
     inkscape:connector-curvature="0"
     sodipodi:nodetypes="caaaaac" />
  <path
     style="opacity:0.44900004;fill:none;stroke:#007fff;stroke-width:15;stroke-linecap:butt;stroke-linejoin:miter;stroke-miterlimit:4;stroke-dasharray:none;stroke-opacity:1"
     d="m 301.98929,126.56974 c 0,0 -16.12334,-4.52073 -24.18689,-6.77436 -8.01807,-2.24092 -24.05795,-6.70939 -24.05795,-6.70939"
     id="path1192"
     inkscape:connector-curvature="0"
     sodipodi:nodetypes="cac" />
  <path
     style="fill:none;stroke:#00ff00;stroke-width:16;stroke-linecap:butt;stroke-linejoin:miter;stroke-miterlimit:4;stroke-dasharray:none;stroke-opacity:1"
     d="m 308.98121,40.337038 c 0,0 19.63162,4.574635 29.4642,6.788321 9.18531,2.067961 18.41755,3.927167 27.58658,6.066158 11.15534,2.602366 33.36387,8.232644 33.36387,8.232644"
     id="path1214"
     inkscape:connector-curvature="0"
     sodipodi:nodetypes="caac" />
  <path
     style="fill:none;stroke:#ff7f00;stroke-width:16;stroke-linecap:butt;stroke-linejoin:miter;stroke-miterlimit:4;stroke-dasharray:none;stroke-opacity:1"
     d="m 314.18078,52.613788 c 0,0 16.96261,4.953833 25.42009,7.510482 12.638,3.820395 25.16139,8.020038 37.84128,11.699021 6.18024,1.793156 18.63177,5.055132 18.63177,5.055132"
     id="path1216"
     inkscape:connector-curvature="0"
     sodipodi:nodetypes="caac" />
  <path
     style="fill:none;stroke:#0000ff;stroke-width:18;stroke-linecap:butt;stroke-linejoin:miter;stroke-opacity:1;stroke-miterlimit:4;stroke-dasharray:none;opacity:0.426"
     d="M -11.51417,116.59732 -364.55142,68.161926"
     id="path2482"
     inkscape:connector-curvature="0" />
  <path
     style="opacity:0.65399996;fill:none;stroke:#7f00ff;stroke-width:16;stroke-linecap:butt;stroke-linejoin:miter;stroke-miterlimit:4;stroke-dasharray:none;stroke-opacity:1"
     d="M -13.88597,133.38419 -366.96637,84.844627"
     id="path2556"
     inkscape:connector-curvature="0"
     sodipodi:nodetypes="cc" />
  <path
     style="opacity:0.53299997;fill:none;stroke:#ff007f;stroke-width:16;stroke-linecap:butt;stroke-linejoin:miter;stroke-miterlimit:4;stroke-dasharray:none;stroke-opacity:1"
     d="M -57.42142,93.1848 -303.23441,59.450218"
     id="path2558"
     inkscape:connector-curvature="0"
     sodipodi:nodetypes="cc" />
  <path
     style="opacity:0.38600003;fill:none;stroke:#0000ff;stroke-width:16;stroke-linecap:butt;stroke-linejoin:miter;stroke-miterlimit:4;stroke-dasharray:none;stroke-opacity:1"
     d="m -303.23441,59.450218 -58.98557,-8.103461"
     id="path2560"
     inkscape:connector-curvature="0"
     sodipodi:nodetypes="cc" />
  <path
     style="opacity:0.40100002;fill:none;stroke:#ff7f00;stroke-width:15;stroke-linecap:butt;stroke-linejoin:miter;stroke-miterlimit:4;stroke-dasharray:none;stroke-opacity:1"
     d="m 26.78315,75.663919 c 0,0 -15.84073,3.857073 -23.8488422,5.35994 -11.1998616,2.101857 -22.5600618,3.246439 -33.8025358,5.106944 -8.638314,1.429545 -17.112784,4.115504 -25.852107,4.652433 -7.626382,0.468553 -15.27981,-0.554428 -22.887201,-1.267758 -9.925982,-0.930739 -29.649744,-3.926222 -29.649744,-3.926222"
     id="path2562"
     inkscape:connector-curvature="0"
     sodipodi:nodetypes="caaaac" />
  <path
     style="opacity:0.42600002;fill:none;stroke:#00ff00;stroke-width:15;stroke-linecap:butt;stroke-linejoin:miter;stroke-miterlimit:4;stroke-dasharray:none;stroke-opacity:1"
     d="m 30.870206,90.117109 c 0,0 -12.146132,2.903282 -18.265383,4.139391 -7.8825532,1.592301 -15.7918598,3.086872 -23.753543,4.218977 -5.021786,0.714069 -10.059328,1.506486 -15.130341,1.620763 -6.833699,0.154 -20.467345,-1.263415 -20.467345,-1.263415"
     id="path2564"
     inkscape:connector-curvature="0"
     sodipodi:nodetypes="caaac" />
  <path
     style="opacity:0.23500001;fill:none;stroke:#00ff00;stroke-width:15;stroke-linecap:butt;stroke-linejoin:miter;stroke-miterlimit:4;stroke-dasharray:none;stroke-opacity:1"
     d="m 389.26228,153.07076 c 0,0 -35.0779,-10.49085 -52.59106,-15.82151 -11.57213,-3.52233 -34.68193,-10.67951 -34.68193,-10.67951"
     id="path2587"
     inkscape:connector-curvature="0"
     sodipodi:nodetypes="cac" />
  <path
     style="display:none;opacity:0.28999999;fill:none;stroke:#00ff00;stroke-width:25;stroke-linecap:butt;stroke-linejoin:miter;stroke-miterlimit:4;stroke-dasharray:none;stroke-opacity:1"
     d="M 293.62609,124.78649 257.9172,114.79861"
     id="path2589"
     inkscape:connector-curvature="0" />
  <image
     sodipodi:absref="carmen_lcad/data/road_mapper_remission_350px/voltadaufes/i7757120_-364070.png"
     xlink:href="carmen_lcad/data/road_mapper_remission_350px/voltadaufes/i7757120_-364070.png"
     width="350"
     height="350"
     preserveAspectRatio="none"
     id="image2704"
     x="350"
     y="-350" />
  <path
     style="opacity:0.53299997;fill:none;stroke:#0000ff;stroke-width:18;stroke-linecap:butt;stroke-linejoin:miter;stroke-miterlimit:4;stroke-dasharray:none;stroke-opacity:1"
     d="m 1070.3333,259.66667 c -59.1666,-8.34004 -119.04776,-15.5195 -178.56343,-23.34202 -47.32635,-6.2204 -94.63512,-12.57428 -141.96588,-18.76103 -28.53128,-3.72942 -58.35805,-7.74052 -85.60959,-11.06719"
     id="path4600-3"
     inkscape:connector-curvature="0"
     sodipodi:nodetypes="caac" />
  <path
     style="opacity:0.53299997;fill:none;stroke:#ff007f;stroke-width:16;stroke-linecap:butt;stroke-linejoin:miter;stroke-miterlimit:4;stroke-dasharray:none;stroke-opacity:1"
     d="M 1072.9409,242.99234 C 1015.8945,234.75521 957.27616,227.8212 899.43827,220.27779 821.74288,210.14449 739.5814,199.1691 666.33736,189.99117"
     id="path4602-5"
     inkscape:connector-curvature="0"
     sodipodi:nodetypes="cac" />
  <path
     style="opacity:0.53299997;fill:none;stroke:#7f00ff;stroke-width:16;stroke-linecap:butt;stroke-linejoin:miter;stroke-miterlimit:4;stroke-dasharray:none;stroke-opacity:1"
     d="m 1068.6878,276.05761 c 0,0 -123.9356,-16.10903 -185.90341,-24.16354 -68.30189,-8.87782 -220.71126,-28.6598 -220.71126,-28.6598"
     id="path4604-6"
     inkscape:connector-curvature="0"
     sodipodi:nodetypes="csc" />
  <path
     style="opacity:1;fill:none;stroke:#7fff00;stroke-width:16;stroke-linecap:butt;stroke-linejoin:miter;stroke-miterlimit:4;stroke-dasharray:none;stroke-opacity:1"
     d="m 910.33154,94.6381 c 0,0 -16.17224,-2.30224 -24.25502,-3.47649 -14.22241,-2.06619 -28.50778,-3.75155 -42.65533,-6.27995 -8.1503,-1.45659 -16.19711,-3.44275 -24.30537,-5.11759 -9.89485,-2.04388 -19.81757,-3.95189 -29.70781,-6.01798 -14.21945,-2.97046 -28.45922,-5.86012 -42.60346,-9.17025 -16.18192,-3.787 -32.19846,-8.25069 -48.33489,-12.22701 -11.79539,-2.9066 -23.55871,-5.96523 -35.43921,-8.50159 -15.04863,-3.21272 -45.37365,-8.50159 -45.37365,-8.50159"
     id="path1144-2"
     inkscape:connector-curvature="0"
     sodipodi:nodetypes="caaaaaaac" />
  <path
     style="opacity:1;fill:none;stroke:#ff7f00;stroke-width:16;stroke-linecap:butt;stroke-linejoin:miter;stroke-miterlimit:4;stroke-dasharray:none;stroke-opacity:1"
     d="m 805.32288,63.74301 c 0,0 -21.3699,-4.98336 -32.01647,-7.63262 C 761.20806,53.09988 749.13806,49.97269 737.10212,46.7216 724.88757,43.42226 712.7865,39.70991 700.56011,36.45471 695.15965,35.01687 689.73149,33.6841 684.30118,32.36343 679.28335,31.14309 674.27242,29.8859 669.21909,28.82209 652.99285,25.4062 620.3163,19.70348 620.3163,19.70348"
     id="path1146-9"
     inkscape:connector-curvature="0"
     sodipodi:nodetypes="caaaaac" />
  <path
     style="opacity:1;fill:none;stroke:#7fff00;stroke-width:16;stroke-linecap:butt;stroke-linejoin:miter;stroke-miterlimit:4;stroke-dasharray:none;stroke-opacity:1"
     d="m 615.17318,90.74927 c 0,0 34.13283,0.68901 51.20059,0.95524 14.65543,0.2286 29.31439,0.23499 43.9682,0.55137 9.68778,0.20916 19.37212,0.5587 29.05649,0.89039 7.50463,0.25703 15.01514,0.4071 22.51097,0.85221 13.8481,0.8223 27.65734,2.20434 41.48176,3.3583 10.80455,0.90188 21.63245,1.57617 32.4068,2.78657 11.17833,1.25578 20.45623,2.98341 33.42527,4.64109 12.88772,1.64729 38.60109,5.40526 38.60109,5.40526"
     id="path1148-1"
     inkscape:connector-curvature="0"
     sodipodi:nodetypes="caaaaaasc" />
  <path
     style="opacity:1;fill:none;stroke:#ff7f00;stroke-width:16;stroke-linecap:butt;stroke-linejoin:miter;stroke-miterlimit:4;stroke-dasharray:none;stroke-opacity:1"
     d="m 614.79109,106.60617 c 0,0 24.38803,0.69853 36.5855,0.85971 10.85693,0.14347 21.71684,-0.0674 32.5735,0.0955 15.28764,0.2294 30.56859,0.78987 45.85127,1.2418 10.42878,0.3084 20.85321,0.7698 31.28394,1.003 12.57512,0.28115 25.1577,0.15302 37.73178,0.47762 10.62355,0.27425 21.23818,0.82457 31.85708,1.24181 9.64799,0.37909 19.319,0.37544 28.94361,1.14628 9.12756,0.73103 18.17868,2.219 27.27196,3.29556 6.58926,0.7801 19.77336,2.29257 19.77336,2.29257"
     id="path1150-2"
     inkscape:connector-curvature="0"
     sodipodi:nodetypes="caaaaaaaac" />
  <path
     style="opacity:1;fill:none;stroke:#007fff;stroke-width:16;stroke-linecap:butt;stroke-linejoin:miter;stroke-miterlimit:4;stroke-dasharray:none;stroke-opacity:1"
     d="m 910.96373,89.74795 c 0,0 -38.10062,-8.75339 -57.07578,-13.44151 C 837.6548,72.29577 805.32288,63.74301 805.32288,63.74301"
     id="path1152-7"
     inkscape:connector-curvature="0"
     sodipodi:nodetypes="cac" />
  <path
     style="opacity:0.42300002;fill:none;stroke:#ff0000;stroke-width:18;stroke-linecap:butt;stroke-linejoin:miter;stroke-miterlimit:4;stroke-dasharray:none;stroke-opacity:1"
     d="m 664.1944,206.49643 -77.38057,-9.55408"
     id="path1154-0"
     inkscape:connector-curvature="0" />
  <path
     style="fill:none;stroke:#ff0000;stroke-width:16;stroke-linecap:butt;stroke-linejoin:miter;stroke-miterlimit:4;stroke-dasharray:none;stroke-opacity:1"
     d="M 666.33736,189.99117 588.84019,180.3262"
     id="path1156-9"
     inkscape:connector-curvature="0"
     sodipodi:nodetypes="cc" />
  <path
     style="fill:none;stroke:#ff0000;stroke-width:16;stroke-linecap:butt;stroke-linejoin:miter;stroke-miterlimit:4;stroke-dasharray:none;stroke-opacity:1"
     d="M 662.07313,223.23427 584.65238,212.74795"
     id="path1158-3"
     inkscape:connector-curvature="0"
     sodipodi:nodetypes="cc" />
  <path
     style="opacity:0.44500002;fill:none;stroke:#00ff00;stroke-width:18;stroke-linecap:butt;stroke-linejoin:miter;stroke-miterlimit:4;stroke-dasharray:none;stroke-opacity:1"
     d="M 586.81383,196.94235 368.99182,166.09931"
     id="path1160-6"
     inkscape:connector-curvature="0"
     sodipodi:nodetypes="cc" />
  <path
     style="fill:none;stroke:#00ff00;stroke-width:16;stroke-linecap:butt;stroke-linejoin:miter;stroke-miterlimit:4;stroke-dasharray:none;stroke-opacity:1"
     d="M 588.84019,180.3262 371.08712,149.38346"
     id="path1164-6"
     inkscape:connector-curvature="0"
     sodipodi:nodetypes="cc" />
  <path
     style="opacity:0.54000005;fill:none;stroke:#00ff7f;stroke-width:16;stroke-linecap:butt;stroke-linejoin:miter;stroke-miterlimit:4;stroke-dasharray:none;stroke-opacity:1"
     d="M 371.08712,149.38346 251.00699,134.10935"
     id="path1166-2"
     inkscape:connector-curvature="0"
     sodipodi:nodetypes="cc" />
  <path
     style="opacity:0.41499999;fill:none;stroke:#7fff00;stroke-width:16;stroke-linecap:butt;stroke-linejoin:miter;stroke-miterlimit:4;stroke-dasharray:none;stroke-opacity:1"
     d="m 584.65238,212.74795 -80.17985,-11.0552"
     id="path1172-8"
     inkscape:connector-curvature="0"
     sodipodi:nodetypes="cc" />
  <path
     style="opacity:0.62099998;fill:none;stroke:#00ff00;stroke-width:16;stroke-linecap:butt;stroke-linejoin:miter;stroke-miterlimit:4;stroke-dasharray:none;stroke-opacity:1"
     d="M 504.47253,201.69275 347.34464,180.26144"
     id="path1174-7"
     inkscape:connector-curvature="0"
     sodipodi:nodetypes="cc" />
  <path
     style="opacity:0.67299996;fill:none;stroke:#ff7f00;stroke-width:15;stroke-linecap:butt;stroke-linejoin:miter;stroke-miterlimit:4;stroke-dasharray:none;stroke-opacity:1"
     d="m 515.17303,169.14088 c 0,0 -10.24824,-1.39357 -15.31013,-2.43232 -22.96939,-4.71357 -45.53998,-11.20657 -68.20493,-17.21576 -16.31018,-4.32434 -32.56104,-8.8742 -48.7724,-13.55538 -10.2665,-2.96455 -20.4975,-6.05251 -30.70882,-9.20188 -9.27814,-2.86157 -18.50494,-5.88707 -27.7646,-8.80789 -6.03802,-1.90461 -18.1234,-5.68418 -18.1234,-5.68418"
     id="path1190-9"
     inkscape:connector-curvature="0"
     sodipodi:nodetypes="caaaaac" />
  <path
     style="opacity:0.44900004;fill:none;stroke:#00ff00;stroke-width:15;stroke-linecap:butt;stroke-linejoin:miter;stroke-miterlimit:4;stroke-dasharray:none;stroke-opacity:1"
     d="m 447.23929,160.81974 c 0,0 -17.23256,-2.38842 -25.83353,-3.68691 -12.9684,-1.95784 -26.06592,-3.28692 -38.85649,-6.18757 -14.44895,-3.27674 -28.42536,-8.3692 -42.61562,-12.62897 -11.20413,-3.36336 -22.37276,-6.84423 -33.57657,-10.20865 -10.21695,-3.06807 -20.39467,-6.2768 -30.68228,-9.09887 -7.04273,-1.93195 -21.24285,-5.36028 -21.24285,-5.36028"
     id="path1192-2"
     inkscape:connector-curvature="0"
     sodipodi:nodetypes="caaaaac" />
  <path
     style="fill:none;stroke:#00ff00;stroke-width:16;stroke-linecap:butt;stroke-linejoin:miter;stroke-miterlimit:4;stroke-dasharray:none;stroke-opacity:1"
     d="m 540.33738,83.95144 c 26.41486,2.40862 51.61703,4.89135 74.8358,6.79783"
     id="path1194-2"
     inkscape:connector-curvature="0"
     sodipodi:nodetypes="cc" />
  <path
     style="fill:none;stroke:#007fff;stroke-width:16;stroke-linecap:butt;stroke-linejoin:miter;stroke-miterlimit:4;stroke-dasharray:none;stroke-opacity:1"
     d="m 539.04096,99.68159 c 24.77575,1.8687 50.95742,5.03326 75.75013,6.92458"
     id="path1196-8"
     inkscape:connector-curvature="0"
     sodipodi:nodetypes="cc" />
  <path
     style="fill:none;stroke:#00ff00;stroke-width:16;stroke-linecap:butt;stroke-linejoin:miter;stroke-miterlimit:4;stroke-dasharray:none;stroke-opacity:1"
     d="M 617.6568,35.34565 C 595.79674,32.76323 574.22047,31.59977 552.62413,30.33593"
     id="path1198-9"
     inkscape:connector-curvature="0"
     sodipodi:nodetypes="cc" />
  <path
     style="fill:none;stroke:#ff7f00;stroke-width:16;stroke-linecap:butt;stroke-linejoin:miter;stroke-miterlimit:4;stroke-dasharray:none;stroke-opacity:1"
     d="M 620.3163,19.70348 C 597.89596,17.41487 575.01875,15.28759 553.13477,14.60805"
     id="path1200-7"
     inkscape:connector-curvature="0"
     sodipodi:nodetypes="cc" />
  <path
     style="fill:none;stroke:#7fff00;stroke-width:16;stroke-linecap:butt;stroke-linejoin:miter;stroke-miterlimit:4;stroke-dasharray:none;stroke-opacity:1"
     d="m 552.62413,30.33593 c 0,0 -21.65317,-0.19358 -32.48007,-0.22904 -16.47574,-0.054 -32.95206,0.14209 -49.42747,0.0248 -18.07835,-0.12872 -54.23055,-0.79951 -54.23055,-0.79951"
     id="path1202-3"
     inkscape:connector-curvature="0"
     sodipodi:nodetypes="caac" />
  <path
     style="fill:none;stroke:#ff7f00;stroke-width:16;stroke-linecap:butt;stroke-linejoin:miter;stroke-miterlimit:4;stroke-dasharray:none;stroke-opacity:1"
     d="m 553.13477,14.60805 c 0,0 -19.03653,-0.23991 -28.55535,-0.26158 -14.77553,-0.0336 -29.55067,0.22172 -44.32622,0.20426 -10.11292,-0.012 -20.22667,-0.0344 -30.33805,-0.21152 -10.92066,-0.19127 -32.75411,-0.91916 -32.75411,-0.91916"
     id="path1204-6"
     inkscape:connector-curvature="0"
     sodipodi:nodetypes="caaac" />
  <path
     style="fill:none;stroke:#7fff00;stroke-width:16;stroke-linecap:butt;stroke-linejoin:miter;stroke-miterlimit:4;stroke-dasharray:none;stroke-opacity:1"
     d="m 399.39586,61.42416 c 0,0 24.2003,6.24471 36.39696,8.95481 13.75184,3.05566 27.50914,6.2215 41.45208,8.23264 12.96982,1.87078 26.09197,2.47092 39.15143,3.55098 7.97537,0.6596 23.94105,1.78885 23.94105,1.78885"
     id="path1210-9"
     inkscape:connector-curvature="0"
     sodipodi:nodetypes="caaac" />
  <path
     style="fill:none;stroke:#ff7f00;stroke-width:16;stroke-linecap:butt;stroke-linejoin:miter;stroke-miterlimit:4;stroke-dasharray:none;stroke-opacity:1"
     d="m 396.07392,76.87842 c 0,0 16.17983,3.64397 24.26463,5.48843 10.8852,2.48334 21.69451,5.31664 32.64172,7.51049 10.91918,2.18823 21.88043,4.25036 32.93057,5.63286 10.78901,1.34982 21.67625,1.7436 32.5163,2.59102 6.87048,0.53709 20.61382,1.58037 20.61382,1.58037"
     id="path1212-3"
     inkscape:connector-curvature="0"
     sodipodi:nodetypes="caaaac" />
  <path
     style="fill:none;stroke:#00ff00;stroke-width:16;stroke-linecap:butt;stroke-linejoin:miter;stroke-miterlimit:4;stroke-dasharray:none;stroke-opacity:1"
     d="m 308.98121,40.33704 c 0,0 19.63162,4.57463 29.4642,6.78832 9.18531,2.06796 18.41755,3.92717 27.58658,6.06616 11.15534,2.60236 33.36387,8.23264 33.36387,8.23264"
     id="path1214-1"
     inkscape:connector-curvature="0"
     sodipodi:nodetypes="caac" />
  <path
     style="fill:none;stroke:#ff7f00;stroke-width:16;stroke-linecap:butt;stroke-linejoin:miter;stroke-miterlimit:4;stroke-dasharray:none;stroke-opacity:1"
     d="m 314.18078,52.61379 c 0,0 16.96261,4.95383 25.42009,7.51048 12.638,3.8204 25.16139,8.02004 37.84128,11.69902 6.18024,1.79316 18.63177,5.05513 18.63177,5.05513"
     id="path1216-9"
     inkscape:connector-curvature="0"
     sodipodi:nodetypes="caac" />
  <path
     style="opacity:0.57700004;fill:none;stroke:#7fff00;stroke-width:16;stroke-linecap:butt;stroke-linejoin:miter;stroke-miterlimit:4;stroke-dasharray:none;stroke-opacity:1"
     d="m 540.36863,83.54519 c 0,0 5.86739,1.03011 8.78311,0.68139 3.26977,-0.39107 6.48711,-1.51357 9.39162,-3.0654 2.84954,-1.52247 5.50367,-3.54789 7.62163,-5.98757 2.08975,-2.40718 3.68059,-5.28806 4.79281,-8.27546 0.92769,-2.49174 1.3059,-5.18368 1.48963,-7.83615 0.17373,-2.508 0.18891,-5.08248 -0.37346,-7.53278 -0.67645,-2.94732 -1.95735,-5.77723 -3.54674,-8.3498 -1.60113,-2.59159 -3.51604,-5.0927 -5.92348,-6.9593 -2.92442,-2.26742 -6.4209,-3.84856 -9.97963,-4.8629 -3.14006,-0.89501 -9.74456,-0.99651 -9.74456,-0.99651"
     id="path1218-4"
     inkscape:connector-curvature="0"
     sodipodi:nodetypes="caaaaaaaaac" />
  <path
     style="opacity:0.72100004;fill:none;stroke:#00ff00;stroke-width:18;stroke-linecap:butt;stroke-linejoin:miter;stroke-miterlimit:4;stroke-dasharray:none;stroke-opacity:1"
     d="m 576.03663,90.1662 c 0,0 5.87549,-7.40646 8.08821,-11.55459 1.50645,-2.8241 2.64907,-5.86014 3.46638,-8.9548 1.00663,-3.81155 1.61427,-7.75858 1.73319,-11.69903 0.10058,-3.33296 -0.098,-6.72113 -0.8666,-9.96583 -0.99116,-4.18443 -2.44785,-8.36617 -4.76626,-11.98788 -1.46878,-2.29445 -5.63287,-5.92173 -5.63287,-5.92173"
     id="path1220-7"
     inkscape:connector-curvature="0"
     sodipodi:nodetypes="caaaaac" />
  <path
     style="opacity:0.55500034;fill:none;stroke:#ff7f00;stroke-width:19;stroke-linecap:butt;stroke-linejoin:miter;stroke-miterlimit:4;stroke-dasharray:none;stroke-opacity:1"
     d="m 596.25716,94.49917 c 0,0 5.36043,-10.11166 7.36605,-15.45426 1.44101,-3.83861 2.62032,-7.80376 3.32194,-11.84345 0.70201,-4.04193 0.92992,-8.17481 0.8666,-12.27675 -0.0441,-2.85482 -0.37361,-5.70924 -0.8666,-8.52151 -0.51818,-2.95596 -1.27616,-5.87418 -2.19012,-8.73265 -1.07922,-3.3753 -3.87604,-9.89913 -3.87604,-9.89913"
     id="path1222-8"
     inkscape:connector-curvature="0"
     sodipodi:nodetypes="caaaaac" />
  <path
     style="opacity:0.55500034;fill:none;stroke:#7fff00;stroke-width:16;stroke-linecap:butt;stroke-linejoin:miter;stroke-miterlimit:4;stroke-dasharray:none;stroke-opacity:1"
     d="m 416.48604,29.33216 c 0,0 -4.86977,0.0885 -7.26878,0.46132 -3.72682,0.57919 -7.7034,0.87093 -10.97686,2.74421 -3.22075,1.84312 -6.23846,4.57717 -7.79934,7.94378 -1.32189,2.85114 -1.58833,6.32943 -0.8666,9.3881 0.75477,3.19868 2.66363,6.28657 5.19957,8.37708 3.65666,3.01438 8.76333,3.64548 13.28778,5.05513 2.50835,0.78151 7.65491,1.87762 7.65491,1.87762"
     id="path1224-4"
     inkscape:connector-curvature="0"
     sodipodi:nodetypes="caaaaaac" />
  <path
     style="opacity:0.49300005;fill:none;stroke:#00ff00;stroke-width:18;stroke-linecap:butt;stroke-linejoin:miter;stroke-miterlimit:4;stroke-dasharray:none;stroke-opacity:1"
     d="m 386.25252,22.28299 c 0,0 -5.6446,3.29173 -7.65491,5.7773 -2.43809,3.01447 -4.14922,6.98518 -4.91071,10.54356 -0.78956,3.68958 -0.96973,4.88802 -1.01102,7.36605 -0.0468,2.80687 0.86659,8.37708 0.86659,8.37708"
     id="path1226-5"
     inkscape:connector-curvature="0"
     sodipodi:nodetypes="casac" />
  <path
     style="opacity:0.42857145;fill:none;stroke:#ff7f00;stroke-width:30;stroke-linecap:butt;stroke-linejoin:miter;stroke-miterlimit:4;stroke-dasharray:none;stroke-opacity:1"
     d="M 348.15559,33.90613 316.4642,47.15119"
     id="path2837"
     inkscape:connector-curvature="0"
     sodipodi:nodetypes="cc" />
  <path
     sodipodi:nodetypes="cc"
     inkscape:connector-curvature="0"
     id="path3382"
     d="M 360.03059,28.65613 328.3392,41.90119"
     style="opacity:0.11000001;fill:none;stroke:#00ff00;stroke-width:30;stroke-linecap:butt;stroke-linejoin:miter;stroke-miterlimit:4;stroke-dasharray:none;stroke-opacity:1" />
  <path
     style="opacity:0.35700001;fill:none;stroke:#ff0000;stroke-width:20;stroke-linecap:butt;stroke-linejoin:miter;stroke-miterlimit:4;stroke-dasharray:none;stroke-opacity:1"
     d="m 354,7.9999998 c 0,0 -30.28261,-5.639906 -45.5,-7.99999999934038 C 290.43327,-2.8020039 272.26656,-4.9167688 254.14124,-7.3106604 232.75723,-10.134942 189.9693,-15.631281 189.9693,-15.631281"
     id="path3965"
     inkscape:connector-curvature="0"
     sodipodi:nodetypes="caac" />
  <path
     style="opacity:0.272;fill:none;stroke:#ff0000;stroke-width:24;stroke-linecap:butt;stroke-linejoin:miter;stroke-miterlimit:4;stroke-dasharray:none;stroke-opacity:1"
     d="m 26.812184,-22.28033 c 0,0 -139.960964,-18.295222 -209.911214,-27.67031 -62.02559,-8.312986 -186.02229,-25.342253 -186.02229,-25.342253"
     id="path3967"
     inkscape:connector-curvature="0"
     sodipodi:nodetypes="cac" />
  <path
     style="fill:none;stroke:#7fff00;stroke-width:24;stroke-linecap:butt;stroke-linejoin:miter;stroke-miterlimit:4;stroke-dasharray:none;stroke-opacity:1"
     d="m 148.25,-18.125 c 0,0 -19.74547,0.898722 -29.625,1.125 -10.62254,0.243296 -21.254067,0.555533 -31.875,0.25 -11.478104,-0.330192 -22.945565,-1.143692 -34.375,-2.25 -8.550846,-0.827676 -25.562816,-3.28033 -25.562816,-3.28033"
     id="path3969"
     inkscape:connector-curvature="0"
     sodipodi:nodetypes="caaac" />
  <path
     style="opacity:0.30500004;fill:none;stroke:#ff7f00;stroke-width:20;stroke-linecap:butt;stroke-linejoin:miter;stroke-miterlimit:4;stroke-dasharray:none;stroke-opacity:1"
     d="m 189.9693,-15.631281 c 0,0 -15.71085,-1.957409 -23.55318,-3.034465 -6.58702,-0.904653 -19.73769,-2.878988 -19.73769,-2.878988"
     id="path3971"
     inkscape:connector-curvature="0"
     sodipodi:nodetypes="cac" />
  <path
     style="opacity:0.43399999;fill:none;stroke:#7fff00;stroke-width:18;stroke-linecap:butt;stroke-linejoin:miter;stroke-miterlimit:4;stroke-dasharray:none;stroke-opacity:1"
     d="M 188.64347,-15.012563 147.60854,-15.39743"
     id="path3973"
     inkscape:connector-curvature="0"
     sodipodi:nodetypes="cc" />
  <path
     style="opacity:0.46000001;fill:none;stroke:#ff0000;stroke-width:20;stroke-linecap:butt;stroke-linejoin:miter;stroke-miterlimit:4;stroke-dasharray:none;stroke-opacity:1"
     d="m -372.02027,-53.761652 c 0,0 175.69304,23.923953 263.54372,35.855339 71.276241,9.6803391 142.336931,21.1191519 213.83546,28.991378 14.19073,1.562447 28.46947,2.210191 42.67641,3.617641 13.10958,1.298737 26.2234,2.624248 39.26955,4.453427 13.98917,1.961399 27.92439,4.329186 41.79773,6.988961 9.97508,1.912406 29.78059,6.446068 29.78059,6.446068"
     id="path3975"
     inkscape:connector-curvature="0"
     sodipodi:nodetypes="caaaaac" />
  <path
     style="opacity:0.40400002;fill:none;stroke:#7fff00;stroke-width:20;stroke-linecap:butt;stroke-linejoin:miter;stroke-miterlimit:4;stroke-dasharray:none;stroke-opacity:1"
     d="M 258.88319,32.591162 309.00566,43.46921"
     id="path3977"
     inkscape:connector-curvature="0"
     sodipodi:nodetypes="cc" />
  <path
     style="opacity:0.13200001;fill:none;stroke:#00ff00;stroke-width:20;stroke-linecap:butt;stroke-linejoin:miter;stroke-miterlimit:4;stroke-dasharray:none;stroke-opacity:1"
     d="m 258.88319,32.591162 58.51937,18.921387"
     id="path3979"
     inkscape:connector-curvature="0"
     sodipodi:nodetypes="cc" />
  <path
     style="opacity:0.61799999;fill:none;stroke:#ff7f00;stroke-width:16;stroke-linecap:butt;stroke-linejoin:miter;stroke-miterlimit:4;stroke-dasharray:none;stroke-opacity:1"
     d="m -286.20147,62.73787 -72.832,-24.748737"
     id="path3981"
     inkscape:connector-curvature="0"
     sodipodi:nodetypes="cc" />
</svg>
