<?xml version="1.0" encoding="UTF-8" standalone="no"?>
<!-- Created with Inkscape (http://www.inkscape.org/) -->

<svg
   xmlns:dc="http://purl.org/dc/elements/1.1/"
   xmlns:cc="http://creativecommons.org/ns#"
   xmlns:rdf="http://www.w3.org/1999/02/22-rdf-syntax-ns#"
   xmlns:svg="http://www.w3.org/2000/svg"
   xmlns="http://www.w3.org/2000/svg"
   xmlns:xlink="http://www.w3.org/1999/xlink"
   xmlns:sodipodi="http://sodipodi.sourceforge.net/DTD/sodipodi-0.dtd"
   xmlns:inkscape="http://www.inkscape.org/namespaces/inkscape"
   version="1.1"
   id="svg7324"
   width="350"
   height="350"
   viewBox="0 0 350 350"
   sodipodi:docname="i7757470_-364140.svg"
   inkscape:version="0.92.2 (unknown)">
  <metadata
     id="metadata7330">
    <rdf:RDF>
      <cc:Work
         rdf:about="">
        <dc:format>image/svg+xml</dc:format>
        <dc:type
           rdf:resource="http://purl.org/dc/dcmitype/StillImage" />
        <dc:title />
      </cc:Work>
    </rdf:RDF>
  </metadata>
  <defs
     id="defs7328" />
  <sodipodi:namedview
     pagecolor="#ffffff"
     bordercolor="#666666"
     borderopacity="1"
     objecttolerance="10"
     gridtolerance="10"
     guidetolerance="10"
     inkscape:pageopacity="0"
     inkscape:pageshadow="2"
     inkscape:window-width="1855"
     inkscape:window-height="1056"
     id="namedview7326"
     showgrid="false"
     inkscape:zoom="1.3057143"
     inkscape:cx="51.903607"
     inkscape:cy="111.36402"
     inkscape:window-x="65"
     inkscape:window-y="24"
     inkscape:window-maximized="1"
     inkscape:current-layer="svg7324" />
  <image
     sodipodi:absref="carmen_lcad/data/road_mapper_remission_350px/voltadaufes/i7757470_-364140.png"
     xlink:href="carmen_lcad/data/road_mapper_remission_350px/voltadaufes/i7757470_-364140.png"
     y="0"
     x="0"
     id="image7332"
     preserveAspectRatio="none"
     height="350"
     width="350" />
  <path
     style="opacity:0.51499999;fill:none;stroke:#0000ff;stroke-width:14;stroke-linecap:butt;stroke-linejoin:miter;stroke-miterlimit:4;stroke-dasharray:none;stroke-opacity:1"
     d="m 219.32689,49.551648 c 9.11237,20.804299 11.76756,28.342375 20.17265,48.357822"
     id="path7476"
     inkscape:connector-curvature="0"
     sodipodi:nodetypes="cc" />
  <path
     style="opacity:0.46200005;fill:none;stroke:#ff007f;stroke-width:14;stroke-linecap:butt;stroke-linejoin:miter;stroke-miterlimit:4;stroke-dasharray:none;stroke-opacity:1"
     d="m 203.89277,56.320998 c 9.26222,22.156034 13.63322,31.875489 20.44344,48.763982"
     id="path7478"
     inkscape:connector-curvature="0"
     sodipodi:nodetypes="cc" />
  <path
     style="opacity:0.72899996;fill:none;stroke:#7f00ff;stroke-width:14;stroke-linecap:butt;stroke-linejoin:miter;stroke-miterlimit:4;stroke-dasharray:none;stroke-opacity:1"
     d="m 233.94868,42.782298 c 9.44097,20.884611 13.31668,30.502999 20.7142,48.899371"
     id="path7480"
     inkscape:connector-curvature="0"
     sodipodi:nodetypes="cc" />
  <path
     style="opacity:0.57300002;fill:none;stroke:#ff0000;stroke-width:15;stroke-linecap:butt;stroke-linejoin:miter;stroke-miterlimit:4;stroke-dasharray:none;stroke-opacity:1"
     d="m 254.66288,91.681669 c 4.74328,10.966341 16.72129,40.374801 24.25908,60.877341 10.57654,28.76782 29.39754,87.12544 29.39754,87.12544"
     id="path7482"
     inkscape:connector-curvature="0"
     sodipodi:nodetypes="cac" />
  <path
     style="opacity:0.62599996;fill:none;stroke:#ff0000;stroke-width:15;stroke-linecap:butt;stroke-linejoin:miter;stroke-miterlimit:4;stroke-dasharray:none;stroke-opacity:1"
     d="m 239.49954,97.90947 c 0,0 5.7841,13.85651 8.6405,20.7995 2.83177,6.88312 5.84605,13.69638 8.42451,20.67834 4.66382,12.62867 8.52768,25.53864 12.72967,38.3284 3.91423,11.91386 7.91296,23.80161 11.62735,35.77928 5.3948,17.39641 10.00778,35.03024 15.47824,52.40301 8.24179,26.1738 26.12335,78.06743 26.12335,78.06743"
     id="path7484"
     inkscape:connector-curvature="0"
     sodipodi:nodetypes="caaaaac" />
  <path
     style="fill:none;stroke:#ff0000;stroke-width:15;stroke-linecap:butt;stroke-linejoin:miter;stroke-miterlimit:4;stroke-dasharray:none;stroke-opacity:1;opacity:0.595"
     d="m 223.64965,102.12289 c 3.64797,9.76102 6.71545,18.54821 10.11119,27.80843 2.68243,7.31499 5.59632,14.54726 8.10728,21.92286 2.91579,8.56476 5.65186,17.19651 8.07442,25.91362 1.82349,6.56147 3.71844,13.13032 4.85799,19.84444 1.93297,11.38886 3.67371,19.10607 3.32744,34.49509"
     id="path7486"
     inkscape:connector-curvature="0"
     sodipodi:nodetypes="caaaac" />
  <image
     y="-350"
     x="0"
     id="image6701"
     preserveAspectRatio="none"
     height="350"
     width="350"
     xlink:href="/home/rcarneiro/carmen_lcad/data/road_mapper_remission_350px/voltadaufes/i7757470_-364070.png"
     sodipodi:absref="/home/rcarneiro/carmen_lcad/data/road_mapper_remission_350px/voltadaufes/i7757470_-364070.png" />
  <path
     style="opacity:0.70200004;fill:none;stroke:#ff0000;stroke-width:14;stroke-linecap:butt;stroke-linejoin:miter;stroke-miterlimit:4;stroke-dasharray:none;stroke-opacity:1"
     d="m 60.924134,-50.093152 c 0,0 29.38177,-3.87969 44.136146,-3.52008 8.46107,0.20623 17.0027,1.07408 25.18197,3.2493 10.28603,2.7355 20.28791,6.87844 29.51436,12.18483 7.0889,4.07702 13.84077,8.98527 19.49573,14.89256 5.02115,5.24521 8.68891,11.66333 12.4556,17.8710903 4.54454,7.48968 8.23518,15.4667997 12.18483,23.2865397 5.29592,10.48517 15.43412,31.68056 15.43412,31.68056"
     id="path6764-1"
     inkscape:connector-curvature="0"
     sodipodi:nodetypes="caaaaaac" />
  <path
     style="opacity:0.69499966;fill:none;stroke:#ff0000;stroke-width:14;stroke-linecap:butt;stroke-linejoin:miter;stroke-miterlimit:4;stroke-dasharray:none;stroke-opacity:1"
     d="m 21.391144,-43.053042 c 0,0 25.09509,-5.06756 37.77296,-6.76934 12.06544,-1.61957 24.23036,-4.1108 36.37464,-3.26572 11.154536,0.77622 22.426356,3.12165 32.672716,7.5981 9.43982,4.12409 17.87204,10.50456 25.58813,17.32953 5.65393,5.00097 10.4209,10.97758 14.89257,17.05876 5.52059,7.5076503 10.05633,15.7041703 14.62179,23.8281 3.97501,7.07327 7.64042,14.32359 11.10173,21.66192 3.39755,7.20315 9.47709,21.93269 9.47709,21.93269"
     id="path6766-2"
     inkscape:connector-curvature="0"
     sodipodi:nodetypes="caaaaaaac" />
  <path
     style="opacity:0.744;fill:none;stroke:#ff0000;stroke-width:14;stroke-linecap:butt;stroke-linejoin:miter;stroke-miterlimit:4;stroke-dasharray:none;stroke-opacity:1"
     d="m 141.28836,-126.40044 c 0,0 5.27,20.15129 9.26195,29.734165 3.2605,7.827003 7.44294,15.269933 11.91406,22.474233 5.21743,8.40684 11.54817,16.0694 17.32952,24.09888 5.59132,7.76556 11.36363,15.40348 16.78799,23.28656 3.91665,5.69196 7.87784,11.36917 11.3725,17.3295203 5.04343,8.60186005 9.37281,17.6059 13.80947,26.5358597 4.22151,8.49692 12.18483,25.72352 12.18483,25.72352"
     id="path6768-7"
     inkscape:connector-curvature="0"
     sodipodi:nodetypes="caaaaaac" />
  <path
     style="opacity:0.51099997;fill:none;stroke:#ff0000;stroke-width:16;stroke-linecap:butt;stroke-linejoin:miter;stroke-miterlimit:4;stroke-dasharray:none;stroke-opacity:1"
     d="m 258.70237,229.80974 c -0.43093,11.83835 -1.34665,21.12652 -3.12352,31.54118 -1.09279,6.40513 -2.66681,12.74044 -4.61958,18.93774 -2.14198,6.79775 -4.83844,13.42273 -7.75672,19.92513 -2.5363,5.6513 -5.5044,11.10179 -8.45687,16.54724 -3.63937,6.71232 -7.34195,13.40061 -11.40536,19.86504 -5.64969,8.98802 -8.80695,14.62179 -18.01326,26.26507"
     id="path10033"
     inkscape:connector-curvature="0"
     sodipodi:nodetypes="caaaaac" />
  <path
     style="opacity:0.531;fill:none;stroke:#ff0000;stroke-width:16;stroke-linecap:butt;stroke-linejoin:miter;stroke-miterlimit:4;stroke-dasharray:none;stroke-opacity:1"
     d="m 272.94012,187.53564 c 0,0 6.16345,20.35108 7.04012,30.86823 1.0364,12.43339 -0.0311,25.07434 -2.16619,37.3668 -2.18964,12.60625 -6.54735,24.76861 -10.83096,36.82526 -3.44888,9.70722 -7.20203,19.3581 -11.94126,28.50493 -8.7558,16.89887 -17.90218,29.56209 -30.29947,48.39486"
     id="path10690"
     inkscape:connector-curvature="0"
     sodipodi:nodetypes="caaaac" />
</svg>
