<?xml version="1.0" encoding="UTF-8" standalone="no"?>
<!-- Created with Inkscape (http://www.inkscape.org/) -->

<svg
   xmlns:dc="http://purl.org/dc/elements/1.1/"
   xmlns:cc="http://creativecommons.org/ns#"
   xmlns:rdf="http://www.w3.org/1999/02/22-rdf-syntax-ns#"
   xmlns:svg="http://www.w3.org/2000/svg"
   xmlns="http://www.w3.org/2000/svg"
   xmlns:xlink="http://www.w3.org/1999/xlink"
   xmlns:sodipodi="http://sodipodi.sourceforge.net/DTD/sodipodi-0.dtd"
   xmlns:inkscape="http://www.inkscape.org/namespaces/inkscape"
   version="1.1"
   id="svg5554"
   width="350"
   height="350"
   viewBox="0 0 350 350"
   sodipodi:docname="i7757890_-363790.svg"
   inkscape:version="0.92.2 (unknown)">
  <metadata
     id="metadata5560">
    <rdf:RDF>
      <cc:Work
         rdf:about="">
        <dc:format>image/svg+xml</dc:format>
        <dc:type
           rdf:resource="http://purl.org/dc/dcmitype/StillImage" />
        <dc:title />
      </cc:Work>
    </rdf:RDF>
  </metadata>
  <defs
     id="defs5558" />
  <sodipodi:namedview
     pagecolor="#ffffff"
     bordercolor="#666666"
     borderopacity="1"
     objecttolerance="10"
     gridtolerance="10"
     guidetolerance="10"
     inkscape:pageopacity="0"
     inkscape:pageshadow="2"
     inkscape:window-width="1855"
     inkscape:window-height="1056"
     id="namedview5556"
     showgrid="false"
     inkscape:zoom="0.53386562"
     inkscape:cx="-380.6322"
     inkscape:cy="437.74715"
     inkscape:window-x="65"
     inkscape:window-y="24"
     inkscape:window-maximized="1"
     inkscape:current-layer="svg5554" />
  <image
     sodipodi:absref="carmen_lcad/data/road_mapper_remission_350px/voltadaufes/i7757960_-363720.png"
     xlink:href="carmen_lcad/data/road_mapper_remission_350px/voltadaufes/i7757960_-363720.png"
     y="-350"
     x="350"
     id="image5472"
     preserveAspectRatio="none"
     height="350"
     width="350" />
  <image
     sodipodi:absref="carmen_lcad/data/road_mapper_remission_350px/voltadaufes/i7757890_-363790.png"
     xlink:href="carmen_lcad/data/road_mapper_remission_350px/voltadaufes/i7757890_-363790.png"
     width="350"
     height="350"
     preserveAspectRatio="none"
     id="image5562"
     x="0"
     y="0" />
  <image
     sodipodi:absref="carmen_lcad/data/road_mapper_remission_350px/voltadaufes/i7757820_-363860.png"
     xlink:href="carmen_lcad/data/road_mapper_remission_350px/voltadaufes/i7757820_-363860.png"
     width="350"
     height="350"
     preserveAspectRatio="none"
     id="image5832"
     x="-350"
     y="350" />
  <image
     sodipodi:absref="carmen_lcad/data/road_mapper_remission_350px/voltadaufes/i7757820_-363790.png"
     xlink:href="carmen_lcad/data/road_mapper_remission_350px/voltadaufes/i7757820_-363790.png"
     width="350"
     height="350"
     preserveAspectRatio="none"
     id="image5652"
     x="-350"
     y="0" />
  <image
     sodipodi:absref="carmen_lcad/data/road_mapper_remission_350px/voltadaufes/i7757750_-363860.png"
     xlink:href="carmen_lcad/data/road_mapper_remission_350px/voltadaufes/i7757750_-363860.png"
     width="350"
     height="350"
     preserveAspectRatio="none"
     id="image5742"
     x="-700"
     y="350" />
  <image
     sodipodi:absref="carmen_lcad/data/road_mapper_remission_350px/voltadaufes/i7757890_-363720.png"
     xlink:href="carmen_lcad/data/road_mapper_remission_350px/voltadaufes/i7757890_-363720.png"
     width="350"
     height="350"
     preserveAspectRatio="none"
     id="image5290"
     x="0"
     y="-350" />
  <image
     sodipodi:absref="/home/rcarneiro/carmen_lcad/data/road_mapper_remission_350px/voltadaufes/i7757750_-363790.png"
     y="0"
     x="-700"
     id="image5768"
     xlink:href="file:///home/rcarneiro/carmen_lcad/data/road_mapper_remission_350px/voltadaufes/i7757750_-363790.png"
     preserveAspectRatio="none"
     height="350"
     width="350" />
  <path
     style="opacity:0.344;fill:none;stroke:#7fff00;stroke-width:25;stroke-linecap:butt;stroke-linejoin:miter;stroke-miterlimit:4;stroke-dasharray:none;stroke-dashoffset:0;stroke-opacity:1"
     d="m 29.504242,73.705467 c -52.6411,40.800303 -97.6826,74.617353 -146.371602,112.124323 -27.8255,21.43499 -55.3914,43.20669 -83.3017,64.53114 -28.195,21.54202 -56.8199,42.51751 -85.0148,64.05971 -34.0057,25.98192 -60.5556,46.86173 -101.4937,78.626"
     id="path5549"
     inkscape:connector-curvature="0"
     sodipodi:nodetypes="caaac" />
  <path
     style="opacity:0.49599998;fill:none;stroke:#7fff00;stroke-width:25;stroke-linecap:butt;stroke-linejoin:miter;stroke-miterlimit:4;stroke-dasharray:none;stroke-dashoffset:0;stroke-opacity:1"
     d="m -371.59116,413.21767 c 54.552,-43.68244 80.7894,-63.37166 121.5346,-94.60363 22.1361,-16.9677 44.5953,-33.51033 66.7855,-50.40714 30.6051,-23.30428 60.9965,-46.8878 91.517302,-70.3023 45.4164,-34.84185 93.5010002,-71.41558 136.3162,-104.438033"
     id="path5551"
     inkscape:connector-curvature="0"
     sodipodi:nodetypes="caaac" />
  <image
     sodipodi:absref="carmen_lcad/data/road_mapper_remission_350px/voltadaufes/i7757960_-363650.png"
     xlink:href="carmen_lcad/data/road_mapper_remission_350px/voltadaufes/i7757960_-363650.png"
     y="-700"
     x="350"
     id="image5382"
     preserveAspectRatio="none"
     height="350"
     width="350" />
  <image
     sodipodi:absref="carmen_lcad/data/road_mapper_remission_350px/voltadaufes/i7757890_-363650.png"
     xlink:href="carmen_lcad/data/road_mapper_remission_350px/voltadaufes/i7757890_-363650.png"
     y="-700"
     x="0"
     id="image5200"
     preserveAspectRatio="none"
     height="350"
     width="350" />
  <path
     style="opacity:0.47700004;fill:none;stroke:#7fff00;stroke-width:25;stroke-linecap:butt;stroke-linejoin:miter;stroke-miterlimit:4;stroke-dasharray:none;stroke-opacity:1"
     d="m 368.78554,-281.66288 c 0,0 2.3705,29.52843 0.3013,44.0735 -1.5909,11.18323 -5.6179,21.93467 -9.6725,32.47772 -2.1219,5.51773 -4.6883,10.88215 -7.6313,16.00925 -3.9297,6.84613 -8.2918,13.495 -13.3196,19.58049 -6.3745,7.7155 -13.7058,14.62685 -21.1939,21.26708 -11.2674,9.99172 -23.6995,18.58743 -35.5851,27.83529 -10.8768,8.46302 -21.7744,16.89943 -32.6958,25.304937 -11.7337,9.03075 -23.5645,17.93516 -35.2741,26.9971 -12.6428,9.78417 -25.0981,19.80964 -37.7706,29.5554 -25.3005,19.45738 -51.0643,38.30691003 -76.388998,57.73287 -23.4797,18.01072 -70.0507,54.53471 -70.0507,54.53471"
     id="path5324-7"
     inkscape:connector-curvature="0"
     sodipodi:nodetypes="caaaaaaaaaac" />
  <path
     style="opacity:0.40800003;fill:none;stroke:#7fff00;stroke-width:25;stroke-linecap:butt;stroke-linejoin:miter;stroke-miterlimit:4;stroke-dasharray:none;stroke-opacity:1"
     d="m 44.562442,93.466567 c 0,0 70.675598,-55.05517 106.220298,-82.31438 21.5295,-16.51099 43.2989,-32.70753 64.8375,-49.2066 13.5554,-10.38367 27.0106,-20.89744 40.5258,-31.33332 14.2803,-11.02663 28.682,-21.8971 42.8618,-33.052677 13.0798,-10.2902 26.7122,-19.95826 38.9381,-31.24965 8.071,-7.45413 15.8916,-15.29006 22.6044,-23.98739 6.3097,-8.17496 11.7267,-17.07139 16.4282,-26.26581 3.3214,-6.49526 5.8599,-13.3786 8.2486,-20.27162 3.1099,-8.97404 6.3484,-18.00643 7.8944,-27.37738 1.5681,-9.50471 1.2581,-19.23576 1.3366,-28.86862 0.063,-7.68345 -0.189,-13.6082 -0.6904,-23.04077"
     id="path5326-5"
     inkscape:connector-curvature="0"
     sodipodi:nodetypes="caaaaaaaaaac" />
</svg>
