<?xml version="1.0" encoding="UTF-8" standalone="no"?>
<!-- Created with Inkscape (http://www.inkscape.org/) -->

<svg
   xmlns:dc="http://purl.org/dc/elements/1.1/"
   xmlns:cc="http://creativecommons.org/ns#"
   xmlns:rdf="http://www.w3.org/1999/02/22-rdf-syntax-ns#"
   xmlns:svg="http://www.w3.org/2000/svg"
   xmlns="http://www.w3.org/2000/svg"
   xmlns:xlink="http://www.w3.org/1999/xlink"
   xmlns:sodipodi="http://sodipodi.sourceforge.net/DTD/sodipodi-0.dtd"
   xmlns:inkscape="http://www.inkscape.org/namespaces/inkscape"
   version="1.1"
   id="svg4584"
   width="350"
   height="350"
   viewBox="0 0 350 350"
   sodipodi:docname="i7756490_-364000.svg"
   inkscape:version="0.92.2 (unknown)">
  <metadata
     id="metadata4590">
    <rdf:RDF>
      <cc:Work
         rdf:about="">
        <dc:format>image/svg+xml</dc:format>
        <dc:type
           rdf:resource="http://purl.org/dc/dcmitype/StillImage" />
        <dc:title />
      </cc:Work>
    </rdf:RDF>
  </metadata>
  <defs
     id="defs4588" />
  <sodipodi:namedview
     pagecolor="#ffffff"
     bordercolor="#666666"
     borderopacity="1"
     objecttolerance="10"
     gridtolerance="10"
     guidetolerance="10"
     inkscape:pageopacity="0"
     inkscape:pageshadow="2"
     inkscape:window-width="1855"
     inkscape:window-height="1056"
     id="namedview4586"
     showgrid="false"
     inkscape:zoom="0.92327943"
     inkscape:cx="163.16854"
     inkscape:cy="45.041187"
     inkscape:window-x="65"
     inkscape:window-y="24"
     inkscape:window-maximized="1"
     inkscape:current-layer="svg4584"
     inkscape:measure-start="68.3534,298.687"
     inkscape:measure-end="58.5886,328.939" />
  <image
     y="0"
     x="-350"
     id="image5087"
     preserveAspectRatio="none"
     height="350"
     width="350"
     xlink:href="/home/rcarneiro/carmen_lcad/data/road_mapper_remission_350px/voltadaufes/i7756420_-364000.png"
     sodipodi:absref="/home/rcarneiro/carmen_lcad/data/road_mapper_remission_350px/voltadaufes/i7756420_-364000.png" />
  <image
     sodipodi:absref="carmen_lcad/data/road_mapper_remission_350px/voltadaufes/i7756490_-364000.png"
     xlink:href="carmen_lcad/data/road_mapper_remission_350px/voltadaufes/i7756490_-364000.png"
     y="0"
     x="0"
     id="image4592"
     preserveAspectRatio="none"
     height="350"
     width="350" />
  <image
     sodipodi:absref="carmen_lcad/data/road_mapper_remission_350px/voltadaufes/i7756560_-364000.png"
     xlink:href="carmen_lcad/data/road_mapper_remission_350px/voltadaufes/i7756560_-364000.png"
     y="0"
     x="349.99994"
     id="image4252"
     preserveAspectRatio="none"
     height="350"
     width="350" />
  <path
     style="display:none;opacity:0.28999999;fill:none;stroke:#00ff00;stroke-width:25;stroke-linecap:butt;stroke-linejoin:miter;stroke-miterlimit:4;stroke-dasharray:none;stroke-opacity:1"
     d="m 2228.7072,8318.8718 -35.7089,-9.9879"
     id="path2589"
     inkscape:connector-curvature="0" />
  <image
     sodipodi:absref="carmen_lcad/data/road_mapper_remission_350px/voltadaufes/i7756560_-364070.png"
     xlink:href="carmen_lcad/data/road_mapper_remission_350px/voltadaufes/i7756560_-364070.png"
     style="fill:#24221c"
     y="350.00006"
     x="349.99994"
     id="image3770"
     preserveAspectRatio="none"
     height="350"
     width="350" />
  <image
     sodipodi:absref="carmen_lcad/data/road_mapper_remission_350px/voltadaufes/i7756630_-364070.png"
     xlink:href="carmen_lcad/data/road_mapper_remission_350px/voltadaufes/i7756630_-364070.png"
     y="350.00006"
     x="699.99994"
     id="image3313"
     preserveAspectRatio="none"
     height="350"
     width="350" />
  <image
     sodipodi:absref="carmen_lcad/data/road_mapper_remission_350px/voltadaufes/i7756630_-364000.png"
     xlink:href="carmen_lcad/data/road_mapper_remission_350px/voltadaufes/i7756630_-364000.png"
     y="0"
     x="699.99994"
     id="image2561"
     preserveAspectRatio="none"
     height="350"
     width="350" />
  <image
     sodipodi:absref="carmen_lcad/data/road_mapper_remission_350px/voltadaufes/i7756700_-364000.png"
     xlink:href="carmen_lcad/data/road_mapper_remission_350px/voltadaufes/i7756700_-364000.png"
     y="0"
     x="1050"
     id="image2161"
     preserveAspectRatio="none"
     height="350"
     width="350" />
  <image
     sodipodi:absref="carmen_lcad/data/road_mapper_remission_350px/voltadaufes/i7756700_-364070.png"
     xlink:href="carmen_lcad/data/road_mapper_remission_350px/voltadaufes/i7756700_-364070.png"
     y="350.00006"
     x="1050"
     id="image1109"
     preserveAspectRatio="none"
     height="350"
     width="350" />
  <image
     sodipodi:absref="carmen_lcad/data/road_mapper_remission_350px/voltadaufes/i7756560_-363930.png"
     xlink:href="carmen_lcad/data/road_mapper_remission_350px/voltadaufes/i7756560_-363930.png"
     width="350"
     height="350"
     preserveAspectRatio="none"
     id="image3106"
     x="350"
     y="-350" />
  <image
     sodipodi:absref="carmen_lcad/data/road_mapper_remission_350px/voltadaufes/i7756490_-363930.png"
     xlink:href="carmen_lcad/data/road_mapper_remission_350px/voltadaufes/i7756490_-363930.png"
     width="350"
     height="350"
     preserveAspectRatio="none"
     id="image3171"
     x="0"
     y="-350" />
  <path
     style="opacity:0.522;fill:none;stroke:#0000ff;stroke-width:18;stroke-linecap:butt;stroke-linejoin:miter;stroke-miterlimit:4;stroke-dasharray:none;stroke-opacity:1"
     d="m 647.53823,415.67302 c -48.54032,-21.648 -106.63576,-48.3135 -159.94043,-72.4994 -57.87983,-26.2619 -118.34132,-52.0446 -173.61078,-78.8488"
     id="path4174"
     inkscape:connector-curvature="0"
     sodipodi:nodetypes="cac" />
  <path
     style="opacity:0.5;fill:none;stroke:#7f00ff;stroke-width:16;stroke-linecap:butt;stroke-linejoin:miter;stroke-miterlimit:4;stroke-dasharray:none;stroke-opacity:1"
     d="m 640.3707,430.50482 c 0,0 -105.52294,-47.5851 -158.30076,-71.3414 -38.77274,-17.4523 -77.6794,-34.6091 -116.34219,-52.3037 -19.745,-9.0366 -59.05163,-27.5069 -59.05163,-27.5069"
     id="path4176"
     inkscape:connector-curvature="0"
     sodipodi:nodetypes="caac" />
  <path
     style="opacity:0.50400002;fill:none;stroke:#0000ff;stroke-width:16;stroke-linecap:butt;stroke-linejoin:miter;stroke-miterlimit:4;stroke-dasharray:none;stroke-opacity:1"
     d="m 653.50653,400.09852 c 0,0 -98.32595,-44.8079 -147.58748,-66.9939 -39.11941,-17.6182 -78.49958,-34.658 -117.51372,-52.5081 -32.75851,-14.9881 -97.87202,-45.8358 -97.87202,-45.8358"
     id="path4178"
     inkscape:connector-curvature="0"
     sodipodi:nodetypes="caac" />
  <path
     style="opacity:0.48200001;fill:none;stroke:#ff007f;stroke-width:20;stroke-linecap:butt;stroke-linejoin:miter;stroke-miterlimit:4;stroke-dasharray:none;stroke-opacity:1"
     d="m 660.62556,383.85512 c 0,0 -75.35351,-34.0614 -113.03261,-51.0869 -33.22346,-15.0122 -66.45214,-30.0129 -99.67452,-45.0275 -28.84422,-13.0359 -57.78709,-25.856 -86.52625,-39.1219 -21.07421,-9.7278 -62.99233,-29.6773 -62.99233,-29.6773"
     id="path4180"
     inkscape:connector-curvature="0"
     sodipodi:nodetypes="caaac" />
  <path
     style="opacity:0.45199998;fill:none;stroke:#0000ff;stroke-width:18;stroke-linecap:butt;stroke-linejoin:miter;stroke-miterlimit:4;stroke-dasharray:none;stroke-opacity:1"
     d="m 313.98702,264.32482 c 0,0 -95.71389,-45.18398 -142.89075,-69.14745 C 126.52347,172.53664 82.293254,149.18526 38.712701,124.68888 10.86763,109.03732 -43.729989,75.841395 -43.729989,75.841395"
     id="path4901"
     inkscape:connector-curvature="0"
     sodipodi:nodetypes="caac" />
  <path
     style="opacity:0.56999966;fill:none;stroke:#7f00ff;stroke-width:16;stroke-linecap:butt;stroke-linejoin:miter;stroke-miterlimit:4;stroke-dasharray:none;stroke-opacity:1"
     d="m 306.67612,279.35282 c 0,0 -65.74593,-30.91986 -98.36102,-46.91299 C 183.73882,220.3886 159.25591,208.13914 134.98359,195.48687 110.16825,182.55155 85.565602,169.20685 61.07768,155.66193 37.317661,142.51963 13.740781,129.04624 -9.7647703,115.45405 -23.807583,107.33373 -51.695842,90.754923 -51.695842,90.754923"
     id="path4903"
     inkscape:connector-curvature="0"
     sodipodi:nodetypes="caaaac" />
  <path
     style="opacity:0.56199999;fill:none;stroke:#ff007f;stroke-width:16;stroke-linecap:butt;stroke-linejoin:miter;stroke-miterlimit:4;stroke-dasharray:none;stroke-opacity:1"
     d="m 290.53331,234.76072 c 0,0 -55.83984,-26.8034 -83.55847,-40.61411 C 173.55856,177.49707 140.18071,160.75265 107.221,143.21663 80.94164,129.23485 54.908227,114.78367 29.102844,99.945295 7.0702843,87.276338 -36.378556,60.886214 -36.378556,60.886214"
     id="path4905"
     inkscape:connector-curvature="0"
     sodipodi:nodetypes="caaac" />
  <path
     style="opacity:0.44500002;fill:none;stroke:#7fff00;stroke-width:16;stroke-linecap:butt;stroke-linejoin:miter;stroke-miterlimit:4;stroke-dasharray:none;stroke-opacity:1"
     d="m 299.83588,221.46455 c -11.85648,-5.45528 -21.05424,-12.82146 -31.03573,-20.03086 -9.30691,-6.72216 -18.84471,-13.34864 -26.82667,-21.60057 -5.96961,-6.17152 -11.55694,-12.95112 -15.47873,-20.58941 -3.46504,-6.74871 -6.81347,-21.71499 -6.81347,-21.71499"
     id="path4909"
     inkscape:connector-curvature="0"
     sodipodi:nodetypes="caaac" />
  <path
     style="opacity:0.48500001;fill:none;stroke:#ff7f00;stroke-width:16;stroke-linecap:butt;stroke-linejoin:miter;stroke-miterlimit:4;stroke-dasharray:none;stroke-opacity:1"
     d="m 299.83588,221.46455 c -12.21847,-5.87988 -18.71753,-11.94567 -26.64945,-19.60827 -7.94358,-7.67387 -14.55203,-16.71836 -20.54693,-25.99468 -3.42622,-5.30163 -6.04008,-11.09472 -8.72133,-16.80936 -2.01614,-4.29706 -3.96671,-8.64028 -5.52929,-13.12223 -1.42206,-4.07889 -3.48323,-12.48214 -3.48323,-12.48214"
     id="path4913"
     inkscape:connector-curvature="0"
     sodipodi:nodetypes="caaaac" />
  <image
     sodipodi:absref="carmen_lcad/data/road_mapper_remission_350px/voltadaufes/i7756420_-363930.png"
     xlink:href="carmen_lcad/data/road_mapper_remission_350px/voltadaufes/i7756420_-363930.png"
     width="350"
     height="350"
     preserveAspectRatio="none"
     id="image4977"
     x="-350"
     y="-350" />
  <path
     style="opacity:0.51499999;fill:none;stroke:#ff0000;stroke-width:20;stroke-linecap:butt;stroke-linejoin:miter;stroke-miterlimit:4;stroke-dasharray:none;stroke-opacity:1"
     d="m -25.432139,38.610448 c 0,0 -10.706199,-4.015485 -15.860485,-6.473011 -7.455961,-3.554948 -14.554099,-7.820759 -21.71896,-11.930962 C -69.497894,16.48553 -75.919092,12.648143 -82.260729,8.6856598 -90.424753,3.5844841 -98.476396,-1.6978813 -106.45514,-7.0842453 -115.81825,-13.405182 -134.23416,-26.49881 -134.23416,-26.49881"
     id="path4980"
     inkscape:connector-curvature="0"
     sodipodi:nodetypes="caaaac" />
  <path
     style="opacity:0.43800001;fill:none;stroke:#0000ff;stroke-width:18;stroke-linecap:butt;stroke-linejoin:miter;stroke-miterlimit:4;stroke-dasharray:none;stroke-opacity:1"
     d="m -43.729989,75.841395 c 0,0 -56.088534,-36.294131 -83.562371,-55.284647 -26.1774,-18.0943926 -77.41273,-55.868052 -77.41273,-55.868052"
     id="path4990"
     inkscape:connector-curvature="0"
     sodipodi:nodetypes="cac" />
  <path
     style="opacity:0.48200001;fill:none;stroke:#7f00ff;stroke-width:16;stroke-linecap:butt;stroke-linejoin:miter;stroke-miterlimit:4;stroke-dasharray:none;stroke-opacity:1"
     d="m -51.695842,90.754923 c 0,0 -48.795128,-31.906921 -72.860168,-48.35411 -19.02009,-12.999232 -37.80322,-26.344297 -56.52406,-39.7709168 -11.35628,-8.1447447 -33.84674,-24.7409712 -33.84674,-24.7409712"
     id="path4992"
     inkscape:connector-curvature="0"
     sodipodi:nodetypes="caac" />
  <path
     style="opacity:0.46700003;fill:none;stroke:#ff007f;stroke-width:16;stroke-linecap:butt;stroke-linejoin:miter;stroke-miterlimit:4;stroke-dasharray:none;stroke-opacity:1"
     d="M -36.378556,60.886214 C -73.677849,36.524448 -109.45362,12.331962 -144.46116,-11.775164"
     id="path4994"
     inkscape:connector-curvature="0"
     sodipodi:nodetypes="cc" />
  <path
     style="opacity:0.54000005;fill:none;stroke:#0000ff;stroke-width:16;stroke-linecap:butt;stroke-linejoin:miter;stroke-miterlimit:4;stroke-dasharray:none;stroke-opacity:1"
     d="m -144.46116,-11.775164 -50.45131,-37.048688"
     id="path4996"
     inkscape:connector-curvature="0"
     sodipodi:nodetypes="cc" />
  <path
     style="opacity:0.41499999;fill:none;stroke:#7fff00;stroke-width:18;stroke-linecap:butt;stroke-linejoin:miter;stroke-miterlimit:4;stroke-dasharray:none;stroke-opacity:1"
     d="m 64.48298,43.079851 c -10.4085,2.85629 -17.61807,3.62431 -26.5605,4.33581 -8.32028,0.66199 -16.69919,0.24476 -25.03961,-0.0757 -4.0786301,-0.15671 -8.1645101,-0.37271 -12.21160012,-0.90266 -3.95993998,-0.51855 -7.89370998,-1.27454 -11.77316988,-2.2231 -6.52792,-1.59613 -11.53492,-3.03342 -19.30158,-5.82247"
     id="path4982-6"
     inkscape:connector-curvature="0"
     sodipodi:nodetypes="caaaac" />
  <path
     style="opacity:0.44900004;fill:none;stroke:#ff7f00;stroke-width:18;stroke-linecap:butt;stroke-linejoin:miter;stroke-miterlimit:4;stroke-dasharray:none;stroke-opacity:1"
     d="m 60.79046,31.017481 c -7.6046,2.53487 -12.63535,4.74931 -19.17182,6.36798 -5.72787,1.41843 -11.6306,2.00645 -17.46274,2.90452 -5.20264,0.80114 -10.38485,1.84405 -15.6356901,2.21547 -4.71293,0.33337 -9.46597003,0.40198 -14.17412,0.007 -7.3804199,-0.61948 -12.8941499,-0.96958 -21.9064399,-3.71435"
     id="path4986-7"
     inkscape:connector-curvature="0"
     sodipodi:nodetypes="caaaac" />
</svg>
