<?xml version="1.0" encoding="UTF-8" standalone="no"?>
<!-- Created with Inkscape (http://www.inkscape.org/) -->

<svg
   xmlns:dc="http://purl.org/dc/elements/1.1/"
   xmlns:cc="http://creativecommons.org/ns#"
   xmlns:rdf="http://www.w3.org/1999/02/22-rdf-syntax-ns#"
   xmlns:svg="http://www.w3.org/2000/svg"
   xmlns="http://www.w3.org/2000/svg"
   xmlns:xlink="http://www.w3.org/1999/xlink"
   xmlns:sodipodi="http://sodipodi.sourceforge.net/DTD/sodipodi-0.dtd"
   xmlns:inkscape="http://www.inkscape.org/namespaces/inkscape"
   version="1.1"
   id="svg5192"
   width="350"
   height="350"
   viewBox="0 0 350 350"
   sodipodi:docname="i7757890_-363650.svg"
   inkscape:version="0.92.2 (unknown)">
  <metadata
     id="metadata5198">
    <rdf:RDF>
      <cc:Work
         rdf:about="">
        <dc:format>image/svg+xml</dc:format>
        <dc:type
           rdf:resource="http://purl.org/dc/dcmitype/StillImage" />
        <dc:title />
      </cc:Work>
    </rdf:RDF>
  </metadata>
  <defs
     id="defs5196" />
  <sodipodi:namedview
     pagecolor="#ffffff"
     bordercolor="#666666"
     borderopacity="1"
     objecttolerance="10"
     gridtolerance="10"
     guidetolerance="10"
     inkscape:pageopacity="0"
     inkscape:pageshadow="2"
     inkscape:window-width="1855"
     inkscape:window-height="1056"
     id="namedview5194"
     showgrid="false"
     inkscape:zoom="2.4748737"
     inkscape:cx="215.81913"
     inkscape:cy="1.5712201"
     inkscape:window-x="65"
     inkscape:window-y="24"
     inkscape:window-maximized="1"
     inkscape:current-layer="svg5192"
     inkscape:measure-start="352,-44"
     inkscape:measure-end="400.571,-34.2857" />
  <image
     sodipodi:absref="carmen_lcad/data/road_mapper_remission_350px/voltadaufes/i7757960_-363720.png"
     xlink:href="carmen_lcad/data/road_mapper_remission_350px/voltadaufes/i7757960_-363720.png"
     y="350"
     x="350"
     id="image5472"
     preserveAspectRatio="none"
     height="350"
     width="350" />
  <image
     sodipodi:absref="carmen_lcad/data/road_mapper_remission_350px/voltadaufes/i7757960_-363650.png"
     xlink:href="carmen_lcad/data/road_mapper_remission_350px/voltadaufes/i7757960_-363650.png"
     y="0"
     x="350"
     id="image5382"
     preserveAspectRatio="none"
     height="350"
     width="350" />
  <image
     sodipodi:absref="carmen_lcad/data/road_mapper_remission_350px/voltadaufes/i7757890_-363720.png"
     xlink:href="carmen_lcad/data/road_mapper_remission_350px/voltadaufes/i7757890_-363720.png"
     y="350"
     x="0"
     id="image5290"
     preserveAspectRatio="none"
     height="350"
     width="350" />
  <image
     sodipodi:absref="carmen_lcad/data/road_mapper_remission_350px/voltadaufes/i7757890_-363650.png"
     xlink:href="carmen_lcad/data/road_mapper_remission_350px/voltadaufes/i7757890_-363650.png"
     y="0"
     x="0"
     id="image5200"
     preserveAspectRatio="none"
     height="350"
     width="350" />
  <path
     style="opacity:0.49599998;fill:none;stroke:#7fff00;stroke-width:15;stroke-linecap:butt;stroke-linejoin:miter;stroke-miterlimit:4;stroke-dasharray:none;stroke-opacity:1"
     d="m -42.185002,-2.3688425 c 0,0 41.64493274,37.1151795 62.54523,55.5849445 23.099173,20.41293 46.324199,40.683011 69.469012,61.044178 18.04101,15.8712 36.09213,31.73099 54.09606,47.64424 23.46645,20.74144 46.83071,41.59826 70.2893,62.34859 12.65907,11.1976 25.33085,22.38087 38.02379,33.54006 12.68047,11.14822 25.49073,22.14929 38.09631,33.38214 8.14493,7.25795 16.48466,14.31654 24.25244,21.97678 7.31965,7.21832 14.56091,14.56922 21.02546,22.56241 7.48183,9.25103 15.10651,18.62482 20.44665,29.25696 8.33539,16.59566 14.22859,37.1017 17.57599,52.86905"
     id="path5232"
     inkscape:connector-curvature="0"
     sodipodi:nodetypes="caaaaaaaaac" />
  <path
     style="opacity:0.66399997;fill:none;stroke:#7fff00;stroke-width:16;stroke-linecap:butt;stroke-linejoin:miter;stroke-miterlimit:4;stroke-dasharray:none;stroke-opacity:1"
     d="m 389.35584,415.56963 c -2.52501,-21.63454 -7.12576,-30.65627 -13.51001,-44.93444 -6.7183,-15.02527 -15.51085,-29.2464 -25.76103,-42.12382 -15.24788,-19.15608 -34.52142,-34.74781 -52.47007,-51.40011 -10.76662,-9.98899 -22.09622,-19.3536 -33.10137,-29.07915 -19.56522,-17.29032 -38.98397,-34.74586 -58.54239,-52.04385 -31.7927,-28.11832 -63.7526,-56.04706 -95.5935,-84.11079 C 77.675357,83.054684 45.066025,54.126681 12.343905,25.326608 -2.4679174,12.29012 -32.151565,-13.714577 -32.151565,-13.714577"
     id="path6060"
     inkscape:connector-curvature="0"
     sodipodi:nodetypes="caaaaaaac" />
  <path
     style="opacity:0.61100003;fill:none;stroke:#7fff00;stroke-width:22;stroke-linecap:butt;stroke-linejoin:miter;stroke-miterlimit:4;stroke-dasharray:none;stroke-opacity:1"
     d="m 108.69743,744.80155 c 0,0 35.63684,-28.20928 53.65659,-42.05449 17.37765,-13.35186 35.05611,-26.3079 52.51641,-39.55149 14.23245,-10.79526 28.47593,-21.57731 42.58639,-32.53154 12.75657,-9.90318 25.41483,-19.93299 38.03683,-30.00712 12.75678,-10.18169 26.1099,-19.68353 38.09646,-30.76164 8.82919,-8.16003 17.36662,-16.73988 24.79564,-26.19241 4.30279,-5.47478 7.88394,-11.49839 11.34648,-17.53976 3.85422,-6.72475 7.38898,-13.65063 10.46192,-20.76641 3.34022,-7.7347 6.45637,-15.61608 8.63455,-23.75477 2.5688,-9.59827 4.48949,-19.44355 5.1713,-29.3562 0.79458,-11.55207 0.56143,-23.2832 -1.28571,-34.71429 -2.25487,-13.95423 -6.13353,-27.78969 -11.85715,-40.71429 -4.01441,-9.065 -9.76313,-17.30427 -15.55584,-25.35004 -4.5418,-6.30831 -9.84362,-12.0375 -14.98039,-17.87157 -8.09352,-9.19218 -14.39077,-16.78929 -24.9436,-26.97827"
     id="path5326"
     inkscape:connector-curvature="0"
     sodipodi:nodetypes="caaaaaaaaaaaaaac" />
  <path
     style="opacity:0.53399999;fill:none;stroke:#7fff00;stroke-width:23;stroke-linecap:butt;stroke-linejoin:miter;stroke-miterlimit:4;stroke-dasharray:none;stroke-opacity:1"
     d="m 319.61227,312.45699 c 12.92127,13.23855 15.8055,16.40342 22.42539,25.62321 5.31523,7.40273 10.03792,15.30924 13.73806,23.63757 4.30626,9.69257 7.45993,19.93717 9.69747,30.30458 2.96062,13.71763 4.90755,27.78694 4.84874,41.8203 -0.064,15.26903 -1.22125,30.49756 -5.65686,45.45687"
     id="path4554"
     inkscape:connector-curvature="0"
     sodipodi:nodetypes="caaaac" />
</svg>
