<?xml version="1.0" encoding="UTF-8" standalone="no"?>
<!-- Created with Inkscape (http://www.inkscape.org/) -->

<svg
   xmlns:dc="http://purl.org/dc/elements/1.1/"
   xmlns:cc="http://creativecommons.org/ns#"
   xmlns:rdf="http://www.w3.org/1999/02/22-rdf-syntax-ns#"
   xmlns:svg="http://www.w3.org/2000/svg"
   xmlns="http://www.w3.org/2000/svg"
   xmlns:xlink="http://www.w3.org/1999/xlink"
   xmlns:sodipodi="http://sodipodi.sourceforge.net/DTD/sodipodi-0.dtd"
   xmlns:inkscape="http://www.inkscape.org/namespaces/inkscape"
   version="1.1"
   id="svg4865"
   width="350"
   height="350"
   viewBox="0 0 350 350"
   sodipodi:docname="i7757750_-363580.svg"
   inkscape:version="0.92.2 (unknown)">
  <metadata
     id="metadata4871">
    <rdf:RDF>
      <cc:Work
         rdf:about="">
        <dc:format>image/svg+xml</dc:format>
        <dc:type
           rdf:resource="http://purl.org/dc/dcmitype/StillImage" />
        <dc:title></dc:title>
      </cc:Work>
    </rdf:RDF>
  </metadata>
  <defs
     id="defs4869" />
  <sodipodi:namedview
     pagecolor="#ffffff"
     bordercolor="#666666"
     borderopacity="1"
     objecttolerance="10"
     gridtolerance="10"
     guidetolerance="10"
     inkscape:pageopacity="0"
     inkscape:pageshadow="2"
     inkscape:window-width="1855"
     inkscape:window-height="1056"
     id="namedview4867"
     showgrid="false"
     inkscape:zoom="0.9983453"
     inkscape:cx="221.8707"
     inkscape:cy="216.42209"
     inkscape:window-x="65"
     inkscape:window-y="24"
     inkscape:window-maximized="1"
     inkscape:current-layer="svg4865" />
  <image
     width="350"
     height="350"
     preserveAspectRatio="none"
     xlink:href="carmen_lcad/data/road_mapper_remission_350px/voltadaufes/i7757750_-363580.png"
     id="image4873"
     x="0"
     y="0"
     sodipodi:absref="carmen_lcad/data/road_mapper_remission_350px/voltadaufes/i7757750_-363580.png" />
  <path
     style="fill:none;stroke:#7fff00;stroke-width:15;stroke-linecap:butt;stroke-linejoin:miter;stroke-miterlimit:4;stroke-dasharray:none;stroke-opacity:1"
     d="m -29.757863,206.70277 c 0,0 29.17659831,-22.6601 43.827806,-33.90853 10.765484,-8.26517 21.646283,-16.37977 32.388455,-24.67521 10.399625,-8.03093 20.590302,-16.33148 31.040768,-24.29614 9.803222,-7.47136 19.470326,-15.15149 29.696164,-22.0331 7.40042,-4.98021 15.00809,-9.680022 22.86452,-13.904356 8.28375,-4.454095 16.79965,-8.514117 25.52451,-12.026402 9.15881,-3.686974 18.47056,-7.142708 28.0677,-9.460592 10.5094,-2.538212 21.30961,-3.823193 32.07602,-4.8103 10.60902,-0.972677 21.29099,-1.313777 31.94208,-1.086462 8.0779,0.172398 16.14419,0.907712 24.168,1.856787 7.79557,0.922079 15.57267,2.103147 23.25346,3.723839 8.1469,1.719043 16.26143,3.710878 24.15774,6.351977 6.7269,2.249965 13.25126,5.092919 19.69436,8.059421 7.59878,3.4986 15.11845,7.216413 22.32353,11.467124 6.70016,3.952827 13.0794,8.440554 19.3731,13.012904 4.19553,3.04803 12.24155,9.6011 12.24155,9.6011"
     id="path4913"
     inkscape:connector-curvature="0"
     sodipodi:nodetypes="caaaaaaaaaaaaaaac" />
  <path
     style="fill:none;stroke:#7fff00;stroke-width:15;stroke-linecap:butt;stroke-linejoin:miter;stroke-miterlimit:4;stroke-dasharray:none;stroke-opacity:1"
     d="m 402.09951,102.95737 c 0,0 -13.22344,-10.204868 -20.09372,-14.946516 -7.18602,-4.959556 -14.394,-9.947512 -22.07185,-14.105233 -8.75598,-4.741555 -17.88792,-8.835686 -27.2273,-12.28902 -10.54522,-3.899205 -21.39826,-7.027921 -32.37451,-9.462558 -10.33107,-2.291532 -20.85421,-3.717735 -31.37956,-4.812816 -9.97853,-1.038188 -20.01912,-1.612885 -30.05141,-1.659023 -8.42009,-0.03872 -16.84391,0.447618 -25.23387,1.160374 -8.50006,0.722109 -17.01473,1.569293 -25.39696,3.153794 -7.69028,1.453699 -15.30493,3.394442 -22.74888,5.811292 -7.13514,2.316587 -14.04574,5.294076 -20.91853,8.301005 -8.20901,3.591541 -16.32671,7.416209 -24.23893,11.621407 -5.60834,2.980725 -11.06247,6.2523 -16.44011,9.631521 -5.907914,3.712436 -11.660147,7.671009 -17.36915,11.682607 -8.000799,5.621996 -15.884797,11.413336 -23.653045,17.352526 -9.316567,7.12295 -18.252418,14.73293 -27.521016,21.91819 -8.140614,6.31081 -16.485415,12.35427 -24.667772,18.61087 -9.150739,6.99706 -18.1998856,14.12603 -27.316086,21.16804 -7.991087,6.17289 -24.001706,18.48178 -24.001706,18.48178"
     id="path4915"
     inkscape:connector-curvature="0"
     sodipodi:nodetypes="caaaaaaaaaaaaaaaaac" />
</svg>
