<?xml version="1.0" encoding="UTF-8" standalone="no"?>
<!-- Created with Inkscape (http://www.inkscape.org/) -->

<svg
   xmlns:dc="http://purl.org/dc/elements/1.1/"
   xmlns:cc="http://creativecommons.org/ns#"
   xmlns:rdf="http://www.w3.org/1999/02/22-rdf-syntax-ns#"
   xmlns:svg="http://www.w3.org/2000/svg"
   xmlns="http://www.w3.org/2000/svg"
   xmlns:xlink="http://www.w3.org/1999/xlink"
   xmlns:sodipodi="http://sodipodi.sourceforge.net/DTD/sodipodi-0.dtd"
   xmlns:inkscape="http://www.inkscape.org/namespaces/inkscape"
   version="1.1"
   id="svg5822"
   width="350"
   height="350"
   viewBox="0 0 350 350"
   sodipodi:docname="i7756910_-364140.svg"
   inkscape:version="0.92.2 (unknown)">
  <metadata
     id="metadata5828">
    <rdf:RDF>
      <cc:Work
         rdf:about="">
        <dc:format>image/svg+xml</dc:format>
        <dc:type
           rdf:resource="http://purl.org/dc/dcmitype/StillImage" />
        <dc:title></dc:title>
      </cc:Work>
    </rdf:RDF>
  </metadata>
  <defs
     id="defs5826" />
  <sodipodi:namedview
     pagecolor="#ffffff"
     bordercolor="#666666"
     borderopacity="1"
     objecttolerance="10"
     gridtolerance="10"
     guidetolerance="10"
     inkscape:pageopacity="0"
     inkscape:pageshadow="2"
     inkscape:window-width="1855"
     inkscape:window-height="1056"
     id="namedview5824"
     showgrid="false"
     inkscape:zoom="11.58"
     inkscape:cx="316.2043"
     inkscape:cy="315.19727"
     inkscape:window-x="65"
     inkscape:window-y="24"
     inkscape:window-maximized="1"
     inkscape:current-layer="svg5822"
     inkscape:measure-start="58.2379,426.752"
     inkscape:measure-end="56.7697,416.475" />
  <image
     sodipodi:absref="carmen_lcad/data/road_mapper_remission_350px/voltadaufes/i7756910_-364070.png"
     y="-350"
     x="0"
     id="image6400"
     xlink:href="carmen_lcad/data/road_mapper_remission_350px/voltadaufes/i7756910_-364070.png"
     preserveAspectRatio="none"
     height="350"
     width="350" />
  <image
     width="350"
     height="350"
     preserveAspectRatio="none"
     xlink:href="carmen_lcad/data/road_mapper_remission_350px/voltadaufes/i7756910_-364140.png"
     id="image5830"
     x="0"
     y="0"
     sodipodi:absref="carmen_lcad/data/road_mapper_remission_350px/voltadaufes/i7756910_-364140.png" />
  <image
     width="350"
     height="350"
     preserveAspectRatio="none"
     xlink:href="carmen_lcad/data/road_mapper_remission_350px/voltadaufes/i7756980_-364140.png"
     id="image4658"
     x="350"
     y="0"
     sodipodi:absref="carmen_lcad/data/road_mapper_remission_350px/voltadaufes/i7756980_-364140.png" />
  <image
     sodipodi:absref="carmen_lcad/data/road_mapper_remission_350px/voltadaufes/i7756980_-364070.png"
     y="-350"
     x="350"
     id="image2479"
     xlink:href="carmen_lcad/data/road_mapper_remission_350px/voltadaufes/i7756980_-364070.png"
     preserveAspectRatio="none"
     height="350"
     width="350" />
  <path
     style="display:none;opacity:0.28999999;fill:none;stroke:#00ff00;stroke-width:25;stroke-linecap:butt;stroke-linejoin:miter;stroke-miterlimit:4;stroke-dasharray:none;stroke-opacity:1"
     d="m 580.28912,889.61215 -35.70889,-9.98788"
     id="path2589"
     inkscape:connector-curvature="0" />
  <path
     style="opacity:0.42600002;fill:none;stroke:#0000ff;stroke-width:18;stroke-linecap:butt;stroke-linejoin:miter;stroke-miterlimit:4;stroke-dasharray:none;stroke-opacity:1"
     d="M 688.48584,116.59733 335.44859,68.16194"
     id="path2482"
     inkscape:connector-curvature="0" />
  <path
     style="opacity:0.65399996;fill:none;stroke:#7f00ff;stroke-width:16;stroke-linecap:butt;stroke-linejoin:miter;stroke-miterlimit:4;stroke-dasharray:none;stroke-opacity:1"
     d="M 686.11404,133.3842 333.03364,84.84464"
     id="path2556"
     inkscape:connector-curvature="0"
     sodipodi:nodetypes="cc" />
  <path
     style="opacity:0.53299997;fill:none;stroke:#ff007f;stroke-width:16;stroke-linecap:butt;stroke-linejoin:miter;stroke-miterlimit:4;stroke-dasharray:none;stroke-opacity:1"
     d="M 642.57859,93.18481 396.7656,59.45023"
     id="path2558"
     inkscape:connector-curvature="0"
     sodipodi:nodetypes="cc" />
  <path
     style="opacity:0.38600003;fill:none;stroke:#0000ff;stroke-width:16;stroke-linecap:butt;stroke-linejoin:miter;stroke-miterlimit:4;stroke-dasharray:none;stroke-opacity:1"
     d="M 396.7656,59.45023 245.58282,39.048951"
     id="path2560"
     inkscape:connector-curvature="0"
     sodipodi:nodetypes="cc" />
  <path
     style="opacity:0.272;fill:none;stroke:#ff0000;stroke-width:24;stroke-linecap:butt;stroke-linejoin:miter;stroke-miterlimit:4;stroke-dasharray:none;stroke-opacity:1"
     d="m 726.81219,-22.28032 c 0,0 -139.96096,-18.29522 -209.91121,-27.67031 -62.02559,-8.31299 -186.02229,-25.34225 -186.02229,-25.34225"
     id="path3967"
     inkscape:connector-curvature="0"
     sodipodi:nodetypes="cac" />
  <path
     style="opacity:0.46000001;fill:none;stroke:#ff0000;stroke-width:20;stroke-linecap:butt;stroke-linejoin:miter;stroke-miterlimit:4;stroke-dasharray:none;stroke-opacity:1"
     d="m 327.97974,-53.76164 c 0,0 175.69304,23.92395 263.54372,35.85534 71.27624,9.68034 142.33693,21.11915 213.83546,28.99137 14.19073,1.56245 28.46947,2.2102 42.67641,3.61765 13.10958,1.29873 26.2234,2.62424 39.26955,4.45342 13.98917,1.9614 27.92439,4.32919 41.79773,6.98896 9.97508,1.91241 29.78059,6.44607 29.78059,6.44607"
     id="path3975"
     inkscape:connector-curvature="0"
     sodipodi:nodetypes="caaaaac" />
  <path
     style="opacity:0.61799999;fill:none;stroke:#ff7f00;stroke-width:16;stroke-linecap:butt;stroke-linejoin:miter;stroke-miterlimit:4;stroke-dasharray:none;stroke-opacity:1"
     d="m 413.79854,62.73788 -72.832,-24.74874"
     id="path3981"
     inkscape:connector-curvature="0"
     sodipodi:nodetypes="cc" />
  <image
     sodipodi:absref="carmen_lcad/data/road_mapper_remission_350px/voltadaufes/i7756840_-364140.png"
     y="0"
     x="-350"
     id="image6465"
     xlink:href="carmen_lcad/data/road_mapper_remission_350px/voltadaufes/i7756840_-364140.png"
     preserveAspectRatio="none"
     height="350"
     width="350" />
  <image
     sodipodi:absref="carmen_lcad/data/road_mapper_remission_350px/voltadaufes/i7756840_-364070.png"
     y="-350"
     x="-350"
     id="image6530"
     xlink:href="carmen_lcad/data/road_mapper_remission_350px/voltadaufes/i7756840_-364070.png"
     preserveAspectRatio="none"
     height="350"
     width="350" />
  <path
     style="opacity:0.35700001;fill:none;stroke:#ff0000;stroke-width:23;stroke-linecap:butt;stroke-linejoin:miter;stroke-miterlimit:4;stroke-dasharray:none;stroke-opacity:1"
     d="M 330.87869,-75.29288 124.50593,-102.657"
     id="path6533"
     inkscape:connector-curvature="0"
     sodipodi:nodetypes="cc" />
  <path
     style="opacity:0.34900004;fill:none;stroke:#ff0000;stroke-width:23;stroke-linecap:butt;stroke-linejoin:miter;stroke-miterlimit:4;stroke-dasharray:none;stroke-opacity:1"
     d="M 327.97974,-53.76164 123.8764,-80.125427"
     id="path6535"
     inkscape:connector-curvature="0"
     sodipodi:nodetypes="cc" />
  <path
     style="opacity:0.48500001;fill:none;stroke:#7f00ff;stroke-width:23;stroke-linecap:butt;stroke-linejoin:miter;stroke-miterlimit:4;stroke-dasharray:none;stroke-opacity:1"
     d="M 124.50593,-102.657 -8.2979825,-120.1406"
     id="path6537"
     inkscape:connector-curvature="0"
     sodipodi:nodetypes="cc" />
  <path
     style="opacity:0.397;fill:none;stroke:#7f00ff;stroke-width:23;stroke-linecap:butt;stroke-linejoin:miter;stroke-miterlimit:4;stroke-dasharray:none;stroke-opacity:1"
     d="M -6.6645214,-96.784286 123.8764,-80.125427"
     id="path6539"
     inkscape:connector-curvature="0"
     sodipodi:nodetypes="cc" />
  <path
     style="opacity:0.44500002;fill:none;stroke:#ff0000;stroke-width:23;stroke-linecap:butt;stroke-linejoin:miter;stroke-miterlimit:4;stroke-dasharray:none;stroke-opacity:1"
     d="M -8.2979825,-120.1406 -367.78753,-167.96929"
     id="path6541"
     inkscape:connector-curvature="0"
     sodipodi:nodetypes="cc" />
  <path
     style="fill:none;stroke:#ff0000;stroke-width:23;stroke-linecap:butt;stroke-linejoin:miter;stroke-opacity:1;stroke-miterlimit:4;stroke-dasharray:none;opacity:0.471"
     d="M -369.96032,-145.39751 -6.6645214,-96.784286"
     id="path6543"
     inkscape:connector-curvature="0" />
  <path
     style="opacity:0.55899999;fill:none;stroke:#ff007f;stroke-width:10;stroke-linecap:butt;stroke-linejoin:miter;stroke-miterlimit:4;stroke-dasharray:none;stroke-opacity:1"
     d="m 148.69672,-106.13023 c 0,0 -9.92573,-1.1654 -14.7834,-2.29242 -4.23734,-0.98309 -8.31955,-2.54507 -12.45867,-3.88269 -4.66505,-1.50758 -9.32423,-3.03649 -13.94706,-4.66896 -4.62199,-1.63217 -9.053032,-3.83996 -13.783686,-5.1236 -3.780928,-1.02593 -7.703327,-1.43928 -11.575388,-2.03519 -8.154666,-1.25499 -16.365246,-2.11642 -24.538771,-3.24207 -7.240888,-0.9972 -14.433931,-2.37376 -21.705888,-3.11101 -4.809332,-0.48758 -9.64643,-0.6614 -14.476103,-0.86552 -3.460061,-0.14624 -6.923122,-0.26343 -10.386267,-0.25722 -4.5090035,0.008 -9.0146282,0.24773 -13.5215973,0.38339 -3.5728226,0.10755 -7.1450576,0.23407 -10.7178877,0.34135 -5.085566,0.1527 -10.171317,0.56065 -15.257505,0.43034 -6.169366,-0.15806 -18.455803,-1.46897 -18.455803,-1.46897"
     id="path6545"
     inkscape:connector-curvature="0"
     sodipodi:nodetypes="caaaaaaaaaaaac" />
  <path
     style="opacity:0.53299997;fill:none;stroke:#ff007f;stroke-width:10;stroke-linecap:butt;stroke-linejoin:miter;stroke-miterlimit:4;stroke-dasharray:none;stroke-opacity:1"
     d="m -52.32934,-96.837457 c 0,0 14.040397,1.88589 20.945318,3.42576 6.807428,1.518127 13.391684,3.908539 20.127954,5.716427 5.6880407,1.526563 11.42178422,2.877496 17.1287993,4.331518 6.3650287,1.62167 12.6909337,3.401829 19.0863767,4.899064 6.900265,1.615419 13.798152,3.305565 20.799257,4.404549 8.343619,1.309722 16.781641,1.966874 25.203805,2.598153 6.975021,0.522809 13.967328,0.852541 20.960681,0.98391 6.307479,0.118484 12.617479,-0.05795 18.924949,-0.176788 5.81681,-0.109597 11.62958,-0.392683 17.44653,-0.494515 6.78488,-0.118777 20.35729,-0.135819 20.35729,-0.135819"
     id="path6547"
     inkscape:connector-curvature="0"
     sodipodi:nodetypes="caaaaaaaaac" />
  <path
     style="opacity:0.39300005;fill:none;stroke:#7f00ff;stroke-width:16;stroke-linecap:butt;stroke-linejoin:miter;stroke-miterlimit:4;stroke-dasharray:none;stroke-opacity:1"
     d="M 333.03364,84.84464 -197.79845,12.182718"
     id="path6549"
     inkscape:connector-curvature="0"
     sodipodi:nodetypes="cc" />
  <path
     style="opacity:0.478;fill:none;stroke:#0000ff;stroke-width:18;stroke-linecap:butt;stroke-linejoin:miter;stroke-miterlimit:4;stroke-dasharray:none;stroke-opacity:1"
     d="M 335.44859,68.16194 -195.61331,-4.3988502"
     id="path6551"
     inkscape:connector-curvature="0"
     sodipodi:nodetypes="cc" />
  <path
     style="opacity:0.419;fill:none;stroke:#ff007f;stroke-width:16;stroke-linecap:butt;stroke-linejoin:miter;stroke-miterlimit:4;stroke-dasharray:none;stroke-opacity:1"
     d="M 245.58282,39.048951 61.256147,13.657572"
     id="path6553"
     inkscape:connector-curvature="0"
     sodipodi:nodetypes="cc" />
  <path
     style="fill:none;stroke:#0000ff;stroke-width:16;stroke-linecap:butt;stroke-linejoin:miter;stroke-opacity:1;stroke-miterlimit:4;stroke-dasharray:none;opacity:0.621"
     d="M 61.256147,13.657572 -17.428847,3.2576832"
     id="path6555"
     inkscape:connector-curvature="0" />
  <path
     style="opacity:0.50700001;fill:none;stroke:#ff007f;stroke-width:16;stroke-linecap:butt;stroke-linejoin:miter;stroke-miterlimit:4;stroke-dasharray:none;stroke-opacity:1"
     d="M -17.428847,3.2576832 -133.11006,-12.622282"
     id="path6557"
     inkscape:connector-curvature="0"
     sodipodi:nodetypes="cc" />
  <path
     style="fill:none;stroke:#0000ff;stroke-width:16;stroke-linecap:butt;stroke-linejoin:miter;stroke-opacity:1;stroke-miterlimit:4;stroke-dasharray:none;opacity:0.621"
     d="m -133.11006,-12.622282 -60.4258,-8.657167"
     id="path6559"
     inkscape:connector-curvature="0" />
  <path
     style="opacity:0.522;fill:none;stroke:#ff0000;stroke-width:18;stroke-linecap:butt;stroke-linejoin:miter;stroke-miterlimit:4;stroke-dasharray:none;stroke-opacity:1"
     d="M -195.61331,-4.3988502 -279.51677,-16.005779"
     id="path6563"
     inkscape:connector-curvature="0"
     sodipodi:nodetypes="cc" />
  <path
     style="opacity:0.5699999;fill:none;stroke:#ff0000;stroke-width:16;stroke-linecap:butt;stroke-linejoin:miter;stroke-miterlimit:4;stroke-dasharray:none;stroke-opacity:1"
     d="M -197.79845,12.182718 -281.89592,0.76784794"
     id="path6565"
     inkscape:connector-curvature="0"
     sodipodi:nodetypes="cc" />
  <path
     style="opacity:0.57700004;fill:none;stroke:#7f00ff;stroke-width:16;stroke-linecap:butt;stroke-linejoin:miter;stroke-miterlimit:4;stroke-dasharray:none;stroke-opacity:1"
     d="M -193.53586,-21.279449 -276.9287,-32.881933"
     id="path6567"
     inkscape:connector-curvature="0"
     sodipodi:nodetypes="cc" />
  <path
     style="opacity:0.48900003;fill:none;stroke:#0000ff;stroke-width:18;stroke-linecap:butt;stroke-linejoin:miter;stroke-miterlimit:4;stroke-dasharray:none;stroke-opacity:1"
     d="m -279.51677,-16.005779 -90.16065,-13.026479"
     id="path6571"
     inkscape:connector-curvature="0"
     sodipodi:nodetypes="cc" />
  <path
     style="opacity:0.69499996;fill:none;stroke:#7f00ff;stroke-width:16;stroke-linecap:butt;stroke-linejoin:miter;stroke-miterlimit:4;stroke-dasharray:none;stroke-opacity:1"
     d="M -281.89592,0.76784794 -372.25806,-12.258065"
     id="path6573"
     inkscape:connector-curvature="0"
     sodipodi:nodetypes="cc" />
  <path
     style="opacity:0.56199999;fill:none;stroke:#ff007f;stroke-width:16;stroke-linecap:butt;stroke-linejoin:miter;stroke-miterlimit:4;stroke-dasharray:none;stroke-opacity:1"
     d="m -276.9287,-32.881933 -90.51517,-12.972989"
     id="path6575"
     inkscape:connector-curvature="0"
     sodipodi:nodetypes="cc" />
  <path
     style="opacity:0.58499995;fill:none;stroke:#ff7f00;stroke-width:16;stroke-linecap:butt;stroke-linejoin:miter;stroke-miterlimit:4;stroke-dasharray:none;stroke-opacity:1"
     d="m 340.96654,37.98914 c 0,0 -10.64297,-2.977664 -16.05305,-4.079105 -2.88643,-0.587649 -5.81937,-0.918459 -8.73389,-1.345521 -7.34626,-1.076442 -14.70651,-2.055225 -22.06195,-3.066991 C 285.06522,28.25233 276.00917,27.033568 266.95502,25.800955 132.23674,7.4606928 -2.554192,-10.35407 -137.19723,-29.238754 c -5.65489,-0.79314 -11.28766,-1.748681 -16.95502,-2.447183 -6.31034,-0.777749 -12.62075,-1.728195 -18.97529,-1.940669 -10.4575,-0.349662 -20.91185,0.795018 -31.37073,1.100654 -9.33695,0.27285 -18.67916,0.350959 -28.01516,0.654487 -6.92276,0.225069 -13.83605,0.994851 -20.76125,0.865052 -7.90803,-0.14822 -23.65402,-1.87552 -23.65402,-1.87552"
     id="path6577"
     inkscape:connector-curvature="0"
     sodipodi:nodetypes="caaaaaaaaaac" />
</svg>
