<?xml version="1.0" encoding="UTF-8" standalone="no"?>
<!-- Created with Inkscape (http://www.inkscape.org/) -->

<svg
   xmlns:dc="http://purl.org/dc/elements/1.1/"
   xmlns:cc="http://creativecommons.org/ns#"
   xmlns:rdf="http://www.w3.org/1999/02/22-rdf-syntax-ns#"
   xmlns:svg="http://www.w3.org/2000/svg"
   xmlns="http://www.w3.org/2000/svg"
   xmlns:xlink="http://www.w3.org/1999/xlink"
   xmlns:sodipodi="http://sodipodi.sourceforge.net/DTD/sodipodi-0.dtd"
   xmlns:inkscape="http://www.inkscape.org/namespaces/inkscape"
   version="1.1"
   id="svg3882"
   width="350"
   height="350"
   viewBox="0 0 350 350"
   sodipodi:docname="i7757610_-363720.svg"
   inkscape:version="0.92.2 (unknown)">
  <metadata
     id="metadata3888">
    <rdf:RDF>
      <cc:Work
         rdf:about="">
        <dc:format>image/svg+xml</dc:format>
        <dc:type
           rdf:resource="http://purl.org/dc/dcmitype/StillImage" />
        <dc:title></dc:title>
      </cc:Work>
    </rdf:RDF>
  </metadata>
  <defs
     id="defs3886" />
  <sodipodi:namedview
     pagecolor="#ffffff"
     bordercolor="#666666"
     borderopacity="1"
     objecttolerance="10"
     gridtolerance="10"
     guidetolerance="10"
     inkscape:pageopacity="0"
     inkscape:pageshadow="2"
     inkscape:window-width="1855"
     inkscape:window-height="1056"
     id="namedview3884"
     showgrid="false"
     inkscape:zoom="1.3057143"
     inkscape:cx="135.33055"
     inkscape:cy="257.36418"
     inkscape:window-x="65"
     inkscape:window-y="24"
     inkscape:window-maximized="1"
     inkscape:current-layer="svg3882" />
  <image
     width="350"
     height="350"
     preserveAspectRatio="none"
     xlink:href="carmen_lcad/data/road_mapper_remission_350px/voltadaufes/i7757610_-363720.png"
     id="image3890"
     x="0"
     y="0"
     sodipodi:absref="carmen_lcad/data/road_mapper_remission_350px/voltadaufes/i7757610_-363720.png" />
  <image
     width="350"
     height="350"
     preserveAspectRatio="none"
     xlink:href="carmen_lcad/data/road_mapper_remission_350px/voltadaufes/i7757540_-363720.png"
     id="image2948"
     x="-350"
     y="0"
     sodipodi:absref="carmen_lcad/data/road_mapper_remission_350px/voltadaufes/i7757540_-363720.png" />
  <image
     width="350"
     height="350"
     preserveAspectRatio="none"
     xlink:href="carmen_lcad/data/road_mapper_remission_350px/voltadaufes/i7757470_-363720.png"
     id="image2709"
     x="-700.00006"
     y="0"
     sodipodi:absref="carmen_lcad/data/road_mapper_remission_350px/voltadaufes/i7757470_-363720.png" />
  <image
     width="350"
     height="350"
     preserveAspectRatio="none"
     xlink:href="carmen_lcad/data/road_mapper_remission_350px/voltadaufes/i7757470_-363650.png"
     id="image2112"
     x="-700.00006"
     y="-350"
     sodipodi:absref="carmen_lcad/data/road_mapper_remission_350px/voltadaufes/i7757470_-363650.png" />
  <image
     width="350"
     height="350"
     preserveAspectRatio="none"
     xlink:href="carmen_lcad/data/road_mapper_remission_350px/voltadaufes/i7757400_-363650.png"
     id="image1882"
     x="-1050"
     y="-350"
     sodipodi:absref="carmen_lcad/data/road_mapper_remission_350px/voltadaufes/i7757400_-363650.png" />
  <image
     width="350"
     height="350"
     preserveAspectRatio="none"
     xlink:href="carmen_lcad/data/road_mapper_remission_350px/voltadaufes/i7757400_-363580.png"
     id="image1664"
     x="-1050"
     y="-700"
     sodipodi:absref="carmen_lcad/data/road_mapper_remission_350px/voltadaufes/i7757400_-363580.png" />
  <path
     style="display:none;opacity:0.28999999;fill:none;stroke:#00ff00;stroke-width:25;stroke-linecap:butt;stroke-linejoin:miter;stroke-miterlimit:4;stroke-dasharray:none;stroke-opacity:1"
     d="m -4779.9479,23188.007 -35.7089,-9.988"
     id="path2589"
     inkscape:connector-curvature="0" />
  <path
     style="opacity:0.53699999;fill:none;stroke:#ff0000;stroke-width:18;stroke-linecap:butt;stroke-linejoin:miter;stroke-miterlimit:4;stroke-dasharray:none;stroke-opacity:1"
     d="m -1316.734,-771.3608 c 13.1872,4.21713 21.1271,5.75017 31.4753,9.30026 16.4863,5.65586 32.6952,12.13981 48.6804,19.08672 15.2131,6.61137 30.3135,13.55961 44.8895,21.47726 10.2247,5.55399 20.0147,11.88505 29.7784,18.21437 13.7022,8.88243 27.2899,17.97222 40.3946,27.71466 7.1456,5.31229 14.199,10.78169 20.8167,16.73872 9.6379,8.67572 18.8613,17.85435 27.4207,27.5957 10.1738,11.57865 18.877,24.37093 28.3355,36.54088 8.146,10.48111 16.3023,20.95413 24.4722,31.41657 4.7654,6.10265 6.8539,9.11706 14.3182,18.29086"
     id="path1485"
     inkscape:connector-curvature="0"
     sodipodi:nodetypes="caaaaaaaaac" />
  <path
     style="opacity:0.53299997;fill:none;stroke:#ff0000;stroke-width:18;stroke-linecap:butt;stroke-linejoin:miter;stroke-miterlimit:4;stroke-dasharray:none;stroke-opacity:1"
     d="m -992.36231,-556.54197 c -9.60589,-11.86335 -12.66509,-15.61258 -18.89529,-23.49562 -8.6635,-10.96197 -16.8544,-22.29033 -25.4295,-33.32162 -7.876,-10.13202 -15.3668,-20.59742 -23.8978,-30.18448 -7.1456,-8.03016 -14.7724,-15.6543 -22.7858,-22.81869 -10.4005,-9.29859 -21.5545,-17.73433 -32.7297,-26.08604 -10.2431,-7.65518 -20.7693,-14.93478 -31.429,-21.99839 -8.0268,-5.31895 -16.1449,-10.51514 -24.479,-15.33839 -10.7987,-6.24965 -21.8806,-12.00889 -33.0344,-17.6003 -9.0958,-4.55975 -18.3117,-8.88594 -27.6189,-12.99714 -9.2914,-4.10424 -12.6818,-6.33666 -28.1605,-11.64328"
     id="path1487"
     inkscape:connector-curvature="0"
     sodipodi:nodetypes="csaaaaaaaac" />
  <path
     style="opacity:0.603;fill:none;stroke:#00ff7f;stroke-width:18;stroke-linecap:butt;stroke-linejoin:miter;stroke-miterlimit:4;stroke-dasharray:none;stroke-opacity:1"
     d="m -1006.1525,-544.9848 c 19.34039,24.26019 32.44299,42.44887 56.79399,73.39415"
     id="path1848"
     inkscape:connector-curvature="0"
     sodipodi:nodetypes="cc" />
  <path
     style="opacity:0.48900003;fill:none;stroke:#ff0000;stroke-width:18;stroke-linecap:butt;stroke-linejoin:miter;stroke-miterlimit:4;stroke-dasharray:none;stroke-opacity:1"
     d="m -949.35851,-471.59065 c 44.2998,54.5423 84.0144,109.85473 125.2406,163.56953 43.4802,56.65152 88.0479,111.0986 131.3458,169.256"
     id="path1850"
     inkscape:connector-curvature="0"
     sodipodi:nodetypes="csc" />
  <path
     style="opacity:0.55100002;fill:none;stroke:#00ff7f;stroke-width:18;stroke-linecap:butt;stroke-linejoin:miter;stroke-miterlimit:4;stroke-dasharray:none;stroke-opacity:1"
     d="m -693.10721,-139.00442 c 14.1177,20.7708 20.5744,29.0553 32.0349,42.6488 10.2629,12.173 16.0059,16.5466 32.7928,34.7307"
     id="path1852"
     inkscape:connector-curvature="0"
     sodipodi:nodetypes="cac" />
  <path
     style="opacity:0.56600001;fill:none;stroke:#ff007f;stroke-width:18;stroke-linecap:butt;stroke-linejoin:miter;stroke-miterlimit:4;stroke-dasharray:none;stroke-opacity:1"
     d="m -615.53061,-73.24832 c -16.6406,-18.8431 -24.0319,-24.8984 -35.0559,-38.2122 -9.9453,-12.011 -15.266,-19.898 -27.9693,-37.5002"
     id="path1854"
     inkscape:connector-curvature="0"
     sodipodi:nodetypes="cac" />
  <path
     style="opacity:0.53299997;fill:none;stroke:#ff0000;stroke-width:18;stroke-linecap:butt;stroke-linejoin:miter;stroke-miterlimit:4;stroke-dasharray:none;stroke-opacity:1"
     d="m -678.55581,-148.96072 c -52.4615,-70.0857 -85.6541,-109.98667 -127.8993,-165.42664 -42.7468,-56.09812 -75.738,-101.40175 -128.9825,-168.33154"
     id="path1856"
     inkscape:connector-curvature="0"
     sodipodi:nodetypes="csc" />
  <path
     style="opacity:0.55500034;fill:none;stroke:#ff007f;stroke-width:18;stroke-linecap:butt;stroke-linejoin:miter;stroke-miterlimit:4;stroke-dasharray:none;stroke-opacity:1"
     d="m -935.43761,-482.7189 c -27.4783,-35.82803 -37.7424,-49.31492 -56.9247,-73.82307"
     id="path1858"
     inkscape:connector-curvature="0"
     sodipodi:nodetypes="cc" />
  <path
     style="opacity:0.522;fill:none;stroke:#ff7f00;stroke-width:19;stroke-linecap:butt;stroke-linejoin:miter;stroke-miterlimit:4;stroke-dasharray:none;stroke-opacity:1"
     d="m -1006.1525,-544.9848 c 4.9072,6.12698 5.8375,9.16042 6.51649,14.37853 0.5963,4.58351 -0.53169,9.40424 -2.30159,13.67409 -1.8462,4.45373 -5.4594,7.95351 -8.394,11.77866 -4.6635,6.0785 -9.3881,12.13849 -14.6244,17.73102 -3.6007,3.8456 -3.1209,3.94546 -11.5053,10.83563"
     id="path1860"
     inkscape:connector-curvature="0"
     sodipodi:nodetypes="caaaac" />
  <path
     style="opacity:0.5;fill:none;stroke:#ff7f00;stroke-width:19;stroke-linecap:butt;stroke-linejoin:miter;stroke-miterlimit:4;stroke-dasharray:none;stroke-opacity:1"
     d="m -1024.0057,-462.10047 c 9.8343,-9.21105 12.3579,-11.22093 19.4957,-15.43412 4.4245,-2.61161 9.26429,-4.58562 14.21569,-5.95702 3.6473,-1.01021 7.4544,-1.74845 11.2371,-1.62464 6.0863,0.19922 12.3846,1.14849 17.871,3.79084 4.6005,2.21564 5.3001,1.66616 11.8277,9.73476"
     id="path1862"
     inkscape:connector-curvature="0"
     sodipodi:nodetypes="caaaac" />
  <path
     style="opacity:0.38200001;fill:none;stroke:#00ff00;stroke-width:23.5;stroke-linecap:butt;stroke-linejoin:miter;stroke-miterlimit:4;stroke-dasharray:none;stroke-opacity:1"
     d="m -1020.9242,-478.00412 c 14.9922,-11.91394 27.07969,-19.79958 35.15369,-26.03627"
     id="path1864"
     inkscape:connector-curvature="0"
     sodipodi:nodetypes="cc" />
  <path
     style="opacity:0.61400003;fill:none;stroke:#ff7f00;stroke-width:18;stroke-linecap:butt;stroke-linejoin:miter;stroke-miterlimit:4;stroke-dasharray:none;stroke-opacity:1"
     d="m -693.10721,-139.00442 c 5.7374,8.6707 8.4269,17.256 9.5733,26.6138 0.4212,3.4385 0.054,7.0567 -1.0531,10.3391 -2.3447,6.9488 -6.6313,13.2686 -11.4879,18.7637 -6.1057,6.9084 -9.1262,7.7526 -21.6357,17.232"
     id="path2090"
     inkscape:connector-curvature="0"
     sodipodi:nodetypes="caaac" />
  <path
     style="opacity:0.58499995;fill:none;stroke:#ff7f00;stroke-width:18;stroke-linecap:butt;stroke-linejoin:miter;stroke-miterlimit:4;stroke-dasharray:none;stroke-opacity:1"
     d="m -706.70131,-53.32332 c 11.2902,-10.0146 12.6882,-12.0043 20.2954,-16.0832 5.9143,-3.1712 12.4664,-5.5827 19.1466,-6.2226 6.9778,-0.6685 14.2682,0.2279 20.8698,2.5847 6.7211,2.3995 9.68,2.2626 18.11,11.4195"
     id="path2092"
     inkscape:connector-curvature="0"
     sodipodi:nodetypes="caaac" />
  <path
     style="opacity:0.37099998;fill:none;stroke:#00ff00;stroke-width:20;stroke-linecap:butt;stroke-linejoin:miter;stroke-miterlimit:4;stroke-dasharray:none;stroke-opacity:1"
     d="m -688.03341,-78.69262 c 6.0587,-4.9147 13.8902,-9.506 18.7637,-13.6898"
     id="path2094"
     inkscape:connector-curvature="0"
     sodipodi:nodetypes="cc" />
  <image
     sodipodi:absref="carmen_lcad/data/road_mapper_remission_350px/voltadaufes/i7757400_-363720.png"
     y="-0.00012207031"
     x="-1050"
     id="image2502"
     xlink:href="carmen_lcad/data/road_mapper_remission_350px/voltadaufes/i7757400_-363720.png"
     preserveAspectRatio="none"
     height="350"
     width="350" />
  <image
     sodipodi:absref="carmen_lcad/data/road_mapper_remission_350px/voltadaufes/i7757540_-363650.png"
     y="-350"
     x="-350"
     id="image2632"
     xlink:href="carmen_lcad/data/road_mapper_remission_350px/voltadaufes/i7757540_-363650.png"
     preserveAspectRatio="none"
     height="350"
     width="350" />
  <path
     style="opacity:0.5;fill:none;stroke:#ff0000;stroke-width:18;stroke-linecap:butt;stroke-linejoin:miter;stroke-miterlimit:4;stroke-dasharray:none;stroke-opacity:1"
     d="m -628.27951,-61.62492 c 12.1468,12.3357 23.2519,21.2029 35.6486,30.8664 10.2229,7.969 20.8815,15.4032 31.8585,22.2963996 8.679,5.4503 17.7037,10.3499 26.8202,15.032 8.4333,4.3311004 16.9779,8.4827004 25.7559,12.0642004 12.0543,4.9182 24.3647,9.2614 36.8637,12.9042 10.2195,2.9784 20.6527,5.2023 31.0897,7.2945 12.5343,2.5125 25.167,4.5451 37.8286,6.3071 13.26323,1.8458 26.55677,3.67182 39.92438,4.4638 20.98985,1.24356 42.05248,0.61466 63.07843,0.44215 20.49205,-0.16813 34.1832,-0.70297 61.46138,-1.43956"
     id="path2635"
     inkscape:connector-curvature="0"
     sodipodi:nodetypes="caaaaaaaaac" />
  <path
     style="opacity:0.51099997;fill:none;stroke:#ff0000;stroke-width:18;stroke-linecap:butt;stroke-linejoin:miter;stroke-miterlimit:4;stroke-dasharray:none;stroke-opacity:1"
     d="m -292.43303,32.22152 c -20.76021,0.38133 -37.14134,0.94334 -55.68935,0.19184 -15.7884,-0.6397 -31.57089,-1.92111 -47.23519,-3.99775 -18.90244,-2.50593 -37.74214,-5.76294 -56.28784,-10.19453 -13.0763,-3.12464 -26.0587,-6.8175 -38.6498,-11.5311004 -14.015,-5.2466 -27.7204,-11.4334 -40.8733,-18.5712996 -15.8474,-8.6001 -31.0757,-18.4119 -45.5998,-29.0962 -13.6813,-10.0643 -20.3065,-14.3398 -38.9538,-32.8452"
     id="path2637"
     inkscape:connector-curvature="0"
     sodipodi:nodetypes="caaaaaac" />
  <image
     width="350"
     height="350"
     preserveAspectRatio="none"
     xlink:href="carmen_lcad/data/road_mapper_remission_350px/voltadaufes/i7757610_-363650.png"
     id="image37"
     x="0"
     y="-350"
     sodipodi:absref="carmen_lcad/data/road_mapper_remission_350px/voltadaufes/i7757610_-363650.png" />
  <path
     style="opacity:0.456;fill:none;stroke:#7fff00;stroke-width:16;stroke-linecap:butt;stroke-linejoin:miter;stroke-miterlimit:4;stroke-dasharray:none;stroke-opacity:1"
     d="m 204.67724,-138.23851 c 28.71138,-22.27571 34.9211,-29.14932 53.03611,-42.88841 9.48176,-7.19132 19.52043,-13.6217 29.10284,-20.67834 17.45289,-12.8526 34.24431,-26.58758 51.69585,-39.44201 10.46575,-7.70885 31.78337,-22.59299 31.78337,-22.59299"
     id="path39"
     inkscape:connector-curvature="0"
     sodipodi:nodetypes="caaac" />
  <path
     style="opacity:0.62900002;fill:none;stroke:#7fff00;stroke-width:16;stroke-linecap:butt;stroke-linejoin:miter;stroke-miterlimit:4;stroke-dasharray:none;stroke-opacity:1"
     d="m 367.61488,-282.22101 c 0,0 -32.7834,23.85336 -49.01531,35.99563 -16.19067,12.11142 -32.2046,24.45755 -48.24946,36.76149 -19.06465,14.61967 -38.09379,29.28603 -57.05689,44.03719 -16.00288,12.44846 -31.78457,25.18122 -47.86652,37.52736 -18.55402,14.24396 -29.50045,23.65397 -56.09393,42.16335"
     id="path4535"
     inkscape:connector-curvature="0"
     sodipodi:nodetypes="caaaac" />
  <path
     style="opacity:0.55100002;fill:none;stroke:#ff0000;stroke-width:14;stroke-linecap:butt;stroke-linejoin:miter;stroke-miterlimit:4;stroke-dasharray:none;stroke-opacity:1"
     d="m 148.37213,-116.08475 c -4.19658,3.25725 -7.49648,6.44649 -12.02574,8.17034 -4.29839,1.63597 -9.09916,1.38732 -13.68011,1.79651 -5.86495,0.5239 -11.77807,0.3382 -17.6449,0.84058 -6.750232,0.57803 -13.679022,0.55986 -20.170642,2.49855 -6.86461,2.05008 -13.02122,6.01063 -19.28527,9.48732 -8.79426,4.88101 -16.84981,11.01696 -25.62583,15.93068 -9.29751,5.20571 -18.85464,9.96548 -28.57803,14.32422 -10.83185001,4.85563 -21.90161,9.19657 -33.09451,13.14941 -18.59907,6.56839 -37.59938,11.94938 -56.51813,17.5306 -25.314978,7.46818 -54.717458,16.16539 -76.248898,21.34725"
     id="path4712"
     inkscape:connector-curvature="0"
     sodipodi:nodetypes="caaaaaaaaac" />
  <path
     style="opacity:0.53699999;fill:none;stroke:#7fff00;stroke-width:17;stroke-linecap:butt;stroke-linejoin:miter;stroke-miterlimit:4;stroke-dasharray:none;stroke-opacity:1"
     d="m -197.30673,27.93083 c -12.4302,1.61314 -15.74782,1.89038 -23.65025,2.5327 -6.62324,0.53835 -13.26377,0.86661 -19.90453,1.10633 -8.45508,0.30521 -16.91834,0.31494 -25.37825,0.42237 -8.73072,0.11086 -12.42295,0.43497 -26.19327,0.22929"
     id="path3465"
     inkscape:connector-curvature="0"
     sodipodi:nodetypes="caaac" />
  <path
     style="opacity:0.55899999;fill:none;stroke:#ff0000;stroke-width:17;stroke-linecap:butt;stroke-linejoin:miter;stroke-miterlimit:4;stroke-dasharray:none;stroke-opacity:1"
     d="m -238.69516,48.40308 c 8.96935,-0.29886 23.36124,-1.29751 34.97525,-2.64269 9.43292,-1.09255 18.78463,-2.80763 28.14551,-4.40372 8.31704,-1.4181 16.62813,-2.88759 24.89059,-4.59518 10.64358,-2.19969 21.21163,-4.75332 31.78338,-7.27571 9.53076,-2.27402 19.056678,-4.57581 28.528438,-7.08425 8.65251,-2.29148 17.23892,-4.82582 25.84792,-7.27571 9.32565,-2.65384 15.25355,-4.12703 27.95405,-8.0415804"
     id="path3467"
     inkscape:connector-curvature="0"
     sodipodi:nodetypes="caaaaaac" />
  <path
     style="opacity:0.36400003;fill:none;stroke:#ff0000;stroke-width:17;stroke-linecap:butt;stroke-linejoin:miter;stroke-miterlimit:4;stroke-dasharray:none;stroke-opacity:1"
     d="m -179.30799,24.98632 c -8.26518,1.55591 -9.8074,1.86728 -17.99874,2.94451"
     id="path3469"
     inkscape:connector-curvature="0"
     sodipodi:nodetypes="cc" />
  <path
     style="opacity:0.54000005;fill:none;stroke:#7fff00;stroke-width:17;stroke-linecap:butt;stroke-linejoin:miter;stroke-miterlimit:4;stroke-dasharray:none;stroke-opacity:1"
     d="m -126.47612,13.83416 c -8.84528,2.03081 -15.8516,3.85221 -23.8281,5.55087 -9.63061,2.05091 -18.04729,3.74741 -29.00377,5.60129"
     id="path3471"
     inkscape:connector-curvature="0"
     sodipodi:nodetypes="cac" />
  <path
     style="opacity:0.50700001;fill:none;stroke:#7fff00;stroke-width:17;stroke-linecap:butt;stroke-linejoin:miter;stroke-miterlimit:4;stroke-dasharray:none;stroke-opacity:1"
     d="m -36.570022,7.0842396 c 9.11024,-2.80433 16.20726,-5.15853 24.28003,-7.83220997 6.10325,-2.02139003 7.84165,-2.44335003 18.26198,-6.20657003"
     id="path3475"
     inkscape:connector-curvature="0"
     sodipodi:nodetypes="cac" />
  <path
     style="opacity:0.55100002;fill:none;stroke:#ff0000;stroke-width:17;stroke-linecap:butt;stroke-linejoin:miter;stroke-miterlimit:4;stroke-dasharray:none;stroke-opacity:1"
     d="m -88.364422,81.72317 c 10.2851,-6.53848 16.12253,-10.57423 24.08789,-16.00385 6.76754,-4.61312 13.45435,-9.344 20.13679,-14.07956 9.39451,-6.65749 18.78449,-13.32346 28.05659,-20.15039 10.33186,-7.60722 17.81052,-12.61952 30.7235,-23.1866404"
     id="path3477"
     inkscape:connector-curvature="0"
     sodipodi:nodetypes="caaac" />
  <path
     style="opacity:0.48500001;fill:none;stroke:#ff0000;stroke-width:17;stroke-linecap:butt;stroke-linejoin:miter;stroke-miterlimit:4;stroke-dasharray:none;stroke-opacity:1"
     d="m -29.809832,21.00967 c -12.71735,9.12508 -22.16605,15.6681 -33.30519,23.42195 -11.42466,7.95259 -20.08348,14.11568 -34.38829,23.69272"
     id="path3479"
     inkscape:connector-curvature="0"
     sodipodi:nodetypes="cac" />
  <path
     style="opacity:0.522;fill:none;stroke:#00ff7f;stroke-width:17;stroke-linecap:butt;stroke-linejoin:miter;stroke-miterlimit:4;stroke-dasharray:none;stroke-opacity:1"
     d="m 5.971988,-6.9545404 c 10.16759,-3.5864296 14.81582,-6.1241096 22.07779,-9.5115396 7.81813,-3.64687 15.50265,-7.58112 23.11952,-11.63157 9.64387,-5.12835 18.50503,-9.31528 28.57633,-16.03528"
     id="path3481"
     inkscape:connector-curvature="0"
     sodipodi:nodetypes="caac" />
  <path
     style="opacity:0.59200003;fill:none;stroke:#7fff00;stroke-width:17;stroke-linecap:butt;stroke-linejoin:miter;stroke-miterlimit:4;stroke-dasharray:none;stroke-opacity:1"
     d="m 79.745628,-44.13293 c 13.21116,-8.98565 20.19457,-14.26913 30.169512,-21.57279 8.82787,-6.46377 17.50556,-13.13021 26.2637,-19.68815 9.8091,-7.34489 19.72228,-14.55234 29.43932,-22.0186 13.15194,-10.10553 22.20437,-17.63767 39.05908,-30.82604"
     id="path3483"
     inkscape:connector-curvature="0"
     sodipodi:nodetypes="caaac" />
  <path
     style="opacity:0.51099997;fill:none;stroke:#ff7f00;stroke-width:17;stroke-linecap:butt;stroke-linejoin:miter;stroke-miterlimit:4;stroke-dasharray:none;stroke-opacity:1"
     d="m 14.640348,8.3027296 c 21.05216,-16.37791 28.58308,-21.0403396 42.79947,-31.6615896 17.74162,-13.255 35.68244,-27.35345 53.419042,-41.16521 13.68015,-10.65294 27.22074,-21.48407 40.87801,-32.1663 11.30263,-8.84051 16.28854,-12.65453 33.98523,-26.42232"
     id="path3485"
     inkscape:connector-curvature="0"
     sodipodi:nodetypes="csaac" />
  <path
     style="opacity:0.56199999;fill:none;stroke:#7fff00;stroke-width:17;stroke-linecap:butt;stroke-linejoin:miter;stroke-miterlimit:4;stroke-dasharray:none;stroke-opacity:1"
     d="M 4.300878,-4.9025004 C -7.722912,4.2920296 -19.215112,13.02862 -29.809832,21.00967"
     id="path3487"
     inkscape:connector-curvature="0"
     sodipodi:nodetypes="cc" />
  <path
     style="opacity:0.52600002;fill:none;stroke:#ff0000;stroke-width:17;stroke-linecap:butt;stroke-linejoin:miter;stroke-miterlimit:4;stroke-dasharray:none;stroke-opacity:1"
     d="m -0.17651201,-22.75997 c -10.20698999,3.77129 -12.12669999,4.09291 -18.19345999,6.12925 -7.82685,2.62712 -15.60174,5.41645 -23.4893,7.8552596 -7.76767,2.40174 -15.64402,4.43684 -23.4616,6.6708 -9.50807,2.71704003 -18.94795,5.68127 -28.51338,8.18892 -10.817538,2.83589 -17.782518,4.2289404 -32.641868,7.7499004"
     id="path3489"
     inkscape:connector-curvature="0"
     sodipodi:nodetypes="caaaac" />
  <path
     style="opacity:0.58499995;fill:none;stroke:#ff007f;stroke-width:17;stroke-linecap:butt;stroke-linejoin:miter;stroke-miterlimit:4;stroke-dasharray:none;stroke-opacity:1"
     d="m 70.864818,-58.19851 c -11.1392,6.77872 -17.43106,10.13067 -26.33078,14.85972 -7.41391,3.93953 -14.90515,7.74615 -22.5343,11.25073 -7.28732,3.34754 -9.36257,4.28984 -22.17625001,9.32809"
     id="path3491"
     inkscape:connector-curvature="0"
     sodipodi:nodetypes="caac" />
  <path
     style="opacity:0.478;fill:none;stroke:#ff7f00;stroke-width:18;stroke-linecap:butt;stroke-linejoin:miter;stroke-miterlimit:4;stroke-dasharray:none;stroke-opacity:1"
     d="m -201.03939,3.2549196 c -18.95173,5.84133 -26.79121,8.0886704 -40.20787,12.0623704 -7.52279,2.22806 -15.15205,4.11323 -22.59169,6.6049 -8.59568,2.87883 -16.13447,5.90106 -25.43316,9.62884"
     id="path3493"
     inkscape:connector-curvature="0"
     sodipodi:nodetypes="caac" />
  <path
     style="opacity:0.43800001;fill:none;stroke:#00ff00;stroke-width:16;stroke-linecap:butt;stroke-linejoin:miter;stroke-miterlimit:4;stroke-dasharray:none;stroke-opacity:1"
     d="m -153.41683,-10.33236 c -10.92986,2.4668396 -16.72713,4.0443396 -24.2637,6.3115696 -7.80952,2.34935 -17.3444,4.54295003 -25.65771,7.27571"
     id="path3495"
     inkscape:connector-curvature="0"
     sodipodi:nodetypes="csc" />
  <path
     style="opacity:0.51099997;fill:none;stroke:#ff0000;stroke-width:16;stroke-linecap:butt;stroke-linejoin:miter;stroke-miterlimit:4;stroke-dasharray:none;stroke-opacity:1"
     d="m -191.75329,-26.13512 c -1.49659,-7.37467 -2.87138,-14.29675 -4.21225,-22.40153"
     id="path3497"
     inkscape:connector-curvature="0"
     sodipodi:nodetypes="cc" />
  <path
     style="opacity:0.478;fill:none;stroke:#ff7f00;stroke-width:17;stroke-linecap:butt;stroke-linejoin:miter;stroke-miterlimit:4;stroke-dasharray:none;stroke-opacity:1"
     d="m -126.47612,13.83416 c -5.60899,1.34146 -8.94715,0.63446 -13.26526,-0.32336 -3.4574,-0.76691 -6.78281,-2.28036 -9.73447,-4.2562804 -4.00874,-2.68356 -8.89153,-4.44514 -10.45961,-10.00498997"
     id="path3499"
     inkscape:connector-curvature="0"
     sodipodi:nodetypes="casc" />
  <path
     style="opacity:0.57399998;fill:none;stroke:#ff7f00;stroke-width:16;stroke-linecap:butt;stroke-linejoin:miter;stroke-miterlimit:4;stroke-dasharray:none;stroke-opacity:1"
     d="m -153.41683,-10.33236 c -8.6373,1.9652396 -12.03402,1.6186896 -17.91002,0.5477596 -4.66092,-0.8494696 -9.47677,-2.4136896 -13.13972,-5.4184396 -3.38588,-2.77747 -6.04557,-4.96249 -7.28672,-10.93208"
     id="path3501"
     inkscape:connector-curvature="0"
     sodipodi:nodetypes="caac" />
  <path
     style="opacity:0.55899999;fill:none;stroke:#ff7f00;stroke-width:17;stroke-linecap:butt;stroke-linejoin:miter;stroke-miterlimit:4;stroke-dasharray:none;stroke-opacity:1"
     d="m -191.75329,-26.13512 c 1.2678,7.37659 1.19158,8.52566 0.56555,12.72516 -0.47944,3.21615 -1.40378,6.5232896 -3.2567,9.1953996 -2.20608,3.1814 -5.09538,6.27357 -8.8938,7.46948"
     id="path3503"
     inkscape:connector-curvature="0"
     sodipodi:nodetypes="caac" />
  <path
     style="opacity:0.5;fill:none;stroke:#ff7f00;stroke-width:22;stroke-linecap:butt;stroke-linejoin:miter;stroke-miterlimit:4;stroke-dasharray:none;stroke-opacity:1"
     d="m -173.47125,3.0921896 c 1.97348,6.9173304 1.89995,4.12205 3.27795,11.6529604"
     id="path3505"
     inkscape:connector-curvature="0"
     sodipodi:nodetypes="cc" />
  <path
     style="opacity:0.43399999;fill:none;stroke:#00ff00;stroke-width:18;stroke-linecap:butt;stroke-linejoin:miter;stroke-miterlimit:4;stroke-dasharray:none;stroke-opacity:1"
     d="m -200.99282,10.94094 c -15.72585,4.34442 -25.80709,6.94271 -38.74187,10.29505 -8.04833,2.0859 -16.05334,4.36696 -24.18296,6.10936 -7.8687,1.68647 -14.72706,3.59697 -23.77424,4.19887"
     id="path3509"
     inkscape:connector-curvature="0"
     sodipodi:nodetypes="caac" />
  <path
     style="opacity:0.61000001;fill:none;stroke:#ff7f00;stroke-width:15;stroke-linecap:butt;stroke-linejoin:miter;stroke-miterlimit:4;stroke-dasharray:none;stroke-opacity:1"
     d="m -198.08429,152.682 c 18.11968,-15.80408 34.8659,-27.84165 54.02298,-41.18775"
     id="path3511"
     inkscape:connector-curvature="0"
     sodipodi:nodetypes="cc" />
  <path
     style="opacity:0.47099998;fill:none;stroke:#ff7f00;stroke-width:16.5;stroke-linecap:butt;stroke-linejoin:miter;stroke-miterlimit:4;stroke-dasharray:none;stroke-opacity:1"
     d="M -145.88123,112.06896 C -124.885,101.20985 -105.3017,90.74218 -85.586642,80.09482"
     id="path3513"
     inkscape:connector-curvature="0"
     sodipodi:nodetypes="cc" />
  <path
     style="opacity:0.54000005;fill:none;stroke:#ff7f00;stroke-width:16.60000038;stroke-linecap:butt;stroke-linejoin:miter;stroke-miterlimit:4;stroke-dasharray:none;stroke-opacity:1"
     d="M -93.869732,65.70881 C -113.3598,76.69674 -133.41371,86.52764 -153.73563,101.14942"
     id="path3515"
     inkscape:connector-curvature="0"
     sodipodi:nodetypes="cc" />
  <path
     style="opacity:0.49300005;fill:none;stroke:#ff7f00;stroke-width:15;stroke-linecap:butt;stroke-linejoin:miter;stroke-miterlimit:4;stroke-dasharray:none;stroke-opacity:1"
     d="m -152.49042,99.52107 c 0,0 -19.13673,12.95971 -28.35249,19.92337 -9.21804,6.96539 -26.91571,21.83908 -26.91571,21.83908"
     id="path3517"
     inkscape:connector-curvature="0"
     sodipodi:nodetypes="cac" />
</svg>
