<?xml version="1.0" encoding="UTF-8" standalone="no"?>
<!-- Created with Inkscape (http://www.inkscape.org/) -->

<svg
   xmlns:dc="http://purl.org/dc/elements/1.1/"
   xmlns:cc="http://creativecommons.org/ns#"
   xmlns:rdf="http://www.w3.org/1999/02/22-rdf-syntax-ns#"
   xmlns:svg="http://www.w3.org/2000/svg"
   xmlns="http://www.w3.org/2000/svg"
   xmlns:xlink="http://www.w3.org/1999/xlink"
   xmlns:sodipodi="http://sodipodi.sourceforge.net/DTD/sodipodi-0.dtd"
   xmlns:inkscape="http://www.inkscape.org/namespaces/inkscape"
   version="1.1"
   id="svg6335"
   width="350"
   height="350"
   viewBox="0 0 350 350"
   sodipodi:docname="i7756490_-363860.svg"
   inkscape:version="0.92.2 (unknown)">
  <metadata
     id="metadata6341">
    <rdf:RDF>
      <cc:Work
         rdf:about="">
        <dc:format>image/svg+xml</dc:format>
        <dc:type
           rdf:resource="http://purl.org/dc/dcmitype/StillImage" />
        <dc:title />
      </cc:Work>
    </rdf:RDF>
  </metadata>
  <defs
     id="defs6339" />
  <sodipodi:namedview
     pagecolor="#ffffff"
     bordercolor="#666666"
     borderopacity="1"
     objecttolerance="10"
     gridtolerance="10"
     guidetolerance="10"
     inkscape:pageopacity="0"
     inkscape:pageshadow="2"
     inkscape:window-width="1855"
     inkscape:window-height="1056"
     id="namedview6337"
     showgrid="false"
     inkscape:zoom="1.8465589"
     inkscape:cx="81.71072"
     inkscape:cy="157.95308"
     inkscape:window-x="65"
     inkscape:window-y="24"
     inkscape:window-maximized="1"
     inkscape:current-layer="svg6335"
     inkscape:measure-start="181.51,274.945"
     inkscape:measure-end="214.825,270.733" />
  <image
     sodipodi:absref="carmen_lcad/data/road_mapper_remission_350px/voltadaufes/i7756490_-363860.png"
     xlink:href="carmen_lcad/data/road_mapper_remission_350px/voltadaufes/i7756490_-363860.png"
     width="350"
     height="350"
     preserveAspectRatio="none"
     id="image6343"
     x="0"
     y="0" />
  <image
     sodipodi:absref="carmen_lcad/data/road_mapper_remission_350px/voltadaufes/i7756490_-363930.png"
     xlink:href="carmen_lcad/data/road_mapper_remission_350px/voltadaufes/i7756490_-363930.png"
     width="350"
     height="350"
     preserveAspectRatio="none"
     id="image5783"
     x="0"
     y="350" />
  <image
     sodipodi:absref="carmen_lcad/data/road_mapper_remission_350px/voltadaufes/i7756560_-363930.png"
     xlink:href="carmen_lcad/data/road_mapper_remission_350px/voltadaufes/i7756560_-363930.png"
     width="350"
     height="350"
     preserveAspectRatio="none"
     id="image5446"
     x="350"
     y="350" />
  <image
     sodipodi:absref="carmen_lcad/data/road_mapper_remission_350px/voltadaufes/i7756560_-364000.png"
     xlink:href="carmen_lcad/data/road_mapper_remission_350px/voltadaufes/i7756560_-364000.png"
     width="350"
     height="350"
     preserveAspectRatio="none"
     id="image4252"
     x="350"
     y="700" />
  <path
     style="display:none;opacity:0.28999999;fill:none;stroke:#00ff00;stroke-width:25;stroke-linecap:butt;stroke-linejoin:miter;stroke-miterlimit:4;stroke-dasharray:none;stroke-opacity:1"
     d="m 2901.8807,8918.4109 -35.7089,-9.9879"
     id="path2589"
     inkscape:connector-curvature="0" />
  <image
     sodipodi:absref="carmen_lcad/data/road_mapper_remission_350px/voltadaufes/i7756490_-364000.png"
     xlink:href="carmen_lcad/data/road_mapper_remission_350px/voltadaufes/i7756490_-364000.png"
     y="700"
     x="9.1552734e-05"
     id="image3236"
     preserveAspectRatio="none"
     height="350"
     width="350" />
  <path
     style="opacity:0.5;fill:none;stroke:#7fff00;stroke-width:17;stroke-linecap:butt;stroke-linejoin:miter;stroke-miterlimit:4;stroke-dasharray:none;stroke-opacity:1"
     d="m 191.70795,382.38218 c 0,0 -2.55481,-5.24292 -3.52006,-7.98783 -1.56518,-4.45091 -2.71091,-9.05151 -3.65545,-13.67409 -1.18186,-5.78402 -1.94627,-11.65554 -2.50465,-17.53261 -0.93382,-9.82868 -1.42721,-19.71242 -1.40796,-29.58535 0.0483,-24.77055 1.89247,-49.51811 3.82188,-74.21346 1.37072,-17.54432 1.85807,-27.22802 5.50621,-52.50544"
     id="path6192"
     inkscape:connector-curvature="0"
     sodipodi:nodetypes="caaaaac" />
  <path
     style="opacity:0.51799999;fill:none;stroke:#ff7f00;stroke-width:17;stroke-linecap:butt;stroke-linejoin:miter;stroke-miterlimit:4;stroke-dasharray:none;stroke-opacity:1"
     d="m 209.30826,373.17587 c 0,0 -6.11827,-14.85987 -8.66476,-22.47424 -2.45566,-7.34274 -4.58648,-14.80298 -6.36319,-22.33885 -2.75014,-11.66463 -5.19779,-23.43792 -6.63397,-35.336 -1.08865,-9.01903 -1.35836,-18.12922 -1.48925,-27.21278 -0.15089,-10.47234 0.30213,-20.94878 0.81231,-31.40977 0.52235,-10.71033 1.68301,-21.38153 2.30159,-32.08672 0.29707,-5.14107 0.67693,-15.43411 0.67693,-15.43411"
     id="path6194"
     inkscape:connector-curvature="0"
     sodipodi:nodetypes="caaaaaac" />
  <path
     style="opacity:0.44900004;fill:none;stroke:#7fff00;stroke-width:17;stroke-linecap:butt;stroke-linejoin:miter;stroke-miterlimit:4;stroke-dasharray:none;stroke-opacity:1"
     d="m 173.15994,184.64951 c 0,0 -1.92122,14.87942 -2.70774,22.33885 -1.27094,12.05368 -2.37677,24.12697 -3.24929,36.21602 -0.92239,12.77993 -1.58599,25.57928 -2.0985,38.3822 -0.39093,9.76576 -0.87561,19.53858 -0.74462,29.31128 0.14273,10.64851 1.30909,21.26142 1.66711,31.90487 0.28525,8.48041 0.38293,25.45275 0.38293,25.45275"
     id="path6196"
     inkscape:connector-curvature="0"
     sodipodi:nodetypes="caaaaac" />
  <path
     style="opacity:0.47400004;fill:none;stroke:#ff7f00;stroke-width:17;stroke-linecap:butt;stroke-linejoin:miter;stroke-miterlimit:4;stroke-dasharray:none;stroke-opacity:1"
     d="m 173.15994,184.64951 c 0,0 -2.33001,16.3451 -3.42524,24.52719 -1.23313,9.21221 -2.3644,18.43776 -3.54213,27.65722 -1.47939,11.58095 -2.86247,23.17453 -4.42695,34.74429 -1.4672,10.85038 -3.0692,21.68217 -4.65127,32.51639 -1.74125,11.92437 -3.79329,23.80501 -5.32819,35.7577 -1.19371,9.29579 -3.017,27.95405 -3.017,27.95405"
     id="path6198"
     inkscape:connector-curvature="0"
     sodipodi:nodetypes="caaaaac" />
  <image
     sodipodi:absref="carmen_lcad/data/road_mapper_remission_350px/voltadaufes/i7756490_-363790.png"
     xlink:href="carmen_lcad/data/road_mapper_remission_350px/voltadaufes/i7756490_-363790.png"
     y="-350"
     x="0"
     id="image6270"
     preserveAspectRatio="none"
     height="350"
     width="350" />
  <image
     sodipodi:absref="carmen_lcad/data/road_mapper_remission_350px/voltadaufes/i7756560_-363790.png"
     xlink:href="carmen_lcad/data/road_mapper_remission_350px/voltadaufes/i7756560_-363790.png"
     y="-350"
     x="350"
     id="image6757"
     preserveAspectRatio="none"
     height="350"
     width="350" />
  <path
     style="opacity:0.57700004;fill:none;stroke:#ff0000;stroke-width:17;stroke-linecap:butt;stroke-linejoin:miter;stroke-miterlimit:4;stroke-dasharray:none;stroke-opacity:1"
     d="m 189.94792,186.8834 c 0,0 1.87155,-13.92839 2.93254,-20.87423 2.40325,-15.7329 5.4005,-31.37161 7.77599,-47.10873 2.07198,-13.72641 3.6639,-27.521588 5.64825,-41.260943 2.09472,-14.503479 4.20369,-29.007018 6.60559,-43.462801 1.35529,-8.156821 2.63897,-16.333795 4.40372,-24.4119262 2.46128,-11.266487 8.61597,-33.5065638 8.61597,-33.5065638"
     id="path6760"
     inkscape:connector-curvature="0"
     sodipodi:nodetypes="caaaaac" />
  <path
     style="opacity:0.478;fill:none;stroke:#ff0000;stroke-width:17;stroke-linecap:butt;stroke-linejoin:miter;stroke-miterlimit:4;stroke-dasharray:none;stroke-opacity:1"
     d="m 209.61188,-28.033259 c 0,0 -3.67152,13.741881 -5.38263,20.6445197 -1.78068,7.18326608 -3.63383,14.3549923 -5.08183,21.6126393 -1.57598,7.899156 -2.68729,15.88449 -3.91942,23.844531 -1.55931,10.073798 -2.9675,20.170514 -4.39526,30.263797 -1.25354,8.861666 -2.38633,17.740257 -3.66225,26.598728 -1.40532,9.756804 -2.83796,19.510344 -4.39809,29.243584 -1.3621,8.4978 -2.96875,16.95519 -4.33238,25.45275 -1.87062,11.65686 -5.28008,35.02222 -5.28008,35.02222"
     id="path6762"
     inkscape:connector-curvature="0"
     sodipodi:nodetypes="caaaaaaac" />
</svg>
