<?xml version="1.0" encoding="UTF-8" standalone="no"?>
<!-- Created with Inkscape (http://www.inkscape.org/) -->

<svg
   xmlns:dc="http://purl.org/dc/elements/1.1/"
   xmlns:cc="http://creativecommons.org/ns#"
   xmlns:rdf="http://www.w3.org/1999/02/22-rdf-syntax-ns#"
   xmlns:svg="http://www.w3.org/2000/svg"
   xmlns="http://www.w3.org/2000/svg"
   xmlns:xlink="http://www.w3.org/1999/xlink"
   xmlns:sodipodi="http://sodipodi.sourceforge.net/DTD/sodipodi-0.dtd"
   xmlns:inkscape="http://www.inkscape.org/namespaces/inkscape"
   version="1.1"
   id="svg3762"
   width="350"
   height="350"
   viewBox="0 0 350 350"
   sodipodi:docname="i7756560_-364070.svg"
   inkscape:version="0.92.2 (unknown)">
  <metadata
     id="metadata3768">
    <rdf:RDF>
      <cc:Work
         rdf:about="">
        <dc:format>image/svg+xml</dc:format>
        <dc:type
           rdf:resource="http://purl.org/dc/dcmitype/StillImage" />
        <dc:title></dc:title>
      </cc:Work>
    </rdf:RDF>
  </metadata>
  <defs
     id="defs3766" />
  <sodipodi:namedview
     pagecolor="#ffffff"
     bordercolor="#666666"
     borderopacity="1"
     objecttolerance="10"
     gridtolerance="10"
     guidetolerance="10"
     inkscape:pageopacity="0"
     inkscape:pageshadow="2"
     inkscape:window-width="1855"
     inkscape:window-height="1056"
     id="namedview3764"
     showgrid="false"
     inkscape:zoom="1.8465589"
     inkscape:cx="183.31638"
     inkscape:cy="298.61223"
     inkscape:window-x="65"
     inkscape:window-y="24"
     inkscape:window-maximized="1"
     inkscape:current-layer="svg3762" />
  <image
     width="350"
     height="350"
     preserveAspectRatio="none"
     xlink:href="carmen_lcad/data/road_mapper_remission_350px/voltadaufes/i7756560_-364070.png"
     id="image3770"
     x="0"
     y="0"
     sodipodi:absref="carmen_lcad/data/road_mapper_remission_350px/voltadaufes/i7756560_-364070.png"
     style="fill:#24221c" />
  <path
     style="display:none;opacity:0.28999999;fill:none;stroke:#00ff00;stroke-width:25;stroke-linecap:butt;stroke-linejoin:miter;stroke-miterlimit:4;stroke-dasharray:none;stroke-opacity:1"
     d="m 2445.5672,6290.4663 -35.7089,-9.9879"
     id="path2589"
     inkscape:connector-curvature="0" />
  <image
     width="350"
     height="350"
     preserveAspectRatio="none"
     xlink:href="carmen_lcad/data/road_mapper_remission_350px/voltadaufes/i7756630_-364070.png"
     id="image3313"
     x="350"
     y="-2.9687501e-05"
     sodipodi:absref="carmen_lcad/data/road_mapper_remission_350px/voltadaufes/i7756630_-364070.png" />
  <image
     width="350"
     height="350"
     preserveAspectRatio="none"
     xlink:href="carmen_lcad/data/road_mapper_remission_350px/voltadaufes/i7756630_-364000.png"
     id="image2561"
     x="350"
     y="-350.00009"
     sodipodi:absref="carmen_lcad/data/road_mapper_remission_350px/voltadaufes/i7756630_-364000.png" />
  <image
     width="350"
     height="350"
     preserveAspectRatio="none"
     xlink:href="carmen_lcad/data/road_mapper_remission_350px/voltadaufes/i7756700_-364000.png"
     id="image2161"
     x="700"
     y="-350.00009"
     sodipodi:absref="carmen_lcad/data/road_mapper_remission_350px/voltadaufes/i7756700_-364000.png" />
  <image
     width="350"
     height="350"
     preserveAspectRatio="none"
     xlink:href="carmen_lcad/data/road_mapper_remission_350px/voltadaufes/i7756700_-364070.png"
     id="image1109"
     x="700"
     y="-2.9687501e-05"
     sodipodi:absref="carmen_lcad/data/road_mapper_remission_350px/voltadaufes/i7756700_-364070.png" />
  <path
     style="opacity:0.52600002;fill:none;stroke:#ff007f;stroke-width:18;stroke-linecap:butt;stroke-linejoin:miter;stroke-miterlimit:4;stroke-dasharray:none;stroke-opacity:1"
     d="m 1056.751,92.7582 c 0,0 -9.4145,-3.2148 -14.0763,-4.9479 -17.7933,-6.6152 -35.4377,-13.6311 -53.01551,-20.7993 -12.1348,-4.9485 -24.2326,-9.9963 -36.2032,-15.3298 -12.7162,-5.6657 -25.2357,-11.763 -37.8259,-17.7034 -9.8008,-4.6244 -19.6234,-9.2047 -29.359,-13.9648 -10.4493,-5.1091 -20.8774,-10.2672 -31.1809,-15.6643 -10.9988,-5.7613 -32.6983,-17.8414 -32.6983,-17.8414"
     id="path950"
     inkscape:connector-curvature="0"
     sodipodi:nodetypes="caaaaaac" />
  <path
     style="opacity:0.522;fill:none;stroke:#7f00ff;stroke-width:18;stroke-linecap:butt;stroke-linejoin:miter;stroke-miterlimit:4;stroke-dasharray:none;stroke-opacity:1"
     d="m 1050.7775,109.8217 c 0,0 -21.8614,-8.1929 -32.7339,-12.4404 -11.3415,-4.4309 -22.64361,-8.9642 -33.90021,-13.6068 -14.1291,-5.8273 -28.2643,-11.6513 -42.2197,-17.8831 -11.7405,-5.2427 -23.0582,-10.6254 -34.911,-16.4058 -13.472,-6.5701 -24.6262,-11.7027 -36.8548,-17.7277 -11.6138,-5.722 -23.2627,-11.3853 -34.6777,-17.4944 -14.971,-8.012 -44.3191,-25.1141 -44.3191,-25.1141"
     id="path952"
     inkscape:connector-curvature="0"
     sodipodi:nodetypes="caaasaac" />
  <path
     style="opacity:0.68000034;fill:none;stroke:#0000ff;stroke-width:18;stroke-linecap:butt;stroke-linejoin:miter;stroke-miterlimit:4;stroke-dasharray:none;stroke-opacity:1"
     d="m 1300.1306,308.0912 c -42.1262,-6.8188 -84.8944,-13.602 -127.3362,-20.4363 -46.2867,-7.4535 -93.2933,-15.2439 -138.8484,-22.4333"
     id="path1027"
     inkscape:connector-curvature="0"
     sodipodi:nodetypes="cac" />
  <path
     style="opacity:0.67600002;fill:none;stroke:#ff007f;stroke-width:16;stroke-linecap:butt;stroke-linejoin:miter;stroke-miterlimit:4;stroke-dasharray:none;stroke-opacity:1"
     d="M 1302.7742,291.6076 1036.7516,248.58"
     id="path1029"
     inkscape:connector-curvature="0"
     sodipodi:nodetypes="cc" />
  <path
     style="opacity:0.49300005;fill:none;stroke:#7f00ff;stroke-width:16;stroke-linecap:butt;stroke-linejoin:miter;stroke-miterlimit:4;stroke-dasharray:none;stroke-opacity:1"
     d="m 1315.2146,327.7627 c 0,0 -94.6993,-15.4249 -142.0605,-23.0659 -47.2792,-7.6277 -141.8605,-22.7403 -141.8605,-22.7403"
     id="path1031"
     inkscape:connector-curvature="0"
     sodipodi:nodetypes="cac" />
  <path
     style="opacity:0.46300001;fill:none;stroke:#ff007f;stroke-width:18;stroke-linecap:butt;stroke-linejoin:miter;stroke-miterlimit:4;stroke-dasharray:none;stroke-opacity:1"
     d="m 822.39189,-13.4927 c 0,0 -38.8015,-22.019 -57.9477,-33.4619 -29.4664,-17.6109 -87.59536,-54.1548 -87.59536,-54.1548"
     id="path1718"
     inkscape:connector-curvature="0"
     sodipodi:nodetypes="cac" />
  <path
     style="opacity:0.47099998;fill:none;stroke:#7f00ff;stroke-width:18;stroke-linecap:butt;stroke-linejoin:miter;stroke-miterlimit:4;stroke-dasharray:none;stroke-opacity:1"
     d="m 791.16109,-10.8506 -17.7813,-10.3805"
     id="path1720"
     inkscape:connector-curvature="0"
     sodipodi:nodetypes="cc" />
  <path
     style="opacity:0.52899996;fill:none;stroke:#007fff;stroke-width:18;stroke-linecap:butt;stroke-linejoin:miter;stroke-miterlimit:4;stroke-dasharray:none;stroke-opacity:1"
     d="m 773.37979,-21.2311 -47.1147,-27.9574"
     id="path1722"
     inkscape:connector-curvature="0"
     sodipodi:nodetypes="cc" />
  <path
     style="opacity:0.47099998;fill:none;stroke:#7f00ff;stroke-width:18;stroke-linecap:butt;stroke-linejoin:miter;stroke-miterlimit:4;stroke-dasharray:none;stroke-opacity:1"
     d="M 726.26509,-49.1885 667.5465,-85.9683"
     id="path1724"
     inkscape:connector-curvature="0"
     sodipodi:nodetypes="cc" />
  <path
     style="opacity:0.50700001;fill:none;stroke:#0000ff;stroke-width:18;stroke-linecap:butt;stroke-linejoin:miter;stroke-miterlimit:4;stroke-dasharray:none;stroke-opacity:1"
     d="m 1033.946,265.2216 c 0,0 -60.16451,-8.9292 -90.20971,-13.6352 -42.1585,-6.6033 -84.3133,-13.2496 -126.3676,-20.4869 -20.7139,-3.5647 -41.4103,-7.2472 -62.035,-11.2965 -18.7151,-3.6744 -45.1327,-9.2913 -67.6611,-14.1162 -5.0232,-1.0758 -15.05224,-3.3072 -15.05224,-3.3072"
     id="path1726"
     inkscape:connector-curvature="0"
     sodipodi:nodetypes="caasac" />
  <path
     style="opacity:0.48500001;fill:none;stroke:#ff007f;stroke-width:16;stroke-linecap:butt;stroke-linejoin:miter;stroke-miterlimit:4;stroke-dasharray:none;stroke-opacity:1"
     d="m 1036.7516,248.58 c 0,0 -51.38531,-7.6143 -77.05591,-11.5662 -22.7565,-3.5034 -45.5035,-7.0707 -68.2296,-10.7666 -22.9867,-3.7383 -45.9594,-7.5657 -68.9066,-11.5392 -20.8721,-3.6142 -41.7554,-7.1802 -62.5553,-11.1892 -14.8619,-2.8645 -29.6549,-6.0766 -44.4666,-9.1904 -13.0729,-2.7482 -39.19046,-8.378 -39.19046,-8.378"
     id="path1728"
     inkscape:connector-curvature="0"
     sodipodi:nodetypes="caaaaac" />
  <path
     style="opacity:0.43800001;fill:none;stroke:#7f00ff;stroke-width:16;stroke-linecap:butt;stroke-linejoin:miter;stroke-miterlimit:4;stroke-dasharray:none;stroke-opacity:1"
     d="m 1031.2936,281.9565 c 0,0 -39.02661,-6.1226 -58.55011,-9.1174 -19.4271,-2.9799 -38.8829,-5.7726 -58.3015,-8.8074 -18.5872,-2.9049 -37.1536,-5.9426 -55.7166,-8.9989 -19.0286,-3.133 -38.0762,-6.1619 -57.0569,-9.5733 -17.0133,-3.0578 -33.9631,-6.4592 -50.93,-9.7648 -13.2778,-2.5869 -26.5507,-5.2001 -39.8101,-7.8796 -7.0542,-1.4256 -14.1038,-2.8744 -21.1453,-4.3613 -6.5474,-1.3825 -19.62235,-4.2398 -19.62235,-4.2398"
     id="path1730"
     inkscape:connector-curvature="0"
     sodipodi:nodetypes="caaaaaaac" />
  <image
     sodipodi:absref="carmen_lcad/data/road_mapper_remission_350px/voltadaufes/i7756560_-364000.png"
     y="-350.00009"
     x="2.8623046e-05"
     id="image2976"
     xlink:href="carmen_lcad/data/road_mapper_remission_350px/voltadaufes/i7756560_-364000.png"
     preserveAspectRatio="none"
     height="350"
     width="350" />
  <image
     sodipodi:absref="carmen_lcad/data/road_mapper_remission_350px/voltadaufes/i7756560_-363930.png"
     y="-700.00006"
     x="2.8623046e-05"
     id="image3106"
     xlink:href="carmen_lcad/data/road_mapper_remission_350px/voltadaufes/i7756560_-363930.png"
     preserveAspectRatio="none"
     height="350"
     width="350" />
  <image
     sodipodi:absref="carmen_lcad/data/road_mapper_remission_350px/voltadaufes/i7756490_-363930.png"
     y="-700.00006"
     x="-349.99994"
     id="image3171"
     xlink:href="carmen_lcad/data/road_mapper_remission_350px/voltadaufes/i7756490_-363930.png"
     preserveAspectRatio="none"
     height="350"
     width="350" />
  <image
     sodipodi:absref="carmen_lcad/data/road_mapper_remission_350px/voltadaufes/i7756490_-364000.png"
     y="-350.00009"
     x="-349.99994"
     id="image3236"
     xlink:href="carmen_lcad/data/road_mapper_remission_350px/voltadaufes/i7756490_-364000.png"
     preserveAspectRatio="none"
     height="350"
     width="350" />
  <path
     style="opacity:0.51499999;fill:none;stroke:#ff007f;stroke-width:18;stroke-linecap:butt;stroke-linejoin:miter;stroke-miterlimit:4;stroke-dasharray:none;stroke-opacity:1"
     d="M 676.84883,-101.1094 C 528.12787,-193.28377 380.8492,-284.01582 230.31794,-378.00047"
     id="path3239"
     inkscape:connector-curvature="0"
     sodipodi:nodetypes="cc" />
  <path
     style="opacity:0.51799999;fill:none;stroke:#7f00ff;stroke-width:18;stroke-linecap:butt;stroke-linejoin:miter;stroke-miterlimit:4;stroke-dasharray:none;stroke-opacity:1"
     d="m 667.5465,-85.9683 c -140.41106,-86.91226 -280.7641,-173.2716 -420.74701,-260.54975 -8.72827,-5.44201 -17.37031,-11.02497 -26.13481,-16.40597"
     id="path3241"
     inkscape:connector-curvature="0"
     sodipodi:nodetypes="cac" />
  <path
     style="opacity:0.46300001;fill:none;stroke:#0000ff;stroke-width:18;stroke-linecap:butt;stroke-linejoin:miter;stroke-miterlimit:4;stroke-dasharray:none;stroke-opacity:1"
     d="m 672.62035,202.3796 c 0,0 -9.31269,-1.9896 -13.93183,-3.1411 -15.87241,-3.9569 -31.6407,-8.3369 -47.33732,-12.942 -25.99341,-7.626 -51.84838,-15.7395 -77.54377,-24.3162 -20.48769,-6.8384 -40.85066,-14.0609 -61.07768,-21.6357 -18.05779,-6.7624 -35.97463,-13.9042 -53.80197,-21.2527 -17.78901,-7.3327 -35.41709,-15.0522 -53.0361,-22.7845 -22.8633,-10.0337 -68.3534,-30.6345 -68.3534,-30.6345"
     id="path3661"
     inkscape:connector-curvature="0"
     sodipodi:nodetypes="caaaaaac" />
  <path
     style="opacity:0.52899996;fill:none;stroke:#ff007f;stroke-width:16;stroke-linecap:butt;stroke-linejoin:miter;stroke-miterlimit:4;stroke-dasharray:none;stroke-opacity:1"
     d="m 676.34713,185.9504 c 0,0 -13.63466,-3.1404 -20.41221,-4.8716 -9.65526,-2.4662 -19.26011,-5.1294 -28.84523,-7.8556 -15.7002,-4.4654 -31.36582,-9.0605 -46.94747,-13.9234 -22.98441,-7.1733 -45.91381,-14.5453 -68.64059,-22.4973 C 493.3743,130.4599 475.36929,123.7562 457.50819,116.6986 432.89817,106.9742 384.27242,86.064 384.27242,86.064"
     id="path3682"
     inkscape:connector-curvature="0"
     sodipodi:nodetypes="caaaaac" />
  <path
     style="opacity:0.51799999;fill:none;stroke:#0000ff;stroke-width:16;stroke-linecap:butt;stroke-linejoin:miter;stroke-miterlimit:4;stroke-dasharray:none;stroke-opacity:1"
     d="M 384.27242,86.064 303.50658,50.0984"
     id="path3684"
     inkscape:connector-curvature="0"
     sodipodi:nodetypes="cc" />
  <path
     style="opacity:0.46000001;fill:none;stroke:#7f00ff;stroke-width:16;stroke-linecap:butt;stroke-linejoin:miter;stroke-miterlimit:4;stroke-dasharray:none;stroke-opacity:1"
     d="m 670.16074,219.214 c 0,0 -32.8902,-8.1448 -49.20967,-12.6859 -16.88687,-4.699 -33.662,-9.8005 -50.38215,-15.062 -14.28747,-4.496 -28.45457,-9.3662 -42.66409,-14.1028 -14.12748,-4.7093 -28.33961,-9.1785 -42.34685,-14.2342 -14.36921,-5.1864 -28.53413,-10.9232 -42.75302,-16.5085 -13.73453,-5.3951 -27.49306,-10.7362 -41.10913,-16.4237 -16.7644,-7.0024 -33.36331,-14.3968 -49.95972,-21.7886 C 331.20947,99.266 290.37075,80.5047 290.37075,80.5047"
     id="path3686"
     inkscape:connector-curvature="0"
     sodipodi:nodetypes="caaaaaaac" />
  <path
     style="opacity:0.43399999;fill:none;stroke:#ff007f;stroke-width:20;stroke-linecap:butt;stroke-linejoin:miter;stroke-miterlimit:4;stroke-dasharray:none;stroke-opacity:1"
     d="M 391.69333,69.8801 310.62561,33.855"
     id="path3688"
     inkscape:connector-curvature="0"
     sodipodi:nodetypes="cc" />
  <path
     style="opacity:0.43800001;fill:none;stroke:#7fff00;stroke-width:18;stroke-linecap:butt;stroke-linejoin:miter;stroke-miterlimit:4;stroke-dasharray:none;stroke-opacity:1"
     d="m 450.47114,84.5112 c 0,0 -10.53553,0.7458 -15.78328,0.3533 -4.92735,-0.3685 -9.82828,-1.27 -14.60542,-2.5323 -3.87223,-1.0233 -7.57945,-2.5996 -11.30742,-4.0636 -3.25823,-1.2796 -6.44185,-2.7416 -9.65842,-4.1225 -3.45818,-1.4847 -10.36514,-4.4759 -10.36514,-4.4759"
     id="path3692"
     inkscape:connector-curvature="0"
     sodipodi:nodetypes="caaaac" />
  <path
     style="opacity:0.51099997;fill:none;stroke:#7fff00;stroke-width:16;stroke-linecap:butt;stroke-linejoin:miter;stroke-miterlimit:4;stroke-dasharray:none;stroke-opacity:1"
     d="m 505.47702,66.1366 c 0,0 -7.7934,5.6239 -12.01413,7.8917 -5.26794,2.8304 -10.7814,5.2854 -16.48999,7.0671 -5.27746,1.6472 -10.78096,2.5195 -16.25442,3.298 -4.25132,0.6047 -12.83863,1.0601 -12.83863,1.0601"
     id="path3694"
     inkscape:connector-curvature="0"
     sodipodi:nodetypes="caaac" />
  <path
     style="opacity:0.48200001;fill:none;stroke:#ff7f00;stroke-width:18;stroke-linecap:butt;stroke-linejoin:miter;stroke-miterlimit:4;stroke-dasharray:none;stroke-opacity:1"
     d="m 449.99999,75.5595 c 0,0 -11.9511,0.092 -17.90341,-0.3534 -9.08132,-0.6798 -18.1464,-1.8213 -27.0907,-3.5335 -5.172,-0.9902 -15.31213,-3.887 -15.31213,-3.887"
     id="path3696"
     inkscape:connector-curvature="0"
     sodipodi:nodetypes="caac" />
  <path
     style="opacity:0.47099998;fill:none;stroke:#ff7f00;stroke-width:16;stroke-linecap:butt;stroke-linejoin:miter;stroke-miterlimit:4;stroke-dasharray:none;stroke-opacity:1"
     d="m 496.28974,53.298 c 0,0 -7.09826,5.217 -10.83628,7.5383 -3.73206,2.3176 -7.5416,4.547 -11.54298,6.3604 -4.4118,1.9994 -9.00255,3.6277 -13.66314,4.947 -4.28238,1.2122 -13.07421,2.7091 -13.07421,2.7091"
     id="path3698"
     inkscape:connector-curvature="0"
     sodipodi:nodetypes="caaac" />
  <path
     style="opacity:0.522;fill:none;stroke:#0000ff;stroke-width:18;stroke-linecap:butt;stroke-linejoin:miter;stroke-miterlimit:4;stroke-dasharray:none;stroke-opacity:1"
     d="M 297.53828,65.6729 C 248.99796,44.024877 190.90251,17.359365 137.59785,-6.826549 79.718012,-33.088355 19.256524,-58.871081 -36.012933,-85.675255"
     id="path4174"
     inkscape:connector-curvature="0"
     sodipodi:nodetypes="cac" />
  <path
     style="opacity:0.5;fill:none;stroke:#7f00ff;stroke-width:16;stroke-linecap:butt;stroke-linejoin:miter;stroke-miterlimit:4;stroke-dasharray:none;stroke-opacity:1"
     d="m 290.37075,80.5047 c 0,0 -105.52295,-47.585099 -158.30076,-71.3413864 C 93.297249,-8.289027 54.390589,-25.445835 15.727802,-43.140418 -4.0171979,-52.177003 -43.323829,-70.647303 -43.323829,-70.647303"
     id="path4176"
     inkscape:connector-curvature="0"
     sodipodi:nodetypes="caac" />
  <path
     style="opacity:0.50400002;fill:none;stroke:#0000ff;stroke-width:16;stroke-linecap:butt;stroke-linejoin:miter;stroke-miterlimit:4;stroke-dasharray:none;stroke-opacity:1"
     d="m 303.50658,50.0984 c 0,0 -98.32596,-44.8078872 -147.58749,-66.993873 C 116.79969,-34.513737 77.419512,-51.553472 38.405375,-69.403637 5.6468688,-84.391658 -59.466644,-115.23935 -59.466644,-115.23935"
     id="path4178"
     inkscape:connector-curvature="0"
     sodipodi:nodetypes="caac" />
  <path
     style="opacity:0.48200001;fill:none;stroke:#ff007f;stroke-width:20;stroke-linecap:butt;stroke-linejoin:miter;stroke-miterlimit:4;stroke-dasharray:none;stroke-opacity:1"
     d="m 310.62561,33.855 c 0,0 -75.38317,-33.99594169 -113.03261,-51.086947 -33.34007,-15.13476 -66.5758,-30.499171 -99.945298,-45.568928 -28.705398,-12.963436 -57.631655,-25.437827 -86.25547,-38.580415 -21.0938251,-9.68521 -62.992341,-29.67725 -62.992341,-29.67725"
     id="path4180"
     inkscape:connector-curvature="0"
     sodipodi:nodetypes="caaac" />
</svg>
