<?xml version="1.0" encoding="UTF-8" standalone="no"?>
<!-- Created with Inkscape (http://www.inkscape.org/) -->

<svg
   xmlns:dc="http://purl.org/dc/elements/1.1/"
   xmlns:cc="http://creativecommons.org/ns#"
   xmlns:rdf="http://www.w3.org/1999/02/22-rdf-syntax-ns#"
   xmlns:svg="http://www.w3.org/2000/svg"
   xmlns="http://www.w3.org/2000/svg"
   xmlns:xlink="http://www.w3.org/1999/xlink"
   xmlns:sodipodi="http://sodipodi.sourceforge.net/DTD/sodipodi-0.dtd"
   xmlns:inkscape="http://www.inkscape.org/namespaces/inkscape"
   version="1.1"
   id="svg1656"
   width="350"
   height="350"
   viewBox="0 0 350 350"
   sodipodi:docname="i7757400_-363580.svg"
   inkscape:version="0.92.2 (unknown)">
  <metadata
     id="metadata1662">
    <rdf:RDF>
      <cc:Work
         rdf:about="">
        <dc:format>image/svg+xml</dc:format>
        <dc:type
           rdf:resource="http://purl.org/dc/dcmitype/StillImage" />
        <dc:title />
      </cc:Work>
    </rdf:RDF>
  </metadata>
  <defs
     id="defs1660" />
  <sodipodi:namedview
     pagecolor="#ffffff"
     bordercolor="#666666"
     borderopacity="1"
     objecttolerance="10"
     gridtolerance="10"
     guidetolerance="10"
     inkscape:pageopacity="0"
     inkscape:pageshadow="2"
     inkscape:window-width="1855"
     inkscape:window-height="1056"
     id="namedview1658"
     showgrid="false"
     inkscape:zoom="3.6931176"
     inkscape:cx="34.95928"
     inkscape:cy="117.78226"
     inkscape:window-x="65"
     inkscape:window-y="24"
     inkscape:window-maximized="1"
     inkscape:current-layer="svg1656"
     inkscape:measure-start="56.9979,163.141"
     inkscape:measure-end="71.0782,144.729" />
  <image
     sodipodi:absref="carmen_lcad/data/road_mapper_remission_350px/voltadaufes/i7757400_-363580.png"
     xlink:href="carmen_lcad/data/road_mapper_remission_350px/voltadaufes/i7757400_-363580.png"
     y="0"
     x="0"
     id="image1664"
     preserveAspectRatio="none"
     height="350"
     width="350" />
  <image
     sodipodi:absref="carmen_lcad/data/road_mapper_remission_350px/voltadaufes/i7757330_-363580.png"
     xlink:href="carmen_lcad/data/road_mapper_remission_350px/voltadaufes/i7757330_-363580.png"
     y="-7.6293945e-06"
     x="-350"
     id="image1507"
     preserveAspectRatio="none"
     height="350"
     width="350" />
  <image
     sodipodi:absref="carmen_lcad/data/road_mapper_remission_350px/voltadaufes/i7757330_-363510.png"
     xlink:href="carmen_lcad/data/road_mapper_remission_350px/voltadaufes/i7757330_-363510.png"
     y="-350"
     x="-350"
     id="image1043"
     preserveAspectRatio="none"
     height="350"
     width="350" />
  <path
     style="display:none;opacity:0.28999999;fill:none;stroke:#00ff00;stroke-width:25;stroke-linecap:butt;stroke-linejoin:miter;stroke-miterlimit:4;stroke-dasharray:none;stroke-opacity:1"
     d="m -3652.8185,19542.912 -35.7089,-9.988"
     id="path2589"
     inkscape:connector-curvature="0" />
  <image
     sodipodi:absref="carmen_lcad/data/road_mapper_remission_350px/voltadaufes/i7757400_-363650.png"
     xlink:href="carmen_lcad/data/road_mapper_remission_350px/voltadaufes/i7757400_-363650.png"
     width="350"
     height="350"
     preserveAspectRatio="none"
     id="image1417"
     x="-3.0517578e-05"
     y="350" />
  <image
     sodipodi:absref="carmen_lcad/data/road_mapper_remission_350px/voltadaufes/i7757470_-363650.png"
     xlink:href="carmen_lcad/data/road_mapper_remission_350px/voltadaufes/i7757470_-363650.png"
     width="350"
     height="350"
     preserveAspectRatio="none"
     id="image1482"
     x="350"
     y="350" />
  <path
     style="opacity:0.53699999;fill:none;stroke:#ff0000;stroke-width:18;stroke-linecap:butt;stroke-linejoin:miter;stroke-miterlimit:4;stroke-dasharray:none;stroke-opacity:1"
     d="m -266.73404,-71.360741 c 13.1872,4.21713 21.1271,5.75017 31.4753,9.30026 16.4863,5.65586 32.6952,12.13981 48.6804,19.08672 15.2131,6.61137 30.31356,13.55961 44.88958,21.47726 10.22465,5.55399 20.01462,11.88505 29.77833,18.21437 13.702184,8.88243 27.289944,17.97222 40.394604,27.71466 7.14561,5.31229 14.19904,10.78169 20.81674,16.73872 9.6379,8.67572 18.86126,17.85435 27.42067,27.5957 10.17378,11.57865 18.8770397,24.37093 28.3355397,36.540881 8.1459303,10.48111 16.3022803,20.95413 24.4721803,31.41657 4.76543,6.10265 6.85391,9.11706 14.31816,18.29086"
     id="path1485"
     inkscape:connector-curvature="0"
     sodipodi:nodetypes="caaaaaaaaac" />
  <path
     style="opacity:0.53299997;fill:none;stroke:#ff0000;stroke-width:18;stroke-linecap:butt;stroke-linejoin:miter;stroke-miterlimit:4;stroke-dasharray:none;stroke-opacity:1"
     d="M 57.637694,143.45809 C 48.031779,131.59474 44.97257,127.84551 38.742414,119.96247 30.078906,109.0005 21.887954,97.672139 13.312894,86.640849 5.4368637,76.508829 -2.0538963,66.043429 -10.584896,56.456369 c -7.14559,-8.03016 -14.77243,-15.6543 -22.78582,-22.81869 -10.40051,-9.29859 -21.55451,-17.73433 -32.72964,-26.08604 -10.24313,-7.65517999 -20.76932,-14.93478 -31.42901,-21.99839 -8.026814,-5.31895 -16.144914,-10.51514 -24.479004,-15.33839 -10.79877,-6.24965 -21.8806,-12.00889 -33.03442,-17.6003 -9.09585,-4.55975 -18.31175,-8.88594 -27.61895,-12.99714 -9.2914,-4.10424 -12.6818,-6.33666 -28.1605,-11.64328"
     id="path1487"
     inkscape:connector-curvature="0"
     sodipodi:nodetypes="csaaaaaaaac" />
  <path
     style="opacity:0.603;fill:none;stroke:#00ff7f;stroke-width:18;stroke-linecap:butt;stroke-linejoin:miter;stroke-miterlimit:4;stroke-dasharray:none;stroke-opacity:1"
     d="m 43.847464,155.01526 c 19.340389,24.26019 32.443061,42.44887 56.794016,73.39415"
     id="path1848"
     inkscape:connector-curvature="0"
     sodipodi:nodetypes="cc" />
  <path
     style="opacity:0.48900003;fill:none;stroke:#ff0000;stroke-width:18;stroke-linecap:butt;stroke-linejoin:miter;stroke-miterlimit:4;stroke-dasharray:none;stroke-opacity:1"
     d="m 100.64148,228.40941 c 44.29978,54.5423 84.01437,109.85473 125.24063,163.56953 43.4802,56.65152 88.0479,111.09865 131.34574,169.25601"
     id="path1850"
     inkscape:connector-curvature="0"
     sodipodi:nodetypes="csc" />
  <path
     style="opacity:0.53299997;fill:none;stroke:#ff0000;stroke-width:18;stroke-linecap:butt;stroke-linejoin:miter;stroke-miterlimit:4;stroke-dasharray:none;stroke-opacity:1"
     d="M 371.4442,551.03939 C 318.98273,480.95367 285.79008,441.05267 243.54486,385.6127 200.79813,329.51458 167.80691,284.21095 114.56241,217.28116"
     id="path1856"
     inkscape:connector-curvature="0"
     sodipodi:nodetypes="csc" />
  <path
     style="opacity:0.55500034;fill:none;stroke:#ff007f;stroke-width:18;stroke-linecap:butt;stroke-linejoin:miter;stroke-miterlimit:4;stroke-dasharray:none;stroke-opacity:1"
     d="M 114.56241,217.28116 C 87.084108,181.45313 76.819978,167.96624 57.637694,143.45809"
     id="path1858"
     inkscape:connector-curvature="0"
     sodipodi:nodetypes="cc" />
  <path
     style="opacity:0.522;fill:none;stroke:#ff7f00;stroke-width:19;stroke-linecap:butt;stroke-linejoin:miter;stroke-miterlimit:4;stroke-dasharray:none;stroke-opacity:1"
     d="m 43.847464,155.01526 c 4.907192,6.12698 5.837559,9.16042 6.516487,14.37853 0.596359,4.58351 -0.531657,9.40424 -2.301578,13.67409 -1.846146,4.45373 -5.459333,7.95351 -8.393992,11.77866 -4.663435,6.0785 -9.388055,12.13849 -14.624417,17.73102 -3.600687,3.8456 -3.120833,3.94546 -11.505267,10.83563"
     id="path1860"
     inkscape:connector-curvature="0"
     sodipodi:nodetypes="caaaac" />
  <path
     style="opacity:0.5;fill:none;stroke:#ff7f00;stroke-width:19;stroke-linecap:butt;stroke-linejoin:miter;stroke-miterlimit:4;stroke-dasharray:none;stroke-opacity:1"
     d="m 25.994297,237.89959 c 9.834254,-9.21105 12.357899,-11.22093 19.495724,-15.43412 4.424497,-2.61161 9.264272,-4.58562 14.215632,-5.95702 3.647334,-1.01021 7.454492,-1.74845 11.237117,-1.62464 6.086312,0.19922 12.384651,1.14849 17.871079,3.79084 4.600445,2.21564 5.300008,1.66616 11.827631,9.73476"
     id="path1862"
     inkscape:connector-curvature="0"
     sodipodi:nodetypes="caaaac" />
</svg>
