<?xml version="1.0" encoding="UTF-8" standalone="no"?>
<!-- Created with Inkscape (http://www.inkscape.org/) -->

<svg
   xmlns:dc="http://purl.org/dc/elements/1.1/"
   xmlns:cc="http://creativecommons.org/ns#"
   xmlns:rdf="http://www.w3.org/1999/02/22-rdf-syntax-ns#"
   xmlns:svg="http://www.w3.org/2000/svg"
   xmlns="http://www.w3.org/2000/svg"
   xmlns:xlink="http://www.w3.org/1999/xlink"
   xmlns:sodipodi="http://sodipodi.sourceforge.net/DTD/sodipodi-0.dtd"
   xmlns:inkscape="http://www.inkscape.org/namespaces/inkscape"
   version="1.1"
   id="svg29"
   width="350"
   height="350"
   viewBox="0 0 350 350"
   sodipodi:docname="i7757610_-363650.svg"
   inkscape:version="0.92.2 (unknown)">
  <metadata
     id="metadata35">
    <rdf:RDF>
      <cc:Work
         rdf:about="">
        <dc:format>image/svg+xml</dc:format>
        <dc:type
           rdf:resource="http://purl.org/dc/dcmitype/StillImage" />
        <dc:title />
      </cc:Work>
    </rdf:RDF>
  </metadata>
  <defs
     id="defs33" />
  <sodipodi:namedview
     pagecolor="#ffffff"
     bordercolor="#666666"
     borderopacity="1"
     objecttolerance="10"
     gridtolerance="10"
     guidetolerance="10"
     inkscape:pageopacity="0"
     inkscape:pageshadow="2"
     inkscape:window-width="1855"
     inkscape:window-height="1056"
     id="namedview31"
     showgrid="false"
     inkscape:zoom="2.291026"
     inkscape:cx="96.40384"
     inkscape:cy="-25.06255"
     inkscape:window-x="65"
     inkscape:window-y="24"
     inkscape:window-maximized="1"
     inkscape:current-layer="svg29"
     inkscape:measure-start="-681.019,101.698"
     inkscape:measure-end="-722.685,104.63"
     showguides="true"
     inkscape:guide-bbox="true" />
  <image
     sodipodi:absref="carmen_lcad/data/road_mapper_remission_350px/voltadaufes/i7757680_-363650.png"
     xlink:href="carmen_lcad/data/road_mapper_remission_350px/voltadaufes/i7757680_-363650.png"
     y="0"
     x="350"
     id="image4722"
     preserveAspectRatio="none"
     height="350"
     width="350" />
  <image
     sodipodi:absref="carmen_lcad/data/road_mapper_remission_350px/voltadaufes/i7757610_-363650.png"
     xlink:href="carmen_lcad/data/road_mapper_remission_350px/voltadaufes/i7757610_-363650.png"
     width="350"
     height="350"
     preserveAspectRatio="none"
     id="image37"
     x="0"
     y="0" />
  <image
     sodipodi:absref="carmen_lcad/data/road_mapper_remission_350px/voltadaufes/i7757540_-363650.png"
     xlink:href="carmen_lcad/data/road_mapper_remission_350px/voltadaufes/i7757540_-363650.png"
     width="350"
     height="350"
     preserveAspectRatio="none"
     id="image3535"
     x="-350"
     y="6.1035156e-05" />
  <image
     sodipodi:absref="carmen_lcad/data/road_mapper_remission_350px/voltadaufes/i7757610_-363720.png"
     xlink:href="carmen_lcad/data/road_mapper_remission_350px/voltadaufes/i7757610_-363720.png"
     y="350"
     x="0"
     id="image3458"
     preserveAspectRatio="none"
     height="350"
     width="350" />
  <image
     sodipodi:absref="carmen_lcad/data/road_mapper_remission_350px/voltadaufes/i7757540_-363720.png"
     xlink:href="carmen_lcad/data/road_mapper_remission_350px/voltadaufes/i7757540_-363720.png"
     width="350"
     height="350"
     preserveAspectRatio="none"
     id="image2948"
     x="-350"
     y="350" />
  <image
     sodipodi:absref="carmen_lcad/data/road_mapper_remission_350px/voltadaufes/i7757470_-363720.png"
     xlink:href="carmen_lcad/data/road_mapper_remission_350px/voltadaufes/i7757470_-363720.png"
     width="350"
     height="350"
     preserveAspectRatio="none"
     id="image2709"
     x="-700"
     y="350" />
  <image
     sodipodi:absref="carmen_lcad/data/road_mapper_remission_350px/voltadaufes/i7757470_-363650.png"
     xlink:href="carmen_lcad/data/road_mapper_remission_350px/voltadaufes/i7757470_-363650.png"
     width="350"
     height="350"
     preserveAspectRatio="none"
     id="image2112"
     x="-700"
     y="0" />
  <image
     sodipodi:absref="carmen_lcad/data/road_mapper_remission_350px/voltadaufes/i7757400_-363650.png"
     xlink:href="carmen_lcad/data/road_mapper_remission_350px/voltadaufes/i7757400_-363650.png"
     width="350"
     height="350"
     preserveAspectRatio="none"
     id="image1882"
     x="-1050"
     y="0" />
  <image
     sodipodi:absref="carmen_lcad/data/road_mapper_remission_350px/voltadaufes/i7757400_-363580.png"
     xlink:href="carmen_lcad/data/road_mapper_remission_350px/voltadaufes/i7757400_-363580.png"
     width="350"
     height="350"
     preserveAspectRatio="none"
     id="image1664"
     x="-1050"
     y="-349.99997" />
  <path
     style="display:none;opacity:0.28999999;fill:none;stroke:#00ff00;stroke-width:25;stroke-linecap:butt;stroke-linejoin:miter;stroke-miterlimit:4;stroke-dasharray:none;stroke-opacity:1"
     d="m -4425.0447,24545.717 -35.7089,-9.988"
     id="path2589"
     inkscape:connector-curvature="0" />
  <image
     sodipodi:absref="carmen_lcad/data/road_mapper_remission_350px/voltadaufes/i7757400_-363720.png"
     xlink:href="carmen_lcad/data/road_mapper_remission_350px/voltadaufes/i7757400_-363720.png"
     y="349.99988"
     x="-1050"
     id="image2502"
     preserveAspectRatio="none"
     height="350"
     width="350" />
  <path
     style="opacity:0.456;fill:none;stroke:#ff0000;stroke-width:17;stroke-linecap:butt;stroke-linejoin:miter;stroke-miterlimit:4;stroke-dasharray:none;stroke-opacity:1"
     d="m 207.18702,211.10675 c 28.71138,-22.27566 34.37784,-26.81719 51.61753,-40.16035 14.94634,-11.56816 27.23223,-21.65297 44.92679,-34.59079"
     id="path39-6"
     inkscape:connector-curvature="0"
     sodipodi:nodetypes="cac" />
  <path
     style="opacity:0.50700001;fill:none;stroke:#ff0000;stroke-width:17;stroke-linecap:butt;stroke-linejoin:miter;stroke-miterlimit:4;stroke-dasharray:none;stroke-opacity:1"
     d="m 361.50407,70.834407 c -24.51746,19.070244 -30.21368,23.827288 -44.97782,34.577063 -15.02252,10.9379 -29.58979,22.48811 -44.32109,33.8152 -15.6086,12.00166 -31.14771,24.0935 -46.69036,36.18045 -7.14817,5.55889 -14.23634,11.1951 -21.41575,16.71359 -8.73137,6.7114 -17.58795,13.25854 -26.34165,19.94079 -13.57475,10.36246 -23.71483,18.10177 -40.59868,31.25117"
     id="path4535-7"
     inkscape:connector-curvature="0"
     sodipodi:nodetypes="csaaaac" />
  <path
     style="opacity:0.55100002;fill:none;stroke:#ff0000;stroke-width:14;stroke-linecap:butt;stroke-linejoin:miter;stroke-miterlimit:4;stroke-dasharray:none;stroke-opacity:1"
     d="m 102.61595,245.56652 c -8.36325,0.17078 -10.957031,-0.24281 -16.222008,1.03738 -5.101205,1.24035 -9.773473,3.88826 -14.424159,6.32381 -11.105733,5.81604 -21.077705,13.61167 -32.030151,19.71147 -9.309274,5.18466 -18.85464,9.9655 -28.57803,14.3243 -10.83184991,4.8556 -21.90161,9.1965 -33.09451,13.1494 -18.59907,6.5684 -37.59938,11.9493 -56.51813,17.5306 -25.314982,7.4681 -54.717462,16.1653 -76.248902,21.3472"
     id="path4712-5"
     inkscape:connector-curvature="0"
     sodipodi:nodetypes="caaaaaac" />
  <path
     style="opacity:0.50700001;fill:none;stroke:#7fff00;stroke-width:17;stroke-linecap:butt;stroke-linejoin:miter;stroke-miterlimit:4;stroke-dasharray:none;stroke-opacity:1"
     d="m -36.570028,357.08418 c 9.11024,-2.8043 16.20726,-5.1585 24.28003,-7.8322 6.1032501,-2.0214 7.8416501,-2.4433 18.2619801,-6.2065"
     id="path3475"
     inkscape:connector-curvature="0"
     sodipodi:nodetypes="cac" />
  <path
     style="opacity:0.55100002;fill:none;stroke:#ff0000;stroke-width:17;stroke-linecap:butt;stroke-linejoin:miter;stroke-miterlimit:4;stroke-dasharray:none;stroke-opacity:1"
     d="m -88.364428,431.72318 c 10.2851,-6.5385 16.12253,-10.5743 24.08789,-16.0039 6.76754,-4.6131 13.45435,-9.344 20.13679,-14.0795 9.39451,-6.6575 18.78449,-13.3235 28.05659,-20.1504 10.3318601,-7.6073 17.8105201,-12.6195 30.7235,-23.1867"
     id="path3477"
     inkscape:connector-curvature="0"
     sodipodi:nodetypes="caaac" />
  <path
     style="opacity:0.48500001;fill:none;stroke:#ff0000;stroke-width:17;stroke-linecap:butt;stroke-linejoin:miter;stroke-miterlimit:4;stroke-dasharray:none;stroke-opacity:1"
     d="m -29.809838,371.00968 c -12.71735,9.1251 -22.16605,15.6681 -33.30519,23.4219 -11.42466,7.9526 -20.08348,14.1157 -34.38829,23.6927"
     id="path3479"
     inkscape:connector-curvature="0"
     sodipodi:nodetypes="cac" />
  <path
     style="opacity:0.522;fill:none;stroke:#00ff7f;stroke-width:17;stroke-linecap:butt;stroke-linejoin:miter;stroke-miterlimit:4;stroke-dasharray:none;stroke-opacity:1"
     d="m 5.9719821,343.04548 c 10.1675899,-3.5865 14.8158199,-6.1241 22.0777899,-9.5116 7.81813,-3.6468 15.50265,-7.5811 23.11952,-11.6315 9.64387,-5.1284 18.50503,-9.3153 28.57633,-16.0353"
     id="path3481"
     inkscape:connector-curvature="0"
     sodipodi:nodetypes="caac" />
  <path
     style="opacity:0.59200003;fill:none;stroke:#ff0000;stroke-width:17;stroke-linecap:butt;stroke-linejoin:miter;stroke-miterlimit:4;stroke-dasharray:none;stroke-opacity:1"
     d="m 79.745622,305.86708 c 13.21116,-8.9857 20.070648,-14.55858 30.060388,-21.90016 8.78143,-6.45359 17.53251,-12.94856 26.2637,-19.46996 16.55896,-12.36803 31.9247,-24.42128 49.54326,-37.28232"
     id="path3483"
     inkscape:connector-curvature="0"
     sodipodi:nodetypes="caac" />
  <path
     style="opacity:0.51099997;fill:none;stroke:#ff7f00;stroke-width:17;stroke-linecap:butt;stroke-linejoin:miter;stroke-miterlimit:4;stroke-dasharray:none;stroke-opacity:1"
     d="m 14.640342,358.30268 c 21.05216,-16.3779 28.637315,-20.96813 42.79947,-31.6616 17.940245,-13.5462 35.636752,-27.4123 53.419038,-41.1652 13.64451,-10.55272 27.275,-21.12365 40.87801,-31.72981 11.31121,-8.81927 16.17942,-12.76363 33.87611,-26.53143"
     id="path3485"
     inkscape:connector-curvature="0"
     sodipodi:nodetypes="caaac" />
  <path
     style="opacity:0.56199999;fill:none;stroke:#7fff00;stroke-width:17;stroke-linecap:butt;stroke-linejoin:miter;stroke-miterlimit:4;stroke-dasharray:none;stroke-opacity:1"
     d="m 4.3008721,345.09748 c -12.02379,9.1945 -23.5159901,17.9311 -34.1107101,25.9122"
     id="path3487"
     inkscape:connector-curvature="0"
     sodipodi:nodetypes="cc" />
  <path
     style="opacity:0.52600002;fill:none;stroke:#ff0000;stroke-width:17;stroke-linecap:butt;stroke-linejoin:miter;stroke-miterlimit:4;stroke-dasharray:none;stroke-opacity:1"
     d="m -0.17651791,327.23998 c -10.20699009,3.7713 -12.12670009,4.0929 -18.19346009,6.1293 -7.82685,2.6271 -15.60174,5.4164 -23.4893,7.8552 -7.76767,2.4018 -15.64402,4.4369 -23.4616,6.6708 -9.50807,2.7171 -18.94795,5.6813 -28.51338,8.189 -10.817542,2.8358 -17.782522,4.2289 -32.641872,7.7499"
     id="path3489"
     inkscape:connector-curvature="0"
     sodipodi:nodetypes="caaaac" />
  <path
     style="opacity:0.58499995;fill:none;stroke:#ff007f;stroke-width:17;stroke-linecap:butt;stroke-linejoin:miter;stroke-miterlimit:4;stroke-dasharray:none;stroke-opacity:1"
     d="m 70.864812,291.80148 c -11.1392,6.7787 -17.43106,10.1307 -26.33078,14.8597 -7.41391,3.9395 -14.90515,7.7462 -22.5343,11.2507 -7.28732,3.3476 -9.208249,4.55996 -22.17624991,9.3281"
     id="path3491"
     inkscape:connector-curvature="0"
     sodipodi:nodetypes="caac" />
  <path
     style="opacity:0.52600002;fill:none;stroke:#ff0000;stroke-width:17;stroke-linecap:butt;stroke-linejoin:miter;stroke-miterlimit:4;stroke-dasharray:none;stroke-opacity:1"
     d="m 139.34115,241.13024 c -5.84383,4.57537 -23.13047,17.19155 -34.71393,25.76272 -11.242363,8.31877 -24.211998,19.15848 -33.762408,24.90852"
     id="path4725"
     inkscape:connector-curvature="0"
     sodipodi:nodetypes="cac" />
  <path
     style="opacity:0.57700004;fill:none;stroke:#ff7f00;stroke-width:15;stroke-linecap:butt;stroke-linejoin:miter;stroke-miterlimit:4;stroke-dasharray:none;stroke-opacity:1"
     d="m 138.49238,240.89876 c -2.88277,2.23425 -4.06567,2.5308 -6.33726,3.18727 -4.71992,1.36403 -9.76808,1.09767 -14.6704,1.42246 -5.30255,0.35129 -8.75783,0.39252 -15.93239,0.56821"
     id="path4727"
     inkscape:connector-curvature="0"
     sodipodi:nodetypes="caac" />
  <path
     style="opacity:0.48500001;fill:none;stroke:#ff0000;stroke-width:17;stroke-linecap:butt;stroke-linejoin:miter;stroke-miterlimit:4;stroke-dasharray:none;stroke-opacity:1"
     d="m 303.73134,136.35561 c 9.22057,-7.00585 19.65632,-15.51463 28.54338,-21.94875"
     id="path4731"
     inkscape:connector-curvature="0"
     sodipodi:nodetypes="cc" />
  <path
     style="opacity:0.478;fill:none;stroke:#ff0000;stroke-width:17;stroke-linecap:butt;stroke-linejoin:miter;stroke-miterlimit:4;stroke-dasharray:none;stroke-opacity:1"
     d="M 332.27472,114.40686 C 368.36737,86.66915 404.21408,59.737428 439.12009,32.802763"
     id="path4733"
     inkscape:connector-curvature="0"
     sodipodi:nodetypes="cc" />
  <path
     style="opacity:0.577;fill:none;stroke:#ff0000;stroke-width:16;stroke-linecap:butt;stroke-linejoin:miter;stroke-miterlimit:4;stroke-dasharray:none;stroke-opacity:1"
     d="m 222.53086,253.39506 c 10.08892,13.80158 18.99913,25.70342 27.9321,37.80864"
     id="path4807"
     inkscape:connector-curvature="0"
     sodipodi:nodetypes="cc" />
  <path
     style="opacity:0.51099997;fill:none;stroke:#ff0000;stroke-width:17;stroke-linecap:butt;stroke-linejoin:miter;stroke-miterlimit:4;stroke-dasharray:none;stroke-opacity:1"
     d="m 185.61297,227.21464 c 6.35378,-4.96631 13.35992,-9.69032 21.57405,-16.10789"
     id="path4813"
     inkscape:connector-curvature="0"
     sodipodi:nodetypes="cc" />
  <path
     style="opacity:0.53299997;fill:none;stroke:#ff7f00;stroke-width:16;stroke-linecap:butt;stroke-linejoin:miter;stroke-miterlimit:4;stroke-dasharray:none;stroke-opacity:1"
     d="m 183.7963,228.7037 c 4.98971,-4.07243 8.97422,-4.08601 13.40721,-2.95081 5.38708,1.37952 8.76055,6.91864 12.56391,10.97551 4.7859,5.10489 6.20382,8.50025 12.76344,16.66666"
     id="path4809"
     inkscape:connector-curvature="0"
     sodipodi:nodetypes="caac" />
  <path
     style="opacity:0.49300005;fill:none;stroke:#ff7f00;stroke-width:16;stroke-linecap:butt;stroke-linejoin:miter;stroke-miterlimit:4;stroke-dasharray:none;stroke-opacity:1"
     d="m 222.53086,253.39506 c -4.81437,-6.45232 -6.9143,-9.19854 -10.03862,-14.02449 -2.67704,-4.13508 -5.84123,-8.10843 -7.44324,-12.76665 -1.01973,-2.96512 -2.00525,-6.27521 -1.26265,-9.32158 0.73125,-2.9998 0.46561,-4.0417 5.32795,-7.57723"
     id="path4811"
     inkscape:connector-curvature="0"
     sodipodi:nodetypes="caaac" />
  <path
     style="opacity:0.50700001;fill:none;stroke:#ff0000;stroke-width:15;stroke-linecap:butt;stroke-linejoin:miter;stroke-miterlimit:4;stroke-dasharray:none;stroke-opacity:1"
     d="m 335.54836,148.67099 c 7.94518,11.63961 11.69792,17.0593 20.4057,28.80804"
     id="path4815"
     inkscape:connector-curvature="0"
     sodipodi:nodetypes="cc" />
  <path
     style="opacity:0.47400004;fill:none;stroke:#ff7f00;stroke-width:15;stroke-linecap:butt;stroke-linejoin:miter;stroke-miterlimit:4;stroke-dasharray:none;stroke-opacity:1"
     d="m 301.76715,137.12721 c 5.05589,-4.0738 10.38016,-4.50791 15.66705,-3.6241 3.38453,0.56579 6.0911,3.26224 8.72972,5.45607 3.88987,3.23415 6.81998,6.01473 10.25741,11.18495"
     id="path4819"
     inkscape:connector-curvature="0"
     sodipodi:nodetypes="caac" />
  <path
     style="opacity:0.49599998;fill:none;stroke:#ff7f00;stroke-width:15;stroke-linecap:butt;stroke-linejoin:miter;stroke-miterlimit:4;stroke-dasharray:none;stroke-opacity:1"
     d="m 336.09397,149.2166 c -4.01659,-5.81915 -5.36866,-8.28949 -7.0929,-12.87633 -1.37574,-3.65977 -3.05631,-7.58633 -2.50978,-11.45775 0.63018,-4.46404 1.2056,-7.97105 6.43815,-11.89424"
     id="path4821"
     inkscape:connector-curvature="0"
     sodipodi:nodetypes="caac" />
</svg>
