<?xml version="1.0" encoding="UTF-8" standalone="no"?>
<!-- Created with Inkscape (http://www.inkscape.org/) -->

<svg
   xmlns:dc="http://purl.org/dc/elements/1.1/"
   xmlns:cc="http://creativecommons.org/ns#"
   xmlns:rdf="http://www.w3.org/1999/02/22-rdf-syntax-ns#"
   xmlns:svg="http://www.w3.org/2000/svg"
   xmlns="http://www.w3.org/2000/svg"
   xmlns:xlink="http://www.w3.org/1999/xlink"
   xmlns:sodipodi="http://sodipodi.sourceforge.net/DTD/sodipodi-0.dtd"
   xmlns:inkscape="http://www.inkscape.org/namespaces/inkscape"
   version="1.1"
   id="svg1035"
   width="350"
   height="350"
   viewBox="0 0 350 350"
   sodipodi:docname="i7757330_-363510.svg"
   inkscape:version="0.92.2 (unknown)">
  <metadata
     id="metadata1041">
    <rdf:RDF>
      <cc:Work
         rdf:about="">
        <dc:format>image/svg+xml</dc:format>
        <dc:type
           rdf:resource="http://purl.org/dc/dcmitype/StillImage" />
        <dc:title></dc:title>
      </cc:Work>
    </rdf:RDF>
  </metadata>
  <defs
     id="defs1039" />
  <sodipodi:namedview
     pagecolor="#ffffff"
     bordercolor="#666666"
     borderopacity="1"
     objecttolerance="10"
     gridtolerance="10"
     guidetolerance="10"
     inkscape:pageopacity="0"
     inkscape:pageshadow="2"
     inkscape:window-width="1855"
     inkscape:window-height="1056"
     id="namedview1037"
     showgrid="false"
     inkscape:zoom="2.6114286"
     inkscape:cx="172.05653"
     inkscape:cy="22.688659"
     inkscape:window-x="65"
     inkscape:window-y="24"
     inkscape:window-maximized="1"
     inkscape:current-layer="svg1035"
     inkscape:measure-start="815.03,-686.683"
     inkscape:measure-end="836.421,-657.439" />
  <image
     width="350"
     height="350"
     preserveAspectRatio="none"
     xlink:href="carmen_lcad/data/road_mapper_remission_350px/voltadaufes/i7757330_-363510.png"
     id="image1043"
     x="0"
     y="0"
     sodipodi:absref="carmen_lcad/data/road_mapper_remission_350px/voltadaufes/i7757330_-363510.png" />
  <image
     width="350"
     height="350"
     preserveAspectRatio="none"
     xlink:href="carmen_lcad/data/road_mapper_remission_350px/voltadaufes/i7757260_-363510.png"
     id="image894"
     x="-350"
     y="0"
     sodipodi:absref="carmen_lcad/data/road_mapper_remission_350px/voltadaufes/i7757260_-363510.png" />
  <image
     width="350"
     height="350"
     preserveAspectRatio="none"
     xlink:href="carmen_lcad/data/road_mapper_remission_350px/voltadaufes/i7757260_-363580.png"
     id="image12845"
     x="-350"
     y="350"
     sodipodi:absref="carmen_lcad/data/road_mapper_remission_350px/voltadaufes/i7757260_-363580.png" />
  <path
     style="display:none;opacity:0.28999999;fill:none;stroke:#00ff00;stroke-width:25;stroke-linecap:butt;stroke-linejoin:miter;stroke-miterlimit:4;stroke-dasharray:none;stroke-opacity:1"
     d="m -1309.198,19331.542 -35.7089,-9.988"
     id="path2589"
     inkscape:connector-curvature="0" />
  <image
     sodipodi:absref="carmen_lcad/data/road_mapper_remission_350px/voltadaufes/i7757330_-363580.png"
     y="350"
     x="0"
     id="image12768"
     xlink:href="carmen_lcad/data/road_mapper_remission_350px/voltadaufes/i7757330_-363580.png"
     preserveAspectRatio="none"
     height="350"
     width="350" />
  <path
     style="opacity:0.56199999;fill:none;stroke:#ff0000;stroke-width:17;stroke-linecap:butt;stroke-linejoin:miter;stroke-miterlimit:4;stroke-dasharray:none;stroke-opacity:1"
     d="m -503.03666,679.03971 c 0,0 19.7216,-14.4538 29.54106,-21.7367 9.8884,-7.3339 19.8577,-14.5634 29.5815,-22.1143 9.1951,-7.1403 18.2054,-14.5172 27.1882,-21.9229 6.7623,-5.575 13.4109,-11.2866 20.1039,-16.9447 11.3425,-9.5886 22.879,-18.9544 33.9852,-28.8157 9.2527,-8.2154 18.2051,-16.7642 27.1882,-25.2735 8.3396,-7.8997 16.4798,-16.0078 24.7949,-23.9332 8.08879,-7.7098 24.41189,-22.976 24.41189,-22.976"
     id="path12771"
     inkscape:connector-curvature="0"
     sodipodi:nodetypes="caaaaaaac" />
  <path
     style="opacity:0.52600002;fill:none;stroke:#ff0000;stroke-width:17;stroke-linecap:butt;stroke-linejoin:miter;stroke-miterlimit:4;stroke-dasharray:none;stroke-opacity:1"
     d="m -297.92121,483.26041 c 0,0 -18.68109,17.5675 -27.95409,26.4223 -10.2771,9.8137 -20.2983,19.8959 -30.681,29.5979 -5.6408,5.271 -11.3874,10.4287 -17.1719,15.5416 -6.4367,5.6895 -12.954,11.2881 -19.5095,16.8403 -8.0639,6.8298 -16.2903,13.4656 -24.3827,20.2617 -9.3305,7.8359 -18.3274,16.0754 -27.8691,23.6528 -8.2954,6.5877 -17.0206,12.6153 -25.5171,18.9416 -8.55566,6.3704 -17.04016,12.8367 -25.63916,19.1486 -5.3626,3.9363 -16.1852,11.6752 -16.1852,11.6752"
     id="path12773"
     inkscape:connector-curvature="0"
     sodipodi:nodetypes="caaaaaaaac" />
  <path
     style="opacity:0.66199999;fill:none;stroke:#ff0000;stroke-width:17;stroke-linecap:butt;stroke-linejoin:miter;stroke-miterlimit:4;stroke-dasharray:none;stroke-opacity:1"
     d="m -286.24181,495.32271 c 0,0 11.71551,-11.3288 17.60165,-16.9636 6.04813,-5.7899 12.22257,-11.4485 18.20252,-17.3088 13.02184,-12.76128 25.66877,-25.89958 38.48469,-38.86763 13.89464,-14.05957 27.71447,-28.19313 41.64387,-42.21827 13.42025,-13.51249 26.85361,-27.01265 40.39935,-40.39934 8.15368,-8.05796 16.22216,-16.20798 24.60339,-24.029 8.063929,-7.52493 15.913909,-15.34989 24.699129,-22.0186 10.50374,-7.9732 21.19216,-16.13132 33.29624,-21.36501 10.45423,-4.52031 21.81464,-7.12727 33.14248,-8.31223 14.03453967,-1.4681 28.29523,-0.11913 42.30395,1.57781 11.67381,1.41411 23.1408,4.28203 34.54727,7.14039 6.93965,1.73902 20.58323,6.08083 20.58323,6.08083"
     id="path25"
     inkscape:connector-curvature="0"
     sodipodi:nodetypes="caaaaaaaaaaac" />
  <path
     style="opacity:0.53299997;fill:none;stroke:#ff0000;stroke-width:17;stroke-linecap:butt;stroke-linejoin:miter;stroke-miterlimit:4;stroke-dasharray:none;stroke-opacity:1"
     d="m 88.336259,262.35166 c 0,0 -19.91928,-5.93443 -30.04426,-8.2431 -11.08599,-2.52781 -22.27687,-4.69469 -33.55685,-6.12692 -8.07367,-1.02512 -16.2137503,-1.73613 -24.35222033,-1.75629 -7.27764997,-0.018 -14.58421967,0.40049 -21.78396967,1.46261 -7.43123,1.09626 -14.82887,2.69419 -21.96246,5.04724 -6.89994,2.27597 -13.55054,5.32875 -19.97867,8.71527 -5.34132,2.81396 -15.36045,9.59634 -15.36045,9.59634"
     id="path851"
     inkscape:connector-curvature="0"
     sodipodi:nodetypes="caaaaaac" />
  <path
     style="opacity:0.603;fill:none;stroke:#7fff00;stroke-width:17;stroke-linecap:butt;stroke-linejoin:miter;stroke-miterlimit:4;stroke-dasharray:none;stroke-opacity:1"
     d="m -78.702621,271.04681 c 0,0 -9.58392,6.94351 -14.1886,10.65591 -4.91568,3.96313 -14.329779,12.38915 -14.329779,12.38915"
     id="path853"
     inkscape:connector-curvature="0"
     sodipodi:nodetypes="cac" />
  <path
     style="opacity:0.56600001;fill:none;stroke:#ff0000;stroke-width:17;stroke-linecap:butt;stroke-linejoin:miter;stroke-miterlimit:4;stroke-dasharray:none;stroke-opacity:1"
     d="m -107.221,294.09187 c 0,0 -21.41496,20.57786 -31.97484,31.01751 -16.17727,15.99307 -32.01597,32.32513 -48.07524,48.43669 -14.87378,14.9222 -29.89738,29.69506 -44.71613,44.6719 -9.49507,9.59637 -28.31774,28.95385 -28.31774,28.95385"
     id="path855"
     inkscape:connector-curvature="0"
     sodipodi:nodetypes="caaac" />
  <path
     style="opacity:0.51499999;fill:none;stroke:#7fff00;stroke-width:17;stroke-linecap:butt;stroke-linejoin:miter;stroke-miterlimit:4;stroke-dasharray:none;stroke-opacity:1"
     d="m -260.30495,447.17182 -37.61626,36.08859"
     id="path857"
     inkscape:connector-curvature="0"
     sodipodi:nodetypes="cc" />
  <image
     sodipodi:absref="carmen_lcad/data/road_mapper_remission_350px/voltadaufes/i7757400_-363580.png"
     y="350"
     x="350"
     id="image1352"
     xlink:href="carmen_lcad/data/road_mapper_remission_350px/voltadaufes/i7757400_-363580.png"
     preserveAspectRatio="none"
     height="350"
     width="350" />
  <image
     sodipodi:absref="carmen_lcad/data/road_mapper_remission_350px/voltadaufes/i7757400_-363650.png"
     y="700"
     x="350"
     id="image1417"
     xlink:href="carmen_lcad/data/road_mapper_remission_350px/voltadaufes/i7757400_-363650.png"
     preserveAspectRatio="none"
     height="350"
     width="350" />
  <image
     sodipodi:absref="carmen_lcad/data/road_mapper_remission_350px/voltadaufes/i7757470_-363650.png"
     y="700"
     x="700"
     id="image1482"
     xlink:href="carmen_lcad/data/road_mapper_remission_350px/voltadaufes/i7757470_-363650.png"
     preserveAspectRatio="none"
     height="350"
     width="350" />
  <path
     style="opacity:0.53699999;fill:none;stroke:#ff0000;stroke-width:18;stroke-linecap:butt;stroke-linejoin:miter;stroke-miterlimit:4;stroke-dasharray:none;stroke-opacity:1"
     d="m 83.265959,278.63926 c 13.187287,4.21713 21.127141,5.75017 31.475321,9.30026 16.48631,5.65586 32.69518,12.13981 48.68041,19.08672 15.21313,6.61137 30.31355,13.55961 44.88957,21.47726 10.22465,5.55399 20.01462,11.88505 29.77833,18.21437 13.70218,8.88243 27.28994,17.97222 40.3946,27.71466 7.14561,5.31229 14.19904,10.78169 20.81674,16.73872 9.6379,8.67572 18.86126,17.85435 27.42067,27.5957 10.17378,11.57865 18.87704,24.37093 28.33554,36.54088 8.14593,10.48111 16.30228,20.95413 24.47218,31.41657 4.76543,6.10265 6.85391,9.11706 14.31816,18.29086"
     id="path1485"
     inkscape:connector-curvature="0"
     sodipodi:nodetypes="caaaaaaaaac" />
  <path
     style="opacity:0.53299997;fill:none;stroke:#ff0000;stroke-width:18;stroke-linecap:butt;stroke-linejoin:miter;stroke-miterlimit:4;stroke-dasharray:none;stroke-opacity:1"
     d="m 407.63771,493.45809 c -11.01263,-12.84671 -12.69695,-15.58429 -18.89528,-23.49562 -8.61706,-10.99852 -16.85446,-22.29033 -25.42952,-33.32162 -7.87603,-10.13202 -15.36679,-20.59742 -23.89779,-30.18448 -7.14559,-8.03016 -14.77243,-15.6543 -22.78582,-22.81869 -10.40051,-9.29859 -21.55451,-17.73433 -32.72964,-26.08604 -10.24313,-7.65518 -20.76932,-14.93478 -31.42901,-21.99839 -8.02681,-5.31895 -16.14491,-10.51514 -24.479,-15.33839 -10.79877,-6.24965 -21.8806,-12.00889 -33.03442,-17.6003 -9.09585,-4.55975 -18.31175,-8.88594 -27.61894,-12.99714 -9.29143,-4.10424 -12.68177,-6.33666 -28.16049,-11.64328"
     id="path1487"
     inkscape:connector-curvature="0"
     sodipodi:nodetypes="caaaaaaaaac" />
  <path
     style="opacity:0.53299997;fill:none;stroke:#7fff00;stroke-width:17;stroke-linecap:butt;stroke-linejoin:miter;stroke-miterlimit:4;stroke-dasharray:none;stroke-opacity:1"
     d="m 139.1778,277.97414 c 0,0 -15.67418,-5.15193 -23.55732,-7.58168 -9.06084,-2.79274 -27.284221,-8.0408 -27.284221,-8.0408"
     id="path1489"
     inkscape:connector-curvature="0"
     sodipodi:nodetypes="cac" />
</svg>
