<?xml version="1.0" encoding="UTF-8" standalone="no"?>
<!-- Created with Inkscape (http://www.inkscape.org/) -->

<svg
   xmlns:dc="http://purl.org/dc/elements/1.1/"
   xmlns:cc="http://creativecommons.org/ns#"
   xmlns:rdf="http://www.w3.org/1999/02/22-rdf-syntax-ns#"
   xmlns:svg="http://www.w3.org/2000/svg"
   xmlns="http://www.w3.org/2000/svg"
   xmlns:xlink="http://www.w3.org/1999/xlink"
   xmlns:sodipodi="http://sodipodi.sourceforge.net/DTD/sodipodi-0.dtd"
   xmlns:inkscape="http://www.inkscape.org/namespaces/inkscape"
   version="1.1"
   id="svg5374"
   width="350"
   height="350"
   viewBox="0 0 350 350"
   sodipodi:docname="i7757960_-363650.svg"
   inkscape:version="0.92.2 (unknown)">
  <metadata
     id="metadata5380">
    <rdf:RDF>
      <cc:Work
         rdf:about="">
        <dc:format>image/svg+xml</dc:format>
        <dc:type
           rdf:resource="http://purl.org/dc/dcmitype/StillImage" />
        <dc:title />
      </cc:Work>
    </rdf:RDF>
  </metadata>
  <defs
     id="defs5378" />
  <sodipodi:namedview
     pagecolor="#ffffff"
     bordercolor="#666666"
     borderopacity="1"
     objecttolerance="10"
     gridtolerance="10"
     guidetolerance="10"
     inkscape:pageopacity="0"
     inkscape:pageshadow="2"
     inkscape:window-width="1855"
     inkscape:window-height="1056"
     id="namedview5376"
     showgrid="false"
     inkscape:zoom="2.8237469"
     inkscape:cx="-128.22241"
     inkscape:cy="37.744166"
     inkscape:window-x="65"
     inkscape:window-y="24"
     inkscape:window-maximized="1"
     inkscape:current-layer="svg5374" />
  <image
     sodipodi:absref="carmen_lcad/data/road_mapper_remission_350px/voltadaufes/i7757960_-363650.png"
     xlink:href="carmen_lcad/data/road_mapper_remission_350px/voltadaufes/i7757960_-363650.png"
     y="0"
     x="0"
     id="image5382"
     preserveAspectRatio="none"
     height="350"
     width="350" />
  <image
     sodipodi:absref="carmen_lcad/data/road_mapper_remission_350px/voltadaufes/i7757960_-363720.png"
     xlink:href="carmen_lcad/data/road_mapper_remission_350px/voltadaufes/i7757960_-363720.png"
     y="350"
     x="0"
     id="image5472"
     preserveAspectRatio="none"
     height="350"
     width="350" />
  <image
     sodipodi:absref="carmen_lcad/data/road_mapper_remission_350px/voltadaufes/i7757890_-363720.png"
     xlink:href="carmen_lcad/data/road_mapper_remission_350px/voltadaufes/i7757890_-363720.png"
     y="350"
     x="-350"
     id="image5290"
     preserveAspectRatio="none"
     height="350"
     width="350" />
  <image
     sodipodi:absref="carmen_lcad/data/road_mapper_remission_350px/voltadaufes/i7757890_-363650.png"
     xlink:href="carmen_lcad/data/road_mapper_remission_350px/voltadaufes/i7757890_-363650.png"
     y="0"
     x="-350"
     id="image5200"
     preserveAspectRatio="none"
     height="350"
     width="350" />
  <path
     style="opacity:0.49599998;fill:none;stroke:#7fff00;stroke-width:15;stroke-linecap:butt;stroke-linejoin:miter;stroke-miterlimit:4;stroke-dasharray:none;stroke-opacity:1"
     d="m -392.185,-2.3688437 c 0,0 43.09862,37.5500397 64.54523,56.4420797 22.46645,19.79041 44.78473,39.7484 67.1833,59.615614 18.12391,16.07566 36.21259,32.19118 54.38177,48.21567 23.85109,21.03571 47.77835,41.98499 71.71787,62.92002 12.37157,10.81889 24.79462,21.57883 37.166646,32.3972 12.81149,11.20265 25.81806,22.18829 38.38202,33.66786 7.94721,7.26128 15.82317,14.61088 23.3953,22.26249 7.23111,7.30701 14.56091,14.56922 21.02546,22.56241 7.48183,9.25103 15.10650996,18.62482 20.44665,29.25696 8.33539,16.59566 14.22859,37.1017 17.57599,52.86905"
     id="path5232"
     inkscape:connector-curvature="0"
     sodipodi:nodetypes="caaaaaaaaac" />
  <path
     style="opacity:0.66399997;fill:none;stroke:#7fff00;stroke-width:16;stroke-linecap:butt;stroke-linejoin:miter;stroke-miterlimit:4;stroke-dasharray:none;stroke-opacity:1"
     d="M 38.641546,414.42677 C 32.884056,390.36787 28.523376,378.06454 24.347926,368.13729 19.040986,355.51988 9.422976,340.98386 -0.20091404,328.93994 -15.505194,309.78725 -34.470254,293.84741 -52.385274,277.11126 c -10.73218,-10.02597 -22.09622,-19.3536 -33.10137,-29.07915 -19.565216,-17.29032 -38.983966,-34.74586 -58.542386,-52.04385 -31.7927,-28.11832 -63.7526,-56.04706 -95.5935,-84.11079 -18.23713,-16.073734 -36.44541,-32.180187 -54.66048,-48.278924 -14.44749,-12.76889 -28.89925,-25.53293 -43.37309,-38.27194 -14.81182,-13.03649 -44.49546,-39.04119 -44.49546,-39.04119"
     id="path6060"
     inkscape:connector-curvature="0"
     sodipodi:nodetypes="csaaaasssc" />
</svg>
