<?xml version="1.0" encoding="UTF-8" standalone="no"?>
<!-- Created with Inkscape (http://www.inkscape.org/) -->

<svg
   xmlns:dc="http://purl.org/dc/elements/1.1/"
   xmlns:cc="http://creativecommons.org/ns#"
   xmlns:rdf="http://www.w3.org/1999/02/22-rdf-syntax-ns#"
   xmlns:svg="http://www.w3.org/2000/svg"
   xmlns="http://www.w3.org/2000/svg"
   xmlns:xlink="http://www.w3.org/1999/xlink"
   xmlns:sodipodi="http://sodipodi.sourceforge.net/DTD/sodipodi-0.dtd"
   xmlns:inkscape="http://www.inkscape.org/namespaces/inkscape"
   version="1.1"
   id="svg7777"
   width="350"
   height="350"
   viewBox="0 0 350 350"
   sodipodi:docname="i7757400_-364140.svg"
   inkscape:version="0.92.2 (unknown)">
  <metadata
     id="metadata7783">
    <rdf:RDF>
      <cc:Work
         rdf:about="">
        <dc:format>image/svg+xml</dc:format>
        <dc:type
           rdf:resource="http://purl.org/dc/dcmitype/StillImage" />
        <dc:title />
      </cc:Work>
    </rdf:RDF>
  </metadata>
  <defs
     id="defs7781" />
  <sodipodi:namedview
     pagecolor="#ffffff"
     bordercolor="#666666"
     borderopacity="1"
     objecttolerance="10"
     gridtolerance="10"
     guidetolerance="10"
     inkscape:pageopacity="0"
     inkscape:pageshadow="2"
     inkscape:window-width="1855"
     inkscape:window-height="1056"
     id="namedview7779"
     showgrid="false"
     inkscape:zoom="0.65285715"
     inkscape:cx="-482.30537"
     inkscape:cy="321.97614"
     inkscape:window-x="65"
     inkscape:window-y="24"
     inkscape:window-maximized="1"
     inkscape:current-layer="svg7777" />
  <image
     width="350"
     height="350"
     preserveAspectRatio="none"
     xlink:href="carmen_lcad/data/road_mapper_remission_350px/voltadaufes/i7757400_-364140.png"
     id="image7785"
     x="0"
     y="0"
     sodipodi:absref="carmen_lcad/data/road_mapper_remission_350px/voltadaufes/i7757400_-364140.png" />
  <path
     style="fill:none;stroke:#ff0000;stroke-width:24;stroke-linecap:butt;stroke-linejoin:miter;stroke-miterlimit:4;stroke-dasharray:none;stroke-opacity:1"
     d="m 281.74028,-16.763291 c 0,0 -14.21238,8.7280321 -21.52653,12.7263752 -11.88278,6.4958213 -24.06972,12.427925 -36.28371,18.2772398 -12.29517,5.888193 -24.7337,11.478276 -37.23142,16.923371 -8.9206,3.88659 -26.942,11.237118 -26.942,11.237118"
     id="path7826"
     inkscape:connector-curvature="0"
     sodipodi:nodetypes="caaac" />
  <path
     style="fill:none;stroke:#00ff7f;stroke-width:24;stroke-linecap:butt;stroke-linejoin:miter;stroke-miterlimit:4;stroke-dasharray:none;stroke-opacity:1"
     d="m 159.75662,42.400813 c 0,0 -21.63167,8.294156 -32.49287,12.320214 -8.82121,3.269865 -26.53585,9.612475 -26.53585,9.612475"
     id="path7828"
     inkscape:connector-curvature="0"
     sodipodi:nodetypes="cac" />
  <path
     style="fill:none;stroke:#ff0000;stroke-width:24;stroke-linecap:butt;stroke-linejoin:miter;stroke-miterlimit:4;stroke-dasharray:none;stroke-opacity:1"
     d="m -15.499131,125.10667 c 0,0 29.161489,-8.99074 43.766425,-13.40662 14.476341,-4.377 29.077788,-8.34698 43.476408,-12.973242 C 83.901283,94.82059 107.96364,86.248667 107.96364,86.248667"
     id="path7830"
     inkscape:connector-curvature="0"
     sodipodi:nodetypes="caac" />
  <path
     style="fill:none;stroke:#ff0000;stroke-width:24;stroke-linecap:butt;stroke-linejoin:miter;stroke-miterlimit:4;stroke-dasharray:none;stroke-opacity:1"
     d="m 168.49015,64.52407 c 0,0 20.04734,-8.151546 30.06018,-12.253829 10.85761,-4.448391 21.80993,-8.675756 32.54923,-13.402626 10.4527,-4.600722 20.75532,-9.540125 31.0175,-14.551422 8.23299,-4.020389 24.50766,-12.445296 24.50766,-12.445296"
     id="path7832"
     inkscape:connector-curvature="0"
     sodipodi:nodetypes="caaac" />
  <path
     style="fill:none;stroke:#ff0000;stroke-width:23;stroke-linecap:butt;stroke-linejoin:miter;stroke-miterlimit:4;stroke-dasharray:none;stroke-opacity:1"
     d="m 100.7279,64.333502 c 0,0 -26.840944,9.196032 -40.345313,13.538696 C 46.35819,82.38209 32.242568,86.60406 18.141853,90.869347 1.467955,95.912989 -31.951324,105.76191 -31.951324,105.76191"
     id="path7824"
     inkscape:connector-curvature="0"
     sodipodi:nodetypes="caac" />
  <path
     style="fill:none;stroke:#ff0000;stroke-width:26;stroke-linecap:butt;stroke-linejoin:miter;stroke-miterlimit:4;stroke-dasharray:none;stroke-opacity:1"
     d="m 286.62472,11.870897 c 0,0 14.18587,-7.3702808 21.25274,-11.10503285 7.42177,-3.92231605 14.84269,-7.84734225 22.21007,-11.87089715 6.09334,-3.327764 18.18927,-10.147703 18.18927,-10.147703"
     id="path7834"
     inkscape:connector-curvature="0"
     sodipodi:nodetypes="caac" />
  <path
     style="fill:none;stroke:#ff007f;stroke-width:16;stroke-linecap:butt;stroke-linejoin:miter;stroke-miterlimit:4;stroke-dasharray:none;stroke-opacity:1"
     d="M 202.40275,367.62811 C 122.79358,355.1412 44.248734,343.57621 -34.1318,332.42756"
     id="path4792"
     inkscape:connector-curvature="0"
     sodipodi:nodetypes="cc" />
  <path
     style="fill:none;stroke:#0000ff;stroke-width:18;stroke-linecap:butt;stroke-linejoin:miter;stroke-miterlimit:4;stroke-dasharray:none;stroke-opacity:1"
     d="M 88.441696,367.45123 C -65.908224,343.88825 -213.76339,324.65512 -364.24254,303.67266"
     id="path4788"
     inkscape:connector-curvature="0"
     sodipodi:nodetypes="cc" />
  <path
     style="fill:none;stroke:#00ff7f;stroke-width:24;stroke-linecap:butt;stroke-linejoin:miter;stroke-miterlimit:4;stroke-dasharray:none;stroke-opacity:1"
     d="m 107.96364,86.248667 c 0,0 19.57399,-6.74257 29.31754,-10.236632 10.43475,-3.741927 31.20897,-11.487965 31.20897,-11.487965"
     id="path7836"
     inkscape:connector-curvature="0"
     sodipodi:nodetypes="cac" />
  <path
     style="fill:none;stroke:#ff0000;stroke-width:25;stroke-linecap:butt;stroke-linejoin:miter;stroke-miterlimit:4;stroke-dasharray:none;stroke-opacity:1"
     d="m -147.3906,153.70757 c 0,0 6.54755,-0.97611 9.76892,-1.72147 11.84529,-2.74077 27.57791,-4.8656 41.31695,-7.56168 14.81409,-2.90704 29.64454,-5.77714 44.32738,-9.28748 13.54677,-3.23873 26.98809,-6.92626 40.35083,-10.85582 14.8528,-4.36773 44.24254,-14.13303 44.24254,-14.13303"
     id="path4800"
     inkscape:connector-curvature="0"
     sodipodi:nodetypes="csaaac" />
  <path
     style="fill:none;stroke:#ff0000;stroke-width:23;stroke-linecap:butt;stroke-linejoin:miter;stroke-miterlimit:4;stroke-dasharray:none;stroke-opacity:1"
     d="m 24.54137,87.850004 c 0,0 -31.32981,10.530112 -47.21596,15.062766 -21.64139,6.17474 -43.49485,11.63403 -65.46508,16.5111 -21.98075,4.8794 -44.15426,8.87027 -66.33409,12.74542 -20.15574,3.5215 -60.6367,9.54374 -60.6367,9.54374"
     id="path4798"
     inkscape:connector-curvature="0"
     sodipodi:nodetypes="caaac" />
</svg>
