<?xml version="1.0" encoding="UTF-8" standalone="no"?>
<!-- Created with Inkscape (http://www.inkscape.org/) -->

<svg
   xmlns:dc="http://purl.org/dc/elements/1.1/"
   xmlns:cc="http://creativecommons.org/ns#"
   xmlns:rdf="http://www.w3.org/1999/02/22-rdf-syntax-ns#"
   xmlns:svg="http://www.w3.org/2000/svg"
   xmlns="http://www.w3.org/2000/svg"
   xmlns:xlink="http://www.w3.org/1999/xlink"
   xmlns:sodipodi="http://sodipodi.sourceforge.net/DTD/sodipodi-0.dtd"
   xmlns:inkscape="http://www.inkscape.org/namespaces/inkscape"
   version="1.1"
   id="svg4743"
   width="350"
   height="350"
   viewBox="0 0 350 350"
   sodipodi:docname="i7757680_-363580.svg"
   inkscape:version="0.92.2 (unknown)">
  <metadata
     id="metadata4749">
    <rdf:RDF>
      <cc:Work
         rdf:about="">
        <dc:format>image/svg+xml</dc:format>
        <dc:type
           rdf:resource="http://purl.org/dc/dcmitype/StillImage" />
        <dc:title></dc:title>
      </cc:Work>
    </rdf:RDF>
  </metadata>
  <defs
     id="defs4747" />
  <sodipodi:namedview
     pagecolor="#ffffff"
     bordercolor="#666666"
     borderopacity="1"
     objecttolerance="10"
     gridtolerance="10"
     guidetolerance="10"
     inkscape:pageopacity="0"
     inkscape:pageshadow="2"
     inkscape:window-width="1855"
     inkscape:window-height="1056"
     id="namedview4745"
     showgrid="false"
     inkscape:zoom="1.5208438"
     inkscape:cx="363.20283"
     inkscape:cy="166.93078"
     inkscape:window-x="65"
     inkscape:window-y="24"
     inkscape:window-maximized="1"
     inkscape:current-layer="svg4743" />
  <image
     width="350"
     height="350"
     preserveAspectRatio="none"
     xlink:href="carmen_lcad/data/road_mapper_remission_350px/voltadaufes/i7757680_-363580.png"
     id="image4751"
     x="0"
     y="0"
     sodipodi:absref="carmen_lcad/data/road_mapper_remission_350px/voltadaufes/i7757680_-363580.png" />
  <path
     style="fill:none;stroke:#7fff00;stroke-width:16;stroke-linecap:butt;stroke-linejoin:miter;stroke-miterlimit:4;stroke-dasharray:none;stroke-opacity:1"
     d="m 62.55165,402.76703 c 0,0 34.183942,-26.4066 51.36923,-39.48791 15.55284,-11.8387 31.22646,-23.51791 46.82638,-35.29451 19.11417,-14.42955 38.28824,-28.78056 57.30989,-43.33187 18.90744,-14.46394 37.60501,-29.20047 56.47706,-43.71056 22.0236,-16.93321 44.10778,-33.78776 66.23244,-50.58873 14.81632,-11.25119 44.54339,-33.62885 44.54339,-33.62885"
     id="path4815"
     inkscape:connector-curvature="0"
     sodipodi:nodetypes="caaaaac" />
  <path
     style="fill:none;stroke:#7fff00;stroke-width:16;stroke-linecap:butt;stroke-linejoin:miter;stroke-miterlimit:4;stroke-dasharray:none;stroke-opacity:1"
     d="m 373.2132,145.22197 c 0,0 -29.50498,22.39932 -44.21706,33.65196 -15.36916,11.7552 -30.70848,23.54948 -46.02277,35.37608 -16.93711,13.07983 -33.73668,26.33772 -50.72268,39.35399 -21.56712,16.52674 -43.3244,32.80384 -64.99781,49.19094 -24.09404,18.21732 -48.31393,36.26892 -72.307027,54.61899 -14.475486,11.07094 -43.22717,33.47178 -43.22717,33.47178"
     id="path4817"
     inkscape:connector-curvature="0"
     sodipodi:nodetypes="caaaaac" />
</svg>
