<?xml version="1.0" encoding="UTF-8" standalone="no"?>
<!-- Created with Inkscape (http://www.inkscape.org/) -->

<svg
   xmlns:dc="http://purl.org/dc/elements/1.1/"
   xmlns:cc="http://creativecommons.org/ns#"
   xmlns:rdf="http://www.w3.org/1999/02/22-rdf-syntax-ns#"
   xmlns:svg="http://www.w3.org/2000/svg"
   xmlns="http://www.w3.org/2000/svg"
   xmlns:xlink="http://www.w3.org/1999/xlink"
   xmlns:sodipodi="http://sodipodi.sourceforge.net/DTD/sodipodi-0.dtd"
   xmlns:inkscape="http://www.inkscape.org/namespaces/inkscape"
   version="1.1"
   id="svg5282"
   width="350"
   height="350"
   viewBox="0 0 350 350"
   sodipodi:docname="i7757890_-363720.svg"
   inkscape:version="0.92.2 (unknown)">
  <metadata
     id="metadata5288">
    <rdf:RDF>
      <cc:Work
         rdf:about="">
        <dc:format>image/svg+xml</dc:format>
        <dc:type
           rdf:resource="http://purl.org/dc/dcmitype/StillImage" />
        <dc:title />
      </cc:Work>
    </rdf:RDF>
  </metadata>
  <defs
     id="defs5286" />
  <sodipodi:namedview
     pagecolor="#ffffff"
     bordercolor="#666666"
     borderopacity="1"
     objecttolerance="10"
     gridtolerance="10"
     guidetolerance="10"
     inkscape:pageopacity="0"
     inkscape:pageshadow="2"
     inkscape:window-width="1855"
     inkscape:window-height="1056"
     id="namedview5284"
     showgrid="false"
     inkscape:zoom="0.5"
     inkscape:cx="-311.3789"
     inkscape:cy="146.82376"
     inkscape:window-x="65"
     inkscape:window-y="24"
     inkscape:window-maximized="1"
     inkscape:current-layer="svg5282" />
  <image
     sodipodi:absref="/home/rcarneiro/carmen_lcad/data/road_mapper_remission_350px/voltadaufes/i7757890_-363790.png"
     y="350"
     x="0"
     id="image2071"
     xlink:href="file:///home/rcarneiro/carmen_lcad/data/road_mapper_remission_350px/voltadaufes/i7757890_-363790.png"
     preserveAspectRatio="none"
     height="350"
     width="350" />
  <image
     sodipodi:absref="carmen_lcad/data/road_mapper_remission_350px/voltadaufes/i7757960_-363720.png"
     xlink:href="carmen_lcad/data/road_mapper_remission_350px/voltadaufes/i7757960_-363720.png"
     y="0"
     x="350"
     id="image5472"
     preserveAspectRatio="none"
     height="350"
     width="350" />
  <image
     sodipodi:absref="carmen_lcad/data/road_mapper_remission_350px/voltadaufes/i7757890_-363720.png"
     xlink:href="carmen_lcad/data/road_mapper_remission_350px/voltadaufes/i7757890_-363720.png"
     y="0"
     x="0"
     id="image5290"
     preserveAspectRatio="none"
     height="350"
     width="350" />
  <image
     sodipodi:absref="carmen_lcad/data/road_mapper_remission_350px/voltadaufes/i7757960_-363650.png"
     xlink:href="carmen_lcad/data/road_mapper_remission_350px/voltadaufes/i7757960_-363650.png"
     y="-350"
     x="350"
     id="image5382"
     preserveAspectRatio="none"
     height="350"
     width="350" />
  <image
     sodipodi:absref="carmen_lcad/data/road_mapper_remission_350px/voltadaufes/i7757890_-363650.png"
     xlink:href="carmen_lcad/data/road_mapper_remission_350px/voltadaufes/i7757890_-363650.png"
     y="-350"
     x="0"
     id="image5200"
     preserveAspectRatio="none"
     height="350"
     width="350" />
  <image
     sodipodi:absref="/home/rcarneiro/carmen_lcad/data/road_mapper_remission_350px/voltadaufes/i7757750_-363790.png"
     y="350"
     x="-700"
     id="image5768"
     xlink:href="file:///home/rcarneiro/carmen_lcad/data/road_mapper_remission_350px/voltadaufes/i7757750_-363790.png"
     preserveAspectRatio="none"
     height="350"
     width="350" />
  <image
     sodipodi:absref="carmen_lcad/data/road_mapper_remission_350px/voltadaufes/i7757750_-363860.png"
     xlink:href="carmen_lcad/data/road_mapper_remission_350px/voltadaufes/i7757750_-363860.png"
     y="700"
     x="-700"
     id="image5742"
     preserveAspectRatio="none"
     height="350"
     width="350" />
  <image
     sodipodi:absref="carmen_lcad/data/road_mapper_remission_350px/voltadaufes/i7757820_-363860.png"
     xlink:href="carmen_lcad/data/road_mapper_remission_350px/voltadaufes/i7757820_-363860.png"
     y="700"
     x="-350"
     id="image5832"
     preserveAspectRatio="none"
     height="350"
     width="350" />
  <image
     sodipodi:absref="carmen_lcad/data/road_mapper_remission_350px/voltadaufes/i7757820_-363790.png"
     xlink:href="carmen_lcad/data/road_mapper_remission_350px/voltadaufes/i7757820_-363790.png"
     y="350"
     x="-350"
     id="image5652"
     preserveAspectRatio="none"
     height="350"
     width="350" />
  <path
     style="opacity:0.47700004;fill:none;stroke:#7fff00;stroke-width:25;stroke-linecap:butt;stroke-linejoin:miter;stroke-miterlimit:4;stroke-dasharray:none;stroke-opacity:1"
     d="m 368.78572,68.337121 c 0,0 2.37045,29.528428 0.3013,44.073499 -1.5909,11.18323 -5.61793,21.93467 -9.6725,32.47772 -2.12197,5.51773 -4.68835,10.88215 -7.6313,16.00925 -3.92968,6.84613 -8.2918,13.495 -13.3196,19.58049 -6.37451,7.7155 -13.70587,14.62685 -21.1939,21.26708 -11.26742,9.99172 -23.69955,18.58743 -35.5851,27.83529 -10.87685,8.46301 -21.77446,16.89942 -32.6958,25.30494 -11.73369,9.03075 -23.56448,17.93516 -35.2741,26.9971 -12.64284,9.78416 -25.09814,19.80964 -37.7706,29.5554 -25.30054,19.45738 -51.06433,38.3069 -76.389001,57.73286 -23.479705,18.01072 -70.050766,54.53471 -70.050766,54.53471"
     id="path5324-7"
     inkscape:connector-curvature="0"
     sodipodi:nodetypes="caaaaaaaaaac" />
  <path
     style="opacity:0.40800003;fill:none;stroke:#7fff00;stroke-width:25;stroke-linecap:butt;stroke-linejoin:miter;stroke-miterlimit:4;stroke-dasharray:none;stroke-opacity:1"
     d="m 44.562584,443.46657 c 0,0 70.675626,-55.05517 106.220326,-82.31439 21.52951,-16.51098 43.29887,-32.70752 64.83751,-49.20659 13.55534,-10.38368 27.01053,-20.89745 40.52574,-31.33332 14.28029,-11.02663 28.68207,-21.8971 42.86184,-33.05269 13.07976,-10.29019 26.71218,-19.95825 38.93808,-31.24964 8.07106,-7.45413 15.89157,-15.29006 22.60444,-23.98739 6.30969,-8.17496 11.72663,-17.07139 16.4282,-26.26581 3.32135,-6.49526 5.85987,-13.3786 8.2486,-20.27162 3.10989,-8.97404 6.34842,-18.00643 7.8944,-27.37738 1.56804,-9.50471 1.25804,-19.235758 1.3366,-28.868619 0.0627,-7.683448 -0.189,-13.6082 -0.6904,-23.04077"
     id="path5326-5"
     inkscape:connector-curvature="0"
     sodipodi:nodetypes="caaaaaaaaaac" />
  <path
     style="opacity:0.49599998;fill:none;stroke:#7fff00;stroke-width:15;stroke-linecap:butt;stroke-linejoin:miter;stroke-miterlimit:4;stroke-dasharray:none;stroke-opacity:1"
     d="m -42.184981,-352.36882 c 0,0 43.09859955,37.55004 64.5452,56.44209 22.4665,19.7904 44.7848,39.74839 67.1833,59.6156 18.123901,16.07566 36.212601,32.19118 54.381801,48.21567 23.8511,21.03571 47.7783,41.98499 71.7179,62.92002 12.3715,10.81889 24.7946,21.57883 37.1666,32.397201 12.8115,11.20265 25.8181,22.18829 38.382,33.66786 7.9472,7.26128 15.8232,14.61088 23.3953,22.26249 7.2311,7.30701 14.5609,14.56922 21.0255,22.56241 7.4818,9.25103 14.7668,18.80236 20.4466,29.25695 5.1066,9.39944 8.8411,19.53725 12.0636,29.73734 2.7606,8.73796 4.6824,16.07515 6.1772,26.78805"
     id="path5232-6"
     inkscape:connector-curvature="0"
     sodipodi:nodetypes="caaaaaaaaaac" />
  <path
     style="opacity:0.66399997;fill:none;stroke:#7fff00;stroke-width:16;stroke-linecap:butt;stroke-linejoin:miter;stroke-miterlimit:4;stroke-dasharray:none;stroke-opacity:1"
     d="m 388.97392,68.747911 c -1.4185,-11.11313 -2.7901,-16.78683 -5.0919,-24.96038 -2.3398,-8.30848 -5.3059,-16.46313 -8.8253,-24.34472 -3.2637,-7.30899 -7.0722,-14.3962 -11.3471,-21.16366 -4.5495,-7.20218 -9.5874,-14.12983 -15.1516,-20.58033 -15.6311,-18.12098 -33.4551,-34.25152 -50.9433,-50.58754 -10.7326,-10.02552 -22.0962,-19.35361 -33.1013,-29.079151 -19.5653,-17.29032 -38.984,-34.74586 -58.5424,-52.04385 -31.7927,-28.11832 -63.7526,-56.04706 -95.5935,-84.11079 -18.237201,-16.07373 -36.445401,-32.18018 -54.660501,-48.27892 -14.4475,-12.76889 -28.8993,-25.53293 -43.3731,-38.27194 -14.8118004,-13.03649 -44.4955,-39.04122 -44.4955,-39.04122"
     id="path6060-2"
     inkscape:connector-curvature="0"
     sodipodi:nodetypes="caaaaaaasssc" />
</svg>
