<?xml version="1.0" encoding="UTF-8" standalone="no"?>
<!-- Created with Inkscape (http://www.inkscape.org/) -->

<svg
   xmlns:dc="http://purl.org/dc/elements/1.1/"
   xmlns:cc="http://creativecommons.org/ns#"
   xmlns:rdf="http://www.w3.org/1999/02/22-rdf-syntax-ns#"
   xmlns:svg="http://www.w3.org/2000/svg"
   xmlns="http://www.w3.org/2000/svg"
   xmlns:xlink="http://www.w3.org/1999/xlink"
   xmlns:sodipodi="http://sodipodi.sourceforge.net/DTD/sodipodi-0.dtd"
   xmlns:inkscape="http://www.inkscape.org/namespaces/inkscape"
   version="1.1"
   id="svg12837"
   width="350"
   height="350"
   viewBox="0 0 350 350"
   sodipodi:docname="i7757260_-363580.svg"
   inkscape:version="0.92.2 (unknown)">
  <metadata
     id="metadata12843">
    <rdf:RDF>
      <cc:Work
         rdf:about="">
        <dc:format>image/svg+xml</dc:format>
        <dc:type
           rdf:resource="http://purl.org/dc/dcmitype/StillImage" />
        <dc:title />
      </cc:Work>
    </rdf:RDF>
  </metadata>
  <defs
     id="defs12841" />
  <sodipodi:namedview
     pagecolor="#ffffff"
     bordercolor="#666666"
     borderopacity="1"
     objecttolerance="10"
     gridtolerance="10"
     guidetolerance="10"
     inkscape:pageopacity="0"
     inkscape:pageshadow="2"
     inkscape:window-width="1855"
     inkscape:window-height="1056"
     id="namedview12839"
     showgrid="false"
     inkscape:zoom="14.779243"
     inkscape:cx="84.842121"
     inkscape:cy="215.93961"
     inkscape:window-x="65"
     inkscape:window-y="24"
     inkscape:window-maximized="1"
     inkscape:current-layer="svg12837" />
  <image
     width="350"
     height="350"
     preserveAspectRatio="none"
     xlink:href="carmen_lcad/data/road_mapper_remission_350px/voltadaufes/i7757260_-363580.png"
     id="image12845"
     x="0"
     y="0"
     sodipodi:absref="carmen_lcad/data/road_mapper_remission_350px/voltadaufes/i7757260_-363580.png" />
  <image
     width="350"
     height="350"
     preserveAspectRatio="none"
     xlink:href="carmen_lcad/data/road_mapper_remission_350px/voltadaufes/i7757190_-363580.png"
     id="image12360"
     x="-350"
     y="0"
     sodipodi:absref="carmen_lcad/data/road_mapper_remission_350px/voltadaufes/i7757190_-363580.png" />
  <image
     width="350"
     height="350"
     preserveAspectRatio="none"
     xlink:href="carmen_lcad/data/road_mapper_remission_350px/voltadaufes/i7757190_-363650.png"
     id="image12077"
     x="-350"
     y="350"
     sodipodi:absref="carmen_lcad/data/road_mapper_remission_350px/voltadaufes/i7757190_-363650.png" />
  <path
     style="display:none;opacity:0.28999999;fill:none;stroke:#00ff00;stroke-width:25;stroke-linecap:butt;stroke-linejoin:miter;stroke-miterlimit:4;stroke-dasharray:none;stroke-opacity:1"
     d="m -287.5385,18415.065 -35.7089,-9.988"
     id="path2589"
     inkscape:connector-curvature="0" />
  <path
     style="opacity:0.53299997;fill:none;stroke:#ff0000;stroke-width:17;stroke-linecap:butt;stroke-linejoin:miter;stroke-miterlimit:4;stroke-dasharray:none;stroke-opacity:1"
     d="m -496.6873,689.5863 c 0,0 11.5969,-9.3769 16.5557,-14.9037 8.6572,-9.6488 16.5696,-20.1472 22.745,-31.5451 5.254,-9.6974 8.4439,-20.3992 11.9141,-30.8682 3.5966,-10.8506 5.8911,-22.0947 9.2063,-33.0345 3.278,-10.817 6.0857,-21.84266 10.5602,-32.22206 4.2689,-9.9025 9.4751,-19.4438 15.4341,-28.4312 6.9559,-10.4912 14.915,-20.3623 23.5573,-29.5144 9.6543,-10.2238 20.4095,-19.4012 31.4098,-28.1605 10.5393,-8.3921 21.7555,-15.9183 33.0344,-23.2865 17.8316,-11.6489 36.5761,-21.8399 54.6963,-33.0345 21.7079,-13.4109 43.4507,-26.7831 64.715,-40.8868 16.8594,-11.1821 49.8224,-34.6591 49.8224,-34.6591"
     id="path11660"
     inkscape:connector-curvature="0"
     sodipodi:nodetypes="caaaaaaaaaaac" />
  <path
     style="opacity:0.60700001;fill:none;stroke:#ff0000;stroke-width:17;stroke-linecap:butt;stroke-linejoin:miter;stroke-miterlimit:4;stroke-dasharray:none;stroke-opacity:1"
     d="m -162.831,315.34244 c 0,0 -23.2824,17.3563 -35.3071,25.4856 -20.0762,13.5725 -40.877,26.0429 -61.4521,38.8464 -16.5787,10.3167 -33.3211,20.3681 -49.9538,30.5975 -8.3331,5.125 -16.8422,9.9776 -24.9713,15.4205 -9.9579,6.6674 -19.6099,13.7927 -29.1178,21.0875 -7.2812,5.5864 -14.6561,11.1021 -21.3719,17.3568 -9.3996,8.7541 -18.0734,18.2937 -26.3556,28.1117 -5.2023,6.1669 -10.3455,12.4478 -14.6162,19.2929 -6.3038,10.1038 -11.5224,20.9002 -16.0935,31.8969 -3.9151,9.4188 -6.6389,19.29336 -9.6436,29.04086 -3.4833,11.2999 -5.9538,22.9071 -9.715,34.1175 -3.373,10.0533 -6.368,20.3821 -11.5039,29.6594 -6.1494,11.1078 -14.1099,21.252 -22.7835,30.5237 -3.1003,3.3141 -10.3439,8.8521 -10.3439,8.8521"
     id="path11662"
     inkscape:connector-curvature="0"
     sodipodi:nodetypes="caaaaaaaaaaaaac" />
  <image
     sodipodi:absref="carmen_lcad/data/road_mapper_remission_350px/voltadaufes/i7757260_-363510.png"
     y="-350"
     x="0"
     id="image12638"
     xlink:href="carmen_lcad/data/road_mapper_remission_350px/voltadaufes/i7757260_-363510.png"
     preserveAspectRatio="none"
     height="350"
     width="350" />
  <image
     sodipodi:absref="carmen_lcad/data/road_mapper_remission_350px/voltadaufes/i7757330_-363510.png"
     y="-350"
     x="350"
     id="image12703"
     xlink:href="carmen_lcad/data/road_mapper_remission_350px/voltadaufes/i7757330_-363510.png"
     preserveAspectRatio="none"
     height="350"
     width="350" />
  <image
     sodipodi:absref="carmen_lcad/data/road_mapper_remission_350px/voltadaufes/i7757330_-363580.png"
     y="0"
     x="350"
     id="image12768"
     xlink:href="carmen_lcad/data/road_mapper_remission_350px/voltadaufes/i7757330_-363580.png"
     preserveAspectRatio="none"
     height="350"
     width="350" />
  <path
     style="opacity:0.56199999;fill:none;stroke:#ff0000;stroke-width:17;stroke-linecap:butt;stroke-linejoin:miter;stroke-miterlimit:4;stroke-dasharray:none;stroke-opacity:1"
     d="m -153.0367,329.03974 c 0,0 19.7216,-14.45381 29.5411,-21.73666 9.8884,-7.33399 19.8577,-14.56346 29.581496,-22.11434 9.1951,-7.14034 18.2054,-14.51717 27.1882,-21.92287 6.7623,-5.57507 13.4109,-11.28667 20.1039,-16.94474 11.3425,-9.58859 22.879,-18.95438 33.9852,-28.81566 9.2526997,-8.21546 18.2050997,-16.76419 27.1882,-25.27351 8.3396,-7.89971 16.4798,-16.00779 24.7949,-23.93326 8.0888,-7.70981 24.4119,-22.97593 24.4119,-22.97593"
     id="path12771"
     inkscape:connector-curvature="0"
     sodipodi:nodetypes="caaaaaaac" />
  <path
     style="opacity:0.52600002;fill:none;stroke:#ff0000;stroke-width:17;stroke-linecap:butt;stroke-linejoin:miter;stroke-miterlimit:4;stroke-dasharray:none;stroke-opacity:1"
     d="m 52.078796,133.2604 c 0,0 -18.6811,17.56749 -27.9541,26.42232 -10.2771,9.81372 -20.2983003,19.89595 -30.6810003,29.59794 -5.6407997,5.27096 -11.3873997,10.4287 -17.1718997,15.5416 -6.4367,5.68948 -12.954,11.28809 -19.5095,16.84033 -8.0639,6.82976 -16.2903,13.46558 -24.3827,20.26161 -9.3305,7.8359 -18.3274,16.07549 -27.8691,23.65287 -8.295396,6.58767 -17.020596,12.61528 -25.517096,18.94154 -8.5557,6.37038 -17.0402,12.83675 -25.6392,19.1486 -5.3626,3.9363 -16.1852,11.67523 -16.1852,11.67523"
     id="path12773"
     inkscape:connector-curvature="0"
     sodipodi:nodetypes="caaaaaaaac" />
  <path
     style="opacity:0.66199999;fill:none;stroke:#ff0000;stroke-width:17;stroke-linecap:butt;stroke-linejoin:miter;stroke-miterlimit:4;stroke-dasharray:none;stroke-opacity:1"
     d="m 63.758196,145.32277 c 0,0 11.715502,-11.3288 17.601644,-16.96364 6.048128,-5.78991 12.222569,-11.4485 18.202524,-17.3088 C 112.5842,98.289064 125.23113,85.150757 138.04705,72.182712 151.94169,58.123139 165.76152,43.989577 179.69092,29.96444 c 13.42025,-13.512486 26.85361,-27.0126528 40.39935,-40.399344 8.15368,-8.057954 16.22216,-16.207977 24.60339,-24.028994 8.06393,-7.524934 15.91391,-15.349893 24.69913,-22.018599 10.50374,-7.973201 21.19216,-16.131327 33.29624,-21.365017 10.45423,-4.520308 21.81464,-7.127264 33.14248,-8.312226 14.03454,-1.4681 28.29523,-0.119126 42.30395,1.577814 11.67381,1.414102 23.1408,4.282026 34.54727,7.140387 6.93965,1.739015 20.58323,6.080829 20.58323,6.080829"
     id="path25"
     inkscape:connector-curvature="0"
     sodipodi:nodetypes="caaaaaaaaaaac" />
  <path
     style="opacity:0.53299997;fill:none;stroke:#ff0000;stroke-width:17;stroke-linecap:butt;stroke-linejoin:miter;stroke-miterlimit:4;stroke-dasharray:none;stroke-opacity:1"
     d="m 438.33626,-87.648314 c 0,0 -19.91928,-5.934423 -30.04426,-8.243098 -11.08599,-2.527803 -22.27687,-4.694688 -33.55685,-6.126918 -8.07367,-1.02512 -16.21375,-1.73613 -24.35222,-1.75629 -7.27765,-0.018 -14.58422,0.40049 -21.78397,1.46261 -7.43123,1.09626 -14.82887,2.69419 -21.96246,5.047237 -6.89994,2.275976 -13.55054,5.328755 -19.97867,8.71527 -5.34132,2.813961 -15.36045,9.596347 -15.36045,9.596347"
     id="path851"
     inkscape:connector-curvature="0"
     sodipodi:nodetypes="caaaaaac" />
  <path
     style="opacity:0.603;fill:none;stroke:#7fff00;stroke-width:17;stroke-linecap:butt;stroke-linejoin:miter;stroke-miterlimit:4;stroke-dasharray:none;stroke-opacity:1"
     d="m 271.29738,-78.953156 c 0,0 -9.58392,6.943508 -14.1886,10.655903 -4.91568,3.963136 -14.32978,12.389154 -14.32978,12.389154"
     id="path853"
     inkscape:connector-curvature="0"
     sodipodi:nodetypes="cac" />
  <path
     style="opacity:0.56600001;fill:none;stroke:#ff0000;stroke-width:17;stroke-linecap:butt;stroke-linejoin:miter;stroke-miterlimit:4;stroke-dasharray:none;stroke-opacity:1"
     d="m 242.779,-55.908099 c 0,0 -21.41496,20.577861 -31.97484,31.017506 C 194.62689,-8.89752 178.78819,7.434544 162.72892,23.5461 147.85514,38.468299 132.83154,53.241159 118.01279,68.218003 108.51772,77.81437 89.695057,97.171853 89.695057,97.171853"
     id="path855"
     inkscape:connector-curvature="0"
     sodipodi:nodetypes="caaac" />
  <path
     style="opacity:0.51499999;fill:none;stroke:#7fff00;stroke-width:17;stroke-linecap:butt;stroke-linejoin:miter;stroke-miterlimit:4;stroke-dasharray:none;stroke-opacity:1"
     d="M 89.695057,97.171853 52.078796,133.2604"
     id="path857"
     inkscape:connector-curvature="0"
     sodipodi:nodetypes="cc" />
</svg>
