<?xml version="1.0" encoding="UTF-8" standalone="no"?>
<!-- Created with Inkscape (http://www.inkscape.org/) -->

<svg
   xmlns:dc="http://purl.org/dc/elements/1.1/"
   xmlns:cc="http://creativecommons.org/ns#"
   xmlns:rdf="http://www.w3.org/1999/02/22-rdf-syntax-ns#"
   xmlns:svg="http://www.w3.org/2000/svg"
   xmlns="http://www.w3.org/2000/svg"
   xmlns:xlink="http://www.w3.org/1999/xlink"
   xmlns:sodipodi="http://sodipodi.sourceforge.net/DTD/sodipodi-0.dtd"
   xmlns:inkscape="http://www.inkscape.org/namespaces/inkscape"
   version="1.1"
   id="svg7324"
   width="350"
   height="350"
   viewBox="0 0 350 350"
   sodipodi:docname="i7757470_-364140.svg"
   inkscape:version="0.92.2 (unknown)">
  <metadata
     id="metadata7330">
    <rdf:RDF>
      <cc:Work
         rdf:about="">
        <dc:format>image/svg+xml</dc:format>
        <dc:type
           rdf:resource="http://purl.org/dc/dcmitype/StillImage" />
        <dc:title></dc:title>
      </cc:Work>
    </rdf:RDF>
  </metadata>
  <defs
     id="defs7328" />
  <sodipodi:namedview
     pagecolor="#ffffff"
     bordercolor="#666666"
     borderopacity="1"
     objecttolerance="10"
     gridtolerance="10"
     guidetolerance="10"
     inkscape:pageopacity="0"
     inkscape:pageshadow="2"
     inkscape:window-width="1855"
     inkscape:window-height="1056"
     id="namedview7326"
     showgrid="false"
     inkscape:zoom="1.3057143"
     inkscape:cx="169.84842"
     inkscape:cy="180.09409"
     inkscape:window-x="65"
     inkscape:window-y="24"
     inkscape:window-maximized="1"
     inkscape:current-layer="svg7324" />
  <image
     width="350"
     height="350"
     preserveAspectRatio="none"
     xlink:href="carmen_lcad/data/road_mapper_remission_350px/voltadaufes/i7757470_-364140.png"
     id="image7332"
     x="0"
     y="0"
     sodipodi:absref="carmen_lcad/data/road_mapper_remission_350px/voltadaufes/i7757470_-364140.png" />
  <path
     style="fill:none;stroke:#ff0000;stroke-width:14;stroke-linecap:butt;stroke-linejoin:miter;stroke-miterlimit:4;stroke-dasharray:none;stroke-opacity:1"
     d="m 61.343097,-58.628621 c 0,0 22.31453,-3.9842 33.57596,-3.79084 10.490913,0.18013 21.052883,1.71141 31.138993,4.60317 6.72171,1.92716 13.16215,4.91007 19.22495,8.39399 6.49584,3.73276 12.38723,8.47067 18.14186,13.26792 5.44345,4.53784 10.8117,9.24997 15.43411,14.62179 4.73611,5.50395 8.73163,11.6376107 12.4556,17.87109 4.40946,7.3809156 7.82592,15.311936 11.64328,23.015766 5.27832,10.652185 15.56951,32.086721 15.56951,32.086721"
     id="path6764"
     inkscape:connector-curvature="0"
     sodipodi:nodetypes="caaaaaaac" />
  <path
     style="fill:none;stroke:#ff0000;stroke-width:14;stroke-linecap:butt;stroke-linejoin:miter;stroke-miterlimit:4;stroke-dasharray:none;stroke-opacity:1"
     d="m 48.345947,-42.923731 c 0,0 20.10531,-4.33582 30.32668,-5.1447 8.90814,-0.70495 17.97409,-1.08513 26.806613,0.27077 8.29728,1.27374 16.48781,3.76987 24.09888,7.3109 7.80825,3.63277 14.97029,8.65917 21.66191,14.08024 6.24843,5.06203 12.07835,10.74508 17.05876,17.05876 5.77149,7.31653 10.15772,15.6480171 14.62179,23.8281 3.88698,7.122602 7.09697,14.594696 10.56018,21.932694 3.39549,7.194502 10.01864,21.661916 10.01864,21.661916"
     id="path6766"
     inkscape:connector-curvature="0"
     sodipodi:nodetypes="caaaaaaac" />
  <path
     style="fill:none;stroke:#ff0000;stroke-width:14;stroke-linecap:butt;stroke-linejoin:miter;stroke-miterlimit:4;stroke-dasharray:none;stroke-opacity:1"
     d="m 140.95062,-114.94959 c 0,0 1.99279,14.49453 4.87393,21.120359 3.60368,8.28747 9.809,15.19415 15.16335,22.47424 5.82109,7.91472 12.46919,15.19252 18.41262,23.01578 5.78868,7.61957 11.36363,15.40348 16.78799,23.28656 3.91665,5.69196 7.87784,11.36917 11.3725,17.32952 5.04343,8.60185997 9.37281,17.6059001 13.80947,26.53586 4.22151,8.49692 12.18483,25.72352 12.18483,25.72352"
     id="path6768"
     inkscape:connector-curvature="0"
     sodipodi:nodetypes="caaaaaac" />
  <path
     style="fill:none;stroke:#0000ff;stroke-width:14;stroke-linecap:butt;stroke-linejoin:miter;stroke-miterlimit:4;stroke-dasharray:none;stroke-opacity:1"
     d="M 218.52736,51.440986 239.49954,97.90947"
     id="path7476"
     inkscape:connector-curvature="0"
     sodipodi:nodetypes="cc" />
  <path
     style="fill:none;stroke:#ff007f;stroke-width:14;stroke-linecap:butt;stroke-linejoin:miter;stroke-miterlimit:4;stroke-dasharray:none;stroke-opacity:1"
     d="m 203.4994,58.074949 20.83681,47.010031"
     id="path7478"
     inkscape:connector-curvature="0"
     sodipodi:nodetypes="cc" />
  <path
     style="fill:none;stroke:#7f00ff;stroke-width:14;stroke-linecap:butt;stroke-linejoin:miter;stroke-opacity:1;stroke-miterlimit:4;stroke-dasharray:none"
     d="m 233.55531,44.536249 21.10757,47.14542"
     id="path7480"
     inkscape:connector-curvature="0" />
  <path
     style="fill:none;stroke:#ff0000;stroke-width:14;stroke-linecap:butt;stroke-linejoin:miter;stroke-opacity:1;stroke-miterlimit:4;stroke-dasharray:none"
     d="m 254.66288,91.681669 c 0,0 7.45324,15.328031 10.70911,23.197981 2.54725,6.15711 6.89278,18.76368 6.89278,18.76368 0,0 7.96148,20.31455 11.48797,30.63457 4.75212,13.90674 9.0794,27.96435 13.01969,42.12254 4.4075,15.83697 11.8709,47.86652 11.8709,47.86652"
     id="path7482"
     inkscape:connector-curvature="0"
     sodipodi:nodetypes="cacasc" />
  <path
     style="fill:none;stroke:#ff0000;stroke-width:14;stroke-linecap:butt;stroke-linejoin:miter;stroke-miterlimit:4;stroke-dasharray:none;stroke-opacity:1"
     d="m 239.49954,97.90947 c 0,0 5.7841,13.85651 8.6405,20.7995 2.83177,6.88312 5.76542,13.72669 8.42451,20.67834 3.92346,10.25706 7.67521,20.585 11.10503,31.0175 3.32966,10.12785 6.42893,20.33728 9.19038,30.63458 2.58225,9.62909 4.70386,19.3768 6.89278,29.10284 2.14927,9.54986 4.09747,19.14387 6.12691,28.71991 2.05533,9.6982 6.12691,29.10285 6.12691,29.10285"
     id="path7484"
     inkscape:connector-curvature="0"
     sodipodi:nodetypes="caaaaaac" />
  <path
     style="fill:none;stroke:#ff0000;stroke-width:14;stroke-linecap:butt;stroke-linejoin:miter;stroke-miterlimit:4;stroke-dasharray:none;stroke-opacity:1"
     d="m 224.33621,105.08498 c 0,0 5.17778,12.38877 7.72068,18.60211 2.97172,7.26112 6.03325,14.48827 8.80744,21.82713 3.25467,8.60992 6.27521,17.30867 9.19037,26.03939 3.09411,9.26666 6.70228,18.41399 8.80744,27.95405 2.13567,9.6783 3.82933,29.48577 3.82933,29.48577"
     id="path7486"
     inkscape:connector-curvature="0"
     sodipodi:nodetypes="caaaac" />
  <path
     style="fill:none;stroke:#ff0000;stroke-width:24;stroke-linecap:butt;stroke-linejoin:miter;stroke-miterlimit:4;stroke-dasharray:none;stroke-opacity:1"
     d="m 262.69147,228.99343 c 0,0 0.52303,14.96835 -0.19147,22.40154 -0.83841,8.72226 -2.67869,17.34997 -4.78665,25.84792 -1.76966,7.13414 -4.6708,13.96266 -7.65865,20.67834 -3.69012,8.29415 -8.2529,17.26059 -12.82823,25.65645 -4.25816,7.81384 -8.84568,15.44993 -13.59408,22.97594 -5.49721,8.71282 -17.23195,25.65644 -17.23195,25.65644"
     id="path7488"
     inkscape:connector-curvature="0"
     sodipodi:nodetypes="cassaac" />
</svg>
