<?xml version="1.0" encoding="UTF-8" standalone="no"?>
<!-- Created with Inkscape (http://www.inkscape.org/) -->

<svg
   xmlns:dc="http://purl.org/dc/elements/1.1/"
   xmlns:cc="http://creativecommons.org/ns#"
   xmlns:rdf="http://www.w3.org/1999/02/22-rdf-syntax-ns#"
   xmlns:svg="http://www.w3.org/2000/svg"
   xmlns="http://www.w3.org/2000/svg"
   xmlns:xlink="http://www.w3.org/1999/xlink"
   xmlns:sodipodi="http://sodipodi.sourceforge.net/DTD/sodipodi-0.dtd"
   xmlns:inkscape="http://www.inkscape.org/namespaces/inkscape"
   version="1.1"
   id="svg3527"
   width="350"
   height="350"
   viewBox="0 0 350 350"
   sodipodi:docname="i7757540_-363650.svg"
   inkscape:version="0.92.2 (unknown)">
  <metadata
     id="metadata3533">
    <rdf:RDF>
      <cc:Work
         rdf:about="">
        <dc:format>image/svg+xml</dc:format>
        <dc:type
           rdf:resource="http://purl.org/dc/dcmitype/StillImage" />
        <dc:title />
      </cc:Work>
    </rdf:RDF>
  </metadata>
  <defs
     id="defs3531" />
  <sodipodi:namedview
     pagecolor="#ffffff"
     bordercolor="#666666"
     borderopacity="1"
     objecttolerance="10"
     gridtolerance="10"
     guidetolerance="10"
     inkscape:pageopacity="0"
     inkscape:pageshadow="2"
     inkscape:window-width="1855"
     inkscape:window-height="1056"
     id="namedview3529"
     showgrid="false"
     inkscape:zoom="14.772471"
     inkscape:cx="200.52956"
     inkscape:cy="-7.5087071"
     inkscape:window-x="65"
     inkscape:window-y="24"
     inkscape:window-maximized="1"
     inkscape:current-layer="svg3527" />
  <image
     sodipodi:absref="carmen_lcad/data/road_mapper_remission_350px/voltadaufes/i7757540_-363650.png"
     xlink:href="carmen_lcad/data/road_mapper_remission_350px/voltadaufes/i7757540_-363650.png"
     width="350"
     height="350"
     preserveAspectRatio="none"
     id="image3535"
     x="0"
     y="0" />
  <image
     sodipodi:absref="carmen_lcad/data/road_mapper_remission_350px/voltadaufes/i7757610_-363720.png"
     xlink:href="carmen_lcad/data/road_mapper_remission_350px/voltadaufes/i7757610_-363720.png"
     y="350"
     x="350"
     id="image3458"
     preserveAspectRatio="none"
     height="350"
     width="350" />
  <image
     sodipodi:absref="carmen_lcad/data/road_mapper_remission_350px/voltadaufes/i7757540_-363720.png"
     xlink:href="carmen_lcad/data/road_mapper_remission_350px/voltadaufes/i7757540_-363720.png"
     width="350"
     height="350"
     preserveAspectRatio="none"
     id="image2948"
     x="-1.1444092e-05"
     y="350" />
  <image
     sodipodi:absref="carmen_lcad/data/road_mapper_remission_350px/voltadaufes/i7757470_-363720.png"
     xlink:href="carmen_lcad/data/road_mapper_remission_350px/voltadaufes/i7757470_-363720.png"
     width="350"
     height="350"
     preserveAspectRatio="none"
     id="image2709"
     x="-350"
     y="350" />
  <image
     sodipodi:absref="carmen_lcad/data/road_mapper_remission_350px/voltadaufes/i7757470_-363650.png"
     xlink:href="carmen_lcad/data/road_mapper_remission_350px/voltadaufes/i7757470_-363650.png"
     width="350"
     height="350"
     preserveAspectRatio="none"
     id="image2112"
     x="-350"
     y="-6.1035156e-05" />
  <image
     sodipodi:absref="carmen_lcad/data/road_mapper_remission_350px/voltadaufes/i7757400_-363650.png"
     xlink:href="carmen_lcad/data/road_mapper_remission_350px/voltadaufes/i7757400_-363650.png"
     width="350"
     height="350"
     preserveAspectRatio="none"
     id="image1882"
     x="-700"
     y="-6.1035156e-05" />
  <image
     sodipodi:absref="carmen_lcad/data/road_mapper_remission_350px/voltadaufes/i7757400_-363580.png"
     xlink:href="carmen_lcad/data/road_mapper_remission_350px/voltadaufes/i7757400_-363580.png"
     width="350"
     height="350"
     preserveAspectRatio="none"
     id="image1664"
     x="-700"
     y="-350.00003" />
  <path
     style="display:none;opacity:0.28999999;fill:none;stroke:#00ff00;stroke-width:25;stroke-linecap:butt;stroke-linejoin:miter;stroke-miterlimit:4;stroke-dasharray:none;stroke-opacity:1"
     d="m -3883.8866,23745.556 -35.7089,-9.988"
     id="path2589"
     inkscape:connector-curvature="0" />
  <image
     sodipodi:absref="carmen_lcad/data/road_mapper_remission_350px/voltadaufes/i7757400_-363720.png"
     xlink:href="carmen_lcad/data/road_mapper_remission_350px/voltadaufes/i7757400_-363720.png"
     y="349.99988"
     x="-700"
     id="image2502"
     preserveAspectRatio="none"
     height="350"
     width="350" />
  <image
     sodipodi:absref="carmen_lcad/data/road_mapper_remission_350px/voltadaufes/i7757610_-363650.png"
     xlink:href="carmen_lcad/data/road_mapper_remission_350px/voltadaufes/i7757610_-363650.png"
     width="350"
     height="350"
     preserveAspectRatio="none"
     id="image37"
     x="350"
     y="-6.1035156e-05" />
  <path
     style="opacity:0.55100002;fill:none;stroke:#ff0000;stroke-width:14;stroke-linecap:butt;stroke-linejoin:miter;stroke-miterlimit:4;stroke-dasharray:none;stroke-opacity:1"
     d="m 498.37212,233.91526 c -4.19658,3.2572 -7.49648,6.4464 -12.02574,8.1703 -4.29839,1.636 -9.09916,1.3873 -13.68011,1.7965 -5.86495,0.5239 -11.77807,0.3382 -17.6449,0.8406 -6.75023,0.578 -13.67902,0.5598 -20.17064,2.4985 -6.86461,2.0501 -13.02122,6.0107 -19.28527,9.4874 -8.79426,4.881 -16.84981,11.0169 -25.62583,15.9306 -9.29751,5.2057 -18.85464,9.9655 -28.57803,14.3243 -10.83185,4.8556 -21.90161,9.1965 -33.09451,13.1494 -18.59907,6.5684 -37.65585,11.76141 -56.51813,17.5306 -25.57711,7.82298 -55.29186,17.98423 -76.8233,23.16613"
     id="path4712"
     inkscape:connector-curvature="0"
     sodipodi:nodetypes="caaaaaaaaac" />
  <path
     style="opacity:0.55899999;fill:none;stroke:#ff0000;stroke-width:17;stroke-linecap:butt;stroke-linejoin:miter;stroke-miterlimit:4;stroke-dasharray:none;stroke-opacity:1"
     d="m 111.30483,398.40306 c 8.96935,-0.2989 23.36124,-1.2975 34.97525,-2.6427 9.43292,-1.0926 18.78463,-2.8076 28.14551,-4.4037 8.31704,-1.4181 16.62813,-2.8876 24.89059,-4.5952 10.64358,-2.1997 21.21163,-4.7533 31.78338,-7.2757 9.53076,-2.274 19.05668,-4.5758 28.52844,-7.0843 8.65251,-2.2914 17.23892,-4.8258 25.84792,-7.2757 9.32565,-2.6538 15.25355,-4.127 27.95405,-8.0416"
     id="path3467"
     inkscape:connector-curvature="0"
     sodipodi:nodetypes="caaaaaac" />
  <path
     style="opacity:0.50700001;fill:none;stroke:#7fff00;stroke-width:17;stroke-linecap:butt;stroke-linejoin:miter;stroke-miterlimit:4;stroke-dasharray:none;stroke-opacity:1"
     d="m 313.42997,357.08416 c 9.11024,-2.8043 16.20726,-5.1585 24.28003,-7.8322 6.10325,-2.0214 7.84165,-2.4433 18.26198,-6.2065"
     id="path3475"
     inkscape:connector-curvature="0"
     sodipodi:nodetypes="cac" />
  <path
     style="opacity:0.56199999;fill:none;stroke:#7fff00;stroke-width:17;stroke-linecap:butt;stroke-linejoin:miter;stroke-miterlimit:4;stroke-dasharray:none;stroke-opacity:1"
     d="m 354.30087,345.09746 c -12.02379,9.1945 -23.51599,17.9311 -34.11071,25.9122"
     id="path3487"
     inkscape:connector-curvature="0"
     sodipodi:nodetypes="cc" />
  <path
     style="opacity:0.52600002;fill:none;stroke:#ff0000;stroke-width:17;stroke-linecap:butt;stroke-linejoin:miter;stroke-miterlimit:4;stroke-dasharray:none;stroke-opacity:1"
     d="m 349.82348,327.23996 c -10.20699,3.7713 -12.1267,4.0929 -18.19346,6.1293 -7.82685,2.6271 -15.60174,5.4164 -23.4893,7.8552 -7.76767,2.4018 -15.64402,4.4369 -23.4616,6.6708 -9.50807,2.7171 -18.94795,5.6813 -28.51338,8.189 -10.81754,2.8358 -17.78252,4.2289 -32.64187,7.7499"
     id="path3489"
     inkscape:connector-curvature="0"
     sodipodi:nodetypes="caaaac" />
  <path
     style="opacity:0.58499995;fill:none;stroke:#ff007f;stroke-width:17;stroke-linecap:butt;stroke-linejoin:miter;stroke-miterlimit:4;stroke-dasharray:none;stroke-opacity:1"
     d="m 420.86481,291.80146 c -11.1392,6.7787 -17.43106,10.1307 -26.33078,14.8597 -7.41391,3.9395 -14.90515,7.7462 -22.5343,11.2507 -7.28732,3.3476 -9.36257,4.2899 -22.17625,9.3281"
     id="path3491"
     inkscape:connector-curvature="0"
     sodipodi:nodetypes="caac" />
  <path
     style="opacity:0.478;fill:none;stroke:#ff7f00;stroke-width:18;stroke-linecap:butt;stroke-linejoin:miter;stroke-miterlimit:4;stroke-dasharray:none;stroke-opacity:1"
     d="m 148.9606,353.25486 c -18.95173,5.8414 -26.79121,8.0887 -40.20787,12.0624 -7.52279,2.2281 -15.152058,4.1132 -22.591695,6.6049 -8.595676,2.8788 -16.134466,5.901 -25.433159,9.6288"
     id="path3493"
     inkscape:connector-curvature="0"
     sodipodi:nodetypes="caac" />
  <path
     style="opacity:0.43800001;fill:none;stroke:#00ff00;stroke-width:16;stroke-linecap:butt;stroke-linejoin:miter;stroke-miterlimit:4;stroke-dasharray:none;stroke-opacity:1"
     d="m 192.79232,340.41219 c -11.06524,3.21153 -14.37289,3.97395 -21.55596,5.97313 -8.19412,2.28057 -16.2613,4.13684 -24.57461,6.86954"
     id="path3495"
     inkscape:connector-curvature="0"
     sodipodi:nodetypes="cac" />
  <path
     style="opacity:0.51099997;fill:none;stroke:#ff0000;stroke-width:16;stroke-linecap:butt;stroke-linejoin:miter;stroke-miterlimit:4;stroke-dasharray:none;stroke-opacity:1"
     d="m 158.2467,323.86486 c -1.49659,-7.3747 -2.87138,-14.2968 -4.21225,-22.4016"
     id="path3497"
     inkscape:connector-curvature="0"
     sodipodi:nodetypes="cc" />
  <path
     style="opacity:0.478;fill:none;stroke:#ff7f00;stroke-width:17;stroke-linecap:butt;stroke-linejoin:miter;stroke-miterlimit:4;stroke-dasharray:none;stroke-opacity:1"
     d="m 223.52387,363.83416 c -11.7014,2.55988 -19.12828,2.17209 -28.29321,-0.0526 -7.24223,-1.75799 -14.49425,-5.07109 -19.8885,-10.21332 -8.26874,-7.88244 -15.52738,-24.14345 -17.09546,-29.70335"
     id="path3499"
     inkscape:connector-curvature="0"
     sodipodi:nodetypes="caac" />
  <path
     style="opacity:0.57399998;fill:none;stroke:#ff7f00;stroke-width:16;stroke-linecap:butt;stroke-linejoin:miter;stroke-miterlimit:4;stroke-dasharray:none;stroke-opacity:1"
     d="m 196.58316,339.66756 c -8.6373,1.9653 -12.03402,1.6187 -17.91002,0.5478 -4.66092,-0.8495 -9.47677,-2.4137 -13.13972,-5.4184 -3.38588,-2.7775 -6.04557,-4.9625 -7.28672,-10.9321"
     id="path3501"
     inkscape:connector-curvature="0"
     sodipodi:nodetypes="caac" />
  <path
     style="opacity:0.55899999;fill:none;stroke:#ff7f00;stroke-width:16;stroke-linecap:butt;stroke-linejoin:miter;stroke-miterlimit:4;stroke-dasharray:none;stroke-opacity:1"
     d="m 158.2467,323.86486 c 1.2678,7.3766 1.19158,8.5256 0.56555,12.7251 -0.47944,3.2162 -1.40378,6.5233 -3.2567,9.1954 -2.20608,3.1814 -5.09538,6.2736 -8.8938,7.4695"
     id="path3503"
     inkscape:connector-curvature="0"
     sodipodi:nodetypes="caac" />
</svg>
