<?xml version="1.0" encoding="UTF-8" standalone="no"?>
<!-- Created with Inkscape (http://www.inkscape.org/) -->

<svg
   xmlns:dc="http://purl.org/dc/elements/1.1/"
   xmlns:cc="http://creativecommons.org/ns#"
   xmlns:rdf="http://www.w3.org/1999/02/22-rdf-syntax-ns#"
   xmlns:svg="http://www.w3.org/2000/svg"
   xmlns="http://www.w3.org/2000/svg"
   xmlns:xlink="http://www.w3.org/1999/xlink"
   xmlns:sodipodi="http://sodipodi.sourceforge.net/DTD/sodipodi-0.dtd"
   xmlns:inkscape="http://www.inkscape.org/namespaces/inkscape"
   version="1.1"
   id="svg1499"
   width="350"
   height="350"
   viewBox="0 0 350 350"
   sodipodi:docname="i7757330_-363580.svg"
   inkscape:version="0.92.2 (unknown)">
  <metadata
     id="metadata1505">
    <rdf:RDF>
      <cc:Work
         rdf:about="">
        <dc:format>image/svg+xml</dc:format>
        <dc:type
           rdf:resource="http://purl.org/dc/dcmitype/StillImage" />
        <dc:title></dc:title>
      </cc:Work>
    </rdf:RDF>
  </metadata>
  <defs
     id="defs1503" />
  <sodipodi:namedview
     pagecolor="#ffffff"
     bordercolor="#666666"
     borderopacity="1"
     objecttolerance="10"
     gridtolerance="10"
     guidetolerance="10"
     inkscape:pageopacity="0"
     inkscape:pageshadow="2"
     inkscape:window-width="1855"
     inkscape:window-height="1056"
     id="namedview1501"
     showgrid="false"
     inkscape:zoom="1.8465589"
     inkscape:cx="345.39629"
     inkscape:cy="181.50811"
     inkscape:window-x="65"
     inkscape:window-y="24"
     inkscape:window-maximized="1"
     inkscape:current-layer="svg1499" />
  <image
     width="350"
     height="350"
     preserveAspectRatio="none"
     xlink:href="carmen_lcad/data/road_mapper_remission_350px/voltadaufes/i7757330_-363580.png"
     id="image1507"
     x="0"
     y="0"
     sodipodi:absref="carmen_lcad/data/road_mapper_remission_350px/voltadaufes/i7757330_-363580.png" />
  <image
     width="350"
     height="350"
     preserveAspectRatio="none"
     xlink:href="carmen_lcad/data/road_mapper_remission_350px/voltadaufes/i7757330_-363510.png"
     id="image1043"
     x="0"
     y="-350"
     sodipodi:absref="carmen_lcad/data/road_mapper_remission_350px/voltadaufes/i7757330_-363510.png" />
  <image
     width="350"
     height="350"
     preserveAspectRatio="none"
     xlink:href="carmen_lcad/data/road_mapper_remission_350px/voltadaufes/i7757260_-363510.png"
     id="image894"
     x="-350"
     y="-350"
     sodipodi:absref="carmen_lcad/data/road_mapper_remission_350px/voltadaufes/i7757260_-363510.png" />
  <path
     style="display:none;opacity:0.28999999;fill:none;stroke:#00ff00;stroke-width:25;stroke-linecap:butt;stroke-linejoin:miter;stroke-miterlimit:4;stroke-dasharray:none;stroke-opacity:1"
     d="m -2473.4232,19126.201 -35.7089,-9.988"
     id="path2589"
     inkscape:connector-curvature="0" />
  <path
     style="opacity:0.66199999;fill:none;stroke:#ff0000;stroke-width:17;stroke-linecap:butt;stroke-linejoin:miter;stroke-miterlimit:4;stroke-dasharray:none;stroke-opacity:1"
     d="m -286.24178,145.32271 c 0,0 11.7155,-11.3288 17.6016,-16.9636 6.0482,-5.7899 12.2226,-11.4485 18.2026,-17.3088 13.0218,-12.761278 25.6687,-25.899578 38.4846,-38.867628 13.8947,-14.05957 27.7145,-28.19313 41.6439,-42.21827 13.4203,-13.51249 26.8536,-27.0126503 40.3994,-40.39934 8.1536,-8.05796 16.2221,-16.20798 24.6034,-24.029 8.0639,-7.52493 15.9139,-15.34989 24.6991,-22.0186 10.5037,-7.9732 21.1921,-16.13132 33.2962,-21.36501 10.4543,-4.52031 21.8147,-7.12727 33.1425,-8.31223 14.03449973,-1.4681 28.2952,-0.11913 42.304,1.57781 11.6738,1.41411 23.1408,4.28203 34.5472,7.14039 6.9397,1.73902 20.5833,6.08083 20.5833,6.08083"
     id="path25"
     inkscape:connector-curvature="0"
     sodipodi:nodetypes="caaaaaaaaaaac" />
  <path
     style="opacity:0.53299997;fill:none;stroke:#ff0000;stroke-width:17;stroke-linecap:butt;stroke-linejoin:miter;stroke-miterlimit:4;stroke-dasharray:none;stroke-opacity:1"
     d="m 88.33632,-87.648338 c 0,0 -19.9193,-5.93443 -30.0443,-8.2431 -11.086,-2.52781 -22.2769,-4.694692 -33.5569,-6.126922 -8.0736,-1.02512 -16.2137003,-1.73613 -24.35220027,-1.75629 -7.27760003,-0.018 -14.58419973,0.40049 -21.78389973,1.46261 -7.4313,1.09626 -14.8289,2.694192 -21.9625,5.047242 -6.8999,2.27597 -13.5505,5.32875 -19.9787,8.71527 -5.3413,2.81396 -15.3604,9.59634 -15.3604,9.59634"
     id="path851"
     inkscape:connector-curvature="0"
     sodipodi:nodetypes="caaaaaac" />
  <path
     style="opacity:0.603;fill:none;stroke:#7fff00;stroke-width:17;stroke-linecap:butt;stroke-linejoin:miter;stroke-miterlimit:4;stroke-dasharray:none;stroke-opacity:1"
     d="m -78.70258,-78.953188 c 0,0 -9.5839,6.94351 -14.1886,10.65591 -4.9157,3.96313 -14.3298,12.38915 -14.3298,12.38915"
     id="path853"
     inkscape:connector-curvature="0"
     sodipodi:nodetypes="cac" />
  <path
     style="opacity:0.56600001;fill:none;stroke:#ff0000;stroke-width:17;stroke-linecap:butt;stroke-linejoin:miter;stroke-miterlimit:4;stroke-dasharray:none;stroke-opacity:1"
     d="m -107.22098,-55.908128 c 0,0 -21.415,20.57786 -31.9748,31.01751 -16.1773,15.9930697 -32.016,32.3251297 -48.0753,48.43669 -14.8738,14.9222 -29.8974,29.69506 -44.7161,44.6719 -9.4951,9.59637 -28.3178,28.95385 -28.3178,28.95385"
     id="path855"
     inkscape:connector-curvature="0"
     sodipodi:nodetypes="caaac" />
  <image
     sodipodi:absref="carmen_lcad/data/road_mapper_remission_350px/voltadaufes/i7757400_-363580.png"
     y="0"
     x="350"
     id="image1352"
     xlink:href="carmen_lcad/data/road_mapper_remission_350px/voltadaufes/i7757400_-363580.png"
     preserveAspectRatio="none"
     height="350"
     width="350" />
  <image
     sodipodi:absref="carmen_lcad/data/road_mapper_remission_350px/voltadaufes/i7757400_-363650.png"
     y="350"
     x="350"
     id="image1417"
     xlink:href="carmen_lcad/data/road_mapper_remission_350px/voltadaufes/i7757400_-363650.png"
     preserveAspectRatio="none"
     height="350"
     width="350" />
  <image
     sodipodi:absref="carmen_lcad/data/road_mapper_remission_350px/voltadaufes/i7757470_-363650.png"
     y="350"
     x="700"
     id="image1482"
     xlink:href="carmen_lcad/data/road_mapper_remission_350px/voltadaufes/i7757470_-363650.png"
     preserveAspectRatio="none"
     height="350"
     width="350" />
  <path
     style="opacity:0.53699999;fill:none;stroke:#ff0000;stroke-width:18;stroke-linecap:butt;stroke-linejoin:miter;stroke-miterlimit:4;stroke-dasharray:none;stroke-opacity:1"
     d="m 83.26602,-71.360738 c 13.1872,4.21713 21.1271,5.75017 31.4753,9.30026 16.4863,5.65586 32.6952,12.13981 48.6804,19.08672 15.21312,6.61137 30.31354,13.55961 44.88956,21.47726 10.22465,5.55399 20.01462,11.8850497 29.77833,18.2143697 13.70218,8.88243 27.28994,17.9722203 40.3946,27.7146603 7.14561,5.31229 14.19904,10.78169 20.81674,16.73872 9.6379,8.67572 18.86126,17.85435 27.42067,27.5957 10.17378,11.57865 18.87704,24.37093 28.33554,36.540878 8.14593,10.48111 16.30228,20.95413 24.47218,31.41657 4.76543,6.10265 6.85391,9.11706 14.31816,18.29086"
     id="path1485"
     inkscape:connector-curvature="0"
     sodipodi:nodetypes="caaaaaaaaac" />
  <path
     style="opacity:0.53299997;fill:none;stroke:#ff0000;stroke-width:18;stroke-linecap:butt;stroke-linejoin:miter;stroke-miterlimit:4;stroke-dasharray:none;stroke-opacity:1"
     d="M 407.63773,143.45809 C 396.6251,130.61138 394.94078,127.8738 388.74245,119.96247 380.12539,108.96395 371.88799,97.672142 363.31293,86.640852 c -7.87603,-10.13202 -15.36679,-20.59742 -23.89779,-30.18448 -7.14559,-8.03016 -14.77243,-15.6543 -22.78582,-22.81869 -10.40051,-9.29859 -21.55451,-17.73433 -32.72964,-26.0860403 -10.24313,-7.65518 -20.76932,-14.93478 -31.42901,-21.9983897 -8.02681,-5.31895 -16.14491,-10.51514 -24.479,-15.33839 -10.79877,-6.24965 -21.8806,-12.00889 -33.03442,-17.6003 -9.09585,-4.55975 -18.31175,-8.88594 -27.61894,-12.99714 -9.29139,-4.10424 -12.68179,-6.33666 -28.16049,-11.64328"
     id="path1487"
     inkscape:connector-curvature="0"
     sodipodi:nodetypes="caaaaaaaaac" />
  <path
     style="opacity:0.53299997;fill:none;stroke:#7fff00;stroke-width:17;stroke-linecap:butt;stroke-linejoin:miter;stroke-miterlimit:4;stroke-dasharray:none;stroke-opacity:1"
     d="m 139.17782,-72.025858 c 0,0 -15.6742,-5.15193 -23.5573,-7.58168 -9.0609,-2.79274 -27.2842,-8.0408 -27.2842,-8.0408"
     id="path1489"
     inkscape:connector-curvature="0"
     sodipodi:nodetypes="cac" />
</svg>
