<?xml version="1.0" encoding="UTF-8" standalone="no"?>
<!-- Created with Inkscape (http://www.inkscape.org/) -->

<svg
   xmlns:dc="http://purl.org/dc/elements/1.1/"
   xmlns:cc="http://creativecommons.org/ns#"
   xmlns:rdf="http://www.w3.org/1999/02/22-rdf-syntax-ns#"
   xmlns:svg="http://www.w3.org/2000/svg"
   xmlns="http://www.w3.org/2000/svg"
   xmlns:xlink="http://www.w3.org/1999/xlink"
   xmlns:sodipodi="http://sodipodi.sourceforge.net/DTD/sodipodi-0.dtd"
   xmlns:inkscape="http://www.inkscape.org/namespaces/inkscape"
   version="1.1"
   id="svg10"
   width="350"
   height="350"
   viewBox="0 0 350 350"
   sodipodi:docname="i7757190_-364140.svg"
   inkscape:version="0.92.2 (unknown)">
  <metadata
     id="metadata16">
    <rdf:RDF>
      <cc:Work
         rdf:about="">
        <dc:format>image/svg+xml</dc:format>
        <dc:type
           rdf:resource="http://purl.org/dc/dcmitype/StillImage" />
        <dc:title />
      </cc:Work>
    </rdf:RDF>
  </metadata>
  <defs
     id="defs14" />
  <sodipodi:namedview
     pagecolor="#ffffff"
     bordercolor="#666666"
     borderopacity="1"
     objecttolerance="10"
     gridtolerance="10"
     guidetolerance="10"
     inkscape:pageopacity="0"
     inkscape:pageshadow="2"
     inkscape:window-width="1855"
     inkscape:window-height="1056"
     id="namedview12"
     showgrid="false"
     inkscape:zoom="3.452222"
     inkscape:cx="168.20426"
     inkscape:cy="284.23256"
     inkscape:window-x="65"
     inkscape:window-y="24"
     inkscape:window-maximized="1"
     inkscape:current-layer="svg10"
     inkscape:measure-start="145.848,256.646"
     inkscape:measure-end="141.793,229.273" />
  <image
     style="fill:#ffccaa"
     y="0"
     x="350"
     id="image7982"
     preserveAspectRatio="none"
     height="350"
     width="350"
     xlink:href="/home/rcarneiro/carmen_lcad/data/road_mapper_remission_350px/voltadaufes/i7757260_-364140.png"
     sodipodi:absref="/home/rcarneiro/carmen_lcad/data/road_mapper_remission_350px/voltadaufes/i7757260_-364140.png" />
  <image
     sodipodi:absref="carmen_lcad/data/road_mapper_remission_350px/voltadaufes/i7757190_-364140.png"
     xlink:href="carmen_lcad/data/road_mapper_remission_350px/voltadaufes/i7757190_-364140.png"
     width="350"
     height="350"
     preserveAspectRatio="none"
     id="image18"
     x="0"
     y="0" />
  <path
     style="fill:none;stroke:#0000ff;stroke-width:18;stroke-linecap:butt;stroke-linejoin:miter;stroke-miterlimit:4;stroke-dasharray:none;stroke-opacity:1"
     d="M 370.33333,259.66667 C 311.16671,251.32663 251.30344,244.00973 191.76987,236.32465 121.19445,227.2142 50.746065,217.9695 -20,209.33333"
     id="path4600"
     inkscape:connector-curvature="0"
     sodipodi:nodetypes="cac" />
  <path
     style="fill:none;stroke:#ff007f;stroke-width:16;stroke-linecap:butt;stroke-linejoin:miter;stroke-miterlimit:4;stroke-dasharray:none;stroke-opacity:1"
     d="M 372.94092,242.99234 C 315.89454,234.75521 257.304,227.64695 199.46037,220.1673 127.04189,210.803 55.387002,201.73582 -17.857035,192.55789"
     id="path4602"
     inkscape:connector-curvature="0"
     sodipodi:nodetypes="cac" />
  <path
     style="fill:none;stroke:#7f00ff;stroke-width:16;stroke-linecap:butt;stroke-linejoin:miter;stroke-miterlimit:4;stroke-dasharray:none;stroke-opacity:1"
     d="m 368.68781,276.05761 c 0,0 -123.93561,-16.10903 -185.90342,-24.16354 -68.30189,-8.87782 -204.905659,-26.63344 -204.905659,-26.63344"
     id="path4604"
     inkscape:connector-curvature="0"
     sodipodi:nodetypes="csc" />
  <path
     style="opacity:0.456;fill:none;fill-rule:evenodd;stroke:#7f00ff;stroke-width:23;stroke-linecap:butt;stroke-linejoin:miter;stroke-miterlimit:4;stroke-dasharray:none;stroke-opacity:1"
     d="M 264.42019,100.48995 C 248.05043,98.027148 231.79233,96.13997 215.5315,93.606839 204.26595,91.851877 193.04483,89.821463 181.8157,87.846845 168.92388,85.579848 160.50683,84.137121 143.17376,80.857892"
     id="path6241"
     inkscape:connector-curvature="0"
     sodipodi:nodetypes="caac" />
  <path
     style="opacity:0.48500001;fill:none;fill-rule:evenodd;stroke:#ff0000;stroke-width:30.89999962;stroke-linecap:butt;stroke-linejoin:miter;stroke-miterlimit:4;stroke-dasharray:none;stroke-opacity:1"
     d="M 149.52339,77.835194 C 131.09709,73.9287 114.86854,71.629489 97.638016,68.038661 79.106287,64.176662 60.636003,59.997041 42.271016,55.407128 22.28011,50.410853 11.365153,47.086998 -17.38011,39.185691"
     id="path6243"
     inkscape:connector-curvature="0"
     sodipodi:nodetypes="caac" />
  <path
     style="opacity:0.55;fill:none;stroke:#7f00ff;stroke-width:23;stroke-linecap:butt;stroke-linejoin:miter;stroke-miterlimit:4;stroke-dasharray:none;stroke-opacity:1"
     d="m 321.66302,130.57986 c 15.91118,2.33988 32.47312,4.42481 48.72289,6.53722 14.19839,1.84575 28.41058,3.5839 42.61755,5.36241 11.40304,1.4275 20.74272,2.29831 34.21179,4.26094"
     id="path8020"
     inkscape:connector-curvature="0"
     sodipodi:nodetypes="caac" />
  <path
     style="opacity:0.481;fill:none;stroke:#7f00ff;stroke-width:23;stroke-linecap:butt;stroke-linejoin:miter;stroke-miterlimit:4;stroke-dasharray:none;stroke-opacity:1"
     d="m 439.80945,122.52642 c -15.23423,-1.85864 -25.72626,-2.91811 -38.57652,-4.48525 -16.43543,-2.00436 -32.86026,-4.09808 -49.27182,-6.28939 -8.84223,-1.18064 -16.44408,-2.48769 -26.50581,-3.6951"
     id="path8022"
     inkscape:connector-curvature="0"
     sodipodi:nodetypes="caac" />
  <path
     style="opacity:0.54199997;fill:none;stroke:#7f00ff;stroke-width:23;stroke-linecap:butt;stroke-linejoin:miter;stroke-miterlimit:4;stroke-dasharray:none;stroke-opacity:1"
     d="m 325.4553,108.05668 c -12.42493,-1.35113 -21.09078,-2.54087 -31.63159,-3.84856 -9.80407,-1.2163 -17.33764,-2.1374 -29.40352,-3.71817"
     id="path2437"
     inkscape:connector-curvature="0"
     sodipodi:nodetypes="cac" />
  <path
     style="opacity:0.553;fill:none;stroke:#7f00ff;stroke-width:23;stroke-linecap:butt;stroke-linejoin:miter;stroke-miterlimit:4;stroke-dasharray:none;stroke-opacity:1"
     d="m 257.87665,122.23286 c 15.23207,2.05598 20.61277,2.84754 30.92881,4.19894 10.94593,1.43391 19.4018,2.2382 32.85756,4.14806"
     id="path2439"
     inkscape:connector-curvature="0"
     sodipodi:nodetypes="cac" />
  <path
     style="opacity:0.53800001;fill:none;stroke:#ff0000;stroke-width:30;stroke-linecap:butt;stroke-linejoin:miter;stroke-miterlimit:4;stroke-dasharray:none;stroke-opacity:1"
     d="m -23.445364,101.05514 c 12.426145,0.2731 24.1767758,-0.14681 36.264595,-0.0497 10.59971,0.0852 21.200907,0.20882 31.79532,0.55449 17.772881,0.5799 23.315008,0.63673 53.286093,2.54879"
     id="path2441"
     inkscape:connector-curvature="0"
     sodipodi:nodetypes="caac" />
  <path
     style="opacity:0.57300002;fill:none;stroke:#ff0000;stroke-width:28;stroke-linecap:butt;stroke-linejoin:miter;stroke-miterlimit:4;stroke-dasharray:none;stroke-opacity:1"
     d="m 93.200843,102.6231 c 12.637017,0.77894 17.917407,0.96579 26.866757,1.59317 8.3589,0.58599 12.39586,0.48046 25.05633,2.02768"
     id="path2443"
     inkscape:connector-curvature="0"
     sodipodi:nodetypes="cac" />
  <path
     style="opacity:0.50800003;fill:none;stroke:#ff0000;stroke-width:23;stroke-linecap:butt;stroke-linejoin:miter;stroke-miterlimit:4;stroke-dasharray:none;stroke-opacity:1"
     d="m 140.86947,103.2864 c 14.62529,2.06534 25.41856,4.62061 38.14895,6.81048 9.99171,1.71877 19.98997,3.40311 30.00709,4.96705 16.26113,2.53879 31.83579,5.01214 48.85114,7.16893"
     id="path2445"
     inkscape:connector-curvature="0"
     sodipodi:nodetypes="caac" />
</svg>
