<?xml version="1.0" encoding="UTF-8" standalone="no"?>
<!-- Created with Inkscape (http://www.inkscape.org/) -->

<svg
   xmlns:dc="http://purl.org/dc/elements/1.1/"
   xmlns:cc="http://creativecommons.org/ns#"
   xmlns:rdf="http://www.w3.org/1999/02/22-rdf-syntax-ns#"
   xmlns:svg="http://www.w3.org/2000/svg"
   xmlns="http://www.w3.org/2000/svg"
   xmlns:xlink="http://www.w3.org/1999/xlink"
   xmlns:sodipodi="http://sodipodi.sourceforge.net/DTD/sodipodi-0.dtd"
   xmlns:inkscape="http://www.inkscape.org/namespaces/inkscape"
   version="1.1"
   id="svg4583"
   width="350"
   height="350"
   viewBox="0 0 350 350"
   sodipodi:docname="i7757680_-363650.svg"
   inkscape:version="0.92.2 (unknown)">
  <metadata
     id="metadata4589">
    <rdf:RDF>
      <cc:Work
         rdf:about="">
        <dc:format>image/svg+xml</dc:format>
        <dc:type
           rdf:resource="http://purl.org/dc/dcmitype/StillImage" />
        <dc:title />
      </cc:Work>
    </rdf:RDF>
  </metadata>
  <defs
     id="defs4587" />
  <sodipodi:namedview
     pagecolor="#ffffff"
     bordercolor="#666666"
     borderopacity="1"
     objecttolerance="10"
     gridtolerance="10"
     guidetolerance="10"
     inkscape:pageopacity="0"
     inkscape:pageshadow="2"
     inkscape:window-width="1855"
     inkscape:window-height="1056"
     id="namedview4585"
     showgrid="false"
     showguides="true"
     inkscape:zoom="6.5053824"
     inkscape:cx="104.68902"
     inkscape:cy="338.20664"
     inkscape:window-x="65"
     inkscape:window-y="24"
     inkscape:window-maximized="1"
     inkscape:current-layer="svg4583">
    <inkscape:grid
       type="xygrid"
       id="grid4623" />
  </sodipodi:namedview>
  <image
     sodipodi:absref="carmen_lcad/data/road_mapper_remission_350px/voltadaufes/i7757680_-363580.png"
     y="-350"
     x="0"
     id="image5429"
     xlink:href="carmen_lcad/data/road_mapper_remission_350px/voltadaufes/i7757680_-363580.png"
     preserveAspectRatio="none"
     height="350"
     width="350" />
  <image
     width="350"
     height="350"
     preserveAspectRatio="none"
     xlink:href="carmen_lcad/data/road_mapper_remission_350px/voltadaufes/i7757680_-363650.png"
     id="image4591"
     x="0"
     y="0"
     sodipodi:absref="carmen_lcad/data/road_mapper_remission_350px/voltadaufes/i7757680_-363650.png" />
  <path
     style="opacity:0.40400002;fill:none;stroke:#ff0000;stroke-width:17;stroke-linecap:butt;stroke-linejoin:miter;stroke-miterlimit:4;stroke-dasharray:none;stroke-opacity:1"
     d="M 89.120113,32.802763 C 108.22923,18.42848 114.93443,13.444793 127.79773,3.7076961 142.26467,-7.243299 148.40236,-11.395386 171.09951,-29.275706"
     id="path4625"
     inkscape:connector-curvature="0"
     sodipodi:nodetypes="cac" />
  <path
     style="opacity:0.53699999;fill:none;stroke:#ff0000;stroke-width:17;stroke-linecap:butt;stroke-linejoin:miter;stroke-miterlimit:4;stroke-dasharray:none;stroke-opacity:1"
     d="M 161.04481,-42.60815 C 133.26695,-21.417575 100.63364,3.2456471 70.420902,26.163124 50.785062,41.057634 39.480927,49.62602 11.504093,70.834407"
     id="path4627"
     inkscape:connector-curvature="0"
     sodipodi:nodetypes="cac" />
  <image
     width="350"
     height="350"
     preserveAspectRatio="none"
     xlink:href="carmen_lcad/data/road_mapper_remission_350px/voltadaufes/i7757610_-363650.png"
     id="image37"
     x="-350"
     y="0"
     sodipodi:absref="carmen_lcad/data/road_mapper_remission_350px/voltadaufes/i7757610_-363650.png" />
  <image
     width="350"
     height="350"
     preserveAspectRatio="none"
     xlink:href="carmen_lcad/data/road_mapper_remission_350px/voltadaufes/i7757540_-363650.png"
     id="image3535"
     x="-699.99994"
     y="6.1035156e-05"
     sodipodi:absref="carmen_lcad/data/road_mapper_remission_350px/voltadaufes/i7757540_-363650.png" />
  <image
     sodipodi:absref="carmen_lcad/data/road_mapper_remission_350px/voltadaufes/i7757610_-363720.png"
     y="350"
     x="-350"
     id="image3458"
     xlink:href="carmen_lcad/data/road_mapper_remission_350px/voltadaufes/i7757610_-363720.png"
     preserveAspectRatio="none"
     height="350"
     width="350" />
  <image
     width="350"
     height="350"
     preserveAspectRatio="none"
     xlink:href="carmen_lcad/data/road_mapper_remission_350px/voltadaufes/i7757540_-363720.png"
     id="image2948"
     x="-699.99994"
     y="350"
     sodipodi:absref="carmen_lcad/data/road_mapper_remission_350px/voltadaufes/i7757540_-363720.png" />
  <path
     style="display:none;opacity:0.28999999;fill:none;stroke:#00ff00;stroke-width:25;stroke-linecap:butt;stroke-linejoin:miter;stroke-miterlimit:4;stroke-dasharray:none;stroke-opacity:1"
     d="m -5232.8951,24552.219 -35.7089,-9.988"
     id="path2589"
     inkscape:connector-curvature="0" />
  <path
     style="opacity:0.5;fill:none;stroke:#ff0000;stroke-width:18;stroke-linecap:butt;stroke-linejoin:miter;stroke-miterlimit:4;stroke-dasharray:none;stroke-opacity:1"
     d="m -978.2795,288.37508 c 12.1468,12.3357 23.2519,21.2029 35.6486,30.8664 10.2229,7.969 20.8815,15.4032 31.8585,22.2964 8.679,5.4503 17.7037,10.3499 26.8202,15.032 8.4333,4.3311 16.9779,8.4827 25.7559,12.0642 12.0543,4.9182 24.3647,9.2614 36.8637,12.9042 10.2195,2.9784 20.6527,5.2023 31.0898,7.2945 12.5342,2.5125 25.1669,4.5451 37.8285,6.3071 13.2632,1.8458 26.5568,3.6718 39.9244,4.4638 20.9898,1.2435 42.0524,0.6146 63.0784,0.4421 20.4921,-0.1681 34.1832,-0.7029 61.4614,-1.4395"
     id="path2635"
     inkscape:connector-curvature="0"
     sodipodi:nodetypes="caaaaaaaaac" />
  <path
     style="opacity:0.51099997;fill:none;stroke:#ff0000;stroke-width:18;stroke-linecap:butt;stroke-linejoin:miter;stroke-miterlimit:4;stroke-dasharray:none;stroke-opacity:1"
     d="m -642.433,382.22148 c -20.7602,0.3813 -37.1414,0.9434 -55.6894,0.1919 -15.7884,-0.6397 -31.5709,-1.9211 -47.2352,-3.9978 -18.9024,-2.5059 -37.7421,-5.7629 -56.2878,-10.1945 -13.0763,-3.1247 -26.0587,-6.8175 -38.6498,-11.5311 -14.015,-5.2466 -27.7205,-11.4334 -40.8733,-18.5713 -15.8474,-8.6001 -31.0757,-18.4119 -45.5998,-29.0962 -13.6813,-10.0643 -20.3065,-14.3398 -38.9538,-32.8452"
     id="path2637"
     inkscape:connector-curvature="0"
     sodipodi:nodetypes="caaaaaac" />
  <path
     style="opacity:0.456;fill:none;stroke:#ff0000;stroke-width:17;stroke-linecap:butt;stroke-linejoin:miter;stroke-miterlimit:4;stroke-dasharray:none;stroke-opacity:1"
     d="m -142.81296,211.10675 c 28.71138,-22.27566 34.37784,-26.81719 51.617533,-40.16035 14.94634,-11.56816 27.23223,-21.65297 44.92679,-34.59079"
     id="path39-6"
     inkscape:connector-curvature="0"
     sodipodi:nodetypes="cac" />
  <path
     style="opacity:0.50700001;fill:none;stroke:#ff0000;stroke-width:17;stroke-linecap:butt;stroke-linejoin:miter;stroke-miterlimit:4;stroke-dasharray:none;stroke-opacity:1"
     d="m 11.504093,70.834407 c -24.51746,19.070244 -30.21368,23.827285 -44.97782,34.577063 -15.02252,10.9379 -29.58979,22.48811 -44.32109,33.8152 -15.6086,12.00166 -31.147713,24.0935 -46.690363,36.18045 -7.14817,5.55889 -14.23634,11.1951 -21.41575,16.71359 -8.73137,6.7114 -17.58795,13.25854 -26.34165,19.94079 -13.57475,10.36246 -23.71483,18.10177 -40.59868,31.25117"
     id="path4535-7"
     inkscape:connector-curvature="0"
     sodipodi:nodetypes="csaaaac" />
  <path
     style="opacity:0.55100002;fill:none;stroke:#ff0000;stroke-width:14;stroke-linecap:butt;stroke-linejoin:miter;stroke-miterlimit:4;stroke-dasharray:none;stroke-opacity:1"
     d="m -247.38403,245.56652 c -8.36325,0.17078 -10.95703,-0.24281 -16.22201,1.03738 -5.1012,1.24035 -9.77347,3.88826 -14.42416,6.32381 -11.10573,5.81604 -21.0777,13.61167 -32.03015,19.71147 -9.30927,5.18466 -18.85464,9.9655 -28.57803,14.3243 -10.83185,4.8556 -21.90161,9.1965 -33.09451,13.1494 -18.59907,6.5684 -37.59938,11.9493 -56.51813,17.5306 -25.31498,7.4681 -54.71746,16.1653 -76.2489,21.3472"
     id="path4712-5"
     inkscape:connector-curvature="0"
     sodipodi:nodetypes="caaaaaac" />
  <path
     style="opacity:0.53699999;fill:none;stroke:#7fff00;stroke-width:17;stroke-linecap:butt;stroke-linejoin:miter;stroke-miterlimit:4;stroke-dasharray:none;stroke-opacity:1"
     d="m -547.3067,377.93078 c -12.4302,1.6132 -15.7478,1.8904 -23.6503,2.5327 -6.6232,0.5384 -13.2637,0.8666 -19.9045,1.1064 -8.4551,0.3052 -16.9184,0.3149 -25.3783,0.4223 -8.7307,0.1109 -12.4229,0.435 -26.1932,0.2293"
     id="path3465"
     inkscape:connector-curvature="0"
     sodipodi:nodetypes="caaac" />
  <path
     style="opacity:0.55899999;fill:none;stroke:#ff0000;stroke-width:17;stroke-linecap:butt;stroke-linejoin:miter;stroke-miterlimit:4;stroke-dasharray:none;stroke-opacity:1"
     d="m -588.6952,398.40308 c 8.9694,-0.2989 23.3613,-1.2975 34.9753,-2.6427 9.4329,-1.0926 18.78463,-2.8076 28.14551,-4.4037 8.31704,-1.4181 16.62813,-2.8876 24.89059,-4.5952 10.64358,-2.1997 21.21163,-4.7533 31.78338,-7.2757 9.53076,-2.274 19.05668,-4.5758 28.52844,-7.0843 8.65251,-2.2914 17.23892,-4.8258 25.84792,-7.2757 9.32565,-2.6538 15.25355,-4.127 27.95405,-8.0416"
     id="path3467"
     inkscape:connector-curvature="0"
     sodipodi:nodetypes="caaaaaac" />
  <path
     style="opacity:0.36400003;fill:none;stroke:#ff0000;stroke-width:17;stroke-linecap:butt;stroke-linejoin:miter;stroke-miterlimit:4;stroke-dasharray:none;stroke-opacity:1"
     d="m -529.30798,374.98628 c -8.26518,1.5559 -9.8074,1.8673 -17.99872,2.9445"
     id="path3469"
     inkscape:connector-curvature="0"
     sodipodi:nodetypes="cc" />
  <path
     style="opacity:0.54000005;fill:none;stroke:#7fff00;stroke-width:17;stroke-linecap:butt;stroke-linejoin:miter;stroke-miterlimit:4;stroke-dasharray:none;stroke-opacity:1"
     d="m -476.47611,363.83418 c -8.84528,2.0308 -15.8516,3.8522 -23.8281,5.5508 -9.63061,2.0509 -18.04729,3.7474 -29.00377,5.6013"
     id="path3471"
     inkscape:connector-curvature="0"
     sodipodi:nodetypes="cac" />
  <path
     style="opacity:0.50700001;fill:none;stroke:#7fff00;stroke-width:17;stroke-linecap:butt;stroke-linejoin:miter;stroke-miterlimit:4;stroke-dasharray:none;stroke-opacity:1"
     d="m -386.57001,357.08418 c 9.11024,-2.8043 16.20726,-5.1585 24.28003,-7.8322 6.10325,-2.0214 7.84165,-2.4433 18.26198,-6.2065"
     id="path3475"
     inkscape:connector-curvature="0"
     sodipodi:nodetypes="cac" />
  <path
     style="opacity:0.55100002;fill:none;stroke:#ff0000;stroke-width:17;stroke-linecap:butt;stroke-linejoin:miter;stroke-miterlimit:4;stroke-dasharray:none;stroke-opacity:1"
     d="m -438.36441,431.72318 c 10.2851,-6.5385 16.12253,-10.5743 24.08789,-16.0039 6.76754,-4.6131 13.45435,-9.344 20.13679,-14.0795 9.39451,-6.6575 18.78449,-13.3235 28.05659,-20.1504 10.33186,-7.6073 17.81052,-12.6195 30.7235,-23.1867"
     id="path3477"
     inkscape:connector-curvature="0"
     sodipodi:nodetypes="caaac" />
  <path
     style="opacity:0.48500001;fill:none;stroke:#ff0000;stroke-width:17;stroke-linecap:butt;stroke-linejoin:miter;stroke-miterlimit:4;stroke-dasharray:none;stroke-opacity:1"
     d="m -379.80982,371.00968 c -12.71735,9.1251 -22.16605,15.6681 -33.30519,23.4219 -11.42466,7.9526 -20.08348,14.1157 -34.38829,23.6927"
     id="path3479"
     inkscape:connector-curvature="0"
     sodipodi:nodetypes="cac" />
  <path
     style="opacity:0.522;fill:none;stroke:#00ff7f;stroke-width:17;stroke-linecap:butt;stroke-linejoin:miter;stroke-miterlimit:4;stroke-dasharray:none;stroke-opacity:1"
     d="m -344.028,343.04548 c 10.16759,-3.5865 14.81582,-6.1241 22.07779,-9.5116 7.81813,-3.6468 15.50265,-7.5811 23.11952,-11.6315 9.64387,-5.1284 18.50503,-9.3153 28.57633,-16.0353"
     id="path3481"
     inkscape:connector-curvature="0"
     sodipodi:nodetypes="caac" />
  <path
     style="opacity:0.59200003;fill:none;stroke:#ff0000;stroke-width:17;stroke-linecap:butt;stroke-linejoin:miter;stroke-miterlimit:4;stroke-dasharray:none;stroke-opacity:1"
     d="m -270.25436,305.86708 c 13.21116,-8.9857 20.07065,-14.55858 30.06039,-21.90016 8.78143,-6.45359 17.53251,-12.94856 26.2637,-19.46996 16.55896,-12.36803 31.9247,-24.42128 49.54326,-37.28232"
     id="path3483"
     inkscape:connector-curvature="0"
     sodipodi:nodetypes="caac" />
  <path
     style="opacity:0.51099997;fill:none;stroke:#ff7f00;stroke-width:17;stroke-linecap:butt;stroke-linejoin:miter;stroke-miterlimit:4;stroke-dasharray:none;stroke-opacity:1"
     d="m -335.35964,358.30268 c 21.05216,-16.3779 28.63732,-20.96813 42.79947,-31.6616 17.94025,-13.5462 35.63675,-27.4123 53.41904,-41.1652 13.64451,-10.55272 27.275,-21.12365 40.87801,-31.72981 11.31121,-8.81927 16.17942,-12.76363 33.87611,-26.53143"
     id="path3485"
     inkscape:connector-curvature="0"
     sodipodi:nodetypes="caaac" />
  <path
     style="opacity:0.56199999;fill:none;stroke:#7fff00;stroke-width:17;stroke-linecap:butt;stroke-linejoin:miter;stroke-miterlimit:4;stroke-dasharray:none;stroke-opacity:1"
     d="m -345.69911,345.09748 c -12.02379,9.1945 -23.51599,17.9311 -34.11071,25.9122"
     id="path3487"
     inkscape:connector-curvature="0"
     sodipodi:nodetypes="cc" />
  <path
     style="opacity:0.52600002;fill:none;stroke:#ff0000;stroke-width:17;stroke-linecap:butt;stroke-linejoin:miter;stroke-miterlimit:4;stroke-dasharray:none;stroke-opacity:1"
     d="m -350.1765,327.23998 c -10.20699,3.7713 -12.1267,4.0929 -18.19346,6.1293 -7.82685,2.6271 -15.60174,5.4164 -23.4893,7.8552 -7.76767,2.4018 -15.64402,4.4369 -23.4616,6.6708 -9.50807,2.7171 -18.94795,5.6813 -28.51338,8.189 -10.81754,2.8358 -17.78252,4.2289 -32.64187,7.7499"
     id="path3489"
     inkscape:connector-curvature="0"
     sodipodi:nodetypes="caaaac" />
  <path
     style="opacity:0.58499995;fill:none;stroke:#ff007f;stroke-width:17;stroke-linecap:butt;stroke-linejoin:miter;stroke-miterlimit:4;stroke-dasharray:none;stroke-opacity:1"
     d="m -279.13517,291.80148 c -11.1392,6.7787 -17.43106,10.1307 -26.33078,14.8597 -7.41391,3.9395 -14.90515,7.7462 -22.5343,11.2507 -7.28732,3.3476 -9.20825,4.55996 -22.17625,9.3281"
     id="path3491"
     inkscape:connector-curvature="0"
     sodipodi:nodetypes="caac" />
  <path
     style="opacity:0.478;fill:none;stroke:#ff7f00;stroke-width:18;stroke-linecap:butt;stroke-linejoin:miter;stroke-miterlimit:4;stroke-dasharray:none;stroke-opacity:1"
     d="m -551.0394,353.25488 c -18.9517,5.8414 -26.7912,8.0887 -40.2079,12.0624 -7.5227,2.2281 -15.152,4.1132 -22.5917,6.6049 -8.5956,2.8788 -16.1344,5.901 -25.4331,9.6288"
     id="path3493"
     inkscape:connector-curvature="0"
     sodipodi:nodetypes="caac" />
  <path
     style="opacity:0.43800001;fill:none;stroke:#00ff00;stroke-width:16;stroke-linecap:butt;stroke-linejoin:miter;stroke-miterlimit:4;stroke-dasharray:none;stroke-opacity:1"
     d="m -503.41682,339.66758 c -10.92986,2.4669 -16.72713,4.0444 -24.2637,6.3116 -7.80952,2.3494 -17.34438,4.543 -25.65768,7.2757"
     id="path3495"
     inkscape:connector-curvature="0"
     sodipodi:nodetypes="csc" />
  <path
     style="opacity:0.51099997;fill:none;stroke:#ff0000;stroke-width:16;stroke-linecap:butt;stroke-linejoin:miter;stroke-miterlimit:4;stroke-dasharray:none;stroke-opacity:1"
     d="m -541.75328,323.86488 c -1.49662,-7.3747 -2.87142,-14.2968 -4.21222,-22.4016"
     id="path3497"
     inkscape:connector-curvature="0"
     sodipodi:nodetypes="cc" />
  <path
     style="opacity:0.478;fill:none;stroke:#ff7f00;stroke-width:17;stroke-linecap:butt;stroke-linejoin:miter;stroke-miterlimit:4;stroke-dasharray:none;stroke-opacity:1"
     d="m -476.47611,363.83418 c -5.60899,1.3414 -8.94715,0.6344 -13.26526,-0.3234 -3.4574,-0.7669 -6.78281,-2.2804 -9.73447,-4.2563 -4.00874,-2.6835 -8.89153,-4.4451 -10.45961,-10.005"
     id="path3499"
     inkscape:connector-curvature="0"
     sodipodi:nodetypes="casc" />
  <path
     style="opacity:0.57399998;fill:none;stroke:#ff7f00;stroke-width:16;stroke-linecap:butt;stroke-linejoin:miter;stroke-miterlimit:4;stroke-dasharray:none;stroke-opacity:1"
     d="m -503.41682,339.66758 c -8.6373,1.9653 -12.03402,1.6187 -17.91002,0.5478 -4.66092,-0.8495 -9.47677,-2.4137 -13.13972,-5.4184 -3.38588,-2.7775 -6.04557,-4.9625 -7.28672,-10.9321"
     id="path3501"
     inkscape:connector-curvature="0"
     sodipodi:nodetypes="caac" />
  <path
     style="opacity:0.55899999;fill:none;stroke:#ff7f00;stroke-width:16;stroke-linecap:butt;stroke-linejoin:miter;stroke-miterlimit:4;stroke-dasharray:none;stroke-opacity:1"
     d="m -541.75328,323.86488 c 1.2678,7.3766 1.19158,8.5256 0.56555,12.7251 -0.47944,3.2162 -1.40377,6.5233 -3.25667,9.1954 -2.2061,3.1814 -5.0954,6.2736 -8.8938,7.4695"
     id="path3503"
     inkscape:connector-curvature="0"
     sodipodi:nodetypes="caac" />
  <path
     style="opacity:0.5;fill:none;stroke:#ff7f00;stroke-width:22;stroke-linecap:butt;stroke-linejoin:miter;stroke-miterlimit:4;stroke-dasharray:none;stroke-opacity:1"
     d="m -523.47124,353.09218 c 1.97348,6.9173 1.89995,4.122 3.27795,11.6529"
     id="path3505"
     inkscape:connector-curvature="0"
     sodipodi:nodetypes="cc" />
  <path
     style="opacity:0.43399999;fill:none;stroke:#00ff00;stroke-width:18;stroke-linecap:butt;stroke-linejoin:miter;stroke-miterlimit:4;stroke-dasharray:none;stroke-opacity:1"
     d="m -550.9928,360.94088 c -15.7259,4.3445 -25.8071,6.9428 -38.7419,10.2951 -8.0483,2.0859 -16.0533,4.367 -24.1829,6.1093 -7.8687,1.6865 -14.7271,3.597 -23.7743,4.1989"
     id="path3509"
     inkscape:connector-curvature="0"
     sodipodi:nodetypes="caac" />
  <path
     style="opacity:0.61000001;fill:none;stroke:#ff7f00;stroke-width:15;stroke-linecap:butt;stroke-linejoin:miter;stroke-miterlimit:4;stroke-dasharray:none;stroke-opacity:1"
     d="m -548.0843,502.68198 c 18.1197,-15.8041 34.86592,-27.8416 54.023,-41.1877"
     id="path3511"
     inkscape:connector-curvature="0"
     sodipodi:nodetypes="cc" />
  <path
     style="opacity:0.47099998;fill:none;stroke:#ff7f00;stroke-width:16.5;stroke-linecap:butt;stroke-linejoin:miter;stroke-miterlimit:4;stroke-dasharray:none;stroke-opacity:1"
     d="m -495.88122,462.06898 c 20.99623,-10.8591 40.57953,-21.3268 60.29459,-31.9742"
     id="path3513"
     inkscape:connector-curvature="0"
     sodipodi:nodetypes="cc" />
  <path
     style="opacity:0.54000005;fill:none;stroke:#ff7f00;stroke-width:16.60000038;stroke-linecap:butt;stroke-linejoin:miter;stroke-miterlimit:4;stroke-dasharray:none;stroke-opacity:1"
     d="m -443.86972,415.70878 c -19.49007,10.9879 -39.54398,20.8188 -59.8659,35.4406"
     id="path3515"
     inkscape:connector-curvature="0"
     sodipodi:nodetypes="cc" />
  <path
     style="opacity:0.49300005;fill:none;stroke:#ff7f00;stroke-width:15;stroke-linecap:butt;stroke-linejoin:miter;stroke-miterlimit:4;stroke-dasharray:none;stroke-opacity:1"
     d="m -502.49041,449.52108 c 0,0 -19.13673,12.9597 -28.35249,19.9233 -9.21804,6.9654 -26.9157,21.8391 -26.9157,21.8391"
     id="path3517"
     inkscape:connector-curvature="0"
     sodipodi:nodetypes="cac" />
  <path
     style="opacity:0.52600002;fill:none;stroke:#ff0000;stroke-width:17;stroke-linecap:butt;stroke-linejoin:miter;stroke-miterlimit:4;stroke-dasharray:none;stroke-opacity:1"
     d="m -210.65883,241.13024 c -5.84383,4.57537 -23.13047,17.19155 -34.71393,25.76272 -11.24236,8.31877 -24.212,19.15848 -33.76241,24.90852"
     id="path4725"
     inkscape:connector-curvature="0"
     sodipodi:nodetypes="cac" />
  <path
     style="opacity:0.57700004;fill:none;stroke:#ff7f00;stroke-width:15;stroke-linecap:butt;stroke-linejoin:miter;stroke-miterlimit:4;stroke-dasharray:none;stroke-opacity:1"
     d="m -211.5076,240.89876 c -2.88277,2.23425 -4.06567,2.5308 -6.33726,3.18727 -4.71992,1.36403 -9.76808,1.09767 -14.6704,1.42246 -5.30255,0.35129 -8.75783,0.39252 -15.93239,0.56821"
     id="path4727"
     inkscape:connector-curvature="0"
     sodipodi:nodetypes="caac" />
  <path
     style="opacity:0.48500001;fill:none;stroke:#7fff00;stroke-width:17;stroke-linecap:butt;stroke-linejoin:miter;stroke-miterlimit:4;stroke-dasharray:none;stroke-opacity:1"
     d="m -46.268637,136.35561 c 9.22057,-7.00585 19.65632,-15.51463 28.54338,-21.94875"
     id="path4731"
     inkscape:connector-curvature="0"
     sodipodi:nodetypes="cc" />
  <path
     style="opacity:0.478;fill:none;stroke:#ff0000;stroke-width:17;stroke-linecap:butt;stroke-linejoin:miter;stroke-miterlimit:4;stroke-dasharray:none;stroke-opacity:1"
     d="M -17.725257,114.40686 C 18.367393,86.66915 54.214103,59.737428 89.120113,32.802763"
     id="path4733"
     inkscape:connector-curvature="0"
     sodipodi:nodetypes="cc" />
  <path
     style="opacity:0.57700004;fill:none;stroke:#ff0000;stroke-width:16;stroke-linecap:butt;stroke-linejoin:miter;stroke-miterlimit:4;stroke-dasharray:none;stroke-opacity:1"
     d="m -127.46912,253.39506 c 10.08892,13.80158 18.99913,25.70342 27.932103,37.80864"
     id="path4807"
     inkscape:connector-curvature="0"
     sodipodi:nodetypes="cc" />
  <path
     style="opacity:0.51099997;fill:none;stroke:#7fff00;stroke-width:17;stroke-linecap:butt;stroke-linejoin:miter;stroke-miterlimit:4;stroke-dasharray:none;stroke-opacity:1"
     d="m -164.38701,227.21464 c 6.35378,-4.96631 13.35992,-9.69032 21.57405,-16.10789"
     id="path4813"
     inkscape:connector-curvature="0"
     sodipodi:nodetypes="cc" />
  <path
     style="opacity:0.53299997;fill:none;stroke:#ff7f00;stroke-width:16;stroke-linecap:butt;stroke-linejoin:miter;stroke-miterlimit:4;stroke-dasharray:none;stroke-opacity:1"
     d="m -166.20368,228.7037 c 4.98971,-4.07243 8.97422,-4.08601 13.40721,-2.95081 5.38708,1.37952 8.76055,6.91864 12.56391,10.97551 4.7859,5.10489 6.20382,8.50025 12.76344,16.66666"
     id="path4809"
     inkscape:connector-curvature="0"
     sodipodi:nodetypes="caac" />
  <path
     style="opacity:0.49300005;fill:none;stroke:#ff7f00;stroke-width:16;stroke-linecap:butt;stroke-linejoin:miter;stroke-miterlimit:4;stroke-dasharray:none;stroke-opacity:1"
     d="m -127.46912,253.39506 c -4.81437,-6.45232 -6.9143,-9.19854 -10.03862,-14.02449 -2.67704,-4.13508 -5.84123,-8.10843 -7.44324,-12.76665 -1.01973,-2.96512 -2.00525,-6.27521 -1.26265,-9.32158 0.73125,-2.9998 0.46561,-4.0417 5.32795,-7.57723"
     id="path4811"
     inkscape:connector-curvature="0"
     sodipodi:nodetypes="caaac" />
  <path
     style="opacity:0.50700001;fill:none;stroke:#ff0000;stroke-width:15;stroke-linecap:butt;stroke-linejoin:miter;stroke-miterlimit:4;stroke-dasharray:none;stroke-opacity:1"
     d="m -14.451617,148.67099 c 7.9451798,11.63961 11.6979198,17.0593 20.4056998,28.80804"
     id="path4815"
     inkscape:connector-curvature="0"
     sodipodi:nodetypes="cc" />
  <path
     style="opacity:0.47400004;fill:none;stroke:#ff7f00;stroke-width:15;stroke-linecap:butt;stroke-linejoin:miter;stroke-miterlimit:4;stroke-dasharray:none;stroke-opacity:1"
     d="m -46.486877,137.88331 c 5.16501,-3.74644 9.53193,-3.09613 14.35759,-2.52514 2.99288,0.35413 5.83888,1.85202 8.29323,3.60101 4.11973,2.93575 6.81998,6.01473 10.25741,11.18495"
     id="path4819"
     inkscape:connector-curvature="0"
     sodipodi:nodetypes="caac" />
  <path
     style="opacity:0.49599998;fill:none;stroke:#ff7f00;stroke-width:15;stroke-linecap:butt;stroke-linejoin:miter;stroke-miterlimit:4;stroke-dasharray:none;stroke-opacity:1"
     d="m -13.906007,149.2166 c -4.01659,-5.81915 -5.2595,-8.22308 -6.54729,-12.87633 -1.00098,-3.6169 -1.54246,-7.59316 -0.65472,-11.23951 0.96062,-3.94576 0.98736,-6.55247 6.21991,-10.47566"
     id="path4821"
     inkscape:connector-curvature="0"
     sodipodi:nodetypes="csac" />
</svg>
