<?xml version="1.0" encoding="UTF-8" standalone="no"?>
<!-- Created with Inkscape (http://www.inkscape.org/) -->

<svg
   xmlns:dc="http://purl.org/dc/elements/1.1/"
   xmlns:cc="http://creativecommons.org/ns#"
   xmlns:rdf="http://www.w3.org/1999/02/22-rdf-syntax-ns#"
   xmlns:svg="http://www.w3.org/2000/svg"
   xmlns="http://www.w3.org/2000/svg"
   xmlns:xlink="http://www.w3.org/1999/xlink"
   xmlns:sodipodi="http://sodipodi.sourceforge.net/DTD/sodipodi-0.dtd"
   xmlns:inkscape="http://www.inkscape.org/namespaces/inkscape"
   version="1.1"
   id="svg1874"
   width="350"
   height="350"
   viewBox="0 0 350 350"
   sodipodi:docname="i7757400_-363650.svg"
   inkscape:version="0.92.2 (unknown)">
  <metadata
     id="metadata1880">
    <rdf:RDF>
      <cc:Work
         rdf:about="">
        <dc:format>image/svg+xml</dc:format>
        <dc:type
           rdf:resource="http://purl.org/dc/dcmitype/StillImage" />
        <dc:title></dc:title>
      </cc:Work>
    </rdf:RDF>
  </metadata>
  <defs
     id="defs1878" />
  <sodipodi:namedview
     pagecolor="#ffffff"
     bordercolor="#666666"
     borderopacity="1"
     objecttolerance="10"
     gridtolerance="10"
     guidetolerance="10"
     inkscape:pageopacity="0"
     inkscape:pageshadow="2"
     inkscape:window-width="1855"
     inkscape:window-height="1056"
     id="namedview1876"
     showgrid="false"
     inkscape:zoom="1.3057143"
     inkscape:cx="174.80186"
     inkscape:cy="228.3712"
     inkscape:window-x="65"
     inkscape:window-y="24"
     inkscape:window-maximized="1"
     inkscape:current-layer="svg1874" />
  <image
     width="350"
     height="350"
     preserveAspectRatio="none"
     xlink:href="carmen_lcad/data/road_mapper_remission_350px/voltadaufes/i7757400_-363650.png"
     id="image1882"
     x="0"
     y="0"
     sodipodi:absref="carmen_lcad/data/road_mapper_remission_350px/voltadaufes/i7757400_-363650.png" />
  <image
     width="350"
     height="350"
     preserveAspectRatio="none"
     xlink:href="carmen_lcad/data/road_mapper_remission_350px/voltadaufes/i7757400_-363580.png"
     id="image1664"
     x="-6.1035156e-05"
     y="-350"
     sodipodi:absref="carmen_lcad/data/road_mapper_remission_350px/voltadaufes/i7757400_-363580.png" />
  <image
     width="350"
     height="350"
     preserveAspectRatio="none"
     xlink:href="carmen_lcad/data/road_mapper_remission_350px/voltadaufes/i7757330_-363580.png"
     id="image1507"
     x="-350"
     y="-350"
     sodipodi:absref="carmen_lcad/data/road_mapper_remission_350px/voltadaufes/i7757330_-363580.png" />
  <path
     style="display:none;opacity:0.28999999;fill:none;stroke:#00ff00;stroke-width:25;stroke-linecap:butt;stroke-linejoin:miter;stroke-miterlimit:4;stroke-dasharray:none;stroke-opacity:1"
     d="m -2292.5997,20075.264 -35.7089,-9.988"
     id="path2589"
     inkscape:connector-curvature="0" />
  <image
     sodipodi:absref="carmen_lcad/data/road_mapper_remission_350px/voltadaufes/i7757470_-363650.png"
     y="0"
     x="350"
     id="image1482"
     xlink:href="carmen_lcad/data/road_mapper_remission_350px/voltadaufes/i7757470_-363650.png"
     preserveAspectRatio="none"
     height="350"
     width="350" />
  <path
     style="opacity:0.53699999;fill:none;stroke:#ff0000;stroke-width:18;stroke-linecap:butt;stroke-linejoin:miter;stroke-miterlimit:4;stroke-dasharray:none;stroke-opacity:1"
     d="m -266.73401,-421.36075 c 13.1872,4.21713 21.1271,5.75017 31.4753,9.30026 16.4863,5.65586 32.6952,12.13981 48.6804,19.08672 15.2131,6.61137 30.3135,13.55961 44.8895,21.47726 10.2247,5.55399 20.0147,11.88505 29.7784,18.21437 13.702199,8.88243 27.289899,17.97222 40.394599,27.71466 7.1456,5.31229 14.199,10.78169 20.8167,16.73872 9.6379,8.67572 18.8613,17.85435 27.4207,27.5957 10.1738,11.57865 18.877,24.37093 28.3355,36.54088 8.146,10.48111 16.3023,20.95413 24.4722,31.41657 4.7654,6.10265 6.8539,9.11706 14.3182,18.29086"
     id="path1485"
     inkscape:connector-curvature="0"
     sodipodi:nodetypes="caaaaaaaaac" />
  <path
     style="opacity:0.53299997;fill:none;stroke:#ff0000;stroke-width:18;stroke-linecap:butt;stroke-linejoin:miter;stroke-miterlimit:4;stroke-dasharray:none;stroke-opacity:1"
     d="m 57.637689,-206.54192 c -9.6059,-11.86335 -12.6651,-15.61258 -18.8953,-23.49562 -8.6635,-10.96197 -16.8544,-22.29033 -25.4295,-33.32162 -7.876,-10.13202 -15.3668,-20.59742 -23.8978,-30.18448 -7.1456,-8.03016 -14.7724,-15.6543 -22.7858,-22.81869 -10.4005,-9.29859 -21.5545,-17.73433 -32.7297,-26.08604 -10.2431,-7.65518 -20.7693,-14.93478 -31.429,-21.99839 -8.026799,-5.31895 -16.144899,-10.51514 -24.478999,-15.33839 -10.7987,-6.24965 -21.8806,-12.00889 -33.0344,-17.6003 -9.0958,-4.55975 -18.3117,-8.88594 -27.6189,-12.99714 -9.2914,-4.10424 -12.6818,-6.33666 -28.1605,-11.64328"
     id="path1487"
     inkscape:connector-curvature="0"
     sodipodi:nodetypes="csaaaaaaaac" />
  <path
     style="opacity:0.603;fill:none;stroke:#00ff7f;stroke-width:18;stroke-linecap:butt;stroke-linejoin:miter;stroke-miterlimit:4;stroke-dasharray:none;stroke-opacity:1"
     d="m 43.847489,-194.98475 c 19.3404,24.26019 32.443,42.44887 56.794001,73.39415"
     id="path1848"
     inkscape:connector-curvature="0"
     sodipodi:nodetypes="cc" />
  <path
     style="opacity:0.48900003;fill:none;stroke:#ff0000;stroke-width:18;stroke-linecap:butt;stroke-linejoin:miter;stroke-miterlimit:4;stroke-dasharray:none;stroke-opacity:1"
     d="m 100.64149,-121.5906 c 44.2998,54.542304 84.0144,109.854734 125.2406,163.569534 43.4802,56.65152 88.0479,111.098606 131.3458,169.256006"
     id="path1850"
     inkscape:connector-curvature="0"
     sodipodi:nodetypes="csc" />
  <path
     style="opacity:0.55100002;fill:none;stroke:#00ff7f;stroke-width:18;stroke-linecap:butt;stroke-linejoin:miter;stroke-miterlimit:4;stroke-dasharray:none;stroke-opacity:1"
     d="m 356.89279,210.99564 c 14.1177,20.7708 20.5744,29.0553 32.0349,42.6488 10.2629,12.173 16.0059,16.5466 32.7928,34.7307"
     id="path1852"
     inkscape:connector-curvature="0"
     sodipodi:nodetypes="cac" />
  <path
     style="opacity:0.56600001;fill:none;stroke:#ff007f;stroke-width:18;stroke-linecap:butt;stroke-linejoin:miter;stroke-miterlimit:4;stroke-dasharray:none;stroke-opacity:1"
     d="m 434.46939,276.75174 c -17.1145,-18.7754 -20.5903,-21.6345 -30.182,-33.0675 -11.5317,-13.7455 -19.8527,-25.2342 -32.8432,-42.6449"
     id="path1854"
     inkscape:connector-curvature="0"
     sodipodi:nodetypes="cac" />
  <path
     style="opacity:0.53299997;fill:none;stroke:#ff0000;stroke-width:18;stroke-linecap:butt;stroke-linejoin:miter;stroke-miterlimit:4;stroke-dasharray:none;stroke-opacity:1"
     d="m 371.44419,201.03934 c -52.4615,-70.0857 -85.6541,-109.986676 -127.8993,-165.426646 -42.7468,-56.09812 -75.738,-101.40175 -128.9825,-168.331544"
     id="path1856"
     inkscape:connector-curvature="0"
     sodipodi:nodetypes="csc" />
  <path
     style="opacity:0.55500034;fill:none;stroke:#ff007f;stroke-width:18;stroke-linecap:butt;stroke-linejoin:miter;stroke-miterlimit:4;stroke-dasharray:none;stroke-opacity:1"
     d="M 114.56239,-132.71885 C 87.084089,-168.54688 76.819989,-182.03377 57.637689,-206.54192"
     id="path1858"
     inkscape:connector-curvature="0"
     sodipodi:nodetypes="cc" />
  <path
     style="opacity:0.522;fill:none;stroke:#ff7f00;stroke-width:19;stroke-linecap:butt;stroke-linejoin:miter;stroke-miterlimit:4;stroke-dasharray:none;stroke-opacity:1"
     d="m 43.847489,-194.98475 c 4.9072,6.12698 5.8375,9.16042 6.5165,14.37853 0.5963,4.58351 -0.5317,9.40424 -2.3016,13.67409 -1.8462,4.45373 -5.4594,7.95351 -8.394,11.77866 -4.6635,6.0785 -9.3881,12.13849 -14.6244,17.73102 -3.6007,3.8456 -3.1209,3.94546 -11.5053,10.83563"
     id="path1860"
     inkscape:connector-curvature="0"
     sodipodi:nodetypes="caaaac" />
  <path
     style="opacity:0.5;fill:none;stroke:#ff7f00;stroke-width:19;stroke-linecap:butt;stroke-linejoin:miter;stroke-miterlimit:4;stroke-dasharray:none;stroke-opacity:1"
     d="m 25.994289,-112.10042 c 9.8343,-9.21105 12.3579,-11.22093 19.4957,-15.43412 4.4245,-2.61161 9.2643,-4.58562 14.2157,-5.95702 3.6473,-1.01021 7.4544,-1.74845 11.2371,-1.62464 6.0863,0.19922 12.3846,1.14849 17.871,3.79084 4.6005,2.21564 5.3001,1.66616 11.827701,9.73476"
     id="path1862"
     inkscape:connector-curvature="0"
     sodipodi:nodetypes="caaaac" />
  <path
     style="opacity:0.38200001;fill:none;stroke:#00ff00;stroke-width:23.5;stroke-linecap:butt;stroke-linejoin:miter;stroke-miterlimit:4;stroke-dasharray:none;stroke-opacity:1"
     d="m 29.075789,-128.00407 c 14.9922,-11.91394 27.0797,-19.79958 35.1537,-26.03627"
     id="path1864"
     inkscape:connector-curvature="0"
     sodipodi:nodetypes="cc" />
  <path
     style="opacity:0.61400003;fill:none;stroke:#ff7f00;stroke-width:18;stroke-linecap:butt;stroke-linejoin:miter;stroke-miterlimit:4;stroke-dasharray:none;stroke-opacity:1"
     d="m 356.89279,210.99564 c 5.73744,8.67073 8.4269,17.25599 9.57329,26.61377 0.42124,3.43851 0.0545,7.05678 -1.05306,10.33917 -2.34476,6.94876 -6.63134,13.26855 -11.48796,18.76367 -6.10566,6.90837 -9.12618,7.75257 -21.63567,17.23195"
     id="path2090"
     inkscape:connector-curvature="0"
     sodipodi:nodetypes="caaac" />
  <path
     style="opacity:0.58499995;fill:none;stroke:#ff7f00;stroke-width:18;stroke-linecap:butt;stroke-linejoin:miter;stroke-miterlimit:4;stroke-dasharray:none;stroke-opacity:1"
     d="m 343.29869,296.6767 c 11.29024,-10.01452 12.68815,-12.00424 20.29541,-16.08316 5.91427,-3.17116 12.46638,-5.58271 19.1466,-6.22264 6.97781,-0.66844 14.26815,0.22793 20.8698,2.58479 6.72109,2.3995 9.68001,2.26255 18.10999,11.41945"
     id="path2092"
     inkscape:connector-curvature="0"
     sodipodi:nodetypes="caaac" />
  <path
     style="opacity:0.37099998;fill:none;stroke:#00ff00;stroke-width:20;stroke-linecap:butt;stroke-linejoin:miter;stroke-miterlimit:4;stroke-dasharray:none;stroke-opacity:1"
     d="m 361.96663,271.30744 c 6.05865,-4.91466 13.89016,-9.50602 18.76368,-13.68983"
     id="path2094"
     inkscape:connector-curvature="0"
     sodipodi:nodetypes="cc" />
</svg>
