<?xml version="1.0" encoding="UTF-8" standalone="no"?>
<!-- Created with Inkscape (http://www.inkscape.org/) -->

<svg
   xmlns:dc="http://purl.org/dc/elements/1.1/"
   xmlns:cc="http://creativecommons.org/ns#"
   xmlns:rdf="http://www.w3.org/1999/02/22-rdf-syntax-ns#"
   xmlns:svg="http://www.w3.org/2000/svg"
   xmlns="http://www.w3.org/2000/svg"
   xmlns:xlink="http://www.w3.org/1999/xlink"
   xmlns:sodipodi="http://sodipodi.sourceforge.net/DTD/sodipodi-0.dtd"
   xmlns:inkscape="http://www.inkscape.org/namespaces/inkscape"
   version="1.1"
   id="svg7884"
   width="350"
   height="350"
   viewBox="0 0 350 350"
   sodipodi:docname="i7757330_-364140.svg"
   inkscape:version="0.92.2 (unknown)">
  <metadata
     id="metadata7890">
    <rdf:RDF>
      <cc:Work
         rdf:about="">
        <dc:format>image/svg+xml</dc:format>
        <dc:type
           rdf:resource="http://purl.org/dc/dcmitype/StillImage" />
        <dc:title />
      </cc:Work>
    </rdf:RDF>
  </metadata>
  <defs
     id="defs7888" />
  <sodipodi:namedview
     pagecolor="#ffffff"
     bordercolor="#666666"
     borderopacity="1"
     objecttolerance="10"
     gridtolerance="10"
     guidetolerance="10"
     inkscape:pageopacity="0"
     inkscape:pageshadow="2"
     inkscape:window-width="1855"
     inkscape:window-height="1056"
     id="namedview7886"
     showgrid="false"
     inkscape:zoom="0.86305552"
     inkscape:cx="709.3399"
     inkscape:cy="215.61318"
     inkscape:window-x="65"
     inkscape:window-y="24"
     inkscape:window-maximized="1"
     inkscape:current-layer="svg7884" />
  <image
     width="350"
     height="350"
     preserveAspectRatio="none"
     xlink:href="carmen_lcad/data/road_mapper_remission_350px/voltadaufes/i7757330_-364140.png"
     id="image7892"
     x="0"
     y="0"
     sodipodi:absref="carmen_lcad/data/road_mapper_remission_350px/voltadaufes/i7757330_-364140.png" />
  <path
     style="fill:none;stroke:#ff0000;stroke-width:25;stroke-linecap:butt;stroke-linejoin:miter;stroke-miterlimit:4;stroke-dasharray:none;stroke-opacity:1"
     d="m 138.9449,141.13369 c 0,0 -28.83866,2.89082 -43.279413,4.09568 -14.516153,1.21116 -29.038578,2.40508 -43.586139,3.14945 -11.127438,0.56936 -22.271458,0.76475 -33.410832,1.00643 -14.7325832,0.31965 -44.204258,0.58674 -44.204258,0.58674"
     id="path7924"
     inkscape:connector-curvature="0"
     sodipodi:nodetypes="caaac" />
  <path
     style="fill:none;stroke:#ff0000;stroke-width:23;stroke-linecap:butt;stroke-linejoin:miter;stroke-miterlimit:4;stroke-dasharray:none;stroke-opacity:1"
     d="m -22.892931,172.60447 c 0,0 39.554341,0.65204 59.299491,-0.27078 16.471918,-0.76985 32.862313,-2.79113 49.274605,-4.38906 21.253545,-2.06928 42.513935,-4.11826 63.707455,-6.73156 17.78114,-2.19253 53.22078,-7.5055 53.22078,-7.5055"
     id="path7926"
     inkscape:connector-curvature="0"
     sodipodi:nodetypes="caaac" />
  <path
     style="fill:none;stroke:#0000ff;stroke-width:18;stroke-linecap:butt;stroke-linejoin:miter;stroke-miterlimit:4;stroke-dasharray:none;stroke-opacity:1"
     d="M 367.36354,356.62027 -14.242543,303.67266"
     id="path4788"
     inkscape:connector-curvature="0"
     sodipodi:nodetypes="cc" />
  <path
     style="fill:none;stroke:#0000ff;stroke-width:16;stroke-linecap:butt;stroke-linejoin:miter;stroke-miterlimit:4;stroke-dasharray:none;stroke-opacity:1"
     d="M 315.8682,332.42756 -11.61814,286.97158"
     id="path4790"
     inkscape:connector-curvature="0"
     sodipodi:nodetypes="cc" />
  <path
     style="fill:none;stroke:#ff007f;stroke-width:16;stroke-linecap:butt;stroke-linejoin:miter;stroke-miterlimit:4;stroke-dasharray:none;stroke-opacity:1"
     d="M 369.74732,339.83413 315.8682,332.42756"
     id="path4792"
     inkscape:connector-curvature="0"
     sodipodi:nodetypes="cc" />
  <path
     style="fill:none;stroke:#7f00ff;stroke-width:17;stroke-linecap:butt;stroke-linejoin:miter;stroke-miterlimit:4;stroke-dasharray:none;stroke-opacity:1"
     d="M 364.98712,373.95248 -16.440434,319.96098"
     id="path4794"
     inkscape:connector-curvature="0"
     sodipodi:nodetypes="cc" />
  <path
     style="fill:none;stroke:#ff007f;stroke-width:16;stroke-linecap:butt;stroke-linejoin:miter;stroke-miterlimit:4;stroke-dasharray:none;stroke-opacity:1"
     d="m 332.41946,334.61243 c 0,0 -9.74382,-0.80557 -15.11246,-1.80528 -5.95142,-1.10823 -21.42743,-9.62661 -32.51514,-13.45327 -14.74528,-5.08898 -29.81949,-9.31701 -45.07148,-12.58779 -24.48497,-5.25079 -49.49771,-7.64092 -74.27968,-11.23797 -36.47319,-5.294 -73.00948,-10.14379 -109.513096,-15.22378 -21.8859,-3.04573 -65.6563489,-9.14689 -65.6563489,-9.14689"
     id="path4796"
     inkscape:connector-curvature="0"
     sodipodi:nodetypes="csaaaac" />
  <path
     style="fill:none;stroke:#ff0000;stroke-width:23;stroke-linecap:butt;stroke-linejoin:miter;stroke-miterlimit:4;stroke-dasharray:none;stroke-opacity:1"
     d="m 374.54137,87.850004 c 0,0 -31.32981,10.530112 -47.21596,15.062766 -21.64139,6.17474 -43.49485,11.63403 -65.46508,16.5111 -21.98075,4.8794 -44.15426,8.87027 -66.33409,12.74542 -20.15574,3.5215 -60.6367,9.54374 -60.6367,9.54374"
     id="path4798"
     inkscape:connector-curvature="0"
     sodipodi:nodetypes="caaac" />
  <path
     style="fill:none;stroke:#ff0000;stroke-width:25;stroke-linecap:butt;stroke-linejoin:miter;stroke-miterlimit:4;stroke-dasharray:none;stroke-opacity:1"
     d="m 202.6094,153.70757 c 0,0 6.54755,-0.97611 9.76892,-1.72147 11.84529,-2.74077 27.57791,-4.8656 41.31695,-7.56168 14.81409,-2.90704 29.64454,-5.77714 44.32738,-9.28748 13.54677,-3.23873 26.98809,-6.92626 40.35083,-10.85582 14.8528,-4.36773 44.24254,-14.13303 44.24254,-14.13303"
     id="path4800"
     inkscape:connector-curvature="0"
     sodipodi:nodetypes="csaaac" />
</svg>
