<?xml version="1.0" encoding="UTF-8" standalone="no"?>
<!-- Created with Inkscape (http://www.inkscape.org/) -->

<svg
   xmlns:dc="http://purl.org/dc/elements/1.1/"
   xmlns:cc="http://creativecommons.org/ns#"
   xmlns:rdf="http://www.w3.org/1999/02/22-rdf-syntax-ns#"
   xmlns:svg="http://www.w3.org/2000/svg"
   xmlns="http://www.w3.org/2000/svg"
   xmlns:xlink="http://www.w3.org/1999/xlink"
   xmlns:sodipodi="http://sodipodi.sourceforge.net/DTD/sodipodi-0.dtd"
   xmlns:inkscape="http://www.inkscape.org/namespaces/inkscape"
   version="1.1"
   id="svg2104"
   width="350"
   height="350"
   viewBox="0 0 350 350"
   sodipodi:docname="i7757470_-363650.svg"
   inkscape:version="0.92.2 (unknown)">
  <metadata
     id="metadata2110">
    <rdf:RDF>
      <cc:Work
         rdf:about="">
        <dc:format>image/svg+xml</dc:format>
        <dc:type
           rdf:resource="http://purl.org/dc/dcmitype/StillImage" />
        <dc:title />
      </cc:Work>
    </rdf:RDF>
  </metadata>
  <defs
     id="defs2108" />
  <sodipodi:namedview
     pagecolor="#ffffff"
     bordercolor="#666666"
     borderopacity="1"
     objecttolerance="10"
     gridtolerance="10"
     guidetolerance="10"
     inkscape:pageopacity="0"
     inkscape:pageshadow="2"
     inkscape:window-width="1855"
     inkscape:window-height="1056"
     id="namedview2106"
     showgrid="false"
     inkscape:zoom="0.92327945"
     inkscape:cx="-32.202111"
     inkscape:cy="143.98015"
     inkscape:window-x="65"
     inkscape:window-y="24"
     inkscape:window-maximized="1"
     inkscape:current-layer="svg2104" />
  <image
     sodipodi:absref="carmen_lcad/data/road_mapper_remission_350px/voltadaufes/i7757470_-363650.png"
     xlink:href="carmen_lcad/data/road_mapper_remission_350px/voltadaufes/i7757470_-363650.png"
     y="0"
     x="0"
     id="image2112"
     preserveAspectRatio="none"
     height="350"
     width="350" />
  <image
     sodipodi:absref="carmen_lcad/data/road_mapper_remission_350px/voltadaufes/i7757400_-363650.png"
     xlink:href="carmen_lcad/data/road_mapper_remission_350px/voltadaufes/i7757400_-363650.png"
     y="1.5258789e-05"
     x="-350"
     id="image1882"
     preserveAspectRatio="none"
     height="350"
     width="350" />
  <image
     sodipodi:absref="carmen_lcad/data/road_mapper_remission_350px/voltadaufes/i7757400_-363580.png"
     xlink:href="carmen_lcad/data/road_mapper_remission_350px/voltadaufes/i7757400_-363580.png"
     y="-350"
     x="-350"
     id="image1664"
     preserveAspectRatio="none"
     height="350"
     width="350" />
  <image
     sodipodi:absref="carmen_lcad/data/road_mapper_remission_350px/voltadaufes/i7757330_-363580.png"
     xlink:href="carmen_lcad/data/road_mapper_remission_350px/voltadaufes/i7757330_-363580.png"
     y="-350"
     x="-700"
     id="image1507"
     preserveAspectRatio="none"
     height="350"
     width="350" />
  <path
     style="display:none;opacity:0.28999999;fill:none;stroke:#00ff00;stroke-width:25;stroke-linecap:butt;stroke-linejoin:miter;stroke-miterlimit:4;stroke-dasharray:none;stroke-opacity:1"
     d="m -3329.1971,20522.974 -35.7089,-9.988"
     id="path2589"
     inkscape:connector-curvature="0" />
  <path
     style="opacity:0.48900003;fill:none;stroke:#ff0000;stroke-width:18;stroke-linecap:butt;stroke-linejoin:miter;stroke-miterlimit:4;stroke-dasharray:none;stroke-opacity:1"
     d="m -249.3585,-121.5906 c 44.2998,54.542301 84.0144,109.854731 125.2406,163.569531 43.480202,56.65152 88.047902,111.098609 131.3458021,169.256009"
     id="path1850"
     inkscape:connector-curvature="0"
     sodipodi:nodetypes="csc" />
  <path
     style="opacity:0.55100002;fill:none;stroke:#00ff7f;stroke-width:18;stroke-linecap:butt;stroke-linejoin:miter;stroke-miterlimit:4;stroke-dasharray:none;stroke-opacity:1"
     d="m 6.8928021,210.99564 c 14.1176999,20.7708 20.5743999,29.0553 32.0348999,42.6488 10.2629,12.173 16.0059,16.5466 32.7928,34.7307"
     id="path1852"
     inkscape:connector-curvature="0"
     sodipodi:nodetypes="cac" />
  <path
     style="opacity:0.56600001;fill:none;stroke:#ff007f;stroke-width:18;stroke-linecap:butt;stroke-linejoin:miter;stroke-miterlimit:4;stroke-dasharray:none;stroke-opacity:1"
     d="M 84.469402,276.75174 C 67.828756,257.90865 60.437519,251.85337 49.413471,238.53954 39.468214,226.52856 34.147503,218.64151 21.444202,201.03934"
     id="path1854"
     inkscape:connector-curvature="0"
     sodipodi:nodetypes="cac" />
  <path
     style="opacity:0.53299997;fill:none;stroke:#ff0000;stroke-width:18;stroke-linecap:butt;stroke-linejoin:miter;stroke-miterlimit:4;stroke-dasharray:none;stroke-opacity:1"
     d="m 21.444202,201.03934 c -52.4615,-70.0857 -85.6541,-109.986679 -127.899302,-165.426649 -42.7468,-56.09812 -75.738,-101.40175 -128.9825,-168.331541"
     id="path1856"
     inkscape:connector-curvature="0"
     sodipodi:nodetypes="csc" />
  <path
     style="opacity:0.61400003;fill:none;stroke:#ff7f00;stroke-width:18;stroke-linecap:butt;stroke-linejoin:miter;stroke-miterlimit:4;stroke-dasharray:none;stroke-opacity:1"
     d="m 6.8928021,210.99564 c 5.7374399,8.67073 8.4268999,17.25599 9.5732899,26.61377 0.42124,3.43851 0.0545,7.05678 -1.05306,10.33917 -2.34476,6.94876 -6.6313399,13.26855 -11.4879599,18.76367 -6.10566,6.90837 -9.12618,7.75257 -21.6356701,17.23195"
     id="path2090"
     inkscape:connector-curvature="0"
     sodipodi:nodetypes="caaac" />
  <path
     style="opacity:0.58499995;fill:none;stroke:#ff7f00;stroke-width:18;stroke-linecap:butt;stroke-linejoin:miter;stroke-miterlimit:4;stroke-dasharray:none;stroke-opacity:1"
     d="m -6.7012979,296.6767 c 11.29024,-10.01452 12.68815,-12.00424 20.2954099,-16.08316 5.91427,-3.17116 12.46638,-5.58271 19.1466,-6.22264 6.97781,-0.66844 14.26815,0.22793 20.8698,2.58479 6.72109,2.3995 9.68001,2.26255 18.10999,11.41945"
     id="path2092"
     inkscape:connector-curvature="0"
     sodipodi:nodetypes="caaac" />
  <image
     sodipodi:absref="carmen_lcad/data/road_mapper_remission_350px/voltadaufes/i7757470_-363720.png"
     xlink:href="carmen_lcad/data/road_mapper_remission_350px/voltadaufes/i7757470_-363720.png"
     style="fill:#deaa87"
     width="350"
     height="350"
     preserveAspectRatio="none"
     id="image2437"
     x="0"
     y="350" />
  <image
     sodipodi:absref="carmen_lcad/data/road_mapper_remission_350px/voltadaufes/i7757400_-363720.png"
     xlink:href="carmen_lcad/data/road_mapper_remission_350px/voltadaufes/i7757400_-363720.png"
     width="350"
     height="350"
     preserveAspectRatio="none"
     id="image2502"
     x="-350"
     y="350" />
  <image
     sodipodi:absref="carmen_lcad/data/road_mapper_remission_350px/voltadaufes/i7757540_-363720.png"
     xlink:href="carmen_lcad/data/road_mapper_remission_350px/voltadaufes/i7757540_-363720.png"
     width="350"
     height="350"
     preserveAspectRatio="none"
     id="image2567"
     x="350"
     y="350" />
  <image
     sodipodi:absref="carmen_lcad/data/road_mapper_remission_350px/voltadaufes/i7757540_-363650.png"
     xlink:href="carmen_lcad/data/road_mapper_remission_350px/voltadaufes/i7757540_-363650.png"
     width="350"
     height="350"
     preserveAspectRatio="none"
     id="image2632"
     x="350"
     y="0" />
  <path
     style="opacity:0.5;fill:none;stroke:#ff0000;stroke-width:18;stroke-linecap:butt;stroke-linejoin:miter;stroke-miterlimit:4;stroke-dasharray:none;stroke-opacity:1"
     d="m 71.720502,288.37514 c 12.146768,12.33572 23.251909,21.20294 35.648648,30.86645 10.22283,7.96891 20.8815,15.40312 31.85841,22.29638 8.67906,5.45027 17.70375,10.34992 26.82023,15.03194 8.43328,4.33114 16.97794,8.48277 25.75588,12.06421 12.0543,4.91821 24.36474,9.26147 36.86375,12.90424 10.21949,2.97842 20.65269,5.20231 31.08973,7.29447 12.53423,2.51255 25.16699,4.54507 37.82855,6.3071 13.26323,1.84577 26.56696,3.51543 39.92438,4.46379 18.12201,1.28664 36.31014,1.71847 54.47766,1.6575 22.05649,-0.074 44.13029,-0.79472 66.12423,-2.45621 19.79707,-1.49553 39.55581,-3.72153 59.17606,-6.75575 15.63661,-2.41815 31.11517,-5.78861 46.58439,-9.11339 16.73323,-3.59646 23.89023,-5.71346 49.99133,-11.71696"
     id="path2635"
     inkscape:connector-curvature="0"
     sodipodi:nodetypes="caaaaaaaaaaaac" />
  <path
     style="opacity:0.51099997;fill:none;stroke:#ff0000;stroke-width:18;stroke-linecap:butt;stroke-linejoin:miter;stroke-miterlimit:4;stroke-dasharray:none;stroke-opacity:1"
     d="m 407.37541,383.17943 c -21.30205,0.11037 -35.12668,0.4487 -52.6531,-0.49509 -20.0119,-1.07764 -39.98867,-3.09464 -59.83307,-5.89415 -15.61769,-2.20323 -31.19956,-4.88087 -46.53463,-8.56902 -13.0717,-3.14381 -26.05875,-6.81755 -38.64982,-11.53113 -14.01496,-5.24662 -27.72044,-11.43337 -40.87327,-18.57125 C 152.9841,329.5186 137.75581,319.70683 123.23168,309.02255 109.5504,298.95828 102.92525,294.68274 84.277936,276.17734"
     id="path2637"
     inkscape:connector-curvature="0"
     sodipodi:nodetypes="caaaaaac" />
</svg>
