<?xml version="1.0" encoding="UTF-8" standalone="no"?>
<!-- Created with Inkscape (http://www.inkscape.org/) -->

<svg
   xmlns:dc="http://purl.org/dc/elements/1.1/"
   xmlns:cc="http://creativecommons.org/ns#"
   xmlns:rdf="http://www.w3.org/1999/02/22-rdf-syntax-ns#"
   xmlns:svg="http://www.w3.org/2000/svg"
   xmlns="http://www.w3.org/2000/svg"
   xmlns:xlink="http://www.w3.org/1999/xlink"
   xmlns:sodipodi="http://sodipodi.sourceforge.net/DTD/sodipodi-0.dtd"
   xmlns:inkscape="http://www.inkscape.org/namespaces/inkscape"
   version="1.1"
   id="svg5282"
   width="350"
   height="350"
   viewBox="0 0 350 350"
   sodipodi:docname="i7757890_-363720.svg"
   inkscape:version="0.92.2 (unknown)">
  <metadata
     id="metadata5288">
    <rdf:RDF>
      <cc:Work
         rdf:about="">
        <dc:format>image/svg+xml</dc:format>
        <dc:type
           rdf:resource="http://purl.org/dc/dcmitype/StillImage" />
        <dc:title></dc:title>
      </cc:Work>
    </rdf:RDF>
  </metadata>
  <defs
     id="defs5286" />
  <sodipodi:namedview
     pagecolor="#ffffff"
     bordercolor="#666666"
     borderopacity="1"
     objecttolerance="10"
     gridtolerance="10"
     guidetolerance="10"
     inkscape:pageopacity="0"
     inkscape:pageshadow="2"
     inkscape:window-width="1855"
     inkscape:window-height="1056"
     id="namedview5284"
     showgrid="false"
     inkscape:zoom="0.75211951"
     inkscape:cx="-138.29763"
     inkscape:cy="321.80653"
     inkscape:window-x="65"
     inkscape:window-y="24"
     inkscape:window-maximized="1"
     inkscape:current-layer="svg5282" />
  <image
     width="350"
     height="350"
     preserveAspectRatio="none"
     xlink:href="carmen_lcad/data/road_mapper_remission_350px/voltadaufes/i7757890_-363720.png"
     id="image5290"
     x="0"
     y="0"
     sodipodi:absref="carmen_lcad/data/road_mapper_remission_350px/voltadaufes/i7757890_-363720.png" />
  <path
     style="fill:none;stroke:#7fff00;stroke-width:16;stroke-linecap:butt;stroke-linejoin:miter;stroke-miterlimit:4;stroke-dasharray:none;stroke-opacity:1"
     d="m 302.80248,-47.940023 c 0,0 21.68633,18.232393 30.45255,29.241502 7.04014,8.8414113 12.49293,18.91836854 17.41014,29.094577 3.65951,7.57338 6.59828,15.520611 8.91286,23.60707 2.57753,9.005136 5.48751,27.559256 5.48751,27.559256"
     id="path5322"
     inkscape:connector-curvature="0"
     sodipodi:nodetypes="caaac" />
  <path
     style="fill:none;stroke:#7fff00;stroke-width:23;stroke-linecap:butt;stroke-linejoin:miter;stroke-miterlimit:4;stroke-dasharray:none;stroke-opacity:1"
     d="m 370.11525,99.249742 c 0,0 -2.07888,18.480008 -4.64479,27.371408 -2.09097,7.24563 -5.46618,14.0704 -8.68095,20.89217 -2.73484,5.80338 -5.6554,11.53839 -9.00626,17.00925 -3.84627,6.27971 -7.92924,12.46624 -12.69462,18.08049 -6.47677,7.6305 -13.90774,14.43076 -21.44388,21.01708 -10.56051,9.22952 -22.10812,17.26477 -33.21012,25.83529 -11.03365,8.51775 -22.19031,16.87581 -33.19578,25.42994 -12.03234,9.35228 -23.86333,18.96177 -35.89913,28.3096 -12.02153,9.33675 -24.13152,18.55956 -36.27063,27.7429 -11.99116,9.07142 -24.15346,17.9157 -36.1174,27.02299 -15.62022,11.89055 -46.562921,36.05944 -46.562921,36.05944"
     id="path5324"
     inkscape:connector-curvature="0"
     sodipodi:nodetypes="caaaaaaaaaac" />
  <path
     style="fill:none;stroke:#7fff00;stroke-width:22;stroke-linecap:butt;stroke-linejoin:miter;stroke-miterlimit:4;stroke-dasharray:none;stroke-opacity:1"
     d="m 108.69743,394.80155 c 0,0 35.63684,-28.20928 53.65659,-42.05449 17.37765,-13.35186 35.05611,-26.3079 52.51641,-39.55149 14.23245,-10.79526 28.47593,-21.57731 42.58639,-32.53154 12.75657,-9.90318 25.41483,-19.93299 38.03683,-30.00712 12.75678,-10.18169 26.04905,-19.74973 38.09646,-30.76164 8.77244,-8.01843 17.46804,-16.26378 24.79564,-25.62098 4.39226,-5.60883 7.84901,-11.90486 11.34648,-18.11119 3.80528,-6.75256 7.24556,-13.7143 10.46192,-20.76641 3.25228,-7.13088 8.92026,-21.75477 8.92026,-21.75477"
     id="path5326"
     inkscape:connector-curvature="0"
     sodipodi:nodetypes="caaaaaaaac" />
</svg>
