<?xml version="1.0" encoding="UTF-8" standalone="no"?>
<!-- Created with Inkscape (http://www.inkscape.org/) -->

<svg
   xmlns:dc="http://purl.org/dc/elements/1.1/"
   xmlns:cc="http://creativecommons.org/ns#"
   xmlns:rdf="http://www.w3.org/1999/02/22-rdf-syntax-ns#"
   xmlns:svg="http://www.w3.org/2000/svg"
   xmlns="http://www.w3.org/2000/svg"
   xmlns:xlink="http://www.w3.org/1999/xlink"
   xmlns:sodipodi="http://sodipodi.sourceforge.net/DTD/sodipodi-0.dtd"
   xmlns:inkscape="http://www.inkscape.org/namespaces/inkscape"
   version="1.1"
   id="svg10"
   width="350"
   height="350"
   viewBox="0 0 350 350"
   sodipodi:docname="i7757190_-364140.svg"
   inkscape:version="0.92.2 (unknown)">
  <metadata
     id="metadata16">
    <rdf:RDF>
      <cc:Work
         rdf:about="">
        <dc:format>image/svg+xml</dc:format>
        <dc:type
           rdf:resource="http://purl.org/dc/dcmitype/StillImage" />
        <dc:title />
      </cc:Work>
    </rdf:RDF>
  </metadata>
  <defs
     id="defs14" />
  <sodipodi:namedview
     pagecolor="#ffffff"
     bordercolor="#666666"
     borderopacity="1"
     objecttolerance="10"
     gridtolerance="10"
     guidetolerance="10"
     inkscape:pageopacity="0"
     inkscape:pageshadow="2"
     inkscape:window-width="1920"
     inkscape:window-height="1004"
     id="namedview12"
     showgrid="false"
     inkscape:zoom="3.452222"
     inkscape:cx="98.125266"
     inkscape:cy="215.54483"
     inkscape:window-x="0"
     inkscape:window-y="24"
     inkscape:window-maximized="1"
     inkscape:current-layer="svg10"
     inkscape:measure-start="141.069,257.805"
     inkscape:measure-end="147.152,285.323" />
  <image
     sodipodi:absref="carmen_lcad/data/road_mapper_remission_350px/voltadaufes/i7757190_-364140.png"
     xlink:href="carmen_lcad/data/road_mapper_remission_350px/voltadaufes/i7757190_-364140.png"
     y="0"
     x="0"
     id="image18"
     preserveAspectRatio="none"
     height="350"
     width="350" />
  <path
     style="fill:none;stroke:#7f00ff;stroke-width:22;stroke-linecap:butt;stroke-linejoin:miter;stroke-miterlimit:4;stroke-dasharray:none;stroke-opacity:1"
     d="m 261.02607,122.5499 59.57027,8.12322 66.88115,9.47709"
     id="path4563"
     inkscape:connector-curvature="0"
     sodipodi:nodetypes="ccc" />
  <path
     style="fill:none;stroke:#7f00ff;stroke-width:22;stroke-linecap:butt;stroke-linejoin:miter;stroke-miterlimit:4;stroke-dasharray:none;stroke-opacity:1"
     d="m 390.67058,118.41284 c 0,0 -44.2512,-6.05198 -66.37185,-9.11388 -20.0108,-2.76985 -60.02337,-8.37451 -60.02337,-8.37451"
     id="path4565"
     inkscape:connector-curvature="0"
     sodipodi:nodetypes="cac" />
  <path
     style="opacity:0.69100001;fill:none;stroke:#ff0000;stroke-width:22;stroke-linecap:butt;stroke-linejoin:miter;stroke-miterlimit:4;stroke-dasharray:none;stroke-opacity:1"
     d="m 206.58335,114.92095 54.44272,7.62895"
     id="path4598"
     inkscape:connector-curvature="0"
     sodipodi:nodetypes="cc" />
  <path
     style="fill:none;stroke:#0000ff;stroke-width:18;stroke-linecap:butt;stroke-linejoin:miter;stroke-miterlimit:4;stroke-dasharray:none;stroke-opacity:1"
     d="M 370.33333,259.66667 C 311.16671,251.32663 251.30344,244.00973 191.76987,236.32465 121.19445,227.2142 50.746065,217.9695 -20,209.33333"
     id="path4600"
     inkscape:connector-curvature="0"
     sodipodi:nodetypes="cac" />
  <path
     style="fill:none;stroke:#ff007f;stroke-width:16;stroke-linecap:butt;stroke-linejoin:miter;stroke-miterlimit:4;stroke-dasharray:none;stroke-opacity:1"
     d="M 372.94092,242.99234 C 315.89454,234.75521 257.304,227.64695 199.46037,220.1673 127.04189,210.803 55.387002,201.73582 -17.857035,192.55789"
     id="path4602"
     inkscape:connector-curvature="0"
     sodipodi:nodetypes="cac" />
  <path
     style="fill:none;stroke:#7f00ff;stroke-width:16;stroke-linecap:butt;stroke-linejoin:miter;stroke-miterlimit:4;stroke-dasharray:none;stroke-opacity:1"
     d="m 368.68781,276.05761 c 0,0 -123.93561,-16.10903 -185.90342,-24.16354 -68.30189,-8.87782 -204.905659,-26.63344 -204.905659,-26.63344"
     id="path4604"
     inkscape:connector-curvature="0"
     sodipodi:nodetypes="csc" />
  <path
     style="opacity:0.28300003;fill:none;stroke:#7fff00;stroke-width:16;stroke-linecap:butt;stroke-linejoin:miter;stroke-miterlimit:4;stroke-dasharray:none;stroke-opacity:1"
     d="m -84.82682,90.749271 c 0,0 34.13283,0.689007 51.20059,0.955235 14.65543,0.2286 29.31439,0.234993 43.9682,0.55137 9.68778,0.20916 19.37212,0.558701 29.05649,0.890391 7.50463,0.257033 15.01514,0.407101 22.51097,0.852208 13.8481,0.822307 27.65734,2.204348 41.48176,3.358305 10.80455,0.901882 21.65493,1.390475 32.4068,2.78657 11.79958,1.53214 22.19726,4.4684 35.1663,6.12608 12.88772,1.64729 35.98954,5.61009 35.98954,5.61009"
     id="path1148"
     inkscape:connector-curvature="0"
     sodipodi:nodetypes="caaaaaasc" />
  <path
     style="opacity:1;fill:none;stroke:#ff7f00;stroke-width:16;stroke-linecap:butt;stroke-linejoin:miter;stroke-miterlimit:4;stroke-dasharray:none;stroke-opacity:1"
     d="m -85.20891,106.60617 c 0,0 24.38803,0.69853 36.5855,0.85971 10.85693,0.14347 21.71684,-0.0674 32.5735,0.0955 15.28764,0.2294 30.56859,0.78987 45.85127,1.2418 10.42878,0.3084 20.85321,0.7698 31.28394,1.003 12.57512,0.28115 25.1577,0.15302 37.73178,0.47762 10.62355,0.27425 21.24327,0.71061 31.85708,1.24181 10.16618,0.5088 20.33384,1.04508 30.47981,1.86317 8.59365,0.69293 17.16394,1.65409 25.73576,2.57867 6.76754,0.72996 20.28543,2.34378 20.28543,2.34378"
     id="path1150"
     inkscape:connector-curvature="0"
     sodipodi:nodetypes="caaaaaaaac" />
  <path
     style="opacity:0.456;fill:none;fill-rule:evenodd;stroke:#7f00ff;stroke-width:23.79999924;stroke-linecap:butt;stroke-linejoin:miter;stroke-miterlimit:4;stroke-dasharray:none;stroke-opacity:1"
     d="m 264.27536,100.92445 -52.07504,-8.186617 -31.54329,-5.325491 -36.04948,-6.55445"
     id="path6241"
     inkscape:connector-curvature="0"
     sodipodi:nodetypes="cccc" />
  <path
     style="fill:none;fill-rule:evenodd;stroke:#ff0000;stroke-width:30.9;stroke-linecap:butt;stroke-linejoin:miter;stroke-opacity:1;stroke-miterlimit:4;stroke-dasharray:none;opacity:0.485"
     d="M 148.29443,79.26898 97.638016,68.448314 44.319282,55.407128 -17.38011,39.185691"
     id="path6243"
     inkscape:connector-curvature="0"
     sodipodi:nodetypes="cccc" />
</svg>
