<?xml version="1.0" encoding="UTF-8" standalone="no"?>
<!-- Created with Inkscape (http://www.inkscape.org/) -->

<svg
   xmlns:dc="http://purl.org/dc/elements/1.1/"
   xmlns:cc="http://creativecommons.org/ns#"
   xmlns:rdf="http://www.w3.org/1999/02/22-rdf-syntax-ns#"
   xmlns:svg="http://www.w3.org/2000/svg"
   xmlns="http://www.w3.org/2000/svg"
   xmlns:xlink="http://www.w3.org/1999/xlink"
   xmlns:sodipodi="http://sodipodi.sourceforge.net/DTD/sodipodi-0.dtd"
   xmlns:inkscape="http://www.inkscape.org/namespaces/inkscape"
   version="1.1"
   id="svg4963"
   width="350"
   height="350"
   viewBox="0 0 350 350"
   sodipodi:docname="i7757820_-363580.svg"
   inkscape:version="0.92.2 (unknown)">
  <metadata
     id="metadata4969">
    <rdf:RDF>
      <cc:Work
         rdf:about="">
        <dc:format>image/svg+xml</dc:format>
        <dc:type
           rdf:resource="http://purl.org/dc/dcmitype/StillImage" />
        <dc:title></dc:title>
      </cc:Work>
    </rdf:RDF>
  </metadata>
  <defs
     id="defs4967" />
  <sodipodi:namedview
     pagecolor="#ffffff"
     bordercolor="#666666"
     borderopacity="1"
     objecttolerance="10"
     gridtolerance="10"
     guidetolerance="10"
     inkscape:pageopacity="0"
     inkscape:pageshadow="2"
     inkscape:window-width="1855"
     inkscape:window-height="1056"
     id="namedview4965"
     showgrid="false"
     inkscape:zoom="1.15"
     inkscape:cx="22.400597"
     inkscape:cy="96.699359"
     inkscape:window-x="65"
     inkscape:window-y="24"
     inkscape:window-maximized="1"
     inkscape:current-layer="svg4963" />
  <image
     width="350"
     height="350"
     preserveAspectRatio="none"
     xlink:href="carmen_lcad/data/road_mapper_remission_350px/voltadaufes/i7757820_-363580.png"
     id="image4971"
     x="0"
     y="0"
     sodipodi:absref="carmen_lcad/data/road_mapper_remission_350px/voltadaufes/i7757820_-363580.png" />
  <path
     style="fill:none;stroke:#7fff00;stroke-width:15;stroke-linecap:butt;stroke-linejoin:miter;stroke-miterlimit:4;stroke-dasharray:none;stroke-opacity:1"
     d="m -44.83617,68.974101 c 0,0 22.264799,6.278097 32.887992,10.775862 8.4187523,3.564424 16.4294231,8.072593 24.271595,12.77162 7.987279,4.785974 15.694009,10.058577 23.129323,15.663777 9.181439,6.92154 17.755022,14.61792 26.456811,22.13359 10.248251,8.85135 20.176265,18.06712 30.323244,27.03438 7.778975,6.87457 15.646395,13.6486 23.426695,20.52166 15.37865,13.5854 30.70656,27.22864 45.96557,40.94828 15.15322,13.62454 30.0828,27.49695 45.27149,41.08194 16.89594,15.11197 34.02076,29.96611 51.0129,44.96983 11.59453,10.23774 23.12727,20.54558 34.75867,30.7414 10.5483,9.24641 21.32052,18.238 31.76718,27.59909 8.35435,7.4862 24.7155,22.84054 24.7155,22.84054"
     id="path5003"
     inkscape:connector-curvature="0"
     sodipodi:nodetypes="caaaaaaaaaaac" />
  <path
     style="fill:none;stroke:#7fff00;stroke-width:15;stroke-linecap:butt;stroke-linejoin:miter;stroke-miterlimit:4;stroke-dasharray:none;stroke-opacity:1"
     d="m 359.47849,375.43103 c 0,0 -19.73693,-18.12132 -29.73711,-27.03567 -13.10599,-11.68295 -26.47137,-23.07178 -39.65944,-34.662 -17.67098,-15.53 -35.29943,-31.10852 -52.88494,-46.73524 C 219.39576,251.17971 201.6779,235.26773 183.92369,219.39655 164.50475,202.03719 145.11522,184.6449 125.67855,167.30539 108.90534,152.34195 92.141201,137.36809 75.303004,122.47781 68.385594,116.36064 61.714862,109.9465 54.493854,104.19085 47.390061,98.528638 39.995966,93.216572 32.391602,88.246842 22.277856,81.637139 12.014016,75.162381 1.169341,69.836121 c -7.4406855,-3.654422 -15.28583,-6.442272 -23.092352,-9.230965 -6.045155,-2.159487 -18.363777,-5.799761 -18.363777,-5.799761"
     id="path5005"
     inkscape:connector-curvature="0"
     sodipodi:nodetypes="caaaaaaaaaac" />
</svg>
