<?xml version="1.0" encoding="UTF-8" standalone="no"?>
<!-- Created with Inkscape (http://www.inkscape.org/) -->

<svg
   xmlns:dc="http://purl.org/dc/elements/1.1/"
   xmlns:cc="http://creativecommons.org/ns#"
   xmlns:rdf="http://www.w3.org/1999/02/22-rdf-syntax-ns#"
   xmlns:svg="http://www.w3.org/2000/svg"
   xmlns="http://www.w3.org/2000/svg"
   xmlns:xlink="http://www.w3.org/1999/xlink"
   xmlns:sodipodi="http://sodipodi.sourceforge.net/DTD/sodipodi-0.dtd"
   xmlns:inkscape="http://www.inkscape.org/namespaces/inkscape"
   version="1.1"
   id="svg2701"
   width="350"
   height="350"
   viewBox="0 0 350 350"
   sodipodi:docname="i7757470_-363720.svg"
   inkscape:version="0.92.2 (unknown)">
  <metadata
     id="metadata2707">
    <rdf:RDF>
      <cc:Work
         rdf:about="">
        <dc:format>image/svg+xml</dc:format>
        <dc:type
           rdf:resource="http://purl.org/dc/dcmitype/StillImage" />
        <dc:title></dc:title>
      </cc:Work>
    </rdf:RDF>
  </metadata>
  <defs
     id="defs2705" />
  <sodipodi:namedview
     pagecolor="#ffffff"
     bordercolor="#666666"
     borderopacity="1"
     objecttolerance="10"
     gridtolerance="10"
     guidetolerance="10"
     inkscape:pageopacity="0"
     inkscape:pageshadow="2"
     inkscape:window-width="1855"
     inkscape:window-height="1056"
     id="namedview2703"
     showgrid="false"
     inkscape:zoom="0.46163971"
     inkscape:cx="89.646799"
     inkscape:cy="257.56432"
     inkscape:window-x="65"
     inkscape:window-y="24"
     inkscape:window-maximized="1"
     inkscape:current-layer="svg2701" />
  <image
     width="350"
     height="350"
     preserveAspectRatio="none"
     xlink:href="carmen_lcad/data/road_mapper_remission_350px/voltadaufes/i7757470_-363720.png"
     id="image2709"
     x="0"
     y="0"
     sodipodi:absref="carmen_lcad/data/road_mapper_remission_350px/voltadaufes/i7757470_-363720.png" />
  <image
     width="350"
     height="350"
     preserveAspectRatio="none"
     xlink:href="carmen_lcad/data/road_mapper_remission_350px/voltadaufes/i7757470_-363650.png"
     id="image2112"
     x="0"
     y="-350"
     sodipodi:absref="carmen_lcad/data/road_mapper_remission_350px/voltadaufes/i7757470_-363650.png" />
  <image
     width="350"
     height="350"
     preserveAspectRatio="none"
     xlink:href="carmen_lcad/data/road_mapper_remission_350px/voltadaufes/i7757400_-363650.png"
     id="image1882"
     x="-350.00003"
     y="-350"
     sodipodi:absref="carmen_lcad/data/road_mapper_remission_350px/voltadaufes/i7757400_-363650.png" />
  <image
     width="350"
     height="350"
     preserveAspectRatio="none"
     xlink:href="carmen_lcad/data/road_mapper_remission_350px/voltadaufes/i7757400_-363580.png"
     id="image1664"
     x="-350.00003"
     y="-700"
     sodipodi:absref="carmen_lcad/data/road_mapper_remission_350px/voltadaufes/i7757400_-363580.png" />
  <path
     style="display:none;opacity:0.28999999;fill:none;stroke:#00ff00;stroke-width:25;stroke-linecap:butt;stroke-linejoin:miter;stroke-miterlimit:4;stroke-dasharray:none;stroke-opacity:1"
     d="m -3635.7132,21339.362 -35.7089,-9.988"
     id="path2589"
     inkscape:connector-curvature="0" />
  <path
     style="opacity:0.53699999;fill:none;stroke:#ff0000;stroke-width:18;stroke-linecap:butt;stroke-linejoin:miter;stroke-miterlimit:4;stroke-dasharray:none;stroke-opacity:1"
     d="m -616.734,-771.36078 c 13.1872,4.21713 21.1271,5.75017 31.4753,9.30026 16.4863,5.65586 32.6952,12.13981 48.6804,19.08672 15.2131,6.61137 30.3135,13.55961 44.8895,21.47726 10.2247,5.55399 20.0147,11.88505 29.7784,18.21437 13.7022,8.88243 27.2899,17.97222 40.3946,27.71466 7.1456,5.31229 14.199,10.78169 20.8167,16.73872 9.6379,8.67572 18.8613,17.85435 27.4207,27.5957 10.1738,11.57865 18.877,24.37093 28.3355,36.54088 8.146,10.48111 16.3023,20.95413 24.4722,31.41657 4.7654,6.10265 6.8539,9.11706 14.31819,18.29086"
     id="path1485"
     inkscape:connector-curvature="0"
     sodipodi:nodetypes="caaaaaaaaac" />
  <path
     style="opacity:0.53299997;fill:none;stroke:#ff0000;stroke-width:18;stroke-linecap:butt;stroke-linejoin:miter;stroke-miterlimit:4;stroke-dasharray:none;stroke-opacity:1"
     d="m -292.36231,-556.54195 c -9.6059,-11.86335 -12.6651,-15.61258 -18.8953,-23.49562 -8.66349,-10.96197 -16.85439,-22.29033 -25.42949,-33.32162 -7.876,-10.13202 -15.3668,-20.59742 -23.8978,-30.18448 -7.1456,-8.03016 -14.7724,-15.6543 -22.7858,-22.81869 -10.4005,-9.29859 -21.5545,-17.73433 -32.7297,-26.08604 -10.2431,-7.65518 -20.7693,-14.93478 -31.429,-21.99839 -8.0268,-5.31895 -16.1449,-10.51514 -24.479,-15.33839 -10.7987,-6.24965 -21.8806,-12.00889 -33.0344,-17.6003 -9.0958,-4.55975 -18.3117,-8.88594 -27.6189,-12.99714 -9.2914,-4.10424 -12.6818,-6.33666 -28.1605,-11.64328"
     id="path1487"
     inkscape:connector-curvature="0"
     sodipodi:nodetypes="csaaaaaaaac" />
  <path
     style="opacity:0.603;fill:none;stroke:#00ff7f;stroke-width:18;stroke-linecap:butt;stroke-linejoin:miter;stroke-miterlimit:4;stroke-dasharray:none;stroke-opacity:1"
     d="m -306.15251,-544.98478 c 19.3404,24.26019 32.443,42.44887 56.794,73.39415"
     id="path1848"
     inkscape:connector-curvature="0"
     sodipodi:nodetypes="cc" />
  <path
     style="opacity:0.48900003;fill:none;stroke:#ff0000;stroke-width:18;stroke-linecap:butt;stroke-linejoin:miter;stroke-miterlimit:4;stroke-dasharray:none;stroke-opacity:1"
     d="m -249.35851,-471.59063 c 44.2998,54.5423 84.0144,109.85473 125.2406,163.56953 43.480203,56.65152 88.047903,111.09861 131.3458028,169.25602"
     id="path1850"
     inkscape:connector-curvature="0"
     sodipodi:nodetypes="csc" />
  <path
     style="opacity:0.55100002;fill:none;stroke:#00ff7f;stroke-width:18;stroke-linecap:butt;stroke-linejoin:miter;stroke-miterlimit:4;stroke-dasharray:none;stroke-opacity:1"
     d="m 6.8927928,-139.00438 c 14.1177002,20.7708 20.5744002,29.0553 32.0349002,42.648802 10.2629,12.173 16.0059,16.5466 32.7928,34.7307"
     id="path1852"
     inkscape:connector-curvature="0"
     sodipodi:nodetypes="cac" />
  <path
     style="opacity:0.56600001;fill:none;stroke:#ff007f;stroke-width:18;stroke-linecap:butt;stroke-linejoin:miter;stroke-miterlimit:4;stroke-dasharray:none;stroke-opacity:1"
     d="m 84.469393,-73.248278 c -16.64064,-18.8431 -24.03188,-24.8984 -35.05593,-38.212202 -9.94526,-12.011 -15.26597,-19.898 -27.96927,-37.5002"
     id="path1854"
     inkscape:connector-curvature="0"
     sodipodi:nodetypes="cac" />
  <path
     style="opacity:0.53299997;fill:none;stroke:#ff0000;stroke-width:18;stroke-linecap:butt;stroke-linejoin:miter;stroke-miterlimit:4;stroke-dasharray:none;stroke-opacity:1"
     d="m 21.444193,-148.96068 c -52.4615,-70.08571 -85.6541,-109.98669 -127.899303,-165.42666 -42.7468,-56.09812 -75.738,-101.40175 -128.9825,-168.33154"
     id="path1856"
     inkscape:connector-curvature="0"
     sodipodi:nodetypes="csc" />
  <path
     style="opacity:0.55500034;fill:none;stroke:#ff007f;stroke-width:18;stroke-linecap:butt;stroke-linejoin:miter;stroke-miterlimit:4;stroke-dasharray:none;stroke-opacity:1"
     d="m -235.43761,-482.71888 c -27.4783,-35.82803 -37.7424,-49.31492 -56.9247,-73.82307"
     id="path1858"
     inkscape:connector-curvature="0"
     sodipodi:nodetypes="cc" />
  <path
     style="opacity:0.522;fill:none;stroke:#ff7f00;stroke-width:19;stroke-linecap:butt;stroke-linejoin:miter;stroke-miterlimit:4;stroke-dasharray:none;stroke-opacity:1"
     d="m -306.15251,-544.98478 c 4.9072,6.12698 5.8375,9.16042 6.5165,14.37853 0.5963,4.58351 -0.5317,9.40424 -2.3016,13.67409 -1.8462,4.45373 -5.4594,7.95351 -8.394,11.77866 -4.66349,6.0785 -9.38809,12.13849 -14.62439,17.73102 -3.6007,3.8456 -3.1209,3.94546 -11.5053,10.83563"
     id="path1860"
     inkscape:connector-curvature="0"
     sodipodi:nodetypes="caaaac" />
  <path
     style="opacity:0.5;fill:none;stroke:#ff7f00;stroke-width:19;stroke-linecap:butt;stroke-linejoin:miter;stroke-miterlimit:4;stroke-dasharray:none;stroke-opacity:1"
     d="m -324.0057,-462.10045 c 9.8343,-9.21105 12.35789,-11.22093 19.49569,-15.43412 4.4245,-2.61161 9.2643,-4.58562 14.2157,-5.95702 3.6473,-1.01021 7.4544,-1.74845 11.2371,-1.62464 6.0863,0.19922 12.3846,1.14849 17.871,3.79084 4.6005,2.21564 5.3001,1.66616 11.8277,9.73476"
     id="path1862"
     inkscape:connector-curvature="0"
     sodipodi:nodetypes="caaaac" />
  <path
     style="opacity:0.38200001;fill:none;stroke:#00ff00;stroke-width:23.5;stroke-linecap:butt;stroke-linejoin:miter;stroke-miterlimit:4;stroke-dasharray:none;stroke-opacity:1"
     d="m -320.9242,-478.0041 c 14.99219,-11.91394 27.07969,-19.79958 35.15369,-26.03627"
     id="path1864"
     inkscape:connector-curvature="0"
     sodipodi:nodetypes="cc" />
  <path
     style="opacity:0.61400003;fill:none;stroke:#ff7f00;stroke-width:18;stroke-linecap:butt;stroke-linejoin:miter;stroke-miterlimit:4;stroke-dasharray:none;stroke-opacity:1"
     d="m 6.8927928,-139.00438 c 5.7374402,8.6707 8.4269002,17.256 9.5732902,26.6138 0.42124,3.4385 0.0545,7.0567 -1.05306,10.3391 -2.34476,6.948802 -6.6313402,13.268602 -11.4879602,18.763702 -6.10566,6.9084 -9.12618,7.7526 -21.6356698,17.232"
     id="path2090"
     inkscape:connector-curvature="0"
     sodipodi:nodetypes="caaac" />
  <path
     style="opacity:0.58499995;fill:none;stroke:#ff7f00;stroke-width:18;stroke-linecap:butt;stroke-linejoin:miter;stroke-miterlimit:4;stroke-dasharray:none;stroke-opacity:1"
     d="m -6.7013072,-53.323278 c 11.29024,-10.0146 12.68815,-12.0043 20.2954102,-16.0832 5.91427,-3.1712 12.46638,-5.5827 19.1466,-6.2226 6.97781,-0.6685 14.26815,0.2279 20.8698,2.5847 6.72109,2.3995 9.68001,2.2626 18.10999,11.4195"
     id="path2092"
     inkscape:connector-curvature="0"
     sodipodi:nodetypes="caaac" />
  <path
     style="opacity:0.37099998;fill:none;stroke:#00ff00;stroke-width:20;stroke-linecap:butt;stroke-linejoin:miter;stroke-miterlimit:4;stroke-dasharray:none;stroke-opacity:1"
     d="m 11.966633,-78.692578 c 6.05865,-4.9147 13.89016,-9.506 18.76368,-13.6898"
     id="path2094"
     inkscape:connector-curvature="0"
     sodipodi:nodetypes="cc" />
  <image
     sodipodi:absref="carmen_lcad/data/road_mapper_remission_350px/voltadaufes/i7757400_-363720.png"
     y="-6.1035156e-05"
     x="-350.00003"
     id="image2502"
     xlink:href="carmen_lcad/data/road_mapper_remission_350px/voltadaufes/i7757400_-363720.png"
     preserveAspectRatio="none"
     height="350"
     width="350" />
  <image
     sodipodi:absref="carmen_lcad/data/road_mapper_remission_350px/voltadaufes/i7757540_-363720.png"
     y="-6.1035156e-05"
     x="350"
     id="image2567"
     xlink:href="carmen_lcad/data/road_mapper_remission_350px/voltadaufes/i7757540_-363720.png"
     preserveAspectRatio="none"
     height="350"
     width="350" />
  <image
     sodipodi:absref="carmen_lcad/data/road_mapper_remission_350px/voltadaufes/i7757540_-363650.png"
     y="-350"
     x="350"
     id="image2632"
     xlink:href="carmen_lcad/data/road_mapper_remission_350px/voltadaufes/i7757540_-363650.png"
     preserveAspectRatio="none"
     height="350"
     width="350" />
  <path
     style="opacity:0.5;fill:none;stroke:#ff0000;stroke-width:18;stroke-linecap:butt;stroke-linejoin:miter;stroke-miterlimit:4;stroke-dasharray:none;stroke-opacity:1"
     d="m 71.720493,-61.624878 c 12.14677,12.3357 23.25191,21.2029 35.648647,30.8664 10.22283,7.969 20.8815,15.4032 31.85841,22.2963996 8.67906,5.4503 17.70375,10.3499 26.82023,15.032 8.43328,4.3311004 16.97794,8.4827004 25.75588,12.0642004 12.0543,4.9182 24.36474,9.2614 36.86375,12.9042 10.21949,2.9784 20.65269,5.2023 31.08973,7.2945 12.53423,2.5125 25.16699,4.5451 37.82855,6.3071 13.26323,1.8458 26.56696,3.5154 39.92438,4.4638 18.12201,1.2866 36.31014,1.7184 54.47766,1.6575 22.05649,-0.074 44.13029,-0.7947 66.12423,-2.4562 19.79707,-1.4956 39.55581,-3.7216 59.17606,-6.7558 15.63661,-2.4181 31.11517,-5.7886 46.58439,-9.1134 16.73323,-3.5964 23.89023,-5.7134 49.99133,-11.7169"
     id="path2635"
     inkscape:connector-curvature="0"
     sodipodi:nodetypes="caaaaaaaaaaaac" />
  <path
     style="opacity:0.51099997;fill:none;stroke:#ff0000;stroke-width:18;stroke-linecap:butt;stroke-linejoin:miter;stroke-miterlimit:4;stroke-dasharray:none;stroke-opacity:1"
     d="m 407.3754,33.179422 c -21.30205,0.1104 -35.12668,0.4487 -52.6531,-0.4951 -20.0119,-1.0777 -39.98867,-3.0946 -59.83307,-5.8942 -15.61769,-2.2032 -31.19956,-4.8808 -46.53463,-8.569 -13.0717,-3.1438 -26.05875,-6.8175 -38.64982,-11.5311004 -14.01496,-5.2466 -27.72044,-11.4334 -40.87327,-18.5712996 -15.84742,-8.6001 -31.07571,-18.4119 -45.59984,-29.0962 -13.68128,-10.0643 -20.30643,-14.3398 -38.953737,-32.8452"
     id="path2637"
     inkscape:connector-curvature="0"
     sodipodi:nodetypes="caaaaaac" />
</svg>
