<?xml version="1.0" encoding="UTF-8" standalone="no"?>
<!-- Created with Inkscape (http://www.inkscape.org/) -->

<svg
   xmlns:dc="http://purl.org/dc/elements/1.1/"
   xmlns:cc="http://creativecommons.org/ns#"
   xmlns:rdf="http://www.w3.org/1999/02/22-rdf-syntax-ns#"
   xmlns:svg="http://www.w3.org/2000/svg"
   xmlns="http://www.w3.org/2000/svg"
   xmlns:xlink="http://www.w3.org/1999/xlink"
   xmlns:sodipodi="http://sodipodi.sourceforge.net/DTD/sodipodi-0.dtd"
   xmlns:inkscape="http://www.inkscape.org/namespaces/inkscape"
   version="1.1"
   id="svg2104"
   width="350"
   height="350"
   viewBox="0 0 350 350"
   sodipodi:docname="i7757470_-363650.svg"
   inkscape:version="0.92.2 (unknown)">
  <metadata
     id="metadata2110">
    <rdf:RDF>
      <cc:Work
         rdf:about="">
        <dc:format>image/svg+xml</dc:format>
        <dc:type
           rdf:resource="http://purl.org/dc/dcmitype/StillImage" />
        <dc:title></dc:title>
      </cc:Work>
    </rdf:RDF>
  </metadata>
  <defs
     id="defs2108" />
  <sodipodi:namedview
     pagecolor="#ffffff"
     bordercolor="#666666"
     borderopacity="1"
     objecttolerance="10"
     gridtolerance="10"
     guidetolerance="10"
     inkscape:pageopacity="0"
     inkscape:pageshadow="2"
     inkscape:window-width="1855"
     inkscape:window-height="1056"
     id="namedview2106"
     showgrid="false"
     inkscape:zoom="1.8465589"
     inkscape:cx="180.30488"
     inkscape:cy="16.490469"
     inkscape:window-x="65"
     inkscape:window-y="24"
     inkscape:window-maximized="1"
     inkscape:current-layer="svg2104" />
  <image
     width="350"
     height="350"
     preserveAspectRatio="none"
     xlink:href="carmen_lcad/data/road_mapper_remission_350px/voltadaufes/i7757470_-363650.png"
     id="image2112"
     x="0"
     y="0"
     sodipodi:absref="carmen_lcad/data/road_mapper_remission_350px/voltadaufes/i7757470_-363650.png" />
  <image
     width="350"
     height="350"
     preserveAspectRatio="none"
     xlink:href="carmen_lcad/data/road_mapper_remission_350px/voltadaufes/i7757400_-363650.png"
     id="image1882"
     x="-350"
     y="1.5258789e-05"
     sodipodi:absref="carmen_lcad/data/road_mapper_remission_350px/voltadaufes/i7757400_-363650.png" />
  <image
     width="350"
     height="350"
     preserveAspectRatio="none"
     xlink:href="carmen_lcad/data/road_mapper_remission_350px/voltadaufes/i7757400_-363580.png"
     id="image1664"
     x="-350"
     y="-350"
     sodipodi:absref="carmen_lcad/data/road_mapper_remission_350px/voltadaufes/i7757400_-363580.png" />
  <image
     width="350"
     height="350"
     preserveAspectRatio="none"
     xlink:href="carmen_lcad/data/road_mapper_remission_350px/voltadaufes/i7757330_-363580.png"
     id="image1507"
     x="-700"
     y="-350"
     sodipodi:absref="carmen_lcad/data/road_mapper_remission_350px/voltadaufes/i7757330_-363580.png" />
  <path
     style="display:none;opacity:0.28999999;fill:none;stroke:#00ff00;stroke-width:25;stroke-linecap:butt;stroke-linejoin:miter;stroke-miterlimit:4;stroke-dasharray:none;stroke-opacity:1"
     d="m -3329.1971,20522.974 -35.7089,-9.988"
     id="path2589"
     inkscape:connector-curvature="0" />
  <path
     style="opacity:0.53699999;fill:none;stroke:#ff0000;stroke-width:18;stroke-linecap:butt;stroke-linejoin:miter;stroke-miterlimit:4;stroke-dasharray:none;stroke-opacity:1"
     d="m -616.73399,-421.36075 c 13.1872,4.21713 21.1271,5.75017 31.4753,9.30026 16.4863,5.65586 32.6952,12.13981 48.6804,19.08672 15.2131,6.61137 30.3135,13.55961 44.8895,21.47726 10.2247,5.55399 20.0147,11.88505 29.7784,18.21437 13.7022,8.88243 27.2899,17.97222 40.3946,27.71466 7.1456,5.31229 14.199,10.78169 20.8167,16.73872 9.6379,8.67572 18.8613,17.85435 27.4207,27.5957 10.1738,11.57865 18.877,24.37093 28.3355,36.54088 8.146,10.48111 16.3023,20.95413 24.4722,31.41657 4.7654,6.10265 6.8539,9.11706 14.31819,18.29086"
     id="path1485"
     inkscape:connector-curvature="0"
     sodipodi:nodetypes="caaaaaaaaac" />
  <path
     style="opacity:0.53299997;fill:none;stroke:#ff0000;stroke-width:18;stroke-linecap:butt;stroke-linejoin:miter;stroke-miterlimit:4;stroke-dasharray:none;stroke-opacity:1"
     d="m -292.3623,-206.54192 c -9.6059,-11.86335 -12.6651,-15.61258 -18.8953,-23.49562 -8.66349,-10.96197 -16.85439,-22.29033 -25.42949,-33.32162 -7.876,-10.13202 -15.3668,-20.59742 -23.8978,-30.18448 -7.1456,-8.03016 -14.7724,-15.6543 -22.7858,-22.81869 -10.4005,-9.29859 -21.5545,-17.73433 -32.7297,-26.08604 -10.2431,-7.65518 -20.7693,-14.93478 -31.429,-21.99839 -8.0268,-5.31895 -16.1449,-10.51514 -24.479,-15.33839 -10.7987,-6.24965 -21.8806,-12.00889 -33.0344,-17.6003 -9.0958,-4.55975 -18.3117,-8.88594 -27.6189,-12.99714 -9.2914,-4.10424 -12.6818,-6.33666 -28.1605,-11.64328"
     id="path1487"
     inkscape:connector-curvature="0"
     sodipodi:nodetypes="csaaaaaaaac" />
  <path
     style="opacity:0.603;fill:none;stroke:#00ff7f;stroke-width:18;stroke-linecap:butt;stroke-linejoin:miter;stroke-miterlimit:4;stroke-dasharray:none;stroke-opacity:1"
     d="m -306.1525,-194.98475 c 19.3404,24.26019 32.443,42.44887 56.794,73.39415"
     id="path1848"
     inkscape:connector-curvature="0"
     sodipodi:nodetypes="cc" />
  <path
     style="opacity:0.48900003;fill:none;stroke:#ff0000;stroke-width:18;stroke-linecap:butt;stroke-linejoin:miter;stroke-miterlimit:4;stroke-dasharray:none;stroke-opacity:1"
     d="m -249.3585,-121.5906 c 44.2998,54.542301 84.0144,109.854731 125.2406,163.569531 43.480202,56.65152 88.047902,111.098609 131.3458021,169.256009"
     id="path1850"
     inkscape:connector-curvature="0"
     sodipodi:nodetypes="csc" />
  <path
     style="opacity:0.55100002;fill:none;stroke:#00ff7f;stroke-width:18;stroke-linecap:butt;stroke-linejoin:miter;stroke-miterlimit:4;stroke-dasharray:none;stroke-opacity:1"
     d="m 6.8928021,210.99564 c 14.1176999,20.7708 20.5743999,29.0553 32.0348999,42.6488 10.2629,12.173 16.0059,16.5466 32.7928,34.7307"
     id="path1852"
     inkscape:connector-curvature="0"
     sodipodi:nodetypes="cac" />
  <path
     style="opacity:0.56600001;fill:none;stroke:#ff007f;stroke-width:18;stroke-linecap:butt;stroke-linejoin:miter;stroke-miterlimit:4;stroke-dasharray:none;stroke-opacity:1"
     d="M 84.469402,276.75174 C 67.828756,257.90865 60.437519,251.85337 49.413471,238.53954 39.468214,226.52856 34.147503,218.64151 21.444202,201.03934"
     id="path1854"
     inkscape:connector-curvature="0"
     sodipodi:nodetypes="cac" />
  <path
     style="opacity:0.53299997;fill:none;stroke:#ff0000;stroke-width:18;stroke-linecap:butt;stroke-linejoin:miter;stroke-miterlimit:4;stroke-dasharray:none;stroke-opacity:1"
     d="m 21.444202,201.03934 c -52.4615,-70.0857 -85.6541,-109.986679 -127.899302,-165.426649 -42.7468,-56.09812 -75.738,-101.40175 -128.9825,-168.331541"
     id="path1856"
     inkscape:connector-curvature="0"
     sodipodi:nodetypes="csc" />
  <path
     style="opacity:0.55500034;fill:none;stroke:#ff007f;stroke-width:18;stroke-linecap:butt;stroke-linejoin:miter;stroke-miterlimit:4;stroke-dasharray:none;stroke-opacity:1"
     d="m -235.4376,-132.71885 c -27.4783,-35.82803 -37.7424,-49.31492 -56.9247,-73.82307"
     id="path1858"
     inkscape:connector-curvature="0"
     sodipodi:nodetypes="cc" />
  <path
     style="opacity:0.522;fill:none;stroke:#ff7f00;stroke-width:19;stroke-linecap:butt;stroke-linejoin:miter;stroke-miterlimit:4;stroke-dasharray:none;stroke-opacity:1"
     d="m -306.1525,-194.98475 c 4.9072,6.12698 5.8375,9.16042 6.5165,14.37853 0.5963,4.58351 -0.5317,9.40424 -2.3016,13.67409 -1.8462,4.45373 -5.4594,7.95351 -8.394,11.77866 -4.66349,6.0785 -9.38809,12.13849 -14.62439,17.73102 -3.6007,3.8456 -3.1209,3.94546 -11.5053,10.83563"
     id="path1860"
     inkscape:connector-curvature="0"
     sodipodi:nodetypes="caaaac" />
  <path
     style="opacity:0.5;fill:none;stroke:#ff7f00;stroke-width:19;stroke-linecap:butt;stroke-linejoin:miter;stroke-miterlimit:4;stroke-dasharray:none;stroke-opacity:1"
     d="m -324.00569,-112.10042 c 9.8343,-9.21105 12.35789,-11.22093 19.49569,-15.43412 4.4245,-2.61161 9.2643,-4.58562 14.2157,-5.95702 3.6473,-1.01021 7.4544,-1.74845 11.2371,-1.62464 6.0863,0.19922 12.3846,1.14849 17.871,3.79084 4.6005,2.21564 5.3001,1.66616 11.8277,9.73476"
     id="path1862"
     inkscape:connector-curvature="0"
     sodipodi:nodetypes="caaaac" />
  <path
     style="opacity:0.38200001;fill:none;stroke:#00ff00;stroke-width:23.5;stroke-linecap:butt;stroke-linejoin:miter;stroke-miterlimit:4;stroke-dasharray:none;stroke-opacity:1"
     d="m -320.92419,-128.00407 c 14.99219,-11.91394 27.07969,-19.79958 35.15369,-26.03627"
     id="path1864"
     inkscape:connector-curvature="0"
     sodipodi:nodetypes="cc" />
  <path
     style="opacity:0.61400003;fill:none;stroke:#ff7f00;stroke-width:18;stroke-linecap:butt;stroke-linejoin:miter;stroke-miterlimit:4;stroke-dasharray:none;stroke-opacity:1"
     d="m 6.8928021,210.99564 c 5.7374399,8.67073 8.4268999,17.25599 9.5732899,26.61377 0.42124,3.43851 0.0545,7.05678 -1.05306,10.33917 -2.34476,6.94876 -6.6313399,13.26855 -11.4879599,18.76367 -6.10566,6.90837 -9.12618,7.75257 -21.6356701,17.23195"
     id="path2090"
     inkscape:connector-curvature="0"
     sodipodi:nodetypes="caaac" />
  <path
     style="opacity:0.58499995;fill:none;stroke:#ff7f00;stroke-width:18;stroke-linecap:butt;stroke-linejoin:miter;stroke-miterlimit:4;stroke-dasharray:none;stroke-opacity:1"
     d="m -6.7012979,296.6767 c 11.29024,-10.01452 12.68815,-12.00424 20.2954099,-16.08316 5.91427,-3.17116 12.46638,-5.58271 19.1466,-6.22264 6.97781,-0.66844 14.26815,0.22793 20.8698,2.58479 6.72109,2.3995 9.68001,2.26255 18.10999,11.41945"
     id="path2092"
     inkscape:connector-curvature="0"
     sodipodi:nodetypes="caaac" />
  <path
     style="opacity:0.37099998;fill:none;stroke:#00ff00;stroke-width:20;stroke-linecap:butt;stroke-linejoin:miter;stroke-miterlimit:4;stroke-dasharray:none;stroke-opacity:1"
     d="m 11.966642,271.30744 c 6.05865,-4.91466 13.89016,-9.50602 18.76368,-13.68983"
     id="path2094"
     inkscape:connector-curvature="0"
     sodipodi:nodetypes="cc" />
  <image
     sodipodi:absref="carmen_lcad/data/road_mapper_remission_350px/voltadaufes/i7757470_-363720.png"
     y="350"
     x="0"
     id="image2437"
     xlink:href="carmen_lcad/data/road_mapper_remission_350px/voltadaufes/i7757470_-363720.png"
     preserveAspectRatio="none"
     height="350"
     width="350"
     style="fill:#deaa87" />
  <image
     sodipodi:absref="carmen_lcad/data/road_mapper_remission_350px/voltadaufes/i7757400_-363720.png"
     y="350"
     x="-350"
     id="image2502"
     xlink:href="carmen_lcad/data/road_mapper_remission_350px/voltadaufes/i7757400_-363720.png"
     preserveAspectRatio="none"
     height="350"
     width="350" />
  <image
     sodipodi:absref="carmen_lcad/data/road_mapper_remission_350px/voltadaufes/i7757540_-363720.png"
     y="350"
     x="350"
     id="image2567"
     xlink:href="carmen_lcad/data/road_mapper_remission_350px/voltadaufes/i7757540_-363720.png"
     preserveAspectRatio="none"
     height="350"
     width="350" />
  <image
     sodipodi:absref="carmen_lcad/data/road_mapper_remission_350px/voltadaufes/i7757540_-363650.png"
     y="0"
     x="350"
     id="image2632"
     xlink:href="carmen_lcad/data/road_mapper_remission_350px/voltadaufes/i7757540_-363650.png"
     preserveAspectRatio="none"
     height="350"
     width="350" />
  <path
     style="opacity:0.5;fill:none;stroke:#ff0000;stroke-width:18;stroke-linecap:butt;stroke-linejoin:miter;stroke-miterlimit:4;stroke-dasharray:none;stroke-opacity:1"
     d="m 71.720502,288.37514 c 12.146768,12.33572 23.251909,21.20294 35.648648,30.86645 10.22283,7.96891 20.8815,15.40312 31.85841,22.29638 8.67906,5.45027 17.70375,10.34992 26.82023,15.03194 8.43328,4.33114 16.97794,8.48277 25.75588,12.06421 12.0543,4.91821 24.36474,9.26147 36.86375,12.90424 10.21949,2.97842 20.65269,5.20231 31.08973,7.29447 12.53423,2.51255 25.16699,4.54507 37.82855,6.3071 13.26323,1.84577 26.56696,3.51543 39.92438,4.46379 18.12201,1.28664 36.31014,1.71847 54.47766,1.6575 22.05649,-0.074 44.13029,-0.79472 66.12423,-2.45621 19.79707,-1.49553 39.55581,-3.72153 59.17606,-6.75575 15.63661,-2.41815 31.11517,-5.78861 46.58439,-9.11339 16.73323,-3.59646 23.89023,-5.71346 49.99133,-11.71696"
     id="path2635"
     inkscape:connector-curvature="0"
     sodipodi:nodetypes="caaaaaaaaaaaac" />
  <path
     style="opacity:0.51099997;fill:none;stroke:#ff0000;stroke-width:18;stroke-linecap:butt;stroke-linejoin:miter;stroke-miterlimit:4;stroke-dasharray:none;stroke-opacity:1"
     d="m 407.37541,383.17943 c -21.30205,0.11037 -35.12668,0.4487 -52.6531,-0.49509 -20.0119,-1.07764 -39.98867,-3.09464 -59.83307,-5.89415 -15.61769,-2.20323 -31.19956,-4.88087 -46.53463,-8.56902 -13.0717,-3.14381 -26.05875,-6.81755 -38.64982,-11.53113 -14.01496,-5.24662 -27.72044,-11.43337 -40.87327,-18.57125 C 152.9841,329.5186 137.75581,319.70683 123.23168,309.02255 109.5504,298.95828 102.92525,294.68274 84.277936,276.17734"
     id="path2637"
     inkscape:connector-curvature="0"
     sodipodi:nodetypes="caaaaaac" />
</svg>
