<?xml version="1.0" encoding="UTF-8" standalone="no"?>
<!-- Created with Inkscape (http://www.inkscape.org/) -->

<svg
   xmlns:dc="http://purl.org/dc/elements/1.1/"
   xmlns:cc="http://creativecommons.org/ns#"
   xmlns:rdf="http://www.w3.org/1999/02/22-rdf-syntax-ns#"
   xmlns:svg="http://www.w3.org/2000/svg"
   xmlns="http://www.w3.org/2000/svg"
   xmlns:xlink="http://www.w3.org/1999/xlink"
   xmlns:sodipodi="http://sodipodi.sourceforge.net/DTD/sodipodi-0.dtd"
   xmlns:inkscape="http://www.inkscape.org/namespaces/inkscape"
   version="1.1"
   id="svg5734"
   width="350"
   height="350"
   viewBox="0 0 350 350"
   sodipodi:docname="i7757750_-363860.svg"
   inkscape:version="0.92.2 (unknown)">
  <metadata
     id="metadata5740">
    <rdf:RDF>
      <cc:Work
         rdf:about="">
        <dc:format>image/svg+xml</dc:format>
        <dc:type
           rdf:resource="http://purl.org/dc/dcmitype/StillImage" />
        <dc:title />
      </cc:Work>
    </rdf:RDF>
  </metadata>
  <defs
     id="defs5738" />
  <sodipodi:namedview
     pagecolor="#ffffff"
     bordercolor="#666666"
     borderopacity="1"
     objecttolerance="10"
     gridtolerance="10"
     guidetolerance="10"
     inkscape:pageopacity="0"
     inkscape:pageshadow="2"
     inkscape:window-width="1855"
     inkscape:window-height="1056"
     id="namedview5736"
     showgrid="false"
     inkscape:zoom="0.5318288"
     inkscape:cx="-74.735811"
     inkscape:cy="22.412624"
     inkscape:window-x="65"
     inkscape:window-y="24"
     inkscape:window-maximized="1"
     inkscape:current-layer="svg5734" />
  <image
     width="350"
     height="350"
     preserveAspectRatio="none"
     xlink:href="carmen_lcad/data/road_mapper_remission_350px/voltadaufes/i7757750_-363860.png"
     id="image5742"
     x="0"
     y="0"
     sodipodi:absref="carmen_lcad/data/road_mapper_remission_350px/voltadaufes/i7757750_-363860.png" />
  <image
     width="350"
     height="350"
     preserveAspectRatio="none"
     xlink:href="carmen_lcad/data/road_mapper_remission_350px/voltadaufes/i7757820_-363860.png"
     id="image5832"
     x="350"
     y="0"
     sodipodi:absref="carmen_lcad/data/road_mapper_remission_350px/voltadaufes/i7757820_-363860.png" />
  <image
     width="350"
     height="350"
     preserveAspectRatio="none"
     xlink:href="carmen_lcad/data/road_mapper_remission_350px/voltadaufes/i7757820_-363790.png"
     id="image5652"
     x="350"
     y="-350.00003"
     sodipodi:absref="carmen_lcad/data/road_mapper_remission_350px/voltadaufes/i7757820_-363790.png" />
  <path
     style="fill:none;stroke:#7fff00;stroke-width:22;stroke-linecap:butt;stroke-linejoin:miter;stroke-miterlimit:4;stroke-dasharray:none;stroke-opacity:1"
     d="m 392.51459,12.626076 c 0,0 70.96982,-53.85279 106.44469,-80.79241 35.57488,-27.01557 71.20762,-53.955236 106.70449,-81.073216 25.08698,-19.16529 50.05608,-38.48436 75.10928,-57.69387 15.601,-11.96211 46.8343,-35.84562 46.8343,-35.84562"
     id="path5684"
     inkscape:connector-curvature="0"
     sodipodi:nodetypes="caaac" />
  <path
     style="fill:none;stroke:#7fff00;stroke-width:22;stroke-linecap:butt;stroke-linejoin:miter;stroke-miterlimit:4;stroke-dasharray:none;stroke-opacity:1"
     d="m 735.53125,-281.97808 c 0,0 -38.1803,29.41565 -57.1927,44.22374 -17.5704,13.68503 -35.0652,27.467 -52.5668,41.23991 -15.27493,12.02058 -30.39646,24.23703 -45.77057,36.13045 -16.62706,12.86271 -33.54207,25.34906 -50.25687,38.09756 -21.92435,16.72187 -43.74489,33.579406 -65.62495,50.359196 -25.11768,19.26271 -75.3705,57.76535 -75.3705,57.76535"
     id="path5686"
     inkscape:connector-curvature="0"
     sodipodi:nodetypes="caaaaac" />
  <path
     style="fill:none;stroke:#7fff00;stroke-width:22;stroke-linecap:butt;stroke-linejoin:miter;stroke-miterlimit:4;stroke-dasharray:none;stroke-opacity:1"
     d="m -25.982512,334.93003 c 0,0 41.95113,-31.4874 62.77236,-47.43395 24.12318,-18.47543 47.9929,-37.27949 72.008892,-55.89403 22.70235,-17.59636 45.40443,-35.19315 68.14398,-52.74141 26.76472,-20.65452 53.57316,-41.25234 80.38189,-61.84971 24.18634,-18.582574 48.46178,-37.049314 72.59895,-55.695704 20.91806,-16.15957 62.59103,-48.68915 62.59103,-48.68915"
     id="path5774-9"
     inkscape:connector-curvature="0"
     sodipodi:nodetypes="caaaaac" />
  <path
     style="fill:none;stroke:#7fff00;stroke-width:22;stroke-linecap:butt;stroke-linejoin:miter;stroke-miterlimit:4;stroke-dasharray:none;stroke-opacity:1"
     d="m 388.74886,-14.161874 c 0,0 -54.21805,41.52665 -81.33358,62.28148 -35.65347,27.28995 -71.39756,54.461754 -106.9775,81.847504 -19.62893,15.10832 -39.10683,30.41238 -58.75516,45.49544 -15.74917,12.08986 -31.67317,23.95117 -47.398852,36.07157 -18.67713,14.39519 -37.09693,29.12207 -55.76583,43.52792 -24.78273,19.12358 -74.66565,56.95696 -74.66565,56.95696"
     id="path5776-1"
     inkscape:connector-curvature="0"
     sodipodi:nodetypes="caaaaac" />
</svg>
