<?xml version="1.0" encoding="UTF-8" standalone="no"?>
<!-- Created with Inkscape (http://www.inkscape.org/) -->

<svg
   xmlns:dc="http://purl.org/dc/elements/1.1/"
   xmlns:cc="http://creativecommons.org/ns#"
   xmlns:rdf="http://www.w3.org/1999/02/22-rdf-syntax-ns#"
   xmlns:svg="http://www.w3.org/2000/svg"
   xmlns="http://www.w3.org/2000/svg"
   xmlns:xlink="http://www.w3.org/1999/xlink"
   xmlns:sodipodi="http://sodipodi.sourceforge.net/DTD/sodipodi-0.dtd"
   xmlns:inkscape="http://www.inkscape.org/namespaces/inkscape"
   version="1.1"
   id="svg9035"
   width="350"
   height="350"
   viewBox="0 0 350 350"
   sodipodi:docname="i7756700_-363650.svg"
   inkscape:version="0.92.2 (unknown)">
  <metadata
     id="metadata9041">
    <rdf:RDF>
      <cc:Work
         rdf:about="">
        <dc:format>image/svg+xml</dc:format>
        <dc:type
           rdf:resource="http://purl.org/dc/dcmitype/StillImage" />
        <dc:title></dc:title>
      </cc:Work>
    </rdf:RDF>
  </metadata>
  <defs
     id="defs9039" />
  <sodipodi:namedview
     pagecolor="#ffffff"
     bordercolor="#666666"
     borderopacity="1"
     objecttolerance="10"
     gridtolerance="10"
     guidetolerance="10"
     inkscape:pageopacity="0"
     inkscape:pageshadow="2"
     inkscape:window-width="1855"
     inkscape:window-height="1056"
     id="namedview9037"
     showgrid="false"
     inkscape:zoom="1.8465589"
     inkscape:cx="94.185919"
     inkscape:cy="13.404394"
     inkscape:window-x="65"
     inkscape:window-y="24"
     inkscape:window-maximized="1"
     inkscape:current-layer="svg9035" />
  <image
     width="350"
     height="350"
     preserveAspectRatio="none"
     xlink:href="carmen_lcad/data/road_mapper_remission_350px/voltadaufes/i7756700_-363650.png"
     id="image9043"
     x="0"
     y="0"
     sodipodi:absref="carmen_lcad/data/road_mapper_remission_350px/voltadaufes/i7756700_-363650.png" />
  <image
     width="350"
     height="350"
     preserveAspectRatio="none"
     xlink:href="carmen_lcad/data/road_mapper_remission_350px/voltadaufes/i7756700_-363720.png"
     id="image8542"
     x="0"
     y="350"
     sodipodi:absref="carmen_lcad/data/road_mapper_remission_350px/voltadaufes/i7756700_-363720.png" />
  <image
     width="350"
     height="350"
     preserveAspectRatio="none"
     xlink:href="carmen_lcad/data/road_mapper_remission_350px/voltadaufes/i7756630_-363720.png"
     id="image8083"
     x="-350"
     y="350"
     sodipodi:absref="carmen_lcad/data/road_mapper_remission_350px/voltadaufes/i7756630_-363720.png" />
  <path
     style="display:none;opacity:0.28999999;fill:none;stroke:#00ff00;stroke-width:25;stroke-linecap:butt;stroke-linejoin:miter;stroke-miterlimit:4;stroke-dasharray:none;stroke-opacity:1"
     d="m 3494.367,12841.356 -35.7089,-9.988"
     id="path2589"
     inkscape:connector-curvature="0" />
  <path
     style="opacity:0.59600004;fill:none;stroke:#ff0000;stroke-width:17;stroke-linecap:butt;stroke-linejoin:miter;stroke-miterlimit:4;stroke-dasharray:none;stroke-opacity:1"
     d="M -470.54386,681.20597 -309.54403,555.67746"
     id="path8009"
     inkscape:connector-curvature="0"
     sodipodi:nodetypes="cc" />
  <path
     style="opacity:0.49599998;fill:none;stroke:#ff0000;stroke-width:17;stroke-linecap:butt;stroke-linejoin:miter;stroke-miterlimit:4;stroke-dasharray:none;stroke-opacity:1"
     d="M -320.08497,542.82536 -483.54096,669.83347"
     id="path8011"
     inkscape:connector-curvature="0"
     sodipodi:nodetypes="cc" />
  <path
     style="opacity:0.48900003;fill:none;stroke:#ff0000;stroke-width:17;stroke-linecap:butt;stroke-linejoin:miter;stroke-miterlimit:4;stroke-dasharray:none;stroke-opacity:1"
     d="m -309.54403,555.67746 c 0,0 27.81719,-21.3081 41.68297,-32.0177 12.59897,-9.7312 25.00944,-19.7078 37.71882,-29.2943 8.96824,-6.7646 17.88579,-13.6153 27.18818,-19.9125 11.35415,-7.6861 23.11134,-14.7679 34.89328,-21.7806 10.70203,-6.3701 21.44673,-12.69367 32.50279,-18.42725 12.34255,-6.40076 24.90475,-12.41113 37.718806,-17.80635 14.68463,-6.1828 29.67469,-11.65776 44.80306,-16.65755 14.13398,-4.67114 28.48456,-8.68788 42.8884,-12.44529 12.2986403,-3.20825 37.14443,-8.61598 37.14443,-8.61598"
     id="path8228"
     inkscape:connector-curvature="0"
     sodipodi:nodetypes="caaaaaaaac" />
  <path
     style="opacity:0.544;fill:none;stroke:#ff0000;stroke-width:17;stroke-linecap:butt;stroke-linejoin:miter;stroke-miterlimit:4;stroke-dasharray:none;stroke-opacity:1"
     d="m 23.358846,362.25386 c 0,0 -25.4346997,5.85334 -38.06093,9.14391 -12.64295,3.29494 -25.27899,6.65866 -37.73242,10.60995 -11.1914,3.55086 -22.24869,7.5326 -33.20294,11.75874 -12.42303,4.79278 -24.780236,9.79621 -36.854406,15.4102 -11.85995,5.51439 -23.43687,11.63453 -34.90456,17.92414 -12.44718,6.82683 -24.79716,13.86163 -36.76945,21.49066 -12.17794,7.7601 -23.95985,16.138 -35.61269,24.6663 -14.41052,10.5465 -28.24751,21.8552 -42.39331,32.7543 -15.95449,12.2926 -47.91311,36.8133 -47.91311,36.8133"
     id="path8230"
     inkscape:connector-curvature="0"
     sodipodi:nodetypes="caaaaaaaac" />
  <image
     sodipodi:absref="carmen_lcad/data/road_mapper_remission_350px/voltadaufes/i7756770_-363720.png"
     y="350"
     x="350"
     id="image8836"
     xlink:href="carmen_lcad/data/road_mapper_remission_350px/voltadaufes/i7756770_-363720.png"
     preserveAspectRatio="none"
     height="350"
     width="350" />
  <image
     sodipodi:absref="carmen_lcad/data/road_mapper_remission_350px/voltadaufes/i7756840_-363720.png"
     y="350"
     x="700"
     id="image8901"
     xlink:href="carmen_lcad/data/road_mapper_remission_350px/voltadaufes/i7756840_-363720.png"
     preserveAspectRatio="none"
     height="350"
     width="350" />
  <image
     sodipodi:absref="carmen_lcad/data/road_mapper_remission_350px/voltadaufes/i7756910_-363720.png"
     y="350"
     x="1050"
     id="image8966"
     xlink:href="carmen_lcad/data/road_mapper_remission_350px/voltadaufes/i7756910_-363720.png"
     preserveAspectRatio="none"
     height="350"
     width="350" />
  <path
     style="opacity:0.53699999;fill:none;stroke:#ff0000;stroke-width:17;stroke-linecap:butt;stroke-linejoin:miter;stroke-miterlimit:4;stroke-dasharray:none;stroke-opacity:1"
     d="m 26.996706,378.71994 c 0,0 19.86718,-3.18237 29.85956,-4.31832 13.34023,-1.51654 26.73136,-2.656 40.1406,-3.32989 13.882874,-0.6977 27.795294,-0.90414 41.694674,-0.73646 13.90449,0.16774 28.68903,0.75568 42.98712,1.88795 16.73375,1.32515 33.36897,3.69589 50.03062,5.73646 15.43326,1.89013 30.83224,4.05075 46.25472,6.02691 15.55926,1.99368 31.12361,3.94768 46.6904,5.88168 16.98796,2.11057 50.9746,6.24475 50.9746,6.24475"
     id="path8969"
     inkscape:connector-curvature="0"
     sodipodi:nodetypes="caasaaaac" />
  <path
     style="opacity:0.59600004;fill:none;stroke:#ff0000;stroke-width:17;stroke-linecap:butt;stroke-linejoin:miter;stroke-miterlimit:4;stroke-dasharray:none;stroke-opacity:1"
     d="m 377.58956,379.33933 c 0,0 -29.61994,-3.73067 -44.43939,-5.51862 -10.74233,-1.29604 -21.50443,-2.42765 -32.24034,-3.77589 -18.37316,-2.30735 -36.6836,-5.09875 -55.05981,-7.38165 -15.70847,-1.95148 -31.42924,-3.82251 -47.17983,-5.39831 -13.53662,-1.35429 -27.06902,-2.97117 -40.66349,-3.48544 -13.84546,-0.52376 -27.71056,0.18292 -41.56405,0.41077 -8.41534,0.1384 -16.837794,0.14082 -25.242764,0.5809 -12.10511,0.63383 -24.19804,1.61204 -36.24403,2.96469 -10.57302,1.18725 -31.59701,4.51808 -31.59701,4.51808"
     id="path8971"
     inkscape:connector-curvature="0"
     sodipodi:nodetypes="caaaaaaaac" />
</svg>
