<?xml version="1.0" encoding="UTF-8" standalone="no"?>
<!-- Created with Inkscape (http://www.inkscape.org/) -->

<svg
   xmlns:dc="http://purl.org/dc/elements/1.1/"
   xmlns:cc="http://creativecommons.org/ns#"
   xmlns:rdf="http://www.w3.org/1999/02/22-rdf-syntax-ns#"
   xmlns:svg="http://www.w3.org/2000/svg"
   xmlns="http://www.w3.org/2000/svg"
   xmlns:xlink="http://www.w3.org/1999/xlink"
   xmlns:sodipodi="http://sodipodi.sourceforge.net/DTD/sodipodi-0.dtd"
   xmlns:inkscape="http://www.inkscape.org/namespaces/inkscape"
   version="1.1"
   id="svg7974"
   width="350"
   height="350"
   viewBox="0 0 350 350"
   sodipodi:docname="i7757260_-364140.svg"
   inkscape:version="0.92.2 (unknown)">
  <metadata
     id="metadata7980">
    <rdf:RDF>
      <cc:Work
         rdf:about="">
        <dc:format>image/svg+xml</dc:format>
        <dc:type
           rdf:resource="http://purl.org/dc/dcmitype/StillImage" />
        <dc:title />
      </cc:Work>
    </rdf:RDF>
  </metadata>
  <defs
     id="defs7978" />
  <sodipodi:namedview
     pagecolor="#ffffff"
     bordercolor="#666666"
     borderopacity="1"
     objecttolerance="10"
     gridtolerance="10"
     guidetolerance="10"
     inkscape:pageopacity="0"
     inkscape:pageshadow="2"
     inkscape:window-width="1855"
     inkscape:window-height="1056"
     id="namedview7976"
     showgrid="false"
     inkscape:zoom="1.4000714"
     inkscape:cx="381.69795"
     inkscape:cy="186.16968"
     inkscape:window-x="65"
     inkscape:window-y="24"
     inkscape:window-maximized="1"
     inkscape:current-layer="svg7974" />
  <image
     width="350"
     height="350"
     preserveAspectRatio="none"
     xlink:href="carmen_lcad/data/road_mapper_remission_350px/voltadaufes/i7757260_-364140.png"
     id="image7982"
     x="0"
     y="0"
     sodipodi:absref="carmen_lcad/data/road_mapper_remission_350px/voltadaufes/i7757260_-364140.png"
     style="fill:#ffccaa" />
  <path
     style="opacity:1;fill:none;stroke:#ff0000;stroke-width:22;stroke-linecap:butt;stroke-linejoin:miter;stroke-miterlimit:4;stroke-dasharray:none;stroke-opacity:1"
     d="m 99.179431,147.81181 c 0,0 25.754479,3.45438 38.624529,5.23411 18.40495,2.54512 36.76061,5.45428 55.19386,7.78559 17.07511,2.15954 34.17441,4.16439 51.3129,5.74398 17.58653,1.62089 35.20971,2.86888 52.84464,3.82932 17.47298,0.95162 34.96769,1.50244 52.46171,1.91466 11.99589,0.28266 35.99562,0.38294 35.99562,0.38294"
     id="path8014"
     inkscape:connector-curvature="0"
     sodipodi:nodetypes="caaaaac" />
  <path
     style="opacity:1;fill:none;stroke:#ff0000;stroke-width:24;stroke-linecap:butt;stroke-linejoin:miter;stroke-miterlimit:4;stroke-dasharray:none;stroke-opacity:1"
     d="m 384.24767,149.12732 c 0,0 -27.60778,2.08777 -41.4341,1.96418 -17.74551,-0.15862 -35.41647,-2.32094 -53.12538,-3.47115 -14.49979,-0.94177 -29.03877,-1.39777 -43.50047,-2.80851 -22.27636,-2.17307 -44.38877,-5.78553 -66.57962,-8.70526 -19.47641,-2.56257 -38.92474,-5.34419 -58.42297,-7.73503 -10.92234,-1.33928 -32.804176,-3.70237 -32.804176,-3.70237"
     id="path8016"
     inkscape:connector-curvature="0"
     sodipodi:nodetypes="caaaaac" />
  <path
     style="fill:none;stroke:#7f00ff;stroke-width:22;stroke-linecap:butt;stroke-linejoin:miter;stroke-miterlimit:4;stroke-dasharray:none;stroke-opacity:1;opacity:1"
     d="m -28.33698,130.57987 c 0,0 32.6802403,4.69833 49.038546,6.91601 14.358248,1.94653 28.739695,3.71812 43.105432,5.60859 11.793086,1.55193 35.372433,4.70734 35.372433,4.70734"
     id="path8020"
     inkscape:connector-curvature="0"
     sodipodi:nodetypes="caac" />
  <path
     style="opacity:1;fill:none;stroke:#7f00ff;stroke-width:24;stroke-linecap:butt;stroke-linejoin:miter;stroke-miterlimit:4;stroke-dasharray:none;stroke-opacity:1"
     d="m 88.380954,124.66918 c 0,0 -23.963792,-4.17638 -35.987365,-6.00303 -16.775593,-2.54859 -33.624265,-4.59056 -50.4324707,-6.91436 -8.8366588,-1.22171 -26.5058133,-3.6951 -26.5058133,-3.6951"
     id="path8022"
     inkscape:connector-curvature="0"
     sodipodi:nodetypes="caac" />
  <path
     style="fill:none;stroke:#ff0000;stroke-width:18;stroke-linecap:butt;stroke-linejoin:miter;stroke-miterlimit:4;stroke-dasharray:none;stroke-opacity:1"
     d="M 177.96772,281.55088 98.987965,270.35011"
     id="path4688"
     inkscape:connector-curvature="0"
     sodipodi:nodetypes="cc" />
  <path
     style="fill:none;stroke:#0000ff;stroke-width:18;stroke-linecap:butt;stroke-linejoin:miter;stroke-miterlimit:4;stroke-dasharray:none;stroke-opacity:1"
     d="m 370.58081,309.21718 c 0,0 -67.51795,-10.68519 -101.35119,-15.52653 -30.37915,-4.34707 -91.2619,-12.13977 -91.2619,-12.13977"
     id="path4690"
     inkscape:connector-curvature="0"
     sodipodi:nodetypes="cac" />
  <path
     style="fill:none;stroke:#7f00ff;stroke-width:16;stroke-linecap:butt;stroke-linejoin:miter;stroke-miterlimit:4;stroke-dasharray:none;stroke-opacity:1"
     d="M 180.39231,264.77907 101.39523,253.60669"
     id="path4692"
     inkscape:connector-curvature="0"
     sodipodi:nodetypes="cc" />
  <path
     style="fill:none;stroke:#0000ff;stroke-width:16;stroke-linecap:butt;stroke-linejoin:miter;stroke-miterlimit:4;stroke-dasharray:none;stroke-opacity:1"
     d="m 372.72727,291.70999 c 0,0 -56.30931,-7.49945 -84.43998,-11.42379 -35.98607,-5.02021 -107.89498,-15.50713 -107.89498,-15.50713"
     id="path4694"
     inkscape:connector-curvature="0"
     sodipodi:nodetypes="cac" />
  <path
     style="fill:none;stroke:#ff0000;stroke-width:16;stroke-linecap:butt;stroke-linejoin:miter;stroke-miterlimit:4;stroke-dasharray:none;stroke-opacity:1"
     d="M 175.61604,298.12764 96.334371,287.05679"
     id="path4696"
     inkscape:connector-curvature="0"
     sodipodi:nodetypes="cc" />
  <path
     style="fill:none;stroke:#7f00ff;stroke-width:16;stroke-linecap:butt;stroke-linejoin:miter;stroke-miterlimit:4;stroke-dasharray:none;stroke-opacity:1"
     d="m 369.08831,325.17983 c 0,0 -62.47582,-9.21372 -93.74646,-13.59085 -33.21955,-4.64993 -99.72581,-13.46134 -99.72581,-13.46134"
     id="path4698"
     inkscape:connector-curvature="0"
     sodipodi:nodetypes="cac" />
  <path
     style="fill:none;stroke:#7f00ff;stroke-width:16;stroke-linecap:butt;stroke-linejoin:miter;stroke-miterlimit:4;stroke-dasharray:none;stroke-opacity:1"
     d="M 96.334371,287.05679 -13.257576,272.85354"
     id="path4700"
     inkscape:connector-curvature="0"
     sodipodi:nodetypes="cc" />
  <path
     style="fill:none;stroke:#0000ff;stroke-width:18;stroke-linecap:butt;stroke-linejoin:miter;stroke-miterlimit:4;stroke-dasharray:none;stroke-opacity:1"
     d="m 98.987965,270.35011 -109.84655,-14.2895"
     id="path4702"
     inkscape:connector-curvature="0"
     sodipodi:nodetypes="cc" />
  <path
     style="fill:none;stroke:#0000ff;stroke-width:16;stroke-linecap:butt;stroke-linejoin:miter;stroke-miterlimit:4;stroke-dasharray:none;stroke-opacity:1"
     d="m 101.39523,253.60669 -54.320933,-7.1114"
     id="path4704"
     inkscape:connector-curvature="0"
     sodipodi:nodetypes="cc" />
  <path
     style="fill:none;stroke:#ff007f;stroke-width:16;stroke-linecap:butt;stroke-linejoin:miter;stroke-miterlimit:4;stroke-dasharray:none;stroke-opacity:1"
     d="M 47.074297,246.49529 -8.6918382,239.27063"
     id="path4706"
     inkscape:connector-curvature="0"
     sodipodi:nodetypes="cc" />
  <path
     style="fill:none;stroke:#0000ff;stroke-width:18;stroke-linecap:butt;stroke-linejoin:miter;stroke-miterlimit:4;stroke-dasharray:none;stroke-opacity:1"
     d="M 717.36354,356.62027 335.75746,303.67266"
     id="path4788"
     inkscape:connector-curvature="0"
     sodipodi:nodetypes="cc" />
  <path
     style="fill:none;stroke:#0000ff;stroke-width:16;stroke-linecap:butt;stroke-linejoin:miter;stroke-miterlimit:4;stroke-dasharray:none;stroke-opacity:1"
     d="M 665.8682,332.42756 338.38186,286.97158"
     id="path4790"
     inkscape:connector-curvature="0"
     sodipodi:nodetypes="cc" />
  <path
     style="fill:none;stroke:#7f00ff;stroke-width:17;stroke-linecap:butt;stroke-linejoin:miter;stroke-miterlimit:4;stroke-dasharray:none;stroke-opacity:1"
     d="M 714.98712,373.95248 333.55957,319.96098"
     id="path4794"
     inkscape:connector-curvature="0"
     sodipodi:nodetypes="cc" />
  <path
     style="fill:none;stroke:#ff007f;stroke-width:16;stroke-linecap:butt;stroke-linejoin:miter;stroke-miterlimit:4;stroke-dasharray:none;stroke-opacity:1"
     d="m 682.41946,334.61243 c 0,0 -9.74382,-0.80557 -15.11246,-1.80528 -5.95142,-1.10823 -21.42743,-9.62661 -32.51514,-13.45327 -14.74528,-5.08898 -29.81949,-9.31701 -45.07148,-12.58779 -24.48497,-5.25079 -49.49771,-7.64092 -74.27968,-11.23797 -36.47319,-5.294 -73.00948,-10.14379 -109.5131,-15.22378 -21.8859,-3.04573 -65.65634,-9.14689 -65.65634,-9.14689"
     id="path4796"
     inkscape:connector-curvature="0"
     sodipodi:nodetypes="csaaaac" />
  <path
     style="fill:none;stroke:#ff007f;stroke-width:16;stroke-linecap:butt;stroke-linejoin:miter;stroke-miterlimit:4;stroke-dasharray:none;stroke-opacity:1"
     d="m 340.27126,271.15745 c 0,0 -29.38078,-3.57054 -44.04013,-5.59032 -14.54904,-2.00458 -29.04671,-4.36664 -43.58055,-6.47856 -16.62736,-2.41613 -33.25007,-4.871 -49.90556,-7.08494 -15.42265,-2.05006 -30.81323,-4.48277 -46.32071,-5.73937 -12.1644,-0.98571 -24.38349,-1.18691 -36.58579,-1.40683 -11.55489,-0.20825 -23.128766,-0.51235 -34.670186,0.0829 -7.515554,0.38763 -14.938066,2.1298 -22.462323,2.26901 -7.70804,0.14261 -15.42001,-0.61129 -23.081209,-1.47167 -7.943162,-0.89204 -23.673022,-3.82022 -23.673022,-3.82022"
     id="path6064"
     inkscape:connector-curvature="0"
     sodipodi:nodetypes="caaaaaaaac" />
  <path
     style="opacity:1;fill:none;stroke:#ff0000;stroke-width:24;stroke-linecap:butt;stroke-linejoin:miter;stroke-miterlimit:4;stroke-dasharray:none;stroke-opacity:1"
     d="m 488.14137,138.81238 c 0,0 -28.40997,3.5144 -42.65444,4.89921 -14.6549,1.42471 -29.33197,2.67669 -44.03255,3.50657 -10.94703,0.61799 -21.91736,0.713 -32.87514,1.09572 -14.31892,0.50011 -42.95432,1.56883 -42.95432,1.56883"
     id="path7924"
     inkscape:connector-curvature="0"
     sodipodi:nodetypes="caaac" />
  <path
     style="opacity:1;fill:none;stroke:#ff0000;stroke-width:23;stroke-linecap:butt;stroke-linejoin:miter;stroke-miterlimit:4;stroke-dasharray:none;stroke-opacity:1"
     d="m 325.67857,171.17597 c 0,0 40.73319,0.71805 61.08511,0.0863 16.95679,-0.52636 33.89389,-1.72817 50.79238,-3.22841 21.02137,-1.86626 41.95026,-4.66309 62.90393,-7.17797 17.51473,-2.10213 52.50653,-6.61268 52.50653,-6.61268"
     id="path7926"
     inkscape:connector-curvature="0"
     sodipodi:nodetypes="caaac" />
</svg>
