<?xml version="1.0" encoding="UTF-8" standalone="no"?>
<!-- Created with Inkscape (http://www.inkscape.org/) -->

<svg
   xmlns:dc="http://purl.org/dc/elements/1.1/"
   xmlns:cc="http://creativecommons.org/ns#"
   xmlns:rdf="http://www.w3.org/1999/02/22-rdf-syntax-ns#"
   xmlns:svg="http://www.w3.org/2000/svg"
   xmlns="http://www.w3.org/2000/svg"
   xmlns:xlink="http://www.w3.org/1999/xlink"
   xmlns:sodipodi="http://sodipodi.sourceforge.net/DTD/sodipodi-0.dtd"
   xmlns:inkscape="http://www.inkscape.org/namespaces/inkscape"
   version="1.1"
   id="svg7347"
   width="350"
   height="350"
   viewBox="0 0 350 350"
   sodipodi:docname="i7756840_-364070.svg"
   inkscape:version="0.92.2 (unknown)">
  <metadata
     id="metadata7353">
    <rdf:RDF>
      <cc:Work
         rdf:about="">
        <dc:format>image/svg+xml</dc:format>
        <dc:type
           rdf:resource="http://purl.org/dc/dcmitype/StillImage" />
      </cc:Work>
    </rdf:RDF>
  </metadata>
  <defs
     id="defs7351" />
  <sodipodi:namedview
     pagecolor="#ffffff"
     bordercolor="#666666"
     borderopacity="1"
     objecttolerance="10"
     gridtolerance="10"
     guidetolerance="10"
     inkscape:pageopacity="0"
     inkscape:pageshadow="2"
     inkscape:window-width="1855"
     inkscape:window-height="1056"
     id="namedview7349"
     showgrid="false"
     inkscape:zoom="1.5300023"
     inkscape:cx="53.035272"
     inkscape:cy="87.757584"
     inkscape:window-x="65"
     inkscape:window-y="24"
     inkscape:window-maximized="1"
     inkscape:current-layer="svg7347" />
  <image
     width="350"
     height="350"
     preserveAspectRatio="none"
     xlink:href="carmen_lcad/data/road_mapper_remission_350px/voltadaufes/i7756840_-364070.png"
     id="image7355"
     x="0"
     y="0"
     sodipodi:absref="carmen_lcad/data/road_mapper_remission_350px/voltadaufes/i7756840_-364070.png" />
  <path
     style="display:none;opacity:0.28999999;fill:none;stroke:#00ff00;stroke-width:25;stroke-linecap:butt;stroke-linejoin:miter;stroke-miterlimit:4;stroke-dasharray:none;stroke-opacity:1"
     d="m 935.46965,2438.0934 -35.7089,-9.9879"
     id="path2589"
     inkscape:connector-curvature="0" />
  <image
     sodipodi:absref="carmen_lcad/data/road_mapper_remission_350px/voltadaufes/i7756910_-364070.png"
     y="0"
     x="350"
     id="image6400"
     xlink:href="carmen_lcad/data/road_mapper_remission_350px/voltadaufes/i7756910_-364070.png"
     preserveAspectRatio="none"
     height="350"
     width="350" />
  <image
     sodipodi:absref="carmen_lcad/data/road_mapper_remission_350px/voltadaufes/i7756980_-364070.png"
     y="0"
     x="700"
     id="image2479"
     xlink:href="carmen_lcad/data/road_mapper_remission_350px/voltadaufes/i7756980_-364070.png"
     preserveAspectRatio="none"
     height="350"
     width="350" />
  <image
     width="350"
     height="350"
     preserveAspectRatio="none"
     xlink:href="carmen_lcad/data/road_mapper_remission_350px/voltadaufes/i7756840_-364140.png"
     id="image6992"
     x="-1.1452636e-05"
     y="350"
     sodipodi:absref="carmen_lcad/data/road_mapper_remission_350px/voltadaufes/i7756840_-364140.png" />
  <image
     width="350"
     height="350"
     preserveAspectRatio="none"
     xlink:href="carmen_lcad/data/road_mapper_remission_350px/voltadaufes/i7756910_-364140.png"
     id="image5830"
     x="350"
     y="350"
     sodipodi:absref="carmen_lcad/data/road_mapper_remission_350px/voltadaufes/i7756910_-364140.png" />
  <image
     width="350"
     height="350"
     preserveAspectRatio="none"
     xlink:href="carmen_lcad/data/road_mapper_remission_350px/voltadaufes/i7756980_-364140.png"
     id="image4658"
     x="700"
     y="350"
     sodipodi:absref="carmen_lcad/data/road_mapper_remission_350px/voltadaufes/i7756980_-364140.png" />
  <path
     style="opacity:0.42600002;fill:none;stroke:#0000ff;stroke-width:18;stroke-linecap:butt;stroke-linejoin:miter;stroke-miterlimit:4;stroke-dasharray:none;stroke-opacity:1"
     d="M 1038.4859,466.59729 685.4486,418.1619"
     id="path2482"
     inkscape:connector-curvature="0" />
  <path
     style="opacity:0.65399996;fill:none;stroke:#7f00ff;stroke-width:16;stroke-linecap:butt;stroke-linejoin:miter;stroke-miterlimit:4;stroke-dasharray:none;stroke-opacity:1"
     d="M 1036.1141,483.38416 683.03365,434.8446"
     id="path2556"
     inkscape:connector-curvature="0"
     sodipodi:nodetypes="cc" />
  <path
     style="opacity:0.53299997;fill:none;stroke:#ff007f;stroke-width:16;stroke-linecap:butt;stroke-linejoin:miter;stroke-miterlimit:4;stroke-dasharray:none;stroke-opacity:1"
     d="M 992.57865,443.18477 746.76561,409.45019"
     id="path2558"
     inkscape:connector-curvature="0"
     sodipodi:nodetypes="cc" />
  <path
     style="opacity:0.38600003;fill:none;stroke:#0000ff;stroke-width:16;stroke-linecap:butt;stroke-linejoin:miter;stroke-miterlimit:4;stroke-dasharray:none;stroke-opacity:1"
     d="M 746.76561,409.45019 595.58283,389.04891"
     id="path2560"
     inkscape:connector-curvature="0"
     sodipodi:nodetypes="cc" />
  <path
     style="opacity:0.272;fill:none;stroke:#ff0000;stroke-width:24;stroke-linecap:butt;stroke-linejoin:miter;stroke-miterlimit:4;stroke-dasharray:none;stroke-opacity:1"
     d="m 1076.8123,327.71964 c 0,0 -139.96105,-18.29522 -209.91131,-27.67031 C 804.8754,291.73634 680.8787,274.70708 680.8787,274.70708"
     id="path3967"
     inkscape:connector-curvature="0"
     sodipodi:nodetypes="cac" />
  <path
     style="opacity:0.46000001;fill:none;stroke:#ff0000;stroke-width:20;stroke-linecap:butt;stroke-linejoin:miter;stroke-miterlimit:4;stroke-dasharray:none;stroke-opacity:1"
     d="m 677.97975,296.23832 c 0,0 175.69304,23.92395 263.5437,35.85534 71.27635,9.68034 142.33705,21.11915 213.83555,28.99137 14.1907,1.56245 28.4695,2.2102 42.6764,3.61765 13.1096,1.29873 26.2234,2.62424 39.2695,4.45342 13.9892,1.9614 27.9244,4.32919 41.7978,6.98896 9.9751,1.91241 29.7806,6.44607 29.7806,6.44607"
     id="path3975"
     inkscape:connector-curvature="0"
     sodipodi:nodetypes="caaaaac" />
  <path
     style="opacity:0.61799999;fill:none;stroke:#ff7f00;stroke-width:16;stroke-linecap:butt;stroke-linejoin:miter;stroke-miterlimit:4;stroke-dasharray:none;stroke-opacity:1"
     d="m 763.79855,412.73784 -72.832,-24.74874"
     id="path3981"
     inkscape:connector-curvature="0"
     sodipodi:nodetypes="cc" />
  <path
     style="opacity:0.35700001;fill:none;stroke:#ff0000;stroke-width:23;stroke-linecap:butt;stroke-linejoin:miter;stroke-miterlimit:4;stroke-dasharray:none;stroke-opacity:1"
     d="M 680.8787,274.70708 474.50594,247.34296"
     id="path6533"
     inkscape:connector-curvature="0"
     sodipodi:nodetypes="cc" />
  <path
     style="opacity:0.34900004;fill:none;stroke:#ff0000;stroke-width:23;stroke-linecap:butt;stroke-linejoin:miter;stroke-miterlimit:4;stroke-dasharray:none;stroke-opacity:1"
     d="M 677.97975,296.23832 473.87641,269.87453"
     id="path6535"
     inkscape:connector-curvature="0"
     sodipodi:nodetypes="cc" />
  <path
     style="opacity:0.48500001;fill:none;stroke:#7f00ff;stroke-width:23;stroke-linecap:butt;stroke-linejoin:miter;stroke-miterlimit:4;stroke-dasharray:none;stroke-opacity:1"
     d="M 474.50594,247.34296 341.70203,229.85936"
     id="path6537"
     inkscape:connector-curvature="0"
     sodipodi:nodetypes="cc" />
  <path
     style="opacity:0.397;fill:none;stroke:#7f00ff;stroke-width:23;stroke-linecap:butt;stroke-linejoin:miter;stroke-miterlimit:4;stroke-dasharray:none;stroke-opacity:1"
     d="m 343.33549,253.21567 130.54092,16.65886"
     id="path6539"
     inkscape:connector-curvature="0"
     sodipodi:nodetypes="cc" />
  <path
     style="opacity:0.44500002;fill:none;stroke:#ff0000;stroke-width:23;stroke-linecap:butt;stroke-linejoin:miter;stroke-miterlimit:4;stroke-dasharray:none;stroke-opacity:1"
     d="M 341.70203,229.85936 -17.78752,182.03067"
     id="path6541"
     inkscape:connector-curvature="0"
     sodipodi:nodetypes="cc" />
  <path
     style="opacity:0.47099998;fill:none;stroke:#ff0000;stroke-width:23;stroke-linecap:butt;stroke-linejoin:miter;stroke-miterlimit:4;stroke-dasharray:none;stroke-opacity:1"
     d="m -19.96031,204.60245 363.2958,48.61322"
     id="path6543"
     inkscape:connector-curvature="0" />
  <path
     style="opacity:0.55899999;fill:none;stroke:#ff007f;stroke-width:10;stroke-linecap:butt;stroke-linejoin:miter;stroke-miterlimit:4;stroke-dasharray:none;stroke-opacity:1"
     d="m 498.69673,243.86973 c 0,0 -9.92573,-1.1654 -14.7834,-2.29242 -4.23734,-0.98309 -8.31955,-2.54507 -12.45867,-3.88269 -4.66505,-1.50758 -9.32423,-3.03649 -13.94706,-4.66896 -4.62199,-1.63217 -9.05303,-3.83996 -13.78369,-5.1236 -3.78092,-1.02593 -7.70332,-1.43928 -11.57538,-2.03519 -8.15467,-1.25499 -16.36525,-2.11642 -24.53878,-3.24207 -7.24088,-0.9972 -14.43393,-2.37376 -21.70588,-3.11101 -4.80934,-0.48758 -9.64643,-0.6614 -14.47611,-0.86552 -3.46006,-0.14624 -6.92312,-0.26343 -10.38626,-0.25722 -4.50901,0.008 -9.01463,0.24773 -13.5216,0.38339 -3.57282,0.10755 -7.14506,0.23407 -10.71789,0.34135 -5.08556,0.1527 -10.17132,0.56065 -15.2575,0.43034 -6.16937,-0.15806 -18.45581,-1.46897 -18.45581,-1.46897"
     id="path6545"
     inkscape:connector-curvature="0"
     sodipodi:nodetypes="caaaaaaaaaaaac" />
  <path
     style="opacity:0.53299997;fill:none;stroke:#ff007f;stroke-width:10;stroke-linecap:butt;stroke-linejoin:miter;stroke-miterlimit:4;stroke-dasharray:none;stroke-opacity:1"
     d="m 297.67067,253.1625 c 0,0 14.0404,1.88589 20.94532,3.42576 6.80743,1.51813 13.39168,3.90854 20.12795,5.71643 5.68804,1.52656 11.42179,2.8775 17.1288,4.33152 6.36503,1.62167 12.69093,3.40183 19.08638,4.89906 6.90026,1.61542 13.79815,3.30557 20.79926,4.40455 8.34361,1.30972 16.78164,1.96687 25.2038,2.59815 6.97502,0.52281 13.96733,0.85254 20.96068,0.98391 6.30748,0.11849 12.61748,-0.058 18.92495,-0.17678 5.81681,-0.1096 11.62958,-0.39269 17.44653,-0.49452 6.78488,-0.11878 20.35729,-0.13582 20.35729,-0.13582"
     id="path6547"
     inkscape:connector-curvature="0"
     sodipodi:nodetypes="caaaaaaaaac" />
  <path
     style="opacity:0.39300005;fill:none;stroke:#7f00ff;stroke-width:16;stroke-linecap:butt;stroke-linejoin:miter;stroke-miterlimit:4;stroke-dasharray:none;stroke-opacity:1"
     d="M 683.03365,434.8446 152.20156,362.18268"
     id="path6549"
     inkscape:connector-curvature="0"
     sodipodi:nodetypes="cc" />
  <path
     style="opacity:0.478;fill:none;stroke:#0000ff;stroke-width:18;stroke-linecap:butt;stroke-linejoin:miter;stroke-miterlimit:4;stroke-dasharray:none;stroke-opacity:1"
     d="M 685.4486,418.1619 154.3867,345.60111"
     id="path6551"
     inkscape:connector-curvature="0"
     sodipodi:nodetypes="cc" />
  <path
     style="opacity:0.419;fill:none;stroke:#ff007f;stroke-width:16;stroke-linecap:butt;stroke-linejoin:miter;stroke-miterlimit:4;stroke-dasharray:none;stroke-opacity:1"
     d="M 595.58283,389.04891 411.25616,363.65753"
     id="path6553"
     inkscape:connector-curvature="0"
     sodipodi:nodetypes="cc" />
  <path
     style="opacity:0.62099998;fill:none;stroke:#0000ff;stroke-width:16;stroke-linecap:butt;stroke-linejoin:miter;stroke-miterlimit:4;stroke-dasharray:none;stroke-opacity:1"
     d="m 411.25616,363.65753 -78.685,-10.39989"
     id="path6555"
     inkscape:connector-curvature="0" />
  <path
     style="opacity:0.50700001;fill:none;stroke:#ff007f;stroke-width:16;stroke-linecap:butt;stroke-linejoin:miter;stroke-miterlimit:4;stroke-dasharray:none;stroke-opacity:1"
     d="M 332.57116,353.25764 216.88995,337.37768"
     id="path6557"
     inkscape:connector-curvature="0"
     sodipodi:nodetypes="cc" />
  <path
     style="opacity:0.62099998;fill:none;stroke:#0000ff;stroke-width:16;stroke-linecap:butt;stroke-linejoin:miter;stroke-miterlimit:4;stroke-dasharray:none;stroke-opacity:1"
     d="m 216.88995,337.37768 -60.4258,-8.65717"
     id="path6559"
     inkscape:connector-curvature="0" />
  <path
     style="opacity:0.522;fill:none;stroke:#ff0000;stroke-width:18;stroke-linecap:butt;stroke-linejoin:miter;stroke-miterlimit:4;stroke-dasharray:none;stroke-opacity:1"
     d="M 154.3867,345.60111 70.48324,333.99418"
     id="path6563"
     inkscape:connector-curvature="0"
     sodipodi:nodetypes="cc" />
  <path
     style="opacity:0.56999966;fill:none;stroke:#ff0000;stroke-width:16;stroke-linecap:butt;stroke-linejoin:miter;stroke-miterlimit:4;stroke-dasharray:none;stroke-opacity:1"
     d="M 152.20156,362.18268 68.10409,350.76781"
     id="path6565"
     inkscape:connector-curvature="0"
     sodipodi:nodetypes="cc" />
  <path
     style="opacity:0.57700004;fill:none;stroke:#7f00ff;stroke-width:16;stroke-linecap:butt;stroke-linejoin:miter;stroke-miterlimit:4;stroke-dasharray:none;stroke-opacity:1"
     d="m 156.46415,328.72051 c 0,0 -20.40694,-2.63932 -30.59917,-4.04227 -17.61136,-2.42419 -52.79367,-7.56021 -52.79367,-7.56021"
     id="path6567"
     inkscape:connector-curvature="0"
     sodipodi:nodetypes="cac" />
  <path
     style="opacity:0.48900003;fill:none;stroke:#00ff00;stroke-width:18;stroke-linecap:butt;stroke-linejoin:miter;stroke-miterlimit:4;stroke-dasharray:none;stroke-opacity:1"
     d="M 70.48324,333.99418 -19.67741,320.9677"
     id="path6571"
     inkscape:connector-curvature="0"
     sodipodi:nodetypes="cc" />
  <path
     style="opacity:0.69499966;fill:none;stroke:#7fff00;stroke-width:16;stroke-linecap:butt;stroke-linejoin:miter;stroke-miterlimit:4;stroke-dasharray:none;stroke-opacity:1"
     d="M 68.10409,350.76781 6.5114474,341.90134"
     id="path6573"
     inkscape:connector-curvature="0"
     sodipodi:nodetypes="cc" />
  <path
     style="opacity:0.56199999;fill:none;stroke:#ff7f00;stroke-width:16;stroke-linecap:butt;stroke-linejoin:miter;stroke-miterlimit:4;stroke-dasharray:none;stroke-opacity:1"
     d="M 73.07131,317.11803 -17.44386,304.14504"
     id="path6575"
     inkscape:connector-curvature="0"
     sodipodi:nodetypes="cc" />
  <path
     style="opacity:0.58499995;fill:none;stroke:#ff7f00;stroke-width:16;stroke-linecap:butt;stroke-linejoin:miter;stroke-miterlimit:4;stroke-dasharray:none;stroke-opacity:1"
     d="m 690.96655,387.9891 c 0,0 -10.64297,-2.97766 -16.05305,-4.07911 -2.88643,-0.58764 -5.81937,-0.91845 -8.73389,-1.34552 -7.34626,-1.07644 -14.70651,-2.05522 -22.06195,-3.06699 -9.05243,-1.24519 -18.10848,-2.46395 -27.16263,-3.69656 -134.71828,-18.34027 -269.50921,-36.15503 -404.15225,-55.03971 -5.65489,-0.79314 -11.28766,-1.74869 -16.95502,-2.44719 -6.31034,-0.77775 -12.62075,-1.72819 -18.97529,-1.94067 -10.4575,-0.34966 -20.91185,0.79502 -31.37073,1.10066 -9.33695,0.27285 -18.67916,0.35096 -28.01516,0.65448 -6.92276,0.22507 -13.83605,0.99486 -20.76125,0.86506 -7.90803,-0.14822 -23.65402,-1.87552 -23.65402,-1.87552"
     id="path6577"
     inkscape:connector-curvature="0"
     sodipodi:nodetypes="caaaaaaaaaac" />
  <path
     style="fill:none;stroke:#00ff00;stroke-width:16;stroke-linecap:butt;stroke-linejoin:miter;stroke-miterlimit:4;stroke-dasharray:none;stroke-opacity:1"
     d="M 6.5114474,341.90134 -22.039283,337.69497"
     id="path7656"
     inkscape:connector-curvature="0"
     sodipodi:nodetypes="cc" />
</svg>
