<?xml version="1.0" encoding="UTF-8" standalone="no"?>
<!-- Created with Inkscape (http://www.inkscape.org/) -->

<svg
   xmlns:dc="http://purl.org/dc/elements/1.1/"
   xmlns:cc="http://creativecommons.org/ns#"
   xmlns:rdf="http://www.w3.org/1999/02/22-rdf-syntax-ns#"
   xmlns:svg="http://www.w3.org/2000/svg"
   xmlns="http://www.w3.org/2000/svg"
   xmlns:xlink="http://www.w3.org/1999/xlink"
   xmlns:sodipodi="http://sodipodi.sourceforge.net/DTD/sodipodi-0.dtd"
   xmlns:inkscape="http://www.inkscape.org/namespaces/inkscape"
   version="1.1"
   id="svg10858"
   width="350"
   height="350"
   viewBox="0 0 350 350"
   sodipodi:docname="i7757120_-363720.svg"
   inkscape:version="0.92.2 (unknown)">
  <metadata
     id="metadata10864">
    <rdf:RDF>
      <cc:Work
         rdf:about="">
        <dc:format>image/svg+xml</dc:format>
        <dc:type
           rdf:resource="http://purl.org/dc/dcmitype/StillImage" />
        <dc:title></dc:title>
      </cc:Work>
    </rdf:RDF>
  </metadata>
  <defs
     id="defs10862" />
  <sodipodi:namedview
     pagecolor="#ffffff"
     bordercolor="#666666"
     borderopacity="1"
     objecttolerance="10"
     gridtolerance="10"
     guidetolerance="10"
     inkscape:pageopacity="0"
     inkscape:pageshadow="2"
     inkscape:window-width="1855"
     inkscape:window-height="1056"
     id="namedview10860"
     showgrid="false"
     inkscape:zoom="2.6114286"
     inkscape:cx="96.91307"
     inkscape:cy="306.02009"
     inkscape:window-x="65"
     inkscape:window-y="24"
     inkscape:window-maximized="1"
     inkscape:current-layer="svg10858" />
  <image
     width="350"
     height="350"
     preserveAspectRatio="none"
     xlink:href="carmen_lcad/data/road_mapper_remission_350px/voltadaufes/i7757120_-363720.png"
     id="image10866"
     x="0"
     y="0"
     sodipodi:absref="carmen_lcad/data/road_mapper_remission_350px/voltadaufes/i7757120_-363720.png" />
  <image
     width="350"
     height="350"
     preserveAspectRatio="none"
     xlink:href="carmen_lcad/data/road_mapper_remission_350px/voltadaufes/i7757050_-363720.png"
     id="image10422"
     x="-350"
     y="0"
     sodipodi:absref="carmen_lcad/data/road_mapper_remission_350px/voltadaufes/i7757050_-363720.png" />
  <image
     sodipodi:absref="carmen_lcad/data/road_mapper_remission_350px/voltadaufes/i7757120_-363650.png"
     y="-350"
     x="0"
     id="image10616"
     xlink:href="carmen_lcad/data/road_mapper_remission_350px/voltadaufes/i7757120_-363650.png"
     preserveAspectRatio="none"
     height="350"
     width="350" />
  <image
     width="350"
     height="350"
     preserveAspectRatio="none"
     xlink:href="carmen_lcad/data/road_mapper_remission_350px/voltadaufes/i7756980_-363720.png"
     id="image10079"
     x="-700"
     y="0"
     sodipodi:absref="carmen_lcad/data/road_mapper_remission_350px/voltadaufes/i7756980_-363720.png" />
  <path
     style="display:none;opacity:0.28999999;fill:none;stroke:#00ff00;stroke-width:25;stroke-linecap:butt;stroke-linejoin:miter;stroke-miterlimit:4;stroke-dasharray:none;stroke-opacity:1"
     d="m 2777.2236,15421.251 -35.7089,-9.988"
     id="path2589"
     inkscape:connector-curvature="0" />
  <path
     style="opacity:0.5;fill:none;stroke:#7fff00;stroke-width:17;stroke-linecap:butt;stroke-linejoin:miter;stroke-miterlimit:4;stroke-dasharray:none;stroke-opacity:1"
     d="m -763.28755,170.31031 98.2148,13.06799"
     id="path9993"
     inkscape:connector-curvature="0"
     sodipodi:nodetypes="cc" />
  <path
     style="opacity:0.57700004;fill:none;stroke:#ff0000;stroke-width:17;stroke-linecap:butt;stroke-linejoin:miter;stroke-miterlimit:4;stroke-dasharray:none;stroke-opacity:1"
     d="M -662.91891,166.71122 -1022.2254,119.26778"
     id="path9995"
     inkscape:connector-curvature="0" />
  <path
     style="opacity:0.63200001;fill:none;stroke:#ff7f00;stroke-width:17;stroke-linecap:butt;stroke-linejoin:miter;stroke-miterlimit:4;stroke-dasharray:none;stroke-opacity:1"
     d="m -721.38645,216.89194 c 0,0 4.07188,-8.96735 6.97552,-12.89992 2.9433,-3.98629 6.53714,-7.52245 10.41549,-10.6066 3.91646,-3.11446 8.15217,-5.99277 12.80436,-7.83551 4.50685,-1.78516 9.40182,-2.62634 14.2377,-2.9622 3.95943,-0.27499 11.88063,0.79059 11.88063,0.79059"
     id="path10007"
     inkscape:connector-curvature="0"
     sodipodi:nodetypes="caaaac" />
  <path
     style="opacity:0.57399998;fill:none;stroke:#ff0000;stroke-width:17;stroke-linecap:butt;stroke-linejoin:miter;stroke-miterlimit:4;stroke-dasharray:none;stroke-opacity:1"
     d="m -665.07275,183.3783 c 120.11049,12.90972 221.97898,28.34703 330.58151,42.74316"
     id="path10344"
     inkscape:connector-curvature="0"
     sodipodi:nodetypes="cc" />
  <path
     style="opacity:0.61400003;fill:none;stroke:#ff0000;stroke-width:17;stroke-linecap:butt;stroke-linejoin:miter;stroke-miterlimit:4;stroke-dasharray:none;stroke-opacity:1"
     d="M -332.76806,209.84685 -528.44638,183.0416"
     id="path10346"
     inkscape:connector-curvature="0"
     sodipodi:nodetypes="cc" />
  <path
     style="opacity:0.58800001;fill:none;stroke:#7fff00;stroke-width:17;stroke-linecap:butt;stroke-linejoin:miter;stroke-miterlimit:4;stroke-dasharray:none;stroke-opacity:1"
     d="m -528.44638,183.0416 -42.88841,-5.36105"
     id="path10348"
     inkscape:connector-curvature="0" />
  <path
     style="opacity:0.55899999;fill:none;stroke:#ff0000;stroke-width:17;stroke-linecap:butt;stroke-linejoin:miter;stroke-miterlimit:4;stroke-dasharray:none;stroke-opacity:1"
     d="m -571.33479,177.68055 -91.58412,-10.96933"
     id="path10350"
     inkscape:connector-curvature="0" />
  <path
     style="opacity:0.61000001;fill:none;stroke:#ff0000;stroke-width:17;stroke-linecap:butt;stroke-linejoin:miter;stroke-miterlimit:4;stroke-dasharray:none;stroke-opacity:1"
     d="m -334.49124,226.12146 c 0,0 25.77339,3.9986 38.65214,6.04826 6.56044,1.0441 13.09474,2.25907 19.6731,3.18359 6.59537,0.92691 19.83968,2.36844 19.83968,2.36844"
     id="path10762"
     inkscape:connector-curvature="0"
     sodipodi:nodetypes="caac" />
  <path
     style="opacity:0.61799999;fill:none;stroke:#00ff00;stroke-width:17;stroke-linecap:butt;stroke-linejoin:miter;stroke-miterlimit:4;stroke-dasharray:none;stroke-opacity:1"
     d="m -256.32632,237.72175 c 0,0 14.76455,1.40173 22.09178,0.63733 5.81511,-0.60666 11.58412,-2.04029 17.0508,-4.1137 4.53189,-1.71886 8.58661,-4.49987 12.84136,-6.82144 5.05465,-2.75804 10.07223,-5.58417 15.07041,-8.44327 4.8477,-2.77302 14.46833,-8.44842 14.46833,-8.44842"
     id="path10764"
     inkscape:connector-curvature="0"
     sodipodi:nodetypes="caaaac" />
  <path
     style="opacity:0.53299997;fill:none;stroke:#ff0000;stroke-width:17;stroke-linecap:butt;stroke-linejoin:miter;stroke-miterlimit:4;stroke-dasharray:none;stroke-opacity:1"
     d="M -174.80364,210.5322 C -105.47282,169.4703 -41.047498,131.64353 25.735662,92.619781"
     id="path10766"
     inkscape:connector-curvature="0"
     sodipodi:nodetypes="cc" />
  <path
     style="opacity:0.59200003;fill:none;stroke:#ff0000;stroke-width:17;stroke-linecap:butt;stroke-linejoin:miter;stroke-miterlimit:4;stroke-dasharray:none;stroke-opacity:1"
     d="m 16.898672,78.684541 c -40.46001,23.525449 -71.71412,41.713079 -107.49475,62.700279 -30.884912,18.1156 -92.522242,54.57204 -92.522242,54.57204"
     id="path10768"
     inkscape:connector-curvature="0"
     sodipodi:nodetypes="cac" />
  <path
     style="opacity:0.63999999;fill:none;stroke:#7fff00;stroke-width:17;stroke-linecap:butt;stroke-linejoin:miter;stroke-miterlimit:4;stroke-dasharray:none;stroke-opacity:1"
     d="m -301.97729,214.24655 -30.79077,-4.3997"
     id="path10770"
     inkscape:connector-curvature="0"
     sodipodi:nodetypes="cc" />
  <path
     style="opacity:0.65100002;fill:none;stroke:#ff7f00;stroke-width:17;stroke-linecap:butt;stroke-linejoin:miter;stroke-miterlimit:4;stroke-dasharray:none;stroke-opacity:1"
     d="m -183.11832,195.95686 c 0,0 -5.33359,2.96431 -7.96484,4.50815 -3.28531,1.9276 -6.46693,4.02936 -9.76477,5.93545 -4.19166,2.4227 -8.45579,4.71928 -12.73249,6.98851 -3.76949,2.0001 -7.33418,4.51999 -11.39224,5.83972 -5.49809,1.78804 -11.36321,2.36648 -17.13621,2.68051 -4.11489,0.22385 -12.34956,-0.5744 -12.34956,-0.5744"
     id="path10772"
     inkscape:connector-curvature="0"
     sodipodi:nodetypes="csaaaac" />
  <path
     style="opacity:0.544;fill:none;stroke:#ff0000;stroke-width:17;stroke-linecap:butt;stroke-linejoin:miter;stroke-miterlimit:4;stroke-dasharray:none;stroke-opacity:1"
     d="m -254.45843,221.3348 c 0,0 -13.93722,-1.47817 -20.8698,-2.48911 -8.92,-1.30076 -26.64906,-4.59921 -26.64906,-4.59921"
     id="path10774"
     inkscape:connector-curvature="0"
     sodipodi:nodetypes="cac" />
  <path
     style="opacity:0.56600001;fill:none;stroke:#ff7f00;stroke-width:17;stroke-linecap:butt;stroke-linejoin:miter;stroke-miterlimit:4;stroke-dasharray:none;stroke-opacity:1"
     d="m -256.32632,237.72175 c 0,0 9.84518,1.48045 14.50465,3.14261 6.47898,2.31123 12.80332,5.35551 18.38074,9.38183 5.37897,3.8831 9.67821,9.0935 14.16849,13.977 5.39815,5.871 15.31729,18.3808 15.31729,18.3808"
     id="path10784"
     inkscape:connector-curvature="0"
     sodipodi:nodetypes="caaac" />
  <path
     style="opacity:0.57399998;fill:none;stroke:#ff7f00;stroke-width:17;stroke-linecap:butt;stroke-linejoin:miter;stroke-miterlimit:4;stroke-dasharray:none;stroke-opacity:1"
     d="m -188.0197,278.20029 c 0,0 -4.31718,-7.7632 -4.97812,-12.0624 -1.01234,-6.5849 0.40835,-13.3812 1.7232,-19.91249 1.11135,-5.52043 2.93563,-10.91404 5.16958,-16.08315 2.19851,-5.08713 4.47473,-10.30997 8.04158,-14.55142 2.58409,-3.07283 9.38673,-7.54769 9.38673,-7.54769"
     id="path10786"
     inkscape:connector-curvature="0"
     sodipodi:nodetypes="caaaac" />
  <path
     style="opacity:0.61799999;fill:none;stroke:#ff7f00;stroke-width:14.5;stroke-linecap:butt;stroke-linejoin:miter;stroke-miterlimit:4;stroke-dasharray:none;stroke-opacity:1"
     d="m -197.06307,280.48619 c 8.45143,10.1252 16.40445,20.2503 24.13634,30.3755"
     id="path10788"
     inkscape:connector-curvature="0"
     sodipodi:nodetypes="cc" />
  <path
     style="opacity:0.58800001;fill:none;stroke:#ff7f00;stroke-width:14.5;stroke-linecap:butt;stroke-linejoin:miter;stroke-miterlimit:4;stroke-dasharray:none;stroke-opacity:1"
     d="m -165.6446,305.27309 c -7.61726,-9.8026 -16.27821,-20.7633 -23.07469,-31.0994"
     id="path10790"
     inkscape:connector-curvature="0"
     sodipodi:nodetypes="cc" />
  <path
     style="opacity:0.54799996;fill:none;stroke:#ff7f00;stroke-width:12;stroke-linecap:butt;stroke-linejoin:miter;stroke-miterlimit:4;stroke-dasharray:none;stroke-opacity:1"
     d="m -176.14881,308.06899 27.95405,38.1017"
     id="path10792"
     inkscape:connector-curvature="0"
     sodipodi:nodetypes="cc" />
  <path
     style="opacity:0.54799996;fill:none;stroke:#ff7f00;stroke-width:12;stroke-linecap:butt;stroke-linejoin:miter;stroke-miterlimit:4;stroke-dasharray:none;stroke-opacity:1"
     d="m -138.90866,339.18219 -27.28391,-37.1444"
     id="path10794"
     inkscape:connector-curvature="0"
     sodipodi:nodetypes="cc" />
  <path
     style="opacity:0.54799996;fill:none;stroke:#ff0000;stroke-width:17;stroke-linecap:butt;stroke-linejoin:miter;stroke-miterlimit:4;stroke-dasharray:none;stroke-opacity:1"
     d="m 25.735662,92.619781 c 0,0 64.149981,-35.303549 95.913168,-53.506741 C 139.56878,28.84328 157.4498,18.494733 175.04971,7.6856718 184.58264,1.8309844 203.31274,-10.41371 203.31274,-10.41371"
     id="path11115"
     inkscape:connector-curvature="0"
     sodipodi:nodetypes="caac" />
  <path
     style="opacity:0.53299997;fill:none;stroke:#ff0000;stroke-width:17;stroke-linecap:butt;stroke-linejoin:miter;stroke-miterlimit:4;stroke-dasharray:none;stroke-opacity:1"
     d="m 193.93984,-24.368189 c 0,0 -16.18693,11.281962 -24.55549,16.4979663 C 156.82005,-0.03906588 143.73096,6.9168907 130.90957,14.319633 112.56212,24.912977 94.328447,35.705233 75.882401,46.125948 56.329135,57.172164 16.898672,78.684541 16.898672,78.684541"
     id="path11117"
     inkscape:connector-curvature="0"
     sodipodi:nodetypes="caaac" />
</svg>
