<?xml version="1.0" encoding="UTF-8" standalone="no"?>
<!-- Created with Inkscape (http://www.inkscape.org/) -->

<svg
   xmlns:dc="http://purl.org/dc/elements/1.1/"
   xmlns:cc="http://creativecommons.org/ns#"
   xmlns:rdf="http://www.w3.org/1999/02/22-rdf-syntax-ns#"
   xmlns:svg="http://www.w3.org/2000/svg"
   xmlns="http://www.w3.org/2000/svg"
   xmlns:xlink="http://www.w3.org/1999/xlink"
   xmlns:sodipodi="http://sodipodi.sourceforge.net/DTD/sodipodi-0.dtd"
   xmlns:inkscape="http://www.inkscape.org/namespaces/inkscape"
   version="1.1"
   id="svg5377"
   width="350"
   height="350"
   viewBox="0 0 350 350"
   sodipodi:docname="i7757470_-364210.svg"
   inkscape:version="0.92.2 (unknown)">
  <metadata
     id="metadata5383">
    <rdf:RDF>
      <cc:Work
         rdf:about="">
        <dc:format>image/svg+xml</dc:format>
        <dc:type
           rdf:resource="http://purl.org/dc/dcmitype/StillImage" />
        <dc:title />
      </cc:Work>
    </rdf:RDF>
  </metadata>
  <defs
     id="defs5381" />
  <sodipodi:namedview
     pagecolor="#ffffff"
     bordercolor="#666666"
     borderopacity="1"
     objecttolerance="10"
     gridtolerance="10"
     guidetolerance="10"
     inkscape:pageopacity="0"
     inkscape:pageshadow="2"
     inkscape:window-width="1855"
     inkscape:window-height="1056"
     id="namedview5379"
     showgrid="false"
     inkscape:zoom="7.3862356"
     inkscape:cx="195.08622"
     inkscape:cy="268.01699"
     inkscape:window-x="65"
     inkscape:window-y="24"
     inkscape:window-maximized="1"
     inkscape:current-layer="svg5377"
     inkscape:measure-start="237.226,407.057"
     inkscape:measure-end="269.967,391.931" />
  <image
     y="-350"
     x="0"
     id="image7332"
     preserveAspectRatio="none"
     height="350"
     width="350"
     xlink:href="/home/rcarneiro/carmen_lcad/data/road_mapper_remission_350px/voltadaufes/i7757470_-364140.png"
     sodipodi:absref="/home/rcarneiro/carmen_lcad/data/road_mapper_remission_350px/voltadaufes/i7757470_-364140.png" />
  <image
     sodipodi:absref="carmen_lcad/data/road_mapper_remission_350px/voltadaufes/i7757470_-364210.png"
     xlink:href="carmen_lcad/data/road_mapper_remission_350px/voltadaufes/i7757470_-364210.png"
     y="0"
     x="0"
     id="image5385"
     preserveAspectRatio="none"
     height="350"
     width="350" />
  <path
     style="fill:none;stroke:#0000ff;stroke-width:18;stroke-linecap:butt;stroke-linejoin:miter;stroke-miterlimit:4;stroke-dasharray:none;stroke-opacity:1;opacity:1"
     d="m 34.84683,59.737418 c 0,0 -61.51529,-8.745095 -92.28665,-13.019694 -29.85997,-4.147994 -59.76569,-7.967601 -89.60613,-12.253829 -23.76539,-3.413618 -47.47454,-7.208663 -71.22538,-10.722101 -14.42359,-2.133668 -43.28697,-6.290564 -43.28697,-6.290564"
     id="path5346"
     inkscape:connector-curvature="0"
     sodipodi:nodetypes="caaac" />
  <path
     style="fill:none;stroke:#7f00ff;stroke-width:17;stroke-linecap:butt;stroke-linejoin:miter;stroke-miterlimit:4;stroke-dasharray:none;stroke-opacity:1;opacity:1"
     d="m 32.68851,75.818166 c 0,0 -89.75484,-11.961368 -134.59388,-18.221162 -58.50592,-8.167769 -116.95128,-16.763836 -175.41458,-25.231251 -19.2337,-2.785675 -57.69293,-8.413273 -57.69293,-8.413273"
     id="path5344"
     inkscape:connector-curvature="0"
     sodipodi:nodetypes="caac" />
  <path
     style="fill:none;stroke:#ff007f;stroke-width:16;stroke-linecap:butt;stroke-linejoin:miter;stroke-miterlimit:4;stroke-dasharray:none;stroke-opacity:1;opacity:1"
     d="m 5.7923233,38.515413 c 0,0 -15.1288653,-2.21669 -22.6986933,-3.287339 -17.651141,-2.496514 -35.31022,-4.937757 -52.978,-7.313666 -9.01137,-1.211822 -18.03718,-2.315064 -27.0467,-3.540582 -8.45751,-1.150432 -16.8941,-2.452509 -25.35486,-3.578848 -8.42853,-1.122049 -25.31132,-3.166868 -25.31132,-3.166868"
     id="path5348"
     inkscape:connector-curvature="0"
     sodipodi:nodetypes="caaaac" />
  <path
     style="opacity:1;fill:none;stroke:#0000ff;stroke-width:18;stroke-linecap:butt;stroke-linejoin:miter;stroke-miterlimit:4;stroke-dasharray:none;stroke-opacity:1"
     d="M 99.301104,64.152411 C 61.615654,61.625767 83.553718,63.789952 34.84683,59.737418"
     id="path5660"
     inkscape:connector-curvature="0"
     sodipodi:nodetypes="cc" />
  <path
     style="opacity:1;fill:none;stroke:#7f00ff;stroke-width:17;stroke-linecap:butt;stroke-linejoin:miter;stroke-miterlimit:4;stroke-dasharray:none;stroke-opacity:1"
     d="m 98.175527,81.463666 c 0,0 -22.707148,-1.785001 -34.053348,-2.76547 C 53.639468,77.792344 32.68851,75.818166 32.68851,75.818166"
     id="path5662"
     inkscape:connector-curvature="0"
     sodipodi:nodetypes="cac" />
  <path
     style="opacity:1;fill:none;stroke:#ff007f;stroke-width:17;stroke-linecap:butt;stroke-linejoin:miter;stroke-miterlimit:4;stroke-dasharray:none;stroke-opacity:1"
     d="M 98.527984,46.745637 C 90.785331,46.164552 67.050212,45.152297 51.357254,43.753479 36.129289,42.396108 5.7923233,38.515413 5.7923233,38.515413"
     id="path5664"
     inkscape:connector-curvature="0"
     sodipodi:nodetypes="cac" />
  <path
     style="fill:none;stroke:#00ff00;stroke-width:18;stroke-linecap:butt;stroke-linejoin:miter;stroke-miterlimit:4;stroke-dasharray:none;stroke-opacity:1"
     d="M 205.78819,72.727494 99.301104,64.152411"
     id="path5755"
     inkscape:connector-curvature="0"
     sodipodi:nodetypes="cc" />
  <path
     style="fill:none;stroke:#7fff00;stroke-width:17;stroke-linecap:butt;stroke-linejoin:miter;stroke-miterlimit:4;stroke-dasharray:none;stroke-opacity:1"
     d="M 204.56971,89.921639 98.175527,81.463666"
     id="path5757"
     inkscape:connector-curvature="0"
     sodipodi:nodetypes="cc" />
  <path
     style="fill:none;stroke:#00ff00;stroke-width:17;stroke-linecap:butt;stroke-linejoin:miter;stroke-miterlimit:4;stroke-dasharray:none;stroke-opacity:1"
     d="M 207.23497,55.767287 C 167.98218,52.625092 134.78054,50.031143 98.527984,46.745637"
     id="path5759"
     inkscape:connector-curvature="0"
     sodipodi:nodetypes="cc" />
  <path
     style="opacity:1;fill:none;stroke:#ff7f00;stroke-width:17;stroke-linecap:butt;stroke-linejoin:miter;stroke-miterlimit:4;stroke-dasharray:none;stroke-opacity:1"
     d="m 220.6222,-9.8372761 c -5.41256,8.4245074 -13.21018,20.7817671 -21.92554,29.3269581 -7.57055,7.422738 -16.18418,14.172181 -25.84525,18.539564 -8.88899,4.018356 -18.88285,5.040695 -28.51529,6.582566 -7.54334,1.207467 -15.19182,1.745272 -22.82415,2.073062 -7.88563,0.338668 -15.70244,0.211445 -23.678437,-0.112159"
     id="path5666"
     inkscape:connector-curvature="0"
     sodipodi:nodetypes="caaaac" />
  <path
     style="opacity:1;fill:none;stroke:#7fff00;stroke-width:18;stroke-linecap:butt;stroke-linejoin:miter;stroke-miterlimit:4;stroke-dasharray:none;stroke-opacity:1"
     d="m 245.77821,-14.404164 c -8.64321,13.78555769 -15.38168,24.421423 -22.07715,33.259088 -6.69548,8.837666 -11.85794,13.919205 -18.7908,19.819574 -6.74278,5.7386 -10.0589,8.397665 -21.95004,14.958791"
     id="path5668"
     inkscape:connector-curvature="0"
     sodipodi:nodetypes="ccac" />
  <path
     style="opacity:0.51099997;fill:none;stroke:#ff0000;stroke-width:16;stroke-linecap:butt;stroke-linejoin:miter;stroke-miterlimit:4;stroke-dasharray:none;stroke-opacity:1"
     d="m 258.70237,-120.19026 c -0.43093,11.83835 -1.34665,21.126522 -3.12352,31.541182 -1.09279,6.40513 -2.66681,12.74044 -4.61958,18.93774 -2.14198,6.79775 -4.83844,13.42273 -7.75672,19.92513 -2.5363,5.6513 -5.5044,11.10179 -8.45687,16.54724 -3.63937,6.71232 -7.34195,13.40061 -11.40536,19.86504 -5.64969,8.9880199 -8.80695,14.6217859 -18.01326,26.265066"
     id="path10033"
     inkscape:connector-curvature="0"
     sodipodi:nodetypes="caaaaac" />
  <path
     style="opacity:0.531;fill:none;stroke:#ff0000;stroke-width:16;stroke-linecap:butt;stroke-linejoin:miter;stroke-miterlimit:4;stroke-dasharray:none;stroke-opacity:1"
     d="m 272.94012,-162.46436 c 0,0 6.16345,20.35108 7.04012,30.86823 1.0364,12.43339 -0.0311,25.07434 -2.16619,37.366802 -2.18964,12.60625 -6.54735,24.76861 -10.83096,36.82526 -3.44888,9.70722 -7.20203,19.3581 -11.94126,28.50493 -8.7558,16.89887 -17.90218,29.5620859 -30.29947,48.394856"
     id="path10690"
     inkscape:connector-curvature="0"
     sodipodi:nodetypes="caaaac" />
</svg>
