<?xml version="1.0" encoding="UTF-8" standalone="no"?>
<!-- Created with Inkscape (http://www.inkscape.org/) -->

<svg
   xmlns:dc="http://purl.org/dc/elements/1.1/"
   xmlns:cc="http://creativecommons.org/ns#"
   xmlns:rdf="http://www.w3.org/1999/02/22-rdf-syntax-ns#"
   xmlns:svg="http://www.w3.org/2000/svg"
   xmlns="http://www.w3.org/2000/svg"
   xmlns:xlink="http://www.w3.org/1999/xlink"
   xmlns:sodipodi="http://sodipodi.sourceforge.net/DTD/sodipodi-0.dtd"
   xmlns:inkscape="http://www.inkscape.org/namespaces/inkscape"
   version="1.1"
   id="svg8075"
   width="350"
   height="350"
   viewBox="0 0 350 350"
   sodipodi:docname="i7756630_-363720.svg"
   inkscape:version="0.92.2 (unknown)">
  <metadata
     id="metadata8081">
    <rdf:RDF>
      <cc:Work
         rdf:about="">
        <dc:format>image/svg+xml</dc:format>
        <dc:type
           rdf:resource="http://purl.org/dc/dcmitype/StillImage" />
        <dc:title></dc:title>
      </cc:Work>
    </rdf:RDF>
  </metadata>
  <defs
     id="defs8079" />
  <sodipodi:namedview
     pagecolor="#ffffff"
     bordercolor="#666666"
     borderopacity="1"
     objecttolerance="10"
     gridtolerance="10"
     guidetolerance="10"
     inkscape:pageopacity="0"
     inkscape:pageshadow="2"
     inkscape:window-width="1855"
     inkscape:window-height="1056"
     id="namedview8077"
     showgrid="false"
     inkscape:zoom="1.3057143"
     inkscape:cx="252.80593"
     inkscape:cy="328.61681"
     inkscape:window-x="65"
     inkscape:window-y="24"
     inkscape:window-maximized="1"
     inkscape:current-layer="svg8075" />
  <image
     width="350"
     height="350"
     preserveAspectRatio="none"
     xlink:href="carmen_lcad/data/road_mapper_remission_350px/voltadaufes/i7756630_-363720.png"
     id="image8083"
     x="0"
     y="0"
     sodipodi:absref="carmen_lcad/data/road_mapper_remission_350px/voltadaufes/i7756630_-363720.png" />
  <image
     width="350"
     height="350"
     preserveAspectRatio="none"
     xlink:href="carmen_lcad/data/road_mapper_remission_350px/voltadaufes/i7756560_-363720.png"
     id="image7493"
     x="-350.00003"
     y="0"
     sodipodi:absref="carmen_lcad/data/road_mapper_remission_350px/voltadaufes/i7756560_-363720.png" />
  <image
     width="350"
     height="350"
     preserveAspectRatio="none"
     xlink:href="carmen_lcad/data/road_mapper_remission_350px/voltadaufes/i7756560_-363790.png"
     id="image7298"
     x="-350"
     y="350"
     sodipodi:absref="carmen_lcad/data/road_mapper_remission_350px/voltadaufes/i7756560_-363790.png" />
  <image
     width="350"
     height="350"
     preserveAspectRatio="none"
     xlink:href="carmen_lcad/data/road_mapper_remission_350px/voltadaufes/i7756490_-363790.png"
     id="image6834"
     x="-700.00006"
     y="350"
     sodipodi:absref="carmen_lcad/data/road_mapper_remission_350px/voltadaufes/i7756490_-363790.png" />
  <path
     style="display:none;opacity:0.28999999;fill:none;stroke:#00ff00;stroke-width:25;stroke-linecap:butt;stroke-linejoin:miter;stroke-miterlimit:4;stroke-dasharray:none;stroke-opacity:1"
     d="m 4137.5439,11188.133 -35.7089,-9.988"
     id="path2589"
     inkscape:connector-curvature="0" />
  <path
     style="opacity:0.57700004;fill:none;stroke:#ff0000;stroke-width:17;stroke-linecap:butt;stroke-linejoin:miter;stroke-miterlimit:4;stroke-dasharray:none;stroke-opacity:1"
     d="m -510.05209,886.88346 c 0,0 1.87155,-13.9284 2.93254,-20.8742 2.40325,-15.7329 5.4005,-31.3717 7.77599,-47.1088 2.07198,-13.7264 3.6639,-27.5216 5.64825,-41.2609 2.09472,-14.5035 4.20369,-29.0071 6.60559,-43.4628 1.35529,-8.1569 2.63897,-16.3338 4.40372,-24.412 2.46128,-11.2665 8.61597,-33.5065 8.61597,-33.5065"
     id="path6760"
     inkscape:connector-curvature="0"
     sodipodi:nodetypes="caaaaac" />
  <path
     style="opacity:0.478;fill:none;stroke:#ff0000;stroke-width:17;stroke-linecap:butt;stroke-linejoin:miter;stroke-miterlimit:4;stroke-dasharray:none;stroke-opacity:1"
     d="m -490.38813,671.96676 c 0,0 -3.67152,13.7419 -5.38263,20.6445 -1.78068,7.1833 -3.63383,14.355 -5.08183,21.6127 -1.57598,7.8991 -2.68729,15.8845 -3.91942,23.8445 -1.55931,10.0738 -2.9675,20.1705 -4.39526,30.2638 -1.25354,8.8617 -2.38633,17.7403 -3.66225,26.5987 -1.40532,9.7568 -2.83796,19.5104 -4.39809,29.2436 -1.3621,8.4978 -2.96875,16.9552 -4.33238,25.4527 -1.87062,11.657 -5.28008,35.0223 -5.28008,35.0223"
     id="path6762"
     inkscape:connector-curvature="0"
     sodipodi:nodetypes="caaaaaaac" />
  <path
     style="opacity:0.48500001;fill:none;stroke:#ff0000;stroke-width:17;stroke-linecap:butt;stroke-linejoin:miter;stroke-miterlimit:4;stroke-dasharray:none;stroke-opacity:1"
     d="m -474.07003,676.25826 c 0,0 3.10807,-12.7243 5.48094,-18.808 4.75358,-12.1876 11.07537,-23.7278 17.43029,-35.1623 8.66328,-15.5881 17.3402,-31.314 28.16049,-45.4901 10.44311,-13.6819 22.59197,-26.059 35.18137,-37.7962 13.62049,-12.6984 28.84985,-23.5556 43.45523,-35.1077 12.69155,-10.0383 25.58164,-19.823 38.3842,-29.7194 22.59262,-17.4641 45.20643,-34.9007 67.81925,-52.3387 39.19373,-30.2243 117.61443,-90.6299 117.61443,-90.6299"
     id="path7224"
     inkscape:connector-curvature="0"
     sodipodi:nodetypes="caaaaaaac" />
  <path
     style="opacity:0.54000005;fill:none;stroke:#ff0000;stroke-width:17;stroke-linecap:butt;stroke-linejoin:miter;stroke-miterlimit:4;stroke-dasharray:none;stroke-opacity:1"
     d="m -133.54098,319.83346 c 0,0 -35.34778,27.4815 -53.07169,41.1576 -27.92759,21.5495 -56.01712,42.8885 -83.93991,64.4442 -25.86694,19.9686 -51.67105,40.0186 -77.44135,60.1118 -9.56162,7.4552 -19.27391,14.7239 -28.63633,22.4278 -11.01068,9.0602 -22.20361,17.9678 -32.36711,27.969 -9.63741,9.4836 -18.81351,19.3891 -27.0117,30.261 -9.20968,12.2133 -17.22949,25.3227 -24.75258,38.6414 -9.27824,16.4258 -18.31499,33.1272 -25.05621,50.7468 -2.02486,5.2924 -4.57027,16.3737 -4.57027,16.3737"
     id="path7226"
     inkscape:connector-curvature="0"
     sodipodi:nodetypes="caaaaasaac" />
  <image
     sodipodi:absref="carmen_lcad/data/road_mapper_remission_350px/voltadaufes/i7756630_-363650.png"
     y="-350"
     x="-3.0517578e-05"
     id="image7779"
     xlink:href="carmen_lcad/data/road_mapper_remission_350px/voltadaufes/i7756630_-363650.png"
     preserveAspectRatio="none"
     height="350"
     width="350" />
  <image
     sodipodi:absref="carmen_lcad/data/road_mapper_remission_350px/voltadaufes/i7756700_-363720.png"
     y="0"
     x="350"
     id="image7941"
     xlink:href="carmen_lcad/data/road_mapper_remission_350px/voltadaufes/i7756700_-363720.png"
     preserveAspectRatio="none"
     height="350"
     width="350" />
  <image
     sodipodi:absref="carmen_lcad/data/road_mapper_remission_350px/voltadaufes/i7756700_-363650.png"
     y="-350"
     x="350"
     id="image8006"
     xlink:href="carmen_lcad/data/road_mapper_remission_350px/voltadaufes/i7756700_-363650.png"
     preserveAspectRatio="none"
     height="350"
     width="350" />
  <path
     style="opacity:0.59600004;fill:none;stroke:#ff0000;stroke-width:17;stroke-linecap:butt;stroke-linejoin:miter;stroke-miterlimit:4;stroke-dasharray:none;stroke-opacity:1"
     d="M -120.54383,331.20596 40.455982,205.67746"
     id="path8009"
     inkscape:connector-curvature="0"
     sodipodi:nodetypes="cc" />
  <path
     style="opacity:0.49599998;fill:none;stroke:#ff0000;stroke-width:17;stroke-linecap:butt;stroke-linejoin:miter;stroke-miterlimit:4;stroke-dasharray:none;stroke-opacity:1"
     d="M 29.915042,192.82536 -133.54098,319.83346"
     id="path8011"
     inkscape:connector-curvature="0"
     sodipodi:nodetypes="cc" />
  <path
     style="opacity:0.48900003;fill:none;stroke:#ff0000;stroke-width:17;stroke-linecap:butt;stroke-linejoin:miter;stroke-miterlimit:4;stroke-dasharray:none;stroke-opacity:1"
     d="m 40.455982,205.67746 c 0,0 27.817187,-21.3081 41.682968,-32.01773 12.598965,-9.73117 25.00944,-19.70779 37.71882,-29.29431 8.96824,-6.76462 17.88579,-13.61527 27.18818,-19.91247 11.35415,-7.68612 23.11134,-14.76789 34.89328,-21.78067 10.70203,-6.370009 21.44673,-12.693616 32.50279,-18.427203 12.34255,-6.400758 24.90475,-12.411129 37.71881,-17.806347 14.68463,-6.182803 29.67469,-11.657764 44.80306,-16.657548 14.13398,-4.671147 28.48456,-8.687883 42.8884,-12.445295 12.29864,-3.208243 37.14443,-8.615974 37.14443,-8.615974"
     id="path8228"
     inkscape:connector-curvature="0"
     sodipodi:nodetypes="caaaaaaaac" />
  <path
     style="opacity:0.544;fill:none;stroke:#ff0000;stroke-width:17;stroke-linecap:butt;stroke-linejoin:miter;stroke-miterlimit:4;stroke-dasharray:none;stroke-opacity:1"
     d="m 373.35886,12.253829 c 0,0 -25.4347,5.85334 -38.06093,9.143915 -12.64295,3.294933 -25.27899,6.658658 -37.73242,10.609942 -11.1914,3.550859 -22.24869,7.532602 -33.20294,11.758739 -12.42303,4.792787 -24.78024,9.796212 -36.85441,15.410202 -11.85995,5.514389 -23.43687,11.634528 -34.90456,17.92414 -12.44718,6.82683 -24.79716,13.861629 -36.76945,21.490658 -12.17794,7.760075 -23.95985,16.137955 -35.61269,24.666275 -14.41052,10.54656 -28.247517,21.85525 -42.393315,32.75431 -15.954491,12.29262 -47.913103,36.81335 -47.913103,36.81335"
     id="path8230"
     inkscape:connector-curvature="0"
     sodipodi:nodetypes="caaaaaaaac" />
</svg>
