<?xml version="1.0" encoding="UTF-8" standalone="no"?>
<!-- Created with Inkscape (http://www.inkscape.org/) -->

<svg
   xmlns:dc="http://purl.org/dc/elements/1.1/"
   xmlns:cc="http://creativecommons.org/ns#"
   xmlns:rdf="http://www.w3.org/1999/02/22-rdf-syntax-ns#"
   xmlns:svg="http://www.w3.org/2000/svg"
   xmlns="http://www.w3.org/2000/svg"
   xmlns:xlink="http://www.w3.org/1999/xlink"
   xmlns:sodipodi="http://sodipodi.sourceforge.net/DTD/sodipodi-0.dtd"
   xmlns:inkscape="http://www.inkscape.org/namespaces/inkscape"
   version="1.1"
   id="svg8534"
   width="350"
   height="350"
   viewBox="0 0 350 350"
   sodipodi:docname="i7756700_-363720.svg"
   inkscape:version="0.92.2 (unknown)">
  <metadata
     id="metadata8540">
    <rdf:RDF>
      <cc:Work
         rdf:about="">
        <dc:format>image/svg+xml</dc:format>
        <dc:type
           rdf:resource="http://purl.org/dc/dcmitype/StillImage" />
        <dc:title></dc:title>
      </cc:Work>
    </rdf:RDF>
  </metadata>
  <defs
     id="defs8538" />
  <sodipodi:namedview
     pagecolor="#ffffff"
     bordercolor="#666666"
     borderopacity="1"
     objecttolerance="10"
     gridtolerance="10"
     guidetolerance="10"
     inkscape:pageopacity="0"
     inkscape:pageshadow="2"
     inkscape:window-width="1855"
     inkscape:window-height="1056"
     id="namedview8536"
     showgrid="false"
     inkscape:zoom="2.4344921"
     inkscape:cx="143.71537"
     inkscape:cy="324.36733"
     inkscape:window-x="65"
     inkscape:window-y="24"
     inkscape:window-maximized="1"
     inkscape:current-layer="svg8534" />
  <image
     width="350"
     height="350"
     preserveAspectRatio="none"
     xlink:href="carmen_lcad/data/road_mapper_remission_350px/voltadaufes/i7756700_-363720.png"
     id="image8542"
     x="0"
     y="0"
     sodipodi:absref="carmen_lcad/data/road_mapper_remission_350px/voltadaufes/i7756700_-363720.png" />
  <image
     width="350"
     height="350"
     preserveAspectRatio="none"
     xlink:href="carmen_lcad/data/road_mapper_remission_350px/voltadaufes/i7756630_-363720.png"
     id="image8083"
     x="-350"
     y="0"
     sodipodi:absref="carmen_lcad/data/road_mapper_remission_350px/voltadaufes/i7756630_-363720.png" />
  <path
     style="display:none;opacity:0.28999999;fill:none;stroke:#00ff00;stroke-width:25;stroke-linecap:butt;stroke-linejoin:miter;stroke-miterlimit:4;stroke-dasharray:none;stroke-opacity:1"
     d="m 4027.9718,12097.109 -35.7089,-9.988"
     id="path2589"
     inkscape:connector-curvature="0" />
  <image
     sodipodi:absref="carmen_lcad/data/road_mapper_remission_350px/voltadaufes/i7756700_-363650.png"
     y="-350"
     x="0"
     id="image8006"
     xlink:href="carmen_lcad/data/road_mapper_remission_350px/voltadaufes/i7756700_-363650.png"
     preserveAspectRatio="none"
     height="350"
     width="350" />
  <path
     style="opacity:0.59600004;fill:none;stroke:#ff0000;stroke-width:17;stroke-linecap:butt;stroke-linejoin:miter;stroke-miterlimit:4;stroke-dasharray:none;stroke-opacity:1"
     d="m -470.54383,331.20595 160.99981,-125.5285"
     id="path8009"
     inkscape:connector-curvature="0"
     sodipodi:nodetypes="cc" />
  <path
     style="opacity:0.49599998;fill:none;stroke:#ff0000;stroke-width:17;stroke-linecap:butt;stroke-linejoin:miter;stroke-miterlimit:4;stroke-dasharray:none;stroke-opacity:1"
     d="m -320.08496,192.82535 -163.45602,127.0081"
     id="path8011"
     inkscape:connector-curvature="0"
     sodipodi:nodetypes="cc" />
  <path
     style="opacity:0.48900003;fill:none;stroke:#ff0000;stroke-width:17;stroke-linecap:butt;stroke-linejoin:miter;stroke-miterlimit:4;stroke-dasharray:none;stroke-opacity:1"
     d="m -309.54402,205.67745 c 0,0 27.81719,-21.3081 41.68297,-32.0177 12.59897,-9.7312 25.00944,-19.7078 37.71882,-29.2943 8.96824,-6.7646 17.88579,-13.6153 27.18818,-19.9125 11.35415,-7.6861 23.11134,-14.7679 34.89328,-21.7806 10.70203,-6.370097 21.44673,-12.693667 32.50279,-18.427247 12.34255,-6.40076 24.90475,-12.41113 37.718812,-17.80635 14.68463,-6.1828 29.67469,-11.65776 44.80306,-16.65755 14.13398,-4.67114 28.48456,-8.68788 42.8884,-12.44529 12.29864,-3.20825 37.14443,-8.61598 37.14443,-8.61598"
     id="path8228"
     inkscape:connector-curvature="0"
     sodipodi:nodetypes="caaaaaaaac" />
  <path
     style="opacity:0.544;fill:none;stroke:#ff0000;stroke-width:17;stroke-linecap:butt;stroke-linejoin:miter;stroke-miterlimit:4;stroke-dasharray:none;stroke-opacity:1"
     d="m 23.358862,12.253853 c 0,0 -25.4347,5.85334 -38.06093,9.14391 -12.64295,3.29494 -25.27899,6.65866 -37.73242,10.60995 -11.1914,3.55086 -22.24869,7.5326 -33.20294,11.75874 -12.42303,4.79278 -24.780242,9.79621 -36.854412,15.4102 -11.85995,5.51439 -23.43687,11.63453 -34.90456,17.92414 -12.44718,6.82683 -24.79716,13.86163 -36.76945,21.49066 -12.17794,7.760097 -23.95985,16.137997 -35.61269,24.666297 -14.41052,10.5465 -28.24751,21.8552 -42.39331,32.7543 -15.95449,12.2926 -47.91311,36.8133 -47.91311,36.8133"
     id="path8230"
     inkscape:connector-curvature="0"
     sodipodi:nodetypes="caaaaaaaac" />
  <image
     sodipodi:absref="carmen_lcad/data/road_mapper_remission_350px/voltadaufes/i7756770_-363720.png"
     y="0"
     x="350"
     id="image8836"
     xlink:href="carmen_lcad/data/road_mapper_remission_350px/voltadaufes/i7756770_-363720.png"
     preserveAspectRatio="none"
     height="350"
     width="350" />
  <image
     sodipodi:absref="carmen_lcad/data/road_mapper_remission_350px/voltadaufes/i7756840_-363720.png"
     y="0"
     x="700"
     id="image8901"
     xlink:href="carmen_lcad/data/road_mapper_remission_350px/voltadaufes/i7756840_-363720.png"
     preserveAspectRatio="none"
     height="350"
     width="350" />
  <image
     sodipodi:absref="carmen_lcad/data/road_mapper_remission_350px/voltadaufes/i7756910_-363720.png"
     y="0"
     x="1050"
     id="image8966"
     xlink:href="carmen_lcad/data/road_mapper_remission_350px/voltadaufes/i7756910_-363720.png"
     preserveAspectRatio="none"
     height="350"
     width="350" />
  <path
     style="opacity:0.53699999;fill:none;stroke:#ff0000;stroke-width:17;stroke-linecap:butt;stroke-linejoin:miter;stroke-miterlimit:4;stroke-dasharray:none;stroke-opacity:1"
     d="m 26.996722,28.719933 c 0,0 19.867182,-3.182371 29.859554,-4.318321 13.340236,-1.516541 26.731364,-2.656001 40.140602,-3.329895 13.882872,-0.697697 27.795292,-0.904133 41.694672,-0.736454 13.90449,0.16774 28.68903,0.755675 42.98712,1.887948 16.73375,1.325153 33.36897,3.695885 50.03062,5.736457 15.43326,1.89013 30.83224,4.050757 46.25472,6.02691 15.55926,1.993679 31.12361,3.947678 46.6904,5.881684 16.98796,2.11057 50.9746,6.24475 50.9746,6.24475"
     id="path8969"
     inkscape:connector-curvature="0"
     sodipodi:nodetypes="caasaaaac" />
  <path
     style="opacity:0.59600004;fill:none;stroke:#ff0000;stroke-width:17;stroke-linecap:butt;stroke-linejoin:miter;stroke-miterlimit:4;stroke-dasharray:none;stroke-opacity:1"
     d="m 377.58957,29.339322 c 0,0 -29.61994,-3.730672 -44.43939,-5.518617 -10.74233,-1.296047 -21.50443,-2.427652 -32.24034,-3.775896 -18.37316,-2.30735 -36.6836,-5.09875 -55.05981,-7.381647 C 230.14156,10.711682 214.42079,8.8406485 198.6702,7.2648548 185.13358,5.9105614 171.60118,4.2936849 158.00671,3.7794126 144.16125,3.2556458 130.29615,3.9623272 116.44266,4.1901759 108.02732,4.3285833 99.604867,4.3309963 91.199899,4.771083 79.094788,5.4049104 67.001856,6.3831221 54.955869,7.7357729 44.382854,8.923023 23.358862,12.253853 23.358862,12.253853"
     id="path8971"
     inkscape:connector-curvature="0"
     sodipodi:nodetypes="caaaaaaaac" />
</svg>
