<?xml version="1.0" encoding="UTF-8" standalone="no"?>
<!-- Created with Inkscape (http://www.inkscape.org/) -->

<svg
   xmlns:dc="http://purl.org/dc/elements/1.1/"
   xmlns:cc="http://creativecommons.org/ns#"
   xmlns:rdf="http://www.w3.org/1999/02/22-rdf-syntax-ns#"
   xmlns:svg="http://www.w3.org/2000/svg"
   xmlns="http://www.w3.org/2000/svg"
   xmlns:xlink="http://www.w3.org/1999/xlink"
   xmlns:sodipodi="http://sodipodi.sourceforge.net/DTD/sodipodi-0.dtd"
   xmlns:inkscape="http://www.inkscape.org/namespaces/inkscape"
   version="1.1"
   id="svg1101"
   width="350"
   height="350"
   viewBox="0 0 350 350"
   sodipodi:docname="i7756700_-364070.svg"
   inkscape:version="0.92.2 (unknown)">
  <metadata
     id="metadata1107">
    <rdf:RDF>
      <cc:Work
         rdf:about="">
        <dc:format>image/svg+xml</dc:format>
        <dc:type
           rdf:resource="http://purl.org/dc/dcmitype/StillImage" />
        <dc:title />
      </cc:Work>
    </rdf:RDF>
  </metadata>
  <defs
     id="defs1105" />
  <sodipodi:namedview
     pagecolor="#ffffff"
     bordercolor="#666666"
     borderopacity="1"
     objecttolerance="10"
     gridtolerance="10"
     guidetolerance="10"
     inkscape:pageopacity="0"
     inkscape:pageshadow="2"
     inkscape:window-width="1855"
     inkscape:window-height="1056"
     id="namedview1103"
     showgrid="false"
     inkscape:zoom="1.8465589"
     inkscape:cx="342.39346"
     inkscape:cy="179.78"
     inkscape:window-x="65"
     inkscape:window-y="24"
     inkscape:window-maximized="1"
     inkscape:current-layer="svg1101" />
  <image
     width="350"
     height="350"
     preserveAspectRatio="none"
     id="image7921-3"
     x="350"
     y="-1.8164062e-06"
     xlink:href="/home/rcarneiro/carmen_lcad/data/road_mapper_remission_350px/voltadaufes/i7756770_-364070.png"
     sodipodi:absref="/home/rcarneiro/carmen_lcad/data/road_mapper_remission_350px/voltadaufes/i7756770_-364070.png" />
  <image
     sodipodi:absref="carmen_lcad/data/road_mapper_remission_350px/voltadaufes/i7756700_-364000.png"
     xlink:href="carmen_lcad/data/road_mapper_remission_350px/voltadaufes/i7756700_-364000.png"
     width="350"
     height="350"
     preserveAspectRatio="none"
     id="image1585"
     x="0"
     y="-350" />
  <image
     sodipodi:absref="carmen_lcad/data/road_mapper_remission_350px/voltadaufes/i7756700_-364070.png"
     xlink:href="carmen_lcad/data/road_mapper_remission_350px/voltadaufes/i7756700_-364070.png"
     y="0"
     x="0"
     id="image1109"
     preserveAspectRatio="none"
     height="350"
     width="350" />
  <path
     style="display:none;opacity:0.28999999;fill:none;stroke:#00ff00;stroke-width:25;stroke-linecap:butt;stroke-linejoin:miter;stroke-miterlimit:4;stroke-dasharray:none;stroke-opacity:1"
     d="m 1372.5789,2966.4913 -35.7089,-9.9879"
     id="path2589"
     inkscape:connector-curvature="0" />
  <image
     sodipodi:absref="carmen_lcad/data/road_mapper_remission_350px/voltadaufes/i7756770_-364140.png"
     xlink:href="carmen_lcad/data/road_mapper_remission_350px/voltadaufes/i7756770_-364140.png"
     width="350"
     height="350"
     preserveAspectRatio="none"
     id="image1016"
     x="350"
     y="350" />
  <image
     sodipodi:absref="carmen_lcad/data/road_mapper_remission_350px/voltadaufes/i7756840_-364070.png"
     xlink:href="carmen_lcad/data/road_mapper_remission_350px/voltadaufes/i7756840_-364070.png"
     y="-1.8164062e-06"
     x="700"
     id="image7355"
     preserveAspectRatio="none"
     height="350"
     width="350" />
  <image
     sodipodi:absref="carmen_lcad/data/road_mapper_remission_350px/voltadaufes/i7756840_-364140.png"
     xlink:href="carmen_lcad/data/road_mapper_remission_350px/voltadaufes/i7756840_-364140.png"
     y="350"
     x="700"
     id="image6992"
     preserveAspectRatio="none"
     height="350"
     width="350" />
  <path
     style="opacity:0.68000034;fill:none;stroke:#0000ff;stroke-width:18;stroke-linecap:butt;stroke-linejoin:miter;stroke-miterlimit:4;stroke-dasharray:none;stroke-opacity:1"
     d="m 600.13059,308.09124 c -42.12622,-6.81883 -84.89437,-13.60199 -127.3362,-20.43636 -46.28671,-7.4535 -93.29329,-15.24385 -138.8484,-22.43329"
     id="path1027"
     inkscape:connector-curvature="0"
     sodipodi:nodetypes="cac" />
  <path
     style="opacity:0.67600002;fill:none;stroke:#ff007f;stroke-width:16;stroke-linecap:butt;stroke-linejoin:miter;stroke-miterlimit:4;stroke-dasharray:none;stroke-opacity:1"
     d="M 602.77419,291.60766 336.75156,248.58004"
     id="path1029"
     inkscape:connector-curvature="0"
     sodipodi:nodetypes="cc" />
  <path
     style="opacity:0.49300005;fill:none;stroke:#7f00ff;stroke-width:16;stroke-linecap:butt;stroke-linejoin:miter;stroke-miterlimit:4;stroke-dasharray:none;stroke-opacity:1"
     d="m 615.21463,327.76268 c 0,0 -94.69933,-15.42486 -142.06056,-23.06581 -47.27916,-7.6277 -141.86044,-22.74036 -141.86044,-22.74036"
     id="path1031"
     inkscape:connector-curvature="0"
     sodipodi:nodetypes="cac" />
  <image
     sodipodi:absref="carmen_lcad/data/road_mapper_remission_350px/voltadaufes/i7756630_-364070.png"
     xlink:href="carmen_lcad/data/road_mapper_remission_350px/voltadaufes/i7756630_-364070.png"
     width="350"
     height="350"
     preserveAspectRatio="none"
     id="image1650"
     x="-350"
     y="0" />
  <image
     sodipodi:absref="carmen_lcad/data/road_mapper_remission_350px/voltadaufes/i7756630_-364000.png"
     xlink:href="carmen_lcad/data/road_mapper_remission_350px/voltadaufes/i7756630_-364000.png"
     width="350"
     height="350"
     preserveAspectRatio="none"
     id="image1715"
     x="-350"
     y="-350" />
  <path
     style="opacity:0.46300001;fill:none;stroke:#ff007f;stroke-width:18;stroke-linecap:butt;stroke-linejoin:miter;stroke-miterlimit:4;stroke-dasharray:none;stroke-opacity:1"
     d="m 122.39192,-13.49265 c 0,0 -38.801568,-22.019022 -57.947724,-33.461934 -29.466359,-17.610895 -87.595367,-54.154786 -87.595367,-54.154786"
     id="path1718"
     inkscape:connector-curvature="0"
     sodipodi:nodetypes="cac" />
  <path
     style="opacity:0.47099998;fill:none;stroke:#7f00ff;stroke-width:18;stroke-linecap:butt;stroke-linejoin:miter;stroke-miterlimit:4;stroke-dasharray:none;stroke-opacity:1"
     d="M 91.1611,-10.85054 73.379735,-21.23106"
     id="path1720"
     inkscape:connector-curvature="0"
     sodipodi:nodetypes="cc" />
  <path
     style="opacity:0.52899996;fill:none;stroke:#007fff;stroke-width:18;stroke-linecap:butt;stroke-linejoin:miter;stroke-miterlimit:4;stroke-dasharray:none;stroke-opacity:1"
     d="M 73.379735,-21.23106 26.265071,-49.188468"
     id="path1722"
     inkscape:connector-curvature="0"
     sodipodi:nodetypes="cc" />
  <path
     style="opacity:0.47099998;fill:none;stroke:#7f00ff;stroke-width:18;stroke-linecap:butt;stroke-linejoin:miter;stroke-miterlimit:4;stroke-dasharray:none;stroke-opacity:1"
     d="M 26.265071,-49.188468 -32.453501,-85.968271"
     id="path1724"
     inkscape:connector-curvature="0"
     sodipodi:nodetypes="cc" />
  <path
     style="opacity:0.50700001;fill:none;stroke:#0000ff;stroke-width:18;stroke-linecap:butt;stroke-linejoin:miter;stroke-miterlimit:4;stroke-dasharray:none;stroke-opacity:1"
     d="m 333.94599,265.22159 c 0,0 -60.16455,-8.92916 -90.20967,-13.63516 -42.1585,-6.60332 -84.31331,-13.2496 -126.36761,-20.48687 C 96.654815,227.53484 75.958331,223.8524 55.333698,219.80306 27.685367,214.37473 -27.37965,202.37965 -27.37965,202.37965"
     id="path1726"
     inkscape:connector-curvature="0"
     sodipodi:nodetypes="caaac" />
  <path
     style="opacity:0.48500001;fill:none;stroke:#ff007f;stroke-width:16;stroke-linecap:butt;stroke-linejoin:miter;stroke-miterlimit:4;stroke-dasharray:none;stroke-opacity:1"
     d="m 336.75156,248.58004 c 0,0 -51.38525,-7.61431 -77.05586,-11.56626 -22.75654,-3.50334 -45.50273,-7.0758 -68.22962,-10.76657 -22.85808,-3.71208 -45.7056,-7.49269 -68.52362,-11.4435 -21.0015,-3.6363 -42.010305,-7.24671 -62.938253,-11.28488 -14.861335,-2.86758 -29.654889,-6.07657 -44.466589,-9.19038 -13.0729094,-2.74827 -39.190483,-8.37805 -39.190483,-8.37805"
     id="path1728"
     inkscape:connector-curvature="0"
     sodipodi:nodetypes="caaaaac" />
  <path
     style="opacity:0.43800001;fill:none;stroke:#7f00ff;stroke-width:16;stroke-linecap:butt;stroke-linejoin:miter;stroke-miterlimit:4;stroke-dasharray:none;stroke-opacity:1"
     d="m 331.29363,281.95651 c 0,0 -39.02661,-6.12258 -58.55019,-9.11734 -19.42709,-2.97996 -38.88284,-5.7726 -58.30143,-8.80744 -18.58726,-2.90492 -37.15367,-5.94257 -55.71663,-8.99891 -19.02862,-3.133 -38.07621,-6.16186 -57.05689,-9.5733 -17.013264,-3.05783 -33.978861,-6.37935 -50.929978,-9.76478 -13.231881,-2.64263 -26.407401,-5.56151 -39.633479,-8.23304 -13.6429399,-2.75572 -40.973742,-8.04157 -40.973742,-8.04157"
     id="path1730"
     inkscape:connector-curvature="0"
     sodipodi:nodetypes="caaaaaac" />
  <path
     style="opacity:0.42600002;fill:none;stroke:#ff0000;stroke-width:16;stroke-linecap:butt;stroke-linejoin:miter;stroke-miterlimit:4;stroke-dasharray:none;stroke-opacity:1"
     d="m 320.18116,160.11944 49.4163,7.58166"
     id="path111-6"
     inkscape:connector-curvature="0"
     sodipodi:nodetypes="cc" />
  <path
     style="opacity:0.52600002;fill:none;stroke:#ff0000;stroke-width:16;stroke-linecap:butt;stroke-linejoin:miter;stroke-miterlimit:4;stroke-dasharray:none;stroke-opacity:1"
     d="m 323.65866,142.00335 49.4162,7.44628"
     id="path918-7"
     inkscape:connector-curvature="0"
     sodipodi:nodetypes="cc" />
  <path
     style="opacity:0.46700003;fill:none;stroke:#ff0000;stroke-width:16;stroke-linecap:butt;stroke-linejoin:miter;stroke-miterlimit:4;stroke-dasharray:none;stroke-opacity:1"
     d="M 403.33002,108.20017 352.82446,90.386796"
     id="path942-5"
     inkscape:connector-curvature="0"
     sodipodi:nodetypes="cc" />
  <path
     style="opacity:0.48900003;fill:none;stroke:#ff0000;stroke-width:16;stroke-linecap:butt;stroke-linejoin:miter;stroke-miterlimit:4;stroke-dasharray:none;stroke-opacity:1"
     d="M 397.41022,125.26787 346.83326,108.36331"
     id="path948-3"
     inkscape:connector-curvature="0"
     sodipodi:nodetypes="cc" />
  <path
     style="opacity:0.52600002;fill:none;stroke:#ff007f;stroke-width:18;stroke-linecap:butt;stroke-linejoin:miter;stroke-miterlimit:4;stroke-dasharray:none;stroke-opacity:1"
     d="m 357.68396,91.125446 c -15.6317,-5.40098 -21.5745,-6.08277 -31.6484,-9.92413 -12.1612,-4.63731 -24.3198,-9.28719 -36.3764,-14.19024 -12.1396,-4.9368 -24.23253,-9.99638 -36.20316,-15.32984 -12.71618,-5.66565 -25.23574,-11.76294 -37.82589,-17.7034 -9.80083,-4.62436 -19.62344,-9.20465 -29.35905,-13.96479 C 175.82175,14.903936 165.39367,9.7458355 155.09015,4.3487455 144.09137,-1.4125345 122.39192,-13.492634 122.39192,-13.492634"
     id="path950-5"
     inkscape:connector-curvature="0"
     sodipodi:nodetypes="csaaaaac" />
  <path
     style="opacity:0.522;fill:none;stroke:#7f00ff;stroke-width:18;stroke-linecap:butt;stroke-linejoin:miter;stroke-miterlimit:4;stroke-dasharray:none;stroke-opacity:1"
     d="m 350.31096,108.4222 c 0,0 -21.6109,-7.08216 -32.2673,-11.040904 -11.4142,-4.24021 -22.6437,-8.96418 -33.9002,-13.60673 -14.12919,-5.8273 -28.26433,-11.65129 -42.21978,-17.88313 -11.74048,-5.24275 -23.05819,-10.62543 -34.91098,-16.40583 -13.47206,-6.5701 -24.62622,-11.70268 -36.85481,-17.72763 -11.61379,-5.72204 -23.26273,-11.38537 -34.67772,-17.49437 -14.97095,-8.0120505 -44.319066,-25.11414 -44.319066,-25.11414"
     id="path952-6"
     inkscape:connector-curvature="0"
     sodipodi:nodetypes="caaasaac" />
</svg>
