<?xml version="1.0" encoding="UTF-8" standalone="no"?>
<!-- Created with Inkscape (http://www.inkscape.org/) -->

<svg
   xmlns:dc="http://purl.org/dc/elements/1.1/"
   xmlns:cc="http://creativecommons.org/ns#"
   xmlns:rdf="http://www.w3.org/1999/02/22-rdf-syntax-ns#"
   xmlns:svg="http://www.w3.org/2000/svg"
   xmlns="http://www.w3.org/2000/svg"
   xmlns:xlink="http://www.w3.org/1999/xlink"
   xmlns:sodipodi="http://sodipodi.sourceforge.net/DTD/sodipodi-0.dtd"
   xmlns:inkscape="http://www.inkscape.org/namespaces/inkscape"
   version="1.1"
   id="svg7485"
   width="350"
   height="350"
   viewBox="0 0 350 350"
   sodipodi:docname="i7756560_-363720.svg"
   inkscape:version="0.92.2 (unknown)">
  <metadata
     id="metadata7491">
    <rdf:RDF>
      <cc:Work
         rdf:about="">
        <dc:format>image/svg+xml</dc:format>
        <dc:type
           rdf:resource="http://purl.org/dc/dcmitype/StillImage" />
        <dc:title></dc:title>
      </cc:Work>
    </rdf:RDF>
  </metadata>
  <defs
     id="defs7489" />
  <sodipodi:namedview
     pagecolor="#ffffff"
     bordercolor="#666666"
     borderopacity="1"
     objecttolerance="10"
     gridtolerance="10"
     guidetolerance="10"
     inkscape:pageopacity="0"
     inkscape:pageshadow="2"
     inkscape:window-width="1855"
     inkscape:window-height="1056"
     id="namedview7487"
     showgrid="false"
     inkscape:zoom="2.6114286"
     inkscape:cx="221.85865"
     inkscape:cy="14.326804"
     inkscape:window-x="65"
     inkscape:window-y="24"
     inkscape:window-maximized="1"
     inkscape:current-layer="svg7485" />
  <image
     width="350"
     height="350"
     preserveAspectRatio="none"
     xlink:href="carmen_lcad/data/road_mapper_remission_350px/voltadaufes/i7756560_-363720.png"
     id="image7493"
     x="0"
     y="0"
     sodipodi:absref="carmen_lcad/data/road_mapper_remission_350px/voltadaufes/i7756560_-363720.png" />
  <image
     width="350"
     height="350"
     preserveAspectRatio="none"
     xlink:href="carmen_lcad/data/road_mapper_remission_350px/voltadaufes/i7756560_-363790.png"
     id="image7298"
     x="4.0054321e-05"
     y="350"
     sodipodi:absref="carmen_lcad/data/road_mapper_remission_350px/voltadaufes/i7756560_-363790.png" />
  <image
     width="350"
     height="350"
     preserveAspectRatio="none"
     xlink:href="carmen_lcad/data/road_mapper_remission_350px/voltadaufes/i7756490_-363790.png"
     id="image6834"
     x="-350"
     y="350"
     sodipodi:absref="carmen_lcad/data/road_mapper_remission_350px/voltadaufes/i7756490_-363790.png" />
  <image
     width="350"
     height="350"
     preserveAspectRatio="none"
     xlink:href="carmen_lcad/data/road_mapper_remission_350px/voltadaufes/i7756490_-363860.png"
     id="image6343"
     x="-349.99997"
     y="700"
     sodipodi:absref="carmen_lcad/data/road_mapper_remission_350px/voltadaufes/i7756490_-363860.png" />
  <path
     style="display:none;opacity:0.28999999;fill:none;stroke:#00ff00;stroke-width:25;stroke-linecap:butt;stroke-linejoin:miter;stroke-miterlimit:4;stroke-dasharray:none;stroke-opacity:1"
     d="m 4056.3623,10392.838 -35.7089,-9.988"
     id="path2589"
     inkscape:connector-curvature="0" />
  <path
     style="opacity:0.5;fill:none;stroke:#7fff00;stroke-width:17;stroke-linecap:butt;stroke-linejoin:miter;stroke-miterlimit:4;stroke-dasharray:none;stroke-opacity:1"
     d="m -158.29203,1082.3823 c 0,0 -2.55481,-5.2429 -3.52006,-7.9878 -1.56518,-4.451 -2.71091,-9.0515 -3.65545,-13.6741 -1.18186,-5.784 -1.95625,-11.6546 -2.50465,-17.5326 -0.58467,-6.2667 -0.74751,-12.57 -0.83356,-18.8633 -0.16828,-12.3066 0.25731,-24.61574 0.62085,-36.91814 0.28616,-9.684 0.68217,-19.3658 1.22811,-29.0386 0.66793,-11.8344 1.36807,-23.6727 2.50465,-35.4713 1.15963,-12.0379 4.40008,-36.013 4.40008,-36.013"
     id="path6192"
     inkscape:connector-curvature="0"
     sodipodi:nodetypes="caaaaaaac" />
  <path
     style="opacity:0.51799999;fill:none;stroke:#ff7f00;stroke-width:17;stroke-linecap:butt;stroke-linejoin:miter;stroke-miterlimit:4;stroke-dasharray:none;stroke-opacity:1"
     d="m -140.69172,1073.176 c 0,0 -6.11827,-14.86 -8.66476,-22.4744 -2.45566,-7.3426 -4.58648,-14.8028 -6.36319,-22.3388 -2.75014,-11.6645 -5.19779,-23.4378 -6.63397,-35.33594 -1.08865,-9.0191 -1.35836,-18.1292 -1.48925,-27.2129 -0.15089,-10.4722 0.30213,-20.9487 0.81231,-31.4097 0.52235,-10.7103 1.68301,-21.3815 2.30159,-32.0867 0.29707,-5.141 0.67693,-15.4341 0.67693,-15.4341"
     id="path6194"
     inkscape:connector-curvature="0"
     sodipodi:nodetypes="caaaaaac" />
  <path
     style="opacity:0.44900004;fill:none;stroke:#7fff00;stroke-width:17;stroke-linecap:butt;stroke-linejoin:miter;stroke-miterlimit:4;stroke-dasharray:none;stroke-opacity:1"
     d="m -176.84004,884.64956 c 0,0 -1.92122,14.8794 -2.70774,22.3389 -1.27094,12.0537 -2.37677,24.1269 -3.24929,36.216 -0.92239,12.7799 -1.58599,25.5793 -2.0985,38.3822 -0.39093,9.7657 -0.87561,19.53864 -0.74462,29.31134 0.14273,10.6485 1.30909,21.2613 1.66711,31.9048 0.28525,8.4804 0.38293,25.4528 0.38293,25.4528"
     id="path6196"
     inkscape:connector-curvature="0"
     sodipodi:nodetypes="caaaaac" />
  <path
     style="opacity:0.47400004;fill:none;stroke:#ff7f00;stroke-width:17;stroke-linecap:butt;stroke-linejoin:miter;stroke-miterlimit:4;stroke-dasharray:none;stroke-opacity:1"
     d="m -176.84004,884.64956 c 0,0 -2.33001,16.3451 -3.42524,24.5272 -1.23313,9.2122 -2.3644,18.4378 -3.54213,27.6572 -1.47939,11.581 -2.86247,23.1746 -4.42695,34.7443 -1.4672,10.8504 -3.0692,21.6821 -4.65127,32.51644 -1.74125,11.9243 -3.79329,23.8049 -5.32819,35.7577 -1.19371,9.2957 -3.017,27.9541 -3.017,27.9541"
     id="path6198"
     inkscape:connector-curvature="0"
     sodipodi:nodetypes="caaaaac" />
  <path
     style="opacity:0.57700004;fill:none;stroke:#ff0000;stroke-width:17;stroke-linecap:butt;stroke-linejoin:miter;stroke-miterlimit:4;stroke-dasharray:none;stroke-opacity:1"
     d="m -160.05206,886.88346 c 0,0 1.87155,-13.9284 2.93254,-20.8742 2.40325,-15.7329 5.4005,-31.3717 7.77599,-47.1088 2.07198,-13.7264 3.6639,-27.5216 5.64825,-41.2609 2.09472,-14.5035 4.20369,-29.0071 6.60559,-43.4628 1.35529,-8.1569 2.63897,-16.3338 4.40372,-24.412 2.46128,-11.2665 8.61597,-33.5065 8.61597,-33.5065"
     id="path6760"
     inkscape:connector-curvature="0"
     sodipodi:nodetypes="caaaaac" />
  <path
     style="opacity:0.478;fill:none;stroke:#ff0000;stroke-width:17;stroke-linecap:butt;stroke-linejoin:miter;stroke-miterlimit:4;stroke-dasharray:none;stroke-opacity:1"
     d="m -140.3881,671.96676 c 0,0 -3.67152,13.7419 -5.38263,20.6445 -1.78068,7.1833 -3.63383,14.355 -5.08183,21.6127 -1.57598,7.8991 -2.68729,15.8845 -3.91942,23.8445 -1.55931,10.0738 -2.9675,20.1705 -4.39526,30.2638 -1.25354,8.8617 -2.38633,17.7403 -3.66225,26.5987 -1.40532,9.7568 -2.83796,19.5104 -4.39809,29.2436 -1.3621,8.4978 -2.96875,16.9552 -4.33238,25.4527 -1.87062,11.657 -5.28008,35.0223 -5.28008,35.0223"
     id="path6762"
     inkscape:connector-curvature="0"
     sodipodi:nodetypes="caaaaaaac" />
  <image
     sodipodi:absref="carmen_lcad/data/road_mapper_remission_350px/voltadaufes/i7756630_-363720.png"
     y="0"
     x="350"
     id="image7221"
     xlink:href="carmen_lcad/data/road_mapper_remission_350px/voltadaufes/i7756630_-363720.png"
     preserveAspectRatio="none"
     height="350"
     width="350" />
  <path
     style="opacity:0.48500001;fill:none;stroke:#ff0000;stroke-width:17;stroke-linecap:butt;stroke-linejoin:miter;stroke-miterlimit:4;stroke-dasharray:none;stroke-opacity:1"
     d="m -124.07,676.25826 c 0,0 3.10807,-12.7243 5.48094,-18.808 4.75358,-12.1876 11.07537,-23.7278 17.43029,-35.1623 8.66328,-15.5881 17.3402,-31.314 28.16049,-45.4901 10.44311,-13.6819 22.59197,-26.059 35.18137,-37.7962 13.62049,-12.6984 28.84985,-23.5556 43.45523,-35.1077 12.69155,-10.0383 25.58164,-19.823 38.3842,-29.7194 22.59262,-17.4641 45.20643,-34.90074 67.81925,-52.33868 39.19373,-30.22435 117.61443,-90.62995 117.61443,-90.62995"
     id="path7224"
     inkscape:connector-curvature="0"
     sodipodi:nodetypes="caaaaaaac" />
  <path
     style="opacity:0.54000005;fill:none;stroke:#ff0000;stroke-width:17;stroke-linecap:butt;stroke-linejoin:miter;stroke-miterlimit:4;stroke-dasharray:none;stroke-opacity:1"
     d="m 216.45905,319.83342 c 0,0 -35.34778,27.48153 -53.07169,41.15764 -27.92759,21.54945 -56.01712,42.88852 -83.93991,64.44419 -25.86694,19.96861 -51.67105,40.01861 -77.44135,60.11181 -9.56162,7.4552 -19.27391,14.7239 -28.63633,22.4278 -11.01068,9.0602 -22.20361,17.9678 -32.36711,27.969 -9.63741,9.4836 -18.81351,19.3891 -27.0117,30.261 -9.20968,12.2133 -17.22949,25.3227 -24.75258,38.6414 -9.27824,16.4258 -18.31499,33.1272 -25.05621,50.7468 -2.02486,5.2924 -4.57027,16.3737 -4.57027,16.3737"
     id="path7226"
     inkscape:connector-curvature="0"
     sodipodi:nodetypes="caaaaasaac" />
  <image
     sodipodi:absref="carmen_lcad/data/road_mapper_remission_350px/voltadaufes/i7756630_-363650.png"
     y="-350"
     x="350"
     id="image7779"
     xlink:href="carmen_lcad/data/road_mapper_remission_350px/voltadaufes/i7756630_-363650.png"
     preserveAspectRatio="none"
     height="350"
     width="350" />
  <image
     sodipodi:absref="carmen_lcad/data/road_mapper_remission_350px/voltadaufes/i7756700_-363720.png"
     y="0"
     x="700"
     id="image7941"
     xlink:href="carmen_lcad/data/road_mapper_remission_350px/voltadaufes/i7756700_-363720.png"
     preserveAspectRatio="none"
     height="350"
     width="350" />
  <image
     sodipodi:absref="carmen_lcad/data/road_mapper_remission_350px/voltadaufes/i7756700_-363650.png"
     y="-350"
     x="700"
     id="image8006"
     xlink:href="carmen_lcad/data/road_mapper_remission_350px/voltadaufes/i7756700_-363650.png"
     preserveAspectRatio="none"
     height="350"
     width="350" />
  <path
     style="opacity:0.59600004;fill:none;stroke:#ff0000;stroke-width:17;stroke-linecap:butt;stroke-linejoin:miter;stroke-miterlimit:4;stroke-dasharray:none;stroke-opacity:1"
     d="M 229.4562,331.20593 390.45601,205.6775"
     id="path8009"
     inkscape:connector-curvature="0"
     sodipodi:nodetypes="cc" />
  <path
     style="opacity:0.49599998;fill:none;stroke:#ff0000;stroke-width:17;stroke-linecap:butt;stroke-linejoin:miter;stroke-miterlimit:4;stroke-dasharray:none;stroke-opacity:1"
     d="M 379.91507,192.82535 216.45905,319.83342"
     id="path8011"
     inkscape:connector-curvature="0"
     sodipodi:nodetypes="cc" />
</svg>
