<?xml version="1.0" encoding="UTF-8" standalone="no"?>
<!-- Created with Inkscape (http://www.inkscape.org/) -->

<svg
   xmlns:dc="http://purl.org/dc/elements/1.1/"
   xmlns:cc="http://creativecommons.org/ns#"
   xmlns:rdf="http://www.w3.org/1999/02/22-rdf-syntax-ns#"
   xmlns:svg="http://www.w3.org/2000/svg"
   xmlns="http://www.w3.org/2000/svg"
   xmlns:xlink="http://www.w3.org/1999/xlink"
   xmlns:sodipodi="http://sodipodi.sourceforge.net/DTD/sodipodi-0.dtd"
   xmlns:inkscape="http://www.inkscape.org/namespaces/inkscape"
   version="1.1"
   id="svg5464"
   width="350"
   height="350"
   viewBox="0 0 350 350"
   sodipodi:docname="i7757960_-363720.svg"
   inkscape:version="0.92.2 (unknown)">
  <metadata
     id="metadata5470">
    <rdf:RDF>
      <cc:Work
         rdf:about="">
        <dc:format>image/svg+xml</dc:format>
        <dc:type
           rdf:resource="http://purl.org/dc/dcmitype/StillImage" />
        <dc:title></dc:title>
      </cc:Work>
    </rdf:RDF>
  </metadata>
  <defs
     id="defs5468" />
  <sodipodi:namedview
     pagecolor="#ffffff"
     bordercolor="#666666"
     borderopacity="1"
     objecttolerance="10"
     gridtolerance="10"
     guidetolerance="10"
     inkscape:pageopacity="0"
     inkscape:pageshadow="2"
     inkscape:window-width="1855"
     inkscape:window-height="1056"
     id="namedview5466"
     showgrid="false"
     inkscape:zoom="1.41"
     inkscape:cx="50.406113"
     inkscape:cy="282.68761"
     inkscape:window-x="65"
     inkscape:window-y="24"
     inkscape:window-maximized="1"
     inkscape:current-layer="svg5464" />
  <image
     width="350"
     height="350"
     preserveAspectRatio="none"
     xlink:href="carmen_lcad/data/road_mapper_remission_350px/voltadaufes/i7757960_-363720.png"
     id="image5472"
     x="0"
     y="0"
     sodipodi:absref="carmen_lcad/data/road_mapper_remission_350px/voltadaufes/i7757960_-363720.png" />
  <path
     style="fill:none;stroke:#7fff00;stroke-width:19;stroke-linecap:butt;stroke-linejoin:miter;stroke-miterlimit:4;stroke-dasharray:none;stroke-opacity:1"
     d="m -71.27184,264.01812 c 0,0 27.795806,-20.63109 40.815125,-32.00768 7.980928,-6.97393 15.840401,-14.16851 22.7980717,-22.16361 7.79332989,-8.95536 14.7952706,-18.63668 21.0612693,-28.71992 6.007544,-9.66734 11.505576,-19.73584 15.746676,-30.29809 4.217952,-10.5046 7.67167,-21.42895 9.526847,-32.59569 1.774855,-10.68326 1.559667,-21.627104 1.458529,-32.456325 C 40.036327,75.246003 39.5217,64.685383 38.127102,54.246869 37.127141,46.762195 35.6047,39.329147 33.581188,32.054144 31.281773,23.787203 28.629208,15.55783 24.983506,7.7900448 20.499244,-1.764433 14.942947,-10.84458 8.78304,-19.415006 2.0612068,-28.767254 -5.892073,-37.185984 -13.720262,-45.633885 -17.401116,-49.606129 -25.208227,-57.12185 -25.208227,-57.12185"
     id="path5504"
     inkscape:connector-curvature="0"
     sodipodi:nodetypes="caaaaaaaaaaac" />
  <path
     style="fill:none;stroke:#7fff00;stroke-width:19;stroke-linecap:butt;stroke-linejoin:miter;stroke-miterlimit:4;stroke-dasharray:none;stroke-opacity:1"
     d="m -38.142572,-42.93486 c 0,0 12.665615,11.383363 18.342258,17.707795 5.383078,5.997365 10.3220095,12.414775 14.8221958,19.1001503 3.3613606,4.9935612 6.4261951,10.2094636 9.0509996,15.6265476 3.3486423,6.9109441 6.1454626,14.1042091 8.4902086,21.4169871 1.658078,5.171204 2.937263,10.471927 3.922236,15.812377 1.628682,8.830587 2.807835,17.771851 3.268531,26.73955 0.446193,8.685395 0.167151,17.414249 -0.495091,26.085846 -0.523831,6.859207 -1.269582,13.735187 -2.746225,20.454017 -1.351121,6.1477 -3.276029,12.18124 -5.566124,18.04427 -2.0159567,5.1612 -4.5852985,10.09551 -7.1635528,15.00006 -3.10075206,5.89848 -6.2831544,11.77747 -9.9754797,17.32486 -3.257391,4.89394 -6.8207015,9.60309 -10.7028575,14.01785 -4.84831,5.51346 -10.18982,10.59108 -15.653761,15.49514 -8.396541,7.53615 -17.369499,14.40948 -26.263704,21.35129 -8.601027,6.71298 -26.198003,19.62245 -26.198003,19.62245"
     id="path5506"
     inkscape:connector-curvature="0"
     sodipodi:nodetypes="caaaaaaaaaaaaaac" />
</svg>
