<?xml version="1.0" encoding="UTF-8" standalone="no"?>
<!-- Created with Inkscape (http://www.inkscape.org/) -->

<svg
   xmlns:dc="http://purl.org/dc/elements/1.1/"
   xmlns:cc="http://creativecommons.org/ns#"
   xmlns:rdf="http://www.w3.org/1999/02/22-rdf-syntax-ns#"
   xmlns:svg="http://www.w3.org/2000/svg"
   xmlns="http://www.w3.org/2000/svg"
   xmlns:xlink="http://www.w3.org/1999/xlink"
   xmlns:sodipodi="http://sodipodi.sourceforge.net/DTD/sodipodi-0.dtd"
   xmlns:inkscape="http://www.inkscape.org/namespaces/inkscape"
   version="1.1"
   id="svg3305"
   width="350"
   height="350"
   viewBox="0 0 350 350"
   sodipodi:docname="i7756630_-364070.svg"
   inkscape:version="0.92.2 (unknown)">
  <metadata
     id="metadata3311">
    <rdf:RDF>
      <cc:Work
         rdf:about="">
        <dc:format>image/svg+xml</dc:format>
        <dc:type
           rdf:resource="http://purl.org/dc/dcmitype/StillImage" />
        <dc:title />
      </cc:Work>
    </rdf:RDF>
  </metadata>
  <defs
     id="defs3309" />
  <sodipodi:namedview
     pagecolor="#ffffff"
     bordercolor="#666666"
     borderopacity="1"
     objecttolerance="10"
     gridtolerance="10"
     guidetolerance="10"
     inkscape:pageopacity="0"
     inkscape:pageshadow="2"
     inkscape:window-width="1855"
     inkscape:window-height="1056"
     id="namedview3307"
     showgrid="false"
     inkscape:zoom="0.75041708"
     inkscape:cx="153.66789"
     inkscape:cy="315.74317"
     inkscape:window-x="65"
     inkscape:window-y="24"
     inkscape:window-maximized="1"
     inkscape:current-layer="svg3305"
     inkscape:measure-start="23.0158,277.949"
     inkscape:measure-end="31.5452,296.091" />
  <image
     width="350"
     height="350"
     preserveAspectRatio="none"
     xlink:href="carmen_lcad/data/road_mapper_remission_350px/voltadaufes/i7756630_-364070.png"
     id="image3313"
     x="0"
     y="0"
     sodipodi:absref="carmen_lcad/data/road_mapper_remission_350px/voltadaufes/i7756630_-364070.png" />
  <path
     style="display:none;opacity:0.28999999;fill:none;stroke:#00ff00;stroke-width:25;stroke-linecap:butt;stroke-linejoin:miter;stroke-miterlimit:4;stroke-dasharray:none;stroke-opacity:1"
     d="m 1776.9264,5150.0942 -35.7089,-9.9879"
     id="path2589"
     inkscape:connector-curvature="0" />
  <image
     width="350"
     height="350"
     preserveAspectRatio="none"
     xlink:href="carmen_lcad/data/road_mapper_remission_350px/voltadaufes/i7756630_-364000.png"
     id="image2561"
     x="3.0517578e-05"
     y="-350.00009"
     sodipodi:absref="carmen_lcad/data/road_mapper_remission_350px/voltadaufes/i7756630_-364000.png" />
  <image
     width="350"
     height="350"
     preserveAspectRatio="none"
     xlink:href="carmen_lcad/data/road_mapper_remission_350px/voltadaufes/i7756700_-364000.png"
     id="image2161"
     x="350.00003"
     y="-350.00009"
     sodipodi:absref="carmen_lcad/data/road_mapper_remission_350px/voltadaufes/i7756700_-364000.png" />
  <image
     width="350"
     height="350"
     preserveAspectRatio="none"
     xlink:href="carmen_lcad/data/road_mapper_remission_350px/voltadaufes/i7756700_-364070.png"
     id="image1109"
     x="350"
     y="-1.9726562e-05"
     sodipodi:absref="carmen_lcad/data/road_mapper_remission_350px/voltadaufes/i7756700_-364070.png" />
  <image
     sodipodi:absref="carmen_lcad/data/road_mapper_remission_350px/voltadaufes/i7756770_-364140.png"
     y="349.99997"
     x="700.00006"
     id="image1016"
     xlink:href="carmen_lcad/data/road_mapper_remission_350px/voltadaufes/i7756770_-364140.png"
     preserveAspectRatio="none"
     height="350"
     width="350" />
  <image
     width="350"
     height="350"
     preserveAspectRatio="none"
     xlink:href="carmen_lcad/data/road_mapper_remission_350px/voltadaufes/i7756770_-364070.png"
     id="image7921"
     x="700.00006"
     y="-1.9726562e-05"
     sodipodi:absref="carmen_lcad/data/road_mapper_remission_350px/voltadaufes/i7756770_-364070.png" />
  <path
     style="opacity:0.48900003;fill:none;stroke:#00ff00;stroke-width:18;stroke-linecap:butt;stroke-linejoin:miter;stroke-miterlimit:4;stroke-dasharray:none;stroke-opacity:1"
     d="m 1120.4832,333.9941 -90.1606,-13.0265"
     id="path6571"
     inkscape:connector-curvature="0"
     sodipodi:nodetypes="cc" />
  <path
     style="opacity:0.69499966;fill:none;stroke:#7fff00;stroke-width:16;stroke-linecap:butt;stroke-linejoin:miter;stroke-miterlimit:4;stroke-dasharray:none;stroke-opacity:1"
     d="m 1118.104,350.7678 -61.5926,-8.8665"
     id="path6573"
     inkscape:connector-curvature="0"
     sodipodi:nodetypes="cc" />
  <path
     style="opacity:0.56199999;fill:none;stroke:#ff7f00;stroke-width:16;stroke-linecap:butt;stroke-linejoin:miter;stroke-miterlimit:4;stroke-dasharray:none;stroke-opacity:1"
     d="m 1123.0713,317.118 -90.5152,-12.973"
     id="path6575"
     inkscape:connector-curvature="0"
     sodipodi:nodetypes="cc" />
  <path
     style="fill:none;stroke:#00ff00;stroke-width:16;stroke-linecap:butt;stroke-linejoin:miter;stroke-miterlimit:4;stroke-dasharray:none;stroke-opacity:1"
     d="m 1056.5114,341.9013 -28.5507,-4.2064"
     id="path7656"
     inkscape:connector-curvature="0"
     sodipodi:nodetypes="cc" />
  <path
     style="opacity:0.42600002;fill:none;stroke:#ff0000;stroke-width:18;stroke-linecap:butt;stroke-linejoin:miter;stroke-miterlimit:4;stroke-dasharray:none;stroke-opacity:1"
     d="m 670.62104,159.2397 49.41624,7.5817"
     id="path111"
     inkscape:connector-curvature="0"
     sodipodi:nodetypes="cc" />
  <path
     style="opacity:0.52600002;fill:none;stroke:#ff0000;stroke-width:17;stroke-linecap:butt;stroke-linejoin:miter;stroke-miterlimit:4;stroke-dasharray:none;stroke-opacity:1"
     d="m 673.32878,142.1133 49.41624,7.4462"
     id="path918"
     inkscape:connector-curvature="0"
     sodipodi:nodetypes="cc" />
  <path
     style="opacity:0.55100002;fill:none;stroke:#7fff00;stroke-width:19;stroke-linecap:butt;stroke-linejoin:miter;stroke-miterlimit:4;stroke-dasharray:none;stroke-opacity:1"
     d="m 719.20494,149.7866 101.53594,19.2293"
     id="path920"
     inkscape:connector-curvature="0"
     sodipodi:nodetypes="cc" />
  <path
     style="opacity:0.66199999;fill:none;stroke:#7fff00;stroke-width:21;stroke-linecap:butt;stroke-linejoin:miter;stroke-miterlimit:4;stroke-dasharray:none;stroke-opacity:1"
     d="m 812.03162,168.5172 83.33989,14.8108"
     id="path922"
     inkscape:connector-curvature="0"
     sodipodi:nodetypes="cc" />
  <path
     style="opacity:0.58499995;fill:none;stroke:#00ff7f;stroke-width:23;stroke-linecap:butt;stroke-linejoin:miter;stroke-miterlimit:4;stroke-dasharray:none;stroke-opacity:1"
     d="m 891.42728,183.7646 138.61242,20.8378"
     id="path924"
     inkscape:connector-curvature="0"
     sodipodi:nodetypes="cc" />
  <path
     style="opacity:0.40800003;fill:none;stroke:#ff7f00;stroke-width:19;stroke-linecap:butt;stroke-linejoin:miter;stroke-miterlimit:4;stroke-dasharray:none;stroke-opacity:1"
     d="m 716.7946,165.8814 102.15796,13.218"
     id="path926"
     inkscape:connector-curvature="0"
     sodipodi:nodetypes="cc" />
  <path
     style="opacity:0.53299997;fill:none;stroke:#ff7f00;stroke-width:21;stroke-linecap:butt;stroke-linejoin:miter;stroke-miterlimit:4;stroke-dasharray:none;stroke-opacity:1"
     d="m 811.05859,176.9245 83.129,11.1059"
     id="path928"
     inkscape:connector-curvature="0"
     sodipodi:nodetypes="cc" />
  <path
     style="opacity:0.397;fill:none;stroke:#ff7f00;stroke-width:23;stroke-linecap:butt;stroke-linejoin:miter;stroke-miterlimit:4;stroke-dasharray:none;stroke-opacity:1"
     d="m 890.46757,186.4537 139.57213,18.1487"
     id="path930"
     inkscape:connector-curvature="0"
     sodipodi:nodetypes="cc" />
  <path
     style="opacity:0.70200004;fill:none;stroke:#ff7f00;stroke-width:22;stroke-linecap:butt;stroke-linejoin:miter;stroke-miterlimit:4;stroke-dasharray:none;stroke-opacity:1"
     d="m 1034.4116,181.5908 -62.1937,-10.972"
     id="path932"
     inkscape:connector-curvature="0"
     sodipodi:nodetypes="cc" />
  <path
     style="opacity:0.57399998;fill:none;stroke:#007fff;stroke-width:22;stroke-linecap:butt;stroke-linejoin:miter;stroke-miterlimit:4;stroke-dasharray:none;stroke-opacity:1"
     d="M 972.2179,170.6188 910.35156,156.4721"
     id="path936"
     inkscape:connector-curvature="0"
     sodipodi:nodetypes="cc" />
  <path
     style="opacity:0.47400004;fill:none;stroke:#ff7f00;stroke-width:20;stroke-linecap:butt;stroke-linejoin:miter;stroke-miterlimit:4;stroke-dasharray:none;stroke-opacity:1"
     d="m 914.44209,156.3956 c 0,0 -24.67248,-6.3798 -37.0103,-9.5636 -15.98979,-4.1262 -47.97346,-12.3627 -47.97346,-12.3627"
     id="path938"
     inkscape:connector-curvature="0"
     sodipodi:nodetypes="cac" />
  <path
     style="opacity:0.51499999;fill:none;stroke:#ff7f00;stroke-width:18;stroke-linecap:butt;stroke-linejoin:miter;stroke-miterlimit:4;stroke-dasharray:none;stroke-opacity:1"
     d="M 834.23898,133.954 750.53606,108.2344"
     id="path940"
     inkscape:connector-curvature="0"
     sodipodi:nodetypes="cc" />
  <path
     style="opacity:0.59899998;fill:none;stroke:#00ff7f;stroke-width:22;stroke-linecap:butt;stroke-linejoin:miter;stroke-miterlimit:4;stroke-dasharray:none;stroke-opacity:1"
     d="M 1033.6419,182.5804 898.58053,162.2326"
     id="path934"
     inkscape:connector-curvature="0"
     sodipodi:nodetypes="cc" />
  <path
     style="opacity:0.46700003;fill:none;stroke:#ff0000;stroke-width:16;stroke-linecap:butt;stroke-linejoin:miter;stroke-miterlimit:4;stroke-dasharray:none;stroke-opacity:1"
     d="M 753.33012,108.2001 702.82445,90.3868"
     id="path942"
     inkscape:connector-curvature="0"
     sodipodi:nodetypes="cc" />
  <path
     style="opacity:0.50400002;fill:none;stroke:#7fff00;stroke-width:20;stroke-linecap:butt;stroke-linejoin:miter;stroke-miterlimit:4;stroke-dasharray:none;stroke-opacity:1"
     d="m 901.51119,163.7538 c 0,0 -23.30958,-4.6476 -34.91778,-7.1906 -13.4505,-2.9466 -40.23717,-9.3465 -40.23717,-9.3465"
     id="path944"
     inkscape:connector-curvature="0"
     sodipodi:nodetypes="cac" />
  <path
     style="opacity:0.456;fill:none;stroke:#7fff00;stroke-width:18;stroke-linecap:butt;stroke-linejoin:miter;stroke-miterlimit:4;stroke-dasharray:none;stroke-opacity:1"
     d="m 829.75162,149.2148 c 0,0 -27.56786,-8.341 -41.34458,-12.5353 -14.15301,-4.3088 -42.44417,-12.9752 -42.44417,-12.9752"
     id="path946"
     inkscape:connector-curvature="0"
     sodipodi:nodetypes="cac" />
  <path
     style="opacity:0.48900003;fill:none;stroke:#ff0000;stroke-width:16;stroke-linecap:butt;stroke-linejoin:miter;stroke-miterlimit:4;stroke-dasharray:none;stroke-opacity:1"
     d="M 747.41032,125.2678 696.8333,108.3633"
     id="path948"
     inkscape:connector-curvature="0"
     sodipodi:nodetypes="cc" />
  <path
     style="opacity:0.52600002;fill:none;stroke:#ff007f;stroke-width:18;stroke-linecap:butt;stroke-linejoin:miter;stroke-miterlimit:4;stroke-dasharray:none;stroke-opacity:1"
     d="m 706.75096,92.7582 c 0,0 -9.41449,-3.2148 -14.07625,-4.9479 C 674.88144,81.1951 657.23699,74.1792 639.6592,67.011 627.52439,62.0625 615.42664,57.0147 603.45601,51.6812 590.73983,46.0155 578.22027,39.9182 565.63012,33.9778 555.82929,29.3534 546.00668,24.7731 536.27107,20.013 525.82176,14.9039 515.39368,9.7458 505.09016,4.3487 494.09138,-1.4126 472.39193,-13.4927 472.39193,-13.4927"
     id="path950"
     inkscape:connector-curvature="0"
     sodipodi:nodetypes="caaaaaac" />
  <path
     style="opacity:0.522;fill:none;stroke:#7f00ff;stroke-width:18;stroke-linecap:butt;stroke-linejoin:miter;stroke-miterlimit:4;stroke-dasharray:none;stroke-opacity:1"
     d="m 700.77754,109.8217 c 0,0 -21.86144,-8.1929 -32.73391,-12.4404 C 656.70208,92.9504 645.39997,88.4171 634.14343,83.7745 620.01428,77.9472 605.87913,72.1232 591.92369,65.8914 580.18321,60.6487 568.8655,55.266 557.01271,49.4856 543.54065,42.9155 532.38649,37.7829 520.1579,31.7579 508.54411,26.0359 496.89517,20.3726 485.48018,14.2635 470.50923,6.2515 441.16111,-10.8506 441.16111,-10.8506"
     id="path952"
     inkscape:connector-curvature="0"
     sodipodi:nodetypes="caaasaac" />
  <path
     style="opacity:0.56600001;fill:none;stroke:#00ff00;stroke-width:18;stroke-linecap:butt;stroke-linejoin:miter;stroke-miterlimit:4;stroke-dasharray:none;stroke-opacity:1"
     d="m 1030.3226,320.9676 -80.192,-12.8764"
     id="path1019"
     inkscape:connector-curvature="0"
     sodipodi:nodetypes="cc" />
  <path
     style="opacity:0.50700001;fill:none;stroke:#ff7f00;stroke-width:16;stroke-linecap:butt;stroke-linejoin:miter;stroke-miterlimit:4;stroke-dasharray:none;stroke-opacity:1"
     d="M 1032.5561,304.145 952.7742,291.6076"
     id="path1021"
     inkscape:connector-curvature="0"
     sodipodi:nodetypes="cc" />
  <path
     style="opacity:0.76799999;fill:none;stroke:#00ff00;stroke-width:16;stroke-linecap:butt;stroke-linejoin:miter;stroke-miterlimit:4;stroke-dasharray:none;stroke-opacity:1"
     d="m 1027.9607,337.6949 -62.74606,-9.9322"
     id="path1023"
     inkscape:connector-curvature="0"
     sodipodi:nodetypes="cc" />
  <path
     style="opacity:0.68000034;fill:none;stroke:#0000ff;stroke-width:18;stroke-linecap:butt;stroke-linejoin:miter;stroke-miterlimit:4;stroke-dasharray:none;stroke-opacity:1"
     d="M 950.1306,308.0912 C 908.00438,301.2724 865.23623,294.4892 822.7944,287.6549 776.50769,280.2014 729.50111,272.411 683.946,265.2216"
     id="path1027"
     inkscape:connector-curvature="0"
     sodipodi:nodetypes="cac" />
  <path
     style="opacity:0.67600002;fill:none;stroke:#ff007f;stroke-width:16;stroke-linecap:butt;stroke-linejoin:miter;stroke-miterlimit:4;stroke-dasharray:none;stroke-opacity:1"
     d="M 952.7742,291.6076 686.75157,248.58"
     id="path1029"
     inkscape:connector-curvature="0"
     sodipodi:nodetypes="cc" />
  <path
     style="opacity:0.49300005;fill:none;stroke:#7f00ff;stroke-width:16;stroke-linecap:butt;stroke-linejoin:miter;stroke-miterlimit:4;stroke-dasharray:none;stroke-opacity:1"
     d="m 965.21464,327.7627 c 0,0 -94.69933,-15.4249 -142.06056,-23.0659 -47.27916,-7.6277 -141.86044,-22.7403 -141.86044,-22.7403"
     id="path1031"
     inkscape:connector-curvature="0"
     sodipodi:nodetypes="cac" />
  <path
     style="opacity:0.46300001;fill:none;stroke:#ff007f;stroke-width:18;stroke-linecap:butt;stroke-linejoin:miter;stroke-miterlimit:4;stroke-dasharray:none;stroke-opacity:1"
     d="m 472.39193,-13.4927 c 0,0 -38.80157,-22.019 -57.94772,-33.4619 -29.46636,-17.6109 -87.59537,-54.1548 -87.59537,-54.1548"
     id="path1718"
     inkscape:connector-curvature="0"
     sodipodi:nodetypes="cac" />
  <path
     style="opacity:0.47099998;fill:none;stroke:#7f00ff;stroke-width:18;stroke-linecap:butt;stroke-linejoin:miter;stroke-miterlimit:4;stroke-dasharray:none;stroke-opacity:1"
     d="M 441.16111,-10.8506 423.37975,-21.2311"
     id="path1720"
     inkscape:connector-curvature="0"
     sodipodi:nodetypes="cc" />
  <path
     style="opacity:0.52899996;fill:none;stroke:#007fff;stroke-width:18;stroke-linecap:butt;stroke-linejoin:miter;stroke-miterlimit:4;stroke-dasharray:none;stroke-opacity:1"
     d="M 423.37975,-21.2311 376.26508,-49.1885"
     id="path1722"
     inkscape:connector-curvature="0"
     sodipodi:nodetypes="cc" />
  <path
     style="opacity:0.47099998;fill:none;stroke:#7f00ff;stroke-width:18;stroke-linecap:butt;stroke-linejoin:miter;stroke-miterlimit:4;stroke-dasharray:none;stroke-opacity:1"
     d="M 376.26508,-49.1885 317.54651,-85.9683"
     id="path1724"
     inkscape:connector-curvature="0"
     sodipodi:nodetypes="cc" />
  <path
     style="opacity:0.50700001;fill:none;stroke:#0000ff;stroke-width:18;stroke-linecap:butt;stroke-linejoin:miter;stroke-miterlimit:4;stroke-dasharray:none;stroke-opacity:1"
     d="m 683.946,265.2216 c 0,0 -60.16455,-8.9292 -90.20967,-13.6352 -42.1585,-6.6033 -84.31331,-13.2496 -126.36761,-20.4869 -20.71389,-3.5647 -41.41036,-7.24719 -62.03501,-11.2965 -18.71513,-3.67441 -45.13267,-9.29129 -67.66111,-14.11616 -5.02319,-1.0758 -15.05224,-3.30724 -15.05224,-3.30724"
     id="path1726"
     inkscape:connector-curvature="0"
     sodipodi:nodetypes="caasac" />
  <path
     style="opacity:0.48500001;fill:none;stroke:#ff007f;stroke-width:16;stroke-linecap:butt;stroke-linejoin:miter;stroke-miterlimit:4;stroke-dasharray:none;stroke-opacity:1"
     d="m 686.75157,248.58 c 0,0 -51.38525,-7.6143 -77.05586,-11.5662 -22.75654,-3.5034 -45.50356,-7.07073 -68.22962,-10.7666 -22.9867,-3.73826 -45.95935,-7.5657 -68.90655,-11.53923 -20.87211,-3.61421 -41.75543,-7.18022 -62.55532,-11.18917 -14.86194,-2.86447 -29.65489,-6.0766 -44.46659,-9.1904 -13.07291,-2.7482 -39.19049,-8.378 -39.19049,-8.378"
     id="path1728"
     inkscape:connector-curvature="0"
     sodipodi:nodetypes="caaaaac" />
  <path
     style="opacity:0.43800001;fill:none;stroke:#7f00ff;stroke-width:16;stroke-linecap:butt;stroke-linejoin:miter;stroke-miterlimit:4;stroke-dasharray:none;stroke-opacity:1"
     d="m 681.29364,281.9565 c 0,0 -39.02661,-6.1226 -58.55019,-9.1174 -19.42709,-2.9799 -38.88284,-5.7726 -58.30143,-8.8074 -18.58726,-2.9049 -37.15367,-5.9426 -55.71663,-8.9989 -19.02862,-3.133 -38.07621,-6.1619 -57.05689,-9.5733 -17.01326,-3.0578 -33.96312,-6.45917 -50.92998,-9.7648 -13.27784,-2.5869 -26.55071,-5.20007 -39.81016,-7.87964 -7.05417,-1.42556 -14.10374,-2.87438 -21.14525,-4.36124 -6.54736,-1.38252 -19.62236,-4.23984 -19.62236,-4.23984"
     id="path1730"
     inkscape:connector-curvature="0"
     sodipodi:nodetypes="caaaaaaac" />
  <image
     sodipodi:absref="carmen_lcad/data/road_mapper_remission_350px/voltadaufes/i7756560_-364000.png"
     y="-350.00009"
     x="-349.99997"
     id="image2976"
     xlink:href="carmen_lcad/data/road_mapper_remission_350px/voltadaufes/i7756560_-364000.png"
     preserveAspectRatio="none"
     height="350"
     width="350" />
  <image
     sodipodi:absref="carmen_lcad/data/road_mapper_remission_350px/voltadaufes/i7756560_-364070.png"
     y="-1.9726562e-05"
     x="-349.99997"
     id="image3041"
     xlink:href="carmen_lcad/data/road_mapper_remission_350px/voltadaufes/i7756560_-364070.png"
     preserveAspectRatio="none"
     height="350"
     width="350" />
  <image
     sodipodi:absref="carmen_lcad/data/road_mapper_remission_350px/voltadaufes/i7756560_-363930.png"
     y="-700.00006"
     x="-349.99997"
     id="image3106"
     xlink:href="carmen_lcad/data/road_mapper_remission_350px/voltadaufes/i7756560_-363930.png"
     preserveAspectRatio="none"
     height="350"
     width="350" />
  <image
     sodipodi:absref="carmen_lcad/data/road_mapper_remission_350px/voltadaufes/i7756490_-363930.png"
     y="-700.00006"
     x="-699.99994"
     id="image3171"
     xlink:href="carmen_lcad/data/road_mapper_remission_350px/voltadaufes/i7756490_-363930.png"
     preserveAspectRatio="none"
     height="350"
     width="350" />
  <image
     sodipodi:absref="carmen_lcad/data/road_mapper_remission_350px/voltadaufes/i7756490_-364000.png"
     y="-350.00009"
     x="-699.99994"
     id="image3236"
     xlink:href="carmen_lcad/data/road_mapper_remission_350px/voltadaufes/i7756490_-364000.png"
     preserveAspectRatio="none"
     height="350"
     width="350" />
  <path
     style="opacity:0.51499999;fill:none;stroke:#ff007f;stroke-width:18;stroke-linecap:butt;stroke-linejoin:miter;stroke-miterlimit:4;stroke-dasharray:none;stroke-opacity:1"
     d="M 326.84884,-101.1094 C 178.12788,-193.28377 30.84921,-284.01582 -119.68205,-378.00047"
     id="path3239"
     inkscape:connector-curvature="0"
     sodipodi:nodetypes="cc" />
  <path
     style="opacity:0.51799999;fill:none;stroke:#7f00ff;stroke-width:18;stroke-linecap:butt;stroke-linejoin:miter;stroke-miterlimit:4;stroke-dasharray:none;stroke-opacity:1"
     d="m 317.54651,-85.9683 c -140.41106,-86.91226 -280.7641,-173.2716 -420.74701,-260.54975 -8.72827,-5.44201 -17.37031,-11.02497 -26.13481,-16.40597"
     id="path3241"
     inkscape:connector-curvature="0"
     sodipodi:nodetypes="cac" />
  <path
     style="opacity:0.46300001;fill:none;stroke:#0000ff;stroke-width:18;stroke-linecap:butt;stroke-linejoin:miter;stroke-miterlimit:4;stroke-dasharray:none;stroke-opacity:1"
     d="m 322.62036,202.3796 c 0,0 -9.31269,-1.98956 -13.93183,-3.14109 -15.87241,-3.95692 -31.6407,-8.33692 -47.33732,-12.94201 -25.99341,-7.62597 -51.84838,-15.73953 -77.54377,-24.31619 -20.48769,-6.83843 -40.85066,-14.06089 -61.07768,-21.63567 C 104.67197,133.5822 86.755125,126.44042 68.92779,119.09191 51.138775,111.75919 33.510703,104.03971 15.891685,96.30744 -6.9716137,86.273667 -52.461706,65.672867 -52.461706,65.672867"
     id="path3661"
     inkscape:connector-curvature="0"
     sodipodi:nodetypes="caaaaaac" />
  <path
     style="opacity:0.52899996;fill:none;stroke:#ff007f;stroke-width:16;stroke-linecap:butt;stroke-linejoin:miter;stroke-miterlimit:4;stroke-dasharray:none;stroke-opacity:1"
     d="m 326.34714,185.9504 c 0,0 -13.63466,-3.14039 -20.41221,-4.87158 -9.65526,-2.46625 -19.26011,-5.12947 -28.84523,-7.85564 -15.7002,-4.46541 -31.36582,-9.06044 -46.94747,-13.9234 -22.98441,-7.17332 -45.91381,-14.54533 -68.64059,-22.49726 C 143.37431,130.45991 125.3693,123.75621 107.5082,116.69858 82.89818,106.97417 34.272429,86.064004 34.272429,86.064004"
     id="path3682"
     inkscape:connector-curvature="0"
     sodipodi:nodetypes="caaaaac" />
  <path
     style="opacity:0.51799999;fill:none;stroke:#0000ff;stroke-width:16;stroke-linecap:butt;stroke-linejoin:miter;stroke-miterlimit:4;stroke-dasharray:none;stroke-opacity:1"
     d="M 34.272429,86.064004 -46.493408,50.098413"
     id="path3684"
     inkscape:connector-curvature="0"
     sodipodi:nodetypes="cc" />
  <path
     style="opacity:0.46000001;fill:none;stroke:#7f00ff;stroke-width:16;stroke-linecap:butt;stroke-linejoin:miter;stroke-miterlimit:4;stroke-dasharray:none;stroke-opacity:1"
     d="m 320.16075,219.21398 c 0,0 -32.8902,-8.14478 -49.20967,-12.68591 -16.88687,-4.69902 -33.662,-9.80044 -50.38215,-15.06199 -14.28747,-4.49602 -28.45457,-9.36617 -42.66409,-14.10279 -14.12748,-4.70927 -28.33961,-9.17847 -42.34685,-14.23419 C 121.18878,157.94274 107.02386,152.20587 92.804971,146.62055 79.070442,141.22549 65.311906,135.88436 51.695842,130.19694 34.931438,123.19446 18.332533,115.8001 1.736118,108.40828 -18.790521,99.265999 -59.629245,80.504684 -59.629245,80.504684"
     id="path3686"
     inkscape:connector-curvature="0"
     sodipodi:nodetypes="caaaaaaac" />
  <path
     style="opacity:0.43399999;fill:none;stroke:#ff007f;stroke-width:20;stroke-linecap:butt;stroke-linejoin:miter;stroke-miterlimit:4;stroke-dasharray:none;stroke-opacity:1"
     d="M 41.693344,69.880067 -39.374378,33.85501"
     id="path3688"
     inkscape:connector-curvature="0"
     sodipodi:nodetypes="cc" />
  <path
     style="opacity:0.43800001;fill:none;stroke:#7fff00;stroke-width:18;stroke-linecap:butt;stroke-linejoin:miter;stroke-miterlimit:4;stroke-dasharray:none;stroke-opacity:1"
     d="m 100.47115,84.511189 c 0,0 -10.535526,0.745821 -15.783282,0.353358 C 79.760517,84.496045 74.859591,83.594497 70.08245,82.332156 66.210216,81.308933 62.503004,79.732584 58.775029,78.268551 55.516797,76.988994 52.33318,75.526998 49.116608,74.146054 45.658428,72.661383 38.751473,69.6702 38.751473,69.6702"
     id="path3692"
     inkscape:connector-curvature="0"
     sodipodi:nodetypes="caaaac" />
  <path
     style="opacity:0.51099997;fill:none;stroke:#7fff00;stroke-width:16;stroke-linecap:butt;stroke-linejoin:miter;stroke-miterlimit:4;stroke-dasharray:none;stroke-opacity:1"
     d="m 155.47703,66.136631 c 0,0 -7.7934,5.623848 -12.01413,7.891637 -5.26794,2.830451 -10.7814,5.285386 -16.48999,7.067139 -5.27746,1.647187 -10.78096,2.519513 -16.25442,3.297997 -4.25132,0.604662 -12.838631,1.060071 -12.838631,1.060071"
     id="path3694"
     inkscape:connector-curvature="0"
     sodipodi:nodetypes="caaac" />
  <path
     style="opacity:0.48200001;fill:none;stroke:#ff7f00;stroke-width:18;stroke-linecap:butt;stroke-linejoin:miter;stroke-miterlimit:4;stroke-dasharray:none;stroke-opacity:1"
     d="m 99.999999,75.559482 c 0,0 -11.951102,0.09222 -17.903414,-0.353357 C 73.015269,74.526318 63.950192,73.38483 55.00589,71.672556 49.833885,70.682441 39.693757,67.78563 39.693757,67.78563"
     id="path3696"
     inkscape:connector-curvature="0"
     sodipodi:nodetypes="caac" />
  <path
     style="opacity:0.47099998;fill:none;stroke:#ff7f00;stroke-width:16;stroke-linecap:butt;stroke-linejoin:miter;stroke-miterlimit:4;stroke-dasharray:none;stroke-opacity:1"
     d="m 146.28975,53.297998 c 0,0 -7.09826,5.216988 -10.83628,7.53828 -3.73206,2.317591 -7.5416,4.547024 -11.54298,6.360424 -4.4118,1.999397 -9.00255,3.627734 -13.66314,4.946996 -4.28238,1.212202 -13.074205,2.70907 -13.074205,2.70907"
     id="path3698"
     inkscape:connector-curvature="0"
     sodipodi:nodetypes="caaac" />
</svg>
