<?xml version="1.0" encoding="UTF-8" standalone="no"?>
<!-- Created with Inkscape (http://www.inkscape.org/) -->

<svg
   xmlns:dc="http://purl.org/dc/elements/1.1/"
   xmlns:cc="http://creativecommons.org/ns#"
   xmlns:rdf="http://www.w3.org/1999/02/22-rdf-syntax-ns#"
   xmlns:svg="http://www.w3.org/2000/svg"
   xmlns="http://www.w3.org/2000/svg"
   xmlns:xlink="http://www.w3.org/1999/xlink"
   xmlns:sodipodi="http://sodipodi.sourceforge.net/DTD/sodipodi-0.dtd"
   xmlns:inkscape="http://www.inkscape.org/namespaces/inkscape"
   version="1.1"
   id="svg5775"
   width="350"
   height="350"
   viewBox="0 0 350 350"
   sodipodi:docname="i7756490_-363930.svg"
   inkscape:version="0.92.2 (unknown)">
  <metadata
     id="metadata5781">
    <rdf:RDF>
      <cc:Work
         rdf:about="">
        <dc:format>image/svg+xml</dc:format>
        <dc:type
           rdf:resource="http://purl.org/dc/dcmitype/StillImage" />
        <dc:title />
      </cc:Work>
    </rdf:RDF>
  </metadata>
  <defs
     id="defs5779" />
  <sodipodi:namedview
     pagecolor="#ffffff"
     bordercolor="#666666"
     borderopacity="1"
     objecttolerance="10"
     gridtolerance="10"
     guidetolerance="10"
     inkscape:pageopacity="0"
     inkscape:pageshadow="2"
     inkscape:window-width="1855"
     inkscape:window-height="1056"
     id="namedview5777"
     showgrid="false"
     inkscape:zoom="1.3057143"
     inkscape:cx="473.0113"
     inkscape:cy="143.09279"
     inkscape:window-x="65"
     inkscape:window-y="24"
     inkscape:window-maximized="1"
     inkscape:current-layer="svg5775"
     inkscape:measure-start="166.255,518.261"
     inkscape:measure-end="200.102,513.117" />
  <image
     sodipodi:absref="/home/rcarneiro/carmen_lcad/data/road_mapper_remission_350px/voltadaufes/i7756560_-363930.png"
     y="0"
     x="350.00006"
     id="image2070"
     xlink:href="file:///home/rcarneiro/carmen_lcad/data/road_mapper_remission_350px/voltadaufes/i7756560_-363930.png"
     preserveAspectRatio="none"
     height="350"
     width="350" />
  <image
     sodipodi:absref="carmen_lcad/data/road_mapper_remission_350px/voltadaufes/i7756490_-363860.png"
     xlink:href="carmen_lcad/data/road_mapper_remission_350px/voltadaufes/i7756490_-363860.png"
     y="-350"
     x="0"
     id="image6181"
     preserveAspectRatio="none"
     height="350"
     width="350" />
  <image
     sodipodi:absref="carmen_lcad/data/road_mapper_remission_350px/voltadaufes/i7756490_-363790.png"
     xlink:href="carmen_lcad/data/road_mapper_remission_350px/voltadaufes/i7756490_-363790.png"
     y="-700"
     x="0"
     id="image6270"
     preserveAspectRatio="none"
     height="350"
     width="350" />
  <image
     sodipodi:absref="carmen_lcad/data/road_mapper_remission_350px/voltadaufes/i7756560_-364000.png"
     xlink:href="carmen_lcad/data/road_mapper_remission_350px/voltadaufes/i7756560_-364000.png"
     width="350"
     height="350"
     preserveAspectRatio="none"
     id="image4252"
     x="350"
     y="350" />
  <image
     sodipodi:absref="carmen_lcad/data/road_mapper_remission_350px/voltadaufes/i7756630_-364000.png"
     xlink:href="carmen_lcad/data/road_mapper_remission_350px/voltadaufes/i7756630_-364000.png"
     width="350"
     height="350"
     preserveAspectRatio="none"
     id="image2561"
     x="700"
     y="350" />
  <image
     sodipodi:absref="carmen_lcad/data/road_mapper_remission_350px/voltadaufes/i7756490_-363930.png"
     xlink:href="carmen_lcad/data/road_mapper_remission_350px/voltadaufes/i7756490_-363930.png"
     width="350"
     height="350"
     preserveAspectRatio="none"
     id="image5783"
     x="0"
     y="0" />
  <image
     sodipodi:absref="carmen_lcad/data/road_mapper_remission_350px/voltadaufes/i7756560_-364070.png"
     xlink:href="carmen_lcad/data/road_mapper_remission_350px/voltadaufes/i7756560_-364070.png"
     width="350"
     height="350"
     preserveAspectRatio="none"
     id="image3770"
     x="350"
     y="700.00012"
     style="fill:#24221c" />
  <image
     sodipodi:absref="carmen_lcad/data/road_mapper_remission_350px/voltadaufes/i7756630_-364070.png"
     xlink:href="carmen_lcad/data/road_mapper_remission_350px/voltadaufes/i7756630_-364070.png"
     width="350"
     height="350"
     preserveAspectRatio="none"
     id="image3313"
     x="700"
     y="700.00012" />
  <image
     sodipodi:absref="carmen_lcad/data/road_mapper_remission_350px/voltadaufes/i7756700_-364000.png"
     xlink:href="carmen_lcad/data/road_mapper_remission_350px/voltadaufes/i7756700_-364000.png"
     width="350"
     height="350"
     preserveAspectRatio="none"
     id="image2161"
     x="1050"
     y="350" />
  <image
     sodipodi:absref="carmen_lcad/data/road_mapper_remission_350px/voltadaufes/i7756700_-364070.png"
     xlink:href="carmen_lcad/data/road_mapper_remission_350px/voltadaufes/i7756700_-364070.png"
     width="350"
     height="350"
     preserveAspectRatio="none"
     id="image1109"
     x="1050"
     y="700.00012" />
  <image
     sodipodi:absref="carmen_lcad/data/road_mapper_remission_350px/voltadaufes/i7756490_-364000.png"
     xlink:href="carmen_lcad/data/road_mapper_remission_350px/voltadaufes/i7756490_-364000.png"
     y="350"
     x="7.2479248e-05"
     id="image3236"
     preserveAspectRatio="none"
     height="350"
     width="350" />
  <path
     style="opacity:0.48500001;fill:none;stroke:#ff007f;stroke-width:18;stroke-linecap:butt;stroke-linejoin:miter;stroke-miterlimit:4;stroke-dasharray:none;stroke-opacity:1"
     d="m 370.19968,192.99782 c -14.64045,-9.21872 -20.39236,-12.39149 -30.54696,-18.65497 -6.72342,-4.14709 -13.61006,-8.04841 -20.11479,-12.53072 -8.53968,-5.88456 -16.84187,-12.13996 -24.77581,-18.81879 -6.18032,-5.20262 -11.98958,-10.83866 -17.73569,-16.51721 -5.34322,-5.28039 -10.68418,-10.58863 -15.55307,-16.30932 -6.55832,-7.70568 -12.68525,-15.798758 -18.33731,-24.191795 -5.33973,-7.929236 -7.79153,-12.056014 -14.66427,-24.646064"
     id="path5709"
     inkscape:connector-curvature="0"
     sodipodi:nodetypes="caaaaaac" />
  <path
     style="opacity:0.51499999;fill:none;stroke:#007fff;stroke-width:18;stroke-linecap:butt;stroke-linejoin:miter;stroke-miterlimit:4;stroke-dasharray:none;stroke-opacity:1"
     d="m 361.64231,208.51125 c 0,0 -34.34171,-20.69701 -41.96899,-25.57875 -7.40058,-4.73664 -14.89372,-9.36278 -21.93269,-14.6218 -7.95709,-5.94498 -15.54783,-12.38943 -22.88039,-19.08955 -6.17208,-5.63973 -17.7357,-17.73571 -17.7357,-17.73571"
     id="path5707"
     inkscape:connector-curvature="0"
     sodipodi:nodetypes="caaac" />
  <path
     style="opacity:0.51799999;fill:none;stroke:#7f00ff;stroke-width:18;stroke-linecap:butt;stroke-linejoin:miter;stroke-miterlimit:4;stroke-dasharray:none;stroke-opacity:1"
     d="m 257.12454,131.48544 c 0,0 -10.16847,-10.97008 -15.02795,-16.65258 -3.77452,-4.4138 -7.53411,-8.8538 -10.96635,-13.53871 -3.48407,-4.755649 -6.58933,-9.779359 -9.74786,-14.757179 -3.11417,-4.9079 -9.07092,-14.89256 -9.07092,-14.89256"
     id="path5711"
     inkscape:connector-curvature="0"
     sodipodi:nodetypes="caaac" />
  <path
     style="opacity:0.60700001;fill:none;stroke:#7fff00;stroke-width:18;stroke-linecap:butt;stroke-linejoin:miter;stroke-miterlimit:4;stroke-dasharray:none;stroke-opacity:1"
     d="m 361.64231,208.51125 c -11.02528,-6.99372 -19.56798,-10.51612 -29.72274,-14.98856 -11.08195,-4.88079 -22.50971,-8.96115 -33.96454,-12.88779 -7.71507,-2.64468 -15.41963,-5.45159 -23.39026,-7.1795 -6.84914,-1.48479 -13.85621,-3.1636 -20.84959,-2.70774 -4.56596,0.29763 -9.21341,1.39936 -13.26793,3.52006 -4.19868,2.1961 -8.0009,5.40598 -10.83096,9.20631 -3.15006,4.23006 -5.12838,9.35889 -6.36318,14.48641 -0.71972,2.98864 -0.54155,9.20631 -0.54155,9.20631"
     id="path6184"
     inkscape:connector-curvature="0"
     sodipodi:nodetypes="caaaaaaac" />
  <path
     style="opacity:0.46700003;fill:none;stroke:#ff7f00;stroke-width:18;stroke-linecap:butt;stroke-linejoin:miter;stroke-miterlimit:4;stroke-dasharray:none;stroke-opacity:1"
     d="m 287.81833,177.18846 c -11.76153,-4.17986 -21.56385,-10.71272 -33.26301,-12.73202 -7.576,-1.30764 -15.62435,-1.41568 -23.05757,0.54718 -8.78558,2.31997 -17.62961,6.43119 -24.01889,12.89228 -10.46773,10.58539 -12.55552,17.30175 -20.68066,39.58442"
     id="path6186"
     inkscape:connector-curvature="0"
     sodipodi:nodetypes="caaac" />
  <path
     style="opacity:0.51099997;fill:none;stroke:#ff0000;stroke-width:17;stroke-linecap:butt;stroke-linejoin:miter;stroke-miterlimit:4;stroke-dasharray:none;stroke-opacity:1"
     d="M 229.4809,64.468889 C 222.1996,51.061392 215.96793,38.013502 209.30825,23.175865"
     id="path6188"
     inkscape:connector-curvature="0"
     sodipodi:nodetypes="cc" />
  <path
     style="opacity:0.478;fill:none;stroke:#ff0000;stroke-width:17;stroke-linecap:butt;stroke-linejoin:miter;stroke-miterlimit:4;stroke-dasharray:none;stroke-opacity:1"
     d="M 213.36986,74.21675 C 204.717,60.522669 198.43674,46.712724 191.70794,32.382178"
     id="path6190"
     inkscape:connector-curvature="0"
     sodipodi:nodetypes="cc" />
  <path
     style="opacity:0.5;fill:none;stroke:#7fff00;stroke-width:17;stroke-linecap:butt;stroke-linejoin:miter;stroke-miterlimit:4;stroke-dasharray:none;stroke-opacity:1"
     d="m 191.70794,32.382178 c 0,0 -2.55481,-5.24292 -3.52006,-7.987831 -1.56518,-4.450904 -2.71091,-9.051512 -3.65545,-13.674083 -1.18186,-5.7840257 -1.95625,-11.65460221 -2.50465,-17.5326124 -0.58467,-6.2666716 -0.74751,-12.5699536 -0.83356,-18.8632526 -0.16828,-12.306646 0.25731,-24.615743 0.62085,-36.91817 0.28616,-9.683929 0.68217,-19.365748 1.22811,-29.038511 0.66793,-11.834398 1.36807,-23.672768 2.50465,-35.471388 1.15963,-12.03785 4.40008,-36.01293 4.40008,-36.01293"
     id="path6192"
     inkscape:connector-curvature="0"
     sodipodi:nodetypes="caaaaaaac" />
  <path
     style="opacity:0.51799999;fill:none;stroke:#ff7f00;stroke-width:17;stroke-linecap:butt;stroke-linejoin:miter;stroke-miterlimit:4;stroke-dasharray:none;stroke-opacity:1"
     d="m 209.30825,23.175865 c 0,0 -6.11827,-14.859867 -8.66476,-22.47423676 -2.45566,-7.34273794 -4.58648,-14.80297924 -6.36319,-22.33884924 -2.75014,-11.664632 -5.19779,-23.437918 -6.63397,-35.335998 -1.08865,-9.019034 -1.35836,-18.129223 -1.48925,-27.212781 -0.15089,-10.472338 0.30213,-20.94878 0.81231,-31.40977 0.52235,-10.71033 1.68301,-21.38153 2.30159,-32.08672 0.29707,-5.14107 0.67693,-15.43411 0.67693,-15.43411"
     id="path6194"
     inkscape:connector-curvature="0"
     sodipodi:nodetypes="caaaaaac" />
  <path
     style="opacity:0.44900004;fill:none;stroke:#7fff00;stroke-width:17;stroke-linecap:butt;stroke-linejoin:miter;stroke-miterlimit:4;stroke-dasharray:none;stroke-opacity:1"
     d="m 173.15993,-165.35049 c 0,0 -1.92122,14.87942 -2.70774,22.33885 -1.27094,12.05368 -2.37677,24.12697 -3.24929,36.21602 -0.92239,12.779932 -1.58599,25.579281 -2.0985,38.382202 -0.39093,9.765757 -0.87561,19.538578 -0.74462,29.311278 0.14273,10.648508 1.30909,21.261422 1.66711,31.9048667 0.28525,8.4804138 0.38293,25.4527493 0.38293,25.4527493"
     id="path6196"
     inkscape:connector-curvature="0"
     sodipodi:nodetypes="caaaaac" />
  <path
     style="opacity:0.47400004;fill:none;stroke:#ff7f00;stroke-width:17;stroke-linecap:butt;stroke-linejoin:miter;stroke-miterlimit:4;stroke-dasharray:none;stroke-opacity:1"
     d="m 173.15993,-165.35049 c 0,0 -2.33001,16.3451 -3.42524,24.52719 -1.23313,9.21221 -2.3644,18.43776 -3.54213,27.65722 -1.47939,11.58095 -2.86247,23.174527 -4.42695,34.744294 -1.4672,10.850373 -3.0692,21.682162 -4.65127,32.516383 -1.74125,11.924369 -3.79329,23.805018 -5.32819,35.7577 -1.19371,9.29579683 -3.017,27.954049 -3.017,27.954049"
     id="path6198"
     inkscape:connector-curvature="0"
     sodipodi:nodetypes="caaaaac" />
  <path
     style="opacity:0.44500002;fill:none;stroke:#ff0000;stroke-width:17;stroke-linecap:butt;stroke-linejoin:miter;stroke-miterlimit:4;stroke-dasharray:none;stroke-opacity:1"
     d="m 166.40982,18.255476 c -0.63408,16.099388 -1.51001,32.789966 -1.17459,46.651526"
     id="path6200"
     inkscape:connector-curvature="0"
     sodipodi:nodetypes="cc" />
  <path
     style="opacity:0.55500028;fill:none;stroke:#ff0000;stroke-width:17;stroke-linecap:butt;stroke-linejoin:miter;stroke-miterlimit:4;stroke-dasharray:none;stroke-opacity:1"
     d="m 148.76915,17.806346 c -1.17989,17.122505 -2.71937,30.822492 -2.64369,44.93845"
     id="path6202"
     inkscape:connector-curvature="0"
     sodipodi:nodetypes="cc" />
  <path
     style="opacity:0.43000004;fill:none;stroke:#7fff00;stroke-width:17;stroke-linecap:butt;stroke-linejoin:miter;stroke-miterlimit:4;stroke-dasharray:none;stroke-opacity:1"
     d="m 165.23523,64.907002 c 0,0 -0.0444,16.104711 0.57439,24.124727 0.79869,10.351155 1.85618,20.733331 4.04403,30.882111 1.85048,8.58387 4.83515,16.89012 7.64503,25.20947 3.80223,11.25744 7.91258,22.42033 12.45724,33.39908 5.16327,12.47312 10.77077,23.5662 16.80724,36.84643"
     id="path6204"
     inkscape:connector-curvature="0"
     sodipodi:nodetypes="caaaac" />
  <path
     style="opacity:0.55100002;fill:none;stroke:#ff7f00;stroke-width:17;stroke-linecap:butt;stroke-linejoin:miter;stroke-miterlimit:4;stroke-dasharray:none;stroke-opacity:1"
     d="m 146.12546,62.744796 c 0,0 -0.0632,12.395138 0.24754,18.581832 0.36378,7.242497 0.84098,14.497361 1.89143,21.672502 1.01334,6.92168 2.55054,13.76545 4.2451,20.55257 1.80386,7.22485 4.20492,14.28733 6.29516,21.43458 1.63933,5.6054 3.41004,11.17455 4.89881,16.8218 1.32645,5.03152 2.69274,10.06629 3.59139,15.19152 0.96737,5.51708 1.57807,11.10245 1.92827,16.69274 0.49011,7.82367 0.23798,23.51582 0.23798,23.51582"
     id="path6206"
     inkscape:connector-curvature="0"
     sodipodi:nodetypes="caaaaaaac" />
</svg>
