<?xml version="1.0" encoding="UTF-8" standalone="no"?>
<svg
   height="280.0mm"
   id="svg_2022_01_20_14_14_40_665688"
   inkscape:version="1.1.1 (50ffc5b540, 2022-01-11)"
   sodipodi:docname="@7989870_-205310.svg"
   viewBox="0 0 210.0 280.0"
   width="210.0mm"
   version="1.1"
   xmlns:inkscape="http://www.inkscape.org/namespaces/inkscape"
   xmlns:sodipodi="http://sodipodi.sourceforge.net/DTD/sodipodi-0.dtd"
   xmlns:xlink="http://www.w3.org/1999/xlink"
   xmlns="http://www.w3.org/2000/svg"
   xmlns:svg="http://www.w3.org/2000/svg"
   xmlns:rdf="http://www.w3.org/1999/02/22-rdf-syntax-ns#"
   xmlns:cc="http://creativecommons.org/ns#"
   xmlns:dc="http://purl.org/dc/elements/1.1/">
  <metadata
     id="metadata_2022_01_20_14_14_40_665777">
    <rdf:RDF>
      <cc:Work
         rdf:about="">
        <dc:format>image/svg+xml</dc:format>
        <dc:type
           rdf:resource="http://purl.org/dc/dcmitype/StillImage" />
        <dc:title />
      </cc:Work>
    </rdf:RDF>
  </metadata>
  <defs
     id="defs_2022_01_20_14_14_40_665827">
    <marker
       id="marker_trapezium"
       markerHeight="5"
       markerUnits="strokeWidth"
       markerWidth="5"
       orient="auto"
       refX="0"
       refy="0"
       viewBox="0 0 5 5">
      <path
         d="M 0.0,-0.5 L 0.0,0.5 L -5.0,2.5 L -5.0,-2.5 z"
         fill="context-stroke"
         id="path3" />
    </marker>
  </defs>
  <sodipodi:namedview
     bordercolor="#666666"
     borderopacity="1"
     gridtolerance="10"
     guidetolerance="10"
     id="namedview_2022_01_20_14_14_40_665880"
     inkscape:current-layer="layer_2022_01_20_14_14_40_665970"
     inkscape:cx="25.674711"
     inkscape:cy="367.44299"
     inkscape:document-units="mm"
     inkscape:pageopacity="0"
     inkscape:pageshadow="2"
     inkscape:window-height="992"
     inkscape:window-maximized="1"
     inkscape:window-width="1920"
     inkscape:window-x="0"
     inkscape:window-y="24"
     inkscape:zoom="1.1879394"
     objecttolerance="10"
     pagecolor="#ffffff"
     showgrid="false"
     inkscape:pagecheckerboard="0" />
  <g
     id="layer_2022_01_20_14_14_40_665970"
     inkscape:groupmode="layer"
     inkscape:label="images_m"
     style="display:inline">
    <image
       height="70"
       id="image_2022_01_20_14_14_40_665970"
       inkscape:label="image_m7990010_-205310.png"
       preserveAspectRatio="none"
       width="70"
       x="140"
       xlink:href="../img/m7990010_-205310.png"
       y="210" />
    <image
       height="70"
       id="image_2022_01_20_14_14_40_666042"
       inkscape:label="image_m7990010_-205240.png"
       preserveAspectRatio="none"
       width="70"
       x="140"
       xlink:href="../img/m7990010_-205240.png"
       y="140" />
    <image
       height="70"
       id="image_2022_01_20_14_14_40_666093"
       inkscape:label="image_m7990010_-205170.png"
       preserveAspectRatio="none"
       width="70"
       x="140"
       xlink:href="../img/m7990010_-205170.png"
       y="70" />
    <image
       height="70"
       id="image_2022_01_20_14_14_40_666191"
       inkscape:label="image_m7990010_-205100.png"
       preserveAspectRatio="none"
       width="70"
       x="140"
       xlink:href="../img/m7990010_-205100.png"
       y="0" />
    <image
       height="70"
       id="image_2022_01_20_14_14_40_666242"
       inkscape:label="image_m7989940_-205310.png"
       preserveAspectRatio="none"
       width="70"
       x="70"
       xlink:href="../img/m7989940_-205310.png"
       y="210" />
    <image
       height="70"
       id="image_2022_01_20_14_14_40_666293"
       inkscape:label="image_m7989940_-205240.png"
       preserveAspectRatio="none"
       width="70"
       x="70"
       xlink:href="../img/m7989940_-205240.png"
       y="140" />
    <image
       height="70"
       id="image_2022_01_20_14_14_40_666345"
       inkscape:label="image_m7989940_-205170.png"
       preserveAspectRatio="none"
       width="70"
       x="70"
       xlink:href="../img/m7989940_-205170.png"
       y="70" />
    <image
       height="70"
       id="image_2022_01_20_14_14_40_666397"
       inkscape:label="image_m7989940_-205100.png"
       preserveAspectRatio="none"
       width="70"
       x="70"
       xlink:href="../img/m7989940_-205100.png"
       y="0" />
    <image
       height="70"
       id="image_2022_01_20_14_14_40_666444"
       inkscape:label="image_m7989870_-205310.png"
       preserveAspectRatio="none"
       width="70"
       x="0"
       xlink:href="../img/m7989870_-205310.png"
       y="210" />
    <image
       height="70"
       id="image_2022_01_20_14_14_40_666494"
       inkscape:label="image_m7989870_-205240.png"
       preserveAspectRatio="none"
       width="70"
       x="0"
       xlink:href="../img/m7989870_-205240.png"
       y="140" />
    <image
       height="70"
       id="image_2022_01_20_14_14_40_666548"
       inkscape:label="image_m7989870_-205170.png"
       preserveAspectRatio="none"
       width="70"
       x="0"
       xlink:href="../img/m7989870_-205170.png"
       y="70" />
    <image
       height="70"
       id="image_2022_01_20_14_14_40_666597"
       inkscape:label="image_m7989870_-205100.png"
       preserveAspectRatio="none"
       width="70"
       x="0"
       xlink:href="../img/m7989870_-205100.png"
       y="0" />
  </g>
  <g
     id="layer_2022_01_20_14_14_40_666649"
     inkscape:groupmode="layer"
     inkscape:label="paths"
     marker-end="url(#marker_trapezium)"
     style="display:inline">
    <path
       d="m 99.287,78.289 c -0.04114,0.163462 -0.08223,0.326935 -0.123324,0.490409 -0.03997,0.158991 -0.08003,0.317958 -0.12044,0.476837 -0.04016,0.157889 -0.08066,0.315692 -0.121745,0.473341 -0.04169,0.159953 -0.08399,0.31975 -0.127156,0.47931 -0.04379,0.161853 -0.08848,0.323467 -0.134359,0.484741 -0.04471,0.15718 -0.09055,0.314046 -0.137781,0.470487 -0.04796,0.158848 -0.09735,0.317271 -0.148464,0.475132 -0.0509,0.157198 -0.103497,0.313858 -0.158068,0.469818 -0.0544,0.155464 -0.110759,0.310259 -0.169334,0.464197 -0.05846,0.153647 -0.119146,0.306473 -0.182267,0.458267 -0.0631,0.151748 -0.128659,0.302504 -0.196863,0.452029 -0.06831,0.149764 -0.140388,0.297803 -0.213199,0.445432 -0.09839,0.19949 -0.177459,0.408094 -0.275,0.608 -0.08854,0.181469 -0.15634,0.372587 -0.245,0.554 -0.08824,0.180559 -0.172593,0.363015 -0.262,0.543 -0.08443,0.169969 -0.123401,0.360114 -0.208,0.53 -0.07501,0.150621 -0.166754,0.292499 -0.242,0.443 -0.0786,0.157212 -0.162586,0.311695 -0.241,0.469 -0.07957,0.159631 -0.135132,0.330517 -0.215,0.49 -0.08732,0.174363 -0.166954,0.3525 -0.254,0.527 -0.103529,0.207543 -0.168352,0.43302 -0.273,0.64 -0.07949,0.157217 -0.139111,0.323985 -0.219,0.481 -0.08861,0.174153 -0.155577,0.358753 -0.244,0.533 -0.08028,0.158205 -0.151561,0.320875 -0.232,0.479 -0.09101,0.178907 -0.193115,0.352029 -0.284,0.531 -0.08487,0.167125 -0.153516,0.342188 -0.239,0.509 -0.0888,0.173286 -0.181036,0.344797 -0.27,0.518 -0.103243,0.201001 -0.180313,0.414714 -0.283,0.616 -0.0952,0.186599 -0.174464,0.381091 -0.271,0.567 -0.100161,0.192891 -0.191418,0.390328 -0.292,0.583 -0.107076,0.205113 -0.194023,0.42036 -0.302,0.625 -0.0784,0.14859 -0.144098,0.303675 -0.223,0.452 -0.09496,0.178511 -0.189138,0.357437 -0.284,0.536 -0.101241,0.19057 -0.171622,0.396503 -0.273,0.587 -0.07541,0.141703 -0.151614,0.282983 -0.227588,0.424384 -0.07437,0.138414 -0.148638,0.276884 -0.222412,0.415616 -0.07552,0.142005 -0.146642,0.286312 -0.217937,0.430481 -0.07124,0.144066 -0.142524,0.288195 -0.219063,0.429519 -0.108284,0.199939 -0.22107,0.397412 -0.33,0.597 -0.115622,0.211849 -0.208249,0.435772 -0.325,0.647 -0.08677,0.156981 -0.175373,0.312941 -0.262,0.47 -0.08529,0.15463 -0.166814,0.311314 -0.252,0.466 -0.09031,0.163988 -0.188014,0.323835 -0.278,0.488 -0.06312,0.11515 -0.131697,0.22725 -0.199808,0.33952 -0.06805,0.11217 -0.136498,0.22423 -0.199192,0.33948 -0.08385,0.15415 -0.143066,0.32089 -0.227,0.475 -0.08305,0.15248 -0.132592,0.32171 -0.216,0.474 -0.08275,0.15108 -0.13417,0.31797 -0.217,0.469 -0.08161,0.14882 -0.180616,0.28761 -0.263,0.436 -0.08092,0.14575 -0.153353,0.2961 -0.234,0.442 -0.08341,0.15089 -0.171139,0.29936 -0.255,0.45 -0.07827,0.1406 -0.156546,0.28121 -0.23536,0.42151 -0.07555,0.13449 -0.15107,0.269 -0.22664,0.40349 -0.118547,0.21097 -0.179632,0.45093 -0.298,0.662 -0.06391,0.11396 -0.125812,0.22905 -0.187277,0.34435 -0.06147,0.1153 -0.12297,0.2306 -0.186723,0.34465 -0.121689,0.2177 -0.216486,0.44976 -0.339,0.667 -0.09492,0.16831 -0.22046,0.31804 -0.316,0.486 -0.08305,0.146 -0.159451,0.29571 -0.242,0.442 -0.08971,0.15898 -0.185635,0.31439 -0.276,0.473 -0.09608,0.16865 -0.159504,0.35459 -0.256,0.523 -0.08449,0.14746 -0.149799,0.30537 -0.234,0.453 -0.09372,0.16433 -0.179718,0.33299 -0.274,0.497 -0.06474,0.11262 -0.127088,0.22661 -0.189451,0.34057 -0.06084,0.11118 -0.121587,0.22244 -0.184549,0.33243 -0.09358,0.16348 -0.183973,0.32878 -0.278,0.492 -0.0919,0.15953 -0.182829,0.31962 -0.275,0.479 -0.10153,0.17556 -0.184925,0.36118 -0.286,0.537 -0.102966,0.17911 -0.193807,0.36502 -0.297,0.544 -0.0982,0.17032 -0.183595,0.34781 -0.282,0.518 -0.102649,0.17754 -0.199262,0.35852 -0.302,0.536 -0.09875,0.17059 -0.202121,0.33848 -0.301,0.509 -0.06911,0.11919 -0.13763,0.23872 -0.206525,0.35804 -0.06716,0.11632 -0.134396,0.23259 -0.201475,0.34896 -0.102228,0.17734 -0.202579,0.35577 -0.305,0.533 -0.09978,0.17266 -0.201388,0.34425 -0.301,0.517 -0.108075,0.18743 -0.19453,0.3868 -0.303,0.574 -0.122173,0.21085 -0.241278,0.42347 -0.364,0.634 -0.09757,0.16739 -0.178705,0.34404 -0.277,0.511 -0.125711,0.21353 -0.278623,0.41027 -0.404,0.624 -0.09814,0.1673 -0.202789,0.33074 -0.301,0.498 -0.105285,0.17931 -0.223543,0.35079 -0.329,0.53 -0.116137,0.19736 -0.249304,0.38438 -0.365,0.582 -0.08557,0.14616 -0.194421,0.27784 -0.28,0.424 -0.101546,0.17343 -0.177307,0.36107 -0.278,0.535 -0.10616,0.18337 -0.192163,0.37787 -0.297,0.562 -0.06839,0.12012 -0.136678,0.2403 -0.205421,0.36022 -0.06699,0.11685 -0.134028,0.23368 -0.200579,0.35078 -0.113397,0.19953 -0.17735,0.42461 -0.291,0.624 -0.102161,0.17923 -0.194862,0.36375 -0.297,0.543 -0.105988,0.186 -0.18827,0.38485 -0.294,0.571 -0.09665,0.17016 -0.192612,0.3407 -0.289,0.511 -0.06588,0.11641 -0.128042,0.2349 -0.189999,0.35344 -0.06038,0.11553 -0.120702,0.23116 -0.185001,0.34456 -0.09364,0.16516 -0.186134,0.33097 -0.28,0.496 -0.114899,0.20201 -0.22853,0.40474 -0.343,0.607 -0.06984,0.12339 -0.134192,0.24983 -0.198524,0.37618 -0.0613,0.1204 -0.122567,0.24089 -0.188476,0.35882 -0.064,0.11452 -0.120642,0.23306 -0.177266,0.35141 -0.05372,0.11227 -0.10745,0.2247 -0.167734,0.33359 -0.06365,0.11497 -0.122378,0.23262 -0.180997,0.35023 -0.0555,0.11135 -0.111097,0.22273 -0.171003,0.33177 -0.118423,0.21556 -0.233087,0.43316 -0.351,0.649 -0.119925,0.21952 -0.218064,0.45048 -0.338,0.67 -0.110025,0.20138 -0.210662,0.40779 -0.321,0.609 -0.115013,0.20973 -0.222305,0.42365 -0.338,0.633 -0.06287,0.11376 -0.120651,0.23028 -0.178219,0.34681 -0.05462,0.11056 -0.109292,0.22118 -0.168781,0.32919 -0.116724,0.21193 -0.202217,0.4401 -0.319,0.652 -0.06787,0.12315 -0.13127,0.24873 -0.19449,0.37433 -0.06159,0.12237 -0.123277,0.24476 -0.18951,0.36467 -0.06322,0.11446 -0.12893,0.22754 -0.194603,0.34061 -0.06218,0.10705 -0.12439,0.21411 -0.184397,0.32239 -0.06861,0.12381 -0.128711,0.2522 -0.188813,0.38035 -0.05713,0.1218 -0.114507,0.24368 -0.179187,0.36165 -0.09589,0.1749 -0.167845,0.36225 -0.264,0.537 -0.113111,0.20557 -0.23193,0.40796 -0.346,0.613 -0.09069,0.16302 -0.189952,0.32117 -0.281,0.484 -0.07165,0.12813 -0.136067,0.26022 -0.200144,0.39229 -0.06405,0.13202 -0.128651,0.26397 -0.200856,0.39171 -0.0958,0.16949 -0.167171,0.3521 -0.264,0.521 -0.06321,0.11025 -0.120942,0.22357 -0.179336,0.33645 -0.05679,0.10978 -0.113782,0.21956 -0.175664,0.32655 -0.08097,0.14 -0.161781,0.2801 -0.242629,0.42018 -0.08077,0.13995 -0.161314,0.28003 -0.242371,0.41982 -0.100747,0.17374 -0.196335,0.35044 -0.291747,0.52717 -0.0954,0.17671 -0.190999,0.3534 -0.292253,0.52683 -0.111715,0.19134 -0.21825,0.38568 -0.33,0.577 -0.119383,0.20439 -0.23515,0.41088 -0.355,0.615 -0.113151,0.19271 -0.217349,0.39059 -0.331,0.583 -0.117585,0.19907 -0.230134,0.40109 -0.348,0.6 -0.06512,0.1099 -0.130598,0.21958 -0.196248,0.32916 -0.06388,0.10664 -0.127888,0.2132 -0.191752,0.31984 -0.118369,0.19766 -0.206751,0.41227 -0.325,0.61 -0.124662,0.20845 -0.214816,0.43626 -0.339,0.645 -0.126246,0.21221 -0.246143,0.42816 -0.373,0.64 -0.105718,0.17654 -0.202484,0.35834 -0.308,0.535 -0.121153,0.20284 -0.244107,0.4046 -0.366,0.607 -0.10172,0.1689 -0.200943,0.3393 -0.303,0.508 -0.113557,0.18771 -0.236484,0.36967 -0.349,0.558 -0.126834,0.2123 -0.253896,0.42446 -0.382,0.636 -0.110858,0.18306 -0.203578,0.37668 -0.314,0.56 -0.116216,0.19294 -0.233158,0.38544 -0.35,0.578 -0.08819,0.14535 -0.163018,0.29852 -0.251,0.444 -0.07422,0.12272 -0.149134,0.24502 -0.224261,0.36718 -0.07167,0.11655 -0.143421,0.23305 -0.214739,0.34982 -0.12423,0.2034 -0.238907,0.41252 -0.363,0.616 -0.121039,0.19847 -0.25339,0.38988 -0.375,0.588 -0.0971,0.15818 -0.145464,0.34309 -0.243,0.501 -0.114006,0.18458 -0.23398,0.36543 -0.348,0.55 -0.100412,0.16254 -0.199145,0.32612 -0.299,0.489 -0.106694,0.17404 -0.237953,0.33218 -0.345,0.506 -0.11482,0.18644 -0.230537,0.37234 -0.345,0.559 -0.06666,0.1087 -0.13611,0.21568 -0.20605,0.3223 -0.06806,0.10375 -0.136249,0.20744 -0.20195,0.3127 -0.06914,0.11077 -0.138109,0.22164 -0.2072,0.33243 -0.06735,0.10801 -0.134771,0.21598 -0.2028,0.32357 -0.130434,0.20628 -0.252196,0.41796 -0.383,0.624 -0.106448,0.16768 -0.205998,0.33968 -0.313,0.507 -0.09705,0.15176 -0.167699,0.31939 -0.265,0.471 -0.133129,0.20743 -0.272496,0.41081 -0.406,0.618 -0.109624,0.17013 -0.209015,0.34675 -0.32,0.516 -0.07498,0.11435 -0.151507,0.22768 -0.227835,0.34113 -0.07271,0.10808 -0.145134,0.21634 -0.217165,0.32487 -0.114192,0.17205 -0.248487,0.33016 -0.363,0.502 -0.100071,0.15017 -0.213473,0.29114 -0.314,0.441 -0.109373,0.16305 -0.246013,0.30669 -0.355,0.47 -0.11034,0.16533 -0.223453,0.3288 -0.334,0.494 -0.08019,0.11983 -0.158485,0.24093 -0.23704,0.36184 -0.07678,0.11818 -0.154227,0.23595 -0.23396,0.35216 -2.889148,4.50368 -6.185589,8.68632 -9.553,12.791 -0.153786,0.16933 -0.270934,0.36984 -0.426,0.538 -0.16244,0.17616 -0.327045,0.35032 -0.49,0.526 -0.115587,0.12462 -0.237747,0.243 -0.354,0.367 -0.121266,0.12934 -0.244096,0.25721 -0.367,0.385 -0.134401,0.13974 -0.250823,0.29604 -0.385,0.436 -0.155402,0.1621 -0.291143,0.34234 -0.447,0.504 -0.125472,0.13014 -0.229524,0.27986 -0.355,0.41 -0.08912,0.0924 -0.176031,0.18697 -0.262855,0.28156 -0.08669,0.0944 -0.173663,0.18865 -0.263145,0.28044 -0.15552,0.15953 -0.327751,0.3022 -0.483,0.462 -0.12993,0.13374 -0.259855,0.26747 -0.39,0.401 -0.154535,0.15855 -0.28886,0.33604 -0.444,0.494 -0.169786,0.17287 -0.345846,0.33949 -0.516,0.512 -0.166192,0.16849 -0.3425,0.32683 -0.508,0.496 -0.09112,0.0931 -0.179427,0.18902 -0.267549,0.28501 -0.08826,0.0961 -0.176817,0.19207 -0.268451,0.28499 -0.144681,0.14672 -0.252964,0.32663 -0.398,0.473 -0.158783,0.16024 -0.314688,0.32331 -0.472,0.485 -0.125494,0.12899 -0.280275,0.22727 -0.405,0.357 -0.159137,0.16552 -0.318209,0.33111 -0.478,0.496 -0.160394,0.16551 -0.297977,0.35213 -0.458,0.518 -0.155207,0.16088 -0.332255,0.29964 -0.488,0.46 -0.16807,0.17305 -0.327426,0.35444 -0.496,0.527 -0.139865,0.14317 -0.276701,0.28928 -0.416,0.433 -0.127102,0.13114 -0.23392,0.28088 -0.36,0.413 -0.153185,0.16053 -0.302928,0.32433 -0.457,0.484 -0.142655,0.14784 -0.276418,0.30409 -0.419,0.452 -0.159404,0.16536 -0.313093,0.33616 -0.472,0.502 -0.128932,0.13456 -0.240363,0.28516 -0.369,0.42 -0.124038,0.13002 -0.268495,0.23943 -0.393,0.369 -0.125777,0.13089 -0.217843,0.29151 -0.343,0.423 -0.134558,0.14136 -0.258973,0.29213 -0.393,0.434 -0.129946,0.13755 -0.253969,0.28059 -0.383,0.419 -0.132475,0.1421 -0.24099,0.3054 -0.374,0.447 -0.133885,0.14253 -0.265895,0.28682 -0.398,0.431 -0.136804,0.14931 -0.283064,0.28973 -0.421,0.438 -0.134219,0.14427 -0.254659,0.30092 -0.388,0.446 -0.128084,0.13936 -0.236829,0.29572 -0.365,0.435 -0.133355,0.14492 -0.233819,0.31792 -0.367,0.463 -0.12971,0.14129 -0.259442,0.28257 -0.389,0.424 -0.13137,0.14341 -0.273998,0.27625 -0.405,0.42 -0.144029,0.15804 -0.278022,0.32501 -0.421,0.484 -0.131145,0.14584 -0.263441,0.29064 -0.394,0.437 -0.119641,0.13412 -0.22881,0.27737 -0.349,0.411 -0.143779,0.15986 -0.257688,0.34484 -0.4,0.506 -0.154077,0.17449 -0.311268,0.34621 -0.465,0.521 -0.124065,0.14106 -0.273918,0.25808 -0.397,0.4 -0.119746,0.13807 -0.255821,0.26144 -0.375,0.4 -0.128311,0.14918 -0.261179,0.2944 -0.389,0.444 -0.141897,0.16607 -0.270135,0.34339 -0.409,0.512 -0.137314,0.16673 -0.26587,0.3405 -0.401,0.509 -0.130004,0.16211 -0.246403,0.33477 -0.375,0.498 -0.119199,0.1513 -0.242539,0.29935 -0.36,0.452 -0.136484,0.17738 -0.29951,0.33362 -0.432,0.514 -0.114085,0.15532 -0.249526,0.29423 -0.363,0.45 -0.137313,0.1885 -0.265977,0.38315 -0.4,0.574 -0.125064,0.17809 -0.256256,0.35195 -0.377,0.533 -0.116153,0.17416 -0.242862,0.34116 -0.358,0.516 -0.10292,0.15628 -0.216609,0.30545 -0.316,0.464 -0.103477,0.16507 -0.200754,0.33395 -0.301,0.501 -0.08821,0.147 -0.148331,0.3095 -0.234,0.458 -0.09914,0.17185 -0.233,0.32237 -0.329,0.496 -0.09401,0.17002 -0.200125,0.33328 -0.291,0.505 -0.08791,0.16612 -0.184149,0.3278 -0.27,0.495 -0.107423,0.20921 -0.227508,0.41181 -0.333,0.622 -0.08868,0.17669 -0.170704,0.35665 -0.256,0.535 -0.0968,0.20241 -0.20012,0.40175 -0.293,0.606 -0.09324,0.20503 -0.176269,0.41455 -0.264,0.622 -0.08045,0.19023 -0.166517,0.37814 -0.243,0.57 -0.08125,0.20382 -0.156084,0.41014 -0.232,0.616 -0.06701,0.18172 -0.108358,0.37207 -0.172,0.555 -0.06208,0.17843 -0.146283,0.34877 -0.206,0.528 -0.06478,0.19444 -0.08704,0.40102 -0.147,0.597 -0.0536,0.17518 -0.07917,0.35799 -0.13,0.534 -0.05069,0.17552 -0.09951,0.35159 -0.147,0.528 -0.0509,0.18908 -0.09488,0.37995 -0.142,0.57 -0.04348,0.17536 -0.07772,0.35288 -0.118,0.529 -0.03991,0.17453 -0.05672,0.35368 -0.093,0.529 -0.03726,0.18005 -0.0907,0.35656 -0.126,0.537 -0.03507,0.17931 -0.05624,0.36108 -0.088,0.541 -0.0306,0.17335 -0.06477,0.34609 -0.092,0.52 -0.02998,0.19142 -0.05283,0.38389 -0.078,0.576 -0.02367,0.18063 -0.0043,0.36489 -0.024,0.546 -0.01918,0.17671 -0.03335,0.35394 -0.049,0.531 -0.01761,0.19924 0.0069,0.40047 -0.007,0.6 -0.01537,0.22025 -0.01136,0.44147 -0.022,0.662 -0.0088,0.18175 -0.0266,0.36309 -0.031,0.545 -0.0047,0.19509 -0.02369,0.38985 -0.023,0.585 7.57e-4,0.21293 0.04278,0.42413 0.048,0.637 0.0047,0.19228 0.03967,0.38285 0.048,0.575 0.0084,0.19354 0.02398,0.38671 0.037,0.58 0.01474,0.21884 -0.01609,0.4395 0.003,0.658 0.01546,0.17702 -0.0095,0.35637 0.01,0.533 0.02382,0.21579 0.05385,0.43086 0.083,0.646 0.02642,0.19494 0.05462,0.38964 0.085,0.584 0.03033,0.194 0.06813,0.38676 0.103,0.58 0.03341,0.18517 0.06588,0.37054 0.103,0.555 0.04611,0.22914 0.109879,0.45438 0.163,0.682 0.04222,0.18092 0.0941,0.35948 0.138,0.54 0.04177,0.17178 0.115487,0.33445 0.162,0.505 0.04943,0.18124 0.117267,0.35699 0.171,0.537 0.06675,0.2236 0.168459,0.43556 0.239,0.658 0.05736,0.18087 0.114108,0.36195 0.174,0.542 0.06884,0.20694 0.133293,0.41538 0.206,0.621 0.06045,0.17096 0.128972,0.33897 0.192,0.509 0.06583,0.17757 0.127103,0.35683 0.194,0.534 0.06356,0.16834 0.135768,0.3333 0.201,0.501 0.07442,0.19131 0.202149,0.35865 0.279,0.549 0.06812,0.16872 0.143235,0.33454 0.212,0.503 0.0726,0.17785 0.117937,0.36618 0.193,0.543 0.09109,0.21458 0.198891,0.42173 0.293,0.635 0.07872,0.1784 0.174242,0.34897 0.256,0.526 0.08901,0.19272 0.187456,0.38095 0.28,0.572 0.07896,0.16302 0.168342,0.32081 0.249,0.483 0.09103,0.18305 0.19398,0.35996 0.287,0.542 0.09306,0.18213 0.18124,0.36675 0.276,0.548 0.109342,0.20914 0.213202,0.42116 0.325,0.629 0.08459,0.15726 0.180228,0.30838 0.266,0.465 0.08482,0.15488 0.175367,0.30657 0.261,0.461 0.100113,0.18054 0.209015,0.35608 0.312,0.535 0.08355,0.14515 0.182979,0.2807 0.268,0.425 0.09152,0.15532 0.204773,0.29709 0.297,0.452 0.113454,0.19056 0.216345,0.38738 0.333,0.576 0.12248,0.19804 0.250417,0.39265 0.374,0.59 0.09221,0.14725 0.188084,0.29219 0.281,0.439 0.09597,0.15163 0.202751,0.29619 0.3,0.447 0.108241,0.16786 0.232163,0.32518 0.342,0.492 0.109777,0.16672 0.213828,0.3372 0.325,0.503 0.100997,0.15062 0.209844,0.29585 0.313,0.445 0.09483,0.13712 0.174371,0.28444 0.27,0.421 0.141942,0.2027 0.287528,0.40282 0.433,0.603 0.121466,0.16714 0.262605,0.31927 0.386,0.485 0.12247,0.16448 0.247923,0.32673 0.372,0.49 0.120534,0.15861 0.242324,0.31626 0.364,0.474 0.130668,0.16939 0.254168,0.3443 0.387,0.512 0.117809,0.14873 0.219105,0.31013 0.338,0.458 0.139924,0.17402 0.268524,0.35706 0.411,0.529 0.09809,0.11838 0.199041,0.23437 0.300168,0.35016 0.09694,0.111 0.194232,0.22169 0.289832,0.33384 0.11472,0.13458 0.26838,0.23206 0.385,0.365 0.119086,0.13575 0.255895,0.25515 0.376,0.39 0.122246,0.13725 0.248607,0.27078 0.372,0.407 0.141789,0.15653 0.298738,0.29869 0.444,0.452 0.119291,0.1259 0.228921,0.26082 0.35,0.385 0.142963,0.14662 0.306027,0.2724 0.453,0.415 0.126811,0.12304 0.260373,0.23893 0.39,0.359 0.138656,0.12843 0.277207,0.25704 0.419,0.382 0.129883,0.11447 0.257636,0.23141 0.39,0.343 0.131425,0.1108 0.267959,0.21538 0.402,0.323 0.163308,0.13111 0.348836,0.23218 0.517,0.357 0.14669,0.10888 0.303791,0.20302 0.454,0.307 0.147634,0.10219 0.301156,0.19561 0.452,0.293 0.167252,0.10799 0.349547,0.19082 0.521,0.292 0.202604,0.11957 0.406489,0.23717 0.614,0.348 0.176935,0.0945 0.348816,0.19893 0.53,0.285 0.155512,0.0739 0.324811,0.11504 0.483,0.183 0.161622,0.0694 0.309267,0.1697 0.473,0.234 0.190915,0.075 0.364899,0.19172 0.56,0.255 0.188138,0.061 0.368039,0.14748 0.559,0.199 0.201353,0.0543 0.408618,0.0838 0.612,0.13 0.181172,0.0411 0.366512,0.0612 0.549,0.096 0.201869,0.0385 0.405394,0.0681 0.609,0.096 0.132227,0.0181 0.26433,0.0371 0.396645,0.0546 0.132424,0.0175 0.265179,0.0332 0.398355,0.0434 4.286998,0.10324 7.929825,-1.07925 11.181,-3.501 0.139774,-0.11295 0.259524,-0.24879 0.394,-0.368 0.257905,-0.2645 0.52071,-0.5215 0.765,-0.763 0.139302,-0.14042 0.29364,-0.26584 0.428,-0.411 1.585301,-2.10315 3.187165,-4.57216 3.602,-6.888 0.03783,-0.18638 0.08958,-0.37011 0.119,-0.558 0.02818,-0.17993 0.0011,-0.36486 0.02,-0.546 0.01731,-0.16612 -0.0044,-0.33437 0.007,-0.501 0.01321,-0.19294 0.01114,-0.38663 0.014,-0.58 0.0028,-0.18988 0.03454,-0.37922 0.028,-0.569 -0.0065,-0.18896 -0.02058,-0.37765 -0.037,-0.566 -0.01586,-0.18198 -0.07551,-0.35784 -0.099,-0.539 -0.02438,-0.18799 -0.125661,-0.35939 -0.159,-0.546 -0.0318,-0.17797 -0.0354,-0.36084 -0.076,-0.537 -0.04234,-0.18369 -0.0997,-0.3636 -0.151,-0.545 -0.05138,-0.18167 -0.15488,-0.34503 -0.215,-0.524 -0.05616,-0.16717 -0.104206,-0.33721 -0.167,-0.502 -0.06523,-0.17118 -0.190569,-0.31417 -0.264,-0.482 -0.07509,-0.17163 -0.142791,-0.34667 -0.225,-0.515 -0.07881,-0.16137 -0.12843,-0.33666 -0.215,-0.494 -0.08761,-0.15923 -0.158174,-0.32776 -0.251,-0.484 -0.09207,-0.15497 -0.215024,-0.28969 -0.313,-0.441 -0.108948,-0.16826 -0.234636,-0.32508 -0.35,-0.489 -0.102839,-0.14613 -0.220226,-0.28147 -0.328,-0.424 -0.10999,-0.14546 -0.198934,-0.30652 -0.314,-0.448 -0.117212,-0.14411 -0.219859,-0.30004 -0.342,-0.44 -0.127477,-0.14607 -0.295172,-0.25292 -0.426,-0.396 -0.135514,-0.14821 -0.285737,-0.28236 -0.424,-0.428 -0.124514,-0.13116 -0.29492,-0.21232 -0.422,-0.341 -0.121952,-0.12349 -0.256011,-0.23455 -0.379,-0.357 -0.125465,-0.12492 -0.242289,-0.25833 -0.368,-0.383 -0.131239,-0.13015 -0.238394,-0.28322 -0.37,-0.413 -0.123961,-0.12224 -0.268363,-0.22245 -0.393,-0.344 -0.121074,-0.11808 -0.224257,-0.25358 -0.345,-0.372 -0.139895,-0.1372 -0.286579,-0.26734 -0.427,-0.404 -0.121458,-0.11821 -0.241828,-0.23753 -0.364,-0.355 -0.137795,-0.13249 -0.270406,-0.27027 -0.407,-0.404 -0.128459,-0.12576 -0.277012,-0.22978 -0.406,-0.355 -0.141278,-0.13715 -0.263513,-0.29307 -0.405,-0.43 -0.129515,-0.12535 -0.289014,-0.21711 -0.418,-0.343 -0.128114,-0.12504 -0.226728,-0.27812 -0.355,-0.403 -0.130058,-0.12662 -0.262024,-0.25128 -0.391,-0.379 -0.122598,-0.1214 -0.242214,-0.24578 -0.364,-0.368 -0.126453,-0.1269 -0.280376,-0.22427 -0.407,-0.351 -0.139099,-0.13922 -0.249972,-0.30472 -0.388,-0.445 -0.126799,-0.12887 -0.222255,-0.28611 -0.348,-0.416 -0.118847,-0.12277 -0.269972,-0.21144 -0.388,-0.335 -0.138292,-0.14477 -0.323759,-0.23923 -0.461,-0.385 -0.13531,-0.14372 -0.24504,-0.31003 -0.379,-0.455 -0.128947,-0.13955 -0.2681,-0.26949 -0.396,-0.41 -0.133445,-0.1466 -0.259935,-0.29939 -0.39,-0.449 -0.116137,-0.13359 -0.263159,-0.23845 -0.377,-0.374 -0.127275,-0.15155 -0.254224,-0.30339 -0.379,-0.457 -0.128346,-0.15801 -0.250424,-0.321 -0.375,-0.482 -0.122676,-0.15854 -0.206384,-0.3444 -0.325,-0.506 -0.121537,-0.16558 -0.284934,-0.29823 -0.402,-0.467 -0.09905,-0.1428 -0.205513,-0.28045 -0.302,-0.425 -0.100984,-0.15128 -0.167707,-0.32332 -0.265,-0.477 -0.111069,-0.17544 -0.205956,-0.36068 -0.314,-0.538 -0.09153,-0.15021 -0.166467,-0.31 -0.255,-0.462 -0.09618,-0.16513 -0.190537,-0.33132 -0.284,-0.498 -0.104847,-0.18698 -0.216552,-0.37015 -0.318,-0.559 -0.08402,-0.1564 -0.122884,-0.33408 -0.204,-0.492 -0.08208,-0.15981 -0.169748,-0.31677 -0.249,-0.478 -0.08558,-0.1741 -0.140218,-0.36208 -0.222,-0.538 -0.07504,-0.16142 -0.174092,-0.31116 -0.246,-0.474 -0.06958,-0.15756 -0.178417,-0.29633 -0.243,-0.456 -0.0635,-0.15698 -0.112884,-0.31932 -0.172,-0.478 -0.07268,-0.19508 -0.197082,-0.36887 -0.264,-0.566 -0.06119,-0.18025 -0.142878,-0.3535 -0.197,-0.536 -0.06398,-0.21574 -0.1408,-0.42785 -0.196,-0.646 -0.05587,-0.22079 -0.122252,-0.43911 -0.169,-0.662 -0.03756,-0.17907 -0.09501,-0.35385 -0.127,-0.534 -0.0383,-0.21563 -0.09599,-0.42793 -0.125,-0.645 -0.02231,-0.16692 -0.04037,-0.33441 -0.057,-0.502 -0.02095,-0.21107 -0.02377,-0.42359 -0.041,-0.635 -0.01667,-0.2045 -0.05376,-0.40718 -0.066,-0.612 -0.01138,-0.19034 0.01147,-0.38137 0.007,-0.572 -0.0048,-0.20362 0.0066,-0.40732 0.007,-0.611 3.1e-4,-0.16842 -0.02009,-0.33663 -0.016,-0.505 0.0045,-0.18534 -0.02407,-0.37088 -0.014,-0.556 0.0098,-0.18049 0.0031,-0.36178 0.017,-0.542 0.01451,-0.18863 0.02517,-0.37756 0.042,-0.566 0.02005,-0.22447 0.02867,-0.44996 0.053,-0.674 0.02211,-0.20363 0.04717,-0.40694 0.074,-0.61 0.02502,-0.18937 0.04665,-0.37925 0.076,-0.568 0.03447,-0.22172 0.02465,-0.44928 0.065,-0.67 0.03855,-0.21088 0.03666,-0.42826 0.081,-0.638 0.04493,-0.21254 0.07174,-0.4289 0.123,-0.64 0.05045,-0.20775 0.08919,-0.41835 0.144,-0.625 0.05308,-0.20013 0.169842,-0.37888 0.23,-0.577 0.06323,-0.20825 0.09005,-0.42691 0.16,-0.633 0.06909,-0.20354 0.135881,-0.40798 0.212,-0.609 0.07883,-0.20819 0.152718,-0.41837 0.238,-0.624 0.08355,-0.20145 0.137549,-0.41465 0.226,-0.614 0.05344,-0.12043 0.09886,-0.24429 0.145256,-0.36761 0.04513,-0.11996 0.09125,-0.23986 0.146744,-0.35539 0.101233,-0.21076 0.171562,-0.43582 0.278,-0.644 0.09747,-0.19065 0.195012,-0.38139 0.3,-0.568 0.109228,-0.19415 0.197621,-0.39984 0.312,-0.591 0.118415,-0.19791 0.245226,-0.39069 0.371,-0.584 0.126276,-0.19408 0.242816,-0.39452 0.373,-0.586 0.122353,-0.17996 0.220558,-0.37588 0.347,-0.553 0.134245,-0.18805 0.289151,-0.36058 0.427,-0.546 0.145186,-0.19529 0.273631,-0.40289 0.423,-0.595 0.111071,-0.14285 0.225731,-0.28288 0.339,-0.424 0.155499,-0.19373 0.294853,-0.40026 0.454,-0.591 2.282011,-2.83215 4.958461,-5.31267 7.561,-7.81 0.14685,-0.13021 0.295173,-0.25876 0.442,-0.389 0.152636,-0.13539 0.296317,-0.28066 0.449,-0.416 0.170611,-0.15123 0.325468,-0.31956 0.495,-0.472 0.124791,-0.11221 0.230636,-0.24432 0.355,-0.357 0.156521,-0.14182 0.299097,-0.2985 0.455,-0.441 0.139893,-0.12787 0.267748,-0.26853 0.408,-0.396 0.148641,-0.1351 0.286783,-0.28144 0.435,-0.417 0.157714,-0.14425 0.323035,-0.28002 0.481,-0.424 0.149684,-0.13643 0.290815,-0.28203 0.44,-0.419 5.341609,-5.0191 9.017998,-9.61375 13.457,-14.702 0.14231,-0.17363 0.308348,-0.32702 0.449,-0.502 0.148789,-0.1851 0.294946,-0.37231 0.443,-0.558 0.124784,-0.15651 0.250104,-0.31258 0.375,-0.469 0.142025,-0.17787 0.291576,-0.34965 0.433,-0.528 0.139911,-0.17644 0.296691,-0.33909 0.436,-0.516 0.08689,-0.11035 0.177025,-0.21814 0.26786,-0.32527 0.09095,-0.10726 0.182766,-0.21378 0.273324,-0.32137 0.08837,-0.10499 0.175924,-0.21075 0.259816,-0.31936 0.151339,-0.19592 0.33999,-0.3613 0.489,-0.559 0.140814,-0.18683 0.301651,-0.35808 0.441,-0.546 0.135037,-0.18211 0.291525,-0.34774 0.425,-0.531 0.120575,-0.16554 0.24908,-0.32526 0.368,-0.492 0.135502,-0.18999 0.293598,-0.36323 0.428,-0.554 0.07362,-0.10449 0.153275,-0.20462 0.232576,-0.30486 0.0792,-0.10011 0.158564,-0.20032 0.231424,-0.30514 0.138012,-0.19856 0.27794,-0.39578 0.415,-0.595 0.137868,-0.20039 0.269944,-0.4047 0.405,-0.607 0.138561,-0.20754 0.287332,-0.4082 0.424,-0.617 0.07704,-0.11771 0.15554,-0.23446 0.233402,-0.35163 0.07595,-0.11429 0.151619,-0.22879 0.225598,-0.34437 0.09769,-0.15262 0.201581,-0.30121 0.299,-0.454 0.123334,-0.19344 0.233983,-0.39473 0.356,-0.589 0.105289,-0.16764 0.218381,-0.33033 0.322,-0.499 1.124425,-1.97663 2.524213,-4.19571 3.404,-5.99 0.06389,-0.12172 0.124158,-0.24531 0.184769,-0.36869 0.05757,-0.11719 0.11491,-0.23451 0.175231,-0.35031 0.109549,-0.21029 0.229097,-0.41535 0.336,-0.627 0.06026,-0.11931 0.121179,-0.23828 0.182077,-0.35726 0.06095,-0.11909 0.122192,-0.23804 0.181923,-0.35774 0.101213,-0.20284 0.185769,-0.41368 0.286,-0.617 0.05626,-0.11414 0.115847,-0.22662 0.175192,-0.33918 0.05787,-0.10978 0.114978,-0.22001 0.168808,-0.33182 0.08801,-0.18281 0.190564,-0.35844 0.277,-0.542 0.09295,-0.1974 0.165256,-0.40404 0.257,-0.602 0.05371,-0.11589 0.107918,-0.23155 0.161804,-0.34737 0.05244,-0.1127 0.104543,-0.22556 0.156196,-0.33863 0.07763,-0.16993 0.164676,-0.33543 0.250852,-0.50119 0.08615,-0.1657 0.172056,-0.33182 0.247148,-0.50281 0.05558,-0.12656 0.109693,-0.25375 0.163803,-0.38095 0.05275,-0.124 0.105079,-0.2482 0.158197,-0.37205 0.08973,-0.20922 0.184064,-0.41645 0.273,-0.626 0.06939,-0.1635 0.139849,-0.32654 0.210271,-0.48959 0.06907,-0.15992 0.138276,-0.3198 0.205729,-0.48041 0.06712,-0.15982 0.132794,-0.32024 0.198589,-0.48061 0.06463,-0.15753 0.129202,-0.31509 0.194411,-0.47239 0.07327,-0.17674 0.147255,-0.35318 0.221133,-0.52967 0.07263,-0.1735 0.144636,-0.34726 0.215867,-0.52133 0.04816,-0.11769 0.09002,-0.23789 0.131468,-0.35811 0.04142,-0.12016 0.08324,-0.24033 0.131532,-0.35789 0.08997,-0.21901 0.181129,-0.43754 0.27,-0.657 0.07744,-0.19123 0.146146,-0.38593 0.224,-0.577 0.08021,-0.19685 0.161617,-0.39322 0.242,-0.59 0.09115,-0.22314 0.18041,-0.44704 0.272,-0.67 0.0525,-0.1278 0.104312,-0.25588 0.155749,-0.38411 0.0515,-0.1284 0.102862,-0.25685 0.155251,-0.38489 0.09222,-0.22539 0.169042,-0.45691 0.262,-0.682 0.09067,-0.21956 0.14871,-0.4517 0.24,-0.671 0.05286,-0.12698 0.104407,-0.25451 0.155629,-0.38216 0.05117,-0.12753 0.102578,-0.25497 0.155371,-0.38184 0.05274,-0.12675 0.09842,-0.25635 0.144439,-0.38569 0.04493,-0.12627 0.08983,-0.25268 0.141561,-0.37631 0.07552,-0.18048 0.154517,-0.3595 0.23,-0.54 0.05323,-0.12728 0.103095,-0.25596 0.152859,-0.38464 0.04856,-0.12557 0.09697,-0.25124 0.149141,-0.37536 0.05183,-0.1233 0.106274,-0.24549 0.160626,-0.3677 0.05168,-0.11619 0.103223,-0.23244 0.153374,-0.3493 0.09328,-0.21735 0.17399,-0.43997 0.268,-0.657 0.07989,-0.18443 0.158231,-0.36952 0.238,-0.554 0.09427,-0.21803 0.188037,-0.43627 0.283,-0.654 0.08306,-0.19043 0.139609,-0.39172 0.223,-0.582 0.07062,-0.16113 0.129914,-0.32708 0.201,-0.488 0.07761,-0.17568 0.147696,-0.35463 0.226,-0.53 0.0587,-0.13146 0.115402,-0.26381 0.172483,-0.39598 0.05572,-0.12901 0.111581,-0.25798 0.169517,-0.38602 0.09962,-0.22016 0.183301,-0.44733 0.284,-0.667 0.05294,-0.11547 0.09925,-0.2339 0.145854,-0.35207 0.04648,-0.11788 0.09303,-0.23589 0.146146,-0.35093 0.09785,-0.21192 0.164434,-0.43741 0.263,-0.649 0.07536,-0.16177 0.155398,-0.32134 0.231,-0.483 0.05677,-0.12138 0.107815,-0.24539 0.158753,-0.36933 0.04964,-0.12078 0.09949,-0.24159 0.155247,-0.35967 0.05882,-0.12457 0.114154,-0.25077 0.169546,-0.3769 0.05546,-0.12631 0.111248,-0.25251 0.170454,-0.3771 0.06319,-0.13297 0.125251,-0.26648 0.187576,-0.39986 0.06096,-0.13047 0.121478,-0.26114 0.183424,-0.39114 0.106577,-0.22366 0.225553,-0.44128 0.332,-0.665 0.09645,-0.20272 0.172843,-0.41462 0.27,-0.617 0.05975,-0.12447 0.11719,-0.25005 0.174571,-0.37563 0.05598,-0.12251 0.111978,-0.24502 0.170429,-0.36637 0.103338,-0.21454 0.200711,-0.43192 0.305,-0.646 0.09795,-0.20106 0.15602,-0.41996 0.254,-0.621 0.106912,-0.21937 0.214934,-0.4382 0.323,-0.657 0.06208,-0.1257 0.130383,-0.24827 0.198488,-0.37082 0.06483,-0.11664 0.129422,-0.23353 0.188512,-0.35318 0.106972,-0.21661 0.186352,-0.44622 0.295,-0.662 0.05706,-0.11333 0.109775,-0.22882 0.162322,-0.34431 0.0512,-0.11253 0.102539,-0.22504 0.157678,-0.33569 0.110639,-0.22202 0.226274,-0.44152 0.338,-0.663 0.05916,-0.11726 0.11616,-0.2356 0.173369,-0.35382 0.05727,-0.11836 0.114176,-0.23691 0.173631,-0.35418 0.06203,-0.12236 0.123721,-0.24489 0.185019,-0.36762 0.05827,-0.11666 0.116946,-0.23311 0.175981,-0.34938 0.101236,-0.19939 0.191902,-0.40405 0.294,-0.603 0.05988,-0.11669 0.118233,-0.23415 0.176689,-0.35156 0.05695,-0.11439 0.114346,-0.22856 0.172311,-0.34244 0.109147,-0.21444 0.219928,-0.42804 0.33,-0.642 0.06324,-0.12292 0.123482,-0.24737 0.183497,-0.37189 0.05849,-0.12136 0.117559,-0.24248 0.179503,-0.36211 0.1042,-0.20124 0.209118,-0.40211 0.314,-0.603 0.06012,-0.11515 0.119655,-0.2306 0.179435,-0.34593 0.0583,-0.11247 0.116559,-0.22497 0.175565,-0.33707 0.0622,-0.11818 0.123305,-0.23693 0.184374,-0.3557 0.05796,-0.11273 0.116305,-0.22528 0.175626,-0.3373 0.09627,-0.1818 0.177763,-0.37118 0.274,-0.553 0.09826,-0.18564 0.180568,-0.37945 0.279,-0.565 0.09383,-0.17687 0.185078,-0.3551 0.27675,-0.53309 0.0917,-0.17802 0.18351,-0.35597 0.27725,-0.53291 0.0643,-0.121412 0.12842,-0.242947 0.19267,-0.3644 0.0627,-0.118563 0.12554,-0.237072 0.18833,-0.3556 0.061,-0.11506 0.12617,-0.227824 0.19133,-0.340552 0.0635,-0.10989 0.12652,-0.220147 0.18567,-0.332448 0.0656,-0.124601 0.12837,-0.250716 0.19064,-0.377026 0.0623,-0.126257 0.12474,-0.252436 0.19036,-0.376974 0.11602,-0.220184 0.23462,-0.439002 0.351,-0.659 0.10374,-0.196112 0.18207,-0.40499 0.286,-0.601 0.0886,-0.167028 0.15519,-0.345101 0.244,-0.512 0.10138,-0.190535 0.2078,-0.378368 0.309,-0.569 0.10282,-0.193687 0.16842,-0.405717 0.272,-0.599 0.0992,-0.185046 0.19465,-0.372051 0.294,-0.557 0.0631,-0.117552 0.12755,-0.234419 0.19152,-0.351527 0.0608,-0.111323 0.12134,-0.222791 0.18148,-0.334473 0.0639,-0.118685 0.12486,-0.238954 0.18553,-0.359324 0.0607,-0.120454 0.12142,-0.240958 0.18547,-0.359676 0.10752,-0.199301 0.20284,-0.405043 0.311,-0.604 0.11662,-0.214529 0.21127,-0.440532 0.328,-0.655 0.10335,-0.18988 0.1965,-0.385199 0.3,-0.575 0.11006,-0.201829 0.20535,-0.411495 0.316,-0.613 0.10173,-0.185267 0.20126,-0.37174 0.303,-0.557 0.11611,-0.211415 0.20391,-0.437574 0.32,-0.649 0.10662,-0.194187 0.19641,-0.397347 0.304,-0.591 0.0669,-0.12034 0.13042,-0.242494 0.19377,-0.364721 0.0618,-0.119253 0.12316,-0.238777 0.18823,-0.356279 0.065,-0.117429 0.13163,-0.233979 0.19778,-0.35078 0.0645,-0.113847 0.1288,-0.227783 0.19222,-0.34222 0.0639,-0.115221 0.13179,-0.228144 0.19951,-0.341141 0.0643,-0.107286 0.12867,-0.214568 0.18949,-0.323859 0.10563,-0.189814 0.19524,-0.38826 0.301,-0.578 0.11327,-0.20321 0.21779,-0.411202 0.33,-0.615 0.0713,-0.129533 0.14159,-0.259646 0.21149,-0.389949 0.0699,-0.130333 0.13987,-0.260655 0.21151,-0.390051 0.0944,-0.170514 0.1891,-0.340865 0.28377,-0.51123 0.0931,-0.167569 0.18632,-0.335087 0.27923,-0.50277 0.0992,-0.17911 0.19154,-0.362013 0.291,-0.541 0.0702,-0.126333 0.14518,-0.249966 0.21982,-0.373731 0.0729,-0.120867 0.1456,-0.241905 0.21418,-0.365269 0.064,-0.115125 0.12806,-0.230217 0.19197,-0.345392 0.0639,-0.115238 0.1279,-0.230472 0.19203,-0.345608 0.064,-0.114842 0.13228,-0.227223 0.20047,-0.33961 0.0665,-0.109654 0.13318,-0.219306 0.19553,-0.33139 0.0987,-0.177406 0.19142,-0.358097 0.291,-0.535 0.0646,-0.114723 0.13001,-0.228966 0.19515,-0.343372 0.0651,-0.114285 0.12989,-0.228717 0.19385,-0.343628 0.088,-0.158025 0.17587,-0.316073 0.264,-0.474 0.11274,-0.20203 0.1995,-0.417836 0.312,-0.62 0.0667,-0.119793 0.13529,-0.238483 0.20353,-0.357389 0.0648,-0.113001 0.12964,-0.226032 0.19347,-0.339611 0.0628,-0.111705 0.12748,-0.222313 0.19203,-0.333006 0.0627,-0.107575 0.125,-0.215417 0.18597,-0.323994 0.0967,-0.172283 0.18211,-0.350799 0.279,-0.523 0.10988,-0.195285 0.19904,-0.401759 0.309,-0.597 0.1182,-0.20987 0.22465,-0.426217 0.343,-0.636 0.0924,-0.163861 0.1657,-0.338058 0.258,-0.502 0.11872,-0.210863 0.25708,-0.410252 0.376,-0.621 0.0643,-0.113914 0.12355,-0.230606 0.18295,-0.34714 0.0579,-0.113558 0.11601,-0.227081 0.17905,-0.33786 0.0877,-0.154063 0.17,-0.311128 0.258,-0.465 0.0914,-0.159755 0.14084,-0.341129 0.232,-0.501 0.12391,-0.217297 0.24456,-0.436438 0.368,-0.654 0.0962,-0.169469 0.16999,-0.351018 0.267,-0.52 0.065,-0.113286 0.13379,-0.224405 0.20241,-0.335555 0.0669,-0.108326 0.13324,-0.21702 0.19659,-0.327445 0.10098,-0.176011 0.20191,-0.352054 0.303,-0.528 0.1,-0.173984 0.1993,-0.348332 0.29884,-0.522561 0.0994,-0.173995 0.19873,-0.348036 0.29916,-0.521439 0.1201,-0.207359 0.21699,-0.427587 0.337,-0.635 0.11297,-0.195252 0.23485,-0.385275 0.347,-0.581 0.1097,-0.191459 0.2308,-0.376254 0.34,-0.568 0.10708,-0.188019 0.19683,-0.385604 0.305,-0.573 0.11786,-0.204191 0.23861,-0.406699 0.358,-0.61 0.10921,-0.185974 0.19864,-0.383112 0.308,-0.569 0.10152,-0.172559 0.20244,-0.345465 0.304,-0.518 0.12079,-0.205207 0.26096,-0.398533 0.383,-0.603 0.0971,-0.162641 0.18928,-0.328149 0.286,-0.491 0.0995,-0.167459 0.19849,-0.33517 0.299,-0.502 0.115,-0.190888 0.20458,-0.396367 0.32,-0.587 0.11085,-0.183088 0.22043,-0.366962 0.333,-0.549 1.83457,-3.339256 4.13681,-6.340711 6.558,-9.235 0.13621,-0.148642 0.27676,-0.29325 0.415,-0.44 0.1675,-0.177803 0.31182,-0.376761 0.482,-0.552 0.16997,-0.175022 0.33757,-0.352409 0.511,-0.524 0.11918,-0.117914 0.20513,-0.266825 0.326,-0.383 0.12385,-0.119034 0.25586,-0.229322 0.381,-0.347 0.16832,-0.158279 0.3307,-0.322858 0.501,-0.479 0.096,-0.08801 0.18609,-0.182283 0.27653,-0.275979 0.0905,-0.09369 0.18109,-0.187555 0.27847,-0.274021 0.16306,-0.144784 0.32754,-0.287973 0.493,-0.43 0.15976,-0.137129 0.32228,-0.271007 0.483,-0.407 0.10551,-0.08927 0.20773,-0.182384 0.31021,-0.275119 0.0999,-0.09044 0.20004,-0.180835 0.30379,-0.266881 0.18291,-0.151695 0.35142,-0.320343 0.536,-0.47 0.16946,-0.137397 0.32449,-0.292168 0.496,-0.427 0.10089,-0.07932 0.20304,-0.157043 0.3055,-0.23433 0.0996,-0.07512 0.19918,-0.150214 0.2985,-0.22567 0.14413,-0.109492 0.29001,-0.21665 0.435,-0.325 0.16359,-0.122248 0.33135,-0.238831 0.495,-0.361 0.17008,-0.126975 0.32255,-0.276519 0.493,-0.403 0.18239,-0.13534 0.37583,-0.255363 0.558,-0.391 0.13597,-0.10124 0.25541,-0.223599 0.392,-0.324 0.18573,-0.136517 0.39521,-0.238564 0.581,-0.375 0.18733,-0.137572 0.36384,-0.289567 0.552,-0.426 0.18243,-0.132273 0.35648,-0.275853 0.539,-0.408 0.16058,-0.116263 0.30027,-0.259576 0.46,-0.377 0.19873,-0.146088 0.40647,-0.27965 0.605,-0.426 0.16029,-0.11816 0.31573,-0.242811 0.476,-0.361 0.14719,-0.108544 0.30444,-0.202958 0.452,-0.311 0.16918,-0.12387 0.32927,-0.259882 0.499,-0.383 0.17114,-0.124139 0.34729,-0.241271 0.518,-0.366 0.13804,-0.10086 0.29229,-0.178066 0.431,-0.278 0.18159,-0.130825 0.35925,-0.267017 0.54,-0.399 0.16881,-0.12327 0.35285,-0.224831 0.521,-0.349 0.14392,-0.106274 0.29321,-0.205216 0.436,-0.313 0.17478,-0.131932 0.33298,-0.284762 0.506,-0.419 0.17076,-0.132489 0.34954,-0.254587 0.518,-0.39 0.16558,-0.133104 0.31941,-0.280251 0.482,-0.417 0.16228,-0.136488 0.34179,-0.251947 0.501,-0.392 0.15352,-0.135049 0.33715,-0.233194 0.49,-0.369 0.16571,-0.147232 0.34264,-0.281956 0.503,-0.435 0.13298,-0.126917 0.29647,-0.21956 0.427,-0.349 0.12824,-0.127175 0.2672,-0.24341 0.393,-0.373 0.12103,-0.124674 0.24119,-0.250207 0.36,-0.377 0.13345,-0.142417 0.28782,-0.264591 0.418,-0.41 0.12336,-0.137791 0.25557,-0.267641 0.376,-0.408 0.14229,-0.165838 0.32262,-0.297687 0.457,-0.47 0.10385,-0.133164 0.2064,-0.267362 0.307,-0.403 0.10801,-0.145627 0.21267,-0.293718 0.317,-0.442 0.1071,-0.152213 0.21342,-0.305054 0.315,-0.461 0.10196,-0.156528 0.2029,-0.313804 0.299,-0.474 0.0966,-0.161046 0.19444,-0.321477 0.285,-0.486 0.0902,-0.163943 0.17876,-0.328897 0.263,-0.496 0.0836,-0.16573 0.16778,-0.331228 0.245,-0.5 0.0781,-0.170749 0.15455,-0.342351 0.226,-0.516 0.0695,-0.169037 0.14095,-0.337433 0.204,-0.509 0.0627,-0.170496 0.12483,-0.341258 0.181,-0.514 0.51968,-1.422914 0.60911,-2.905314 0.582,-4.379 -0.007,-0.1771 -0.0127,-0.354348 -0.027,-0.531 -0.0144,-0.178166 -0.027,-0.356607 -0.049,-0.534 -0.022,-0.177311 -0.0435,-0.35479 -0.073,-0.531 -0.0294,-0.175398 -0.0582,-0.351002 -0.095,-0.525 -0.0363,-0.171846 -0.0726,-0.34379 -0.116,-0.514 -0.0433,-0.169875 -0.0861,-0.339965 -0.136,-0.508 -0.0502,-0.168884 -0.0991,-0.338267 -0.156,-0.505 -0.0562,-0.164646 -0.11423,-0.328743 -0.177,-0.491 -0.0632,-0.163316 -0.12763,-0.326212 -0.197,-0.487 -0.0695,-0.160976 -0.1396,-0.321724 -0.215,-0.48 -0.076,-0.159485 -0.15108,-0.319485 -0.233,-0.476 -0.0812,-0.15516 -0.16506,-0.308975 -0.252,-0.461 -0.0879,-0.153695 -0.17535,-0.307744 -0.269,-0.458 -0.093,-0.149184 -0.1845,-0.2994 -0.283,-0.445 -0.0994,-0.146973 -0.19922,-0.293791 -0.304,-0.437 -0.10326,-0.141129 -0.20892,-0.280534 -0.317,-0.418 -0.10837,-0.13783 -0.21388,-0.278043 -0.327,-0.412 -0.11214,-0.132792 -0.19301,-0.290555 -0.309,-0.42 -0.11649,-0.130008 -0.23407,-0.259114 -0.355,-0.385 -0.12068,-0.125622 -0.24008,-0.252597 -0.365,-0.374 -0.12665,-0.123085 -0.25412,-0.245418 -0.385,-0.364 -0.12825,-0.116203 -0.25578,-0.233336 -0.388,-0.345 -0.13258,-0.111965 -0.26468,-0.224618 -0.401,-0.332 -0.13612,-0.107225 -0.27235,-0.214408 -0.412,-0.317 -2.54069,-1.719043 -5.84099,-2.797768 -8.93,-2.832001 -0.16866,0.0043 -0.33692,0.0185 -0.50529,0.02929 -0.1682,0.01078 -0.33632,0.02266 -0.50434,0.03581 -0.16773,0.01313 -0.33537,0.02752 -0.50286,0.04336 -0.16714,0.0158 -0.33414,0.03304 -0.50096,0.0519 -0.16644,0.01882 -0.3327,0.03927 -0.49872,0.06154 -0.16564,0.02222 -0.33106,0.04627 -0.49615,0.07235 -0.16479,0.02604 -0.32928,0.05411 -0.49334,0.08443 -0.16389,0.0303 -0.32738,0.06285 -0.49033,0.09788 -0.1662,0.03573 -0.33187,0.07406 -0.49681,0.115194 -0.16198,0.0404 -0.3233,0.08353 -0.48376,0.129581 -0.1611,0.04624 -0.32137,0.09544 -0.48059,0.14778 -0.16027,0.05269 -0.31953,0.10857 -0.4775,0.16778 -0.15659,0.05869 -0.31198,0.12067 -0.46591,0.18601 -0.15319,0.06503 -0.305,0.133412 -0.45517,0.205155 -0.15291,0.07306 -0.30419,0.149636 -0.45358,0.229663 -0.14719,0.07885 -0.29262,0.161097 -0.43606,0.246594 -0.14464,0.08621 -0.28733,0.17578 -0.42789,0.268502 -0.13964,0.09212 -0.27725,0.187403 -0.41268,0.285609 -0.13502,0.0979 -0.26794,0.198751 -0.39868,0.302289 -0.13072,0.103519 -0.25932,0.209767 -0.38576,0.318469 -0.12672,0.108947 -0.25133,0.220399 -0.37383,0.33408 -0.12301,0.114159 -0.24394,0.230603 -0.36281,0.349061 -0.11956,0.119131 -0.23707,0.240334 -0.35262,0.363351 -0.11633,0.123843 -0.23068,0.249555 -0.34317,0.376898 -0.11075,0.125383 -0.2197,0.252372 -0.32695,0.380762 -0.10538,0.126156 -0.20914,0.253685 -0.31137,0.382414 -0.10527,0.132564 -0.20893,0.266419 -0.31109,0.401396 -0.10017,0.132351 -0.19361,0.269827 -0.29678,0.39985 -0.10502,0.132353 -0.22057,0.256004 -0.33051,0.384298 -0.10777,0.125757 -0.21518,0.251827 -0.32222,0.378203 -0.1071,0.126435 -0.21383,0.253177 -0.3202,0.380221 -0.10642,0.1271 -0.21247,0.254504 -0.31817,0.382205 -0.10574,0.127754 -0.21112,0.255807 -0.31614,0.384153 -0.10506,0.128397 -0.20976,0.257087 -0.3141,0.386067 -0.10439,0.129027 -0.20841,0.258344 -0.31208,0.387945 -0.10371,0.129645 -0.20705,0.259577 -0.31005,0.389788 -0.10302,0.130252 -0.20569,0.260786 -0.30801,0.391596 -0.10234,0.130847 -0.20433,0.261971 -0.30597,0.393368 -0.10166,0.131431 -0.20298,0.263135 -0.30394,0.395107 -0.10098,0.132002 -0.20161,0.264273 -0.3019,0.396808 -0.1003,0.132562 -0.20025,0.265389 -0.29985,0.398476 -0.0996,0.13311 -0.1989,0.266481 -0.29782,0.400109 -0.0989,0.133646 -0.19753,0.267549 -0.29578,0.401705 -0.0983,0.13417 -0.19616,0.268594 -0.29373,0.403267 -0.0976,0.134683 -0.1948,0.269616 -0.29169,0.404794 -0.0969,0.135184 -0.19343,0.270613 -0.28964,0.406285 -0.0962,0.135673 -0.19207,0.271588 -0.28759,0.407742 -0.0936,0.133372 -0.18682,0.266973 -0.27974,0.400799 -0.0949,0.136606 -0.18936,0.273448 -0.28353,0.410521 -0.0942,0.13706 -0.18799,0.274353 -0.28148,0.411873 -0.0935,0.137503 -0.18663,0.275234 -0.27944,0.41319 -0.0928,0.137933 -0.18525,0.276091 -0.27737,0.414471 -0.0921,0.138352 -0.18388,0.276925 -0.27532,0.415717 -0.0914,0.138758 -0.18251,0.277736 -0.27326,0.416928 -0.0907,0.139154 -0.18113,0.278523 -0.27121,0.418104 -0.09,0.139537 -0.17975,0.279287 -0.26914,0.419245 -0.0893,0.139909 -0.17838,0.280027 -0.26708,0.420351 -0.0887,0.140268 -0.17701,0.280743 -0.26502,0.421421 -0.088,0.140616 -0.17563,0.281436 -0.26296,0.422456 -0.0873,0.140953 -0.17425,0.282106 -0.26089,0.423457 -0.0866,0.141277 -0.17287,0.282752 -0.25882,0.424421 -0.0877,0.144479 -0.17498,0.289161 -0.26198,0.434042 -0.0852,0.141897 -0.17008,0.283986 -0.25464,0.426264 -0.0845,0.142186 -0.1687,0.284562 -0.25257,0.427123 -0.0838,0.142464 -0.16732,0.285114 -0.2505,0.427947 -0.0831,0.142729 -0.16594,0.285641 -0.24843,0.428735 -0.0841,0.1459 -0.1679,0.291988 -0.25136,0.438262 -0.0817,0.14323 -0.16313,0.286637 -0.24423,0.430221 -0.081,0.14346 -0.16175,0.287095 -0.24216,0.430904 -0.082,0.146608 -0.16363,0.293397 -0.24496,0.440364 -0.0796,0.143889 -0.15894,0.287948 -0.23795,0.432176 -0.0805,0.147022 -0.16076,0.294218 -0.24066,0.441588 -0.0782,0.14427 -0.15614,0.288705 -0.23375,0.433304 -0.0791,0.147386 -0.1579,0.294942 -0.23637,0.442666 -0.0784,0.147551 -0.15645,0.295271 -0.2342,0.443156 -0.0776,0.147704 -0.155,0.295573 -0.23202,0.443606 -0.0754,0.14489 -0.15049,0.289936 -0.22528,0.435137 -0.0762,0.14797 -0.15212,0.296101 -0.22771,0.44439 -0.0755,0.148086 -0.15067,0.29633 -0.22554,0.444731 -0.0748,0.148189 -0.14922,0.296534 -0.22336,0.445033 -0.074,0.148279 -0.14777,0.296713 -0.22118,0.445298 -0.0733,0.148358 -0.14631,0.296867 -0.219,0.445526 -0.074,0.15139 -0.14774,0.302935 -0.22113,0.454634 -0.0718,0.148478 -0.14336,0.297102 -0.21459,0.445873 -0.0711,0.148518 -0.1419,0.297181 -0.2124,0.445988 -0.0718,0.151514 -0.14324,0.303178 -0.21439,0.454989 -0.071,0.15153 -0.14173,0.303207 -0.21212,0.455029 -0.0689,0.148565 -0.13746,0.297269 -0.20574,0.44611 -0.0695,0.151523 -0.13872,0.303188 -0.20761,0.454994 -0.0688,0.151499 -0.13719,0.303139 -0.20532,0.454918 -0.068,0.151462 -0.13566,0.303064 -0.20303,0.454802 -0.0672,0.151412 -0.13415,0.302962 -0.20076,0.454646 -0.0665,0.151349 -0.13261,0.302833 -0.19846,0.45445 -0.067,0.154235 -0.13365,0.308608 -0.2,0.463118 -0.0649,0.151181 -0.12953,0.302493 -0.19384,0.453934 -0.0654,0.154036 -0.13051,0.308207 -0.19529,0.46251 -0.0634,0.150965 -0.12605,0.302223 -0.18882,0.453441 -0.0648,0.156124 -0.12944,0.312323 -0.19311,0.468914 -0.0634,0.156002 -0.1263,0.312233 -0.18861,0.468685 -0.0621,0.155857 -0.1236,0.311935 -0.18457,0.468225 -0.0607,0.155696 -0.12095,0.311604 -0.18061,0.467718 -0.0594,0.155519 -0.11833,0.311244 -0.17671,0.467165 -0.0595,0.158933 -0.11844,0.318072 -0.17685,0.477409 -0.0582,0.158715 -0.11582,0.317628 -0.17292,0.476731 -0.0556,0.154885 -0.11068,0.309952 -0.16527,0.465194 -0.0556,0.158234 -0.11076,0.316652 -0.16537,0.475245 -0.0556,0.161549 -0.11073,0.323283 -0.1653,0.485192 -0.0531,0.157676 -0.10579,0.315519 -0.15795,0.473524 -0.0531,0.160943 -0.10575,0.322055 -0.15787,0.483328 -0.0508,0.157048 -0.10104,0.31425 -0.15085,0.471599 -0.0507,0.160266 -0.10098,0.320687 -0.15076,0.481255 -0.0496,0.159897 -0.0987,0.319942 -0.14728,0.480127 -0.0495,0.163048 -0.0985,0.326242 -0.14705,0.489577 -0.0473,0.159096 -0.0941,0.318327 -0.14051,0.477685 -0.0472,0.162192 -0.094,0.324517 -0.14029,0.486969 -0.0461,0.161731 -0.0918,0.323588 -0.137,0.485566 -0.045,0.16125 -0.0896,0.322621 -0.1338,0.484106 -0.044,0.160751 -0.0875,0.321616 -0.13068,0.48259 -0.043,0.160232 -0.0855,0.320572 -0.12766,0.481016 -0.0429,0.163157 -0.0853,0.326422 -0.12739,0.489789 -0.0419,0.162576 -0.0833,0.325253 -0.12442,0.488026 -0.0409,0.161974 -0.0814,0.324044 -0.12152,0.486204 -0.0408,0.164775 -0.0812,0.329645 -0.12123,0.494603 -0.039,0.160694 -0.0777,0.321474 -0.11598,0.482333 -0.0389,0.163426 -0.0775,0.326935 -0.11574,0.490523 -0.0388,0.166093 -0.0773,0.332267 -0.11546,0.498518 -0.0372,0.161961 -0.074,0.323995 -0.11056,0.486098 -0.0371,0.164552 -0.0739,0.329175 -0.11035,0.493864 -0.0363,0.16374 -0.0723,0.327545 -0.10794,0.491412 -0.0355,0.162904 -0.0707,0.325868 -0.10563,0.48889 -0.0354,0.165342 -0.0706,0.330742 -0.1055,0.496197 -0.0347,0.164423 -0.0691,0.3289 -0.1033,0.493426 -0.034,0.16348 -0.0677,0.32701 -0.10123,0.490584 -0.0333,0.162512 -0.0664,0.325069 -0.0993,0.487667 -0.0333,0.16474 -0.0664,0.329521 -0.0993,0.494341 -0.0327,0.163681 -0.0652,0.327401 -0.0975,0.491153 -0.0327,0.165774 -0.0653,0.331583 -0.0977,0.497422 -0.0322,0.16462 -0.0642,0.32927 -0.096,0.493946 -0.0316,0.163438 -0.0631,0.326902 -0.0945,0.490387 -0.0318,0.165336 -0.0634,0.330694 -0.0949,0.49607 -0.0319,0.167134 -0.0637,0.334286 -0.0954,0.501451 -0.0309,0.162712 -0.0617,0.325437 -0.0924,0.488171 -0.0311,0.1644 -0.0621,0.328808 -0.0931,0.493221 -0.0313,0.165979 -0.0626,0.331962 -0.0938,0.497944 l -0.093,0.493396 c -0.0313,0.165872 -0.0626,0.331738 -0.094,0.497593 -0.0311,0.164239 -0.0622,0.328466 -0.0934,0.492676 -0.0315,0.165458 -0.063,0.330899 -0.0947,0.496316 -0.0313,0.163694 -0.0628,0.327365 -0.0945,0.491006 -0.0318,0.16472 -0.0638,0.329408 -0.096,0.494059 -0.0324,0.165609 -0.065,0.33118 -0.0978,0.496703 -0.03244,0.163603 -0.06512,0.327159 -0.09807,0.49066 C 99.789286,76.01158 99.427974,77.64502 99.287,78.289"
       id="path_2022_01_20_14_14_40_666649"
       inkscape:connector-curvature="0"
       inkscape:label="path_rddf-log-mosaic-circuito1-semi-reboque-20220118-3.txt"
       sodipodi:nodetypes="caaaaaaaaaaaaaaaaaaaaaaaaaaaaaaaaaaaaaaaaaaaaaaaaaaaaaaaaaaaaaaaaaaaaaaaaaaaaaaaaaaaaaaaaaaaaaaaaaaaaaaaaaaaaaaaaaaaaaaaaaaaaaaaaaaaaaaaaaaaaaaaaaaaaaaaaaaaaaaaaaaaaaaaaaccaaaaaaaaaaaaaaaaaaaaaaaaaaaaaaaaaaaaaaaaaaaaaaaaaaaaaaaaaaaaaaaaaaaaaaaaaaaaaaaaaaaaaaaaaaaaaaaaaaaaaaaaaaaaaaaaaaaaaaaaaaaaaaaaaaaaaaaaaaaaaaaaaaaaaaaaaaaaaaaaaaaccccccaaaaaaaaaaaaaaaaaaaaaaaaaaaaaaaaaaaaaaaaaaaaaaaaaaaaaaaaaaaaaaaaaaaaaaaaaaaaaaaaaaaaaaaaaaaaaaaaaaaaaccaaaaaaaaccaaaaaaaaaaaaaaaaaaaaaaccaaaaaaaaaaaaaaaaaaaaaaaaaaaaaaaaaaaaaaaaaaaaaaaaaaaaaaaaaaaaaaaaaaaaaaaaaaaaaaaaaaaaaaaaaaaaaaaaaaaaaaaaaaaaaaaaaaaaaaaaaaaaaaaaaaaaaaaaaaaaaaaaaaaaaaaaaaaaaaaaaaaaaaaaaaaccaaaaaaaaaaaaaaaaaaaaaaaaaaaaaaaaaaaaaaaaaaaaaaaaaaaaaaaccaaaaaaaaaaaaaaaaaaaaaaaccaaaaaaaaaaaaaaaaaaaaaaaaaaaaaaaaaaaaaaaaaaaaaaaaaaaaaaaaaaaaaaaaaaaaaaaaaaaaaaaaaaaaaaaaaaaaaaaaaaaaaaaaaaaaaaaaaaaaaaaaaaaaaaaaaaaaaaaaaaaaaaaaaaaaaaacc"
       style="fill:none;stroke:#ff00ff;stroke-width:0.4px;stroke-linecap:butt;stroke-linejoin:miter;stroke-miterlimit:4;stroke-dasharray:none;stroke-opacity:1" />
  </g>
  <g
     id="layer_2022_01_20_14_14_40_669854"
     inkscape:groupmode="layer"
     inkscape:label="bad_phis"
     style="display:inline" />
  <g
     id="layer_2022_01_20_14_14_40_670228"
     inkscape:groupmode="layer"
     inkscape:label="loop_closures"
     style="display:inline" />
</svg>
